<svg width="699" height="255" viewBox="0 0 699 255" fill="none" xmlns="http://www.w3.org/2000/svg">
<rect width="699" height="255" rx="15" fill="#EEEDFE"/>
<g clip-path="url(#clip0_1090_128)">
<path d="M436.855 74.1147H307.845C300.145 74.1147 293.902 80.3475 293.902 88.036V206.006C293.902 213.695 300.145 219.927 307.845 219.927H436.855C444.555 219.927 450.797 213.695 450.797 206.006V88.036C450.797 80.3475 444.555 74.1147 436.855 74.1147Z" stroke="#7E58FF" stroke-width="3.24137" stroke-miterlimit="10"/>
<path d="M432.943 72.2715H311.758V221.53H432.943V72.2715Z" fill="#EEEDFE"/>
<g opacity="0.41">
<path d="M131.986 167.262H28.7639C25.6863 167.262 23.1914 169.753 23.1914 172.826V222.746C23.1914 225.819 25.6863 228.31 28.7639 228.31H131.986C135.063 228.31 137.558 225.819 137.558 222.746V172.826C137.558 169.753 135.063 167.262 131.986 167.262Z" fill="white" stroke="#BABABA" stroke-width="2.91723" stroke-miterlimit="10"/>
<path d="M137.558 177.189H31.168V197.428H137.558V177.189Z" fill="#7E58FF"/>
<path d="M30.8499 173.028C31.5069 173.028 32.0396 172.496 32.0396 171.84C32.0396 171.184 31.5069 170.652 30.8499 170.652C30.1928 170.652 29.6602 171.184 29.6602 171.84C29.6602 172.496 30.1928 173.028 30.8499 173.028Z" fill="#A0A0A0"/>
<path d="M33.885 173.028C34.5421 173.028 35.0748 172.496 35.0748 171.84C35.0748 171.184 34.5421 170.652 33.885 170.652C33.228 170.652 32.6953 171.184 32.6953 171.84C32.6953 172.496 33.228 173.028 33.885 173.028Z" fill="#A0A0A0"/>
<path d="M37.1389 173.028C37.796 173.028 38.3287 172.496 38.3287 171.84C38.3287 171.184 37.796 170.652 37.1389 170.652C36.4819 170.652 35.9492 171.184 35.9492 171.84C35.9492 172.496 36.4819 173.028 37.1389 173.028Z" fill="#A0A0A0"/>
<path d="M128.708 201.59H32.0401C31.5584 201.59 31.168 201.98 31.168 202.461V202.463C31.168 202.944 31.5584 203.334 32.0401 203.334H128.708C129.19 203.334 129.581 202.944 129.581 202.463V202.461C129.581 201.98 129.19 201.59 128.708 201.59Z" fill="#D1D3D4"/>
<path d="M128.708 205.366H32.0401C31.5584 205.366 31.168 205.756 31.168 206.237V206.24C31.168 206.721 31.5584 207.111 32.0401 207.111H128.708C129.19 207.111 129.581 206.721 129.581 206.24V206.237C129.581 205.756 129.19 205.366 128.708 205.366Z" fill="#D1D3D4"/>
<path d="M128.708 209.146H32.0401C31.5584 209.146 31.168 209.536 31.168 210.017V210.02C31.168 210.501 31.5584 210.891 32.0401 210.891H128.708C129.19 210.891 129.581 210.501 129.581 210.02V210.017C129.581 209.536 129.19 209.146 128.708 209.146Z" fill="#D1D3D4"/>
<path d="M128.708 212.921H32.0401C31.5584 212.921 31.168 213.311 31.168 213.792V213.795C31.168 214.276 31.5584 214.666 32.0401 214.666H128.708C129.19 214.666 129.581 214.276 129.581 213.795V213.792C129.581 213.311 129.19 212.921 128.708 212.921Z" fill="#D1D3D4"/>
</g>
<g opacity="0.25">
<path d="M176.905 69.4731H36.8827C32.3351 69.4731 28.6484 73.1541 28.6484 77.6949V144.785C28.6484 149.326 32.3351 153.007 36.8827 153.007H176.905C181.453 153.007 185.14 149.326 185.14 144.785V77.6949C185.14 73.1541 181.453 69.4731 176.905 69.4731Z" fill="white" stroke="#BABABA" stroke-width="2.91723" stroke-miterlimit="10"/>
<path d="M175.406 83.0581H39.1328V110.75H175.406V83.0581Z" fill="#7E58FF"/>
<path d="M39.1272 77.3651C40.0258 77.3651 40.7544 76.6377 40.7544 75.7404C40.7544 74.8431 40.0258 74.1157 39.1272 74.1157C38.2285 74.1157 37.5 74.8431 37.5 75.7404C37.5 76.6377 38.2285 77.3651 39.1272 77.3651Z" fill="#A0A0A0"/>
<path d="M43.2834 77.3651C44.1821 77.3651 44.9106 76.6377 44.9106 75.7404C44.9106 74.8431 44.1821 74.1157 43.2834 74.1157C42.3848 74.1157 41.6562 74.8431 41.6562 75.7404C41.6562 76.6377 42.3848 77.3651 43.2834 77.3651Z" fill="#A0A0A0"/>
<path d="M47.7366 77.3651C48.6352 77.3651 49.3637 76.6377 49.3637 75.7404C49.3637 74.8431 48.6352 74.1157 47.7366 74.1157C46.8379 74.1157 46.1094 74.8431 46.1094 75.7404C46.1094 76.6377 46.8379 77.3651 47.7366 77.3651Z" fill="#A0A0A0"/>
<path d="M173.031 116.444H40.7605C40.101 116.444 39.5664 116.978 39.5664 117.636C39.5664 118.295 40.101 118.828 40.7605 118.828H173.031C173.691 118.828 174.225 118.295 174.225 117.636C174.225 116.978 173.691 116.444 173.031 116.444Z" fill="#D1D3D4"/>
<path d="M173.031 121.614H40.7605C40.101 121.614 39.5664 122.148 39.5664 122.807C39.5664 123.465 40.101 123.999 40.7605 123.999H173.031C173.691 123.999 174.225 123.465 174.225 122.807C174.225 122.148 173.691 121.614 173.031 121.614Z" fill="#D1D3D4"/>
<path d="M173.031 126.782H40.7605C40.101 126.782 39.5664 127.316 39.5664 127.975C39.5664 128.633 40.101 129.167 40.7605 129.167H173.031C173.691 129.167 174.225 128.633 174.225 127.975C174.225 127.316 173.691 126.782 173.031 126.782Z" fill="#D1D3D4"/>
<path d="M173.031 131.956H40.7605C40.101 131.956 39.5664 132.49 39.5664 133.148C39.5664 133.807 40.101 134.341 40.7605 134.341H173.031C173.691 134.341 174.225 133.807 174.225 133.148C174.225 132.49 173.691 131.956 173.031 131.956Z" fill="#D1D3D4"/>
</g>
<path d="M209.363 114.251H69.4646C64.8825 114.251 61.168 117.96 61.168 122.535V189.501C61.168 194.077 64.8825 197.785 69.4646 197.785H209.363C213.945 197.785 217.659 194.077 217.659 189.501V122.535C217.659 117.96 213.945 114.251 209.363 114.251Z" fill="white" stroke="#BABABA" stroke-width="2.91723" stroke-miterlimit="10"/>
<path d="M206.746 127.836H70.0234V155.528H206.746V127.836Z" fill="#7E58FF"/>
<path d="M71.6467 122.14C72.5454 122.14 73.2739 121.413 73.2739 120.515C73.2739 119.618 72.5454 118.891 71.6467 118.891C70.748 118.891 70.0195 119.618 70.0195 120.515C70.0195 121.413 70.748 122.14 71.6467 122.14Z" fill="#A0A0A0"/>
<path d="M75.8069 122.14C76.7055 122.14 77.434 121.413 77.434 120.515C77.434 119.618 76.7055 118.891 75.8069 118.891C74.9082 118.891 74.1797 119.618 74.1797 120.515C74.1797 121.413 74.9082 122.14 75.8069 122.14Z" fill="#A0A0A0"/>
<path d="M80.2561 122.14C81.1548 122.14 81.8833 121.413 81.8833 120.515C81.8833 119.618 81.1548 118.891 80.2561 118.891C79.3574 118.891 78.6289 119.618 78.6289 120.515C78.6289 121.413 79.3574 122.14 80.2561 122.14Z" fill="#A0A0A0"/>
<path d="M205.551 161.222H73.2801C72.6206 161.222 72.0859 161.756 72.0859 162.414C72.0859 163.073 72.6206 163.607 73.2801 163.607H205.551C206.21 163.607 206.745 163.073 206.745 162.414C206.745 161.756 206.21 161.222 205.551 161.222Z" fill="#D1D3D4"/>
<path d="M205.551 166.393H73.2801C72.6206 166.393 72.0859 166.926 72.0859 167.585C72.0859 168.243 72.6206 168.777 73.2801 168.777H205.551C206.21 168.777 206.745 168.243 206.745 167.585C206.745 166.926 206.21 166.393 205.551 166.393Z" fill="#D1D3D4"/>
<path d="M205.551 171.561H73.2801C72.6206 171.561 72.0859 172.094 72.0859 172.753C72.0859 173.411 72.6206 173.945 73.2801 173.945H205.551C206.21 173.945 206.745 173.411 206.745 172.753C206.745 172.094 206.21 171.561 205.551 171.561Z" fill="#D1D3D4"/>
<path d="M205.551 176.729H73.2801C72.6206 176.729 72.0859 177.263 72.0859 177.921C72.0859 178.58 72.6206 179.114 73.2801 179.114H205.551C206.21 179.114 206.745 178.58 206.745 177.921C206.745 177.263 206.21 176.729 205.551 176.729Z" fill="#D1D3D4"/>
<path d="M663.438 73.123H521.828C515.708 73.123 510.746 78.077 510.746 84.188V215.123C510.746 221.234 515.708 226.188 521.828 226.188H663.438C669.559 226.188 674.52 221.234 674.52 215.123V84.188C674.52 78.077 669.559 73.123 663.438 73.123Z" fill="white" stroke="#BABABA" stroke-width="2.91723" stroke-miterlimit="10"/>
<path d="M649.736 91.8486H576.241C571.247 91.8486 567.199 95.8897 567.199 100.875C567.199 105.859 571.247 109.9 576.241 109.9H649.736C654.729 109.9 658.777 105.859 658.777 100.875C658.777 95.8897 654.729 91.8486 649.736 91.8486Z" fill="white" stroke="#B3B3B3" stroke-width="1.62069" stroke-miterlimit="10"/>
<path d="M523.437 82.6729C524.524 82.6729 525.405 81.793 525.405 80.7075C525.405 79.6221 524.524 78.7422 523.437 78.7422C522.35 78.7422 521.469 79.6221 521.469 80.7075C521.469 81.793 522.35 82.6729 523.437 82.6729Z" fill="#A0A0A0"/>
<path d="M528.457 82.6729C529.544 82.6729 530.425 81.793 530.425 80.7075C530.425 79.6221 529.544 78.7422 528.457 78.7422C527.37 78.7422 526.488 79.6221 526.488 80.7075C526.488 81.793 527.37 82.6729 528.457 82.6729Z" fill="#A0A0A0"/>
<path d="M533.859 82.6729C534.946 82.6729 535.827 81.793 535.827 80.7075C535.827 79.6221 534.946 78.7422 533.859 78.7422C532.772 78.7422 531.891 79.6221 531.891 80.7075C531.891 81.793 532.772 82.6729 533.859 82.6729Z" fill="#A0A0A0"/>
<path d="M644.762 98.7852H581.207C580.077 98.7852 579.16 99.7003 579.16 100.829C579.16 101.958 580.077 102.873 581.207 102.873H644.762C645.893 102.873 646.809 101.958 646.809 100.829C646.809 99.7003 645.893 98.7852 644.762 98.7852Z" fill="#BABABA"/>
<path d="M597.89 138.927H523.801C522.67 138.927 521.754 139.842 521.754 140.971C521.754 142.1 522.67 143.015 523.801 143.015H597.89C599.021 143.015 599.937 142.1 599.937 140.971C599.937 139.842 599.021 138.927 597.89 138.927Z" fill="#BABABA"/>
<path d="M597.89 145.572H523.801C522.67 145.572 521.754 146.487 521.754 147.616C521.754 148.745 522.67 149.66 523.801 149.66H597.89C599.021 149.66 599.937 148.745 599.937 147.616C599.937 146.487 599.021 145.572 597.89 145.572Z" fill="#BABABA"/>
<path d="M618.01 128.373H525.058C523.076 128.373 521.469 129.976 521.469 131.954C521.469 133.933 523.076 135.536 525.058 135.536H618.01C619.992 135.536 621.599 133.933 621.599 131.954C621.599 129.976 619.992 128.373 618.01 128.373Z" fill="#7E58FF"/>
<path d="M597.89 169.21H523.801C522.67 169.21 521.754 170.125 521.754 171.254C521.754 172.383 522.67 173.298 523.801 173.298H597.89C599.021 173.298 599.937 172.383 599.937 171.254C599.937 170.125 599.021 169.21 597.89 169.21Z" fill="#BABABA"/>
<path d="M597.89 175.849H523.801C522.67 175.849 521.754 176.764 521.754 177.893C521.754 179.021 522.67 179.937 523.801 179.937H597.89C599.021 179.937 599.937 179.021 599.937 177.893C599.937 176.764 599.021 175.849 597.89 175.849Z" fill="#BABABA"/>
<path d="M618.01 158.653H525.058C523.076 158.653 521.469 160.257 521.469 162.235C521.469 164.213 523.076 165.817 525.058 165.817H618.01C619.992 165.817 621.599 164.213 621.599 162.235C621.599 160.257 619.992 158.653 618.01 158.653Z" fill="#7E58FF"/>
<path d="M597.89 200.527H523.801C522.67 200.527 521.754 201.442 521.754 202.571C521.754 203.7 522.67 204.615 523.801 204.615H597.89C599.021 204.615 599.937 203.7 599.937 202.571C599.937 201.442 599.021 200.527 597.89 200.527Z" fill="#BABABA"/>
<path d="M597.89 207.171H523.801C522.67 207.171 521.754 208.086 521.754 209.215C521.754 210.344 522.67 211.259 523.801 211.259H597.89C599.021 211.259 599.937 210.344 599.937 209.215C599.937 208.086 599.021 207.171 597.89 207.171Z" fill="#BABABA"/>
<path d="M618.01 189.969H525.058C523.076 189.969 521.469 191.572 521.469 193.551C521.469 195.529 523.076 197.132 525.058 197.132H618.01C619.992 197.132 621.599 195.529 621.599 193.551C621.599 191.572 619.992 189.969 618.01 189.969Z" fill="#7E58FF"/>
<path d="M521.054 104.065C521.13 104.049 521.202 104.023 521.274 103.993C522.022 103.698 522.718 103.305 523.41 102.906C524.21 102.444 525.007 101.975 525.831 101.553C526.024 101.455 526.211 101.448 526.385 101.572C526.904 101.949 527.429 102.316 527.917 102.732C528.6 103.312 529.259 103.911 529.922 104.511C530.02 104.599 530.129 104.661 530.256 104.691C530.424 104.727 530.512 104.645 530.489 104.475C530.483 104.429 530.466 104.386 530.45 104.344C530.024 103.125 529.492 101.952 528.928 100.793C528.58 100.079 528.232 99.3615 528.003 98.595C527.806 97.9464 527.652 97.288 527.471 96.6362C527.238 95.8042 527.032 94.9624 526.809 94.1304C526.749 93.9043 526.664 93.6849 526.523 93.4949C526.435 93.377 526.366 93.3901 526.303 93.5211C526.011 94.114 525.703 94.7003 525.457 95.3128C525.142 96.1055 524.883 96.9212 524.607 97.727C524.447 98.1954 524.273 98.6507 523.987 99.0634C522.928 100.593 521.914 102.152 520.894 103.708C520.858 103.764 520.828 103.82 520.838 103.878C520.838 104.046 520.89 104.095 521.048 104.062L521.054 104.065ZM521.297 103.446C522.084 102.27 522.806 101.048 523.636 99.8987C523.82 99.6432 524.017 99.3942 524.217 99.1486C524.42 98.8996 524.561 98.6277 524.65 98.3166C524.932 97.3404 525.309 96.3971 525.631 95.4308C525.811 94.8903 526.07 94.3859 526.356 93.8945C526.366 93.8749 526.382 93.8585 526.408 93.8192C526.444 93.9076 526.471 93.9797 526.5 94.0517C526.658 94.3891 526.71 94.7593 526.809 95.113C527.11 96.2071 527.34 97.3175 527.665 98.4083C527.868 99.0896 528.196 99.7218 528.498 100.361C529.039 101.52 529.541 102.699 530.04 103.878C530.086 103.96 530.083 104.055 530.102 104.144C530.112 104.183 530.132 104.222 530.083 104.252C530.037 104.278 530.014 104.242 529.987 104.226C529.758 104.088 529.568 103.898 529.374 103.718C528.452 102.853 527.488 102.044 526.458 101.31C526.339 101.225 526.221 101.153 526.067 101.179C525.91 101.222 525.778 101.317 525.641 101.396C524.561 102.002 523.485 102.608 522.406 103.214C522.38 103.23 522.347 103.24 522.317 103.25C521.973 103.446 521.619 103.623 521.225 103.741C521.235 103.63 521.245 103.538 521.3 103.456L521.297 103.446Z" fill="#4286F1"/>
<path d="M525.21 98.183C524.915 98.8708 524.557 99.526 524.137 100.142C523.848 100.564 523.579 101.003 523.337 101.455C523.032 102.025 522.694 102.576 522.372 103.132C522.352 103.168 522.333 103.204 522.316 103.244C522.346 103.231 522.375 103.224 522.405 103.208C523.484 102.602 524.56 101.992 525.64 101.39C525.777 101.311 525.909 101.216 526.066 101.174C526.338 101.02 526.584 101.069 526.85 101.223C527.355 101.514 527.788 101.891 528.212 102.287C528.418 102.484 528.681 102.605 528.897 102.792C529.091 102.959 529.245 103.155 529.406 103.349C529.57 103.548 529.77 103.709 529.973 103.866C529.993 103.879 530.016 103.905 530.045 103.873C529.547 102.693 529.045 101.518 528.504 100.355C528.205 99.7127 527.874 99.0837 527.67 98.4024C527.349 97.3149 527.116 96.2012 526.814 95.1072C526.716 94.7534 526.663 94.3833 526.506 94.0459C526.296 94.7174 526.089 95.3889 525.869 96.0571C525.64 96.7614 525.505 97.4951 525.213 98.1797L525.21 98.183ZM526.437 98.1502C526.643 98.1568 526.85 98.1568 527.04 98.2419C527.09 98.2649 527.142 98.2878 527.182 98.3238C527.444 98.576 527.503 99.0019 527.323 99.3229C527.237 99.4735 527.152 99.6308 526.972 99.6897C526.893 99.8208 526.814 99.9485 526.703 100.053C526.302 100.433 525.754 100.292 525.561 99.7749C525.463 99.5096 525.479 99.2574 525.594 99.0051C525.672 98.5564 525.958 98.1338 526.434 98.1502H526.437Z" fill="#4286F1"/>
<path d="M522.347 103.099C522.82 102.307 523.259 101.498 523.722 100.702C523.945 100.318 524.24 99.9745 524.45 99.5847C524.732 99.0541 525.051 98.5431 525.254 97.9764C525.405 97.5604 525.493 97.1313 525.625 96.7087C525.858 95.9652 526.074 95.2151 526.323 94.4781C526.366 94.3536 526.396 94.2226 526.441 94.0981C526.451 94.0719 526.461 94.0457 526.497 94.049C526.468 93.9769 526.441 93.9048 526.405 93.8164C526.379 93.8557 526.366 93.8721 526.353 93.8917C526.067 94.3831 525.808 94.8875 525.628 95.428C525.306 96.391 524.929 97.3344 524.647 98.3138C524.558 98.625 524.414 98.8968 524.214 99.1458C524.014 99.3914 523.817 99.6404 523.633 99.8959C522.807 101.046 522.082 102.267 521.294 103.443C521.238 103.525 521.229 103.62 521.219 103.728C521.612 103.61 521.967 103.434 522.311 103.237C522.288 103.181 522.321 103.139 522.347 103.096V103.099Z" fill="#4286F1"/>
<path d="M526.441 94.1003C526.395 94.2247 526.366 94.3558 526.323 94.4802C526.071 95.2172 525.857 95.9673 525.625 96.7109C525.493 97.1302 525.401 97.5626 525.254 97.9786C525.047 98.5452 524.732 99.0595 524.45 99.5869C524.24 99.9799 523.948 100.321 523.722 100.704C523.259 101.5 522.816 102.309 522.347 103.102C522.321 103.144 522.291 103.187 522.311 103.242C522.331 103.206 522.347 103.167 522.367 103.131C522.688 102.571 523.026 102.021 523.331 101.454C523.574 101.002 523.843 100.566 524.132 100.14C524.555 99.5246 524.913 98.8695 525.205 98.1816C525.497 97.497 525.628 96.7633 525.861 96.0591C526.08 95.3908 526.287 94.7193 526.497 94.0479C526.461 94.0479 526.451 94.0741 526.441 94.097V94.1003Z" fill="#4286F1"/>
<path d="M529.918 103.871C529.748 103.746 529.574 103.619 529.446 103.455C529.141 103.058 528.79 102.718 528.363 102.453C528.081 102.279 527.875 102.007 527.622 101.797C527.323 101.552 526.995 101.349 526.658 101.162C526.559 101.11 526.461 101.093 526.352 101.116C526.257 101.136 526.165 101.159 526.07 101.172C526.225 101.146 526.343 101.218 526.461 101.303C527.491 102.037 528.455 102.846 529.377 103.71C529.571 103.89 529.761 104.08 529.991 104.218C530.02 104.234 530.043 104.274 530.086 104.244C530.135 104.215 530.115 104.175 530.105 104.136C530.086 104.048 530.089 103.953 530.043 103.871C529.997 103.949 529.955 103.887 529.922 103.864L529.918 103.871Z" fill="#4286F1"/>
<path d="M529.966 103.864C529.762 103.707 529.562 103.547 529.398 103.347C529.238 103.154 529.083 102.957 528.89 102.79C528.673 102.603 528.414 102.479 528.204 102.286C527.784 101.889 527.348 101.513 526.843 101.221C526.577 101.067 526.331 101.018 526.059 101.172C526.154 101.156 526.249 101.136 526.341 101.116C526.449 101.093 526.547 101.106 526.646 101.162C526.984 101.349 527.312 101.552 527.61 101.798C527.866 102.007 528.07 102.276 528.352 102.453C528.781 102.718 529.129 103.059 529.434 103.455C529.562 103.622 529.736 103.747 529.907 103.871C529.94 103.894 529.986 103.956 530.028 103.878C530.002 103.91 529.976 103.884 529.956 103.871L529.966 103.864Z" fill="#4286F1"/>
<path d="M526.979 98.9383C526.815 98.6271 526.28 98.4371 525.962 98.5845C525.867 98.6271 525.801 98.7057 525.742 98.7876C525.693 98.8564 525.647 98.9317 525.601 99.0038C525.487 99.256 525.47 99.5082 525.569 99.7736C525.759 100.294 526.31 100.432 526.71 100.052C526.822 99.9472 526.9 99.8194 526.979 99.6884C527.087 99.4394 527.114 99.1905 526.979 98.9383ZM526.257 99.9701C525.995 99.9766 525.769 99.7113 525.759 99.3838C525.752 99.1021 525.988 98.84 526.261 98.8335C526.543 98.8269 526.776 99.0529 526.786 99.3412C526.792 99.6294 526.513 99.9635 526.257 99.9701Z" fill="#4286F1"/>
<path d="M526.382 98.5211C526.7 98.5801 526.946 98.7275 527.051 99.0419C527.126 99.2647 527.133 99.494 526.972 99.6938C527.153 99.6316 527.238 99.4776 527.323 99.3269C527.507 99.0059 527.448 98.5801 527.182 98.3279C527.143 98.2918 527.09 98.2689 527.041 98.246C526.848 98.1575 526.641 98.1608 526.437 98.1543C525.962 98.1379 525.676 98.5637 525.598 99.0092C525.709 98.6423 525.975 98.4491 526.382 98.5244V98.5211Z" fill="#4286F1"/>
<path d="M527.051 99.0408C526.946 98.7264 526.7 98.579 526.382 98.52C525.975 98.4447 525.709 98.6379 525.598 99.0048C525.644 98.9328 525.689 98.8574 525.739 98.7886C525.798 98.7067 525.863 98.6281 525.959 98.5855C526.277 98.4381 526.811 98.6281 526.975 98.9393C527.107 99.1915 527.08 99.4405 526.975 99.6894C527.136 99.4896 527.13 99.2603 527.054 99.0376L527.051 99.0408Z" fill="#4286F1"/>
<path d="M536.933 97.4422C536.88 97.4521 536.831 97.4717 536.782 97.4914C536.273 97.6912 535.797 97.9598 535.325 98.2317C534.78 98.5461 534.236 98.8671 533.675 99.1521C533.544 99.2209 533.416 99.2242 533.298 99.139C532.943 98.8835 532.586 98.6313 532.251 98.3496C531.785 97.9565 531.336 97.5438 530.886 97.1376C530.821 97.0786 530.745 97.0361 530.66 97.0164C530.549 96.9902 530.486 97.0492 530.503 97.1638C530.506 97.1933 530.519 97.2228 530.529 97.2523C530.821 98.081 531.182 98.8835 531.566 99.6729C531.802 100.161 532.041 100.649 532.195 101.17C532.33 101.612 532.435 102.061 532.56 102.503C532.717 103.07 532.858 103.643 533.012 104.213C533.055 104.367 533.111 104.518 533.206 104.645C533.265 104.724 533.311 104.717 533.357 104.626C533.554 104.223 533.767 103.823 533.934 103.404C534.151 102.863 534.324 102.31 534.511 101.759C534.62 101.442 534.738 101.131 534.935 100.849C535.656 99.8072 536.349 98.7426 537.044 97.6846C537.07 97.6453 537.087 97.6093 537.084 97.57C537.084 97.4553 537.047 97.4226 536.939 97.4455L536.933 97.4422ZM536.765 97.8615C536.227 98.664 535.735 99.496 535.171 100.279C535.046 100.453 534.912 100.623 534.774 100.79C534.636 100.96 534.541 101.147 534.479 101.357C534.288 102.022 534.029 102.667 533.809 103.322C533.688 103.692 533.508 104.033 533.314 104.37C533.308 104.383 533.298 104.396 533.278 104.423C533.255 104.364 533.235 104.314 533.216 104.265C533.107 104.036 533.071 103.784 533.006 103.541C532.799 102.795 532.642 102.038 532.422 101.298C532.284 100.832 532.061 100.403 531.854 99.9677C531.483 99.1783 531.142 98.3758 530.804 97.57C530.772 97.5143 530.775 97.4521 530.762 97.3898C530.755 97.3636 530.742 97.3374 530.775 97.3178C530.804 97.2981 530.821 97.3243 530.841 97.3374C530.998 97.4324 531.126 97.5602 531.257 97.6846C531.884 98.2742 532.543 98.8245 533.245 99.3257C533.327 99.3847 533.406 99.4338 533.511 99.4141C533.619 99.3847 533.708 99.3191 533.803 99.2667C534.538 98.854 535.273 98.4413 536.007 98.0286C536.027 98.0187 536.047 98.0122 536.066 98.0024C536.303 97.8681 536.542 97.7469 536.811 97.6683C536.805 97.7436 536.798 97.8058 536.762 97.8648L536.765 97.8615Z" fill="#E84334"/>
<path d="M534.095 101.445C534.295 100.977 534.538 100.532 534.827 100.109C535.024 99.8208 535.207 99.5227 535.371 99.2148C535.578 98.8283 535.811 98.4516 536.027 98.0716C536.041 98.0487 536.054 98.0225 536.067 97.9963C536.047 98.0028 536.027 98.0094 536.008 98.0225C535.273 98.4352 534.538 98.8512 533.803 99.2607C533.708 99.3131 533.619 99.3786 533.511 99.4081C533.324 99.5129 533.16 99.4801 532.976 99.372C532.632 99.1722 532.337 98.9167 532.051 98.6481C531.91 98.5138 531.733 98.4319 531.585 98.3042C531.454 98.1895 531.349 98.0553 531.241 97.9242C531.129 97.7899 530.992 97.6786 530.854 97.5705C530.841 97.5606 530.824 97.5443 530.805 97.5639C531.146 98.3664 531.487 99.1689 531.854 99.9616C532.058 100.397 532.284 100.83 532.422 101.292C532.642 102.032 532.799 102.792 533.006 103.535C533.072 103.778 533.108 104.03 533.216 104.259C533.357 103.801 533.501 103.342 533.649 102.887C533.806 102.409 533.895 101.907 534.095 101.442V101.445ZM533.259 101.468C533.118 101.465 532.976 101.465 532.845 101.406C532.812 101.39 532.776 101.373 532.75 101.35C532.57 101.18 532.53 100.889 532.655 100.669C532.714 100.564 532.77 100.46 532.894 100.417C532.947 100.329 533.003 100.24 533.078 100.171C533.35 99.9125 533.724 100.007 533.856 100.361C533.921 100.541 533.911 100.715 533.833 100.885C533.777 101.19 533.583 101.478 533.262 101.468H533.259Z" fill="#E84334"/>
<path d="M536.047 98.0956C535.726 98.6361 535.424 99.1864 535.109 99.7301C534.958 99.9922 534.758 100.225 534.614 100.493C534.42 100.854 534.204 101.204 534.066 101.591C533.964 101.872 533.902 102.167 533.813 102.452C533.656 102.96 533.508 103.471 533.337 103.972C533.308 104.057 533.288 104.146 533.259 104.231C533.252 104.247 533.246 104.267 533.223 104.267C533.242 104.316 533.262 104.365 533.285 104.424C533.305 104.398 533.311 104.385 533.321 104.372C533.515 104.038 533.692 103.694 533.816 103.323C534.036 102.668 534.292 102.023 534.486 101.358C534.548 101.145 534.643 100.962 534.781 100.791C534.915 100.624 535.05 100.454 535.178 100.28C535.742 99.4976 536.234 98.6656 536.772 97.863C536.812 97.8074 536.815 97.7418 536.821 97.6665C536.552 97.7451 536.313 97.8663 536.077 98.0006C536.093 98.0366 536.07 98.0661 536.054 98.0956H536.047Z" fill="#E84334"/>
<path d="M533.258 104.232C533.288 104.147 533.307 104.059 533.337 103.973C533.507 103.472 533.655 102.961 533.813 102.453C533.901 102.168 533.963 101.874 534.065 101.592C534.206 101.205 534.423 100.855 534.613 100.495C534.757 100.226 534.957 99.9935 535.108 99.7315C535.423 99.1877 535.725 98.6374 536.047 98.0969C536.063 98.0675 536.086 98.038 536.07 98.002C536.056 98.0282 536.043 98.0511 536.03 98.0773C535.81 98.4573 535.581 98.834 535.374 99.2205C535.21 99.5284 535.026 99.8265 534.83 100.115C534.541 100.534 534.298 100.983 534.098 101.451C533.898 101.916 533.809 102.417 533.652 102.896C533.504 103.351 533.36 103.81 533.219 104.268C533.245 104.268 533.252 104.252 533.255 104.232H533.258Z" fill="#E84334"/>
<path d="M530.895 97.5744C531.01 97.6595 531.131 97.7447 531.217 97.8593C531.427 98.1279 531.663 98.3605 531.955 98.5407C532.145 98.6586 532.286 98.842 532.46 98.9861C532.663 99.1532 532.887 99.2908 533.116 99.4185C533.182 99.4546 533.251 99.4644 533.323 99.448C533.388 99.4349 533.451 99.4185 533.516 99.4087C533.411 99.4284 533.333 99.3759 533.251 99.3203C532.549 98.8224 531.893 98.2688 531.263 97.6792C531.131 97.5547 531 97.427 530.846 97.332C530.826 97.3189 530.81 97.2959 530.78 97.3123C530.744 97.332 530.761 97.3582 530.767 97.3844C530.78 97.4433 530.777 97.5089 530.81 97.5645C530.839 97.5121 530.872 97.5547 530.892 97.5678L530.895 97.5744Z" fill="#E84334"/>
<path d="M530.858 97.5785C530.996 97.6866 531.134 97.7947 531.246 97.9323C531.354 98.0633 531.459 98.1976 531.59 98.3123C531.738 98.44 531.915 98.5219 532.056 98.6562C532.341 98.9248 532.64 99.1803 532.981 99.3801C533.161 99.4849 533.329 99.5177 533.516 99.4161C533.45 99.426 533.388 99.4423 533.322 99.4554C533.247 99.4718 533.181 99.462 533.115 99.426C532.886 99.2982 532.663 99.1606 532.459 98.9936C532.285 98.8495 532.144 98.666 531.954 98.5481C531.662 98.368 531.423 98.1354 531.216 97.8668C531.127 97.7521 531.009 97.667 530.895 97.5818C530.872 97.5654 530.842 97.5229 530.812 97.5785C530.832 97.5556 530.849 97.572 530.862 97.5851L530.858 97.5785Z" fill="#E84334"/>
<path d="M532.897 100.935C533.009 101.148 533.373 101.276 533.589 101.177C533.655 101.148 533.697 101.095 533.737 101.04C533.77 100.994 533.802 100.941 533.832 100.892C533.911 100.722 533.921 100.548 533.855 100.368C533.724 100.014 533.35 99.9195 533.077 100.178C533.002 100.25 532.946 100.335 532.894 100.424C532.822 100.594 532.802 100.765 532.894 100.935H532.897ZM533.386 100.234C533.563 100.227 533.717 100.411 533.724 100.634C533.73 100.827 533.566 101.004 533.383 101.007C533.189 101.01 533.032 100.86 533.025 100.663C533.022 100.466 533.209 100.24 533.383 100.234H533.386Z" fill="#E84334"/>
<path d="M533.297 101.22C533.081 101.181 532.914 101.079 532.841 100.866C532.789 100.716 532.786 100.558 532.894 100.421C532.769 100.463 532.713 100.568 532.654 100.673C532.53 100.893 532.569 101.181 532.75 101.354C532.776 101.381 532.812 101.394 532.845 101.41C532.976 101.469 533.117 101.469 533.258 101.472C533.583 101.482 533.776 101.194 533.829 100.889C533.753 101.142 533.573 101.273 533.294 101.22H533.297Z" fill="#E84334"/>
<path d="M532.846 100.866C532.918 101.079 533.085 101.181 533.302 101.22C533.581 101.273 533.761 101.142 533.836 100.889C533.804 100.938 533.774 100.991 533.741 101.037C533.702 101.092 533.656 101.145 533.594 101.174C533.377 101.273 533.013 101.145 532.901 100.932C532.81 100.758 532.829 100.591 532.901 100.421C532.79 100.558 532.797 100.712 532.849 100.866H532.846Z" fill="#E84334"/>
<path d="M559.921 97.4422C559.868 97.4521 559.819 97.4717 559.77 97.4914C559.261 97.6912 558.786 97.9598 558.313 98.2317C557.769 98.5461 557.224 98.8671 556.663 99.1521C556.532 99.2209 556.404 99.2242 556.286 99.139C555.932 98.8835 555.574 98.6313 555.239 98.3496C554.774 97.9565 554.324 97.5438 553.875 97.1376C553.809 97.0786 553.734 97.0361 553.648 97.0164C553.537 96.9902 553.474 97.0492 553.491 97.1638C553.494 97.1933 553.507 97.2228 553.517 97.2523C553.809 98.081 554.17 98.8835 554.554 99.6729C554.79 100.161 555.029 100.649 555.184 101.17C555.318 101.612 555.423 102.061 555.548 102.503C555.705 103.07 555.846 103.643 556.001 104.213C556.043 104.367 556.099 104.518 556.194 104.645C556.253 104.724 556.299 104.717 556.345 104.626C556.542 104.223 556.755 103.823 556.922 103.404C557.139 102.863 557.313 102.31 557.5 101.759C557.608 101.442 557.726 101.131 557.923 100.849C558.645 99.8072 559.337 98.7426 560.032 97.6846C560.059 97.6453 560.075 97.6093 560.072 97.57C560.072 97.4553 560.036 97.4226 559.927 97.4455L559.921 97.4422ZM559.754 97.8615C559.216 98.664 558.723 99.496 558.159 100.279C558.035 100.453 557.9 100.623 557.762 100.79C557.624 100.96 557.529 101.147 557.467 101.357C557.277 102.022 557.018 102.667 556.798 103.322C556.676 103.692 556.496 104.033 556.302 104.37C556.296 104.383 556.286 104.396 556.266 104.423C556.243 104.364 556.224 104.314 556.204 104.265C556.096 104.036 556.06 103.784 555.994 103.541C555.787 102.795 555.63 102.038 555.41 101.298C555.272 100.832 555.049 100.403 554.842 99.9677C554.472 99.1783 554.131 98.3758 553.793 97.57C553.76 97.5143 553.763 97.4521 553.75 97.3898C553.743 97.3636 553.73 97.3374 553.763 97.3178C553.793 97.2981 553.809 97.3243 553.829 97.3374C553.986 97.4324 554.114 97.5602 554.245 97.6846C554.872 98.2742 555.531 98.8245 556.233 99.3257C556.316 99.3847 556.394 99.4338 556.499 99.4141C556.607 99.3847 556.696 99.3191 556.791 99.2667C557.526 98.854 558.261 98.4413 558.996 98.0286C559.015 98.0187 559.035 98.0122 559.055 98.0024C559.291 97.8681 559.53 97.7469 559.8 97.6683C559.793 97.7436 559.786 97.8058 559.75 97.8648L559.754 97.8615Z" fill="#E84334"/>
<path d="M557.091 101.445C557.291 100.977 557.534 100.532 557.823 100.109C558.02 99.8208 558.203 99.5227 558.367 99.2148C558.574 98.8283 558.807 98.4516 559.024 98.0716C559.037 98.0487 559.05 98.0225 559.063 97.9963C559.043 98.0028 559.023 98.0094 559.004 98.0225C558.269 98.4352 557.534 98.8512 556.799 99.2607C556.704 99.3131 556.616 99.3786 556.507 99.4081C556.32 99.5129 556.156 99.4801 555.973 99.372C555.628 99.1722 555.333 98.9167 555.047 98.6481C554.906 98.5138 554.729 98.4319 554.582 98.3042C554.45 98.1895 554.345 98.0553 554.237 97.9242C554.126 97.7899 553.988 97.6786 553.85 97.5705C553.837 97.5606 553.82 97.5443 553.801 97.5639C554.142 98.3664 554.483 99.1689 554.851 99.9616C555.054 100.397 555.28 100.83 555.418 101.292C555.638 102.032 555.795 102.792 556.002 103.535C556.068 103.778 556.104 104.03 556.212 104.259C556.353 103.801 556.497 103.342 556.645 102.887C556.803 102.409 556.891 101.907 557.091 101.442V101.445ZM556.255 101.468C556.114 101.465 555.973 101.465 555.841 101.406C555.809 101.39 555.772 101.373 555.746 101.35C555.566 101.18 555.526 100.889 555.651 100.669C555.71 100.564 555.766 100.46 555.891 100.417C555.943 100.329 555.999 100.24 556.074 100.171C556.347 99.9125 556.721 100.007 556.852 100.361C556.917 100.541 556.908 100.715 556.829 100.885C556.773 101.19 556.579 101.478 556.258 101.468H556.255Z" fill="#E84334"/>
<path d="M559.036 98.0956C558.714 98.6361 558.412 99.1864 558.097 99.7301C557.946 99.9922 557.746 100.225 557.602 100.493C557.408 100.854 557.192 101.204 557.054 101.591C556.952 101.872 556.89 102.167 556.801 102.452C556.644 102.96 556.496 103.471 556.326 103.972C556.296 104.057 556.277 104.146 556.247 104.231C556.24 104.247 556.234 104.267 556.211 104.267C556.231 104.316 556.25 104.365 556.273 104.424C556.293 104.398 556.3 104.385 556.309 104.372C556.503 104.038 556.68 103.694 556.805 103.323C557.025 102.668 557.28 102.023 557.474 101.358C557.536 101.145 557.631 100.962 557.769 100.791C557.904 100.624 558.038 100.454 558.166 100.28C558.73 99.4976 559.223 98.6656 559.761 97.863C559.8 97.8074 559.803 97.7418 559.81 97.6665C559.541 97.7451 559.301 97.8663 559.065 98.0006C559.081 98.0366 559.059 98.0661 559.042 98.0956H559.036Z" fill="#E84334"/>
<path d="M556.246 104.232C556.276 104.147 556.296 104.059 556.325 103.973C556.496 103.472 556.643 102.961 556.801 102.453C556.889 102.168 556.952 101.874 557.053 101.592C557.195 101.205 557.411 100.855 557.601 100.495C557.746 100.226 557.946 99.9935 558.097 99.7315C558.412 99.1877 558.713 98.6374 559.035 98.0969C559.051 98.0675 559.074 98.038 559.058 98.002C559.045 98.0282 559.032 98.0511 559.019 98.0773C558.799 98.4573 558.569 98.834 558.362 99.2205C558.198 99.5284 558.015 99.8265 557.818 100.115C557.529 100.534 557.286 100.983 557.086 101.451C556.886 101.916 556.798 102.417 556.64 102.896C556.492 103.351 556.348 103.81 556.207 104.268C556.233 104.268 556.24 104.252 556.243 104.232H556.246Z" fill="#E84334"/>
<path d="M553.883 97.5744C553.998 97.6595 554.12 97.7447 554.205 97.8593C554.415 98.1279 554.651 98.3605 554.943 98.5407C555.133 98.6586 555.274 98.842 555.448 98.9861C555.652 99.1532 555.875 99.2908 556.104 99.4185C556.17 99.4546 556.239 99.4644 556.311 99.448C556.377 99.4349 556.439 99.4185 556.505 99.4087C556.4 99.4284 556.321 99.3759 556.239 99.3203C555.537 98.8224 554.881 98.2688 554.251 97.6792C554.12 97.5547 553.988 97.427 553.834 97.332C553.815 97.3189 553.798 97.2959 553.769 97.3123C553.733 97.332 553.749 97.3582 553.756 97.3844C553.769 97.4433 553.765 97.5089 553.798 97.5645C553.828 97.5121 553.861 97.5547 553.88 97.5678L553.883 97.5744Z" fill="#E84334"/>
<path d="M553.847 97.5785C553.984 97.6866 554.122 97.7947 554.234 97.9323C554.342 98.0633 554.447 98.1976 554.578 98.3123C554.726 98.44 554.903 98.5219 555.044 98.6562C555.33 98.9248 555.628 99.1803 555.969 99.3801C556.15 99.4849 556.317 99.5177 556.504 99.4161C556.438 99.426 556.376 99.4423 556.31 99.4554C556.235 99.4718 556.169 99.462 556.104 99.426C555.874 99.2982 555.651 99.1606 555.448 98.9936C555.274 98.8495 555.133 98.666 554.942 98.5481C554.65 98.368 554.411 98.1354 554.204 97.8668C554.116 97.7521 553.998 97.667 553.883 97.5818C553.86 97.5654 553.83 97.5229 553.801 97.5785C553.82 97.5556 553.837 97.572 553.85 97.5851L553.847 97.5785Z" fill="#E84334"/>
<path d="M555.885 100.935C555.997 101.148 556.361 101.276 556.578 101.177C556.643 101.148 556.686 101.095 556.725 101.04C556.758 100.994 556.791 100.941 556.82 100.892C556.899 100.722 556.909 100.548 556.843 100.368C556.712 100.014 556.338 99.9195 556.066 100.178C555.99 100.25 555.935 100.335 555.882 100.424C555.81 100.594 555.79 100.765 555.882 100.935H555.885ZM556.374 100.234C556.551 100.227 556.705 100.411 556.712 100.634C556.719 100.827 556.555 101.004 556.371 101.007C556.177 101.01 556.02 100.86 556.013 100.663C556.01 100.466 556.197 100.24 556.371 100.234H556.374Z" fill="#E84334"/>
<path d="M556.29 101.22C556.073 101.181 555.906 101.079 555.834 100.866C555.781 100.716 555.778 100.558 555.886 100.421C555.761 100.463 555.706 100.568 555.647 100.673C555.522 100.893 555.561 101.181 555.742 101.354C555.768 101.381 555.804 101.394 555.837 101.41C555.968 101.469 556.109 101.469 556.25 101.472C556.575 101.482 556.769 101.194 556.821 100.889C556.746 101.142 556.565 101.273 556.286 101.22H556.29Z" fill="#E84334"/>
<path d="M555.834 100.866C555.906 101.079 556.073 101.181 556.29 101.22C556.569 101.273 556.749 101.142 556.825 100.889C556.792 100.938 556.762 100.991 556.73 101.037C556.69 101.092 556.644 101.145 556.582 101.174C556.365 101.273 556.001 101.145 555.89 100.932C555.798 100.758 555.818 100.591 555.89 100.421C555.778 100.558 555.785 100.712 555.837 100.866H555.834Z" fill="#E84334"/>
<path d="M536.218 104.268C536.27 104.258 536.319 104.238 536.369 104.219C536.877 104.019 537.353 103.75 537.825 103.478C538.37 103.164 538.914 102.843 539.475 102.558C539.607 102.489 539.735 102.486 539.853 102.571C540.207 102.826 540.565 103.079 540.899 103.36C541.365 103.753 541.814 104.166 542.264 104.572C542.329 104.631 542.405 104.674 542.49 104.694C542.602 104.72 542.664 104.661 542.648 104.546C542.644 104.517 542.631 104.487 542.621 104.458C542.33 103.629 541.969 102.826 541.585 102.037C541.349 101.549 541.109 101.061 540.955 100.54C540.82 100.098 540.715 99.6491 540.591 99.2069C540.433 98.6402 540.292 98.067 540.138 97.4971C540.095 97.3431 540.04 97.1924 539.945 97.0647C539.885 96.9861 539.84 96.9926 539.794 97.0843C539.597 97.4872 539.384 97.8869 539.216 98.3061C539 98.8466 538.826 99.4002 538.639 99.9505C538.531 100.268 538.412 100.579 538.216 100.861C537.494 101.903 536.802 102.967 536.106 104.025C536.08 104.065 536.064 104.101 536.067 104.14C536.067 104.255 536.103 104.287 536.211 104.264L536.218 104.268ZM536.385 103.845C536.923 103.043 537.415 102.211 537.979 101.428C538.104 101.254 538.239 101.084 538.376 100.917C538.514 100.746 538.609 100.56 538.672 100.35C538.862 99.6851 539.121 99.0399 539.341 98.3847C539.462 98.0146 539.643 97.6739 539.836 97.3366C539.843 97.3234 539.853 97.3103 539.872 97.2841C539.895 97.3431 539.915 97.3922 539.935 97.4414C540.043 97.6707 540.079 97.9229 540.145 98.1653C540.351 98.9121 540.509 99.6688 540.729 100.409C540.866 100.874 541.089 101.303 541.296 101.739C541.667 102.528 542.008 103.331 542.346 104.137C542.379 104.192 542.375 104.255 542.389 104.317C542.395 104.343 542.408 104.369 542.375 104.389C542.346 104.409 542.33 104.382 542.31 104.369C542.152 104.274 542.024 104.146 541.893 104.022C541.267 103.432 540.607 102.882 539.905 102.381C539.823 102.322 539.744 102.273 539.639 102.293C539.531 102.322 539.443 102.388 539.347 102.44C538.613 102.853 537.878 103.265 537.143 103.678C537.123 103.688 537.104 103.694 537.084 103.704C536.848 103.839 536.608 103.96 536.339 104.038C536.346 103.963 536.352 103.901 536.388 103.842L536.385 103.845Z" fill="#F8BE19"/>
<path d="M539.05 100.257C538.85 100.725 538.607 101.17 538.318 101.593C538.121 101.881 537.938 102.179 537.774 102.487C537.567 102.874 537.334 103.25 537.117 103.63C537.104 103.653 537.091 103.68 537.078 103.706C537.098 103.699 537.117 103.693 537.137 103.68C537.872 103.267 538.607 102.851 539.342 102.441C539.437 102.389 539.525 102.323 539.634 102.294C539.821 102.189 539.985 102.222 540.168 102.33C540.513 102.53 540.808 102.785 541.094 103.054C541.235 103.188 541.412 103.27 541.559 103.398C541.691 103.513 541.796 103.647 541.904 103.778C542.015 103.912 542.153 104.024 542.291 104.132C542.304 104.141 542.321 104.158 542.34 104.138C541.999 103.336 541.658 102.533 541.29 101.74C541.087 101.305 540.861 100.872 540.723 100.411C540.503 99.6703 540.346 98.9103 540.139 98.1668C540.073 97.9244 540.037 97.6722 539.929 97.4429C539.788 97.9015 539.644 98.36 539.496 98.8153C539.338 99.2936 539.25 99.7947 539.05 100.26V100.257ZM539.886 100.234C540.027 100.237 540.168 100.237 540.3 100.296C540.332 100.312 540.369 100.329 540.395 100.352C540.575 100.522 540.615 100.813 540.49 101.033C540.431 101.138 540.375 101.243 540.25 101.285C540.198 101.374 540.142 101.462 540.067 101.531C539.794 101.79 539.42 101.695 539.289 101.341C539.224 101.161 539.233 100.987 539.312 100.817C539.368 100.512 539.562 100.224 539.883 100.234H539.886Z" fill="#F8BE19"/>
<path d="M537.102 103.609C537.424 103.068 537.726 102.518 538.041 101.974C538.191 101.712 538.392 101.48 538.536 101.211C538.73 100.851 538.946 100.5 539.084 100.114C539.186 99.832 539.248 99.5372 539.336 99.2522C539.494 98.7445 539.642 98.2335 539.812 97.7323C539.842 97.6471 539.861 97.5587 539.891 97.4735C539.897 97.4572 539.904 97.4375 539.927 97.4375C539.907 97.3884 539.888 97.3392 539.865 97.2803C539.845 97.3065 539.838 97.3196 539.829 97.3327C539.635 97.6668 539.458 98.0107 539.333 98.3809C539.113 99.036 538.857 99.6813 538.664 100.346C538.602 100.559 538.506 100.743 538.369 100.913C538.234 101.08 538.1 101.25 537.972 101.424C537.407 102.207 536.915 103.039 536.377 103.841C536.338 103.897 536.335 103.962 536.328 104.038C536.597 103.959 536.837 103.838 537.073 103.704C537.056 103.668 537.079 103.638 537.096 103.609H537.102Z" fill="#F8BE19"/>
<path d="M539.891 97.473C539.862 97.5582 539.842 97.6466 539.813 97.7318C539.642 98.233 539.494 98.744 539.337 99.2517C539.248 99.5367 539.186 99.8315 539.084 100.113C538.943 100.5 538.727 100.85 538.536 101.21C538.392 101.479 538.192 101.712 538.041 101.974C537.726 102.517 537.424 103.068 537.103 103.608C537.086 103.638 537.063 103.667 537.08 103.703C537.093 103.677 537.106 103.654 537.119 103.628C537.339 103.248 537.569 102.871 537.775 102.485C537.939 102.177 538.123 101.879 538.32 101.59C538.609 101.171 538.851 100.722 539.052 100.254C539.252 99.7889 539.34 99.2877 539.498 98.8095C539.645 98.3542 539.79 97.8956 539.931 97.437C539.904 97.437 539.898 97.4534 539.895 97.473H539.891Z" fill="#F8BE19"/>
<path d="M542.258 104.131C542.143 104.046 542.022 103.96 541.936 103.846C541.726 103.577 541.49 103.345 541.198 103.165C541.008 103.047 540.867 102.863 540.693 102.719C540.49 102.552 540.267 102.414 540.037 102.287C539.971 102.251 539.902 102.241 539.83 102.257C539.765 102.27 539.702 102.287 539.637 102.296C539.742 102.277 539.82 102.329 539.902 102.385C540.605 102.883 541.261 103.436 541.89 104.026C542.022 104.15 542.153 104.278 542.307 104.373C542.327 104.386 542.343 104.409 542.373 104.393C542.409 104.373 542.392 104.347 542.386 104.321C542.373 104.262 542.376 104.196 542.343 104.141C542.314 104.193 542.281 104.15 542.261 104.137L542.258 104.131Z" fill="#F8BE19"/>
<path d="M542.294 104.13C542.156 104.021 542.018 103.913 541.907 103.776C541.799 103.645 541.694 103.51 541.562 103.396C541.415 103.268 541.238 103.186 541.097 103.052C540.811 102.783 540.513 102.528 540.171 102.328C539.991 102.223 539.824 102.19 539.637 102.292C539.702 102.282 539.765 102.266 539.83 102.253C539.906 102.236 539.971 102.246 540.037 102.282C540.267 102.41 540.49 102.547 540.693 102.715C540.867 102.859 541.008 103.042 541.198 103.16C541.49 103.34 541.73 103.573 541.936 103.841C542.025 103.956 542.143 104.041 542.258 104.126C542.281 104.143 542.31 104.185 542.34 104.13C542.32 104.152 542.304 104.136 542.291 104.123L542.294 104.13Z" fill="#F8BE19"/>
<path d="M540.255 100.774C540.144 100.561 539.779 100.433 539.563 100.531C539.497 100.561 539.455 100.613 539.415 100.669C539.383 100.715 539.35 100.767 539.32 100.816C539.241 100.987 539.232 101.16 539.297 101.34C539.428 101.694 539.802 101.789 540.075 101.53C540.15 101.458 540.206 101.373 540.258 101.285C540.331 101.114 540.35 100.944 540.258 100.774H540.255ZM539.763 101.478C539.586 101.484 539.432 101.301 539.425 101.078C539.419 100.885 539.583 100.708 539.766 100.705C539.96 100.702 540.117 100.852 540.124 101.049C540.127 101.245 539.94 101.471 539.766 101.478H539.763Z" fill="#F8BE19"/>
<path d="M539.844 100.489C540.06 100.528 540.228 100.63 540.3 100.843C540.352 100.993 540.356 101.15 540.247 101.288C540.372 101.245 540.428 101.141 540.487 101.036C540.612 100.816 540.572 100.528 540.392 100.354C540.366 100.328 540.329 100.315 540.297 100.299C540.165 100.24 540.024 100.24 539.883 100.237C539.559 100.227 539.365 100.515 539.312 100.82C539.388 100.567 539.568 100.436 539.847 100.489H539.844Z" fill="#F8BE19"/>
<path d="M540.303 100.842C540.231 100.629 540.064 100.528 539.847 100.488C539.568 100.436 539.388 100.567 539.312 100.819C539.345 100.77 539.375 100.718 539.408 100.672C539.447 100.616 539.493 100.564 539.555 100.534C539.772 100.436 540.136 100.564 540.247 100.777C540.339 100.95 540.32 101.117 540.247 101.288C540.359 101.15 540.352 100.996 540.3 100.842H540.303Z" fill="#F8BE19"/>
<path d="M548.479 97.4422C548.427 97.4521 548.378 97.4717 548.329 97.4914C547.82 97.6912 547.344 97.9598 546.872 98.2317C546.327 98.5461 545.783 98.8671 545.222 99.1521C545.091 99.2209 544.963 99.2242 544.845 99.139C544.49 98.8835 544.133 98.6313 543.798 98.3496C543.332 97.9565 542.883 97.5438 542.433 97.1376C542.368 97.0786 542.292 97.0361 542.207 97.0164C542.095 96.9902 542.033 97.0492 542.049 97.1638C542.053 97.1933 542.066 97.2228 542.076 97.2523C542.368 98.081 542.729 98.8835 543.112 99.6729C543.349 100.161 543.588 100.649 543.742 101.17C543.877 101.612 543.982 102.061 544.106 102.503C544.264 103.07 544.405 103.643 544.559 104.213C544.602 104.367 544.658 104.518 544.753 104.645C544.812 104.724 544.858 104.717 544.904 104.626C545.1 104.223 545.314 103.823 545.481 103.404C545.697 102.863 545.871 102.31 546.058 101.759C546.167 101.442 546.285 101.131 546.482 100.849C547.203 99.8072 547.895 98.7426 548.591 97.6846C548.617 97.6453 548.634 97.6093 548.63 97.57C548.63 97.4553 548.594 97.4226 548.486 97.4455L548.479 97.4422ZM548.312 97.8615C547.774 98.664 547.282 99.496 546.718 100.279C546.593 100.453 546.459 100.623 546.321 100.79C546.183 100.96 546.088 101.147 546.026 101.357C545.835 102.022 545.576 102.667 545.356 103.322C545.235 103.692 545.054 104.033 544.861 104.37C544.854 104.383 544.845 104.396 544.825 104.423C544.802 104.364 544.782 104.314 544.762 104.265C544.654 104.036 544.618 103.784 544.553 103.541C544.346 102.795 544.188 102.038 543.969 101.298C543.831 100.832 543.608 100.403 543.401 99.9677C543.03 99.1783 542.689 98.3758 542.351 97.57C542.318 97.5143 542.322 97.4521 542.309 97.3898C542.302 97.3636 542.289 97.3374 542.322 97.3178C542.351 97.2981 542.368 97.3243 542.387 97.3374C542.545 97.4324 542.673 97.5602 542.804 97.6846C543.431 98.2742 544.09 98.8245 544.792 99.3257C544.874 99.3847 544.953 99.4338 545.058 99.4141C545.166 99.3847 545.255 99.3191 545.35 99.2667C546.085 98.854 546.819 98.4413 547.554 98.0286C547.574 98.0187 547.594 98.0122 547.613 98.0024C547.85 97.8681 548.089 97.7469 548.358 97.6683C548.352 97.7436 548.345 97.8058 548.309 97.8648L548.312 97.8615Z" fill="#4286F1"/>
<path d="M545.65 101.445C545.85 100.977 546.093 100.532 546.381 100.109C546.578 99.8208 546.762 99.5227 546.926 99.2148C547.133 98.8283 547.366 98.4516 547.582 98.0716C547.595 98.0487 547.608 98.0225 547.621 97.9963C547.602 98.0028 547.582 98.0094 547.562 98.0225C546.828 98.4352 546.093 98.8512 545.358 99.2607C545.263 99.3131 545.174 99.3786 545.066 99.4081C544.879 99.5129 544.715 99.4801 544.531 99.372C544.187 99.1722 543.891 98.9167 543.606 98.6481C543.465 98.5138 543.288 98.4319 543.14 98.3042C543.009 98.1895 542.904 98.0553 542.796 97.9242C542.684 97.7899 542.546 97.6786 542.409 97.5705C542.395 97.5606 542.379 97.5443 542.359 97.5639C542.701 98.3664 543.042 99.1689 543.409 99.9616C543.613 100.397 543.839 100.83 543.977 101.292C544.197 102.032 544.354 102.792 544.561 103.535C544.626 103.778 544.662 104.03 544.771 104.259C544.912 103.801 545.056 103.342 545.204 102.887C545.361 102.409 545.45 101.907 545.65 101.442V101.445ZM544.813 101.468C544.672 101.465 544.531 101.465 544.4 101.406C544.367 101.39 544.331 101.373 544.305 101.35C544.124 101.18 544.085 100.889 544.21 100.669C544.269 100.564 544.324 100.46 544.449 100.417C544.502 100.329 544.557 100.24 544.633 100.171C544.905 99.9125 545.279 100.007 545.41 100.361C545.476 100.541 545.466 100.715 545.387 100.885C545.332 101.19 545.138 101.478 544.817 101.468H544.813Z" fill="#4286F1"/>
<path d="M547.594 98.0956C547.273 98.6361 546.971 99.1864 546.656 99.7301C546.505 99.9922 546.305 100.225 546.161 100.493C545.967 100.854 545.75 101.204 545.613 101.591C545.511 101.872 545.449 102.167 545.36 102.452C545.203 102.96 545.055 103.471 544.884 103.972C544.855 104.057 544.835 104.146 544.806 104.231C544.799 104.247 544.792 104.267 544.77 104.267C544.789 104.316 544.809 104.365 544.832 104.424C544.852 104.398 544.858 104.385 544.868 104.372C545.062 104.038 545.239 103.694 545.363 103.323C545.583 102.668 545.839 102.023 546.033 101.358C546.095 101.145 546.19 100.962 546.328 100.791C546.462 100.624 546.597 100.454 546.725 100.28C547.289 99.4976 547.781 98.6656 548.319 97.863C548.359 97.8074 548.362 97.7418 548.368 97.6665C548.099 97.7451 547.86 97.8663 547.624 98.0006C547.64 98.0366 547.617 98.0661 547.601 98.0956H547.594Z" fill="#4286F1"/>
<path d="M544.805 104.232C544.835 104.147 544.854 104.059 544.884 103.973C545.054 103.472 545.202 102.961 545.359 102.453C545.448 102.168 545.51 101.874 545.612 101.592C545.753 101.205 545.97 100.855 546.16 100.495C546.304 100.226 546.504 99.9935 546.655 99.7315C546.97 99.1877 547.272 98.6374 547.594 98.0969C547.61 98.0675 547.633 98.038 547.616 98.002C547.603 98.0282 547.59 98.0511 547.577 98.0773C547.357 98.4573 547.128 98.834 546.921 99.2205C546.757 99.5284 546.573 99.8265 546.376 100.115C546.088 100.534 545.845 100.983 545.645 101.451C545.445 101.916 545.356 102.417 545.199 102.896C545.051 103.351 544.907 103.81 544.766 104.268C544.792 104.268 544.798 104.252 544.802 104.232H544.805Z" fill="#4286F1"/>
<path d="M542.442 97.5744C542.557 97.6595 542.678 97.7447 542.764 97.8593C542.974 98.1279 543.21 98.3605 543.502 98.5407C543.692 98.6586 543.833 98.842 544.007 98.9861C544.21 99.1532 544.433 99.2908 544.663 99.4185C544.729 99.4546 544.798 99.4644 544.87 99.448C544.935 99.4349 544.998 99.4185 545.063 99.4087C544.958 99.4284 544.88 99.3759 544.798 99.3203C544.096 98.8224 543.439 98.2688 542.81 97.6792C542.678 97.5547 542.547 97.427 542.393 97.332C542.373 97.3189 542.357 97.2959 542.327 97.3123C542.291 97.332 542.308 97.3582 542.314 97.3844C542.327 97.4433 542.324 97.5089 542.357 97.5645C542.386 97.5121 542.419 97.5547 542.439 97.5678L542.442 97.5744Z" fill="#4286F1"/>
<path d="M542.405 97.5785C542.543 97.6866 542.681 97.7947 542.792 97.9323C542.901 98.0633 543.006 98.1976 543.137 98.3123C543.285 98.44 543.462 98.5219 543.603 98.6562C543.888 98.9248 544.187 99.1803 544.528 99.3801C544.708 99.4849 544.876 99.5177 545.063 99.4161C544.997 99.426 544.935 99.4423 544.869 99.4554C544.794 99.4718 544.728 99.462 544.662 99.426C544.433 99.2982 544.21 99.1606 544.006 98.9936C543.832 98.8495 543.691 98.666 543.501 98.5481C543.209 98.368 542.97 98.1354 542.763 97.8668C542.674 97.7521 542.556 97.667 542.441 97.5818C542.418 97.5654 542.389 97.5229 542.359 97.5785C542.379 97.5556 542.395 97.572 542.409 97.5851L542.405 97.5785Z" fill="#4286F1"/>
<path d="M544.444 100.935C544.555 101.148 544.92 101.276 545.136 101.177C545.202 101.148 545.244 101.095 545.284 101.04C545.317 100.994 545.349 100.941 545.379 100.892C545.458 100.722 545.467 100.548 545.402 100.368C545.271 100.014 544.897 99.9195 544.624 100.178C544.549 100.25 544.493 100.335 544.441 100.424C544.368 100.594 544.349 100.765 544.441 100.935H544.444ZM544.936 100.234C545.113 100.227 545.267 100.411 545.274 100.634C545.28 100.827 545.116 101.004 544.933 101.007C544.739 101.01 544.582 100.86 544.575 100.663C544.572 100.466 544.759 100.24 544.933 100.234H544.936Z" fill="#4286F1"/>
<path d="M544.844 101.22C544.628 101.181 544.46 101.079 544.388 100.866C544.336 100.716 544.332 100.558 544.441 100.421C544.316 100.463 544.26 100.568 544.201 100.673C544.077 100.893 544.116 101.181 544.296 101.354C544.323 101.381 544.359 101.394 544.392 101.41C544.523 101.469 544.664 101.469 544.805 101.472C545.13 101.482 545.323 101.194 545.376 100.889C545.3 101.142 545.12 101.273 544.841 101.22H544.844Z" fill="#4286F1"/>
<path d="M544.393 100.866C544.465 101.079 544.632 101.181 544.849 101.22C545.127 101.273 545.308 101.142 545.383 100.889C545.351 100.938 545.321 100.991 545.288 101.037C545.249 101.092 545.203 101.145 545.141 101.174C544.924 101.273 544.56 101.145 544.448 100.932C544.357 100.758 544.376 100.591 544.448 100.421C544.337 100.558 544.343 100.712 544.396 100.866H544.393Z" fill="#4286F1"/>
<path d="M548.124 104.714C548.176 104.701 548.226 104.675 548.275 104.652C548.783 104.397 549.259 104.053 549.731 103.702C550.276 103.299 550.821 102.89 551.382 102.523C551.513 102.438 551.641 102.431 551.759 102.543C552.113 102.87 552.471 103.191 552.805 103.555C553.271 104.059 553.721 104.583 554.17 105.107C554.236 105.183 554.311 105.238 554.396 105.265C554.508 105.297 554.57 105.225 554.554 105.078C554.551 105.039 554.538 105.003 554.528 104.963C554.236 103.902 553.875 102.877 553.491 101.865C553.255 101.239 553.015 100.617 552.861 99.9483C552.727 99.3849 552.622 98.8084 552.497 98.2385C552.34 97.5113 552.198 96.7809 552.044 96.0504C552.002 95.8539 551.946 95.6606 551.851 95.4968C551.792 95.3953 551.746 95.4051 551.7 95.5198C551.503 96.0373 551.29 96.5483 551.122 97.0855C550.906 97.7766 550.732 98.4874 550.545 99.1917C550.437 99.6011 550.319 99.9975 550.122 100.358C549.4 101.691 548.708 103.054 548.012 104.41C547.986 104.459 547.97 104.505 547.973 104.557C547.973 104.704 548.009 104.744 548.117 104.718L548.124 104.714ZM548.291 104.174C548.829 103.145 549.321 102.081 549.886 101.078C550.01 100.856 550.145 100.639 550.283 100.423C550.42 100.207 550.516 99.968 550.578 99.6961C550.768 98.8445 551.027 98.019 551.247 97.1805C551.368 96.7088 551.549 96.2699 551.742 95.8408C551.749 95.8244 551.759 95.808 551.779 95.7753C551.802 95.8506 551.821 95.9161 551.841 95.9783C551.949 96.2731 551.985 96.5942 552.051 96.9053C552.258 97.8585 552.415 98.8314 552.635 99.778C552.773 100.374 552.996 100.921 553.202 101.481C553.573 102.493 553.914 103.522 554.252 104.551C554.285 104.623 554.282 104.704 554.295 104.78C554.301 104.813 554.314 104.849 554.282 104.875C554.252 104.898 554.236 104.865 554.216 104.852C554.059 104.731 553.931 104.567 553.799 104.406C553.173 103.653 552.513 102.946 551.811 102.307C551.729 102.231 551.651 102.169 551.546 102.192C551.437 102.228 551.349 102.313 551.254 102.379C550.519 102.906 549.784 103.437 549.049 103.967C549.029 103.981 549.01 103.99 548.99 104C548.754 104.171 548.514 104.325 548.245 104.426C548.252 104.331 548.258 104.249 548.295 104.177L548.291 104.174Z" fill="#3FA85A"/>
<path d="M550.952 99.5809C550.752 100.18 550.509 100.75 550.221 101.291C550.024 101.661 549.84 102.041 549.676 102.434C549.469 102.932 549.236 103.41 549.02 103.898C549.007 103.931 548.994 103.96 548.98 103.993C549 103.983 549.02 103.973 549.04 103.96C549.774 103.43 550.509 102.902 551.244 102.372C551.339 102.303 551.428 102.221 551.536 102.185C551.723 102.051 551.887 102.093 552.071 102.228C552.415 102.483 552.711 102.811 552.996 103.155C553.137 103.325 553.314 103.433 553.462 103.597C553.593 103.744 553.698 103.914 553.806 104.085C553.918 104.258 554.056 104.399 554.193 104.537C554.206 104.55 554.223 104.573 554.243 104.543C553.901 103.515 553.56 102.486 553.193 101.474C552.989 100.914 552.763 100.364 552.625 99.7709C552.405 98.8209 552.248 97.8514 552.041 96.8982C551.976 96.587 551.94 96.266 551.831 95.9712C551.69 96.5575 551.546 97.1439 551.398 97.7269C551.241 98.3394 551.152 98.9815 550.952 99.5776V99.5809ZM551.789 99.5514C551.93 99.558 552.071 99.5547 552.202 99.6333C552.235 99.6529 552.271 99.6726 552.297 99.7054C552.478 99.9248 552.517 100.295 552.392 100.577C552.333 100.708 552.277 100.845 552.153 100.898C552.1 101.012 552.045 101.124 551.969 101.215C551.697 101.546 551.323 101.425 551.192 100.973C551.126 100.74 551.136 100.521 551.215 100.302C551.27 99.9117 551.464 99.5416 551.785 99.5547L551.789 99.5514Z" fill="#3FA85A"/>
<path d="M549.009 103.873C549.33 103.181 549.632 102.477 549.947 101.783C550.098 101.449 550.298 101.151 550.442 100.807C550.636 100.345 550.852 99.8994 550.99 99.4015C551.092 99.0411 551.154 98.6645 551.243 98.2976C551.4 97.649 551.548 96.9939 551.718 96.3519C551.748 96.2405 551.768 96.1292 551.797 96.0211C551.804 95.9981 551.81 95.9752 551.833 95.9785C551.814 95.9162 551.794 95.854 551.771 95.7754C551.751 95.8081 551.745 95.8245 551.735 95.8409C551.541 96.27 551.364 96.7089 551.239 97.1806C551.02 98.0224 550.764 98.8446 550.57 99.6963C550.508 99.9681 550.413 100.204 550.275 100.423C550.14 100.636 550.006 100.856 549.878 101.079C549.314 102.081 548.822 103.145 548.284 104.174C548.244 104.246 548.241 104.328 548.234 104.423C548.503 104.321 548.743 104.167 548.979 103.997C548.963 103.948 548.986 103.912 549.002 103.876L549.009 103.873Z" fill="#3FA85A"/>
<path d="M551.798 96.0185C551.768 96.1266 551.748 96.2413 551.719 96.3493C551.548 96.9914 551.401 97.6465 551.243 98.295C551.155 98.6619 551.092 99.0386 550.991 99.3989C550.849 99.8935 550.633 100.342 550.443 100.804C550.298 101.148 550.098 101.443 549.947 101.78C549.632 102.475 549.331 103.182 549.009 103.87C548.993 103.906 548.97 103.945 548.986 103.991C548.999 103.959 549.012 103.926 549.025 103.896C549.245 103.408 549.475 102.93 549.682 102.432C549.846 102.039 550.029 101.656 550.226 101.289C550.515 100.752 550.758 100.179 550.958 99.5791C551.158 98.9829 551.246 98.3409 551.404 97.7284C551.552 97.1453 551.696 96.559 551.837 95.9727C551.811 95.9727 551.804 95.9956 551.801 96.0152L551.798 96.0185Z" fill="#3FA85A"/>
<path d="M554.164 104.541C554.049 104.433 553.928 104.321 553.843 104.177C553.633 103.833 553.397 103.535 553.105 103.303C552.914 103.149 552.773 102.916 552.599 102.733C552.396 102.516 552.173 102.34 551.943 102.179C551.878 102.133 551.809 102.12 551.737 102.14C551.671 102.156 551.609 102.176 551.543 102.189C551.648 102.166 551.727 102.228 551.809 102.303C552.511 102.942 553.167 103.65 553.797 104.403C553.928 104.56 554.059 104.727 554.213 104.849C554.233 104.865 554.249 104.898 554.279 104.872C554.315 104.845 554.299 104.813 554.292 104.777C554.279 104.698 554.282 104.619 554.249 104.547C554.22 104.616 554.187 104.56 554.167 104.541H554.164Z" fill="#3FA85A"/>
<path d="M554.2 104.54C554.062 104.403 553.925 104.262 553.813 104.088C553.705 103.921 553.6 103.748 553.469 103.6C553.321 103.436 553.144 103.328 553.003 103.158C552.717 102.811 552.419 102.486 552.078 102.231C551.897 102.097 551.73 102.054 551.543 102.188C551.609 102.175 551.671 102.156 551.737 102.139C551.812 102.12 551.878 102.133 551.943 102.179C552.173 102.339 552.396 102.516 552.599 102.732C552.773 102.916 552.914 103.151 553.105 103.302C553.397 103.535 553.636 103.833 553.843 104.177C553.931 104.321 554.049 104.432 554.164 104.54C554.187 104.56 554.217 104.616 554.246 104.547C554.226 104.576 554.21 104.553 554.197 104.54H554.2Z" fill="#3FA85A"/>
<path d="M552.158 100.243C552.046 99.9708 551.682 99.807 551.465 99.9348C551.4 99.9741 551.357 100.04 551.318 100.112C551.285 100.174 551.252 100.236 551.223 100.302C551.144 100.521 551.134 100.741 551.2 100.973C551.331 101.425 551.705 101.546 551.977 101.216C552.053 101.124 552.108 101.012 552.161 100.898C552.233 100.678 552.253 100.462 552.161 100.243H552.158ZM551.665 101.14C551.488 101.147 551.334 100.914 551.328 100.629C551.321 100.384 551.485 100.154 551.669 100.151C551.862 100.144 552.02 100.341 552.026 100.593C552.03 100.845 551.843 101.137 551.669 101.143L551.665 101.14Z" fill="#3FA85A"/>
<path d="M551.75 99.8759C551.967 99.9283 552.134 100.056 552.206 100.328C552.259 100.521 552.262 100.721 552.154 100.898C552.278 100.845 552.334 100.708 552.393 100.577C552.518 100.295 552.478 99.925 552.298 99.7056C552.272 99.6728 552.236 99.6532 552.203 99.6335C552.072 99.5582 551.931 99.5582 551.79 99.5516C551.465 99.5385 551.271 99.9086 551.219 100.298C551.294 99.9774 551.475 99.8071 551.753 99.8759H551.75Z" fill="#3FA85A"/>
<path d="M552.209 100.328C552.137 100.057 551.97 99.9255 551.753 99.8764C551.475 99.8109 551.294 99.9779 551.219 100.299C551.252 100.237 551.281 100.171 551.314 100.109C551.353 100.037 551.399 99.9714 551.462 99.9321C551.678 99.8043 552.042 99.9681 552.154 100.24C552.246 100.459 552.226 100.676 552.154 100.895C552.265 100.721 552.259 100.522 552.206 100.325L552.209 100.328Z" fill="#3FA85A"/>
<path d="M421.389 92.1206H322.367C316.247 92.1206 311.285 97.0738 311.285 103.184C311.285 109.294 316.247 114.247 322.367 114.247H421.389C427.509 114.247 432.471 109.294 432.471 103.184C432.471 97.0738 427.509 92.1206 421.389 92.1206Z" fill="white" stroke="#BABABA" stroke-width="2.91723" stroke-miterlimit="10"/>
<path d="M461.469 153.484H499.002" stroke="#FF6F00" stroke-width="2.5931" stroke-miterlimit="10"/>
<path d="M493.777 157.929L498.229 153.484L493.777 149.042H497.553L502.005 153.484L497.553 157.929H493.777Z" fill="#FF6F00"/>
<path d="M236.941 153.484H274.475" stroke="#FF6F00" stroke-width="2.5931" stroke-miterlimit="10"/>
<path d="M269.25 157.929L273.702 153.484L269.25 149.042H273.026L277.478 153.484L273.026 157.929H269.25Z" fill="#FF6F00"/>
<path d="M215.188 211.951L200.852 206.504L207.131 192.531C207.2 192.373 207.167 192.19 207.046 192.072C206.925 191.951 206.741 191.918 206.587 191.987L192.592 198.256L187.136 183.942C187.015 183.621 186.486 183.621 186.365 183.942L180.909 198.256L166.914 191.987C166.757 191.918 166.573 191.951 166.455 192.072C166.334 192.193 166.301 192.377 166.37 192.531L172.649 206.504L158.313 211.951C158.152 212.014 158.047 212.168 158.047 212.338C158.047 212.508 158.152 212.662 158.313 212.724L172.649 218.172L166.37 232.145C166.301 232.303 166.334 232.486 166.455 232.607C166.576 232.728 166.76 232.761 166.918 232.692L180.913 226.423L186.368 240.737C186.431 240.898 186.582 241.003 186.755 241.003C186.929 241.003 187.08 240.898 187.143 240.737L192.598 226.423L206.593 232.692C206.751 232.761 206.934 232.728 207.052 232.607C207.174 232.486 207.207 232.303 207.138 232.149L200.859 218.175L215.195 212.728C215.356 212.666 215.461 212.515 215.461 212.341C215.461 212.168 215.356 212.017 215.195 211.955L215.188 211.951Z" fill="#666666"/>
<path d="M193.27 206.037C193.227 205.932 193.227 205.814 193.273 205.71L197.498 196.305L188.08 200.524C187.975 200.57 187.857 200.573 187.752 200.528C187.647 200.485 187.565 200.4 187.525 200.292L183.854 190.658L180.183 200.292C180.144 200.397 180.059 200.482 179.957 200.528C179.852 200.57 179.734 200.57 179.629 200.524L170.21 196.305L174.436 205.71C174.482 205.814 174.485 205.932 174.439 206.037C174.396 206.142 174.311 206.224 174.203 206.263L164.555 209.928L174.203 213.594C174.308 213.633 174.393 213.718 174.439 213.82C174.482 213.925 174.482 214.043 174.436 214.147L170.21 223.552L179.629 219.333C179.682 219.31 179.741 219.297 179.796 219.297C179.849 219.297 179.905 219.306 179.954 219.326C180.059 219.369 180.141 219.454 180.18 219.562L183.851 229.195L187.522 219.562C187.562 219.457 187.647 219.372 187.749 219.326C187.854 219.284 187.972 219.284 188.077 219.329L197.495 223.548L193.27 214.144C193.224 214.039 193.221 213.921 193.267 213.817C193.309 213.712 193.394 213.63 193.503 213.591L203.151 209.925L193.503 206.26C193.398 206.221 193.312 206.135 193.267 206.034L193.27 206.037ZM187.899 211.173C187.568 212.254 186.833 213.139 185.836 213.669C185.226 213.993 184.54 214.164 183.854 214.164C182.283 214.164 180.846 213.302 180.111 211.917C179.016 209.856 179.806 207.292 181.866 206.201C182.477 205.877 183.162 205.706 183.848 205.706C185.419 205.706 186.856 206.568 187.591 207.953C188.123 208.952 188.231 210.096 187.899 211.173Z" fill="#CCCCCC"/>
<path d="M197.017 204.488C196.974 204.383 196.974 204.265 197.02 204.161L203.034 190.777L189.629 196.781C189.524 196.827 189.406 196.83 189.301 196.784C189.196 196.741 189.114 196.656 189.075 196.548L183.849 182.84L178.623 196.548C178.583 196.653 178.498 196.738 178.396 196.784C178.291 196.827 178.173 196.827 178.068 196.781L164.664 190.777L170.677 204.161C170.723 204.265 170.726 204.383 170.68 204.488C170.638 204.593 170.552 204.675 170.444 204.714L156.715 209.932L170.444 215.15C170.549 215.19 170.634 215.275 170.68 215.376C170.723 215.481 170.723 215.599 170.677 215.704L164.664 229.088L178.068 223.084C178.121 223.061 178.18 223.048 178.236 223.048C178.288 223.048 178.344 223.057 178.393 223.08C178.498 223.123 178.58 223.208 178.619 223.316L183.845 237.025L189.071 223.316C189.111 223.211 189.196 223.126 189.298 223.08C189.403 223.038 189.521 223.038 189.626 223.084L203.03 229.088L197.017 215.704C196.971 215.599 196.968 215.481 197.014 215.376C197.056 215.271 197.142 215.19 197.25 215.15L210.979 209.932L197.25 204.714C197.145 204.675 197.06 204.59 197.014 204.488H197.017ZM204.723 209.932C204.723 210.103 204.618 210.256 204.457 210.319L194.206 214.217L198.697 224.21C198.766 224.368 198.733 224.551 198.611 224.669C198.49 224.787 198.306 224.823 198.152 224.754L188.14 220.27L184.236 230.506C184.173 230.667 184.023 230.771 183.849 230.771C183.675 230.771 183.524 230.667 183.462 230.506L179.558 220.27L169.549 224.754C169.391 224.823 169.211 224.79 169.089 224.669C168.968 224.548 168.935 224.364 169.004 224.21L173.495 214.217L163.243 210.319C163.082 210.256 162.978 210.106 162.978 209.932C162.978 209.759 163.082 209.608 163.243 209.546L173.495 205.648L169.004 195.651C168.935 195.493 168.968 195.31 169.089 195.192C169.211 195.071 169.394 195.038 169.549 195.107L179.558 199.591L183.462 189.355C183.583 189.034 184.111 189.034 184.233 189.355L188.136 199.591L198.146 195.107C198.303 195.038 198.487 195.071 198.605 195.192C198.726 195.313 198.759 195.497 198.69 195.651L194.199 205.648L204.451 209.546C204.612 209.608 204.717 209.759 204.717 209.932H204.723Z" fill="#F2F2F2"/>
<path d="M212.29 209.543L197.954 204.096L204.233 190.122C204.302 189.965 204.269 189.782 204.148 189.664C204.026 189.543 203.842 189.51 203.688 189.579L189.693 195.848L184.238 181.534C184.116 181.213 183.588 181.213 183.467 181.534L178.011 195.848L164.016 189.579C163.858 189.51 163.675 189.543 163.557 189.664C163.439 189.785 163.402 189.968 163.471 190.122L169.75 204.096L155.414 209.543C155.253 209.605 155.148 209.756 155.148 209.93C155.148 210.103 155.253 210.254 155.414 210.316L169.75 215.764L163.471 229.737C163.402 229.894 163.435 230.078 163.557 230.196C163.678 230.317 163.862 230.35 164.016 230.281L178.011 224.012L183.467 238.323C183.529 238.483 183.68 238.588 183.854 238.588C184.028 238.588 184.178 238.483 184.241 238.323L189.696 224.012L203.691 230.281C203.849 230.35 204.033 230.317 204.151 230.196C204.272 230.075 204.305 229.891 204.236 229.737L197.957 215.764L212.293 210.316C212.454 210.254 212.559 210.103 212.559 209.93C212.559 209.756 212.454 209.605 212.293 209.543H212.29ZM197.255 215.148C197.15 215.187 197.065 215.272 197.019 215.374C196.976 215.479 196.976 215.597 197.022 215.701L203.035 229.085L189.631 223.081C189.526 223.035 189.408 223.032 189.303 223.078C189.198 223.121 189.116 223.206 189.076 223.314L183.85 237.022L178.624 223.314C178.585 223.209 178.5 223.124 178.398 223.078C178.349 223.058 178.293 223.045 178.241 223.045C178.182 223.045 178.126 223.058 178.073 223.081L164.669 229.085L170.682 215.701C170.728 215.597 170.731 215.479 170.685 215.374C170.643 215.269 170.557 215.187 170.449 215.148L156.72 209.93L170.449 204.712C170.554 204.672 170.639 204.587 170.685 204.486C170.728 204.381 170.728 204.263 170.682 204.158L164.669 190.774L178.073 196.778C178.175 196.824 178.296 196.827 178.401 196.782C178.506 196.739 178.588 196.654 178.628 196.546L183.854 182.837L189.08 196.546C189.119 196.651 189.204 196.736 189.306 196.782C189.411 196.824 189.529 196.824 189.634 196.778L203.039 190.774L197.025 204.158C196.979 204.263 196.976 204.381 197.022 204.486C197.065 204.591 197.15 204.672 197.258 204.712L210.988 209.93L197.258 215.148H197.255Z" fill="black"/>
<path d="M198.693 195.654C198.762 195.496 198.729 195.313 198.608 195.195C198.486 195.074 198.303 195.041 198.149 195.11L188.139 199.594L184.235 189.358C184.114 189.037 183.586 189.037 183.465 189.358L179.561 199.594L169.552 195.11C169.394 195.041 169.214 195.074 169.092 195.195C168.971 195.316 168.938 195.5 169.007 195.654L173.498 205.651L163.246 209.549C163.085 209.611 162.98 209.762 162.98 209.935C162.98 210.109 163.085 210.259 163.246 210.322L173.498 214.22L169.007 224.213C168.938 224.371 168.971 224.554 169.092 224.672C169.214 224.793 169.397 224.826 169.552 224.757L179.561 220.273L183.465 230.509C183.527 230.67 183.678 230.774 183.852 230.774C184.026 230.774 184.176 230.67 184.239 230.509L188.143 220.273L198.155 224.757C198.313 224.826 198.493 224.793 198.614 224.672C198.736 224.551 198.769 224.367 198.7 224.213L194.209 214.22L204.46 210.322C204.621 210.259 204.726 210.109 204.726 209.935C204.726 209.762 204.621 209.611 204.46 209.549L194.209 205.651L198.7 195.654H198.693ZM203.148 209.932L193.5 213.597C193.395 213.637 193.31 213.722 193.264 213.823C193.221 213.928 193.221 214.046 193.267 214.151L197.492 223.555L188.074 219.336C187.969 219.29 187.851 219.287 187.746 219.333C187.641 219.375 187.559 219.461 187.519 219.569L183.848 229.202L180.177 219.569C180.138 219.464 180.053 219.379 179.951 219.333C179.902 219.313 179.846 219.303 179.794 219.303C179.735 219.303 179.679 219.316 179.626 219.339L170.208 223.558L174.433 214.154C174.479 214.049 174.482 213.931 174.436 213.827C174.394 213.722 174.308 213.64 174.2 213.601L164.552 209.935L174.2 206.27C174.305 206.23 174.39 206.145 174.436 206.044C174.479 205.939 174.479 205.821 174.433 205.716L170.208 196.312L179.626 200.531C179.731 200.577 179.849 200.58 179.954 200.534C180.059 200.492 180.141 200.406 180.181 200.298L183.852 190.665L187.523 200.298C187.562 200.403 187.647 200.488 187.749 200.534C187.854 200.577 187.972 200.577 188.077 200.531L197.496 196.312L193.27 205.716C193.224 205.821 193.221 205.939 193.267 206.044C193.31 206.149 193.395 206.23 193.503 206.27L203.151 209.935L203.148 209.932Z" fill="#666666"/>
<path d="M183.848 205.699C183.162 205.699 182.477 205.87 181.867 206.194C179.803 207.285 179.016 209.849 180.111 211.91C180.846 213.295 182.283 214.157 183.855 214.157C184.54 214.157 185.226 213.986 185.836 213.662C186.833 213.132 187.568 212.247 187.9 211.166C188.231 210.085 188.123 208.942 187.591 207.946C186.856 206.561 185.419 205.699 183.848 205.699ZM187.112 210.927C186.847 211.795 186.256 212.509 185.452 212.935C184.96 213.194 184.409 213.331 183.858 213.331C182.592 213.331 181.437 212.637 180.843 211.523C179.964 209.866 180.597 207.802 182.257 206.921C182.749 206.662 183.3 206.525 183.851 206.525C185.118 206.525 186.272 207.219 186.866 208.333C187.293 209.135 187.381 210.056 187.112 210.927Z" fill="black"/>
<path d="M326.754 107.13C328.937 107.13 330.707 105.363 330.707 103.183C330.707 101.003 328.937 99.2363 326.754 99.2363C324.571 99.2363 322.801 101.003 322.801 103.183C322.801 105.363 324.571 107.13 326.754 107.13Z" fill="#BABABA"/>
<path d="M337.184 107.13C339.367 107.13 341.137 105.363 341.137 103.183C341.137 101.003 339.367 99.2363 337.184 99.2363C335 99.2363 333.23 101.003 333.23 103.183C333.23 105.363 335 107.13 337.184 107.13Z" fill="#BABABA"/>
<path d="M348.117 107.13C350.3 107.13 352.07 105.363 352.07 103.183C352.07 101.003 350.3 99.2363 348.117 99.2363C345.934 99.2363 344.164 101.003 344.164 103.183C344.164 105.363 345.934 107.13 348.117 107.13Z" fill="#BABABA"/>
<path d="M359.203 107.13C361.386 107.13 363.156 105.363 363.156 103.183C363.156 101.003 361.386 99.2363 359.203 99.2363C357.02 99.2363 355.25 101.003 355.25 103.183C355.25 105.363 357.02 107.13 359.203 107.13Z" fill="#BABABA"/>
<path d="M421.389 120.89H322.367C316.247 120.89 311.285 125.843 311.285 131.953C311.285 138.063 316.247 143.016 322.367 143.016H421.389C427.509 143.016 432.471 138.063 432.471 131.953C432.471 125.843 427.509 120.89 421.389 120.89Z" fill="white" stroke="#BABABA" stroke-width="2.91723" stroke-miterlimit="10"/>
<path d="M326.754 135.901C328.937 135.901 330.707 134.134 330.707 131.954C330.707 129.774 328.937 128.007 326.754 128.007C324.571 128.007 322.801 129.774 322.801 131.954C322.801 134.134 324.571 135.901 326.754 135.901Z" fill="#BABABA"/>
<path d="M337.184 135.901C339.367 135.901 341.137 134.134 341.137 131.954C341.137 129.774 339.367 128.007 337.184 128.007C335 128.007 333.23 129.774 333.23 131.954C333.23 134.134 335 135.901 337.184 135.901Z" fill="#BABABA"/>
<path d="M348.117 135.901C350.3 135.901 352.07 134.134 352.07 131.954C352.07 129.774 350.3 128.007 348.117 128.007C345.934 128.007 344.164 129.774 344.164 131.954C344.164 134.134 345.934 135.901 348.117 135.901Z" fill="#BABABA"/>
<path d="M359.203 135.901C361.386 135.901 363.156 134.134 363.156 131.954C363.156 129.774 361.386 128.007 359.203 128.007C357.02 128.007 355.25 129.774 355.25 131.954C355.25 134.134 357.02 135.901 359.203 135.901Z" fill="#BABABA"/>
<path d="M421.389 149.657H322.367C316.247 149.657 311.285 154.61 311.285 160.721C311.285 166.831 316.247 171.784 322.367 171.784H421.389C427.509 171.784 432.471 166.831 432.471 160.721C432.471 154.61 427.509 149.657 421.389 149.657Z" fill="white" stroke="#BABABA" stroke-width="2.91723" stroke-miterlimit="10"/>
<path d="M326.754 164.665C328.937 164.665 330.707 162.898 330.707 160.718C330.707 158.538 328.937 156.771 326.754 156.771C324.571 156.771 322.801 158.538 322.801 160.718C322.801 162.898 324.571 164.665 326.754 164.665Z" fill="#BABABA"/>
<path d="M337.184 164.665C339.367 164.665 341.137 162.898 341.137 160.718C341.137 158.538 339.367 156.771 337.184 156.771C335 156.771 333.23 158.538 333.23 160.718C333.23 162.898 335 164.665 337.184 164.665Z" fill="#BABABA"/>
<path d="M348.117 164.665C350.3 164.665 352.07 162.898 352.07 160.718C352.07 158.538 350.3 156.771 348.117 156.771C345.934 156.771 344.164 158.538 344.164 160.718C344.164 162.898 345.934 164.665 348.117 164.665Z" fill="#BABABA"/>
<path d="M359.203 164.665C361.386 164.665 363.156 162.898 363.156 160.718C363.156 158.538 361.386 156.771 359.203 156.771C357.02 156.771 355.25 158.538 355.25 160.718C355.25 162.898 357.02 164.665 359.203 164.665Z" fill="#BABABA"/>
<path d="M421.389 178.054H322.367C316.247 178.054 311.285 183.007 311.285 189.117C311.285 195.227 316.247 200.18 322.367 200.18H421.389C427.509 200.18 432.471 195.227 432.471 189.117C432.471 183.007 427.509 178.054 421.389 178.054Z" fill="white" stroke="#BABABA" stroke-width="2.91723" stroke-miterlimit="10"/>
<path d="M326.754 193.058C328.937 193.058 330.707 191.291 330.707 189.111C330.707 186.931 328.937 185.164 326.754 185.164C324.571 185.164 322.801 186.931 322.801 189.111C322.801 191.291 324.571 193.058 326.754 193.058Z" fill="#BABABA"/>
<path d="M337.184 193.058C339.367 193.058 341.137 191.291 341.137 189.111C341.137 186.931 339.367 185.164 337.184 185.164C335 185.164 333.23 186.931 333.23 189.111C333.23 191.291 335 193.058 337.184 193.058Z" fill="#BABABA"/>
<path d="M348.117 193.058C350.3 193.058 352.07 191.291 352.07 189.111C352.07 186.931 350.3 185.164 348.117 185.164C345.934 185.164 344.164 186.931 344.164 189.111C344.164 191.291 345.934 193.058 348.117 193.058Z" fill="#BABABA"/>
<path d="M359.203 193.058C361.386 193.058 363.156 191.291 363.156 189.111C363.156 186.931 361.386 185.164 359.203 185.164C357.02 185.164 355.25 186.931 355.25 189.111C355.25 191.291 357.02 193.058 359.203 193.058Z" fill="#BABABA"/>
</g>
<path d="M318.643 37H308.603V34.26L313.003 30.6C313.763 29.9467 314.31 29.38 314.643 28.9C314.976 28.42 315.143 27.9133 315.143 27.38V27.18C315.143 26.5933 314.97 26.1533 314.623 25.86C314.276 25.5533 313.81 25.4 313.223 25.4C312.556 25.4 312.043 25.5933 311.683 25.98C311.323 26.3667 311.07 26.8267 310.923 27.36L308.303 26.36C308.463 25.88 308.683 25.4267 308.963 25C309.243 24.56 309.596 24.18 310.023 23.86C310.463 23.54 310.97 23.2867 311.543 23.1C312.116 22.9 312.776 22.8 313.523 22.8C314.283 22.8 314.963 22.9067 315.563 23.12C316.163 23.3333 316.67 23.6267 317.083 24C317.496 24.3733 317.81 24.82 318.023 25.34C318.236 25.8467 318.343 26.4 318.343 27C318.343 27.5867 318.243 28.1267 318.043 28.62C317.856 29.1 317.59 29.5533 317.243 29.98C316.91 30.4067 316.51 30.82 316.043 31.22C315.59 31.62 315.103 32.02 314.583 32.42L311.923 34.48H318.643V37ZM320.995 39.76L327.415 21.8H330.075L323.655 39.76H320.995ZM333.027 37V34.78H336.027V25.26H333.027V23.04H342.027V25.26H339.027V34.78H342.027V37H333.027ZM344.82 37V26.68H347.78V28.56H347.9C348.02 28.2667 348.166 27.9933 348.34 27.74C348.513 27.4867 348.72 27.2667 348.96 27.08C349.213 26.88 349.5 26.7267 349.82 26.62C350.153 26.5 350.526 26.44 350.94 26.44C351.433 26.44 351.886 26.5267 352.3 26.7C352.713 26.86 353.066 27.1067 353.36 27.44C353.653 27.7733 353.88 28.18 354.04 28.66C354.213 29.14 354.3 29.6933 354.3 30.32V37H351.34V30.72C351.34 29.3867 350.76 28.72 349.6 28.72C349.373 28.72 349.146 28.7533 348.92 28.82C348.706 28.8733 348.513 28.9667 348.34 29.1C348.166 29.22 348.026 29.3733 347.92 29.56C347.826 29.7467 347.78 29.9667 347.78 30.22V37H344.82ZM363.372 35.12H363.232C362.965 35.7467 362.592 36.26 362.112 36.66C361.645 37.0467 360.998 37.24 360.172 37.24C359.598 37.24 359.072 37.1333 358.592 36.92C358.125 36.7067 357.718 36.38 357.372 35.94C357.038 35.5 356.772 34.94 356.572 34.26C356.385 33.58 356.292 32.7733 356.292 31.84C356.292 30.9067 356.385 30.1 356.572 29.42C356.772 28.74 357.038 28.18 357.372 27.74C357.718 27.3 358.125 26.9733 358.592 26.76C359.072 26.5467 359.598 26.44 360.172 26.44C360.585 26.44 360.952 26.4933 361.272 26.6C361.592 26.7067 361.872 26.8533 362.112 27.04C362.365 27.2267 362.578 27.4533 362.752 27.72C362.938 27.9733 363.098 28.2533 363.232 28.56H363.372V22.2H366.332V37H363.372V35.12ZM361.452 34.94C361.972 34.94 362.418 34.8133 362.792 34.56C363.178 34.3067 363.372 33.9067 363.372 33.36V30.32C363.372 29.7733 363.178 29.3733 362.792 29.12C362.418 28.8667 361.972 28.74 361.452 28.74C360.785 28.74 360.272 28.9467 359.912 29.36C359.552 29.76 359.372 30.32 359.372 31.04V32.64C359.372 33.36 359.552 33.9267 359.912 34.34C360.272 34.74 360.785 34.94 361.452 34.94ZM373.784 37.24C372.051 37.24 370.737 36.76 369.844 35.8C368.951 34.84 368.504 33.5333 368.504 31.88C368.504 31.04 368.617 30.2867 368.844 29.62C369.084 28.94 369.417 28.3667 369.844 27.9C370.284 27.42 370.811 27.06 371.424 26.82C372.051 26.5667 372.751 26.44 373.524 26.44C374.297 26.44 374.991 26.5667 375.604 26.82C376.217 27.06 376.737 27.4067 377.164 27.86C377.591 28.3133 377.917 28.8667 378.144 29.52C378.384 30.16 378.504 30.88 378.504 31.68V32.56H371.444V32.74C371.444 33.4067 371.651 33.9467 372.064 34.36C372.477 34.76 373.084 34.96 373.884 34.96C374.497 34.96 375.024 34.8467 375.464 34.62C375.904 34.38 376.284 34.0667 376.604 33.68L378.204 35.42C377.804 35.9133 377.244 36.34 376.524 36.7C375.804 37.06 374.891 37.24 373.784 37.24ZM373.544 28.56C372.904 28.56 372.391 28.76 372.004 29.16C371.631 29.5467 371.444 30.0733 371.444 30.74V30.9H375.604V30.74C375.604 30.06 375.417 29.5267 375.044 29.14C374.684 28.7533 374.184 28.56 373.544 28.56ZM379.956 37L383.816 31.76L380.216 26.68H383.596L384.696 28.34L385.536 29.68H385.696L386.556 28.34L387.676 26.68H390.776L387.176 31.6L391.036 37H387.636L386.336 35.06L385.436 33.68H385.276L384.396 35.06L383.076 37H379.956ZM392.848 34.7H396.008V24.5H392.848V22.2H398.968V34.7H402.128V37H392.848V34.7ZM409.76 37.24C408.027 37.24 406.714 36.76 405.82 35.8C404.927 34.84 404.48 33.5333 404.48 31.88C404.48 31.04 404.594 30.2867 404.82 29.62C405.06 28.94 405.394 28.3667 405.82 27.9C406.26 27.42 406.787 27.06 407.4 26.82C408.027 26.5667 408.727 26.44 409.5 26.44C410.274 26.44 410.967 26.5667 411.58 26.82C412.194 27.06 412.714 27.4067 413.14 27.86C413.567 28.3133 413.894 28.8667 414.12 29.52C414.36 30.16 414.48 30.88 414.48 31.68V32.56H407.42V32.74C407.42 33.4067 407.627 33.9467 408.04 34.36C408.454 34.76 409.06 34.96 409.86 34.96C410.474 34.96 411 34.8467 411.44 34.62C411.88 34.38 412.26 34.0667 412.58 33.68L414.18 35.42C413.78 35.9133 413.22 36.34 412.5 36.7C411.78 37.06 410.867 37.24 409.76 37.24ZM409.52 28.56C408.88 28.56 408.367 28.76 407.98 29.16C407.607 29.5467 407.42 30.0733 407.42 30.74V30.9H411.58V30.74C411.58 30.06 411.394 29.5267 411.02 29.14C410.66 28.7533 410.16 28.56 409.52 28.56ZM416.073 37V26.68H418.453V28.2H418.593C418.753 27.72 418.979 27.3067 419.273 26.96C419.579 26.6133 420.006 26.44 420.553 26.44C421.553 26.44 422.166 27.0267 422.393 28.2H422.513C422.593 27.96 422.693 27.7333 422.813 27.52C422.933 27.3067 423.079 27.12 423.253 26.96C423.426 26.8 423.633 26.6733 423.873 26.58C424.113 26.4867 424.393 26.44 424.713 26.44C426.153 26.44 426.873 27.5 426.873 29.62V37H424.493V29.92C424.493 29.44 424.406 29.1067 424.233 28.92C424.073 28.72 423.859 28.62 423.593 28.62C423.339 28.62 423.119 28.7067 422.933 28.88C422.759 29.04 422.673 29.2933 422.673 29.64V37H420.273V29.92C420.273 29.44 420.193 29.1067 420.033 28.92C419.886 28.72 419.679 28.62 419.413 28.62C419.146 28.62 418.919 28.7067 418.733 28.88C418.546 29.04 418.453 29.2933 418.453 29.64V37H416.073ZM433.745 37.24C432.012 37.24 430.698 36.76 429.805 35.8C428.912 34.84 428.465 33.5333 428.465 31.88C428.465 31.04 428.578 30.2867 428.805 29.62C429.045 28.94 429.378 28.3667 429.805 27.9C430.245 27.42 430.772 27.06 431.385 26.82C432.012 26.5667 432.712 26.44 433.485 26.44C434.258 26.44 434.952 26.5667 435.565 26.82C436.178 27.06 436.698 27.4067 437.125 27.86C437.552 28.3133 437.878 28.8667 438.105 29.52C438.345 30.16 438.465 30.88 438.465 31.68V32.56H431.405V32.74C431.405 33.4067 431.612 33.9467 432.025 34.36C432.438 34.76 433.045 34.96 433.845 34.96C434.458 34.96 434.985 34.8467 435.425 34.62C435.865 34.38 436.245 34.0667 436.565 33.68L438.165 35.42C437.765 35.9133 437.205 36.34 436.485 36.7C435.765 37.06 434.852 37.24 433.745 37.24ZM433.505 28.56C432.865 28.56 432.352 28.76 431.965 29.16C431.592 29.5467 431.405 30.0733 431.405 30.74V30.9H435.565V30.74C435.565 30.06 435.378 29.5267 435.005 29.14C434.645 28.7533 434.145 28.56 433.505 28.56Z" fill="#7E58FF"/>
<path d="M58.4113 37V34.58H62.1713V25.22H61.9913L59.1513 28.94L57.2313 27.44L60.5713 23.04H65.1713V34.58H68.1313V37H58.4113ZM69.9834 39.76L76.4034 21.8H79.0634L72.6434 39.76H69.9834ZM88.0156 25.5V37H85.0156V25.5H80.9956V23.04H92.0356V25.5H88.0156ZM102.248 37C101.634 37 101.141 36.8467 100.768 36.54C100.394 36.22 100.174 35.7667 100.108 35.18H100.008C99.8211 35.86 99.4478 36.3733 98.8878 36.72C98.3411 37.0667 97.6678 37.24 96.8678 37.24C95.8678 37.24 95.0611 36.9733 94.4478 36.44C93.8478 35.8933 93.5478 35.1333 93.5478 34.16C93.5478 33.08 93.9411 32.28 94.7278 31.76C95.5145 31.24 96.6678 30.98 98.1878 30.98H99.8478V30.46C99.8478 29.8467 99.7011 29.3867 99.4078 29.08C99.1278 28.76 98.6478 28.6 97.9678 28.6C97.3411 28.6 96.8345 28.72 96.4478 28.96C96.0611 29.2 95.7278 29.5133 95.4478 29.9L93.8278 28.46C94.1745 27.8733 94.7145 27.3933 95.4478 27.02C96.1945 26.6333 97.1478 26.44 98.3078 26.44C99.7211 26.44 100.821 26.7667 101.608 27.42C102.408 28.06 102.808 29.0333 102.808 30.34V34.86H103.948V37H102.248ZM97.9878 35.3C98.5078 35.3 98.9478 35.1733 99.3078 34.92C99.6678 34.6667 99.8478 34.3 99.8478 33.82V32.58H98.2678C97.0545 32.58 96.4478 32.9867 96.4478 33.8V34.2C96.4478 34.56 96.5878 34.8333 96.8678 35.02C97.1478 35.2067 97.5211 35.3 97.9878 35.3ZM105.98 34.7H108.36V28.98H105.98V26.68H111.32V29.6H111.46C111.553 29.2267 111.68 28.8667 111.84 28.52C112.013 28.16 112.227 27.8467 112.48 27.58C112.747 27.3 113.067 27.08 113.44 26.92C113.813 26.76 114.253 26.68 114.76 26.68H115.74V29.4H113.54C112.807 29.4 112.253 29.62 111.88 30.06C111.507 30.4867 111.32 31.0133 111.32 31.64V34.7H114.72V37H105.98V34.7ZM126.232 37C125.619 37 125.126 36.8467 124.752 36.54C124.379 36.22 124.159 35.7667 124.092 35.18H123.992C123.806 35.86 123.432 36.3733 122.872 36.72C122.326 37.0667 121.652 37.24 120.852 37.24C119.852 37.24 119.046 36.9733 118.432 36.44C117.832 35.8933 117.532 35.1333 117.532 34.16C117.532 33.08 117.926 32.28 118.712 31.76C119.499 31.24 120.652 30.98 122.172 30.98H123.832V30.46C123.832 29.8467 123.686 29.3867 123.392 29.08C123.112 28.76 122.632 28.6 121.952 28.6C121.326 28.6 120.819 28.72 120.432 28.96C120.046 29.2 119.712 29.5133 119.432 29.9L117.812 28.46C118.159 27.8733 118.699 27.3933 119.432 27.02C120.179 26.6333 121.132 26.44 122.292 26.44C123.706 26.44 124.806 26.7667 125.592 27.42C126.392 28.06 126.792 29.0333 126.792 30.34V34.86H127.932V37H126.232ZM121.972 35.3C122.492 35.3 122.932 35.1733 123.292 34.92C123.652 34.6667 123.832 34.3 123.832 33.82V32.58H122.252C121.039 32.58 120.432 32.9867 120.432 33.8V34.2C120.432 34.56 120.572 34.8333 120.852 35.02C121.132 35.2067 121.506 35.3 121.972 35.3ZM129.084 37V26.68H131.464V28.2H131.604C131.764 27.72 131.991 27.3067 132.284 26.96C132.591 26.6133 133.018 26.44 133.564 26.44C134.564 26.44 135.178 27.0267 135.404 28.2H135.524C135.604 27.96 135.704 27.7333 135.824 27.52C135.944 27.3067 136.091 27.12 136.264 26.96C136.438 26.8 136.644 26.6733 136.884 26.58C137.124 26.4867 137.404 26.44 137.724 26.44C139.164 26.44 139.884 27.5 139.884 29.62V37H137.504V29.92C137.504 29.44 137.418 29.1067 137.244 28.92C137.084 28.72 136.871 28.62 136.604 28.62C136.351 28.62 136.131 28.7067 135.944 28.88C135.771 29.04 135.684 29.2933 135.684 29.64V37H133.284V29.92C133.284 29.44 133.204 29.1067 133.044 28.92C132.898 28.72 132.691 28.62 132.424 28.62C132.158 28.62 131.931 28.7067 131.744 28.88C131.558 29.04 131.464 29.2933 131.464 29.64V37H129.084ZM150.217 37C149.603 37 149.11 36.8467 148.737 36.54C148.363 36.22 148.143 35.7667 148.077 35.18H147.977C147.79 35.86 147.417 36.3733 146.857 36.72C146.31 37.0667 145.637 37.24 144.837 37.24C143.837 37.24 143.03 36.9733 142.417 36.44C141.817 35.8933 141.517 35.1333 141.517 34.16C141.517 33.08 141.91 32.28 142.697 31.76C143.483 31.24 144.637 30.98 146.157 30.98H147.817V30.46C147.817 29.8467 147.67 29.3867 147.377 29.08C147.097 28.76 146.617 28.6 145.937 28.6C145.31 28.6 144.803 28.72 144.417 28.96C144.03 29.2 143.697 29.5133 143.417 29.9L141.797 28.46C142.143 27.8733 142.683 27.3933 143.417 27.02C144.163 26.6333 145.117 26.44 146.277 26.44C147.69 26.44 148.79 26.7667 149.577 27.42C150.377 28.06 150.777 29.0333 150.777 30.34V34.86H151.917V37H150.217ZM145.957 35.3C146.477 35.3 146.917 35.1733 147.277 34.92C147.637 34.6667 147.817 34.3 147.817 33.82V32.58H146.237C145.023 32.58 144.417 32.9867 144.417 33.8V34.2C144.417 34.56 144.557 34.8333 144.837 35.02C145.117 35.2067 145.49 35.3 145.957 35.3Z" fill="#7E58FF"/>
<path d="M552.987 28.56C553.761 28.56 554.321 28.4133 554.667 28.12C555.027 27.8267 555.207 27.4667 555.207 27.04V26.9C555.207 26.3933 555.034 25.9933 554.687 25.7C554.354 25.3933 553.874 25.24 553.247 25.24C552.674 25.24 552.134 25.3867 551.627 25.68C551.134 25.96 550.714 26.3667 550.367 26.9L548.467 25.14C548.734 24.7933 549.027 24.48 549.347 24.2C549.667 23.9067 550.021 23.66 550.407 23.46C550.794 23.2467 551.227 23.0867 551.707 22.98C552.201 22.86 552.754 22.8 553.367 22.8C554.127 22.8 554.814 22.8867 555.427 23.06C556.041 23.2333 556.561 23.4867 556.987 23.82C557.427 24.14 557.767 24.5267 558.007 24.98C558.247 25.4333 558.367 25.94 558.367 26.5C558.367 26.94 558.294 27.34 558.147 27.7C558.001 28.06 557.801 28.3733 557.547 28.64C557.307 28.9067 557.021 29.1267 556.687 29.3C556.367 29.46 556.021 29.5733 555.647 29.64V29.76C556.501 29.9067 557.207 30.2667 557.767 30.84C558.341 31.4 558.627 32.16 558.627 33.12C558.627 33.7467 558.494 34.3133 558.227 34.82C557.974 35.3267 557.607 35.76 557.127 36.12C556.661 36.48 556.087 36.76 555.407 36.96C554.741 37.1467 553.994 37.24 553.167 37.24C552.461 37.24 551.834 37.1667 551.287 37.02C550.754 36.8733 550.281 36.68 549.867 36.44C549.454 36.1867 549.094 35.9 548.787 35.58C548.494 35.2467 548.234 34.9067 548.007 34.56L550.227 32.84C550.534 33.4133 550.914 33.8867 551.367 34.26C551.834 34.62 552.454 34.8 553.227 34.8C553.947 34.8 554.501 34.6333 554.887 34.3C555.274 33.9667 555.467 33.5067 555.467 32.92V32.78C555.467 32.2067 555.247 31.78 554.807 31.5C554.367 31.2067 553.754 31.06 552.967 31.06H551.667V28.56H552.987ZM560.98 39.76L567.4 21.8H570.06L563.64 39.76H560.98ZM577.292 37.24C576.118 37.24 575.098 37.0467 574.232 36.66C573.365 36.2733 572.665 35.7467 572.132 35.08L573.872 33.16C574.378 33.72 574.932 34.1333 575.532 34.4C576.145 34.6667 576.765 34.8 577.392 34.8C578.112 34.8 578.658 34.64 579.032 34.32C579.405 34 579.592 33.54 579.592 32.94C579.592 32.4467 579.445 32.0733 579.152 31.82C578.872 31.5667 578.392 31.3867 577.712 31.28L576.252 31.04C574.998 30.8267 574.092 30.3667 573.532 29.66C572.972 28.94 572.692 28.0667 572.692 27.04C572.692 25.6933 573.132 24.6533 574.012 23.92C574.892 23.1733 576.125 22.8 577.712 22.8C578.792 22.8 579.732 22.9667 580.532 23.3C581.332 23.6333 581.978 24.0867 582.472 24.66L580.772 26.56C580.398 26.1467 579.958 25.8267 579.452 25.6C578.945 25.36 578.372 25.24 577.732 25.24C576.385 25.24 575.712 25.7933 575.712 26.9C575.712 27.38 575.858 27.74 576.152 27.98C576.458 28.22 576.952 28.4 577.632 28.52L579.092 28.78C580.225 28.98 581.098 29.4067 581.712 30.06C582.325 30.7133 582.632 31.5933 582.632 32.7C582.632 33.3533 582.518 33.96 582.292 34.52C582.065 35.0667 581.725 35.5467 581.272 35.96C580.818 36.36 580.258 36.6733 579.592 36.9C578.938 37.1267 578.172 37.24 577.292 37.24ZM589.504 37.24C588.704 37.24 587.984 37.12 587.344 36.88C586.704 36.6267 586.157 36.2667 585.704 35.8C585.264 35.3333 584.924 34.7667 584.684 34.1C584.444 33.4333 584.324 32.68 584.324 31.84C584.324 31 584.444 30.2467 584.684 29.58C584.924 28.9133 585.264 28.3467 585.704 27.88C586.157 27.4133 586.704 27.06 587.344 26.82C587.984 26.5667 588.704 26.44 589.504 26.44C590.304 26.44 591.024 26.5667 591.664 26.82C592.304 27.06 592.844 27.4133 593.284 27.88C593.737 28.3467 594.084 28.9133 594.324 29.58C594.564 30.2467 594.684 31 594.684 31.84C594.684 32.68 594.564 33.4333 594.324 34.1C594.084 34.7667 593.737 35.3333 593.284 35.8C592.844 36.2667 592.304 36.6267 591.664 36.88C591.024 37.12 590.304 37.24 589.504 37.24ZM589.504 35.04C590.171 35.04 590.691 34.8333 591.064 34.42C591.437 34.0067 591.624 33.42 591.624 32.66V31.02C591.624 30.26 591.437 29.6733 591.064 29.26C590.691 28.8467 590.171 28.64 589.504 28.64C588.837 28.64 588.317 28.8467 587.944 29.26C587.571 29.6733 587.384 30.26 587.384 31.02V32.66C587.384 33.42 587.571 34.0067 587.944 34.42C588.317 34.8333 588.837 35.04 589.504 35.04ZM596.796 37V26.68H599.756V28.56H599.876C599.996 28.2667 600.143 27.9933 600.316 27.74C600.489 27.4867 600.696 27.2667 600.936 27.08C601.189 26.88 601.476 26.7267 601.796 26.62C602.129 26.5 602.503 26.44 602.916 26.44C603.409 26.44 603.863 26.5267 604.276 26.7C604.689 26.86 605.043 27.1067 605.336 27.44C605.629 27.7733 605.856 28.18 606.016 28.66C606.189 29.14 606.276 29.6933 606.276 30.32V37H603.316V30.72C603.316 29.3867 602.736 28.72 601.576 28.72C601.349 28.72 601.123 28.7533 600.896 28.82C600.683 28.8733 600.489 28.9667 600.316 29.1C600.143 29.22 600.003 29.3733 599.896 29.56C599.803 29.7467 599.756 29.9667 599.756 30.22V37H596.796ZM615.228 35.12H615.108C614.882 35.7067 614.522 36.2067 614.028 36.62C613.548 37.0333 612.895 37.24 612.068 37.24C611.575 37.24 611.122 37.16 610.708 37C610.295 36.8267 609.942 36.5733 609.648 36.24C609.355 35.9067 609.122 35.5 608.948 35.02C608.788 34.54 608.708 33.9867 608.708 33.36V26.68H611.668V32.96C611.668 34.2933 612.248 34.96 613.408 34.96C613.635 34.96 613.855 34.9333 614.068 34.88C614.295 34.8133 614.488 34.72 614.648 34.6C614.822 34.4667 614.962 34.3067 615.068 34.12C615.175 33.9333 615.228 33.7133 615.228 33.46V26.68H618.188V37H615.228V35.12ZM625.88 26.44C627.014 26.44 627.92 26.6733 628.6 27.14C629.294 27.5933 629.82 28.2 630.18 28.96L627.9 30.2C627.714 29.8 627.467 29.4667 627.16 29.2C626.867 28.9333 626.44 28.8 625.88 28.8C625.2 28.8 624.674 29 624.3 29.4C623.94 29.7867 623.76 30.32 623.76 31V32.68C623.76 33.36 623.94 33.9 624.3 34.3C624.674 34.6867 625.214 34.88 625.92 34.88C626.494 34.88 626.94 34.7467 627.26 34.48C627.594 34.2133 627.874 33.8667 628.1 33.44L630.34 34.72C629.98 35.4533 629.454 36.0533 628.76 36.52C628.08 36.9733 627.194 37.2133 626.1 37.24L625.92 38.1L626 38.18C626.16 38.14 626.32 38.1067 626.48 38.08C626.64 38.0533 626.8 38.04 626.96 38.04C627.36 38.04 627.7 38.1467 627.98 38.36C628.274 38.5733 628.42 38.9267 628.42 39.42C628.42 39.7667 628.347 40.0533 628.2 40.28C628.054 40.5067 627.854 40.6933 627.6 40.84C627.36 40.9867 627.08 41.0867 626.76 41.14C626.44 41.2067 626.114 41.24 625.78 41.24C625.087 41.24 624.54 41.14 624.14 40.94C623.754 40.7533 623.474 40.56 623.3 40.36L624.22 39.24C624.354 39.4 624.527 39.5333 624.74 39.64C624.967 39.76 625.234 39.82 625.54 39.82C625.794 39.82 626 39.78 626.16 39.7C626.334 39.62 626.42 39.4933 626.42 39.32C626.42 39.24 626.4 39.16 626.36 39.08C626.32 39 626.24 38.92 626.12 38.84C626.014 38.7733 625.86 38.7067 625.66 38.64C625.474 38.5867 625.227 38.5467 624.92 38.52L624.5 38.48L624.78 37.14C623.487 36.9267 622.48 36.36 621.76 35.44C621.04 34.52 620.68 33.32 620.68 31.84C620.68 31 620.8 30.2467 621.04 29.58C621.28 28.9133 621.62 28.3467 622.06 27.88C622.514 27.4133 623.06 27.06 623.7 26.82C624.354 26.5667 625.08 26.44 625.88 26.44Z" fill="#7E58FF"/>
<defs>
<clipPath id="clip0_1090_128">
<rect width="669" height="173" fill="white" transform="translate(7 68)"/>
</clipPath>
</defs>
</svg>
