<svg width="11" height="18" viewBox="0 0 11 18" fill="none" xmlns="http://www.w3.org/2000/svg">
<path d="M0.673362 1.08756C0.432837 1.32816 0.297716 1.65443 0.297716 1.99464C0.297716 2.33484 0.432836 2.66112 0.673362 2.90172L7.02421 9.25257L0.673361 15.6034C0.439652 15.8454 0.310333 16.1695 0.313257 16.5059C0.31618 16.8423 0.451111 17.1641 0.688989 17.4019C0.926868 17.6398 1.24866 17.7748 1.58506 17.7777C1.92146 17.7806 2.24554 17.6513 2.48752 17.4176L9.74545 10.1596C9.98597 9.91905 10.1211 9.59277 10.1211 9.25257C10.1211 8.91236 9.98597 8.58608 9.74545 8.34549L2.48752 1.08756C2.24692 0.847033 1.92065 0.711914 1.58044 0.711914C1.24024 0.711914 0.913959 0.847033 0.673362 1.08756Z" fill="#D1D3D4"/>
</svg>
