<svg width="10" height="18" viewBox="0 0 10 18" fill="none" xmlns="http://www.w3.org/2000/svg">
<path d="M0.527663 0.996678C0.297352 1.23348 0.16797 1.55462 0.16797 1.88946C0.16797 2.22431 0.297352 2.54544 0.527663 2.78225L6.60883 9.03301L0.527663 15.2838C0.303878 15.5219 0.18005 15.8409 0.182849 16.172C0.185648 16.5031 0.31485 16.8198 0.542628 17.054C0.770405 17.2881 1.07853 17.4209 1.40065 17.4238C1.72276 17.4267 2.03309 17.2994 2.26479 17.0694L9.21452 9.9258C9.44484 9.68899 9.57422 9.36786 9.57422 9.03301C9.57422 8.69817 9.44484 8.37704 9.21452 8.14023L2.26479 0.996678C2.03441 0.759943 1.72199 0.626953 1.39623 0.626953C1.07047 0.626953 0.758045 0.759943 0.527663 0.996678Z" fill="#FF6F00"/>
</svg>
