<svg width="18" height="30" viewBox="0 0 18 30" fill="none" xmlns="http://www.w3.org/2000/svg">
<path d="M1.4517 1.55681C1.04453 1.96411 0.815788 2.51644 0.815788 3.09236C0.815788 3.66828 1.04453 4.22062 1.4517 4.62792L12.2027 15.379L1.4517 26.13C1.05606 26.5396 0.837146 27.0883 0.842095 27.6577C0.847043 28.2272 1.07546 28.772 1.47815 29.1747C1.88085 29.5773 2.4256 29.8058 2.99507 29.8107C3.56454 29.8157 4.11317 29.5967 4.5228 29.2011L16.8094 16.9145C17.2166 16.5072 17.4453 15.9549 17.4453 15.379C17.4453 14.803 17.2166 14.2507 16.8094 13.8434L4.5228 1.55681C4.11551 1.14964 3.56317 0.920898 2.98725 0.920898C2.41133 0.920898 1.859 1.14964 1.4517 1.55681Z" fill="#7E58FF"/>
</svg>
