<svg width="503" height="311" viewBox="0 0 503 311" fill="none" xmlns="http://www.w3.org/2000/svg">
<mask id="mask0_1034_128" style="mask-type:alpha" maskUnits="userSpaceOnUse" x="54" y="24" width="395" height="286">
<rect x="54" y="24" width="395" height="286" fill="#D9D9D9"/>
</mask>
<g mask="url(#mask0_1034_128)">
<path d="M264.043 140.968C219.312 140.968 183.055 177.469 183.055 222.501C183.055 267.532 219.312 304.033 264.043 304.033C308.775 304.033 345.032 267.532 345.032 222.501C345.032 177.469 308.775 140.968 264.043 140.968ZM264.043 260.746C243.064 260.746 226.053 243.621 226.053 222.501C226.053 201.38 243.064 184.256 264.043 184.256C285.023 184.256 302.033 201.38 302.033 222.501C302.033 243.621 285.023 260.746 264.043 260.746Z" fill="#7E58FF"/>
<path d="M263.5 54C170.438 54 95 129.438 95 222.5C95 315.562 170.438 391 263.5 391C356.562 391 432 315.562 432 222.5C432 129.438 356.562 54 263.5 54ZM263.5 328.36C205.036 328.36 157.656 280.964 157.656 222.516C157.656 164.068 205.052 116.671 263.5 116.671C321.948 116.671 369.344 164.052 369.344 222.516C369.344 280.98 321.964 328.36 263.5 328.36Z" fill="#7E58FF"/>
</g>
<mask id="mask1_1034_128" style="mask-type:luminance" maskUnits="userSpaceOnUse" x="0" y="0" width="503" height="311">
<path d="M503 0H0V310.14H503V0Z" fill="white"/>
</mask>
<g mask="url(#mask1_1034_128)">
<path d="M320.85 281.173L341.263 305.405C341.263 305.405 339.613 312.329 332.86 311.82L312.107 294.29C312.107 294.29 309.998 289.148 310.032 282.87C310.066 276.591 318.486 277.202 320.85 281.173Z" fill="#742DD2"/>
<g opacity="0.25">
<path d="M336.704 306.882L318.163 291.219L320.68 286.722C320.68 286.722 323.521 278.237 313.876 278.237C311.767 278.593 310.049 280.019 310.032 282.853C309.998 289.131 312.107 294.273 312.107 294.273L332.86 311.803C338.422 312.21 340.514 307.595 341.076 305.948C339.936 306.61 338.49 307.001 336.687 306.865L336.704 306.882Z" fill="#0F0F14"/>
</g>
<path d="M333.561 313.636C333.288 313.636 333.016 313.636 332.744 313.602C332.37 313.568 332.013 313.432 331.723 313.195L310.971 295.665C310.75 295.478 310.579 295.241 310.477 294.986C310.392 294.765 308.232 289.437 308.266 282.886C308.266 279.781 310.001 277.473 312.859 276.693C316.312 275.759 320.514 277.303 322.317 280.154L342.644 304.285C343.001 304.71 343.138 305.287 343.018 305.83C342.355 308.613 339.548 313.636 333.578 313.636H333.561ZM313.607 293.238L333.544 310.072C337.15 310.072 338.715 307.238 339.259 305.796L319.476 282.31C319.476 282.31 319.357 282.157 319.306 282.072C318.37 280.494 315.717 279.543 313.76 280.086C312.451 280.443 311.804 281.359 311.804 282.87C311.787 287.774 313.148 291.965 313.607 293.238Z" fill="#0F0F14"/>
<path d="M331.298 237.204C331.298 237.204 339.242 246.622 343.154 262.099C347.067 277.575 332.182 285.89 332.182 285.89C332.182 285.89 330.43 293.815 324.238 298.109C318.047 302.385 311.957 299.755 310.375 298.109C308.793 296.463 309.082 291.847 310.375 291.847C311.668 291.847 312.433 294.019 315.172 293.646C317.911 293.272 321.143 290.625 320.853 281.19C320.377 277.609 314.798 276.744 311.77 280.155C311.77 280.155 307.857 281.937 306.667 277.609C305.476 273.282 308.47 269.498 308.47 269.498C308.47 269.498 306.479 262.693 308.47 255.905C310.46 249.117 315.002 240.242 315.002 240.242C315.002 240.242 325.854 238.782 331.315 237.238L331.298 237.204Z" fill="#3E4049"/>
<path d="M319.322 263.711C319.322 263.711 327.283 263.388 330.464 267.274C333.645 271.16 333.645 276.964 333.458 279.951C333.271 282.92 331.025 290.014 328.168 294.307C325.31 298.601 319.781 301.299 313.879 299.975C307.993 298.668 308.418 293.527 309.677 292.457C310.936 291.388 312.671 292.644 312.671 292.644C312.671 292.644 317.196 295.597 319.764 289.556C322.333 283.531 320.411 279.798 319.526 278.899C318.642 277.999 316.277 277.507 314.678 278.271C313.079 279.017 311.412 280.087 310.324 280.087C309.235 280.087 306.173 280.426 306.394 275.606C306.615 270.787 309.133 268.225 311.957 266.392C314.763 264.559 319.339 263.728 319.339 263.728L319.322 263.711Z" fill="#EDBC9A"/>
<g opacity="0.25">
<path d="M322.875 238.986C322.875 238.986 322.075 245.553 325.767 254.581C329.458 263.609 339.732 266.341 339.732 266.341C339.732 266.341 340.719 276.964 333.251 282.157L333.524 277.1C333.524 277.1 333.762 266.392 326.005 264.525C326.005 264.525 324.083 263.422 320.613 263.745C317.142 264.067 316.088 264.254 314.948 264.78C313.791 265.306 312.311 266.104 311.682 266.562C311.053 267.02 310.372 267.563 310.372 267.563C310.372 267.563 307.889 269.684 306.868 272.552C305.847 275.42 307.072 278.067 307.072 278.067C307.072 278.067 311.291 274.147 316.921 273.621C322.552 273.095 324.253 282.395 321.701 285.704C319.15 289.013 321.837 283.532 320.851 281.173C319.864 278.814 318.724 277.999 316.683 277.915C314.642 277.83 313.094 279.119 312.277 279.476C311.461 279.832 310.032 279.917 310.032 279.917C310.032 279.917 307.804 280.901 306.46 277.405C305.116 273.91 308.45 268.836 308.45 268.836C308.45 268.836 306.715 263.066 308.45 256.974C310.185 250.882 315.424 240.157 315.424 240.157L322.858 239.003L322.875 238.986Z" fill="#0F0F14"/>
</g>
<g opacity="0.25">
<path d="M310.033 295.529C310.033 295.529 311.717 299.144 320.63 295.529C329.544 291.915 332.81 279.849 332.81 279.849C332.81 279.849 333.831 290.421 327.299 295.835C320.767 301.248 316.48 300.807 311.989 299.297C307.498 297.786 310.033 295.512 310.033 295.512V295.529Z" fill="#0F0F14"/>
</g>
<path d="M317.092 302.198C313.452 302.198 310.441 300.739 309.08 299.33C307.26 297.43 307.209 293.629 307.975 291.83C308.655 290.235 309.863 290.065 310.356 290.065C311.462 290.065 312.244 290.659 312.857 291.134C313.52 291.66 313.979 291.999 314.915 291.864C317.722 291.473 319.235 287.638 319.065 281.309C318.912 280.46 318.198 280.07 317.619 279.9C316.378 279.527 314.421 279.798 313.095 281.292C312.925 281.478 312.72 281.631 312.499 281.733C312.244 281.852 309.999 282.802 307.821 281.784C306.852 281.325 305.576 280.307 304.947 278.033C303.858 274.096 305.61 270.601 306.546 269.107C306.052 266.986 305.049 261.216 306.75 255.345C308.757 248.472 313.214 239.732 313.401 239.359C313.673 238.833 314.166 238.477 314.745 238.409C314.847 238.409 325.529 236.949 330.803 235.456C331.483 235.269 332.197 235.49 332.657 236.016C332.997 236.406 340.907 245.926 344.887 261.624C348.579 276.235 336.739 285.025 333.728 286.976C333.099 289.182 330.854 295.648 325.257 299.517C322.467 301.435 319.644 302.147 317.109 302.147L317.092 302.198ZM311.07 294.239C311.036 295.19 311.207 296.412 311.649 296.887C312.788 298.075 317.875 300.349 323.216 296.649C328.761 292.814 330.428 285.585 330.428 285.517C330.53 285.025 330.854 284.601 331.296 284.346C331.857 284.041 344.938 276.489 341.417 262.54C338.321 250.288 332.572 241.854 330.598 239.223C325.87 240.411 318.708 241.48 316.14 241.837C314.983 244.162 311.717 251 310.152 256.363C308.349 262.557 310.135 268.904 310.152 268.971C310.305 269.514 310.203 270.108 309.846 270.567C309.829 270.584 307.43 273.74 308.366 277.117C308.587 277.898 308.893 278.39 309.318 278.593C309.761 278.814 310.39 278.712 310.764 278.61C312.857 276.54 315.969 275.708 318.674 276.523C320.868 277.202 322.348 278.848 322.621 280.935C322.621 280.986 322.621 281.054 322.621 281.122C322.961 292.627 318.249 295.003 315.408 295.393C313.316 295.682 311.955 294.884 311.07 294.239Z" fill="#0F0F14"/>
<path d="M307.039 268.378C310.526 264.033 316.377 261.624 321.889 262.489C323.692 262.693 325.41 263.44 326.754 264.644C326.822 264.712 326.822 264.814 326.754 264.865C325.036 265.17 323.386 264.865 321.702 264.95C320.154 264.916 318.64 265.238 317.211 265.697C314.387 266.596 311.836 268.412 309.845 270.567C308.348 272.4 305.627 270.295 307.039 268.395V268.378Z" fill="#0F0F14"/>
<path d="M330.479 285.364C330.972 283.226 331.67 280.714 332.146 278.559C332.316 277.779 332.571 276.998 333.286 276.167C333.354 276.082 333.473 276.082 333.558 276.15C334.306 276.964 334.545 277.847 334.613 278.695C334.834 281.308 334.715 283.888 333.864 286.416C333.541 287.333 332.52 287.825 331.602 287.502C330.717 287.197 330.241 286.247 330.479 285.364Z" fill="#0F0F14"/>
<path d="M302.398 336.664C319.426 334.746 321.994 325.549 321.994 325.549C321.994 325.549 324.733 321.103 320.582 312.516C316.415 303.929 307.331 301.18 307.331 301.18C307.331 301.18 301.65 308.07 291.818 315.622C281.969 323.173 260.773 330.725 260.773 330.725L277.052 332.897L278.464 334.305C278.464 334.305 285.371 338.548 302.415 336.647L302.398 336.664Z" fill="#3E4049"/>
<g opacity="0.4">
<path d="M322.876 320.899C322.876 320.899 318.555 312.279 313.571 308.375C308.587 304.472 304.879 303.912 304.879 303.912L306.886 301.197C306.886 301.197 312.295 302.538 317.041 307.442C321.787 312.346 322.893 320.899 322.893 320.899H322.876Z" fill="white"/>
</g>
<path d="M295.967 346.625C288.704 346.625 282.274 346.065 280.011 344.334C276.048 341.314 275.827 337.292 276.422 334.814L276.201 334.594L260.517 332.506C259.701 332.405 259.071 331.743 258.986 330.928C258.901 330.114 259.378 329.35 260.16 329.061C260.364 328.994 281.219 321.51 290.711 314.213C300.254 306.882 305.884 300.111 305.935 300.043C306.395 299.483 307.143 299.262 307.823 299.466C308.232 299.585 317.707 302.538 322.163 311.718C325.242 318.065 324.817 322.477 324.188 324.734C325.838 325.854 328.253 328.196 328.763 332.388C329.206 335.985 329.121 337.784 328.831 338.751C328.865 339.447 328.78 340.533 328.117 341.636C327.232 343.096 325.667 344.097 323.439 344.623C321.177 345.149 307.517 346.591 295.967 346.591V346.625ZM267.9 329.91L277.256 331.149C277.647 331.2 278.004 331.386 278.276 331.658L279.688 333.066C280.215 333.592 280.352 334.373 280.062 335.035C279.909 335.391 278.616 338.785 282.172 341.5C286.186 344.555 317.213 342.451 322.606 341.178C325.344 340.533 325.327 339.243 325.259 338.853C325.14 338.395 325.225 337.937 325.446 337.563C325.497 337.224 325.616 336.019 325.225 332.829C324.715 328.62 321.449 327.229 321.313 327.178C320.836 326.974 320.445 326.584 320.292 326.075C320.139 325.566 320.19 325.04 320.462 324.598C320.53 324.463 322.572 320.729 318.948 313.28C315.988 307.187 310.222 304.252 307.84 303.267C305.901 305.456 300.713 311.006 292.871 317.03C286.305 322.07 275.044 327.025 267.9 329.893V329.91Z" fill="#0F0F14"/>
<path d="M314.2 240.802C311.376 241.548 295.829 242.838 295.829 242.838C295.829 242.838 226.29 245.977 196.521 230.891C166.753 215.805 169.134 196.459 169.134 196.459C169.134 196.459 136.525 188.348 120.195 189.027C132.035 198.971 132.205 221.49 132.205 221.49C142.989 227.531 177.691 240.802 177.691 240.802C166.328 262.947 165.069 284.125 187.098 305.27C224.521 340.516 275.875 334.475 295.931 317.607C316.003 300.739 309.743 271.432 308.144 265.866C306.528 260.3 314.183 240.802 314.183 240.802H314.2Z" fill="#3E4049"/>
<path d="M95.6335 209.747C94.5958 214.753 98.4742 215.703 98.4742 215.703C98.4232 221.219 104.003 221.88 104.003 221.88C105.142 226.547 109.497 226.513 109.497 226.513C113.375 233.08 118.683 227.922 118.683 227.922C125.113 226.513 132.223 221.711 132.223 221.711C132.223 221.711 132.036 198.988 120.214 189.027C117.628 189.129 115.434 189.468 113.869 190.079C102.387 194.61 95.6505 209.73 95.6505 209.73L95.6335 209.747Z" fill="#EDBC9A"/>
<path d="M120.198 189.027C120.113 188.959 120.028 188.874 119.926 188.806C120.011 188.874 120.096 188.959 120.198 189.027Z" fill="#3E4049"/>
<g opacity="0.4">
<path d="M99.563 208.186C99.6651 208.05 105.483 200.023 105.619 199.497C105.755 198.971 105.993 196.901 105.857 196.714C105.721 196.527 104.972 196.205 104.768 196.425C104.564 196.646 99.8862 202.738 99.444 203.061C99.0017 203.383 97.0625 206.964 97.0625 206.964L97.862 208.186H99.563Z" fill="white"/>
</g>
<path d="M264.753 255.447C264.753 255.447 257.489 247.623 257.319 247.437C257.149 247.233 253.594 243.025 253.594 243.025L254.325 242.363C254.325 242.363 280.759 243.025 281.899 243.025C283.039 243.025 285.931 243.025 285.931 243.025L286.56 243.788V244.535C286.56 244.535 282.103 248.998 277.102 252.086C272.101 255.175 268.41 257.245 268.121 257.398C267.832 257.551 266.147 256.855 266.147 256.855L264.77 255.463L264.753 255.447Z" fill="#EDBC9A"/>
<path d="M171.195 257.636C171.195 257.636 191.59 286.891 242.826 292.678C294.061 298.465 310.323 280.833 310.323 280.833C310.323 280.833 310.697 288.47 309.354 293.832C309.354 293.832 296.409 313.806 251.195 310.038C205.981 306.254 179.768 285.296 170.157 275.505C170.157 275.505 169.153 264.322 171.195 257.602V257.636Z" fill="#742DD2"/>
<g opacity="0.25">
<path d="M170.938 271.924C170.938 271.924 185.414 288.537 226.868 300.823C268.323 313.093 289.841 298.38 291.015 290.438C291.015 290.438 296.441 289.114 300.388 287.129C304.334 285.143 307.549 283.141 307.549 283.141C307.549 283.141 306.954 292.899 306.052 296.666C305.151 300.433 289.535 310.14 262.522 310.547C235.51 310.954 206.371 299.313 206.371 299.313C206.371 299.313 180.685 288.249 171.754 277.134L170.155 275.555L169.781 271.941H170.938V271.924Z" fill="#0F0F14"/>
</g>
<g opacity="0.25">
<path d="M177.707 294.29C177.707 294.29 208.241 322.647 249.882 320.627C291.524 318.608 299.4 302.368 299.4 302.368L305.592 297.582L307.565 295.97L308.433 296.903C308.433 296.903 305.013 313.585 288.275 322.731C271.52 331.878 244.558 333.948 218.617 324.971C192.676 315.994 178.524 297.124 177.707 294.29Z" fill="#0F0F14"/>
</g>
<g opacity="0.25">
<path d="M313.045 243.907C313.045 243.907 303.792 250.899 268.325 251.391C232.858 251.9 202.324 234.014 202.324 234.014C202.324 234.014 231.82 242.227 264.259 242.702C296.698 243.177 309.66 241.48 310.664 241.362C311.668 241.226 314.219 240.768 314.083 241.124C313.947 241.48 313.045 243.907 313.045 243.907Z" fill="#0F0F14"/>
</g>
<path d="M251.637 332.846C250.412 332.846 249.204 332.829 247.979 332.778C231.666 332.133 207.648 327.076 185.908 306.576C166.278 287.74 162.876 267.104 175.26 241.769C168.115 239.019 142.566 229.041 132.325 223.577C130.199 224.968 124.773 228.278 119.533 229.55C118.615 230.314 116.284 231.926 113.461 231.57C111.521 231.315 109.854 230.178 108.477 228.21C106.554 227.887 103.85 226.631 102.625 223.424C100.311 222.779 97.2496 220.896 96.7563 216.925C94.9532 215.924 93.014 213.633 93.8815 209.407C93.9155 209.288 93.9496 209.17 94.0006 209.051C94.2898 208.406 101.162 193.218 113.188 188.466C125.062 183.783 167.741 194.321 169.561 194.762C170.429 194.983 171.007 195.814 170.905 196.697C170.82 197.426 169.17 215.058 197.322 229.33C226.087 243.907 293.874 241.158 295.711 241.09C300.015 240.733 311.548 239.681 313.742 239.121C314.388 238.952 315.086 239.155 315.528 239.664C315.97 240.156 316.106 240.869 315.851 241.497C312.977 248.828 308.826 261.793 309.864 265.424C310.272 266.833 319.56 300.128 297.089 319.015C286.763 327.687 269.6 332.879 251.62 332.879L251.637 332.846ZM132.223 219.725C132.529 219.725 132.819 219.793 133.091 219.945C143.637 225.851 177.998 239.019 178.356 239.138C178.832 239.325 179.206 239.698 179.376 240.156C179.563 240.632 179.529 241.158 179.291 241.599C166.533 266.477 169.323 285.72 188.341 303.98C223.706 337.292 274.176 333.575 294.792 316.232C315.511 298.804 306.819 267.664 306.445 266.341C305.067 261.555 309.285 248.913 311.446 243.024C306.223 243.703 297.242 244.467 295.966 244.569C295.949 244.569 295.915 244.569 295.898 244.569C293.04 244.704 225.56 247.555 195.706 232.435C169.765 219.284 167.367 202.942 167.299 197.8C154.286 194.66 123.157 188.28 114.498 191.708C104.445 195.679 98.1001 208.61 97.3347 210.256C96.8073 213.107 98.4063 213.785 98.9166 213.938C99.7161 214.142 100.243 214.854 100.243 215.669C100.209 219.436 103.816 220.03 104.224 220.081C104.955 220.183 105.551 220.709 105.738 221.422C106.503 224.561 109.191 224.68 109.497 224.697C110.127 224.697 110.705 225.036 111.028 225.562C111.896 227.039 112.865 227.853 113.903 228.006C115.383 228.21 116.948 227.073 117.441 226.614C117.679 226.394 117.968 226.224 118.292 226.156C124.313 224.833 131.117 220.064 131.186 220.013C131.492 219.793 131.849 219.691 132.206 219.691L132.223 219.725Z" fill="#0F0F14"/>
<path d="M262.285 312.312C258.781 312.312 255.038 312.16 251.041 311.82C204.075 307.9 177.93 285.992 168.88 276.761C168.591 276.472 168.421 276.082 168.387 275.675C168.353 275.199 167.366 264.067 169.492 257.11C169.697 256.465 170.241 255.973 170.921 255.871C171.602 255.769 172.265 256.057 172.656 256.601C172.861 256.889 193.29 285.279 243.029 290.897C292.529 296.48 308.859 279.781 309.012 279.612C309.506 279.086 310.254 278.916 310.935 279.153C311.598 279.391 312.074 280.019 312.108 280.732C312.108 281.054 312.483 288.69 311.088 294.257C311.037 294.443 310.969 294.63 310.85 294.783C310.339 295.563 299.044 312.278 262.285 312.278V312.312ZM171.874 274.758C181.06 283.956 206.337 304.54 251.33 308.308C292.189 311.718 306.104 295.224 307.686 293.12C308.315 290.404 308.519 287.095 308.553 284.601C302.991 288.538 289.246 295.648 262.557 295.648C256.569 295.648 249.935 295.292 242.604 294.46C215.761 291.423 197.424 281.903 186.758 274.453C179.495 269.379 174.732 264.593 172.129 261.641C171.398 266.765 171.721 272.824 171.857 274.741L171.874 274.758Z" fill="#0F0F14"/>
<path d="M132.221 223.271C131.235 223.271 130.452 222.474 130.435 221.507C130.435 221.286 130.248 199.599 118.953 190.418C118.188 189.79 118.068 188.687 118.698 187.923C119.327 187.16 120.433 187.058 121.198 187.669C133.803 197.919 133.99 220.556 133.99 221.507C133.99 222.491 133.191 223.288 132.221 223.288V223.271Z" fill="#0F0F14"/>
<path d="M289.656 292.271C289.486 292.271 289.316 292.237 289.163 292.186C255.142 280.053 231.361 242.583 230.358 240.988C229.915 240.292 230.136 239.376 230.834 238.952C231.531 238.51 232.45 238.731 232.875 239.427C233.113 239.8 257.115 277.626 290.149 289.403C290.915 289.674 291.323 290.523 291.051 291.287C290.83 291.897 290.268 292.271 289.656 292.271Z" fill="#0F0F14"/>
<path d="M305.255 286.094C305.068 286.094 304.881 286.06 304.711 285.992C276.661 274.86 252.829 244.484 251.825 243.194C251.315 242.549 251.434 241.616 252.08 241.124C252.727 240.615 253.662 240.734 254.156 241.378C254.394 241.684 278.515 272.416 305.8 283.243C306.565 283.548 306.939 284.397 306.633 285.161C306.395 285.737 305.851 286.094 305.255 286.094Z" fill="#0F0F14"/>
<path d="M277.542 268.751C277.202 268.751 276.845 268.632 276.572 268.411C275.943 267.885 275.858 266.952 276.385 266.324C276.572 266.104 276.811 265.951 277.066 265.866C278.937 264.814 294.484 253.478 304.912 240.937C305.439 240.309 306.375 240.225 307.004 240.751C307.634 241.277 307.719 242.21 307.191 242.838C296.458 255.735 279.226 268.615 277.678 268.751C277.627 268.751 277.593 268.751 277.542 268.751ZM277.865 265.832C278.086 265.883 278.29 265.985 278.478 266.137C278.273 265.968 278.069 265.883 277.865 265.832Z" fill="#0F0F14"/>
<path d="M267.186 259.367C266.641 259.367 266.131 259.078 265.859 258.552C265.485 257.822 265.774 256.94 266.505 256.567C266.658 256.482 281.73 248.76 286.612 242.142C287.105 241.48 288.024 241.345 288.687 241.837C289.35 242.329 289.487 243.245 288.993 243.907C283.686 251.085 268.496 258.874 267.849 259.214C267.628 259.316 267.407 259.384 267.169 259.384L267.186 259.367Z" fill="#0F0F14"/>
<path d="M176.127 240.004C176.808 238.426 177.828 237.034 178.934 235.727C179.291 235.286 179.767 234.879 180.686 234.709C180.805 234.692 180.907 234.743 180.958 234.845C181.349 235.677 181.298 236.287 181.162 236.847C180.737 238.511 180.21 240.14 179.325 241.616C178.134 243.432 175.379 241.989 176.161 240.004H176.127Z" fill="#0F0F14"/>
<path d="M371.591 109.727C371.591 109.727 374.737 100.241 386.015 94.0297C397.293 87.8188 407.602 79.4187 409.796 58.1556C409.473 53.0137 396.239 46.6161 392.633 48.2961C392.633 48.2961 391.391 66.7593 382.971 74.3957C374.55 82.0321 352.93 93.5037 352.062 105.213" fill="#742DD2"/>
<path d="M371.592 111.508C372.34 111.508 373.038 111.033 373.276 110.304C373.327 110.168 376.423 101.36 386.867 95.5908C398.349 89.261 409.287 80.3688 411.567 58.342C411.567 58.2402 411.567 58.1384 411.567 58.0535C411.328 54.3711 406.991 51.2656 404.422 49.7553C401.292 47.9056 395.134 45.1904 391.868 46.7007C391.273 46.9722 390.882 47.5492 390.848 48.1941C390.848 48.3638 389.555 66.0463 381.764 73.1058C379.536 75.1252 376.253 77.5009 372.783 80.0125C363.07 87.038 350.975 95.7774 350.278 105.111C350.21 106.095 350.941 106.944 351.928 107.011C352.897 107.079 353.765 106.35 353.833 105.365C354.411 97.678 365.757 89.4647 374.875 82.8804C378.43 80.301 381.798 77.8743 384.163 75.7361C391.732 68.8633 393.808 54.3541 394.284 49.8062C395.951 49.8571 399.217 50.8074 402.619 52.8099C406.14 54.8802 407.841 56.9675 408.011 58.1554C405.766 79.4525 395.032 87.038 385.149 92.4853C373.412 98.9508 370.027 108.759 369.891 109.184C369.585 110.117 370.095 111.118 371.014 111.424C371.201 111.491 371.388 111.508 371.575 111.508H371.592Z" fill="#0F0F14"/>
<path d="M364.092 123.591C364.092 123.591 371.831 130.888 393.707 133.145C415.582 135.402 425.448 125.305 427.03 122.42C428.612 119.535 426.792 109.184 423.492 108.267C420.192 107.351 410.003 115.123 400.358 116.26C390.713 117.397 368.021 106.57 368.021 106.57C368.021 106.57 366.014 104.873 360.911 104.806C355.808 104.738 352.031 105.603 352.031 105.603L352.712 108.997" fill="#742DD2"/>
<path d="M399.746 135.232C417.726 135.232 426.724 126.629 428.578 123.252C430.058 120.553 429.327 114.461 427.728 110.677C426.741 108.352 425.465 106.944 423.951 106.536C421.791 105.942 418.899 107.317 414.528 109.387C410.309 111.39 405.053 113.901 400.12 114.478C391.087 115.547 368.974 105.06 368.752 104.941C368.718 104.941 368.701 104.907 368.667 104.907C368.276 104.738 359.056 101.004 351.368 103.923C350.721 104.161 350.279 104.771 350.228 105.45L350.024 108.318C349.956 109.302 350.687 110.151 351.674 110.219C352.661 110.27 353.511 109.557 353.579 108.573L353.698 106.876C359.652 105.213 366.711 107.928 367.29 108.148C368.786 108.861 390.645 119.128 400.545 117.974C406.056 117.329 411.602 114.682 416.059 112.578C418.61 111.373 422.097 109.71 422.999 109.93C423.169 109.981 423.781 110.456 424.445 112.035C425.908 115.496 426.112 120.333 425.448 121.521C424.02 124.134 414.443 133.45 393.86 131.346C373.022 129.208 365.35 122.335 365.282 122.267C364.568 121.606 363.445 121.639 362.765 122.352C362.101 123.065 362.118 124.185 362.833 124.847C363.173 125.169 371.27 132.585 393.486 134.876C395.68 135.097 397.755 135.198 399.712 135.198L399.746 135.232Z" fill="#0F0F14"/>
<path d="M324.221 237.102C324.221 237.102 267.457 249.524 218.126 239.631C168.796 229.737 155.817 208.745 168.677 181.696C168.677 181.696 159.984 124.083 193.597 89.4307C227.21 54.7783 316.294 45.6825 351.829 105.213C366.594 131.872 364.808 178.828 364.808 178.828C364.808 178.828 390.613 219.844 324.221 237.085V237.102Z" fill="#3E4049"/>
<g opacity="0.4">
<path d="M165.461 190.045C165.563 189.807 165.665 189.587 165.784 189.349C165.784 189.349 165.784 189.247 165.75 189.078C165.648 189.4 165.563 189.722 165.478 190.045H165.461Z" fill="white"/>
</g>
<g opacity="0.4">
<path d="M366.133 211.257C370.59 203.01 370.181 194.813 368.701 188.721C370.079 195.034 370.385 203.315 366.133 211.257Z" fill="white"/>
</g>
<g opacity="0.4">
<path d="M363.277 146.551C365.37 164.149 364.808 178.845 364.808 178.845C364.808 178.845 367.275 182.782 368.721 188.721C367.326 182.341 364.825 177.962 364.825 177.962C364.825 177.962 365.761 163.776 363.277 146.551Z" fill="white"/>
</g>
<path d="M208.276 120.553C198.971 122.301 191.962 129.955 190.976 139.322C189.479 153.627 188.288 181.322 199.804 190.74C215.59 203.654 258.61 199.616 288.99 198.852C319.371 198.071 339.443 196.544 343.713 173.754C347.983 150.963 339.988 124.575 337.164 122.539C334.323 120.502 301.816 120.944 268.884 120.91C246.906 120.876 223.704 117.685 208.276 120.57V120.553Z" fill="#EDBC9A"/>
<path d="M217.768 241.361C189.599 235.71 171.942 226.122 165.274 212.886C160.766 203.909 161.276 193.32 166.822 181.407C166.447 178.573 164.917 165.303 166.754 148.35C168.642 130.973 174.595 106.451 192.32 88.1917C201.676 78.5529 215.659 70.5431 231.7 65.6558C248.183 60.6328 265.823 59.0206 282.731 60.9722C313.758 64.5867 338.849 79.9614 353.393 104.347C367.562 129.921 366.763 172.854 366.61 178.369C368.175 181.084 375.03 194.321 369.314 208.694C363.854 222.389 348.851 232.52 324.679 238.799C324.662 238.799 324.628 238.799 324.611 238.799C324.203 238.884 294.979 245.162 260.413 245.162C246.55 245.162 231.836 244.161 217.785 241.327L217.768 241.361ZM365.963 207.439C371.594 193.337 363.361 179.914 363.276 179.778C363.089 179.472 362.987 179.116 363.004 178.76C363.021 178.301 364.62 131.974 350.28 106.112C336.331 82.7614 312.193 67.9807 282.289 64.5019C249.459 60.6837 213.498 71.4425 194.855 90.6524C162.263 124.253 170.326 180.847 170.411 181.407C170.462 181.763 170.411 182.12 170.258 182.425C165.002 193.489 164.389 203.196 168.438 211.274C174.578 223.492 191.402 232.435 218.449 237.865C266.367 247.47 322.161 235.693 323.777 235.354C346.742 229.381 360.928 219.979 365.946 207.422L365.963 207.439Z" fill="#0F0F14"/>
<path d="M198.684 192.098C186.675 182.273 187.593 154.697 189.226 139.135C190.281 129.038 197.987 120.672 207.972 118.805C218.161 116.905 231.514 117.584 245.65 118.313C253.288 118.704 261.198 119.111 268.903 119.128C274.449 119.128 279.994 119.128 285.369 119.128C321.67 119.094 335.618 119.247 338.204 121.096C341.912 123.761 349.805 150.929 345.468 174.076C340.756 199.293 316.788 199.904 289.044 200.617C284.553 200.736 279.841 200.922 274.84 201.109C265.807 201.465 256.418 201.822 247.334 201.822C227.058 201.822 208.312 199.989 198.667 192.098H198.684ZM285.369 122.658C279.977 122.658 274.432 122.658 268.886 122.658C261.079 122.658 253.135 122.233 245.446 121.843C231.531 121.13 218.382 120.452 208.618 122.284C200.181 123.862 193.649 130.939 192.764 139.492C191.523 151.455 189.822 180.236 200.946 189.349C213.857 199.921 247.606 198.614 274.721 197.545C279.722 197.342 284.451 197.172 288.976 197.053C319.237 196.273 338 194.728 341.98 173.414C346.165 151.082 338.357 126.153 336.146 123.981C333.22 122.607 307.806 122.641 285.369 122.658Z" fill="#0F0F14"/>
<path d="M362.816 126.34C362.816 126.34 256.518 142.835 171.737 130.515C171.737 130.515 165.546 129.751 167.349 119.484C169.152 109.218 182.386 110.898 182.386 110.898C182.386 110.898 254.085 115.887 279.924 115.14C305.763 114.393 352.457 108.709 355.859 108.776C359.261 108.844 366.899 115.412 362.833 126.357L362.816 126.34Z" fill="#742DD2"/>
<g opacity="0.25">
<path d="M363.771 124.965C363.771 124.965 257.472 141.46 172.692 129.14C172.692 129.14 168.473 128.614 168.014 122.641C167.674 123.404 167.402 124.253 167.232 125.203C165.428 135.487 171.62 136.233 171.62 136.233C256.4 148.554 361.015 132.313 361.015 132.313C362.019 129.615 360.42 127.613 360.249 125.475C360.232 125.526 363.788 124.915 363.771 124.965Z" fill="#0F0F14"/>
</g>
<path d="M171.518 132.262C171.246 132.228 168.881 131.872 167.095 129.479C165.326 127.087 164.816 123.625 165.598 119.162C167.248 109.743 177.387 108.471 182.558 109.116C184.786 109.268 254.699 114.071 279.875 113.341C297.464 112.832 325.021 109.998 341.47 108.318C350.417 107.402 354.772 106.943 355.878 106.977C358.293 107.028 361.253 108.997 363.226 111.882C364.893 114.308 367.258 119.501 364.485 126.951C364.264 127.562 363.719 127.986 363.09 128.088C362.308 128.207 305.85 136.81 242.775 136.81C219.079 136.81 194.465 135.588 171.518 132.262ZM360.283 113.884C358.735 111.627 356.694 110.541 355.81 110.524C354.806 110.524 348.801 111.135 341.827 111.848C325.327 113.545 297.702 116.379 279.96 116.888C254.325 117.634 182.966 112.696 182.252 112.645C182.218 112.645 182.184 112.645 182.15 112.645C181.673 112.594 170.565 111.305 169.085 119.79C168.49 123.15 168.779 125.746 169.885 127.307C170.77 128.546 171.926 128.75 171.977 128.767C251.025 140.255 350.145 126.425 361.474 124.762C363.158 119.331 361.474 115.666 360.283 113.901V113.884Z" fill="#0F0F14"/>
<path d="M316.99 183.528C318.35 181.271 318.997 178.59 318.691 175.773L317.704 166.643C317.347 163.334 315.714 160.466 313.349 158.464C311.937 157.259 291.508 165.371 291.508 168.137C291.508 168.578 291.525 169.002 291.576 169.443L292.562 178.573C292.835 181.136 293.872 183.427 295.42 185.259C295.948 185.87 316.377 184.496 316.973 183.511L316.99 183.528Z" fill="#0F0F14"/>
<path d="M300.327 176.65C303.008 176.363 304.91 173.614 304.576 170.511C304.241 167.408 301.797 165.125 299.116 165.413C296.435 165.701 294.533 168.45 294.868 171.553C295.202 174.656 297.647 176.938 300.327 176.65Z" fill="white"/>
<g opacity="0.4">
<path d="M313.923 177.212C314.324 175.295 313.448 173.491 311.967 173.183C310.487 172.875 308.962 174.18 308.561 176.098C308.161 178.015 309.036 179.819 310.517 180.127C311.998 180.435 313.523 179.13 313.923 177.212Z" fill="white"/>
</g>
<path d="M231.801 189.587C239.014 188.806 244.236 182.357 243.453 175.162L242.603 167.288C241.82 160.093 235.356 154.883 228.144 155.664C220.931 156.444 215.709 162.893 216.492 170.088L217.342 177.962C218.125 185.157 224.589 190.367 231.801 189.587Z" fill="#0F0F14"/>
<path d="M225.698 174.194C228.379 173.906 230.269 171.044 229.919 167.801C229.57 164.559 227.113 162.163 224.432 162.451C221.751 162.738 219.862 165.6 220.211 168.843C220.561 172.086 223.018 174.482 225.698 174.194Z" fill="white"/>
<g opacity="0.4">
<path d="M237.452 177.941C237.969 175.964 237.203 174.052 235.739 173.671C234.276 173.29 232.67 174.583 232.152 176.56C231.634 178.537 232.401 180.448 233.865 180.83C235.328 181.211 236.934 179.918 237.452 177.941Z" fill="white"/>
</g>
<path d="M283.989 163.182C280.23 167.051 283.802 173.397 289.024 172.311C293.396 170.886 297.359 168.883 301.51 167.085C304.895 165.523 308.212 163.86 311.461 162.045C314.71 160.229 317.959 158.43 320.238 154.748C315.918 154.442 312.567 156.003 309.182 157.514C305.797 159.007 302.48 160.653 299.197 162.333L294.28 164.845C292.154 165.88 290.028 166.983 287.868 167.713C287.817 167.713 287.817 167.713 287.834 167.713C287.851 167.713 287.919 167.73 287.885 167.662C287.17 165.88 285.826 164.573 283.989 163.182Z" fill="#0F0F14"/>
<path d="M320.308 183.528C312.194 180.83 301.222 181.407 293.636 185.446C293.074 185.751 293.363 186.651 293.993 186.566C296.221 186.311 298.364 186.057 300.525 185.887C304.862 185.548 309.183 185.463 313.538 185.259C315.732 185.14 317.944 185.005 320.172 184.699C320.784 184.631 320.886 183.715 320.308 183.528Z" fill="#0F0F14"/>
<path d="M247.162 152.066C240.97 144.973 229.59 142.869 221.221 147.196C220.031 147.807 218.925 148.571 217.921 149.419C217.581 149.708 217.547 150.217 217.836 150.556C218.04 150.811 218.381 150.895 218.67 150.811C223.331 149.589 227.838 149.097 232.533 149.758C237.211 150.403 241.651 151.88 246.227 153.339C246.992 153.662 247.707 152.711 247.179 152.066H247.162Z" fill="#0F0F14"/>
<path d="M243.082 327.432C243.082 327.432 253.169 312.329 249.019 300.043C244.851 287.774 224.609 278.712 208.125 288.52C191.659 298.346 193.173 323.648 193.173 323.648C193.173 323.648 212.735 327.806 243.082 327.432Z" fill="#3E4049"/>
<g opacity="0.4">
<path d="M204.961 290.794C204.961 290.794 219.063 284.855 231.633 289.012C244.204 293.17 250.243 304.727 246.841 320.288C246.841 320.288 253.271 306.203 246.994 296.004C240.717 285.805 227.177 283.735 219.539 284.617C211.901 285.5 204.961 290.794 204.961 290.794Z" fill="white"/>
</g>
<g opacity="0.25">
<path d="M256.212 344.062C256.212 344.062 250.514 346.896 245.598 344.062V342.993C245.598 342.993 242.179 346.252 237.552 344.826C237.552 344.826 233.367 347.287 229.965 344.826C229.965 344.826 225.985 347.287 222.157 344.826C222.157 344.826 218.041 347.456 214.792 345.386C214.792 345.386 204.619 344.758 202.255 342.993C199.89 341.229 203.02 325.243 203.02 325.243L219.095 326.685L234.235 327.466L240.12 327.245L243.063 321.068C243.063 321.068 206.405 320.254 206.218 294.29C206.218 294.29 195.74 299.992 193.648 314.348C193.648 314.348 193.137 320.305 193.12 320.627C193.103 320.95 193.069 323.818 192.848 324.394C192.627 324.971 191.13 329.74 190.28 336.443C189.429 343.146 188.749 346.303 190.705 347.864C192.644 349.425 199.04 349.272 199.04 349.272C199.04 349.272 233.027 349.544 241.192 349.204C249.34 348.865 255.072 348.576 255.072 348.576C255.072 348.576 256.654 345.997 256.212 344.046V344.062Z" fill="#0F0F14"/>
</g>
<path d="M217.259 351.444C208.89 351.444 200.299 351.241 192.866 350.681C189.872 350.443 187.592 347.83 187.746 344.843C188.069 339.209 188.953 329.044 191.352 323.325C191.216 319.745 191.012 296.666 207.189 287.01C215.405 282.123 225.39 281.24 234.575 284.634C242.485 287.536 248.49 293.085 250.667 299.483C254.376 310.411 247.776 323.037 245.36 327.11C247.98 329.468 254.376 335.442 256.604 339.413C259.785 345.064 256.604 349.459 256.485 349.646C256.179 350.07 255.685 350.341 255.158 350.358C254.903 350.358 236.634 351.444 217.242 351.444H217.259ZM223.297 286.144C218.296 286.144 213.38 287.468 209.043 290.048C193.716 299.194 194.941 323.308 194.958 323.546C194.958 323.834 194.924 324.123 194.805 324.377C193.121 328.111 191.862 335.628 191.335 345.03C191.267 346.099 192.1 347.032 193.172 347.117C215.354 348.831 247.997 347.185 254.018 346.846C254.461 345.827 255.005 343.706 253.542 341.127C251.076 336.732 242.026 328.841 241.941 328.756C241.261 328.179 241.141 327.178 241.635 326.431C241.737 326.295 251.195 311.888 247.367 300.603C245.564 295.291 240.223 290.438 233.419 287.943C230.119 286.738 226.717 286.128 223.349 286.128L223.297 286.144Z" fill="#0F0F14"/>
<path d="M267.901 306.084C267.901 306.084 258.086 330.656 258.086 338.666L271.014 338.004L280.931 307.781" fill="#742DD2"/>
<g opacity="0.25">
<path d="M275.811 307.119L267.646 332.031L259.039 332.472C258.443 334.95 258.086 337.122 258.086 338.666L271.014 338.004L280.931 307.781L275.828 307.119H275.811Z" fill="#0F0F14"/>
</g>
<path d="M258.067 340.448C257.608 340.448 257.166 340.278 256.843 339.956C256.485 339.616 256.281 339.158 256.281 338.666C256.281 330.419 265.824 306.44 266.232 305.422C266.59 304.506 267.627 304.065 268.546 304.438C269.464 304.794 269.907 305.829 269.532 306.746C269.447 306.966 261.163 327.754 259.973 336.799L269.668 336.307L279.194 307.238C279.501 306.305 280.504 305.796 281.44 306.101C282.375 306.406 282.886 307.408 282.579 308.341L272.662 338.564C272.441 339.26 271.795 339.752 271.063 339.786L258.135 340.448C258.135 340.448 258.067 340.448 258.05 340.448H258.067Z" fill="#0F0F14"/>
<path d="M287.667 304.591C287.667 304.591 297.482 329.163 297.482 337.173L284.554 336.511L274.637 306.288" fill="#742DD2"/>
<g opacity="0.25">
<path d="M279.757 305.626L287.922 330.538L296.529 330.979C297.125 333.456 297.482 335.629 297.482 337.173L284.554 336.511L274.637 306.288L279.74 305.626H279.757Z" fill="#0F0F14"/>
</g>
<path d="M297.481 338.955C297.481 338.955 297.413 338.955 297.396 338.955L284.468 338.293C283.737 338.259 283.09 337.767 282.869 337.071L272.952 306.848C272.646 305.915 273.156 304.913 274.092 304.608C275.027 304.302 276.031 304.811 276.337 305.745L285.863 334.814L295.559 335.306C294.368 326.261 286.101 305.49 285.999 305.253C285.642 304.336 286.084 303.301 286.986 302.945C287.904 302.588 288.925 303.03 289.299 303.929C289.707 304.947 299.25 328.926 299.25 337.173C299.25 337.665 299.046 338.123 298.689 338.463C298.366 338.768 297.924 338.955 297.464 338.955H297.481Z" fill="#0F0F14"/>
<path d="M276.117 294.019C276.117 294.019 278.958 286.365 288.994 288.402C299.03 290.438 296.462 305.982 290.984 310.496C285.507 315.01 279.281 310.7 279.281 310.7C279.281 310.7 271.184 314.4 263.631 309.326C256.079 304.252 255.211 291.575 261.913 289.946C268.615 288.317 273.276 291.728 276.117 294.019Z" fill="#742DD2"/>
<g opacity="0.25">
<path d="M257.217 296.089C257.217 296.089 263.749 304.523 271.438 305.253C279.126 305.982 280.64 302.605 280.64 302.605V301.333C280.64 301.333 287.768 306.135 290.949 304.693C294.129 303.25 294.742 301.129 294.742 301.129L295.797 299.296C295.797 299.296 295.473 309.648 289.469 311.548C283.464 313.449 280.385 311.311 280.385 311.311L278.089 310.598C278.089 310.598 269.243 314.094 262.439 308.409C255.635 302.707 257.234 296.089 257.234 296.089H257.217Z" fill="#0F0F14"/>
</g>
<path d="M285.352 314.314C282.885 314.314 280.64 313.517 279.126 312.668C276.626 313.551 269.498 315.367 262.66 310.802C257.047 307.051 254.954 299.822 255.822 294.952C256.451 291.405 258.526 288.962 261.503 288.232C267.882 286.688 272.713 289.301 275.571 291.354C277.629 288.402 282.052 285.194 289.366 286.671C293.347 287.468 296.103 290.2 297.157 294.358C298.637 300.263 296.307 308.443 292.139 311.871C289.945 313.687 287.563 314.331 285.352 314.331V314.314ZM279.296 308.918C279.653 308.918 280.011 309.02 280.317 309.24C280.521 309.376 285.522 312.719 289.86 309.139C292.666 306.814 294.946 300.229 293.687 295.223C292.973 292.389 291.272 290.675 288.652 290.149C280.198 288.435 277.884 294.392 277.799 294.646C277.595 295.189 277.153 295.597 276.609 295.749C276.064 295.902 275.469 295.783 275.027 295.427C271.659 292.712 267.78 290.387 262.354 291.694C260.347 292.186 259.598 294.086 259.326 295.58C258.646 299.415 260.449 305.049 264.65 307.866C271.25 312.295 278.276 309.223 278.582 309.088C278.82 308.986 279.075 308.935 279.313 308.935L279.296 308.918Z" fill="#0F0F14"/>
<path d="M279.297 312.482C278.753 312.482 278.226 312.227 277.868 311.769C277.273 310.988 277.443 309.868 278.226 309.291C279.212 308.562 279.723 307.662 279.859 306.491C280.301 302.605 276.338 297.022 274.773 295.206C274.126 294.46 274.228 293.34 274.96 292.712C275.708 292.067 276.831 292.152 277.46 292.898C277.732 293.221 284.077 300.671 283.38 306.882C283.142 309.054 282.121 310.819 280.335 312.142C280.012 312.38 279.638 312.499 279.28 312.499L279.297 312.482Z" fill="#0F0F14"/>
<g opacity="0.4">
<path d="M272.354 295.24C274.583 296.937 275.484 299.093 274.923 299.704C274.362 300.314 272.558 299.16 270.347 297.464C268.119 295.767 266.316 294.188 266.877 293.56C267.438 292.95 270.143 293.543 272.371 295.223L272.354 295.24Z" fill="white"/>
</g>
<g opacity="0.4">
<path d="M288.668 291.677C290.778 292.44 291.951 294.086 291.628 294.85C291.322 295.597 289.655 295.155 287.529 294.392C285.419 293.628 283.65 292.814 283.956 292.05C284.263 291.303 286.542 290.913 288.651 291.677H288.668Z" fill="white"/>
</g>
<path d="M86.7765 152.905L77.0469 158.561L136.141 259.73L145.87 254.074L86.7765 152.905Z" fill="#FFCE31"/>
<path d="M123.444 133.98L106.47 104.92C105.481 103.227 103.304 102.655 101.608 103.641L26.7843 147.138C25.0878 148.124 24.5139 150.295 25.5025 151.988L42.4769 181.048C43.4655 182.741 45.6421 183.313 47.3386 182.327L122.162 138.83C123.859 137.844 124.433 135.673 123.444 133.98Z" fill="#FFCE31"/>
<path d="M143.857 261.793C142.224 262.744 140.115 262.201 139.162 260.555L113.613 216.806C112.66 215.177 113.204 213.073 114.854 212.123C116.487 211.172 118.597 211.715 119.549 213.362L145.099 257.11C146.052 258.739 145.507 260.843 143.857 261.793Z" fill="#FFCE31"/>
<path d="M111.265 195.136L101.773 200.651C100.038 201.669 97.7923 201.075 96.7887 199.344C95.768 197.613 96.3634 195.373 98.0985 194.372L107.59 188.857C109.325 187.839 111.554 188.433 112.574 190.163C113.595 191.894 113 194.117 111.265 195.136Z" fill="#FFCE31"/>
<path d="M142.903 258.28L141.781 256.346L139.876 257.449L105.395 198.428C103.677 199.344 101.534 198.75 100.547 197.053C99.5607 195.356 100.105 193.201 101.738 192.166L80.8492 156.411L77.0898 158.6L98.0468 194.491C96.3967 195.543 95.8524 197.681 96.856 199.378C97.8426 201.075 99.986 201.652 101.704 200.753L136.184 259.774L138.089 258.671L139.212 260.605C140.165 262.234 142.274 262.794 143.907 261.844C144.655 261.403 145.183 260.724 145.421 259.943C144.4 259.808 143.448 259.248 142.886 258.28H142.903Z" fill="#FCB037"/>
<path d="M55.7771 177.42L50.2316 180.644L33.5273 143.208L35.2114 142.224L55.7771 177.42Z" fill="#FCB037"/>
<path d="M109.09 146.433L106.062 148.181L86.8398 112.222L88.5239 111.237L109.09 146.433Z" fill="#FCB037"/>
<path d="M40.5005 138.762L61.3894 174.534C62.41 176.265 61.8147 178.488 60.0796 179.507C58.3445 180.525 56.1161 179.931 55.0955 178.2L34.2066 142.428C33.186 140.697 33.7814 138.474 35.5164 137.455C37.2515 136.437 39.4969 137.031 40.5005 138.762Z" fill="#FFCE31"/>
<path d="M93.813 107.775L114.702 143.548C115.723 145.279 115.127 147.502 113.392 148.52C111.657 149.538 109.429 148.944 108.408 147.213L87.5191 111.441C86.4985 109.71 87.0939 107.487 88.829 106.469C90.564 105.45 92.7924 106.044 93.813 107.775Z" fill="#FFCE31"/>
<path d="M81.8164 115.132L46.543 135.637L67.0973 170.826L102.371 150.321L81.8164 115.132Z" fill="#D1A226"/>
<g style="mix-blend-mode:multiply">
<path d="M61.3927 174.535L61.2226 174.246L85.7517 159.992C62.4134 173.55 29.8383 145.347 29.8383 145.347L25.6027 147.807C24.548 148.418 24.1908 149.776 24.8032 150.845L43.1235 182.205C43.7358 183.257 45.0967 183.614 46.1683 183.003L54.9287 177.912L55.0988 178.2C56.1195 179.931 58.3478 180.525 60.0829 179.507C61.818 178.489 62.4134 176.266 61.3927 174.535Z" fill="#FFE3D1"/>
</g>
<g opacity="0.25">
<path d="M100.006 218.164C100.006 218.164 103.136 220.013 107.134 218.605C111.131 217.196 111.607 215.856 111.675 215.907C111.743 215.958 113.41 217.807 111.318 219.352C109.226 220.913 106.368 221.49 106.368 221.49C106.368 221.49 102.609 221.982 101.163 220.76C99.7169 219.538 99.9891 218.147 99.9891 218.147L100.006 218.164Z" fill="#0F0F14"/>
</g>
<g opacity="0.25">
<path d="M105.465 223.645C105.567 223.645 109.19 224.646 112.218 223.271C115.246 221.88 115.943 220.438 115.943 220.438C115.943 220.438 117.202 222.05 115.943 223.577C114.685 225.121 112.473 225.953 111.18 226.088C109.888 226.224 107.642 226.139 107.455 226.004C107.268 225.868 105.788 224.833 105.652 224.595C105.533 224.341 105.465 223.645 105.465 223.645Z" fill="#0F0F14"/>
</g>
<path d="M118.394 229.941C118.07 229.941 117.73 229.856 117.441 229.669C116.607 229.143 116.369 228.04 116.897 227.226C117.441 226.36 117.9 225.003 117.679 224.544C117.594 224.392 117.169 224.205 116.42 224.154C115.927 224.12 115.468 223.883 115.162 223.492C114.855 223.102 114.719 222.61 114.787 222.118C114.787 222.118 114.906 221.066 114.362 220.489C113.903 219.979 112.984 219.912 112.287 219.946C111.759 219.963 111.249 219.742 110.892 219.352C110.535 218.961 110.382 218.418 110.467 217.892C110.518 217.519 110.569 216.263 110.041 215.567C109.888 215.381 109.616 215.109 108.953 215.024C108.034 214.906 107.371 214.108 107.422 213.192C107.473 211.8 107.082 209.933 106.486 209.628C105.551 209.153 103.816 209.713 103.135 210.069C102.523 210.375 101.774 210.324 101.23 209.899L99.9372 208.898L97.0114 209.543C96.0418 209.764 95.1062 209.153 94.8851 208.202C94.6639 207.252 95.2763 206.302 96.2289 206.081L99.9712 205.25C100.482 205.131 101.026 205.25 101.451 205.572L102.591 206.455C103.901 205.979 106.163 205.47 108.119 206.472C110.246 207.575 110.807 210.205 110.943 211.936C111.725 212.275 112.389 212.801 112.899 213.48C113.631 214.464 113.92 215.601 114.022 216.552C115.536 216.84 116.471 217.536 117.033 218.164C117.832 219.046 118.155 220.081 118.291 220.93C119.754 221.388 120.503 222.253 120.877 222.983C122.136 225.478 120.299 228.566 119.925 229.16C119.584 229.686 119.006 229.975 118.428 229.975L118.394 229.941Z" fill="#0F0F14"/>
<path d="M104.769 223.679C104.224 223.679 103.884 223.645 103.816 223.645C102.847 223.543 102.132 222.661 102.251 221.677C102.353 220.709 103.238 219.997 104.207 220.115C104.412 220.132 108.732 220.54 110.688 217.264C111.199 216.416 112.287 216.144 113.121 216.654C113.971 217.163 114.244 218.249 113.75 219.08C111.284 223.221 106.742 223.696 104.769 223.696V223.679Z" fill="#0F0F14"/>
<path d="M109.498 228.278C108.647 228.278 107.899 227.684 107.746 226.818C107.576 225.851 108.222 224.935 109.175 224.765C110.757 224.476 114.21 223.356 114.873 221.727C115.231 220.811 116.268 220.37 117.187 220.743C118.105 221.099 118.548 222.135 118.173 223.051C116.608 226.937 110.502 228.142 109.804 228.261C109.702 228.278 109.6 228.295 109.481 228.295L109.498 228.278Z" fill="#0F0F14"/>
<path d="M101.18 217.672C99.4786 217.672 98.2709 217.451 98.1518 217.434C97.1822 217.248 96.5528 216.314 96.7399 215.364C96.9271 214.397 97.8456 213.769 98.8152 213.955C98.8152 213.955 104.735 215.007 107.984 211.97C108.698 211.291 109.821 211.342 110.501 212.055C111.165 212.767 111.131 213.887 110.416 214.566C107.627 217.163 103.816 217.689 101.18 217.689V217.672Z" fill="#0F0F14"/>
<path d="M109.6 194.508C108.307 196.052 107.524 198.258 108.222 200.21C109.242 202.518 110.535 204.775 111.947 206.862C112.746 208.016 113.614 209.204 114.72 209.899C115.298 210.239 115.706 210.12 116.285 209.747C116.642 209.509 116.999 209.102 117.254 208.779C117.679 208.253 118.462 208.168 118.989 208.593C121.15 210.833 123.786 212.869 126.916 213.548C127.001 213.548 127.052 213.65 127.035 213.735C125.453 214.481 123.344 213.989 121.728 213.378C120.044 212.682 118.632 211.732 117.288 210.476L119.295 210.273C114.924 216.653 109.974 210.086 107.388 205.979C106.316 204.215 105.126 202.45 104.564 200.43C103.867 197.393 104.973 194.287 107.031 192.047C108.715 190.384 111.198 192.777 109.6 194.508Z" fill="#0F0F14"/>
<path d="M116.846 209.017C117.101 207.931 117.22 206.743 117.22 205.555C117.288 204.13 116.778 202.755 117.339 201.33C117.374 201.245 117.459 201.211 117.544 201.245C118.377 201.686 118.819 202.348 119.109 203.061C119.721 204.486 120.095 206.03 120.078 207.626C120.061 208.508 119.942 209.373 119.568 210.205C118.734 211.97 116.115 210.833 116.846 209.017Z" fill="#0F0F14"/>
<g opacity="0.3">
<path d="M253.868 176.452C253.868 176.452 247.523 189.654 238.133 194.813C226.855 201.024 206.068 201.754 197.665 193.133C189.279 184.495 190.13 163.249 190.13 163.249C189.721 155.273 195.794 141.019 219.745 142.444C243.696 143.87 255.348 147.773 257.916 154.187C260.485 160.602 253.834 176.452 253.834 176.452H253.868Z" fill="#B8C1E0"/>
</g>
<path d="M216.851 200.583C208.89 200.464 201.303 198.376 196.898 193.846C188.29 184.987 189.039 164.064 189.073 163.181C189.09 162.587 189.6 162.129 190.179 162.163C190.774 162.18 191.216 162.689 191.199 163.266C191.199 163.47 190.451 184.156 198.429 192.352C206.288 200.447 226.547 199.938 237.604 193.846C246.585 188.907 252.828 176.095 252.896 175.959C253.151 175.433 253.781 175.213 254.325 175.467C254.852 175.722 255.074 176.35 254.818 176.893C254.546 177.436 248.218 190.452 238.641 195.729C232.807 198.936 224.659 200.701 216.851 200.583Z" fill="black"/>
<g opacity="0.3">
<path d="M281.151 176.876C281.151 176.876 287.088 190.265 296.307 195.712C307.398 202.263 328.151 203.637 336.792 195.271C345.451 186.905 345.247 165.642 345.247 165.642C345.91 157.683 340.262 143.242 316.278 143.937C292.293 144.633 280.522 148.163 277.766 154.51C275.01 160.839 281.151 176.876 281.151 176.876Z" fill="#B8C1E0"/>
</g>
<path d="M351.983 154.221L350.554 148.502C350.418 147.976 350.009 147.569 349.465 147.45C346.165 146.704 334.241 143.988 326.977 142.512C318.489 140.781 298.247 140.476 288.057 144.565C279.059 148.18 270.128 148.061 268.172 147.993C268.172 147.993 268.104 147.993 267.968 147.993C267.832 147.993 267.764 147.993 267.764 147.993C265.791 148.027 256.86 147.858 247.981 143.971C237.927 139.559 217.685 139.254 209.146 140.713C201.95 141.952 190.196 144.243 186.675 144.922C186.045 145.041 185.535 145.516 185.348 146.144L183.851 151.421C183.613 152.253 184.038 153.135 184.838 153.475C189.022 155.239 189.022 161.162 188.75 164.149C188.665 164.997 189.243 165.795 190.094 165.913C190.978 166.032 191.761 165.438 191.897 164.59C192.254 162.265 193.241 157.344 195.656 152.728C198.956 146.398 211.782 143.411 227.755 143.666C243.728 143.921 253.203 152.032 255.21 159.499C256.758 165.235 253.237 173.414 251.519 176.893C250.804 178.352 252.063 180.083 253.662 179.727C253.713 179.727 253.781 179.693 253.832 179.676C255.431 179.167 260.432 166.49 262.099 162.265C263.766 158.039 266.301 158.413 268.087 158.43C269.754 158.43 271.88 158.158 273.411 162.435C274.942 166.711 279.535 179.54 281.134 180.083C281.185 180.1 281.253 180.117 281.304 180.134C282.886 180.541 284.196 178.861 283.532 177.368C281.933 173.838 278.667 165.557 280.386 159.872C282.631 152.473 292.344 144.65 308.317 144.888C324.29 145.142 337.03 148.519 340.126 154.951C342.389 159.635 343.222 164.59 343.511 166.915C343.613 167.695 344.26 168.289 345.059 168.306C345.978 168.306 346.726 167.543 346.658 166.626C346.454 163.606 346.658 157.496 351.064 155.969C351.779 155.715 352.187 154.985 352 154.255L351.983 154.221Z" fill="black"/>
<path d="M317.401 202.144C309.593 202.025 301.496 200.006 295.764 196.612C286.357 191.046 280.42 177.86 280.182 177.3C279.944 176.757 280.182 176.129 280.726 175.892C281.271 175.654 281.9 175.892 282.138 176.435C282.189 176.57 288.041 189.569 296.869 194.779C307.739 201.211 327.964 202.331 336.078 194.491C344.312 186.532 344.209 165.845 344.209 165.642C344.209 165.048 344.669 164.573 345.264 164.573C345.264 164.573 345.281 164.573 345.298 164.573C345.876 164.573 346.336 165.048 346.353 165.625C346.353 166.507 346.455 187.448 337.575 196.035C333.034 200.413 325.379 202.28 317.435 202.144H317.401Z" fill="black"/>
<g opacity="0.39">
<path d="M207.547 148.367C207.547 148.367 235.869 143.836 246.603 153.186C257.337 162.536 245.31 178.641 245.31 178.641C245.31 178.641 247.215 163.3 236.431 157.106C225.646 150.912 207.564 148.367 207.564 148.367H207.547Z" fill="white"/>
</g>
<g opacity="0.39">
<path d="M296.973 148.248C296.973 148.248 323.016 143.835 335.28 154.56C345.997 163.945 337.083 181.712 337.083 181.712C337.083 181.712 335.042 165.913 325.091 158.463C313.813 150.046 296.973 148.231 296.973 148.231V148.248Z" fill="white"/>
</g>
</g>
</svg>
