<svg width="15" height="26" viewBox="0 0 15 26" fill="none" xmlns="http://www.w3.org/2000/svg">
<path d="M0.986531 1.44726C0.643741 1.79972 0.451173 2.27769 0.451173 2.77606C0.451173 3.27443 0.643741 3.7524 0.986531 4.10486L10.0376 13.4083L0.98653 22.7118C0.653455 23.0663 0.469154 23.541 0.47332 24.0338C0.477486 24.5266 0.669787 24.998 1.0088 25.3465C1.34782 25.695 1.80643 25.8926 2.28586 25.8969C2.76528 25.9012 3.22716 25.7117 3.57202 25.3694L13.9158 14.7371C14.2586 14.3847 14.4512 13.9067 14.4512 13.4083C14.4512 12.9099 14.2586 12.432 13.9158 12.0795L3.57202 1.44726C3.22913 1.09491 2.76413 0.896972 2.27928 0.896972C1.79443 0.896972 1.32942 1.09491 0.986531 1.44726Z" fill="white"/>
</svg>
