<svg width="26" height="25" viewBox="0 0 26 25" fill="none" xmlns="http://www.w3.org/2000/svg">
<path d="M23.4651 0.481091C23.0245 0.235446 22.5398 0.0792312 22.0388 0.0213799C21.5378 -0.0364713 21.0304 0.00517555 20.5455 0.143939C20.0606 0.282703 19.6078 0.515862 19.2129 0.830082C18.8181 1.1443 18.4889 1.53342 18.2442 1.97518L11.1174 14.824L7.03859 10.7378C6.68447 10.3705 6.26087 10.0775 5.79252 9.87597C5.32416 9.67442 4.82042 9.56833 4.3107 9.56389C3.80098 9.55945 3.29548 9.65676 2.8237 9.85013C2.35191 10.0435 1.9233 10.3291 1.56285 10.6902C1.20241 11.0512 0.917365 11.4806 0.724344 11.9533C0.531322 12.4259 0.434192 12.9323 0.438622 13.443C0.443051 13.9536 0.548951 14.4582 0.750142 14.9274C0.951333 15.3966 1.24379 15.821 1.61044 16.1758L9.28817 23.8674C10.0137 24.5961 10.9926 24.9961 12.0023 24.9961L12.5339 24.9576C13.1223 24.8752 13.6836 24.657 14.1736 24.3203C14.6635 23.9837 15.0688 23.5377 15.3574 23.0174L24.9546 5.71137C25.1996 5.26997 25.3555 4.78454 25.4132 4.28281C25.471 3.78108 25.4295 3.27286 25.2912 2.78718C25.1529 2.3015 24.9204 1.84786 24.6071 1.45218C24.2938 1.0565 23.9057 0.726526 23.4651 0.481091Z" fill="white"/>
</svg>
