<svg width="33" height="33" viewBox="0 0 33 33" fill="none" xmlns="http://www.w3.org/2000/svg">
<path d="M30.4299 0.627382C29.856 0.308014 29.2247 0.104915 28.5722 0.0297013C27.9197 -0.0455124 27.2588 0.00863363 26.6273 0.189044C25.9957 0.369454 25.4059 0.672589 24.8916 1.08111C24.3773 1.48964 23.9486 1.99554 23.6299 2.56988L14.3474 19.2749L9.03492 13.9624C8.57368 13.4848 8.02196 13.1039 7.41194 12.8419C6.80192 12.5798 6.14582 12.4419 5.48192 12.4361C4.81803 12.4304 4.15963 12.5569 3.54515 12.8083C2.93067 13.0597 2.37241 13.4309 1.90294 13.9004C1.43348 14.3699 1.06221 14.9281 0.810809 15.5426C0.559405 16.1571 0.432896 16.8155 0.438665 17.4794C0.444434 18.1433 0.582366 18.7994 0.844411 19.4094C1.10646 20.0194 1.48737 20.5711 1.96492 21.0324L11.9649 31.0324C12.9099 31.9799 14.1849 32.4999 15.4999 32.4999L16.1924 32.4499C16.9588 32.3427 17.6898 32.059 18.328 31.6213C18.9661 31.1836 19.4939 30.6037 19.8699 29.9274L32.3699 7.42738C32.6891 6.85351 32.892 6.2224 32.9672 5.57008C33.0425 4.91776 32.9885 4.25702 32.8083 3.62557C32.6282 2.99413 32.3254 2.40435 31.9173 1.88992C31.5092 1.37549 31.0038 0.946477 30.4299 0.627382Z" fill="#7E58FF"/>
</svg>
