<svg width="36" height="36" viewBox="0 0 36 36" fill="none" xmlns="http://www.w3.org/2000/svg">
<g clip-path="url(#clip0_378_1970)">
<path d="M9 10.499H21V13.499H9V10.499ZM9 16.499H27V19.499H9V16.499ZM9 22.499H13.485V25.499H9V22.499Z" fill="#7E58FF"/>
<path d="M21 4.49902L16.5 -0.000976562V2.99902H6C5.20435 2.99902 4.44129 3.31509 3.87868 3.8777C3.31607 4.44031 3 5.20337 3 5.99902V29.999C3 30.7947 3.31607 31.5577 3.87868 32.1203C4.44129 32.683 5.20435 32.999 6 32.999H12V29.999H6V5.99902H16.5V8.99902L21 4.49902ZM15 31.499L19.5 35.999V32.999H30C30.7956 32.999 31.5587 32.683 32.1213 32.1203C32.6839 31.5577 33 30.7947 33 29.999V5.99902C33 5.20337 32.6839 4.44031 32.1213 3.8777C31.5587 3.31509 30.7956 2.99902 30 2.99902H24V5.99902H30V29.999H19.5V26.999L15 31.499Z" fill="#7E58FF"/>
</g>
<defs>
<clipPath id="clip0_378_1970">
<rect width="36" height="36" fill="white"/>
</clipPath>
</defs>
</svg>
