<svg width="32" height="32" viewBox="0 0 32 32" fill="none" xmlns="http://www.w3.org/2000/svg">
<g clip-path="url(#clip0_378_736)">
<path d="M8.63867 9.91992H18.8852V12.4815H8.63867V9.91992ZM8.63867 15.0432H24.0084V17.6048H8.63867V15.0432ZM8.63867 20.1664H12.4683V22.728H8.63867V20.1664Z" fill="#B1B1B1"/>
<path d="M18.8853 4.79665L15.0429 0.954224V3.51584H6.07724C5.39786 3.51584 4.7463 3.78573 4.26591 4.26612C3.78551 4.74652 3.51563 5.39808 3.51562 6.07746V26.5704C3.51563 27.2498 3.78551 27.9014 4.26591 28.3818C4.7463 28.8622 5.39786 29.132 6.07724 29.132H11.2005V26.5704H6.07724V6.07746H15.0429V8.63908L18.8853 4.79665ZM13.7621 27.8512L17.6045 31.6937V29.132H26.5702C27.2496 29.132 27.9011 28.8622 28.3815 28.3818C28.8619 27.9014 29.1318 27.2498 29.1318 26.5704V6.07746C29.1318 5.39808 28.8619 4.74652 28.3815 4.26612C27.9011 3.78573 27.2496 3.51584 26.5702 3.51584H21.447V6.07746H26.5702V26.5704H17.6045V24.0088L13.7621 27.8512Z" fill="#B1B1B1"/>
</g>
<defs>
<clipPath id="clip0_378_736">
<rect width="30.7394" height="30.7394" fill="white" transform="translate(0.954102 0.953125)"/>
</clipPath>
</defs>
</svg>
