<svg width="52" height="44" viewBox="0 0 52 44" fill="none" xmlns="http://www.w3.org/2000/svg">
<path d="M30.6641 39.6663H6.16406C5.2358 39.6663 4.34557 39.2976 3.68919 38.6412C3.03281 37.9848 2.66406 37.0946 2.66406 36.1663V5.83301C2.66406 4.90475 3.03281 4.01451 3.68919 3.35813C4.34557 2.70176 5.2358 2.33301 6.16406 2.33301H45.8307C46.759 2.33301 47.6492 2.70176 48.3056 3.35813C48.962 4.01451 49.3307 4.90475 49.3307 5.83301V19.9018M43.4974 40.833V26.833M43.4974 26.833L37.6641 32.6663M43.4974 26.833L49.3307 32.6663" stroke="#7E58FF" stroke-width="4.66667" stroke-linecap="round" stroke-linejoin="round"/>
<path d="M2.66406 5.83301C2.66406 4.90475 3.03281 4.01451 3.68919 3.35813C4.34557 2.70176 5.2358 2.33301 6.16406 2.33301H45.8307C46.759 2.33301 47.6492 2.70176 48.3056 3.35813C48.962 4.01451 49.3307 4.90475 49.3307 5.83301V16.333H2.66406V5.83301Z" stroke="#7E58FF" stroke-width="4.66667"/>
<path d="M7.33333 9.33268C7.33333 8.04402 8.378 6.99935 9.66667 6.99935C10.9553 6.99935 12 8.04402 12 9.33268C12 10.6213 10.9553 11.666 9.66667 11.666C8.378 11.666 7.33333 10.6213 7.33333 9.33268Z" fill="#7E58FF"/>
<path d="M14.3333 9.33268C14.3333 8.04402 15.378 6.99935 16.6667 6.99935C17.9553 6.99935 19 8.04402 19 9.33268C19 10.6213 17.9553 11.666 16.6667 11.666C15.378 11.666 14.3333 10.6213 14.3333 9.33268Z" fill="#7E58FF"/>
</svg>
