<svg width="282" height="253" viewBox="0 0 282 253" fill="none" xmlns="http://www.w3.org/2000/svg">
<g clip-path="url(#clip0_384_564)">
<path d="M6.4767 183.046L99.9679 22.9905C111.843 29.9821 171.728 63.1229 181.399 69.4259L87.9075 229.49C77.683 242.998 -6.4769 203.544 6.4767 183.037V183.046Z" fill="#F1F2F2"/>
<path d="M275.092 183.042L181.601 22.9965C168.53 1.24513 140.381 -6.65947 117.261 6.18743C94.1396 19.0343 87.0996 46.7081 100.17 69.4308L193.661 229.496C206.731 251.238 234.881 259.141 258.002 246.295C280.112 233.447 288.162 204.792 275.092 183.061V183.042Z" fill="#EAECEE"/>
<path d="M46.9304 252.481C72.8493 252.481 93.8608 231.992 93.8608 206.717C93.8608 181.442 72.8493 160.952 46.9304 160.952C21.0115 160.952 0 181.442 0 206.717C0 231.992 21.0115 252.481 46.9304 252.481Z" fill="#EAECEE"/>
</g>
<defs>
<clipPath id="clip0_384_564">
<rect width="281.6" height="253" fill="white"/>
</clipPath>
</defs>
</svg>
