<svg width="174" height="180" viewBox="0 0 174 180" fill="none" xmlns="http://www.w3.org/2000/svg">
<g clip-path="url(#clip0_1213_9292)">
<g opacity="0.25">
<path d="M83.8382 179.045C49.0563 179.045 20.86 177.137 20.86 174.782C20.86 172.428 49.0563 170.52 83.8382 170.52C118.62 170.52 146.816 172.428 146.816 174.782C146.816 177.137 118.62 179.045 83.8382 179.045Z" fill="#0F0F14"/>
</g>
<path d="M137.674 39.4129C137.674 39.4129 141.069 44.6273 152.698 48.342C164.335 52.0568 170.811 47.0708 171.998 45.5027C173.186 43.9422 173.346 37.5403 171.648 36.6269C169.959 35.721 163.558 39.2835 158.193 38.9181C152.82 38.5527 141.7 29.6084 141.7 29.6084" fill="#742DD2"/>
<path d="M160.719 50.5128C167.478 50.5128 171.549 47.4832 172.66 46.014C173.733 44.5981 173.992 40.6626 173.482 38.3485C173.208 37.0925 172.721 36.2704 172.044 35.905C170.963 35.3265 169.159 35.8669 166.663 36.6053C164.144 37.3589 161.001 38.2876 158.246 38.0973C153.2 37.7548 142.332 29.054 142.218 28.9703C141.86 28.681 141.335 28.7419 141.046 29.0997C140.757 29.4575 140.817 29.9827 141.175 30.272C141.639 30.645 152.568 39.3838 158.132 39.7644C161.184 39.9699 164.487 38.9879 167.135 38.2039C168.756 37.7243 170.773 37.1229 171.252 37.3742C171.382 37.4427 171.656 37.8004 171.854 38.7063C172.333 40.9138 171.96 44.1795 171.336 45.0092C171.283 45.0777 165.636 51.6014 152.949 47.5517C141.807 43.9968 138.397 39.0108 138.367 38.9575C138.116 38.5769 137.598 38.4703 137.218 38.7215C136.837 38.9727 136.723 39.4827 136.974 39.871C137.119 40.0917 140.665 45.3822 152.446 49.1426C155.536 50.1322 158.299 50.5204 160.719 50.5204V50.5128Z" fill="#0F0F14"/>
<path d="M142.249 36.8499C142.249 36.8499 146.457 31.1027 154.822 29.3366C163.186 27.563 169.586 15.6118 169.366 13.5946C169.145 11.5773 164.875 6.10417 160.362 5.90625C160.362 5.90625 157.386 17.5073 150.636 19.6996C143.885 21.8995 138.299 22.9119 135.08 29.8543C135.08 29.8543 135.247 34.9697 142.249 36.8499Z" fill="#742DD2"/>
<path d="M142.249 37.68C142.508 37.68 142.759 37.5582 142.919 37.3375C142.957 37.2842 147.067 31.8186 154.997 30.144C163.757 28.2942 170.462 15.9167 170.195 13.4961C169.937 11.1667 165.454 5.28248 160.401 5.06934C159.997 5.06934 159.655 5.31293 159.556 5.69354C159.525 5.80772 156.61 16.8759 150.377 18.9007C149.639 19.1367 148.924 19.3651 148.216 19.5858C142.386 21.4051 137.348 22.9809 134.326 29.4969C134.273 29.6187 134.243 29.7481 134.25 29.8775C134.25 30.1135 134.524 35.6324 142.036 37.6496C142.105 37.6724 142.181 37.68 142.249 37.68ZM160.979 6.80492C164.845 7.44434 168.369 12.1487 168.536 13.6864C168.704 15.3306 162.501 26.8555 154.647 28.5226C147.371 30.0602 143.162 34.4525 141.945 35.8988C136.792 34.3078 136.039 30.8519 135.932 30.0069C138.657 24.3282 143.102 22.9352 148.718 21.1844C149.434 20.9636 150.157 20.7353 150.902 20.4917C157.09 18.4744 160.203 9.42352 160.979 6.80492Z" fill="#0F0F14"/>
<path d="M61.2273 90.241C61.2273 90.241 89.8967 98.1729 115.377 94.4277C140.858 90.6901 148.057 80.2538 142.22 66.0038C142.22 66.0038 148.225 36.6359 131.984 17.9251C115.742 -0.793368 70.4743 -7.89556 50.6942 21.7312C42.4214 35.0297 42.0637 59.2061 42.0637 59.2061C42.0637 59.2061 27.7633 79.5763 61.2197 90.2486L61.2273 90.241Z" fill="#3E4049"/>
<g opacity="0.4">
<path d="M143.629 70.3862C143.583 70.2644 143.538 70.1426 143.484 70.0208C143.484 70.0208 143.492 69.9675 143.515 69.8838C143.553 70.0513 143.591 70.2187 143.629 70.3862Z" fill="white"/>
</g>
<g opacity="0.4">
<path d="M40.5 75.8195C38.4451 71.4653 38.8713 67.2634 39.7998 64.1729C38.9246 67.3776 38.5441 71.6252 40.5 75.8195Z" fill="white"/>
</g>
<g opacity="0.4">
<path d="M43.7305 42.6543C42.1855 51.6443 42.0714 59.2032 42.0714 59.2032C42.0714 59.2032 40.7014 61.1596 39.8034 64.174C40.6862 60.9312 42.0866 58.7541 42.0866 58.7541C42.0866 58.7541 41.9952 51.4388 43.7305 42.6619V42.6543Z" fill="white"/>
</g>
<path d="M117.97 35.0976C122.65 36.3384 125.946 40.5327 126.09 45.3741C126.311 52.7732 125.885 67.0232 119.659 71.4231C111.12 77.4596 89.6808 72.3518 74.2083 70.8141C58.7282 69.2764 48.1723 69.147 46.8556 57.2948C45.5314 45.4426 50.6001 32.1974 52.1222 31.2611C53.6443 30.3172 70.2279 31.7787 87.0247 32.989C98.2428 33.7959 110.207 33.0271 117.97 35.09V35.0976Z" fill="#F2C5A7"/>
<path d="M100.778 96.2542C105.664 96.2542 110.649 95.9649 115.505 95.2494C130.018 93.118 139.28 88.6953 143.032 82.1031C145.582 77.6271 145.605 72.1844 143.093 65.9119C143.352 64.5265 144.517 57.7288 144.029 48.9291C143.542 39.9695 141.16 27.2191 132.621 17.3689C128.116 12.1697 121.197 7.68614 113.145 4.74022C104.873 1.72578 95.9073 0.416484 87.2311 0.964563C71.2944 1.96937 58.0747 9.17813 50.0074 21.2663C42.0467 34.0548 41.3084 56.2064 41.2475 58.9468C40.4104 60.2408 36.4985 66.8711 39.0481 74.4224C41.4606 81.5779 48.843 87.1728 60.982 91.0398C60.9896 91.0398 61.0048 91.0398 61.0124 91.0474C61.2483 91.1083 80.1456 96.2542 100.778 96.2542ZM90.9756 2.50984C106.783 2.50984 122.986 8.81275 131.358 18.465C139.585 27.9422 141.876 40.2892 142.355 48.9824C142.88 58.452 141.419 65.7597 141.404 65.8358C141.373 65.9957 141.389 66.1631 141.449 66.3154C143.854 72.1768 143.892 77.216 141.579 81.281C138.086 87.4012 129.234 91.5498 115.254 93.6051C90.4733 97.2438 62.253 89.6544 61.4614 89.4413C49.8704 85.7417 42.861 80.5121 40.6235 73.9047C38.1043 66.46 42.7012 59.746 42.7468 59.6851C42.8458 59.5481 42.8914 59.3883 42.899 59.2208C42.899 58.9848 43.3481 35.1205 51.4002 22.1722C59.163 10.5483 71.9261 3.59839 87.3301 2.63164C88.5402 2.55551 89.7579 2.51745 90.9756 2.51745V2.50984Z" fill="#0F0F14"/>
<path d="M106.63 75.1368C112.194 75.1368 116.958 74.3527 120.147 72.0995C126.616 67.5246 127.172 53.3735 126.928 45.3426C126.768 40.1587 123.176 35.6066 118.183 34.2821C113.069 32.9271 106.227 32.7749 98.9894 32.615C95.0699 32.5313 91.021 32.4399 87.0863 32.1583C84.2551 31.9527 81.4316 31.7396 78.6765 31.5341C60.5555 30.1791 53.0438 29.7071 51.6815 30.5521C49.6952 31.7777 44.6873 45.3731 46.0268 57.3927C47.3282 69.0927 57.2449 70.0366 70.9593 71.3383C71.9868 71.4373 73.0446 71.5362 74.1254 71.6428C77.611 71.9929 81.3479 72.5106 85.2978 73.0587C92.6725 74.0863 100.184 75.1368 106.623 75.1368H106.63ZM117.757 35.8959C122.042 37.0301 125.124 40.9427 125.261 45.3959C125.452 51.5922 125.231 66.4665 119.18 70.7445C112.848 75.2281 98.3348 73.2033 85.5337 71.4144C81.561 70.8587 77.8089 70.3411 74.2928 69.9833C73.2121 69.8768 72.1542 69.7778 71.1191 69.6788C57.2221 68.3543 48.8428 67.555 47.6859 57.21C46.3997 45.6928 51.3543 32.9956 52.5568 31.9832C54.0561 31.3742 67.0703 32.3486 78.5548 33.2087C81.3022 33.4143 84.1334 33.6274 86.9645 33.8329C90.9449 34.1222 95.0166 34.2136 98.9513 34.2973C106.082 34.4571 112.826 34.6018 117.75 35.9111L117.757 35.8959Z" fill="#0F0F14"/>
<g opacity="0.25">
<path d="M44.0513 31.5505C44.0513 31.5505 97.9271 42.9156 141.589 38.8963C141.589 38.8963 143.759 38.7441 144.154 35.684C144.306 36.0798 144.421 36.5289 144.482 37.0237C145.121 42.3523 141.94 42.573 141.94 42.573C98.2772 46.5999 44.4014 35.2272 44.4014 35.2272C43.96 33.819 43.8763 32.563 44.0285 31.4668C44.0361 31.4896 44.0437 31.5201 44.0513 31.5429V31.5505Z" fill="#0F0F14"/>
</g>
<path d="M44.513 32.2808C44.513 32.2808 98.3888 43.6458 142.051 39.6266C142.051 39.6266 145.24 39.4058 144.593 34.0773C143.946 28.7488 137.142 29.2512 137.142 29.2512C137.142 29.2512 100.368 29.8601 87.1783 28.7716C73.9966 27.683 50.2894 23.4963 48.5466 23.4354C46.8114 23.3745 42.7244 26.5412 44.5053 32.2808H44.513Z" fill="#742DD2"/>
<path d="M122.049 41.3087C128.838 41.3087 135.596 41.0499 142.118 40.4561C142.232 40.4485 143.427 40.3343 144.378 39.1772C145.337 38.0126 145.688 36.2618 145.414 33.9781C144.835 29.152 139.736 28.2385 137.103 28.4212C135.999 28.4364 100.107 29.0073 87.2453 27.9492C78.2647 27.2109 64.2687 25.0033 55.9046 23.6864C51.361 22.9709 49.154 22.6283 48.5755 22.6055C48.5451 22.6055 48.5223 22.6055 48.4918 22.6055C47.297 22.6055 45.8053 23.5113 44.755 24.8815C43.8493 26.069 42.5022 28.6496 43.7123 32.5318C43.8037 32.8211 44.0396 33.0342 44.3364 33.1027C44.793 33.2017 83.79 41.3163 122.049 41.3163V41.3087ZM137.666 30.0654C139.097 30.0654 143.305 30.3928 143.762 34.1684C143.975 35.9344 143.754 37.2894 143.123 38.0735C142.613 38.7129 141.996 38.7814 141.966 38.789C101.127 42.5571 50.6761 32.6764 45.166 31.5574C44.4201 28.6572 45.4019 26.7693 46.0792 25.8787C46.9545 24.7293 48.0352 24.2421 48.5147 24.2573C49.017 24.2725 51.9395 24.7369 55.6382 25.3154C64.0252 26.6323 78.0592 28.8475 87.1007 29.5935C100.176 30.6668 136.775 30.0807 137.141 30.073C137.156 30.073 137.171 30.073 137.186 30.073C137.224 30.073 137.392 30.0578 137.651 30.0578L137.666 30.0654Z" fill="#0F0F14"/>
<path d="M53.507 49.8198C54.7019 50.5506 55.9653 51.152 57.2134 51.7686C59.4357 52.8571 62.5333 54.41 64.748 55.4224C65.3796 55.7117 66.0189 56.0009 66.6582 56.2826C67.3204 56.5262 67.8531 57.0058 68.7588 56.7698C69.1317 56.686 69.3448 56.2674 69.1926 55.9172C68.8349 55.0722 68.1119 54.9428 67.5182 54.5851C64.6262 53.055 61.0568 51.4032 58.0734 49.9949C56.81 49.4012 55.5467 48.7846 54.23 48.305C53.7962 48.1451 53.3091 48.3735 53.1493 48.8074C53.0047 49.1956 53.1721 49.6219 53.5146 49.8198H53.507Z" fill="#0F0F14"/>
<path d="M55.4566 63.2712C54.5281 61.9923 54.0487 60.3937 54.2085 58.6962L54.9924 50.4903C55.0228 50.1553 55.0761 49.8356 55.1598 49.5235C55.3501 48.7395 67.9609 55.5828 67.9609 55.5828L67.5423 59.9675C67.4054 61.4366 66.7965 62.7459 65.8832 63.7736C65.5255 64.177 55.7078 63.6213 55.4566 63.2635V63.2712Z" fill="#0F0F14"/>
<path d="M58.5597 59.397C57.3156 59.397 56.307 58.0303 56.307 56.3445C56.307 54.6586 57.3156 53.292 58.5597 53.292C59.8039 53.292 60.8125 54.6586 60.8125 56.3445C60.8125 58.0303 59.8039 59.397 58.5597 59.397Z" fill="white"/>
<g opacity="0.4">
<path d="M62.1962 62.0509C61.6026 61.7926 61.4246 60.8863 61.7985 60.0266C62.1724 59.1669 62.9567 58.6794 63.5502 58.9376C64.1438 59.1959 64.3219 60.1022 63.948 60.9619C63.5741 61.8216 62.7898 62.3091 62.1962 62.0509Z" fill="white"/>
</g>
<path d="M68.3006 63.6274C64.7312 62.5541 60.9868 62.3562 57.2804 62.5846C56.0474 62.6835 54.7993 62.8358 53.5892 63.1935C53.437 63.2392 53.3533 63.3915 53.3989 63.5437C53.437 63.6655 53.5435 63.7416 53.6577 63.7416C56.0931 63.8634 58.4905 64.0385 60.9106 64.1679C63.3537 64.2973 65.7815 64.4039 68.2321 64.1679C68.5289 64.1451 68.5822 63.7036 68.293 63.6122L68.3006 63.6274Z" fill="#0F0F14"/>
<path d="M87.869 56.5344C88.2115 57.8513 88.9117 60.6526 90.5404 60.8353C90.8448 60.8506 90.9818 60.782 91.2025 60.7212C91.309 60.6907 91.4765 60.6222 91.5906 60.5765C95.4949 58.9475 100.259 56.7856 104.194 55.3393C105.077 55.0044 105.967 54.7075 106.865 54.4335C107.322 54.2584 108.722 53.756 108.189 53.0557C106.736 51.6474 93.9271 57.7828 91.6211 58.742C91.3014 58.879 91.0046 59.0084 90.6926 59.1226C90.6469 59.1454 90.4795 59.1759 90.6545 59.1606C90.7611 59.1759 90.7763 59.1987 90.7611 59.1835C90.0228 58.3918 89.6804 57.1662 89.2542 56.1234C88.9345 55.2936 87.694 55.659 87.8766 56.5268L87.869 56.5344Z" fill="#0F0F14"/>
<path d="M105.292 58.5059C102.042 58.6809 98.8455 59.7162 96.1437 61.5431C95.2304 62.1597 94.3932 62.9209 93.6474 63.7583C93.3506 64.0932 93.381 64.6108 93.7159 64.9153C93.9214 65.098 94.1878 65.1589 94.4389 65.1056C94.9032 65.0143 95.3979 64.923 95.8849 64.8468C97.3538 64.5956 98.8379 64.4129 100.322 64.2835C102.308 64.1084 104.295 64.0628 106.289 64.1846C106.616 64.215 106.707 63.7202 106.388 63.6365C102.384 62.5936 98.1605 62.7915 94.1116 63.4995L94.9032 64.8392C96.2502 63.3777 97.8865 62.2206 99.6674 61.3224C101.479 60.3861 103.427 59.6553 105.383 59.0616C105.703 58.9854 105.634 58.4982 105.307 58.5135L105.292 58.5059Z" fill="#0F0F14"/>
<path d="M120.165 93.5797L117.585 92.0192C117.585 92.0192 113.719 92.986 111.025 92.1791C108.338 91.3722 106.329 88.8449 106.329 88.8449C106.329 88.8449 105.469 88.7307 104.791 88.1446C103.125 86.371 104.091 83.8437 105.758 83.4174C107.425 82.9911 109.571 81.3241 108.049 80.3497C106.527 79.3753 103.604 77.0688 104.791 75.4018C105.971 73.7347 113.011 74.5416 113.011 74.5416C113.011 74.5416 111.397 70.8877 113.277 70.5071C115.157 70.1341 123.81 77.929 123.81 77.929C123.81 77.929 124.298 89.5529 120.157 93.5721L120.165 93.5797Z" fill="#F2C5A7"/>
<path d="M58.5417 168.797L28.9439 151.168C28.9439 151.168 29.5147 148.518 31.4554 147.156C33.3885 145.793 45.9309 144.507 45.9309 144.507C55.2463 148.663 65.7109 157.836 65.7109 157.836C64.1355 164.002 58.5417 168.805 58.5417 168.805V168.797Z" fill="#F2C5A7"/>
<path d="M18.6263 75.8212C18.2001 73.1874 19.8821 72.2891 19.8821 72.2891C19.8821 72.2891 17.8424 66.5876 24.829 65.8416C31.8156 65.088 35.6133 72.4033 35.6133 72.4033C35.6133 72.4033 32.8887 82.2231 31.6025 87.0568L29.3421 85.7323C26.2978 86.4859 21.4575 84.2631 21.4575 84.2631C21.4575 84.2631 19.2732 84.3316 18.3067 82.7559C17.3401 81.1802 17.8805 79.9242 17.8805 79.9242C17.2336 78.6681 18.6339 75.8212 18.6339 75.8212H18.6263Z" fill="#F2C5A7"/>
<path d="M39.8736 74.2597C41.9894 80.4941 48.5346 84.4601 54.1817 87.5506C59.8288 90.6412 78.7489 94.6833 95.0129 95.3075C111.277 95.9241 120.166 93.5795 120.166 93.5795C124.306 89.5603 123.819 77.9364 123.819 77.9364C123.819 77.9364 131.24 79.9765 137.252 83.3639C143.272 86.7514 150.578 92.6128 144.558 100.568C138.538 108.522 123.743 106.802 123.743 106.802C125.965 115.114 125.25 127.012 125.25 127.012L130.121 153.678C117.297 152.528 106.185 156.114 106.185 156.114C104.108 151.958 97.5853 145.868 97.5853 145.868C88.559 148.091 77.3029 146.728 77.3029 146.728C73.292 149.24 65.6966 157.834 65.6966 157.834C65.6966 157.834 55.232 148.661 45.9165 144.505L53.0857 128.52C50.6503 120.778 53.0857 106.733 53.0857 106.733C53.0857 106.733 31.3041 89.7506 31.1975 89.3852C31.091 89.0274 31.5933 87.0558 31.5933 87.0558C32.8795 82.2145 35.6041 72.4023 35.6041 72.4023L39.866 74.2673L39.8736 74.2597Z" fill="#3E4049"/>
<path d="M130.127 153.67C132.638 158.328 132.996 168.08 132.996 168.08H102.972C102.972 168.08 102.181 166.215 102.325 164.281C102.47 162.348 106.191 156.113 106.191 156.113C106.191 156.113 117.295 152.528 130.127 153.677V153.67Z" fill="#F2C5A7"/>
<g opacity="0.4">
<path d="M23.7678 67.3681C23.7678 67.3681 21.6216 68.0684 21.066 69.8801C20.5104 71.6918 21.2258 73.808 21.2258 73.808C21.2258 73.808 18.8437 71.3721 19.6656 69.1646C20.4876 66.957 23.3948 66.0283 23.3948 66.0283L24.4375 66.2871L23.7754 67.3681H23.7678Z" fill="white"/>
</g>
<path d="M125.266 117.974C125.266 117.974 110.668 129.164 86.398 128.517C62.1276 127.87 52.0587 121.567 52.0587 121.567C52.0587 121.567 51.7771 127.42 54.5017 131.242C54.5017 131.242 67.3485 137.012 88.6508 136.365C109.953 135.718 125.258 126.043 125.258 126.043" fill="#742DD2"/>
<path d="M88.3387 104.475C88.3387 104.475 91.1851 102.093 92.8746 100.38C94.5642 98.6746 97.0605 96.0256 97.1214 95.9571C97.1823 95.8886 97.1214 95.546 97.1214 95.546L96.5734 95.4395C96.5734 95.4395 92.4332 95.272 85.8804 94.663C79.32 94.054 76.6335 93.6582 76.6335 93.6582V93.9779C76.6335 93.9779 79.9289 97.7764 81.6489 99.8545C83.3689 101.933 86.8927 105.046 86.8927 105.046H87.5776L88.3387 104.475Z" fill="#F2C5A7"/>
<g opacity="0.25">
<path d="M29.8203 74.0577C29.8203 74.0577 29.8203 71.0889 28.1536 70.0004C26.4869 68.9119 24.2265 70.0004 24.2265 70.0004L24.9343 72.9387C24.9343 72.9387 24.843 74.6058 25.4061 74.7124C25.9769 74.8265 29.8127 74.0577 29.8127 74.0577H29.8203Z" fill="#0F0F14"/>
</g>
<g opacity="0.25">
<path d="M23.0494 76.1337C23.0494 76.1337 22.6232 77.5039 21.7023 77.5039C20.7815 77.5039 19.1223 76.6437 19.1223 76.6437C19.1223 76.6437 19.3202 78.0824 20.1726 78.5315C21.025 78.9807 21.0859 79.2242 21.0859 79.2242L21.7023 79.4678C21.7023 79.4678 21.1924 79.8408 20.6825 80.1377C20.1726 80.4346 18.346 80.1377 18.346 80.1377C18.346 80.1377 18.1025 81.3481 18.1862 81.5612C18.2699 81.7743 18.3384 82.6345 18.6276 82.9086C18.9168 83.175 19.343 83.685 19.7236 83.822C20.1041 83.959 20.8804 84.0123 20.9869 84.0123C21.0935 84.0123 21.9307 83.9134 22.0068 83.2054C22.0829 82.4975 22.3569 81.5764 22.3569 81.5764C22.3569 81.5764 23.0418 79.1938 23.2092 78.8436C23.3767 78.4935 23.468 76.8036 23.5441 76.697C23.6202 76.5904 23.4604 75.9967 23.057 76.1337H23.0494Z" fill="#0F0F14"/>
</g>
<g opacity="0.25">
<path d="M118.52 93.9341C118.52 93.9341 107.507 101.135 87.1789 99.3464C66.8508 97.5575 57.8778 89.108 58.167 89.2069C58.4562 89.3059 73.2894 93.9036 88.3357 94.8704C103.39 95.8371 114.349 94.5964 114.349 94.5964L118.52 93.9417V93.9341Z" fill="#0F0F14"/>
</g>
<path d="M58.5412 169.636C58.7391 169.636 58.9294 169.567 59.0816 169.438C59.3175 169.24 64.7744 164.49 66.4563 158.248C67.4533 157.137 73.8767 150.004 77.5146 147.599C79.3716 147.797 89.0828 148.71 97.348 146.792C98.6266 148.017 103.345 152.676 105.24 156.102C104.357 157.609 101.633 162.397 101.496 164.231C101.336 166.34 102.166 168.334 102.204 168.418C102.333 168.723 102.637 168.928 102.972 168.928H132.996C133.225 168.928 133.438 168.837 133.598 168.669C133.757 168.509 133.841 168.289 133.833 168.06C133.818 167.657 133.445 158.218 130.934 153.407L126.101 126.97C126.17 125.767 126.664 115.643 124.845 107.734C128.567 107.97 139.952 108.061 145.242 101.073C147.281 98.3781 148.035 95.6758 147.487 93.0344C146.726 89.3729 143.423 85.8789 137.677 82.6437C132.098 79.5075 125.469 77.5435 124.244 77.1934C123.711 76.7214 121.824 75.0543 119.792 73.4405C115.302 69.878 113.909 69.5507 113.14 69.7106C112.546 69.8323 112.097 70.1673 111.831 70.6773C111.397 71.5146 111.565 72.6945 111.816 73.6004C109.388 73.4177 105.248 73.3568 104.129 74.9325C103.749 75.4654 103.619 76.0972 103.749 76.7518C104.121 78.6549 106.58 80.3981 107.622 81.0604C107.698 81.106 107.737 81.1441 107.752 81.1669C107.691 81.4942 106.709 82.324 105.567 82.6132C104.487 82.8949 103.604 83.8008 103.261 84.9883C102.881 86.2976 103.239 87.6906 104.205 88.7182C104.228 88.7411 104.251 88.7639 104.274 88.7791C104.852 89.2739 105.514 89.5023 105.902 89.6012C106.504 90.2863 108.376 92.2503 110.811 92.9735C113.231 93.6966 116.413 93.1257 117.463 92.905L117.942 93.1942C114.464 93.8336 106.618 94.9146 95.0648 94.4731C79.0367 93.8641 60.1547 89.8601 54.5989 86.8228C48.9138 83.717 42.6882 79.9033 40.679 73.9962C40.6029 73.7755 40.4355 73.5928 40.2224 73.5014L36.2192 71.7506C35.4201 70.3652 31.5234 64.283 24.7499 65.0138C22.2384 65.2802 20.488 66.1861 19.5366 67.7009C18.5473 69.2767 18.7451 71.0655 18.943 71.9714C18.3494 72.5271 17.535 73.6841 17.7786 75.6861C17.4133 76.4854 16.5761 78.5559 17.0099 79.9566C16.8729 80.5427 16.7511 81.7835 17.6111 83.1842C18.631 84.8512 20.6402 85.0644 21.2947 85.0872C22.1775 85.4678 26.2416 87.1425 29.2174 86.6097L30.6634 87.4546C30.2753 89.1217 30.3818 89.4642 30.4275 89.6165C30.534 89.9743 30.5721 90.096 41.6989 98.8349C46.2653 102.428 50.8697 106.021 52.2168 107.071C51.8058 109.644 50.1391 121.314 52.232 128.454L45.39 143.716C42.4675 144.029 32.8857 145.14 30.9983 146.464C28.8216 147.994 28.1824 150.864 28.1519 150.986C28.0758 151.336 28.2356 151.694 28.54 151.877L58.1379 169.507C58.2673 169.583 58.4195 169.621 58.5641 169.621L58.5412 169.636ZM77.3167 145.894C77.1645 145.894 77.0047 145.939 76.8753 146.023C72.8036 148.565 65.3984 156.931 65.0864 157.289C65.0027 157.388 64.9342 157.51 64.9037 157.632C63.6632 162.473 59.7513 166.515 58.4347 167.771L29.9252 150.788C30.1916 150.019 30.7928 148.642 31.9344 147.842C33.213 146.944 41.2498 145.825 46.0141 145.338C46.3109 145.307 46.5697 145.125 46.6915 144.851L53.8607 128.865C53.9444 128.682 53.9596 128.469 53.8987 128.271C51.5547 120.811 53.8988 107.01 53.9216 106.873C53.9749 106.569 53.8531 106.264 53.6095 106.074C45.6716 99.8853 33.8218 90.5832 32.0409 89.0303C32.0942 88.6345 32.254 87.8733 32.4063 87.2567C32.4976 86.8989 32.3378 86.5183 32.0181 86.3356L29.7578 85.0111C29.5675 84.9045 29.3468 84.8665 29.1337 84.9197C26.8657 85.483 23.068 84.09 21.797 83.5039C21.6828 83.4506 21.5535 83.4277 21.4241 83.4277C21.4165 83.4277 19.7041 83.4582 19.0115 82.3164C18.3037 81.1593 18.631 80.2763 18.6462 80.2382C18.7299 80.0175 18.7223 79.7511 18.6157 79.5455C18.3189 78.9746 18.8669 77.2314 19.3768 76.1885C19.4529 76.0363 19.4758 75.8612 19.4529 75.6861C19.1409 73.7526 20.1683 73.0904 20.2901 73.0219C20.6554 72.8239 20.8076 72.4053 20.6706 72.0094C20.6706 71.9942 20.0085 70.0683 20.9522 68.5763C21.6143 67.5259 22.9538 66.8788 24.925 66.6657C31.2494 65.9882 34.8493 72.7098 34.8797 72.7783C34.971 72.9457 35.108 73.0828 35.2831 73.1589L39.2178 74.8792C41.5314 81.1517 47.9396 85.0872 53.7922 88.2843C59.6219 91.4739 78.4812 95.5083 94.9963 96.1401C111.207 96.7567 120.028 94.4807 120.393 94.3817C120.713 94.298 120.956 94.0239 121.002 93.6966C121.048 93.3693 120.895 93.0344 120.606 92.8669L118.026 91.3064C117.836 91.1922 117.608 91.1541 117.394 91.2074C117.356 91.215 113.711 92.1057 111.275 91.3825C108.878 90.667 107.014 88.3528 106.991 88.33C106.854 88.1625 106.663 88.056 106.45 88.0255C106.45 88.0255 105.849 87.9342 105.37 87.546C104.822 86.9446 104.631 86.1834 104.844 85.4526C105.02 84.836 105.461 84.3564 105.971 84.227C107.257 83.8921 109.167 82.8035 109.388 81.4105C109.495 80.7178 109.175 80.0784 108.505 79.6521C107.082 78.7462 105.567 77.3989 105.377 76.4321C105.332 76.219 105.37 76.0591 105.484 75.8917C106.009 75.1457 109.829 75.0239 112.935 75.374C113.231 75.4045 113.521 75.2827 113.703 75.0391C113.878 74.7955 113.916 74.4834 113.795 74.2094C113.422 73.3644 113.049 71.9257 113.308 71.4385C113.33 71.4005 113.346 71.3548 113.467 71.332C113.467 71.332 113.475 71.332 113.483 71.332C114.54 71.332 119.396 75.0543 123.277 78.5559C123.376 78.6397 123.491 78.7082 123.612 78.7386C123.688 78.7615 131.002 80.7939 136.862 84.09C142.175 87.074 145.196 90.195 145.858 93.3693C146.307 95.5159 145.653 97.7692 143.918 100.068C138.248 107.558 124.008 105.998 123.863 105.975C123.59 105.945 123.316 106.051 123.14 106.257C122.958 106.462 122.897 106.752 122.965 107.018C125.127 115.102 124.45 126.848 124.442 126.962C124.442 127.03 124.442 127.099 124.457 127.16L129.328 153.825C129.343 153.909 129.374 153.993 129.412 154.069C131.375 157.715 131.976 164.795 132.136 167.246H103.581C103.383 166.614 103.094 165.48 103.178 164.346C103.269 163.082 105.529 158.888 106.93 156.543C107.074 156.299 107.09 155.995 106.96 155.744C104.837 151.504 98.4591 145.513 98.1851 145.262C97.9797 145.071 97.6905 144.995 97.4165 145.064C88.6414 147.226 77.5451 145.916 77.4385 145.909C77.4081 145.909 77.37 145.909 77.3396 145.909L77.3167 145.894Z" fill="#0F0F14"/>
<path d="M31.5977 87.8886C31.963 87.8886 32.3055 87.645 32.4044 87.272C33.6754 82.4915 36.3848 72.7175 36.4152 72.6261C36.537 72.1846 36.2782 71.7203 35.8368 71.5985C35.3954 71.4767 34.9311 71.7355 34.8094 72.177C34.7789 72.2759 32.0695 82.0576 30.7909 86.8457C30.6692 87.2872 30.9355 87.744 31.3846 87.8657C31.4531 87.8886 31.5292 87.8962 31.5977 87.8962V87.8886Z" fill="#0F0F14"/>
<path d="M53.9105 106.859C54.5651 103.571 55.4327 100.259 56.6123 97.1078C57.0005 96.042 57.4191 94.9992 57.6626 93.8269C57.6702 93.7888 57.6474 93.7508 57.6093 93.7432C57.381 93.8345 57.1299 94.2303 56.9472 94.4207C56.8026 94.5881 56.5438 94.9459 56.4221 95.1286C55.4631 96.5901 54.7858 98.2268 54.1389 99.8482C53.2941 102.048 52.6396 104.263 52.2666 106.608C52.1296 107.689 53.7051 107.948 53.9105 106.867V106.859Z" fill="#0F0F14"/>
<path d="M77.3137 147.56C77.7018 147.56 78.0519 147.286 78.128 146.89C78.2193 146.441 77.9225 145.999 77.4735 145.908C77.2984 145.878 60.1516 142.33 53.85 128.179C53.6597 127.76 53.1727 127.57 52.7465 127.76C52.3279 127.951 52.1376 128.438 52.3279 128.864C58.9872 143.815 76.408 147.4 77.1462 147.545C77.1995 147.552 77.2528 147.56 77.3061 147.56H77.3137Z" fill="#0F0F14"/>
<path d="M97.7439 146.685C100.316 146.183 102.744 145.292 105.142 144.264C107.478 143.176 109.883 142.179 111.816 140.405C112.082 140.017 110.028 140.816 109.898 140.839C108.125 141.501 106.39 142.262 104.601 142.894C102.249 143.716 99.8369 144.5 97.4167 145.048C96.374 145.307 96.6861 146.845 97.7439 146.677V146.685Z" fill="#0F0F14"/>
<path d="M65.7008 158.667C65.9291 158.667 66.165 158.568 66.3248 158.385C66.6293 158.043 66.5912 157.51 66.2487 157.213C65.8149 156.832 55.5862 147.911 46.2631 143.747C45.8445 143.556 45.3499 143.747 45.1596 144.165C44.9693 144.584 45.1596 145.079 45.5782 145.269C54.6653 149.327 65.0462 158.377 65.1452 158.469C65.305 158.606 65.4953 158.674 65.6931 158.674L65.7008 158.667Z" fill="#0F0F14"/>
<path d="M106.189 156.946C106.273 156.946 106.356 156.931 106.448 156.908C106.554 156.87 117.552 153.392 130.048 154.511C130.505 154.556 130.908 154.214 130.954 153.757C130.992 153.3 130.657 152.897 130.201 152.851C117.354 151.702 106.394 155.173 105.938 155.325C105.496 155.47 105.261 155.934 105.398 156.376C105.512 156.726 105.839 156.954 106.189 156.954V156.946Z" fill="#0F0F14"/>
<path d="M85.2904 137.254C86.394 137.254 87.5203 137.238 88.6696 137.2C109.949 136.553 125.543 126.848 125.695 126.749C126.084 126.505 126.198 125.988 125.954 125.599C125.711 125.211 125.193 125.097 124.805 125.341C124.653 125.44 109.424 134.902 88.6163 135.533C69.2167 136.119 56.7657 131.286 55.0381 130.57C53.3865 128.127 52.9832 124.808 52.8919 122.973C56.3167 124.663 66.69 128.827 86.3559 129.352C87.0333 129.367 87.703 129.383 88.3651 129.383C111.463 129.383 125.604 118.748 125.749 118.642C126.114 118.36 126.182 117.843 125.901 117.477C125.619 117.112 125.102 117.043 124.736 117.325C124.599 117.431 110.87 127.723 88.3651 127.723C87.7182 127.723 87.0561 127.716 86.394 127.7C62.6944 127.069 52.5722 120.941 52.4733 120.872C52.2221 120.72 51.9101 120.705 51.6437 120.842C51.3849 120.979 51.2099 121.245 51.1947 121.542C51.1795 121.793 50.9283 127.731 53.7975 131.742C53.8812 131.864 54.003 131.956 54.1324 132.016C54.6347 132.245 66.0583 137.261 85.2676 137.261L85.2904 137.254Z" fill="#0F0F14"/>
<path d="M124.55 106.569C124.192 105.199 123.591 103.927 122.868 102.709C122.632 102.306 122.32 101.925 121.802 101.674C121.757 101.651 121.711 101.674 121.688 101.712C121.582 102.276 121.681 102.74 121.81 103.174C122.168 104.422 122.525 105.83 122.959 107.041C123.332 108.023 124.778 107.574 124.55 106.561V106.569Z" fill="#0F0F14"/>
<path d="M119.38 93.8573C119.571 94.3216 119.624 94.8849 119.959 95.2655C120.53 95.8136 121.108 96.3465 121.694 96.8793C122.866 97.9374 124.068 98.9651 125.279 99.9775C125.91 100.487 126.557 100.944 127.326 101.264C127.387 101.287 127.448 101.226 127.425 101.165C126.732 99.6958 125.515 98.6149 124.457 97.4274C123.376 96.2703 122.28 95.1437 121.138 94.0476L121.351 94.3825C121.07 93.6822 120.918 92.5023 119.883 92.8296C119.472 92.9895 119.251 93.4462 119.388 93.8649L119.38 93.8573Z" fill="#0F0F14"/>
<path d="M120.163 94.4127C120.369 94.4127 120.582 94.3366 120.742 94.1768C125.103 89.9444 124.669 78.389 124.646 77.9019C124.623 77.4451 124.227 77.0797 123.778 77.1026C123.322 77.1254 122.964 77.506 122.979 77.9704C122.979 78.0846 123.406 89.2669 119.577 92.9816C119.25 93.3014 119.242 93.8266 119.562 94.1615C119.722 94.329 119.943 94.4127 120.163 94.4127Z" fill="#0F0F14"/>
<path d="M112.813 75.3588C113.749 75.6633 114.738 75.7927 115.713 75.8993C116.04 75.9374 116.382 75.9221 116.801 75.709C116.847 75.6862 116.869 75.6253 116.847 75.5796C116.649 75.1457 116.352 74.9402 116.047 74.7879C115.149 74.3312 114.221 73.943 113.231 73.745C112.212 73.57 111.846 75.0239 112.813 75.3588Z" fill="#0F0F14"/>
<path d="M21.4542 85.0946C21.6901 85.0946 21.926 84.9957 22.0858 84.8054C22.5349 84.2725 23.1057 83.1916 22.8012 82.103C23.1285 81.6463 23.5471 80.8775 23.5775 79.9564C23.9428 79.317 24.8257 77.5509 24.4756 76.0209C25.0768 75.2977 26.0966 73.821 25.6933 72.4812C25.5563 72.0321 25.3889 71.5754 25.229 71.1262C24.9855 70.4564 24.6735 69.619 24.6963 69.2841C24.7191 68.7969 25.1073 67.0537 25.3432 66.0717C25.4497 65.6226 25.1758 65.1735 24.7267 65.0669C24.2777 64.9604 23.8287 65.2344 23.7221 65.6835C23.6536 65.9576 23.0676 68.4011 23.0296 69.208C22.9991 69.8778 23.3035 70.7228 23.6689 71.7048C23.8211 72.1234 23.9809 72.5649 24.1103 72.9684C24.2701 73.5012 23.5395 74.6279 22.9458 75.2444C22.7023 75.4956 22.6414 75.8686 22.7936 76.1807C23.1894 77.0181 22.4664 78.6395 22.0554 79.2865C21.9641 79.4312 21.9184 79.6062 21.926 79.7813C21.9717 80.6187 21.2715 81.3875 21.2639 81.3951C21.0051 81.6691 20.9518 82.0802 21.1497 82.3999C21.4694 82.9252 20.8453 83.7168 20.8377 83.7244C20.5409 84.0746 20.5789 84.5998 20.929 84.8967C21.0888 85.0337 21.2791 85.0946 21.4694 85.0946H21.4542Z" fill="#0F0F14"/>
<path d="M23.5332 76.6531C23.8833 76.6531 24.2105 76.4323 24.3247 76.0822C24.4693 75.6483 24.2334 75.1763 23.7919 75.0317C23.7919 75.0317 21.2043 74.1487 20.6868 72.0858C20.5726 71.6366 20.116 71.3702 19.6746 71.4844C19.2256 71.5986 18.9592 72.0477 19.0733 72.4968C19.8192 75.4504 23.1374 76.5694 23.2744 76.615C23.3581 76.6455 23.4495 76.6531 23.5332 76.6531Z" fill="#0F0F14"/>
<path d="M22.7494 80.5593C23.1223 80.5593 23.4648 80.3081 23.5561 79.9275C23.6703 79.4784 23.3963 79.0293 22.9473 78.9151C22.9092 78.9075 19.903 78.1082 19.4464 75.6647C19.3627 75.2156 18.9212 74.9187 18.4722 75.0024C18.0232 75.0862 17.7264 75.5277 17.8101 75.9768C18.4722 79.486 22.3841 80.4984 22.5515 80.5365C22.62 80.5517 22.6885 80.5593 22.7494 80.5593Z" fill="#0F0F14"/>
<path d="M21.85 82.8043C22.2229 82.8043 22.5654 82.5455 22.6567 82.1649C22.7633 81.7158 22.4893 81.2666 22.0402 81.1601C20.6247 80.8175 18.9123 80.102 18.6002 79.5311C18.3795 79.1276 17.8772 78.9754 17.4738 79.1961C17.0705 79.4169 16.9183 79.9193 17.139 80.3227C17.9533 81.83 21.0432 82.6292 21.6521 82.7815C21.7206 82.7967 21.7815 82.8043 21.85 82.8043Z" fill="#0F0F14"/>
<path d="M30.9844 73.5312C29.957 73.615 28.9371 73.7444 27.9173 73.8129C26.7757 73.8966 25.6798 73.889 24.5915 74.5589C22.9019 75.4571 21.7984 79.3698 23.8456 80.3822C24.7132 80.7628 25.4667 80.6563 26.2963 80.5345C27.278 80.367 28.3207 80.2072 29.3101 80.2376C29.4623 80.2376 29.5917 80.1234 29.5993 79.9712C29.5993 79.8494 29.5308 79.7428 29.4166 79.7048C28.6936 79.4459 28.001 79.3774 27.2552 79.3318C26.5931 79.2252 24.4545 79.5906 24.3631 78.7532C24.2718 77.9311 24.6752 76.4315 25.4819 75.9443C25.9842 75.5789 26.8899 75.3886 27.6053 75.2592C28.8306 75.0004 30.0179 74.6198 31.1442 74.0717C31.4182 73.9423 31.2965 73.5008 30.992 73.5389L30.9844 73.5312Z" fill="#0F0F14"/>
<path d="M39.5599 156.893C39.5675 156.041 39.8263 155.211 40.2677 154.458C40.6406 153.818 41.181 153.346 41.6681 152.791C41.8431 152.593 42.0182 152.379 42.1628 152.09C42.1856 152.052 42.1628 151.999 42.1247 151.984C41.8051 151.938 41.493 151.999 41.2038 152.067C39.2707 152.798 37.7486 154.838 37.8856 156.954C37.9008 158.165 39.6436 158.104 39.5523 156.893H39.5599Z" fill="#0F0F14"/>
<path d="M35.5405 154.839C35.7384 154.306 36.0123 153.583 36.2635 153.081C36.5679 152.38 36.9941 152.068 37.2148 151.231C37.2301 151.178 37.1996 151.124 37.1463 151.109C36.6593 151.002 36.2407 151.178 35.921 151.421C34.9469 152.16 34.2391 153.21 33.9346 154.405C33.7215 155.448 35.2056 155.844 35.5405 154.839Z" fill="#0F0F14"/>
<path d="M33.2208 153.4C33.3882 152.882 33.6166 152.174 33.8525 151.695C34.1417 151.002 34.5527 150.72 34.7734 149.898C34.7886 149.845 34.7582 149.791 34.7125 149.776C33.784 149.571 33.1599 150.286 32.6196 150.888C32.1097 151.535 31.7443 152.235 31.5921 153.057C31.4323 154.115 32.9392 154.42 33.2208 153.4Z" fill="#0F0F14"/>
<path d="M31.1674 152.325C31.5479 151.549 31.8599 150.666 32.2785 149.905C32.4307 149.653 32.5297 149.395 32.5982 148.938C32.6134 148.885 32.5753 148.831 32.5221 148.824C32.0502 148.725 31.6773 148.915 31.4033 149.143C30.6727 149.714 28.6026 152.226 30.1399 152.79C30.5509 152.927 30.9923 152.714 31.1598 152.333L31.1674 152.325Z" fill="#0F0F14"/>
<path d="M111.947 167.877C111.696 166.477 111.437 164.954 111.658 163.531C111.749 163.059 111.825 162.617 111.871 161.993C111.871 161.947 111.84 161.909 111.795 161.909C110.44 162.404 110.219 164.086 110.059 165.319C109.999 166.332 110.059 167.314 110.333 168.296C110.653 169.323 112.168 168.928 111.947 167.877Z" fill="#0F0F14"/>
<path d="M117.754 167.892C117.624 167.123 117.427 166.042 117.32 165.281C117.153 164.322 117.282 163.584 117.008 162.586C117 162.541 116.947 162.51 116.901 162.525C116.384 162.822 116.156 163.37 116.049 163.858C115.737 165.327 115.775 166.811 116.133 168.273C116.255 168.714 116.711 168.981 117.153 168.866C117.579 168.752 117.838 168.326 117.754 167.9V167.892Z" fill="#0F0F14"/>
<path d="M123.001 167.824C122.811 167.07 122.537 166.012 122.385 165.266C122.164 164.315 122.263 163.576 121.951 162.587C121.936 162.533 121.867 162.511 121.822 162.541C120.901 163.226 120.962 164.406 120.924 165.411C120.939 166.416 121.084 167.382 121.418 168.341C121.799 169.339 123.275 168.859 123.001 167.831V167.824Z" fill="#0F0F14"/>
<path d="M128.109 167.794C127.873 167.041 127.538 165.983 127.333 165.237C127.059 164.3 127.059 163.585 126.777 162.595C126.77 162.549 126.724 162.519 126.671 162.527C126.184 162.801 125.94 163.417 125.894 163.942C125.742 165.465 125.993 166.949 126.541 168.373C126.716 168.799 127.203 169.005 127.63 168.829C128.041 168.662 128.238 168.205 128.101 167.794H128.109Z" fill="#0F0F14"/>
<path d="M103.347 127.708C103.552 127.708 103.758 127.616 103.895 127.434C104.131 127.129 104.07 126.695 103.765 126.459C103.492 126.246 76.3976 105.29 68.5662 91.466C68.3759 91.1311 67.9574 91.0169 67.6225 91.2072C67.2876 91.3975 67.1735 91.8162 67.3637 92.1511C75.3321 106.218 101.802 126.695 102.921 127.563C103.05 127.662 103.195 127.708 103.347 127.708Z" fill="#0F0F14"/>
<path d="M109.721 126.047C109.919 126.047 110.117 125.964 110.254 125.796C110.498 125.499 110.46 125.065 110.163 124.822C109.904 124.609 84.0431 103.013 76.4324 92.8963C76.2041 92.5918 75.7703 92.5309 75.4583 92.7593C75.1538 92.9876 75.093 93.4215 75.3213 93.7336C83.0233 103.98 108.199 125.005 109.272 125.895C109.402 126.002 109.562 126.055 109.714 126.055L109.721 126.047Z" fill="#0F0F14"/>
<path d="M91.5822 110.14C91.7116 110.14 91.841 110.102 91.9551 110.033C96.6585 107.065 105.631 96.3314 106.012 95.8823C106.256 95.5854 106.217 95.1515 105.921 94.9079C105.624 94.6644 105.19 94.7024 104.947 94.9993C104.855 95.1059 95.7376 106.014 91.2169 108.869C90.8896 109.074 90.7983 109.501 91.0038 109.828C91.1332 110.033 91.3615 110.148 91.5898 110.148L91.5822 110.14Z" fill="#0F0F14"/>
<path d="M87.179 106.014C87.316 106.014 87.453 105.976 87.5672 105.892C91.6541 103.106 97.8416 96.1866 98.1079 95.8897C98.3667 95.6004 98.3363 95.1665 98.0547 94.9077C97.7655 94.6489 97.3317 94.6793 97.0729 94.961C97.012 95.0295 90.7332 102.048 86.7909 104.735C86.4713 104.948 86.3951 105.382 86.6082 105.702C86.7452 105.9 86.9583 106.006 87.179 106.006V106.014Z" fill="#0F0F14"/>
<path d="M134.197 170.454L134.204 171.908C134.21 173.047 133.291 173.975 132.152 173.981L103.187 174.128C102.048 174.134 101.119 173.215 101.114 172.075L101.106 170.621C101.101 169.482 102.019 168.554 103.158 168.548L132.124 168.401C133.263 168.396 134.191 169.315 134.197 170.454Z" fill="#742DD2"/>
<path d="M102.522 174.971H102.538L132.798 174.819C134.038 174.819 135.035 173.799 135.035 172.558L135.02 169.803C135.02 169.201 134.784 168.638 134.35 168.219C133.924 167.801 133.346 167.572 132.76 167.572L102.5 167.725C101.898 167.725 101.335 167.96 100.917 168.387C100.498 168.813 100.262 169.376 100.27 169.978L100.285 172.733C100.285 173.967 101.297 174.971 102.53 174.971H102.522ZM102.53 173.304C102.21 173.304 101.952 173.045 101.952 172.726L101.936 169.97C101.936 169.818 101.997 169.666 102.104 169.559C102.21 169.452 102.355 169.392 102.515 169.384L132.775 169.232C132.919 169.217 133.079 169.293 133.186 169.399C133.292 169.506 133.353 169.65 133.361 169.81L133.376 172.566C133.376 172.886 133.117 173.144 132.798 173.152L102.538 173.304H102.53Z" fill="#0F0F14"/>
<path d="M29.6928 150.883L58.0212 167.195C59.0083 167.764 59.3479 169.025 58.7795 170.012L58.0543 171.272C57.4859 172.26 56.2249 172.599 55.2378 172.031L26.9094 155.718C25.9222 155.15 25.5827 153.889 26.151 152.901L26.8763 151.641C27.4446 150.654 28.7056 150.314 29.6928 150.883Z" fill="#742DD2"/>
<path d="M56.5026 173.372C56.7005 173.372 56.8983 173.35 57.0886 173.296C57.667 173.136 58.1541 172.771 58.4509 172.246L59.8284 169.855C60.1252 169.338 60.209 168.729 60.0491 168.15C59.8893 167.572 59.524 167.085 58.9989 166.788L29.5456 149.828C28.4725 149.211 27.095 149.577 26.4785 150.65L25.101 153.04C24.8042 153.558 24.7205 154.167 24.8803 154.745C25.0325 155.324 25.4054 155.811 25.9306 156.108L55.3838 173.068C55.7263 173.266 56.1144 173.365 56.5026 173.365V173.372ZM28.4269 151.198C28.5258 151.198 28.6247 151.221 28.7161 151.274L58.1693 168.234C58.3063 168.31 58.3976 168.44 58.4433 168.584C58.4813 168.737 58.4661 168.889 58.3824 169.026L57.0049 171.416C56.845 171.69 56.4873 171.789 56.2134 171.629L26.7601 154.669C26.6231 154.593 26.5318 154.464 26.4861 154.319C26.4481 154.167 26.4633 154.014 26.547 153.877L27.9246 151.487C28.0007 151.35 28.13 151.259 28.2746 151.213C28.3279 151.198 28.3736 151.19 28.4269 151.19V151.198Z" fill="#0F0F14"/>
<path d="M104.75 158.651C104.75 158.651 108.646 160.166 110.823 161.954C111.812 162.35 112.71 161.635 112.71 161.635C112.71 161.635 117.17 158.133 131.927 159.206C131.927 159.206 132.201 157.357 131.341 156.809C131.341 156.809 118.837 155.613 111.82 160.074C111.82 160.074 107.581 157.547 105.716 156.93C105.716 156.93 104.681 157.631 104.75 158.651Z" fill="#742DD2"/>
<path d="M55.96 166.006C55.96 166.006 56.5689 160.167 52.4819 156.186C48.395 152.205 42.4131 151.71 42.1239 151.596C41.8346 151.489 41.2638 145.034 41.6215 144.791C41.9792 144.539 43.8058 144.684 43.8058 144.684L44.4147 150.294C44.4147 150.294 50.8989 151.421 55.1305 155.76C59.362 160.099 58.0149 167.193 58.0149 167.193L55.9524 166.006H55.96Z" fill="#742DD2"/>
<path d="M111.441 162.624C112.339 162.624 113.024 162.091 113.054 162.061C113.092 162.031 117.605 158.719 131.883 159.747C132.172 159.77 132.431 159.564 132.469 159.275C132.499 159.047 132.758 157.052 131.632 156.329C131.556 156.283 131.472 156.253 131.388 156.245C130.878 156.2 118.945 155.119 111.806 159.42C110.801 158.833 107.521 156.938 105.885 156.397C105.717 156.344 105.542 156.367 105.398 156.466C105.344 156.504 104.104 157.364 104.195 158.689C104.21 158.902 104.347 159.092 104.545 159.168C104.583 159.184 108.389 160.668 110.466 162.381C110.512 162.419 110.558 162.449 110.611 162.464C110.9 162.579 111.174 162.624 111.433 162.624H111.441ZM126.571 158.438C116.015 158.438 112.529 161.064 112.369 161.193C112.361 161.193 111.745 161.665 111.106 161.46C109.272 159.975 106.387 158.719 105.344 158.285C105.436 157.973 105.656 157.714 105.832 157.555C107.734 158.285 111.501 160.523 111.54 160.546C111.722 160.653 111.943 160.653 112.118 160.539C118.473 156.504 129.645 157.227 131.129 157.341C131.35 157.585 131.419 158.133 131.419 158.605C129.66 158.491 128.055 158.438 126.578 158.438H126.571Z" fill="#0F0F14"/>
<path d="M58.0229 167.748C58.099 167.748 58.1828 167.733 58.2513 167.695C58.4187 167.619 58.5328 167.474 58.5633 167.292C58.6242 166.987 59.9104 159.854 55.5266 155.363C51.7898 151.534 46.4471 150.156 44.925 149.821L44.3618 144.615C44.3314 144.348 44.1183 144.143 43.8519 144.12C42.5048 144.013 41.6524 144.082 41.3023 144.325C41.036 144.508 40.8837 144.729 40.9827 146.83C41.036 147.903 41.1501 149.205 41.2719 150.225C41.4621 151.732 41.5839 151.983 41.9264 152.113C42.0101 152.143 42.1014 152.158 42.3678 152.204C46.5156 152.866 49.7882 154.336 52.0866 156.581C55.9224 160.319 55.4049 165.891 55.3973 165.944C55.3744 166.165 55.481 166.37 55.6712 166.485L57.7337 167.672C57.8174 167.718 57.9164 167.748 58.0077 167.748H58.0229ZM43.3115 145.208L43.8671 150.354C43.8899 150.598 44.0802 150.796 44.3238 150.842C44.3846 150.849 50.6863 151.991 54.7351 156.147C57.9012 159.398 57.7642 164.376 57.5739 166.302L56.5312 165.701C56.5997 164.315 56.5465 159.375 52.8629 155.789C50.3971 153.384 46.9266 151.808 42.5429 151.116H42.5276C42.2993 150.08 41.9721 146.282 42.071 145.239C42.3298 145.201 42.8016 145.193 43.3039 145.216L43.3115 145.208Z" fill="#0F0F14"/>
<path d="M81.0203 136.775C81.0203 136.775 79.4905 140.574 83.6307 144.654C87.7709 148.734 91.6523 151.109 91.6523 151.109C91.6523 151.109 89.8106 154.443 87.6111 155.691C87.6111 155.691 80.8528 152.076 76.6822 144.623C72.5115 137.171 79.0948 131.53 79.0948 131.53" fill="#742DD2"/>
<path d="M96.9667 134.239C96.9667 134.239 98.9074 146.601 109.867 147.941L113.238 142.666C113.238 142.666 108.177 141.722 106.001 138.068C103.824 134.414 101.282 129.253 98.192 129.116" fill="#742DD2"/>
<path d="M87.6138 156.519C87.7584 156.519 87.8954 156.481 88.0248 156.412C90.3993 155.057 92.302 151.654 92.3781 151.51C92.5912 151.122 92.4618 150.627 92.0813 150.398C92.0432 150.376 88.2227 148.016 84.2119 144.065C80.5511 140.464 81.7384 137.222 81.7917 137.085C81.9591 136.658 81.746 136.171 81.3198 136.004C80.8936 135.836 80.4141 136.042 80.2467 136.468C80.1782 136.643 78.5647 140.837 83.0474 145.253C86.2135 148.374 89.2044 150.497 90.5211 151.373C89.9503 152.263 88.8391 153.839 87.591 154.722C86.0841 153.809 80.8175 150.315 77.4079 144.217C73.633 137.465 79.3867 132.38 79.6379 132.167C79.9879 131.87 80.026 131.337 79.7292 130.995C79.4324 130.645 78.9072 130.607 78.5571 130.903C78.4886 130.964 71.5097 137.077 75.9619 145.032C80.201 152.606 86.9441 156.275 87.2257 156.427C87.3474 156.496 87.4844 156.526 87.6214 156.526L87.6138 156.519Z" fill="#0F0F14"/>
<path d="M109.866 148.77C110.147 148.77 110.414 148.626 110.566 148.382L113.938 143.107C114.09 142.871 114.113 142.582 113.998 142.331C113.892 142.079 113.656 141.897 113.39 141.843C113.344 141.836 108.663 140.915 106.715 137.634C106.441 137.177 106.159 136.69 105.878 136.203C103.77 132.556 101.38 128.423 98.2291 128.278C97.7573 128.256 97.3767 128.613 97.3615 129.07C97.3387 129.527 97.6964 129.923 98.153 129.938C100.398 130.044 102.636 133.919 104.439 137.032C104.729 137.535 105.01 138.022 105.284 138.486C106.981 141.333 110.185 142.65 111.921 143.183L109.455 147.042C99.7132 145.49 97.8714 134.581 97.7953 134.109C97.7268 133.653 97.293 133.34 96.844 133.417C96.3873 133.485 96.0829 133.911 96.1514 134.368C96.1742 134.498 98.3204 147.37 109.774 148.763C109.805 148.763 109.843 148.763 109.873 148.763L109.866 148.77Z" fill="#0F0F14"/>
<path d="M88.6032 129.237C88.6032 129.237 86.7157 125.895 81.9134 127.54C77.1111 129.184 79.3638 136.21 82.3472 137.923C85.3306 139.635 88.1161 137.192 88.1161 137.192C88.1161 137.192 92.3324 138.334 95.7267 135.449C99.1211 132.571 98.7329 126.634 95.331 126.352C91.9366 126.071 89.8513 127.981 88.6108 129.237H88.6032Z" fill="#742DD2"/>
<path d="M84.5801 139.369C86.2925 139.369 87.6852 138.532 88.3093 138.083C89.5346 138.311 93.1725 138.699 96.2548 136.081C98.7587 133.949 99.3371 130.554 98.6217 128.301C98.0966 126.657 96.9169 125.644 95.3948 125.515C92.1527 125.248 89.9456 126.839 88.6898 127.989C87.5026 126.763 85.1356 125.553 81.6347 126.748C79.694 127.418 78.5144 128.933 78.3165 131.019C78.0425 133.873 79.7016 137.36 81.9239 138.638C82.8448 139.171 83.7505 139.362 84.5725 139.362L84.5801 139.369ZM88.1038 136.355C87.9059 136.355 87.708 136.423 87.5558 136.56C87.4645 136.644 85.1661 138.577 82.7535 137.2C81.2542 136.339 79.7473 133.584 79.9756 131.186C80.1126 129.747 80.8508 128.788 82.1751 128.331C86.2316 126.938 87.807 129.542 87.8755 129.656C88.0049 129.877 88.2332 130.029 88.4919 130.067C88.7507 130.097 89.0095 130.014 89.1921 129.831C90.6914 128.324 92.4647 126.954 95.2578 127.19C96.3233 127.281 96.8104 128.126 97.0311 128.826C97.5715 130.509 97.1072 133.188 95.1741 134.825C92.1679 137.375 88.3549 136.408 88.3169 136.393C88.2484 136.378 88.1723 136.362 88.1038 136.362V136.355Z" fill="#0F0F14"/>
<path d="M88.1093 138.022C88.4137 138.022 88.7029 137.854 88.8552 137.565C89.0606 137.154 88.9008 136.651 88.4898 136.446C87.9571 136.172 87.6451 135.799 87.5081 135.266C87.059 133.5 88.6421 130.661 89.289 129.709C89.5477 129.328 89.4488 128.811 89.0759 128.552C88.6953 128.293 88.1778 128.385 87.919 128.765C87.6374 129.176 85.1792 132.868 85.8946 135.669C86.1458 136.659 86.7851 137.443 87.7364 137.923C87.8582 137.984 87.9875 138.014 88.1169 138.014L88.1093 138.022Z" fill="#0F0F14"/>
<path d="M16.2246 59.4253C16.4377 59.1056 17.8762 57.8496 17.8762 57.8496L108.055 80.3589C109.486 82.7948 105.475 83.7311 105.475 83.7311L16.9248 61.9754C16.9248 61.9754 16.0115 59.7527 16.2246 59.4329V59.4253Z" fill="#7A6A61"/>
<path d="M24.4297 52.8345L17.8693 57.851C17.8693 57.851 16.4385 59.107 16.2178 59.4267C16.0047 59.7464 16.918 61.9692 16.918 61.9692C17.405 63.6363 19.6578 69.1551 19.6578 69.1551C8.47775 66.8258 1.22479 55.6282 1.22479 55.6282C10.525 49.0665 24.4221 52.8345 24.4221 52.8345H24.4297Z" fill="#C5C9D1"/>
<path d="M105.474 84.5604C105.535 84.5604 105.604 84.5604 105.665 84.5375C105.931 84.4766 108.321 83.8753 109.013 82.2615C109.234 81.7515 109.363 80.937 108.777 79.9245C108.663 79.7342 108.481 79.5896 108.26 79.5363L19.7555 57.4457L24.9384 53.4797C25.1896 53.2894 25.3113 52.9697 25.2504 52.6576C25.1895 52.3455 24.9536 52.0943 24.6492 52.0106C24.0632 51.8507 10.2574 48.2197 0.751732 54.9261C0.386414 55.1849 0.287476 55.6873 0.531013 56.0603C0.835442 56.5322 8.10362 67.5775 19.4968 69.9525C19.8012 70.0134 20.1132 69.9069 20.3035 69.6709C20.5014 69.4349 20.5547 69.1076 20.4329 68.8259C20.4177 68.7803 19.0097 65.3472 18.203 63.132L105.276 84.5299C105.345 84.5452 105.406 84.5528 105.474 84.5528V84.5604ZM107.476 81.0664C107.567 81.3328 107.529 81.4927 107.476 81.6068C107.217 82.2082 106.114 82.6802 105.467 82.8705L17.1223 61.1604C16.833 61.0919 16.5286 61.1757 16.3231 61.3964C16.1176 61.6096 16.0415 61.9217 16.1253 62.2033C16.4601 63.3452 17.5713 66.1769 18.2791 67.9505C9.96062 65.5146 4.05475 58.1232 2.40324 55.8471C9.33655 51.4549 18.69 52.5587 22.4954 53.2666L17.3734 57.1869C17.1223 57.3848 17.0005 57.7045 17.0614 58.0166C17.1223 58.3287 17.3658 58.5799 17.6778 58.656L107.484 81.0664H107.476Z" fill="#0F0F14"/>
<path d="M16.9254 62.8035C17.032 62.8035 17.1385 62.7806 17.2451 62.7426C17.6713 62.5675 17.8767 62.0803 17.7017 61.654C17.4049 60.9309 17.1309 60.124 17.0548 59.7433C17.3288 59.4693 17.9224 58.9212 18.4323 58.4721C18.7748 58.1676 18.8128 57.6424 18.5084 57.2998C18.204 56.9497 17.6789 56.9192 17.3364 57.2237C16.7732 57.7185 15.7838 58.6015 15.5403 58.9669C15.3576 59.2409 15.076 59.6596 16.1643 62.2934C16.2937 62.6132 16.6058 62.8111 16.933 62.8111L16.9254 62.8035Z" fill="#0F0F14"/>
<path d="M19.6643 69.5715C19.7936 69.5715 19.923 69.5106 20.0067 69.3964C20.1437 69.2061 20.0981 68.9473 19.9078 68.8179C14.7858 65.1488 11.7187 58.6099 11.6883 58.5414C11.635 58.4196 11.5209 58.3358 11.3991 58.3054C6.28473 57.2245 1.44436 55.2529 1.39109 55.2377C1.17799 55.1539 0.934443 55.2529 0.850725 55.466C0.767008 55.6792 0.865948 55.9228 1.07905 56.0065C1.12471 56.0293 5.91182 57.9705 11.0262 59.0742C11.5818 60.2161 14.5575 66.0013 19.4283 69.4877C19.5044 69.541 19.5882 69.5638 19.6719 69.5638L19.6643 69.5715Z" fill="#0F0F14"/>
<path d="M24.3297 52.4293C22.9218 52.7566 21.529 53.1372 20.1515 53.5863C18.7892 54.0735 17.3432 54.4237 16.1711 55.3295C16.1407 55.3524 16.1711 55.3981 16.2015 55.3904C17.6247 55.0936 18.949 54.6216 20.357 54.2867L24.52 53.2362C25.0375 53.0992 24.8549 52.3151 24.3297 52.4293Z" fill="#0F0F14"/>
<g opacity="0.25">
<path d="M2.30519 57.12C2.30519 57.12 8.19583 59.2057 11.7424 59.5864C11.7424 59.5864 11.3923 58.6577 11.4989 58.5892C11.6054 58.513 16.9938 56.138 18.9269 55.3616C20.86 54.5928 21.5069 54.5547 21.5069 54.5547C21.5069 54.5547 18.3408 57.493 18.2495 57.5615C18.1506 57.6376 16.6589 58.9926 16.5676 59.2134C16.4762 59.4265 16.4458 59.8071 16.4458 59.8071L107.781 82.5905C107.781 82.5905 105.856 83.8236 105.483 83.7323C105.11 83.6409 17.6407 62.1212 17.6407 62.1212L17.1992 62.4714C17.1992 62.4714 19.1171 67.7847 19.3911 68.4698C19.6727 69.1549 18.7746 69.1549 18.7746 69.1549C18.7746 69.1549 13.5081 67.8456 8.7438 63.872C3.97954 59.8908 2.3128 57.12 2.3128 57.12H2.30519Z" fill="#0F0F14"/>
</g>
<path d="M11.5447 59.0591C12.2677 58.6099 12.9298 58.0771 13.5843 57.529C13.805 57.3463 14.0105 57.1408 14.1475 56.8363C14.1627 56.8134 14.1399 56.7754 14.1094 56.7754C13.4854 56.8211 13.0363 57.1864 12.5112 57.4529C12.0165 57.7345 11.5294 58.0314 11.0652 58.3663C10.639 58.6861 11.088 59.3331 11.537 59.0514L11.5447 59.0591Z" fill="#0F0F14"/>
<path d="M4.33121 55.3606C4.33121 55.3606 11.0819 52.7648 17.7031 53.3738C17.7031 53.3738 15.6178 54.1959 14.1261 54.5537C12.642 54.9115 4.32359 55.3606 4.32359 55.3606H4.33121Z" fill="white"/>
<path d="M74.2619 23.9147C74.2619 23.9147 75.8754 16.744 75.4416 15.6402C75.0154 14.5289 72.4353 12.6334 70.35 15.0693C70.35 15.0693 69.0943 19.3322 68.3104 20.0477C67.5189 20.7633 48.34 25.46 41.7568 28.109C35.166 30.7581 32.449 36.2769 31.0486 40.0754C29.6482 43.8739 20.7666 85.5888 19.8685 92.6149C18.9705 99.641 22.0148 103.006 24.2218 106.088C26.4289 109.171 40.2423 121.138 41.5056 122.432C42.769 123.718 41.3915 127.966 41.5056 128.316C41.6198 128.666 42.8756 131.209 46.0644 129.367C46.0644 129.367 48.0204 121.359 47.617 119.6C47.2136 117.842 29.2905 105.891 26.6496 98.9026C24.0087 91.9146 35.7824 46.5458 37.8221 41.6512C39.8617 36.7565 42.7157 34.3663 51.5289 31.9608C60.342 29.5554 64.5507 28.4287 67.9527 27.5153C71.3546 26.6018 73.3943 25.6351 74.2543 23.9147H74.2619Z" fill="#B27B5F"/>
<g opacity="0.4">
<path d="M75.1019 16.302C75.1019 16.302 73.3819 15.5255 72.4991 15.7386C71.6087 15.9518 70.6421 20.8693 69.6223 21.5696C68.6025 22.2699 46.8055 28.6946 42.4522 30.0344C38.0989 31.3817 33.7989 37.3802 32.7258 40.4783C31.6527 43.5765 26.2415 67.7148 26.2415 67.7148L25.5338 67.2124L25.0923 66.0097L31.2037 39.6714C31.2037 39.6714 34.3545 31.2904 39.6058 29.1437C44.8572 26.9895 68.3209 20.0395 68.3209 20.0395C68.3209 20.0395 68.6177 19.9786 69.1809 18.479C69.744 16.9794 70.7715 14.6425 70.7715 14.6425C70.7715 14.6425 71.601 13.7671 73.4276 13.9878C75.2618 14.2086 75.1019 16.302 75.1019 16.302Z" fill="white"/>
</g>
<g opacity="0.25">
<path d="M46.179 118.732C46.179 118.732 44.4971 120.742 42.6705 120.133C40.8439 119.524 24.8616 104.581 22.7458 99.344C20.63 94.1144 23.857 74.2998 23.857 74.2998C23.857 74.2998 20.9573 87.3091 19.8614 92.2494C18.7654 97.1973 20.6148 101.43 24.5952 106.553C28.5832 111.676 40.3645 120.993 41.1332 122.066C41.9018 123.14 42.054 123.65 42.0464 124.183C42.0464 124.715 41.5137 128.308 41.5137 128.308C41.5137 128.308 42.0921 129.77 43.6675 130.021C45.2429 130.272 45.9279 129.359 45.9279 129.359C45.9279 129.359 48.2567 121.176 47.861 120.064C47.4652 118.953 46.179 118.74 46.179 118.74V118.732Z" fill="#0F0F14"/>
</g>
<g opacity="0.25">
<path d="M74.4763 22.9307C74.4763 22.9307 50.2592 29.7893 43.9651 31.9587C37.6635 34.1282 35.2509 39.982 34.1702 44.3895C33.0971 48.7969 28.1578 70.9637 26.6509 78.5302C25.144 86.1044 25.8974 95.0792 25.8974 95.0792C25.8974 95.0792 29.2461 73.9172 31.9251 63.2678C34.604 52.6183 36.9329 41.1847 40.0152 37.8734C43.0975 34.5545 45.9439 33.4812 52.1694 31.7913C58.395 30.0938 68.1366 27.734 70.9373 26.5541C73.7304 25.3666 74.6361 24.0573 74.4839 22.9383L74.4763 22.9307Z" fill="#0F0F14"/>
</g>
<path d="M43.9497 130.858C44.7412 130.858 45.5859 130.599 46.484 130.081C46.6819 129.967 46.8189 129.777 46.8798 129.556C47.2146 128.186 48.8585 121.267 48.4323 119.409C48.2497 118.602 47.0929 117.59 42.6406 113.966C37.2371 109.567 29.0632 102.921 27.4345 98.605C24.923 91.9443 36.5978 46.7582 38.5994 41.9702C40.4335 37.5855 42.7624 35.2105 51.7582 32.7594C60.2136 30.4529 64.3995 29.3263 67.771 28.4281L68.182 28.3139C71.5231 27.4156 73.9661 26.388 75.0163 24.2794C75.0468 24.2185 75.0696 24.1576 75.0848 24.0891C75.5872 21.8587 76.7059 16.5454 76.2341 15.3274C75.884 14.4292 74.7271 13.3407 73.2583 13.0895C71.9645 12.8687 70.7087 13.3787 69.7346 14.5129C69.6585 14.6043 69.6052 14.7032 69.5671 14.8174C69.0192 16.69 68.1896 18.9204 67.7938 19.3847C67.1013 19.7273 63.0296 20.8615 59.0872 21.9577C52.8998 23.678 45.2054 25.8171 41.4534 27.3243C36.2401 29.4253 32.5869 33.4978 30.2733 39.7779C28.8577 43.6296 19.938 85.5044 19.0476 92.5C18.1876 99.2444 20.8361 102.853 22.9671 105.76C23.1649 106.035 23.3628 106.301 23.5531 106.567C25.0752 108.699 31.3084 114.355 37.5643 119.957C39.2539 121.472 40.5857 122.667 40.913 123.002C41.5447 123.642 41.0272 126.23 40.8293 127.204C40.6771 127.973 40.6162 128.262 40.7151 128.559C40.8521 128.97 41.4762 130.142 42.7396 130.63C43.1201 130.774 43.5235 130.85 43.9421 130.85L43.9497 130.858ZM45.35 128.803C44.5737 129.191 43.9116 129.29 43.3713 129.092C42.8157 128.886 42.4808 128.399 42.3514 128.156C42.3742 128.003 42.4275 127.752 42.4656 127.539C42.8918 125.4 43.2495 123.017 42.1079 121.845C41.7426 121.472 40.4564 120.315 38.6755 118.724C34.4059 114.895 26.4528 107.762 24.9078 105.601C24.7175 105.327 24.512 105.06 24.3142 104.778C22.2593 101.977 19.9304 98.7953 20.7067 92.7132C21.5895 85.7632 30.4407 44.1701 31.8411 40.3564C33.9797 34.5407 37.3284 30.7878 42.0774 28.8696C45.7382 27.3928 53.3869 25.269 59.5363 23.5562C67.1545 21.44 68.4636 21.029 68.8822 20.6484C69.7117 19.8948 70.6783 16.9032 71.1121 15.4645C71.6753 14.8631 72.307 14.6119 72.9767 14.7261C73.8595 14.8783 74.5445 15.5786 74.6815 15.9212C74.8565 16.5835 74.202 20.4048 73.4866 23.6095C72.7864 24.9036 71.1654 25.779 67.7558 26.6925L67.3448 26.8067C63.9809 27.7125 59.7874 28.8315 51.332 31.1456C42.6787 33.5054 39.3452 35.8804 37.0772 41.3231C35.1898 45.8372 23.0508 91.6627 25.8896 99.1911C27.6781 103.934 35.7301 110.48 41.6056 115.261C43.8964 117.125 46.484 119.234 46.8341 119.828C47.0396 120.954 46.1263 125.598 45.3652 128.803H45.35Z" fill="#0F0F14"/>
<path d="M29.0242 69.306C30.1658 69.306 30.9801 69.0243 31.0562 69.0015C31.49 68.8492 31.7183 68.3697 31.5661 67.9358C31.4139 67.5019 30.942 67.2735 30.5082 67.4257C30.3865 67.4638 27.6466 68.3697 25.5765 66.1088C25.2645 65.7663 24.7394 65.7511 24.3969 66.0555C24.0544 66.3676 24.0392 66.8929 24.3436 67.2354C25.881 68.9101 27.6771 69.2983 29.0242 69.2983V69.306Z" fill="#0F0F14"/>
<path d="M109.034 74.7725C109.111 74.7725 109.187 74.7496 109.263 74.704C109.453 74.5822 109.514 74.3234 109.385 74.1254L75.1899 20.9085C73.5612 18.6401 69.0404 18.7542 68.8502 18.7619C68.6219 18.7619 68.4392 18.9598 68.4468 19.1881C68.4468 19.4165 68.6371 19.6068 68.873 19.5916C68.9187 19.5916 73.1426 19.485 74.4973 21.3728L108.684 74.5746C108.76 74.6964 108.897 74.7649 109.034 74.7649V74.7725Z" fill="#0F0F14"/>
<path d="M47.5599 123.27C47.6284 123.27 47.7045 123.255 47.7654 123.217L106.543 89.213C106.74 89.0988 106.809 88.84 106.695 88.6421C106.581 88.4442 106.322 88.3757 106.124 88.4898L47.3468 122.494C47.149 122.608 47.0805 122.867 47.1946 123.064C47.2707 123.202 47.4153 123.27 47.5523 123.27H47.5599Z" fill="#0F0F14"/>
<path d="M46.1864 128.074C46.3843 128.074 46.5593 127.937 46.5974 127.739C46.643 127.51 46.4908 127.297 46.2701 127.251C44.9535 126.993 42.7007 126.338 42.2593 125.691C42.1299 125.501 41.8711 125.447 41.6809 125.577C41.4906 125.706 41.4373 125.965 41.5667 126.155C42.343 127.297 45.7221 127.99 46.1027 128.066C46.1331 128.066 46.1559 128.074 46.1864 128.074Z" fill="#0F0F14"/>
<path d="M44.9914 125.476C45.9199 125.476 46.6886 125.354 47.2974 125.111C47.5105 125.027 47.6171 124.783 47.5258 124.57C47.442 124.357 47.1985 124.258 46.9854 124.342C46.2928 124.623 44.8925 124.852 42.1755 124.342C42.0156 124.311 41.9624 124.311 41.9167 124.304C41.6884 124.304 41.5057 124.486 41.4981 124.715C41.4981 124.936 41.6656 125.118 41.8787 125.133C41.9015 125.133 41.9548 125.149 42.0156 125.156C43.1344 125.362 44.1314 125.468 44.9838 125.468L44.9914 125.476Z" fill="#0F0F14"/>
<path d="M74.2722 24.3278C74.3635 24.3278 74.4548 24.2974 74.5309 24.2365C74.7136 24.0918 74.7364 23.833 74.5994 23.6503C74.1961 23.1479 70.7484 20.2781 68.138 19.7148C67.9097 19.6691 67.689 19.8062 67.6433 20.0345C67.5976 20.2629 67.7346 20.4836 67.9629 20.5293C70.3907 21.0546 73.709 23.8635 73.9525 24.1679C74.0362 24.2745 74.158 24.3278 74.2798 24.3278H74.2722Z" fill="#0F0F14"/>
<path d="M66.6087 21.4264C66.6467 21.4264 66.6924 21.4264 66.7304 21.4036C66.7837 21.3884 72.0122 19.7518 75.1478 19.8126C75.3761 19.8126 75.5588 19.63 75.5664 19.4016C75.5664 19.1732 75.3838 18.9829 75.1554 18.9753C71.8829 18.9144 66.6924 20.5358 66.4717 20.6043C66.251 20.6728 66.1292 20.9088 66.1977 21.1296C66.251 21.3046 66.4184 21.4188 66.5934 21.4188L66.6087 21.4264Z" fill="#0F0F14"/>
<path d="M28.4123 79.8785C29.0897 79.9318 29.7594 79.711 30.2617 79.2619C30.5814 78.9727 30.9239 78.5616 31.2511 77.9755C32.3242 76.0572 31.3729 74.0476 30.4444 74.0628C29.5159 74.0704 25.6953 74.8468 25.1398 75.06C24.5842 75.2731 25.2083 73.7126 25.1398 73.4081C25.0713 73.1037 23.709 70.1958 23.8536 69.2519C23.9905 68.308 24.3026 66.3821 24.3026 66.3821C24.3026 66.3821 23.8003 65.8721 22.9098 66.2298C22.0194 66.5876 20.2842 67.1052 19.7438 68.9626C19.2034 70.82 19.7438 72.1141 19.7438 72.1141C19.7438 72.1141 19.0208 72.7763 18.7011 73.9334C18.3815 75.0904 18.7011 75.6081 18.4957 76.1181C18.2902 76.6281 17.6052 77.4198 17.7118 78.5997C17.8183 79.7796 17.9172 80.1754 17.7118 80.7159C17.5063 81.2563 17.5291 82.147 18.6707 83.2203C19.8123 84.3012 21.1289 84.4915 21.6465 84.0119C22.164 83.5324 22.0651 82.5809 22.0574 82.5276C22.0498 82.4743 22.1488 81.6141 22.1488 81.6141C22.1488 81.6141 22.5902 81.302 22.7576 80.5027C22.9251 79.7034 23.2143 79.2695 23.2143 79.2695L23.6557 79.1173C23.6557 79.1173 23.8383 79.7872 24.9647 79.9318C26.0911 80.0764 27.6817 79.8481 27.8644 79.8481C27.9481 79.8481 28.1916 79.8633 28.4276 79.8861L28.4123 79.8785Z" fill="#F2C5A7"/>
<g opacity="0.4">
<path d="M23.7756 67.3671C23.7756 67.3671 21.6294 68.0674 21.0738 69.8791C20.5182 71.6908 21.2336 73.807 21.2336 73.807C21.2336 73.807 18.8515 71.3711 19.6734 69.1636C20.4954 66.956 23.4027 66.0273 23.4027 66.0273L24.4453 66.2862L23.7832 67.3671H23.7756Z" fill="white"/>
</g>
<g opacity="0.25">
<path d="M23.0611 76.1317C23.0611 76.1317 22.6349 77.5019 21.7141 77.5019C20.7932 77.5019 19.134 76.6418 19.134 76.6418C19.134 76.6418 19.3319 78.0805 20.1843 78.5296C21.0367 78.9787 21.0976 79.2223 21.0976 79.2223L21.7141 79.4659C21.7141 79.4659 21.2041 79.8389 20.6942 80.1358C20.1843 80.4326 18.3578 80.1358 18.3578 80.1358C18.3578 80.1358 18.1142 81.3461 18.1979 81.5592C18.2816 81.7724 18.3501 82.6326 18.6393 82.9066C18.9286 83.173 19.3548 83.683 19.7353 83.8201C20.1158 83.9571 20.8921 84.0104 20.9987 84.0104C21.1052 84.0104 21.9424 83.9114 22.0185 83.2035C22.0946 82.4955 22.3686 81.5745 22.3686 81.5745C22.3686 81.5745 23.0535 79.1918 23.221 78.8417C23.3884 78.4915 23.4797 76.8016 23.5558 76.695C23.6319 76.5885 23.4721 75.9947 23.0688 76.1317H23.0611Z" fill="#0F0F14"/>
</g>
<path d="M21.4198 85.0932C21.4198 85.0932 21.4806 85.0932 21.4883 85.0932C21.9449 85.078 22.3102 84.6898 22.295 84.233C22.2798 83.7763 21.884 83.4109 21.435 83.4261C21.4274 83.4261 19.715 83.4566 19.0224 82.3148C18.3146 81.1577 18.6419 80.2747 18.6571 80.2366C18.7408 80.0159 18.7332 79.7494 18.6267 79.5439C18.3298 78.973 18.8778 77.2298 19.3877 76.1869C19.4638 76.0347 19.4866 75.8596 19.4638 75.6845C19.1518 73.751 20.1792 73.0888 20.301 73.0203C20.6663 72.8223 20.8185 72.4037 20.6815 72.0078C20.6815 71.9926 20.0194 70.0667 20.9631 68.5747C21.6252 67.5242 22.9647 66.8772 24.9359 66.6641C25.3925 66.6184 25.7274 66.2073 25.6741 65.743C25.6285 65.2863 25.2175 64.9513 24.7532 65.0046C22.2417 65.271 20.4913 66.1769 19.5399 67.6917C18.5505 69.2674 18.7484 71.0563 18.9463 71.9622C18.3527 72.5178 17.5383 73.6749 17.7819 75.6769C17.4166 76.4762 16.5794 78.5467 17.0132 79.9474C16.8762 80.5411 16.7544 81.7743 17.6144 83.1749C18.7256 84.9866 21.0012 85.078 21.435 85.078L21.4198 85.0932Z" fill="#0F0F14"/>
<path d="M21.4581 85.0937C21.694 85.0937 21.9299 84.9947 22.0897 84.8044C22.5388 84.2715 23.1096 83.1906 22.8051 82.1021C23.1324 81.6453 23.551 80.8765 23.5814 79.9554C23.9467 79.316 24.8296 77.55 24.4795 76.0199C25.0807 75.2968 26.1006 73.82 25.6972 72.4802C25.5602 72.0311 25.3928 71.5744 25.2329 71.1253C24.9894 70.4554 24.6774 69.618 24.7002 69.2831C24.723 68.7959 25.1112 67.0527 25.3471 66.0708C25.4537 65.6216 25.1797 65.1725 24.7306 65.0659C24.2816 64.9594 23.8326 65.2334 23.726 65.6825C23.6575 65.9566 23.0715 68.4001 23.0335 69.207C23.003 69.8769 23.3075 70.7218 23.6728 71.7038C23.825 72.1225 23.9848 72.564 24.1142 72.9674C24.274 73.5003 23.5434 74.6269 22.9497 75.2435C22.7062 75.4947 22.6453 75.8677 22.7975 76.1798C23.1933 77.0171 22.4703 78.6385 22.0593 79.2856C21.968 79.4302 21.9223 79.6053 21.9299 79.7803C21.9756 80.6177 21.2754 81.3865 21.2678 81.3941C21.009 81.6682 20.9557 82.0792 21.1536 82.3989C21.4733 82.9242 20.8492 83.7159 20.8416 83.7235C20.5448 84.0736 20.5828 84.5989 20.9329 84.8957C21.0927 85.0328 21.283 85.0937 21.4733 85.0937H21.4581Z" fill="#0F0F14"/>
<path d="M23.5371 76.6511C23.8872 76.6511 24.2144 76.4304 24.3286 76.0802C24.4732 75.6463 24.2373 75.1744 23.7959 75.0297C23.7959 75.0297 21.2082 74.1467 20.6907 72.0838C20.5765 71.6347 20.1199 71.3683 19.6785 71.4825C19.2295 71.5966 18.9631 72.0458 19.0772 72.4949C19.8231 75.4484 23.1413 76.5674 23.2783 76.6131C23.362 76.6435 23.4534 76.6511 23.5371 76.6511Z" fill="#0F0F14"/>
<path d="M22.7494 80.5574C23.1223 80.5574 23.4648 80.3062 23.5561 79.9256C23.6703 79.4764 23.3963 79.0273 22.9473 78.9131C22.9092 78.9055 19.903 78.1062 19.4464 75.6627C19.3627 75.2136 18.9212 74.9167 18.4722 75.0005C18.0232 75.0842 17.7264 75.5257 17.8101 75.9748C18.4722 79.4841 22.3841 80.4965 22.5515 80.5345C22.62 80.5498 22.6885 80.5574 22.7494 80.5574Z" fill="#0F0F14"/>
<path d="M21.8539 82.8024C22.2268 82.8024 22.5693 82.5435 22.6606 82.1629C22.7672 81.7138 22.4932 81.2647 22.0441 81.1581C20.6286 80.8156 18.9162 80.1 18.6041 79.5291C18.3834 79.1257 17.8811 78.9734 17.4778 79.1942C17.0744 79.4149 16.9222 79.9173 17.1429 80.3208C17.9572 81.828 21.0472 82.6273 21.656 82.7795C21.7245 82.7947 21.7854 82.8024 21.8539 82.8024Z" fill="#0F0F14"/>
<path d="M30.9844 73.5293C29.957 73.613 28.9371 73.7424 27.9173 73.811C26.7757 73.8947 25.6798 73.8871 24.5915 74.5569C22.9019 75.4552 21.7984 79.3679 23.8456 80.3803C24.7132 80.7609 25.4667 80.6543 26.2963 80.5325C27.278 80.3651 28.3207 80.2052 29.3101 80.2357C29.4623 80.2357 29.5917 80.1215 29.5993 79.9692C29.5993 79.8474 29.5308 79.7409 29.4166 79.7028C28.6936 79.444 28.001 79.3755 27.2552 79.3298C26.5931 79.2232 24.4545 79.5886 24.3631 78.7513C24.2718 77.9292 24.6752 76.4296 25.4819 75.9424C25.9842 75.577 26.8899 75.3867 27.6053 75.2573C28.8306 74.9985 30.0179 74.6178 31.1442 74.0698C31.4182 73.9404 31.2965 73.4988 30.992 73.5369L30.9844 73.5293Z" fill="#0F0F14"/>
</g>
<defs>
<clipPath id="clip0_1213_9292">
<rect width="173.34" height="178.209" fill="white" transform="matrix(-1 0 0 1 173.734 0.84375)"/>
</clipPath>
</defs>
</svg>
