<svg width="50" height="42" viewBox="0 0 50 42" fill="none" xmlns="http://www.w3.org/2000/svg">
<path d="M33.5406 15.6891L22.2906 8.18906C22.0082 8.00062 21.6799 7.89241 21.3407 7.87598C21.0016 7.85955 20.6644 7.93551 20.365 8.09577C20.0657 8.25602 19.8155 8.49455 19.6411 8.7859C19.4668 9.07724 19.3748 9.41047 19.375 9.75V24.75C19.3748 25.0895 19.4668 25.4228 19.6411 25.7141C19.8155 26.0054 20.0657 26.244 20.365 26.4042C20.6644 26.5645 21.0016 26.6405 21.3407 26.624C21.6799 26.6076 22.0082 26.4994 22.2906 26.3109L33.5406 18.8109C33.7978 18.6398 34.0087 18.4077 34.1546 18.1354C34.3005 17.8631 34.3768 17.5589 34.3768 17.25C34.3768 16.9411 34.3005 16.6369 34.1546 16.3646C34.0087 16.0923 33.7978 15.8602 33.5406 15.6891ZM23.125 21.2461V13.2656L29.1203 17.25L23.125 21.2461ZM45.625 0.375H4.375C3.38044 0.375 2.42661 0.770088 1.72335 1.47335C1.02009 2.17661 0.625 3.13044 0.625 4.125V30.375C0.625 31.3696 1.02009 32.3234 1.72335 33.0266C2.42661 33.7299 3.38044 34.125 4.375 34.125H45.625C46.6196 34.125 47.5734 33.7299 48.2766 33.0266C48.9799 32.3234 49.375 31.3696 49.375 30.375V4.125C49.375 3.13044 48.9799 2.17661 48.2766 1.47335C47.5734 0.770088 46.6196 0.375 45.625 0.375ZM45.625 30.375H4.375V4.125H45.625V30.375ZM49.375 39.75C49.375 40.2473 49.1775 40.7242 48.8258 41.0758C48.4742 41.4275 47.9973 41.625 47.5 41.625H2.5C2.00272 41.625 1.52581 41.4275 1.17417 41.0758C0.822544 40.7242 0.625 40.2473 0.625 39.75C0.625 39.2527 0.822544 38.7758 1.17417 38.4242C1.52581 38.0725 2.00272 37.875 2.5 37.875H47.5C47.9973 37.875 48.4742 38.0725 48.8258 38.4242C49.1775 38.7758 49.375 39.2527 49.375 39.75Z" fill="#7E58FF"/>
</svg>
