<svg width="47" height="43" viewBox="0 0 47 43" fill="none" xmlns="http://www.w3.org/2000/svg">
<path d="M13.6641 23.9588C23.497 23.9588 27.7497 17.1255 30.872 11.668" stroke="#7E58FF" stroke-width="2.36" stroke-linecap="round" stroke-linejoin="round"/>
<path d="M23.5 11.668H30.875L33.3329 19.043" stroke="#7E58FF" stroke-width="2.36" stroke-linecap="round" stroke-linejoin="round"/>
<path d="M27.4329 33.7911L33.3329 41.1661M1.375 1.83203H45.625M19.5671 33.7911L13.6671 41.1661M40.7079 33.7911H6.29206C5.96908 33.7913 5.64924 33.7278 5.35081 33.6043C5.05239 33.4807 4.78123 33.2996 4.55285 33.0712C4.32447 32.8429 4.14334 32.5717 4.01981 32.2733C3.89629 31.9749 3.83279 31.655 3.83294 31.332V1.83203H43.1671V31.332C43.1672 31.655 43.1037 31.9749 42.9802 32.2733C42.8567 32.5717 42.6755 32.8429 42.4471 33.0712C42.2188 33.2996 41.9476 33.4807 41.6492 33.6043C41.3508 33.7278 41.0309 33.7913 40.7079 33.7911Z" stroke="#7E58FF" stroke-width="2.36" stroke-linecap="round" stroke-linejoin="round"/>
</svg>
