<svg width="448" height="312" viewBox="0 0 448 312" fill="none" xmlns="http://www.w3.org/2000/svg">
<path d="M241.03 274.469H157.927L137.392 311.58L114.447 274.469H23.9704C10.7295 274.469 0 263.739 0 250.499V87.9703C0 74.7294 10.7295 64 23.9704 64H241.03C254.271 64 265 74.7294 265 87.9703V250.499C265 263.739 254.271 274.469 241.03 274.469Z" fill="#7E58FF"/>
<path d="M119.79 135.026H84.6484V114.331H180.329V135.026H145.187V224.116H119.77V135.026H119.79Z" fill="#741FF0"/>
<g clip-path="url(#clip0_1967_154)">
<g opacity="0.25">
<path d="M283.578 235.664C347.22 235.664 398.813 231.305 398.813 225.928C398.813 220.551 347.22 216.191 283.578 216.191C219.936 216.191 168.344 220.551 168.344 225.928C168.344 231.305 219.936 235.664 283.578 235.664Z" fill="#0F0F14"/>
</g>
<path d="M250.767 199.221C250.767 199.221 235.779 180.907 226.918 177.809C218.057 174.712 212.603 176.288 209.586 182.455C209.586 182.455 203.742 213.86 234.769 212.567C234.769 212.567 248.653 210.129 250.767 199.235V199.221Z" fill="#3E4049"/>
<path d="M255.914 202.723C255.133 200.097 250.756 199.222 250.756 199.222C248.642 210.116 234.758 212.554 234.758 212.554C234.758 212.554 235.66 220.728 237.613 222.088C239.565 223.448 251.147 222.869 251.147 222.869C251.147 222.869 256.695 205.349 255.914 202.723Z" fill="#F2C5A7"/>
<path d="M245.799 224.433C242.136 224.433 238.163 224.19 236.816 223.261C234.891 221.915 233.948 217.04 233.53 214.01C224.737 214.131 218.03 211.613 213.613 206.509C205.533 197.19 208.092 182.794 208.213 182.188C208.24 182.067 208.28 181.932 208.334 181.824C211.714 174.916 217.949 173.165 227.403 176.464C235.927 179.441 249.313 195.224 251.576 197.944C252.963 198.307 256.464 199.479 257.313 202.321C258.121 205.068 254.242 217.915 252.532 223.302C252.357 223.867 251.845 224.258 251.253 224.298C249.919 224.366 247.926 224.446 245.812 224.446L245.799 224.433ZM234.769 211.141C235.483 211.141 236.103 211.68 236.183 212.407C236.628 216.407 237.678 220.393 238.446 220.945C239.415 221.551 245.058 221.713 250.108 221.511C252.572 213.619 254.916 204.61 254.565 203.129C254.161 201.782 251.643 200.853 250.498 200.624C250.175 200.556 249.879 200.381 249.677 200.125C249.529 199.95 234.837 182.08 226.46 179.158C216.293 175.603 212.819 179.239 210.974 182.902C210.718 184.558 209.048 196.934 215.768 204.677C219.808 209.337 226.191 211.505 234.729 211.155C234.742 211.155 234.769 211.155 234.783 211.155L234.769 211.141Z" fill="#0F0F14"/>
<path d="M234.766 213.984C234.092 213.984 233.486 213.499 233.365 212.812C233.231 212.044 233.742 211.304 234.523 211.169C234.672 211.142 247.478 208.745 249.377 198.968C249.525 198.201 250.279 197.689 251.047 197.837C251.815 197.985 252.326 198.726 252.178 199.507C249.916 211.223 235.641 213.862 235.035 213.97C234.954 213.984 234.874 213.997 234.793 213.997L234.766 213.984Z" fill="#0F0F14"/>
<path d="M360.742 200.176C360.527 200.216 360.311 200.27 360.109 200.31C360.325 200.27 360.54 200.216 360.742 200.176Z" fill="#3E4049"/>
<path d="M360.096 200.311C359.557 199.705 359.234 199.328 359.234 199.328C351.572 189.591 334.604 175.276 334.604 175.276L314.094 201.2L329.836 210.613C329.836 210.613 330.079 210.505 330.51 210.33C330.523 210.263 330.537 210.195 330.55 210.128C330.55 210.128 347.518 202.964 360.096 200.311Z" fill="#3E4049"/>
<path d="M371.848 211.918C369.613 210.962 362.57 203.097 360.119 200.31C348.955 202.666 333.845 208.928 330.532 210.342C329.469 214.934 331.098 218.288 331.098 218.288L376.4 218.813C377.827 216.348 374.582 213.103 371.862 211.931L371.848 211.918Z" fill="#F2C5A7"/>
<path d="M360.102 200.31C347.524 202.963 330.556 210.128 330.556 210.128C330.543 210.195 330.529 210.262 330.516 210.33C333.828 208.929 348.938 202.667 360.102 200.297V200.31Z" fill="#3E4049"/>
<path d="M376.378 220.212H376.365L331.063 219.687C330.524 219.687 330.039 219.377 329.797 218.893C329.73 218.744 328.154 215.445 328.948 210.866L313.421 202.45C313.058 202.248 312.788 201.898 312.708 201.48C312.627 201.063 312.721 200.645 312.99 200.309L333.5 174.385C333.743 174.089 334.093 173.887 334.47 173.847C334.86 173.806 335.237 173.927 335.534 174.17C336.234 174.762 352.677 188.673 360.339 198.41C364.352 203.056 370.722 209.883 372.392 210.597C374.479 211.486 377.078 213.56 377.9 216.011C378.317 217.25 378.21 218.462 377.604 219.499C377.348 219.943 376.876 220.212 376.378 220.212ZM332.073 216.859L375.301 217.357C375.301 217.223 375.26 217.075 375.207 216.913C374.776 215.593 373.052 213.977 371.274 213.223C368.392 211.984 359.855 202.207 358.171 200.255C358.158 200.241 358.144 200.228 358.131 200.201C351.775 192.121 338.712 180.661 334.82 177.307L316.276 200.753L331.251 208.873C331.817 209.183 332.113 209.843 331.952 210.462C331.238 213.331 331.723 215.688 332.086 216.859H332.073Z" fill="#0F0F14"/>
<path d="M330.572 211.537C330.02 211.537 329.508 211.228 329.266 210.689C328.943 209.975 329.266 209.127 329.993 208.817C330.68 208.507 347.069 201.303 359.714 198.771C360.482 198.609 361.236 199.121 361.384 199.889C361.532 200.656 361.034 201.411 360.266 201.559C347.931 204.037 331.299 211.349 331.138 211.416C330.949 211.497 330.761 211.537 330.559 211.537H330.572Z" fill="#0F0F14"/>
<path d="M326.402 112.105C326.402 112.105 323.21 133.665 264.738 145.57C264.738 145.57 236.054 150.458 209.578 149.367C209.578 149.367 218.399 209.065 274.73 209.846C331.061 210.627 335.99 172.732 334.953 166.497C333.916 160.262 331.061 151.05 331.061 151.05C331.061 151.05 357.348 132.763 362.412 118.932C359.099 109.007 350.628 99.5 350.628 99.5C350.628 99.5 339.841 108.199 326.402 112.105Z" fill="#3E4049"/>
<path d="M376.728 97.8438C376.728 97.8438 378.721 95.0158 377.994 93.2651C377.266 91.5144 376.391 90.9758 376.391 90.9758C376.391 90.9758 377.657 87.7572 375.61 86.3028C373.563 84.8484 365.483 89.7099 365.483 89.7099L363.153 90.8815C363.153 90.8815 360.568 89.2789 358.292 89.6695C356.003 90.06 350.656 99.5002 350.656 99.5002C350.656 99.5002 359.127 109.008 362.44 118.933C362.44 118.933 370.91 114.839 371.583 109.385C371.583 109.385 374.506 109.439 376.256 107.823C378.007 106.22 376.889 102.665 376.889 102.665C376.889 102.665 378.882 99.352 376.741 97.8438H376.728Z" fill="#F2C5A7"/>
<path d="M270.05 163.914C270.05 163.914 263.896 159.443 259.964 154.986C256.032 150.528 254.658 148.037 254.294 147.956C253.931 147.875 254.294 147.067 254.294 147.067C254.294 147.067 265.647 145.438 271.976 143.997C278.306 142.556 289.389 138.96 289.779 138.906C290.17 138.853 291.274 139.243 291.274 139.243C291.274 139.243 289.712 145.142 285.497 151.404C281.282 157.679 274.535 165.463 274.535 165.463H273.363L270.05 163.914Z" fill="#F2C5A7"/>
<path d="M335.064 168.759C335.064 168.759 323.469 197.376 283.177 201.079C242.871 204.782 227.303 175.573 221.27 167.21C215.237 158.834 212.477 160.666 212.477 160.666C212.477 160.666 225.862 216.216 284.375 209.577C338.673 203.422 335.077 168.759 335.077 168.759H335.064Z" fill="#742DD2"/>
<g opacity="0.25">
<path d="M328 142.889C328 142.889 342.355 135.671 350.624 129.139C358.893 122.608 360.886 115.107 360.886 115.107L359.485 112.01C359.485 112.01 364.697 112.306 365.37 108.791C366.057 105.29 361.128 102.246 360.67 99.7685L360.105 99.2029C360.105 99.2029 365.761 103.068 366.73 100.738C367.713 98.4083 364.791 93.7893 364.791 92.685C364.791 91.5807 365.572 90.8535 365.572 90.8535L368.104 89.251C368.104 89.251 369.127 90.7593 370.689 91.1498C372.252 91.5403 374.15 91.3383 374.15 91.3383C374.15 91.3383 370.541 93.5199 370.447 93.8162C370.353 94.1125 370.891 95.5669 372.05 96.4422C373.221 97.3175 375.847 97.5599 375.605 97.8023C375.362 98.0447 370.986 99.1625 370.784 99.2163C370.595 99.2702 371.295 100.913 372.615 101.748C373.935 102.57 375.618 102.623 375.618 102.623L371.78 104.159C371.78 104.159 371.834 105.815 373.342 106.569C374.851 107.323 376.359 106.933 376.305 107.175C376.251 107.418 375.066 108.832 373.679 109.06C372.292 109.303 371.363 109.653 371.363 109.653C371.363 109.653 370.555 112.737 367.969 115.12C365.384 117.518 362.3 119.187 362.3 119.187C362.3 119.187 359.31 126.419 350.193 135.199C341.063 143.98 332.377 150.013 332.175 150.08C331.973 150.147 330.545 149.461 330.545 149.461L328.013 142.835L328 142.889Z" fill="#0F0F14"/>
</g>
<path d="M276.411 211.274C275.859 211.274 275.293 211.274 274.728 211.274C244.98 210.857 228.456 194.077 219.838 180.072C210.546 164.976 208.283 150.203 208.189 149.583C208.122 149.166 208.256 148.735 208.539 148.425C208.822 148.115 209.226 147.927 209.657 147.954C235.688 149.031 264.237 144.223 264.52 144.183C294.039 138.177 308.947 129.666 316.259 123.592C324.083 117.088 325.012 111.944 325.026 111.903C325.12 111.365 325.511 110.907 326.036 110.759C338.062 107.271 348.027 99.7698 349.562 98.5847C351.717 94.8141 355.541 88.7271 358.06 88.2962C360.08 87.9595 362.127 88.781 363.191 89.3062L364.807 88.4982C368.133 86.5051 374.018 83.4482 376.442 85.1854C378.367 86.559 378.408 88.9157 378.017 90.5855C378.421 91.0434 378.893 91.7437 379.324 92.7537C380.024 94.4505 379.202 96.4705 378.529 97.6959C379.606 99.3119 379.081 101.494 378.408 102.881C378.704 104.187 379.122 107.163 377.223 108.914C375.836 110.193 373.964 110.624 372.752 110.772C371.338 115.539 365.386 119.027 363.568 119.983C358.491 132.723 337.335 148.358 332.742 151.643C333.51 154.202 335.53 161.164 336.378 166.282C337.065 170.416 335.57 182.334 326.561 192.825C319.276 201.309 304.691 211.301 276.425 211.301L276.411 211.274ZM211.3 150.849C212.175 155.145 215.07 166.942 222.289 178.644C234.287 198.09 251.942 208.109 274.755 208.419C297.46 208.742 314.158 202.857 324.38 190.953C333.47 180.368 333.927 168.975 333.55 166.726C332.54 160.666 329.726 151.563 329.699 151.468C329.51 150.876 329.739 150.229 330.251 149.879C330.507 149.704 356.228 131.699 361.076 118.448C361.197 118.098 361.453 117.815 361.79 117.654C363.958 116.603 369.668 113.034 370.153 109.21C370.247 108.496 370.853 107.931 371.58 107.971C372.24 107.971 374.193 107.782 375.27 106.786C376.078 106.045 375.782 103.985 375.513 103.096C375.391 102.706 375.445 102.288 375.647 101.938C375.647 101.924 376.9 99.7159 375.903 99.0157C375.593 98.8002 375.391 98.4635 375.324 98.0999C375.257 97.7229 375.351 97.3458 375.566 97.0361C376.294 95.9991 376.927 94.4235 376.684 93.831C376.172 92.6055 375.607 92.1881 375.607 92.1746C374.96 91.8379 374.799 91.1511 375.068 90.4643C375.068 90.4509 375.876 88.2558 374.785 87.4747C373.923 87.1246 369.816 88.781 366.221 90.9357C366.194 90.9491 366.153 90.9761 366.126 90.9895L363.797 92.1611C363.352 92.3766 362.827 92.3631 362.409 92.0938C361.817 91.7302 359.959 90.8279 358.531 91.0703C357.561 91.4205 354.491 95.6086 351.892 100.201C351.798 100.362 351.69 100.497 351.542 100.605C351.097 100.955 340.795 109.196 327.612 113.223C326.305 117.627 317.74 136.224 265.045 146.957C264.722 147.011 237.156 151.657 211.327 150.835L211.3 150.849Z" fill="#0F0F14"/>
<path d="M274.99 211.542C249.807 211.542 234.24 199.381 225.365 188.514C214.619 175.357 211.212 161.581 211.077 161.001C210.942 160.422 211.171 159.816 211.67 159.48C212.585 158.874 216.06 157.581 222.403 166.375C222.941 167.129 223.547 168.018 224.248 169.055C231.089 179.208 247.1 202.964 283.03 199.664C322.016 196.082 333.624 168.502 333.732 168.22C333.974 167.614 334.607 167.25 335.253 167.344C335.9 167.439 336.398 167.95 336.465 168.61C336.506 168.987 337.341 177.875 331.267 187.612C325.732 196.486 313.128 207.744 284.511 210.99C281.198 211.367 278.02 211.542 274.99 211.542ZM214.403 162.281C215.737 166.509 219.575 176.959 227.628 186.79C241.444 203.664 260.473 210.855 284.188 208.162C305.842 205.711 321.262 198.129 328.762 186.251C331.362 182.144 332.601 178.145 333.18 175.034C331.402 177.714 328.816 181.08 325.194 184.555C317.787 191.665 304.509 200.54 283.285 202.492C245.673 205.94 229.001 181.201 221.877 170.644C221.191 169.634 220.598 168.758 220.086 168.045C217.406 164.328 215.521 162.86 214.376 162.281H214.403Z" fill="#0F0F14"/>
<path d="M329.71 151.495C328.619 148.465 327.084 144.236 325.953 141.274C324.7 137.786 323.003 134.675 322.007 131.053C321.966 130.945 322.115 130.837 322.209 130.918C325.104 133.423 326.572 136.964 328.269 140.277C329.871 143.63 331.272 147.037 332.417 150.593C332.928 152.357 330.37 153.219 329.723 151.495H329.71Z" fill="#0F0F14"/>
<path d="M254.301 198.856C253.871 198.856 253.453 198.668 253.17 198.291C252.699 197.671 252.82 196.769 253.44 196.297C253.911 195.934 300.896 160.045 303.549 132.398C303.63 131.617 304.317 131.051 305.098 131.119C305.879 131.2 306.458 131.886 306.377 132.667C303.603 161.553 257.129 197.065 255.163 198.56C254.907 198.748 254.611 198.843 254.301 198.843V198.856Z" fill="#0F0F14"/>
<path d="M244.104 193.567C243.66 193.567 243.229 193.365 242.946 192.975C242.488 192.342 242.636 191.453 243.269 190.995C243.687 190.699 285.285 160.655 290.551 137.883C290.726 137.115 291.493 136.644 292.261 136.819C293.029 136.994 293.5 137.761 293.325 138.529C287.817 162.338 246.676 192.059 244.926 193.311C244.67 193.487 244.387 193.581 244.104 193.581V193.567Z" fill="#0F0F14"/>
<path d="M273.792 167.682C273.563 167.682 273.32 167.628 273.105 167.507C261.82 161.232 252.649 148.533 252.259 147.994C251.801 147.361 251.949 146.472 252.582 146.014C253.215 145.557 254.104 145.705 254.561 146.338C254.656 146.459 263.759 159.064 274.479 165.029C275.165 165.406 275.408 166.282 275.031 166.969C274.775 167.44 274.29 167.696 273.792 167.696V167.682Z" fill="#0F0F14"/>
<path d="M266.479 174.942C266.277 174.942 266.075 174.901 265.887 174.807C254.413 169.528 241.35 149.974 240.798 149.153C240.367 148.493 240.542 147.618 241.202 147.187C241.862 146.756 242.737 146.931 243.168 147.591C243.303 147.793 256.339 167.293 267.072 172.235C267.785 172.558 268.095 173.406 267.772 174.12C267.529 174.645 267.018 174.942 266.479 174.942Z" fill="#0F0F14"/>
<path d="M362.421 120.364C361.829 120.364 361.277 119.987 361.075 119.395C357.897 109.86 349.668 100.555 349.588 100.46C349.062 99.8679 349.116 98.9791 349.709 98.4539C350.301 97.9287 351.19 97.9826 351.715 98.5751C352.066 98.9791 360.415 108.419 363.782 118.506C364.024 119.246 363.633 120.054 362.879 120.31C362.731 120.364 362.583 120.378 362.435 120.378L362.421 120.364Z" fill="#0F0F14"/>
<path d="M364.361 90.1663C365.627 92.2267 366.718 94.3275 367.593 96.5764C367.997 97.7211 368.616 99.1889 368.253 100.536C367.593 102.407 365.223 102.811 363.647 102.394C361.829 101.963 360.429 100.643 359.836 99.0947C359.796 98.9869 359.917 98.8792 360.011 98.9331C361.735 99.768 363.809 101.034 365.627 100.172C365.829 100.037 365.91 99.9161 365.937 99.8084C365.937 99.8084 365.937 99.8623 365.923 99.8488C365.142 96.9669 363.284 94.2467 361.91 91.5803C361.062 89.9643 363.364 88.6176 364.361 90.1393V90.1663Z" fill="#0F0F14"/>
<path d="M371.555 110.798C371.246 110.798 370.936 110.69 370.667 110.488C369.468 109.532 367.812 107.35 368.472 104.805C367.731 103.526 367.138 101.519 368.041 99.5933C367.3 98.4082 366.748 96.6441 367.569 94.853C366.64 94.1528 365.522 93.0216 365.213 91.5268C365.024 90.611 365.078 89.1836 366.411 87.6484C366.923 87.0558 367.825 86.9885 368.418 87.5002C369.01 88.012 369.077 88.9142 368.566 89.5068C367.879 90.3013 367.973 90.7861 368.014 90.9477C368.216 91.9577 369.697 92.9004 370.195 93.1562C370.599 93.3582 370.882 93.7353 370.963 94.1662C371.044 94.6106 370.922 95.055 370.613 95.3917C369.266 96.8461 370.613 98.3409 370.788 98.5025C371.273 99.0008 371.313 99.7818 370.896 100.347C369.778 101.829 371.124 103.66 371.192 103.741C371.501 104.159 371.569 104.711 371.353 105.182C370.653 106.758 372.39 108.212 372.458 108.266C373.064 108.764 373.158 109.653 372.66 110.259C372.377 110.609 371.973 110.784 371.555 110.784V110.798Z" fill="#0F0F14"/>
<path d="M369.567 95.8648C368.974 95.8648 368.422 95.4877 368.22 94.8952C367.978 94.1545 368.368 93.3465 369.122 93.0906C370.415 92.6597 374.078 91.2457 375.398 89.9664C375.963 89.4142 376.866 89.4277 377.404 89.9933C377.956 90.5589 377.943 91.4612 377.377 91.9998C375.357 93.966 370.563 95.6089 370.025 95.784C369.876 95.8378 369.728 95.8513 369.58 95.8513L369.567 95.8648Z" fill="#0F0F14"/>
<path d="M369.563 101.212C368.862 101.212 368.256 100.7 368.162 99.9866C368.054 99.2055 368.593 98.4918 369.374 98.3841C371.502 98.0878 374.936 97.3606 375.919 96.6873C376.565 96.2429 377.454 96.4045 377.899 97.0509C378.343 97.6973 378.181 98.5861 377.535 99.0305C375.65 100.323 370.734 101.064 369.778 101.199C369.711 101.199 369.643 101.212 369.576 101.212H369.563Z" fill="#0F0F14"/>
<path d="M370.047 106.034C369.333 106.034 368.713 105.496 368.633 104.755C368.552 103.974 369.117 103.274 369.899 103.193C371.851 102.991 375.016 102.344 375.959 101.563C376.565 101.065 377.453 101.146 377.965 101.752C378.463 102.358 378.383 103.247 377.777 103.758C375.837 105.361 371.124 105.926 370.208 106.021C370.154 106.021 370.114 106.021 370.06 106.021L370.047 106.034Z" fill="#0F0F14"/>
<path d="M231.96 155.907L193.916 145.578L189.055 194.651C189.055 194.651 203.72 198.152 211.894 200.199L231.946 155.907H231.96Z" fill="#3E4049"/>
<path d="M189.071 194.652C189.071 194.652 185.138 201.561 184.263 208.671C184.263 208.671 178.418 212.375 179.011 214.408C179.59 216.455 181.341 216.845 183.293 215.674C183.293 215.674 181.341 219.377 183.778 220.441C186.216 221.518 189.811 216.159 189.811 216.159L191.171 216.064C191.171 216.064 189.717 220.253 190.687 221.909C191.656 223.565 195.265 222.784 195.844 221.909C196.423 221.034 197.891 217.047 197.891 217.047L199.346 216.859C199.346 216.859 199.251 221.828 200.221 222.407C201.191 222.986 204.315 223.094 205.284 222.111C206.254 221.128 207.52 214.031 207.52 214.031C207.52 214.031 210.146 216.953 211.021 217.047C211.897 217.142 214.617 214.906 214.617 213.546C214.617 212.186 211.897 200.214 211.897 200.214C203.722 198.167 189.057 194.666 189.057 194.666L189.071 194.652Z" fill="#F2C5A7"/>
<g opacity="0.25">
<path d="M185.434 205.353C185.434 205.353 182.714 207.399 191.279 211.089C199.843 214.793 205.594 214.308 207.142 212.934L206.469 218.954C206.469 218.954 202.227 216.005 200.234 218.685L196.8 218.59C196.8 218.59 194.713 215.668 191.534 217.877L189.07 217.163C189.07 217.163 188.262 213.231 184.801 215.91C184.801 215.91 184.505 215.129 184.505 214.981C184.505 214.833 185.676 211.237 182.512 211.817C179.347 212.396 182.902 209.675 183.293 209.312C183.683 208.948 184.559 207.925 184.559 207.925C184.559 207.925 184.464 204.814 185.434 205.339V205.353Z" fill="#0F0F14"/>
</g>
<path d="M195.152 145.697C194.533 152.713 193.563 163.109 192.877 170.246L190.506 194.796C190.479 194.998 190.426 195.187 190.331 195.362C189.779 196.372 189.241 197.489 188.756 198.58C187.315 201.853 186.184 205.314 185.712 208.855C185.645 209.3 185.389 209.677 185.052 209.892C184.191 210.458 183.302 211.104 182.507 211.764C181.753 212.424 180.783 213.232 180.447 214.121C180.447 214.134 180.447 214.027 180.433 214.013C180.662 214.633 180.824 214.956 181.524 214.848C181.82 214.794 182.197 214.646 182.561 214.431C183.813 213.663 185.281 215.063 184.621 216.343C184.244 217.057 183.962 218.134 184.056 218.659C184.11 218.928 184.15 218.955 184.258 219.036C184.406 219.117 184.446 219.144 184.662 219.104C186.291 218.484 187.584 216.72 188.621 215.333C189.106 214.538 190.318 214.686 191.099 214.606C192.122 214.511 192.944 215.562 192.607 216.531C192.217 217.73 191.88 219.117 191.867 220.248C191.867 220.625 191.867 220.948 192.015 221.191C192.648 221.581 193.752 221.393 194.439 221.137C194.546 221.097 194.641 221.043 194.695 221.016C194.748 220.989 194.775 220.935 194.654 221.083C194.681 221.043 194.775 220.868 194.802 220.814C195.449 219.454 195.987 217.986 196.526 216.545C196.728 216.006 197.199 215.656 197.738 215.575L199.192 215.373C200.014 215.265 200.768 215.845 200.876 216.653C200.903 217.474 200.876 218.349 200.957 219.184C200.997 219.858 201.132 220.895 201.293 221.339C201.293 221.326 201.239 221.272 201.199 221.245C201.145 221.177 200.997 221.11 201.037 221.124C201.899 221.447 203.502 221.447 204.283 221.056C205.024 219.225 205.683 216.1 206.114 213.784C206.262 212.976 207.044 212.438 207.852 212.586C208.188 212.653 208.471 212.815 208.686 213.043C209.521 213.932 210.37 214.862 211.339 215.562C211.393 215.602 211.461 215.629 211.447 215.629C211.447 215.629 211.447 215.629 211.42 215.629C211.326 215.589 211.137 215.575 211.07 215.589C210.962 215.589 210.989 215.602 211.03 215.589C211.865 215.185 212.848 214.309 213.198 213.515C213.117 213.272 213.077 212.491 212.955 212.02C212.363 208.707 211.232 203.9 210.531 200.546C210.451 200.223 210.491 199.9 210.626 199.617L220.726 177.505C223.688 171.081 227.755 161.668 231.378 155.648C231.58 155.312 232.011 155.204 232.334 155.406C232.617 155.581 232.751 155.918 232.644 156.228C231.378 160.106 229.829 163.85 228.213 167.566C225.102 174.515 216.524 193.625 213.292 200.843L213.386 199.913C214.127 203.347 215.272 208.061 215.878 211.495C215.999 212.155 216.147 212.882 216.174 213.596C216.174 214.269 215.878 214.929 215.568 215.4C214.854 216.478 214.06 217.205 213.009 217.905C212.498 218.201 212.053 218.484 211.339 218.565C211.016 218.605 210.545 218.524 210.249 218.376C208.686 217.541 207.663 216.289 206.478 215.063L209.05 214.323C208.754 215.952 208.417 217.555 208.013 219.184C207.609 220.544 207.367 222.214 206.289 223.305C204.7 224.692 200.768 224.733 199.192 223.48C198.802 223.13 198.519 222.524 198.425 222.174C197.913 220.383 197.927 218.686 197.913 216.855L199.61 218.363L198.156 218.551L199.368 217.582C198.856 218.942 198.358 220.248 197.752 221.622C197.576 221.985 197.361 222.484 197.119 222.807C195.408 224.854 190.587 225.123 189.348 222.43C188.433 220.154 189.2 217.797 189.847 215.589L191.355 217.555L189.995 217.649L191.112 217.003C189.564 219.063 188.015 221.15 185.403 221.972C184.029 222.349 182.359 221.689 181.645 220.396C180.837 218.969 181.161 217.312 181.645 215.939C181.767 215.629 181.874 215.36 182.049 215.01L184.096 216.949C181.834 218.43 178.75 217.999 177.794 215.239C176.501 212.047 181.349 209.003 183.544 207.455L182.884 208.505C183.221 205.933 183.881 203.415 184.743 200.991C185.618 198.553 186.615 196.264 187.867 193.961L187.692 194.527C188.5 186.501 190.628 165.506 191.436 157.722C191.84 153.628 192.311 149.548 192.755 145.468C192.944 143.946 195.287 144.04 195.193 145.71L195.152 145.697Z" fill="#0F0F14"/>
<path d="M211.924 201.621C211.817 201.621 211.695 201.608 211.574 201.581C203.494 199.561 188.896 196.073 188.748 196.033C187.981 195.844 187.509 195.09 187.698 194.322C187.886 193.555 188.64 193.083 189.408 193.272C189.556 193.312 204.181 196.8 212.261 198.82C213.029 199.009 213.486 199.776 213.298 200.544C213.136 201.19 212.557 201.621 211.924 201.621Z" fill="#0F0F14"/>
<path d="M182.288 214.686C182.989 213.824 183.904 213.204 184.86 212.652C185.184 212.464 185.574 212.329 186.234 212.477C186.315 212.491 186.382 212.558 186.409 212.639C186.571 213.299 186.463 213.703 186.274 214.026C185.749 214.995 185.157 215.938 184.322 216.665C183.015 217.743 181.251 216.019 182.275 214.686H182.288Z" fill="#0F0F14"/>
<path d="M206.118 213.814C206.185 212.831 206.441 211.861 206.71 210.918C207.114 209.855 207.128 208.885 208.272 208.171C208.353 208.117 208.447 208.144 208.501 208.212C209 208.791 209.121 209.302 209.148 209.801C209.228 211.282 209.228 212.79 208.919 214.245C208.488 215.942 206.01 215.551 206.104 213.827L206.118 213.814Z" fill="#0F0F14"/>
<path d="M151.356 52.0416C151.356 52.0416 147.787 44.7696 138.078 41.0393C128.368 37.2956 119.184 31.6935 115.077 14.8601C114.781 10.6989 124.652 4.10022 127.736 5.05635C127.736 5.05635 130.766 19.735 138.347 24.9332C145.929 30.1313 164.5 36.9589 166.493 46.2644" fill="#742DD2"/>
<path d="M151.364 53.4675C150.838 53.4675 150.34 53.1712 150.084 52.6729C150.03 52.5787 146.569 45.8318 137.56 42.3574C127.676 38.5464 117.939 32.621 113.684 15.1951C113.67 15.1143 113.657 15.0335 113.643 14.9662C113.428 11.9901 116.552 9.02739 118.451 7.53259C120.754 5.70112 125.373 2.84618 128.147 3.70805C128.645 3.85618 129.009 4.27365 129.117 4.77192C129.144 4.92005 132.12 18.9523 139.149 23.7734C141.156 25.147 144.038 26.6822 147.108 28.3252C155.659 32.8904 166.298 38.5733 167.887 45.98C168.049 46.7476 167.564 47.5017 166.796 47.6633C166.029 47.8249 165.275 47.3401 165.113 46.5725C163.807 40.4586 153.801 35.1124 145.775 30.83C142.637 29.1601 139.688 27.5845 137.547 26.1166C130.719 21.4437 127.46 9.99699 126.585 6.41485C125.252 6.63032 122.733 7.76152 120.229 9.75459C117.643 11.815 116.498 13.6734 116.485 14.6565C120.646 31.5033 130.073 36.4186 138.584 39.7045C148.697 43.5964 152.468 51.0973 152.629 51.4071C152.98 52.1073 152.683 52.9692 151.983 53.3059C151.781 53.4001 151.566 53.454 151.364 53.454V53.4675Z" fill="#0F0F14"/>
<path d="M158.897 62.3386C158.897 62.3386 153.51 69.045 136.246 73.2601C118.982 77.4752 109.972 70.459 108.383 68.3178C106.794 66.1766 107.117 57.6656 109.663 56.5748C112.208 55.4706 121.217 60.6014 129.068 60.4398C136.919 60.2782 153.887 49.1008 153.887 49.1008C153.887 49.1008 155.301 47.5118 159.382 46.8923C163.449 46.2728 166.586 46.5556 166.586 46.5556L166.411 49.3567" fill="#742DD2"/>
<path d="M125.986 75.9804C115.105 75.9804 108.843 71.3075 107.254 69.1528C105.772 67.1463 105.691 62.1906 106.553 58.9855C107.078 57.0059 107.94 55.7535 109.112 55.2552C110.768 54.5415 113.233 55.3225 116.95 56.5076C120.545 57.6523 125.016 59.0798 129.043 58.999C136.395 58.8508 152.946 48.0101 153.108 47.8889C153.135 47.8755 153.148 47.862 153.175 47.8485C153.471 47.6735 160.433 43.6604 166.911 45.1552C167.45 45.2764 167.867 45.7073 167.975 46.246L168.46 48.5353C168.621 49.3029 168.136 50.0571 167.369 50.2187C166.601 50.3803 165.847 49.8955 165.685 49.1279L165.403 47.7677C160.447 47.0944 155.074 50.0436 154.643 50.286C153.525 51.0267 137.163 61.6788 129.11 61.827C124.639 61.9212 119.899 60.413 116.101 59.201C113.92 58.5142 110.943 57.558 110.243 57.8408C110.108 57.8947 109.664 58.3526 109.3 59.6992C108.506 62.6484 108.883 66.5538 109.543 67.4291C110.984 69.3683 119.67 75.8054 135.924 71.8327C152.38 67.8196 157.754 61.4634 157.807 61.396C158.306 60.79 159.195 60.6958 159.801 61.194C160.407 61.6923 160.501 62.5676 160.016 63.1871C159.787 63.4699 154.131 70.3244 136.597 74.5934C132.679 75.5495 129.137 75.94 125.986 75.94V75.9804Z" fill="#0F0F14"/>
<path d="M203.355 149.035C203.355 149.035 250.165 152.751 288.572 139.379C326.979 126.007 335.046 107.732 321.767 87.438C321.767 87.438 322.36 40.2508 291.629 16.1454C260.898 -7.94651 188.582 -5.45517 166.699 46.2434C157.811 69.258 164.436 106.749 164.436 106.749C164.436 106.749 148.303 142.503 203.355 149.035Z" fill="#3E4049"/>
<g opacity="0.5">
<path d="M325.251 93.7975C325.143 93.6224 325.035 93.4474 324.914 93.2858C324.914 93.2858 324.914 93.205 324.914 93.0703C325.022 93.3127 325.143 93.5686 325.251 93.811V93.7975Z" fill="white"/>
</g>
<g opacity="0.5">
<path d="M166.94 132.92C162.456 126.793 161.877 120.167 162.389 115.117C161.985 120.342 162.658 127.008 166.94 132.92Z" fill="white"/>
</g>
<g opacity="0.5">
<path d="M162.089 80.6855C162.358 95.041 164.432 106.771 164.432 106.771C164.432 106.771 162.883 110.205 162.385 115.133C162.802 109.854 164.311 106.07 164.311 106.07C164.311 106.07 161.994 94.7852 162.089 80.699V80.6855Z" fill="white"/>
</g>
<path d="M283.312 42.7417C290.947 43.1187 297.412 48.4785 299.23 55.8986C302.004 67.2106 306.017 89.296 297.842 98.1302C286.638 110.237 251.746 111.732 227.331 114.452C202.929 117.172 186.688 118.155 180.763 100.339C174.838 82.5223 178.312 60.4638 180.359 58.5112C182.406 56.5585 208.491 53.34 234.832 49.677C252.419 47.2396 270.64 42.1087 283.312 42.7282V42.7417Z" fill="#F2C5A7"/>
<path d="M218.477 150.91C209.266 150.91 203.395 150.465 203.233 150.452C203.22 150.452 203.193 150.452 203.179 150.452C183.141 148.082 170.011 141.604 164.139 131.208C157.972 120.3 162.012 108.907 162.954 106.577C162.214 102.187 156.84 67.8068 165.351 45.7215C174.307 24.5653 192.689 9.45566 217.131 3.15325C230.436 -0.280751 244.737 -0.927152 258.487 1.28139C271.859 3.43606 283.939 8.32446 292.49 15.0174C308.691 27.7165 316.165 46.7449 319.585 60.4809C322.925 73.8803 323.167 84.7075 323.167 87.0103C328.918 95.9522 330.507 104.396 327.881 112.085C324.016 123.438 310.94 133.066 289.016 140.702C264.156 149.361 235.567 150.883 218.464 150.883L218.477 150.91ZM203.489 147.624C204.822 147.718 250.797 151.031 288.1 138.049C309.162 130.723 321.646 121.687 325.214 111.196C327.571 104.261 326.009 96.5447 320.582 88.2358C320.434 87.9934 320.353 87.7241 320.353 87.4413C320.353 86.9699 320.568 40.658 290.753 17.2933C273.691 3.90739 243.714 -0.765552 217.844 5.91393C194.278 12.0009 176.583 26.518 167.991 46.7988C159.372 69.14 165.755 106.133 165.823 106.51C165.877 106.793 165.823 107.076 165.715 107.345C165.661 107.466 160.557 119.142 166.617 129.848C172.031 139.382 184.434 145.375 203.476 147.637L203.489 147.624Z" fill="#0F0F14"/>
<path d="M207.091 117.446C194.055 117.446 183.848 114.107 179.417 100.788C173.397 82.6889 176.71 60.038 179.377 57.4927C181.235 55.7151 192.385 54.0587 221.447 50.0995C225.756 49.507 230.186 48.901 234.63 48.295C240.812 47.4331 247.087 46.2481 253.161 45.0899C264.392 42.9487 275.004 40.9287 283.366 41.3462C291.554 41.7502 298.638 47.5947 300.59 55.5805C303.607 67.889 307.391 89.9071 298.867 99.1183C288.955 109.824 262.358 112.423 238.899 114.726C234.886 115.117 231.089 115.494 227.48 115.898C220.248 116.706 213.34 117.473 207.078 117.473L207.091 117.446ZM181.329 59.5666C179.794 61.5462 176.293 82.4061 182.11 99.8993C187.659 116.571 202.849 115.763 227.183 113.043C230.819 112.639 234.617 112.262 238.644 111.871C260.473 109.73 287.622 107.077 296.806 97.1656C304.711 88.6277 300.173 65.7074 297.857 56.2403C296.2 49.4666 290.194 44.5109 283.245 44.1607C275.219 43.7702 264.769 45.7633 253.699 47.8641C247.585 49.0222 241.27 50.2342 235.021 51.0961C230.577 51.7155 226.146 52.3215 221.824 52.9006C203.846 55.3515 183.484 58.1257 181.316 59.5532L181.329 59.5666Z" fill="#0F0F14"/>
<path d="M256.46 85.2727C256.971 86.0672 258.277 88.1949 259.314 87.4004C262.533 85.2996 265.671 83.0507 268.943 81.0307C273.737 77.9872 278.639 74.9976 283.716 72.4255C284.187 72.1831 284.672 72.8564 284.241 73.22C281.009 75.9941 277.508 78.5663 274.007 80.9903C269.872 83.8317 265.711 86.6059 261.213 88.8683C259.786 89.6359 258.453 89.986 257.173 88.774C256.284 87.8852 255.827 86.7675 255.557 85.5959C255.503 85.34 255.665 85.0841 255.921 85.0303C256.136 84.9764 256.352 85.0976 256.446 85.2727H256.46Z" fill="#0F0F14"/>
<path d="M228.488 89.5973C228.515 91.3883 227.936 93.8662 225.809 94.1625C224.516 94.2298 223.156 93.6911 221.903 93.4083C217.957 92.2771 214.146 90.8497 210.349 89.3279C206.592 87.8062 202.794 86.1498 199.212 84.2375C198.74 83.9817 199.01 83.2141 199.548 83.3487C208.1 85.463 216.395 88.5199 224.57 91.7385C224.772 91.8193 225.203 91.9809 225.405 92.0482C225.512 92.0886 225.58 92.1021 225.66 92.129C225.701 92.1559 225.714 92.129 225.741 92.129C225.93 92.1425 226.078 92.0347 226.293 91.8462C226.899 91.2133 227.249 90.2975 227.546 89.4357C227.707 88.9374 228.475 89.0586 228.475 89.5838L228.488 89.5973Z" fill="#0F0F14"/>
<path d="M160.228 64.3986C160.228 64.3986 247.156 65.9204 313.668 46.7034C313.668 46.7034 318.542 45.4106 315.97 37.3575C313.398 29.3044 302.988 32.119 302.988 32.119C302.988 32.119 246.132 44.0101 225.366 46.259C204.601 48.5079 166.584 49.087 163.878 49.5045C161.171 49.9219 155.771 56.0493 160.242 64.3852L160.228 64.3986Z" fill="#742DD2"/>
<g opacity="0.25">
<path d="M159.305 63.4037C159.305 63.4037 246.232 64.9254 312.744 45.7085C312.744 45.7085 316.071 44.8197 315.774 39.9717C316.138 40.5373 316.448 41.1971 316.677 41.9513C319.249 50.0044 314.374 51.2972 314.374 51.2972C247.862 70.5276 162.308 69.0059 162.308 69.0059C161.204 66.9589 162.254 65.1678 162.173 63.4306C162.2 63.471 159.278 63.3633 159.305 63.4037Z" fill="#0F0F14"/>
</g>
<path d="M164.291 65.8522C161.732 65.8522 160.291 65.8253 160.183 65.8253C159.672 65.8253 159.2 65.529 158.958 65.0711C155.914 59.4017 157.234 54.9846 158.298 52.8568C159.564 50.3251 161.705 48.4263 163.631 48.1166C164.533 47.9819 168.061 47.8472 175.32 47.6048C188.679 47.147 211.047 46.3928 225.187 44.8576C245.428 42.6626 300.87 31.1081 302.634 30.7445C306.701 29.6672 314.943 29.5729 317.299 36.9392C318.417 40.4271 318.39 43.2551 317.232 45.3694C316.074 47.4836 314.215 48.0358 314 48.0896C256.255 64.7749 182.336 65.8522 164.277 65.8522H164.291ZM161.099 62.9838C170.297 63.0646 251.218 63.2666 313.259 45.329C313.3 45.329 314.202 45.0327 314.781 43.9284C315.508 42.5414 315.441 40.4271 314.593 37.7876C312.451 31.1081 303.698 33.384 303.334 33.4917C303.307 33.4917 303.28 33.4917 303.254 33.5052C302.688 33.6264 246.101 45.4367 225.497 47.6722C211.249 49.2208 188.827 49.975 175.414 50.4328C169.502 50.6348 164.843 50.7964 164.062 50.9176C163.348 51.0254 161.826 52.1162 160.83 54.1092C160.062 55.6579 159.12 58.7957 161.086 62.9838H161.099Z" fill="#0F0F14"/>
<path d="M274.295 100.302L275.588 100.033C281.083 98.8748 284.584 93.4747 283.426 87.9803L280.719 75.2139L261.125 87.1588L262.256 92.4647C263.414 97.9591 268.814 101.46 274.309 100.302H274.295Z" fill="#0F0F14"/>
<path d="M212.983 108.368H211.663C206.047 108.327 201.522 103.749 201.563 98.1332L201.644 85.084L223.244 92.8408L223.204 98.2679C223.163 103.883 218.585 108.408 212.969 108.368H212.983Z" fill="#0F0F14"/>
<path d="M208.376 99.4941C210.392 99.4941 212.026 97.4562 212.026 94.9424C212.026 92.4285 210.392 90.3906 208.376 90.3906C206.36 90.3906 204.727 92.4285 204.727 94.9424C204.727 97.4562 206.36 99.4941 208.376 99.4941Z" fill="white"/>
<g opacity="0.35">
<path d="M218.393 101.512C219.113 99.9191 218.747 98.1983 217.574 97.6682C216.402 97.1381 214.868 97.9994 214.148 99.592C213.427 101.185 213.794 102.905 214.967 103.435C216.139 103.966 217.673 103.104 218.393 101.512Z" fill="white"/>
</g>
<path d="M269.017 93.7988C271.032 93.7988 272.666 91.7609 272.666 89.247C272.666 86.7332 271.032 84.6953 269.017 84.6953C267.001 84.6953 265.367 86.7332 265.367 89.247C265.367 91.7609 267.001 93.7988 269.017 93.7988Z" fill="white"/>
<g opacity="0.35">
<path d="M279.042 95.8271C279.762 94.2345 279.395 92.5137 278.223 91.9836C277.05 91.4535 275.516 92.3148 274.796 93.9074C274.076 95.5 274.443 97.2207 275.615 97.7508C276.787 98.2809 278.322 97.4196 279.042 95.8271Z" fill="white"/>
</g>
<path d="M327.962 219.752L327.95 223.064C327.947 223.808 328.548 224.413 329.292 224.416L377.624 224.585C378.367 224.587 378.972 223.986 378.975 223.243L378.987 219.93C378.989 219.186 378.388 218.581 377.645 218.578L329.313 218.41C328.569 218.407 327.964 219.008 327.962 219.752Z" fill="#742DD2"/>
<path d="M377.51 226.013L329.421 225.838C328.707 225.838 328.02 225.595 327.495 225.165C326.889 224.666 326.539 223.953 326.539 223.212V219.589C326.553 218.148 327.845 216.99 329.434 216.99L377.524 217.165C379.113 217.165 380.406 218.35 380.406 219.791V223.414C380.392 224.154 380.042 224.868 379.436 225.353C378.911 225.784 378.224 226.013 377.51 226.013ZM329.381 222.996C329.381 222.996 329.407 222.996 329.434 222.996L344.625 223.05L377.537 223.171C377.537 223.171 377.564 223.171 377.591 223.171V220.007C377.591 220.007 377.578 220.007 377.551 220.007L329.461 219.832C329.461 219.832 329.434 219.832 329.407 219.832V222.996H329.381Z" fill="#0F0F14"/>
<path d="M338.469 218.2C348.717 205.138 366.628 205.138 366.628 205.138C369.159 207.131 368.122 208.275 368.122 208.275C354.306 208.464 342.684 218.2 342.684 218.2H338.469Z" fill="#742DD2"/>
<path d="M342.7 219.16H338.485C338.122 219.16 337.799 218.958 337.637 218.621C337.475 218.298 337.516 217.907 337.745 217.625C348.168 204.346 365.903 204.198 366.658 204.198C366.873 204.198 367.075 204.266 367.25 204.4C368.529 205.41 369.23 206.42 369.311 207.417C369.378 208.292 368.947 208.817 368.866 208.912C368.691 209.1 368.435 209.221 368.179 209.221C354.847 209.41 343.455 218.837 343.333 218.931C343.158 219.079 342.943 219.146 342.727 219.146L342.7 219.16ZM340.519 217.261H342.364C344.209 215.78 354.699 207.848 367.344 207.349C367.237 207.067 366.967 206.649 366.321 206.097C363.978 206.178 349.717 207.121 340.519 217.261Z" fill="#0F0F14"/>
<path d="M234.758 215.938C234.758 215.938 239.027 219.494 242.219 219.992C245.41 220.49 248.656 210.04 255.079 208.478C255.079 208.478 255.457 206.512 254.042 206.471C252.682 206.431 247.632 208.303 242.946 216.693C242.569 217.366 241.734 217.649 241.02 217.325C239.458 216.612 236.765 215.292 234.772 213.865C234.772 213.865 234.125 215.157 234.772 215.938H234.758Z" fill="#742DD2"/>
<path d="M242.461 220.709C242.353 220.709 242.232 220.708 242.111 220.682C238.771 220.156 234.489 216.628 234.313 216.48C234.287 216.453 234.246 216.426 234.219 216.386C233.303 215.281 234.044 213.706 234.125 213.531C234.219 213.342 234.394 213.208 234.596 213.154C234.798 213.1 235.014 213.154 235.175 213.261C237.155 214.675 239.862 215.995 241.303 216.655C241.666 216.817 242.111 216.669 242.313 216.318C247.228 207.525 252.574 205.68 254.056 205.734C254.742 205.76 255.146 206.084 255.375 206.353C256.022 207.161 255.806 208.44 255.779 208.588C255.725 208.858 255.523 209.073 255.254 209.141C251.982 209.935 249.45 213.41 247.43 216.211C245.625 218.702 244.171 220.695 242.461 220.695V220.709ZM235.297 215.443C235.822 215.874 239.592 218.85 242.34 219.281C243.35 219.429 244.831 217.382 246.285 215.389C248.346 212.534 250.904 209.019 254.433 207.915C254.433 207.659 254.392 207.39 254.285 207.255C254.258 207.228 254.217 207.174 254.042 207.161C253.059 207.134 248.184 208.79 243.579 217.019C243.026 218.015 241.774 218.433 240.737 217.961C239.444 217.369 237.141 216.264 235.202 214.999C235.202 215.16 235.216 215.322 235.297 215.43V215.443Z" fill="#0F0F14"/>
<path d="M250.138 222.93L255.539 222.877C257.774 218.89 259.188 208.36 259.188 208.36L255.485 207.794L251.391 222.149L250.125 222.93H250.138Z" fill="#742DD2"/>
<path d="M250.134 224.344C249.501 224.344 248.948 223.927 248.773 223.321C248.598 222.701 248.854 222.055 249.393 221.718L250.187 221.233L254.12 207.403C254.322 206.716 254.995 206.272 255.709 206.393L259.412 206.959C260.18 207.08 260.705 207.78 260.611 208.548C260.557 208.992 259.129 219.388 256.786 223.563C256.53 224.007 256.072 224.29 255.561 224.29L250.16 224.344H250.147H250.134ZM256.517 209.383L253.069 221.476H254.658C255.992 218.486 257.082 212.79 257.581 209.544L256.517 209.383Z" fill="#0F0F14"/>
<path d="M289.604 210.653C289.604 210.653 290.897 213.939 289.604 215.353C288.311 216.767 285.281 222.221 285.281 222.221H294.614C294.614 222.221 294.87 217.413 297.145 212.296C299.421 207.178 296.028 201.59 293.792 201.522" fill="#742DD2"/>
<path d="M269.879 201.522C269.879 201.522 267.159 207.003 268.707 211.111C270.269 215.218 270.108 218.275 269.057 219.702C268.007 221.13 264.492 222.234 264.492 222.234H274.808C274.808 222.234 280.504 218.1 276.1 211.38L275.616 210.868" fill="#742DD2"/>
<path d="M281.163 200.449C281.163 200.449 282.577 195.749 289.041 196.462C295.491 197.176 294.643 206.562 291.397 209.525C288.152 212.488 284.004 210.225 284.004 210.225C284.004 210.225 279.062 212.824 274.025 210.185C268.989 207.546 267.817 200.031 271.965 198.725C276.126 197.419 279.25 199.223 281.163 200.449Z" fill="#742DD2"/>
<path d="M278.894 212.795C277.211 212.795 275.298 212.458 273.359 211.448C269.494 209.428 267.77 205.2 268.053 202.062C268.269 199.719 269.535 198.008 271.541 197.375C275.46 196.15 278.625 197.375 280.591 198.453C281.87 196.567 284.563 194.547 289.196 195.059C291.957 195.369 293.95 197.012 294.825 199.705C295.997 203.301 294.865 208.297 292.361 210.586C289.236 213.441 285.506 212.404 283.998 211.798C283.055 212.189 281.183 212.808 278.894 212.808V212.795ZM274.84 199.692C274.073 199.692 273.265 199.813 272.39 200.082C271.272 200.432 270.949 201.483 270.881 202.304C270.693 204.445 271.959 207.489 274.679 208.916C279.002 211.192 283.284 208.984 283.338 208.957C283.755 208.741 284.267 208.741 284.685 208.957C284.819 209.024 288.011 210.68 290.448 208.458C291.97 207.071 293.034 203.314 292.132 200.553C291.607 198.937 290.516 198.035 288.886 197.86C283.836 197.308 282.638 200.5 282.53 200.863C282.395 201.281 282.072 201.617 281.655 201.765C281.237 201.914 280.779 201.873 280.402 201.631C278.773 200.594 276.982 199.678 274.84 199.678V199.692Z" fill="#0F0F14"/>
<path d="M283.986 211.636C283.582 211.636 283.164 211.461 282.895 211.125C282.396 210.519 282.477 209.63 283.083 209.118C283.582 208.701 283.824 208.229 283.851 207.637C283.918 205.469 281.158 202.385 280.188 201.483C279.609 200.944 279.582 200.042 280.121 199.476C280.659 198.897 281.548 198.87 282.127 199.409C282.612 199.853 286.814 203.88 286.692 207.731C286.652 209.145 286.032 210.384 284.901 211.327C284.632 211.542 284.309 211.65 283.999 211.65L283.986 211.636Z" fill="#0F0F14"/>
<path d="M274.819 223.649H264.503C263.803 223.649 263.211 223.137 263.103 222.45C262.995 221.764 263.413 221.09 264.086 220.875C265.325 220.484 267.399 219.569 267.937 218.855C268.665 217.872 268.786 215.246 267.412 211.623C265.661 207.004 268.072 201.739 268.18 201.523C268.516 200.809 269.365 200.5 270.065 200.836C270.779 201.173 271.089 202.008 270.752 202.722C270.725 202.762 268.745 207.139 270.065 210.627C271.654 214.828 271.721 218.545 270.227 220.565C270.159 220.659 270.092 220.74 270.011 220.834H274.334C275.357 219.919 277.97 216.916 275.021 212.283L274.63 211.866C274.092 211.3 274.105 210.398 274.671 209.859C275.236 209.32 276.139 209.334 276.677 209.899L277.162 210.411C277.162 210.411 277.283 210.546 277.324 210.613C281.391 216.835 278.024 221.696 275.667 223.393C275.425 223.568 275.129 223.662 274.832 223.662L274.819 223.649Z" fill="#0F0F14"/>
<path d="M294.603 223.646H285.271C284.772 223.646 284.301 223.377 284.045 222.946C283.789 222.515 283.789 221.976 284.032 221.532C284.355 220.953 287.183 215.889 288.543 214.394C288.934 213.963 288.718 212.334 288.274 211.162C287.991 210.435 288.355 209.614 289.082 209.317C289.809 209.035 290.63 209.385 290.927 210.125C291.196 210.812 292.448 214.327 290.657 216.307C290.011 217.02 288.745 219.081 287.735 220.804H293.324C293.566 218.946 294.199 215.431 295.842 211.714C297.027 209.035 296.354 206.247 295.33 204.523C294.63 203.352 293.93 202.948 293.755 202.934C292.974 202.907 292.354 202.261 292.381 201.466C292.408 200.685 293.054 200.066 293.849 200.093C295.182 200.133 296.583 201.143 297.673 202.88C299.155 205.223 300.138 209.088 298.455 212.859C296.313 217.68 296.044 222.245 296.044 222.286C296.004 223.04 295.384 223.632 294.63 223.632L294.603 223.646Z" fill="#0F0F14"/>
<path d="M361.062 122.71L363.015 79.3343C363.015 79.3343 367.109 76.0619 371.58 79.3343L370.072 122.32C370.072 122.32 366.422 125.148 361.062 122.71Z" fill="#B0B0C1"/>
<g opacity="0.5">
<path d="M367.129 96.3308V93.3412L364.88 91.9137C365.163 84.709 365.392 78.6221 365.392 78.6221C363.507 78.3662 362.981 79.6725 362.981 79.6725L361.5 118.928C361.5 118.928 363.183 118.012 363.695 114.955C363.897 113.73 364.22 107.575 364.517 100.667L367.129 102.485V100.034L364.624 98.1218C364.665 97.0714 364.719 96.0076 364.759 94.9572L367.129 96.3308Z" fill="white"/>
</g>
<g opacity="0.25">
<path d="M361.062 119.212C361.062 119.212 365.251 120.154 366.315 119.71C367.392 119.265 368.752 78.2998 368.752 78.2998H370.072L371.23 79.0943L371.58 79.3367L370.072 122.322C370.072 122.322 367.782 123.723 365.291 123.696C362.786 123.683 361.076 122.713 361.076 122.713V119.212H361.062Z" fill="#0F0F14"/>
</g>
<path d="M364.992 78.2986C364.992 78.2986 365.571 73.9488 365.894 73.7199C366.218 73.491 368.938 73.7199 369.073 73.7199C369.207 73.7199 369.652 78.2986 369.652 78.2986" fill="#3E4049"/>
<path d="M365.379 124.893C363.979 124.893 362.349 124.61 360.571 123.788C360.127 123.586 359.858 123.142 359.885 122.657L361.837 79.2808C361.851 78.9442 362.012 78.621 362.282 78.4055C363.938 77.0723 368.167 75.362 372.287 78.3786C372.611 78.6075 372.786 78.9846 372.772 79.3751L371.264 122.361C371.264 122.711 371.089 123.034 370.806 123.25C370.685 123.344 368.638 124.879 365.406 124.879L365.379 124.893ZM362.268 121.943C365.541 123.155 367.951 122.186 368.894 121.66L370.362 79.9542C367.601 78.2708 365.123 79.402 364.154 79.9811L362.268 121.943Z" fill="#0F0F14"/>
<path d="M364.991 79.4823C364.991 79.4823 364.883 79.4823 364.83 79.4823C364.183 79.4015 363.725 78.7955 363.806 78.1491C364.453 73.2877 364.776 73.0587 365.193 72.7625C365.611 72.4662 366.109 72.3585 368.897 72.5335H369.085C370.189 72.5335 370.27 73.2473 370.566 75.8733C370.701 77.0314 370.809 78.1761 370.809 78.1761C370.876 78.8225 370.405 79.4015 369.745 79.4689C369.099 79.5362 368.519 79.0649 368.452 78.405C368.331 77.1391 368.169 75.7117 368.048 74.8363C367.429 74.7959 367.011 74.7959 366.742 74.7959C366.567 75.6039 366.311 77.1391 366.149 78.4454C366.069 79.0379 365.557 79.4689 364.978 79.4689L364.991 79.4823ZM368.977 74.9037C368.977 74.9037 369.045 74.9037 369.072 74.9037C369.072 74.9037 369.018 74.9037 368.977 74.9037Z" fill="#0F0F14"/>
<path d="M319.541 3.52051L351.525 32.8913C351.525 32.8913 351.403 38.1299 346.017 39.4496L314.047 10.6713C314.047 10.6713 314.235 6.06571 319.541 3.52051Z" fill="#B0B0C1"/>
<g opacity="0.5">
<path d="M335.835 25.1473L338.125 27.0596L340.67 26.2516C346.003 31.0996 350.527 35.18 350.527 35.18C351.941 33.9007 351.282 32.6483 351.282 32.6483L322.153 6.29395C322.153 6.29395 321.776 8.17928 323.783 10.5225C324.591 11.4652 329.102 15.6668 334.206 20.3397L331.135 21.1746L333.007 22.7502L336.078 22.05C336.859 22.7637 337.64 23.4774 338.421 24.1912L335.849 25.1338L335.835 25.1473Z" fill="white"/>
</g>
<g opacity="0.25">
<path d="M322.221 5.76652C322.221 5.76652 318.801 8.36559 318.464 9.46985C318.114 10.5741 348.629 37.9519 348.629 37.9519L347.781 38.9619L346.421 39.339L346.017 39.4467L314.047 10.6684C314.047 10.6684 314.451 8.01545 316.067 6.11665C317.683 4.21785 319.541 3.51758 319.541 3.51758L322.221 5.76652Z" fill="#0F0F14"/>
</g>
<path d="M351.042 35.085C351.042 35.085 354.005 38.317 353.964 38.7075C353.924 39.098 351.998 41.0507 351.917 41.145C351.837 41.2392 348.039 38.6536 348.039 38.6536" fill="#3E4049"/>
<path d="M346.023 40.6333C345.74 40.6333 345.444 40.5256 345.228 40.3236L313.259 11.5453C313.003 11.3029 312.855 10.9662 312.868 10.6161C312.868 10.4006 313.151 5.25635 319.022 2.44181C319.453 2.22634 319.978 2.30714 320.329 2.64381L352.312 32.0147C352.568 32.2436 352.702 32.5668 352.689 32.9169C352.635 35.0447 351.248 39.3809 346.279 40.6064C346.185 40.6333 346.09 40.6468 345.996 40.6468L346.023 40.6333ZM315.306 10.2121L346.319 38.142C349.376 37.1051 350.103 34.4791 350.278 33.3748L319.346 4.97355C316.316 6.69729 315.508 9.16169 315.306 10.2256V10.2121Z" fill="#0F0F14"/>
<path d="M352.048 42.367C351.496 42.367 350.755 41.8688 349.314 40.9126C348.345 40.2662 347.389 39.6198 347.389 39.6198C346.85 39.2562 346.715 38.5156 347.079 37.9769C347.442 37.4382 348.183 37.3036 348.722 37.6672C349.772 38.3809 350.971 39.1754 351.711 39.6468C352.142 39.1889 352.412 38.8792 352.587 38.6637C352.088 38.0173 351.065 36.8322 350.176 35.8626C349.732 35.3778 349.772 34.6372 350.244 34.1928C350.728 33.7484 351.469 33.7888 351.913 34.2601C355.226 37.8692 355.186 38.2732 355.145 38.7849C355.105 39.2966 354.863 39.7545 352.937 41.7745L352.802 41.9092C352.56 42.2054 352.317 42.3536 352.021 42.3536L352.048 42.367ZM351.092 40.3066C351.092 40.3066 351.052 40.3605 351.025 40.374C351.025 40.374 351.052 40.3336 351.092 40.3066Z" fill="#0F0F14"/>
<path d="M446.819 125.077L414.687 95.8682C414.687 95.8682 409.476 96.4607 408.641 101.942L440.18 131.191C440.18 131.191 444.758 130.599 446.805 125.077H446.819Z" fill="#B0B0C1"/>
<g opacity="0.5">
<path d="M423.818 110.789L421.703 108.688L422.282 106.075C416.963 101.2 412.492 97.0526 412.492 97.0526C413.637 95.5309 414.943 96.083 414.943 96.083L443.816 122.72C443.816 122.72 441.971 123.272 439.452 121.481C438.429 120.754 433.85 116.647 428.746 111.987L428.181 115.125L426.444 113.401L426.861 110.277C426.08 109.563 425.299 108.849 424.518 108.136L423.818 110.789Z" fill="white"/>
</g>
<g opacity="0.25">
<path d="M444.356 122.6C444.356 122.6 442.081 126.236 441.003 126.681C439.926 127.125 409.922 99.1953 409.922 99.1953L408.993 100.125L408.737 101.512L408.656 101.929L440.195 131.179C440.195 131.179 442.794 130.546 444.545 128.755C446.296 126.964 446.821 125.065 446.821 125.065L444.343 122.587L444.356 122.6Z" fill="#0F0F14"/>
</g>
<path d="M412.559 96.5439C412.559 96.5439 409.071 93.891 408.681 93.9583C408.29 94.0256 406.526 96.1264 406.432 96.2072C406.338 96.288 409.26 99.8432 409.26 99.8432" fill="#3E4049"/>
<path d="M440.195 132.366C439.899 132.366 439.616 132.258 439.387 132.056L407.848 102.806C407.566 102.537 407.418 102.147 407.485 101.756C408.252 96.7061 412.454 94.9285 414.568 94.6861C414.905 94.6457 415.242 94.7534 415.498 94.9823L447.629 124.192C447.993 124.515 448.114 125.027 447.939 125.484C445.663 131.598 440.573 132.325 440.357 132.352C440.303 132.352 440.249 132.352 440.209 132.352L440.195 132.366ZM409.949 101.514L440.559 129.888C441.596 129.592 443.98 128.568 445.421 125.39L414.339 97.137C413.249 97.4063 410.69 98.3759 409.949 101.514Z" fill="#0F0F14"/>
<path d="M409.282 101.026C408.945 101.026 408.595 100.878 408.366 100.596C408.366 100.596 407.625 99.7067 406.912 98.8044C405.255 96.744 404.811 96.1784 405.619 95.3704L405.713 95.2492C407.545 93.1484 407.989 92.8656 408.487 92.7848C408.999 92.6906 409.39 92.6232 413.295 95.5994C413.82 95.9899 413.914 96.744 413.524 97.2558C413.133 97.781 412.379 97.8752 411.867 97.4847C410.817 96.6902 409.551 95.7744 408.864 95.3435C408.676 95.532 408.38 95.8418 407.976 96.2996C408.514 96.9864 409.416 98.1176 410.224 99.1007C410.642 99.599 410.575 100.353 410.063 100.771C409.847 100.946 409.578 101.04 409.309 101.04L409.282 101.026ZM407.356 96.9595C407.356 96.9595 407.302 97.0268 407.289 97.0403C407.316 97.0134 407.343 96.9864 407.356 96.9595Z" fill="#0F0F14"/>
<path d="M391.829 59.0159L385.836 52.8212C385.836 52.8212 385.93 47.1787 391.29 47.4615L398.091 53.2252" fill="#B0B0C1"/>
<path d="M349.828 74.1908C353.732 74.1908 356.898 71.0255 356.898 67.1208C356.898 63.2161 353.732 60.0508 349.828 60.0508C345.923 60.0508 342.758 63.2161 342.758 67.1208C342.758 71.0255 345.923 74.1908 349.828 74.1908Z" fill="#B0B0C1"/>
<path d="M352.198 73.7868L363.578 68.4001C363.578 68.4001 365.019 64.3063 362.729 62.6633L350.609 60.0508" fill="#B0B0C1"/>
<path d="M394.608 60.0546C396.981 60.0546 398.904 58.1313 398.904 55.7588C398.904 53.3862 396.981 51.4629 394.608 51.4629C392.236 51.4629 390.312 53.3862 390.312 55.7588C390.312 58.1313 392.236 60.0546 394.608 60.0546Z" fill="#B0B0C1"/>
<g opacity="0.25">
<path d="M349.828 74.1888C353.732 74.1888 356.898 71.0235 356.898 67.1188C356.898 63.2142 353.732 60.0488 349.828 60.0488C345.923 60.0488 342.758 63.2142 342.758 67.1188C342.758 71.0235 345.923 74.1888 349.828 74.1888Z" fill="#0F0F14"/>
</g>
<g opacity="0.25">
<path d="M394.585 60.0546C396.957 60.0546 398.881 58.1313 398.881 55.7588C398.881 53.3862 396.957 51.4629 394.585 51.4629C392.212 51.4629 390.289 53.3862 390.289 55.7588C390.289 58.1313 392.212 60.0546 394.585 60.0546Z" fill="#0F0F14"/>
</g>
<path d="M349.833 75.3676C345.281 75.3676 341.578 71.6642 341.578 67.1125C341.578 62.5608 345.281 58.8574 349.833 58.8574C354.385 58.8574 358.088 62.5608 358.088 67.1125C358.088 71.6642 354.385 75.3676 349.833 75.3676ZM349.833 61.2276C346.588 61.2276 343.948 63.867 343.948 67.1125C343.948 70.358 346.588 72.9974 349.833 72.9974C353.079 72.9974 355.718 70.358 355.718 67.1125C355.718 63.867 353.079 61.2276 349.833 61.2276Z" fill="#0F0F14"/>
<path d="M352.199 74.968C351.755 74.968 351.324 74.7121 351.122 74.2946C350.839 73.7021 351.095 73.0018 351.687 72.719L362.582 67.5613C362.811 66.6725 363.161 64.6794 362.191 63.7637L350.354 61.2185C349.721 61.0838 349.304 60.4509 349.452 59.8179C349.586 59.185 350.219 58.7675 350.852 58.9157L362.972 61.5282C363.134 61.5686 363.282 61.6359 363.417 61.7302C366.393 63.8849 364.763 68.6252 364.696 68.8272C364.588 69.1234 364.373 69.3658 364.09 69.5005L352.711 74.8872C352.549 74.968 352.374 74.9949 352.199 74.9949V74.968Z" fill="#0F0F14"/>
<path d="M394.598 61.2314C391.582 61.2314 389.117 58.7805 389.117 55.7505C389.117 52.7205 391.568 50.2695 394.598 50.2695C397.628 50.2695 400.079 52.7205 400.079 55.7505C400.079 58.7805 397.628 61.2314 394.598 61.2314ZM394.598 52.6397C392.888 52.6397 391.487 54.0402 391.487 55.7505C391.487 57.4607 392.888 58.8613 394.598 58.8613C396.308 58.8613 397.709 57.4607 397.709 55.7505C397.709 54.0402 396.308 52.6397 394.598 52.6397Z" fill="#0F0F14"/>
<path d="M391.834 60.1936C391.524 60.1936 391.215 60.0724 390.986 59.83L384.993 53.6353C384.777 53.4064 384.656 53.1101 384.656 52.7869C384.656 52.6657 384.737 49.6627 386.771 47.7639C387.942 46.6731 389.477 46.1748 391.349 46.2691C391.605 46.2825 391.847 46.3768 392.049 46.5519L398.85 52.3156C399.348 52.7331 399.416 53.4872 398.985 53.9855C398.554 54.4837 397.813 54.5511 397.315 54.1201L390.837 48.6257C389.814 48.6257 389.006 48.922 388.4 49.4876C387.471 50.3495 387.161 51.6827 387.067 52.3695L392.682 58.1736C393.14 58.6449 393.127 59.3991 392.655 59.8435C392.427 60.0589 392.13 60.1801 391.834 60.1801V60.1936Z" fill="#0F0F14"/>
<path d="M367.323 72.712C367.256 72.712 367.175 72.712 367.108 72.6716C366.919 72.6042 366.758 72.4696 366.677 72.281L352.375 40.2573C352.214 39.8937 352.375 39.4762 352.739 39.3146C353.102 39.153 353.52 39.3146 353.681 39.6782L367.66 70.9748L394.189 55.3669C394.526 55.1649 394.957 55.2861 395.159 55.6228C395.361 55.9594 395.24 56.3904 394.903 56.5924L367.687 72.6042C367.579 72.6716 367.458 72.6985 367.323 72.6985V72.712Z" fill="#0F0F14"/>
<path d="M407.537 95.6893C407.416 95.6893 407.295 95.6623 407.187 95.595L366.975 72.6208C366.639 72.4323 366.518 71.9879 366.706 71.6512C366.895 71.3146 367.339 71.1934 367.676 71.3819L407.887 94.3561C408.224 94.5446 408.345 94.989 408.157 95.3257C408.022 95.5546 407.78 95.6893 407.537 95.6893Z" fill="#0F0F14"/>
<path d="M353.017 48.176C352.896 48.176 352.788 48.1491 352.667 48.0818L329.841 35.3827C329.504 35.1941 329.369 34.7632 329.571 34.4131C329.76 34.0764 330.191 33.9417 330.541 34.1437L353.367 46.8428C353.704 47.0314 353.838 47.4623 353.636 47.8124C353.502 48.0414 353.259 48.176 353.017 48.176Z" fill="#0F0F14"/>
<path d="M325.766 46.3831C325.564 46.3831 325.348 46.3427 325.146 46.2753C323.14 45.5751 323.221 41.9525 324.338 38.734C325.456 35.5154 327.651 32.6201 329.658 33.3204C330.587 33.6436 331.139 34.6805 331.233 36.2426C331.314 37.5893 331.031 39.2322 330.466 40.8617C329.456 43.7571 327.597 46.3831 325.766 46.3831ZM325.672 39.2053C324.594 42.2892 324.917 44.6997 325.604 44.9421C326.291 45.1845 328.042 43.4877 329.106 40.4039C329.617 38.936 329.86 37.495 329.792 36.3234C329.739 35.2326 329.415 34.7478 329.173 34.667C328.486 34.4381 326.735 36.1214 325.672 39.2053Z" fill="#0F0F14"/>
<path d="M394.809 98.5539C394.607 98.5539 394.419 98.4731 394.27 98.3115C390.688 94.1907 386.567 89.7197 385.773 89.2753C385.046 89.1272 383.578 89.2484 383.066 89.3023C382.676 89.3427 382.325 89.0599 382.285 88.6693C382.245 88.2788 382.527 87.9287 382.918 87.8883C383.133 87.8613 385.073 87.6593 386.137 87.8883C387.133 88.1037 391.698 93.1672 395.348 97.3688C395.604 97.6651 395.577 98.1095 395.28 98.3654C395.146 98.4866 394.984 98.5404 394.809 98.5404V98.5539Z" fill="#0F0F14"/>
<path d="M391.617 111.942C391.361 111.942 391.092 111.902 390.85 111.834C388.453 111.148 387.497 107.404 388.655 103.283C389.193 101.398 390.096 99.7279 391.213 98.5832C392.439 97.3308 393.785 96.8191 395.011 97.1692C397.408 97.856 398.364 101.6 397.206 105.721C396.667 107.606 395.765 109.276 394.647 110.42C393.678 111.417 392.627 111.942 391.617 111.942ZM394.243 98.489C393.624 98.489 392.91 98.866 392.223 99.5798C391.267 100.563 390.486 102.017 390.015 103.687C389.018 107.202 389.853 110.084 391.227 110.474C391.914 110.676 392.789 110.286 393.61 109.437C394.567 108.454 395.348 107 395.819 105.33C396.816 101.815 395.981 98.9334 394.607 98.5428C394.486 98.5024 394.365 98.489 394.243 98.489Z" fill="#0F0F14"/>
<path d="M424.147 84.9813C423.797 84.9813 423.487 84.7119 423.447 84.3618C423.07 81.3183 421.4 81.0355 421.333 81.0221L406.371 79.3387C405.981 79.2983 405.698 78.9482 405.738 78.5577C405.779 78.1671 406.129 77.8843 406.519 77.9247L421.494 79.6081C421.615 79.6081 424.322 79.9851 424.847 84.1867C424.901 84.5773 424.619 84.9274 424.228 84.9813C424.201 84.9813 424.174 84.9813 424.147 84.9813Z" fill="#0F0F14"/>
<path d="M372.79 31.154C360.441 21.9697 347.378 13.4049 332.727 8.44913C332.376 8.3414 332.484 7.74886 332.888 7.84313C344.362 10.3479 354.947 16.1251 364.333 23.0605C367.444 25.4306 370.46 27.895 373.207 30.6961C373.463 30.9654 373.1 31.4098 372.79 31.1674V31.154Z" fill="white"/>
<path d="M344.573 17.6019C350.795 20.2818 356.693 23.6081 362.39 27.2576C368.059 30.9205 373.621 34.9201 378.374 39.7547C378.63 40.024 378.267 40.4684 377.957 40.226C372.651 36.1186 367.062 32.4288 361.393 28.8466C355.71 25.278 349.96 21.817 344.29 18.1675C343.981 17.979 344.223 17.4538 344.587 17.6154L344.573 17.6019Z" fill="white"/>
<path d="M351.161 26.949C356.52 29.3461 361.557 32.3222 366.405 35.635C371.199 38.9882 376.047 42.53 379.602 47.2703C379.818 47.58 379.387 47.9571 379.117 47.6743C373.084 41.8971 365.031 37.076 358.096 32.3896C355.672 30.787 353.248 29.1845 350.864 27.5012C350.568 27.2992 350.824 26.7874 351.174 26.949H351.161Z" fill="white"/>
<path d="M366.306 43.4045C365.942 43.4045 365.646 43.1352 365.605 42.7716C365.04 37.5869 357.943 21.9386 357.875 21.777C357.714 21.4134 357.875 20.996 358.226 20.8344C358.589 20.6728 359.007 20.8344 359.168 21.1845C359.464 21.8309 366.427 37.1964 367.019 42.61C367.06 43.0005 366.777 43.3507 366.386 43.3911C366.359 43.3911 366.332 43.3911 366.306 43.3911V43.4045Z" fill="#0F0F14"/>
<path d="M403.919 59.8249C411.891 66.7738 418.947 74.773 425.29 83.2435C430.179 89.8691 434.582 96.9257 437.855 104.48C437.922 104.642 437.855 104.831 437.693 104.898C437.545 104.965 437.356 104.898 437.289 104.75C430.515 92.4682 421.883 81.3986 412.766 70.7868C409.723 67.2451 406.625 63.7303 403.488 60.2828C403.367 60.1481 403.367 59.9461 403.501 59.8249C403.622 59.7172 403.797 59.7172 403.919 59.8249Z" fill="white"/>
<path d="M401.996 62.4521C409.672 69.8588 416.311 78.2485 422.358 87.0019C424.378 89.9241 426.25 92.9541 428.014 96.0245C428.095 96.1727 428.054 96.3747 427.893 96.4555C427.758 96.5363 427.569 96.4959 427.475 96.3747C425.334 93.5467 423.233 90.7187 421.078 87.9176C417.51 83.2177 411.746 75.9322 408.029 71.2458C405.848 68.4717 403.653 65.6976 401.511 62.883C401.282 62.6002 401.7 62.1828 401.983 62.4521H401.996Z" fill="white"/>
<path d="M396.151 62.4495C402.036 68.2806 407.194 74.785 412.056 81.4779C413.658 83.7269 415.22 86.0027 416.607 88.3998C416.796 88.723 416.338 89.0597 416.096 88.7634L410.817 82.4206C407.369 78.219 403.8 73.8558 400.501 69.5464C398.845 67.3514 397.202 65.1428 395.667 62.84C395.451 62.5438 395.896 62.1667 396.151 62.436V62.4495Z" fill="white"/>
<path d="M380.549 87.1499C392.736 96.8459 404.264 107.39 417.475 115.699C417.798 115.888 417.542 116.426 417.179 116.251C412.748 114.204 408.546 111.498 404.533 108.71C398.958 104.737 393.585 100.401 388.508 95.8224C385.613 93.183 382.771 90.4896 380.118 87.6078C379.876 87.3384 380.239 86.894 380.549 87.1499Z" fill="white"/>
<path d="M393.115 106.785C404.225 113.209 414.769 120.696 426.58 125.814C426.93 125.948 426.768 126.514 426.391 126.42C423.213 125.625 420.196 124.359 417.261 122.986C411.389 120.212 405.827 116.845 400.481 113.182C397.828 111.324 395.216 109.411 392.751 107.297C392.468 107.055 392.778 106.583 393.115 106.785Z" fill="white"/>
<path d="M411.801 125.838C419.854 128.168 427.584 131.736 435.664 133.985C436.014 134.066 435.947 134.632 435.57 134.605C433.415 134.524 431.301 134.079 429.227 133.581C427.153 133.069 425.12 132.423 423.113 131.709C419.1 130.282 415.195 128.612 411.532 126.403C411.222 126.228 411.438 125.717 411.788 125.824L411.801 125.838Z" fill="white"/>
<path d="M338.057 61.8833C327.809 50.9753 316.713 34.3843 313.763 19.5979C313.696 19.2343 314.262 19.0458 314.383 19.4498C318.1 31.0715 324.712 41.4543 331.512 51.487C333.802 54.8402 336.158 58.1665 338.542 61.4658C338.65 61.6005 338.623 61.816 338.475 61.9102C338.34 62.0045 338.165 61.991 338.057 61.8698V61.8833Z" fill="white"/>
<path d="M342.509 58.3699C337.782 53.2391 333.796 47.4753 330.268 41.4692C328.194 37.8601 326.228 34.0491 324.975 30.0629C324.868 29.6993 325.393 29.4838 325.568 29.834C330.645 39.6781 337.257 48.5257 343.021 57.9928C343.209 58.3026 342.778 58.6662 342.522 58.3834L342.509 58.3699Z" fill="white"/>
<path d="M349.635 57.0671C346.686 55.6127 344.572 52.8924 343.292 49.9297C342.861 48.9332 342.579 47.8693 342.457 46.792C342.404 46.4688 342.875 46.2937 343.05 46.5765C343.616 47.4653 344.1 48.3541 344.679 49.2025C345.622 50.6704 347.144 52.6769 348.221 54.0775C348.827 54.8855 349.474 55.7069 350.053 56.5823C350.241 56.8381 349.931 57.2017 349.649 57.0536L349.635 57.0671Z" fill="white"/>
<path d="M358.776 89.6123C358.615 89.6123 358.453 89.6392 358.305 89.6662C357.564 89.7874 356.487 90.8782 355.383 92.2922C355.383 92.3191 355.41 92.3326 355.41 92.3595C356.595 90.9186 357.834 89.747 358.776 89.6258V89.6123Z" fill="#F2C5A7"/>
<path d="M366.773 100.764C366.853 100.575 366.894 100.36 366.934 100.145C366.625 100.777 365.978 101.343 364.672 101.41C365.641 101.626 366.463 101.532 366.786 100.764H366.773Z" fill="#F2C5A7"/>
<path d="M376.745 97.8399C376.745 97.8399 378.738 95.0118 378.011 93.2612C377.283 91.5105 376.408 90.9718 376.408 90.9718C376.408 90.9718 377.674 87.7533 375.627 86.2989C373.58 84.8445 365.5 89.706 365.5 89.706L363.17 90.8776C363.17 90.8776 362.093 90.2042 360.706 89.8406C362.43 90.4332 363.723 91.8472 363.723 91.8472L363.561 93.0592C363.561 93.0592 360.1 91.9953 359.319 92.1434C359.023 92.1973 358.026 93.4766 356.922 95.0253C357.918 96.6413 359.252 98.5266 360.719 99.8329C360.719 99.806 360.719 99.7925 360.706 99.7656L360.14 99.2C360.14 99.2 362.686 100.937 364.652 101.382C365.958 101.314 366.618 100.749 366.914 100.116C367.264 97.6648 364.813 93.6921 364.813 92.6956C364.813 91.6048 365.594 90.8641 365.594 90.8641L368.126 89.2616C368.126 89.2616 369.15 90.7698 370.712 91.1604C372.274 91.5509 374.173 91.3489 374.173 91.3489C374.173 91.3489 370.564 93.5305 370.469 93.8268C370.375 94.1365 370.914 95.5775 372.072 96.4528C373.244 97.3281 375.87 97.5705 375.627 97.8129C375.385 98.0553 371.008 99.1731 370.806 99.2269C370.617 99.2808 371.318 100.924 372.637 101.759C373.957 102.58 375.641 102.634 375.641 102.634L371.803 104.169C371.803 104.169 371.856 105.826 373.365 106.58C374.873 107.334 376.381 106.943 376.327 107.186C376.287 107.401 375.398 108.452 374.267 108.909C374.954 108.681 375.667 108.33 376.247 107.792C377.997 106.189 376.879 102.634 376.879 102.634C376.879 102.634 378.873 99.3212 376.731 97.8129L376.745 97.8399Z" fill="#F2C5A7"/>
<path d="M373.689 109.117C373.392 109.171 373.123 109.225 372.867 109.279C373.123 109.238 373.392 109.185 373.689 109.117Z" fill="#F2C5A7"/>
<path d="M374.038 109.016C374.038 109.016 373.931 109.042 373.891 109.056C373.944 109.042 373.998 109.029 374.038 109.016Z" fill="#F2C5A7"/>
<g opacity="0.5">
<path d="M360.73 89.8425C360.124 89.6405 359.478 89.5193 358.805 89.6136C359.465 89.5732 360.124 89.6809 360.73 89.8425Z" fill="white"/>
</g>
<path d="M355.438 92.3604C355.707 92.8991 356.246 93.8956 356.946 95.0403C358.064 93.4916 359.047 92.2123 359.343 92.1584C360.124 92.0103 363.585 93.0742 363.585 93.0742L363.746 91.8621C363.746 91.8621 362.454 90.4481 360.73 89.8556C360.124 89.694 359.464 89.5863 358.804 89.6267C357.862 89.7479 356.636 90.9195 355.438 92.3604Z" fill="#F2C5A7"/>
<g opacity="0.5">
<path d="M355.422 92.3585C355.691 92.8971 356.23 93.8937 356.93 95.0383C358.048 93.4897 359.031 92.2103 359.327 92.1565C360.108 92.0083 363.569 93.0722 363.569 93.0722L363.731 91.8602C363.731 91.8602 362.438 90.4462 360.714 89.8537C360.108 89.6921 359.448 89.5843 358.789 89.6247C357.846 89.7459 356.62 90.9175 355.422 92.3585Z" fill="white"/>
</g>
<g opacity="0.25">
<path d="M374.279 108.936C374.199 108.962 374.118 108.989 374.023 109.016C374.104 108.989 374.185 108.962 374.279 108.936Z" fill="#0F0F14"/>
</g>
<g opacity="0.25">
<path d="M373.716 109.109C373.716 109.109 373.823 109.083 373.89 109.069C373.823 109.083 373.77 109.109 373.703 109.123L373.716 109.109Z" fill="#0F0F14"/>
</g>
<g opacity="0.25">
<path d="M371.607 109.384C371.607 109.384 371.607 109.438 371.594 109.479C371.621 109.519 371.661 109.573 371.688 109.613C371.944 109.532 372.348 109.411 372.887 109.29C372.146 109.411 371.607 109.398 371.607 109.398V109.384Z" fill="#0F0F14"/>
</g>
<g opacity="0.25">
<path d="M371.555 109.65C371.555 109.65 371.635 109.624 371.688 109.61C371.662 109.57 371.622 109.517 371.595 109.477C371.595 109.53 371.581 109.597 371.568 109.65H371.555Z" fill="#0F0F14"/>
</g>
<path d="M376.342 107.215C376.396 106.973 374.888 107.363 373.379 106.609C371.871 105.855 371.817 104.199 371.817 104.199L375.655 102.663C375.655 102.663 373.959 102.61 372.652 101.788C371.333 100.967 370.632 99.3102 370.821 99.2564C371.009 99.2025 375.399 98.0848 375.642 97.8424C375.884 97.6 373.258 97.3576 372.087 96.4822C370.915 95.6069 370.39 94.1525 370.484 93.8562C370.578 93.5465 374.187 91.3783 374.187 91.3783C374.187 91.3783 372.289 91.5669 370.727 91.1898C369.164 90.7993 368.141 89.291 368.141 89.291L365.609 90.8935C365.609 90.8935 364.828 91.6207 364.828 92.725C364.828 93.735 367.279 97.6942 366.929 100.145C367.319 99.3506 367.171 98.4888 367.171 98.4888H368.437C368.437 98.4888 368.639 100.186 369.084 101.155C369.528 102.125 369.582 104.616 369.582 104.616C369.582 104.616 369.42 106.273 370.067 107.363C370.349 107.835 370.955 108.67 371.561 109.464C371.561 109.437 371.561 109.41 371.575 109.37C371.575 109.37 372.114 109.37 372.854 109.262C373.11 109.208 373.379 109.154 373.676 109.101C373.743 109.087 373.797 109.074 373.864 109.047C373.918 109.047 373.972 109.02 374.012 109.006C374.093 108.979 374.174 108.952 374.268 108.925C375.399 108.481 376.288 107.417 376.329 107.202L376.342 107.215Z" fill="#F2C5A7"/>
<g opacity="0.25">
<path d="M376.35 107.211C376.404 106.969 374.896 107.359 373.387 106.605C371.879 105.851 371.825 104.195 371.825 104.195L375.663 102.66C375.663 102.66 373.966 102.606 372.66 101.784C371.34 100.963 370.64 99.3063 370.829 99.2525C371.017 99.1986 375.407 98.0809 375.65 97.8385C375.892 97.5961 373.266 97.3537 372.095 96.4783C370.923 95.603 370.398 94.1486 370.492 93.8523C370.586 93.5426 374.195 91.3744 374.195 91.3744C374.195 91.3744 372.296 91.563 370.734 91.1859C369.172 90.7954 368.149 89.2871 368.149 89.2871L365.617 90.8896C365.617 90.8896 364.836 91.6168 364.836 92.7211C364.836 93.7311 367.287 97.6903 366.937 100.141C367.327 99.3467 367.179 98.4849 367.179 98.4849H368.445C368.445 98.4849 368.647 100.182 369.091 101.151C369.536 102.121 369.59 104.612 369.59 104.612C369.59 104.612 369.428 106.269 370.074 107.359C370.357 107.831 370.963 108.666 371.569 109.46C371.569 109.433 371.569 109.406 371.583 109.366C371.583 109.366 372.121 109.366 372.862 109.258C373.118 109.204 373.387 109.15 373.684 109.097C373.751 109.083 373.805 109.07 373.872 109.043C373.926 109.043 373.98 109.016 374.02 109.002C374.101 108.975 374.182 108.948 374.276 108.922C375.407 108.477 376.296 107.413 376.337 107.198L376.35 107.211Z" fill="#0F0F14"/>
</g>
<path d="M364.66 101.407C362.694 100.963 360.148 99.2256 360.148 99.2256L360.714 99.7912C360.714 99.7912 360.714 99.8316 360.727 99.8585C361.643 100.667 362.613 101.246 363.569 101.38C363.986 101.434 364.337 101.448 364.66 101.434V101.407Z" fill="#F2C5A7"/>
<g opacity="0.25">
<path d="M364.66 101.408C362.694 100.964 360.148 99.2266 360.148 99.2266L360.714 99.7922C360.714 99.7922 360.714 99.8326 360.727 99.8595C361.643 100.667 362.613 101.247 363.569 101.381C363.986 101.435 364.337 101.449 364.66 101.435V101.408Z" fill="#0F0F14"/>
</g>
<path d="M371.625 110.811C371.625 110.811 371.571 110.811 371.544 110.811C370.763 110.811 370.13 110.151 370.143 109.37C370.143 108.589 370.79 107.969 371.557 107.969C371.571 107.969 371.584 107.969 371.611 107.969C372.298 107.969 374.21 107.754 375.274 106.784C376.082 106.044 375.772 103.943 375.516 103.094C375.395 102.704 375.449 102.286 375.651 101.936C375.651 101.923 376.904 99.7143 375.907 99.0141C375.597 98.7986 375.395 98.4619 375.328 98.0983C375.261 97.7213 375.355 97.3442 375.57 97.0345C376.298 95.9976 376.93 94.4219 376.688 93.8294C376.176 92.6039 375.611 92.1865 375.611 92.173C374.964 91.8363 374.803 91.1495 375.072 90.4627C375.072 90.4493 375.88 88.2542 374.789 87.4731C373.927 87.1365 369.82 88.7794 366.224 90.9341C366.198 90.9475 366.157 90.9745 366.13 90.9879L363.8 92.1595C363.356 92.375 362.831 92.3615 362.413 92.0922C361.821 91.7286 359.962 90.8263 358.535 91.0687C358.535 91.0687 357.794 91.3515 355.855 94.0045C355.397 94.6374 354.495 94.7721 353.862 94.3142C353.229 93.8563 353.094 92.9675 353.552 92.3211C355.99 89.0083 357.188 88.4023 358.05 88.2542C360.07 87.9175 362.117 88.739 363.181 89.2642L364.797 88.4562C368.123 86.4631 374.008 83.4062 376.432 85.1434C378.358 86.517 378.398 88.8737 378.008 90.5435C378.412 91.0014 378.883 91.7017 379.314 92.7117C380.014 94.4085 379.193 96.4285 378.52 97.654C379.597 99.27 379.072 101.452 378.398 102.839C378.695 104.145 379.112 107.121 377.213 108.872C375.207 110.703 372.231 110.797 371.638 110.797L371.625 110.811Z" fill="#0F0F14"/>
<path d="M364.377 90.1682C365.642 92.2286 366.733 94.3294 367.609 96.5784C368.013 97.723 368.632 99.1909 368.268 100.538C367.609 102.409 365.238 102.813 363.663 102.396C361.845 101.965 360.444 100.645 359.852 99.0966C359.811 98.9889 359.933 98.8812 360.027 98.935C361.751 99.77 363.824 101.036 365.642 100.174C365.844 100.039 365.925 99.9181 365.952 99.8104C365.952 99.8104 365.952 99.8642 365.939 99.8508C365.158 96.9689 363.299 94.2486 361.926 91.5822C361.077 89.9662 363.38 88.6195 364.377 90.1413V90.1682Z" fill="#0F0F14"/>
<path d="M371.571 110.797C371.261 110.797 370.952 110.689 370.682 110.487C369.484 109.531 367.827 107.349 368.487 104.804C367.746 103.525 367.154 101.518 368.056 99.5923C367.316 98.4073 366.763 96.6431 367.585 94.8521C366.656 94.1518 365.538 93.0206 365.228 91.5258C365.04 90.61 365.094 89.1826 366.427 87.6474C366.938 87.0548 367.841 86.9875 368.433 87.4992C369.026 88.011 369.093 88.9132 368.581 89.5058C367.895 90.3003 367.989 90.7851 368.029 90.9467C368.231 91.9567 369.713 92.8994 370.211 93.1552C370.615 93.3572 370.898 93.7343 370.978 94.1652C371.059 94.6096 370.938 95.0541 370.628 95.3907C369.282 96.8451 370.628 98.3399 370.803 98.5015C371.288 98.9998 371.329 99.7809 370.911 100.346C369.793 101.828 371.14 103.659 371.207 103.74C371.517 104.158 371.584 104.71 371.369 105.181C370.669 106.757 372.406 108.211 372.473 108.265C373.079 108.763 373.174 109.652 372.675 110.258C372.392 110.608 371.988 110.783 371.571 110.783V110.797Z" fill="#0F0F14"/>
<path d="M369.59 95.8628C368.998 95.8628 368.446 95.4858 368.244 94.8932C368.001 94.1526 368.392 93.3446 369.146 93.0887C370.439 92.6578 374.102 91.2438 375.421 89.9644C375.987 89.4123 376.889 89.4257 377.428 89.9913C377.98 90.5569 377.966 91.4592 377.401 91.9979C375.381 93.964 370.587 95.607 370.048 95.782C369.9 95.8359 369.752 95.8494 369.604 95.8494L369.59 95.8628Z" fill="#0F0F14"/>
<path d="M369.586 101.21C368.886 101.21 368.28 100.698 368.186 99.9847C368.078 99.2036 368.617 98.4899 369.398 98.3821C371.525 98.0859 374.959 97.3587 375.942 96.6853C376.589 96.2409 377.478 96.4025 377.922 97.0489C378.366 97.6953 378.205 98.5841 377.558 99.0285C375.673 100.321 370.758 101.062 369.802 101.197C369.734 101.197 369.667 101.21 369.6 101.21H369.586Z" fill="#0F0F14"/>
<path d="M370.07 106.031C369.356 106.031 368.737 105.493 368.656 104.752C368.575 103.971 369.141 103.271 369.922 103.19C371.875 102.988 375.039 102.341 375.982 101.56C376.588 101.062 377.477 101.143 377.989 101.749C378.487 102.355 378.406 103.244 377.8 103.755C375.861 105.358 371.147 105.924 370.232 106.018C370.178 106.018 370.137 106.018 370.084 106.018L370.07 106.031Z" fill="#0F0F14"/>
</g>
<defs>
<clipPath id="clip0_1967_154">
<rect width="342" height="235.667" fill="white" transform="translate(106)"/>
</clipPath>
</defs>
</svg>
