<svg width="1426" height="344" viewBox="0 0 1426 344" fill="none" xmlns="http://www.w3.org/2000/svg">
<g opacity="0.5">
<mask id="mask0_405_325" style="mask-type:alpha" maskUnits="userSpaceOnUse" x="0" y="0" width="1426" height="344">
<rect width="1426" height="344" fill="#D9D9D9"/>
</mask>
<g mask="url(#mask0_405_325)">
<path d="M1392.09 294.054H1330L1314.66 321.782L1297.51 294.054H1229.91C1220.02 294.054 1212 286.037 1212 276.144V154.708C1212 144.815 1220.02 136.798 1229.91 136.798H1392.09C1401.98 136.798 1410 144.815 1410 154.708V276.144C1410 286.037 1401.98 294.054 1392.09 294.054Z" fill="#CFC9FC"/>
<path d="M1301.5 189.866H1275.25V174.403H1346.74V189.866H1320.48V256.432H1301.49V189.866H1301.5Z" fill="url(#paint0_linear_405_325)"/>
<path d="M882 300.217H817.499L863.108 254.609L851.404 242.892L805.783 288.501V224H789.217V288.501L743.609 242.892L731.892 254.609L777.513 300.217H713V316.783H777.513L731.892 362.391L743.609 374.108L789.217 328.499V393H805.783V328.499L851.404 374.108L863.108 362.391L817.499 316.783H882V300.217Z" fill="#BAB7F9"/>
<path d="M283 248.569H236.819L269.473 215.915L261.094 207.527L228.431 240.181V194H216.569V240.181L183.915 207.527L175.527 215.915L208.19 248.569H162V260.431H208.19L175.527 293.085L183.915 301.473L216.569 268.819V315H228.431V268.819L261.094 301.473L269.473 293.085L236.819 260.431H283V248.569Z" fill="#BAB7F9"/>
<path d="M576.856 342H380.218C369.574 342 360.963 333.371 360.963 322.745V174.477C360.963 163.833 369.592 155.222 380.218 155.222H458.97L483.271 126L507.215 155.222H576.856C587.5 155.222 596.112 163.851 596.112 174.477V322.745C596.112 333.389 587.482 342 576.856 342Z" fill="#CFC9FC"/>
<path d="M447.685 236.525L407.801 251.127L447.685 265.622V280.581L390.686 258.9V243.335L447.685 221.655V236.507V236.525Z" fill="url(#paint1_linear_405_325)"/>
<path d="M490.582 192.2H507.234L467.707 305.023H451.055L490.582 192.2Z" fill="url(#paint2_linear_405_325)"/>
<path d="M566.392 243.351V258.916L509.393 280.597V265.638L549.276 251.143L509.393 236.541V221.689L566.392 243.369V243.351Z" fill="url(#paint3_linear_405_325)"/>
<g clip-path="url(#clip0_405_325)">
<path d="M1133 302.25V185.75C1133 177.051 1125.95 170 1117.25 170H1000.75C992.051 170 985 177.051 985 185.75V302.25C985 310.949 992.051 318 1000.75 318H1117.25C1125.95 318 1133 310.949 1133 302.25Z" fill="#CFC9FC"/>
<path d="M1060 240.65L1013.06 288L1007 281.883C1007 281.883 1017.34 268.292 1019.57 243.367L1049.44 230L1060 240.65Z" fill="#E5DCFF"/>
<path d="M1062.35 243L1015 289.937L1021.12 296C1021.12 296 1034.71 285.665 1059.63 283.428L1073 253.558L1062.35 243Z" fill="#E5DCFF"/>
<path d="M1111 226.74L1076.27 192.008L1045.63 222.645L1080.36 257.378L1111 226.74Z" fill="#E5DCFF"/>
</g>
</g>
</g>
<defs>
<linearGradient id="paint0_linear_405_325" x1="1310.99" y1="256.432" x2="1310.99" y2="174.403" gradientUnits="userSpaceOnUse">
<stop stop-color="#5302A7"/>
<stop offset="1" stop-color="#36036B"/>
</linearGradient>
<linearGradient id="paint1_linear_405_325" x1="419.185" y1="280.581" x2="419.185" y2="221.655" gradientUnits="userSpaceOnUse">
<stop stop-color="#5302A7"/>
<stop offset="1" stop-color="#36036B"/>
</linearGradient>
<linearGradient id="paint2_linear_405_325" x1="479.145" y1="305.023" x2="479.145" y2="192.2" gradientUnits="userSpaceOnUse">
<stop stop-color="#5302A7"/>
<stop offset="1" stop-color="#36036B"/>
</linearGradient>
<linearGradient id="paint3_linear_405_325" x1="537.892" y1="280.597" x2="537.892" y2="221.689" gradientUnits="userSpaceOnUse">
<stop stop-color="#5302A7"/>
<stop offset="1" stop-color="#36036B"/>
</linearGradient>
<clipPath id="clip0_405_325">
<rect width="148" height="148" fill="white" transform="translate(985 170)"/>
</clipPath>
</defs>
</svg>
