<svg width="201" height="139" viewBox="0 0 201 139" fill="none" xmlns="http://www.w3.org/2000/svg">
<g clip-path="url(#clip0_1213_9439)">
<g opacity="0.25">
<path d="M104.446 138.269C141.657 138.269 171.823 135.721 171.823 132.577C171.823 129.433 141.657 126.884 104.446 126.884C67.2356 126.884 37.0703 129.433 37.0703 132.577C37.0703 135.721 67.2356 138.269 104.446 138.269Z" fill="#0F0F14"/>
</g>
<path d="M85.2637 116.96C85.2637 116.96 76.5001 106.252 71.3192 104.441C66.1382 102.63 62.9493 103.551 61.1856 107.158C61.1856 107.158 57.7683 125.519 75.9096 124.763C75.9096 124.763 84.0275 123.338 85.2637 116.968V116.96Z" fill="#3E4049"/>
<path d="M88.2799 119.008C87.8232 117.473 85.2642 116.961 85.2642 116.961C84.028 123.331 75.9102 124.756 75.9102 124.756C75.9102 124.756 76.4377 129.535 77.5794 130.331C78.7211 131.126 85.4926 130.787 85.4926 130.787C85.4926 130.787 88.7366 120.544 88.2799 119.008Z" fill="#F2C5A7"/>
<path d="M82.3572 131.701C80.2155 131.701 77.8928 131.56 77.1054 131.016C75.9794 130.229 75.4283 127.379 75.1842 125.607C70.0426 125.678 66.1214 124.206 63.5388 121.221C58.8145 115.773 60.3106 107.356 60.3814 107.001C60.3972 106.93 60.4208 106.852 60.4523 106.789C62.4286 102.749 66.0742 101.726 71.6016 103.655C76.5857 105.395 84.4123 114.623 85.7351 116.214C86.5461 116.426 88.5933 117.111 89.0893 118.773C89.5618 120.379 87.2941 127.891 86.2941 131.04C86.1918 131.371 85.8926 131.599 85.5461 131.623C84.7666 131.662 83.6013 131.709 82.3651 131.709L82.3572 131.701ZM75.9086 123.93C76.3259 123.93 76.6881 124.245 76.7353 124.67C76.9952 127.009 77.6093 129.339 78.0581 129.662C78.625 130.016 81.9242 130.111 84.8768 129.993C86.3178 125.379 87.6878 120.111 87.4831 119.245C87.2469 118.458 85.7745 117.914 85.1052 117.781C84.9162 117.741 84.743 117.639 84.6249 117.489C84.5383 117.387 75.9479 106.938 71.0504 105.23C65.1057 103.151 63.0743 105.277 61.9956 107.419C61.846 108.387 60.8696 115.623 64.7986 120.151C67.1608 122.875 70.893 124.143 75.885 123.938C75.8928 123.938 75.9086 123.938 75.9165 123.938L75.9086 123.93Z" fill="#0F0F14"/>
<path d="M75.9096 125.591C75.5159 125.591 75.1616 125.308 75.0907 124.906C75.012 124.458 75.3112 124.024 75.7678 123.946C75.8544 123.93 83.3424 122.528 84.4526 116.812C84.5393 116.363 84.9802 116.064 85.429 116.151C85.8778 116.237 86.177 116.67 86.0904 117.127C84.7676 123.977 76.4214 125.521 76.067 125.583C76.0198 125.591 75.9726 125.599 75.9253 125.599L75.9096 125.591Z" fill="#0F0F14"/>
<path d="M149.565 117.519C149.439 117.542 149.313 117.574 149.195 117.597C149.321 117.574 149.447 117.542 149.565 117.519Z" fill="#3E4049"/>
<path d="M149.186 117.596C148.871 117.242 148.682 117.022 148.682 117.022C144.202 111.329 134.281 102.959 134.281 102.959L122.289 118.116L131.494 123.62C131.494 123.62 131.635 123.557 131.887 123.455C131.895 123.415 131.903 123.376 131.911 123.336C131.911 123.336 141.832 119.148 149.186 117.596Z" fill="#3E4049"/>
<path d="M156.055 124.383C154.748 123.824 150.63 119.226 149.197 117.596C142.67 118.974 133.835 122.635 131.898 123.462C131.276 126.147 132.229 128.107 132.229 128.107L158.716 128.414C159.551 126.973 157.654 125.076 156.063 124.391L156.055 124.383Z" fill="#F2C5A7"/>
<path d="M149.185 117.596C141.831 119.147 131.91 123.336 131.91 123.336C131.902 123.375 131.895 123.415 131.887 123.454C133.824 122.635 142.658 118.974 149.185 117.588V117.596Z" fill="#3E4049"/>
<path d="M158.705 129.233H158.697L132.209 128.926C131.894 128.926 131.611 128.745 131.469 128.461C131.43 128.375 130.509 126.446 130.973 123.769L121.895 118.848C121.682 118.729 121.525 118.525 121.477 118.281C121.43 118.037 121.485 117.792 121.643 117.596L133.634 102.439C133.776 102.265 133.981 102.147 134.201 102.124C134.43 102.1 134.65 102.171 134.823 102.313C135.233 102.659 144.847 110.793 149.327 116.485C151.673 119.202 155.398 123.194 156.374 123.611C157.594 124.131 159.114 125.343 159.594 126.777C159.838 127.501 159.775 128.21 159.421 128.816C159.272 129.076 158.996 129.233 158.705 129.233ZM132.8 127.273L158.075 127.564C158.075 127.485 158.051 127.399 158.02 127.304C157.768 126.532 156.76 125.588 155.72 125.147C154.035 124.422 149.043 118.706 148.059 117.564C148.051 117.556 148.044 117.548 148.036 117.533C144.319 112.808 136.682 106.108 134.406 104.147L123.564 117.855L132.32 122.603C132.65 122.784 132.823 123.17 132.729 123.532C132.312 125.21 132.595 126.588 132.808 127.273H132.8Z" fill="#0F0F14"/>
<path d="M131.923 124.162C131.6 124.162 131.301 123.981 131.159 123.666C130.97 123.249 131.159 122.753 131.584 122.572C131.986 122.391 141.568 118.178 148.962 116.698C149.411 116.604 149.852 116.903 149.938 117.352C150.025 117.8 149.734 118.241 149.285 118.328C142.072 119.777 132.348 124.052 132.254 124.092C132.143 124.139 132.033 124.162 131.915 124.162H131.923Z" fill="#0F0F14"/>
<path d="M129.481 66.0232C129.481 66.0232 127.615 78.6292 93.4269 85.5896C93.4269 85.5896 76.6557 88.4478 61.1758 87.81C61.1758 87.81 66.3331 122.715 99.2693 123.171C132.205 123.628 135.087 101.471 134.481 97.8255C133.875 94.1799 132.205 88.7943 132.205 88.7943C132.205 88.7943 147.575 78.1016 150.536 70.0152C148.599 64.2122 143.646 58.6533 143.646 58.6533C143.646 58.6533 137.339 63.7398 129.481 66.0232Z" fill="#3E4049"/>
<path d="M158.904 57.685C158.904 57.685 160.069 56.0314 159.644 55.0079C159.219 53.9843 158.707 53.6693 158.707 53.6693C158.707 53.6693 159.447 51.7875 158.25 50.9371C157.054 50.0867 152.329 52.9292 152.329 52.9292L150.967 53.6142C150.967 53.6142 149.455 52.6772 148.125 52.9055C146.786 53.1339 143.66 58.6534 143.66 58.6534C143.66 58.6534 148.613 64.2123 150.55 70.0153C150.55 70.0153 155.502 67.6217 155.896 64.4328C155.896 64.4328 157.605 64.4643 158.628 63.5194C159.652 62.5825 158.998 60.5038 158.998 60.5038C158.998 60.5038 160.164 58.5668 158.912 57.685H158.904Z" fill="#F2C5A7"/>
<path d="M96.5412 96.3151C96.5412 96.3151 92.9429 93.701 90.6437 91.0947C88.3446 88.4885 87.5415 87.0319 87.3289 86.9846C87.1163 86.9374 87.3289 86.4649 87.3289 86.4649C87.3289 86.4649 93.9665 85.5122 97.6672 84.6697C101.368 83.8272 107.848 81.7249 108.076 81.6934C108.305 81.6619 108.95 81.8903 108.95 81.8903C108.95 81.8903 108.037 85.339 105.572 89.0003C103.108 92.6695 99.1632 97.2206 99.1632 97.2206H98.4782L96.5412 96.3151Z" fill="#F2C5A7"/>
<path d="M134.542 99.1506C134.542 99.1506 127.763 115.882 104.205 118.048C80.6384 120.213 71.5362 103.135 68.0088 98.2451C64.4813 93.3476 62.8672 94.4185 62.8672 94.4185C62.8672 94.4185 70.6938 126.898 104.905 123.016C136.653 119.418 134.55 99.1506 134.55 99.1506H134.542Z" fill="#742DD2"/>
<g opacity="0.25">
<path d="M130.418 84.0235C130.418 84.0235 138.811 79.8031 143.646 75.9843C148.48 72.1655 149.646 67.7798 149.646 67.7798L148.827 65.9688C148.827 65.9688 151.874 66.1421 152.268 64.087C152.669 62.0398 149.788 60.2603 149.52 58.8116L149.189 58.4809C149.189 58.4809 152.496 60.7406 153.063 59.3785C153.638 58.0163 151.929 55.3156 151.929 54.6699C151.929 54.0243 152.386 53.5991 152.386 53.5991L153.866 52.6621C153.866 52.6621 154.465 53.544 155.378 53.7723C156.291 54.0007 157.402 53.8826 157.402 53.8826C157.402 53.8826 155.291 55.1581 155.236 55.3313C155.181 55.5046 155.496 56.3549 156.173 56.8667C156.858 57.3785 158.394 57.5203 158.252 57.662C158.11 57.8037 155.551 58.4572 155.433 58.4887C155.323 58.5202 155.732 59.4808 156.504 59.969C157.276 60.4493 158.26 60.4808 158.26 60.4808L156.016 61.3784C156.016 61.3784 156.047 62.3469 156.929 62.7878C157.811 63.2288 158.693 63.0004 158.661 63.1421C158.63 63.2839 157.937 64.1106 157.126 64.2445C156.315 64.3862 155.772 64.5909 155.772 64.5909C155.772 64.5909 155.299 66.394 153.787 67.7877C152.276 69.1892 150.473 70.1656 150.473 70.1656C150.473 70.1656 148.725 74.3938 143.394 79.5275C138.056 84.6613 132.977 88.1887 132.859 88.2281C132.741 88.2675 131.906 87.8659 131.906 87.8659L130.426 83.992L130.418 84.0235Z" fill="#0F0F14"/>
</g>
<path d="M100.254 124.008C99.9313 124.008 99.6006 124.008 99.2699 124.008C81.8767 123.764 72.2155 113.953 67.1763 105.764C61.7434 96.9375 60.4206 88.2999 60.3655 87.9377C60.3261 87.6936 60.4048 87.4417 60.5702 87.2606C60.7355 87.0795 60.9717 86.9693 61.2237 86.985C76.4438 87.6149 93.1362 84.804 93.3016 84.7803C110.561 81.2686 119.277 76.2924 123.553 72.7413C128.127 68.9382 128.671 65.9304 128.679 65.9068C128.734 65.5919 128.962 65.3242 129.269 65.2375C136.3 63.1982 142.127 58.8125 143.025 58.1196C144.284 55.915 146.521 52.356 147.993 52.104C149.174 51.9072 150.371 52.3875 150.993 52.6946L151.938 52.2221C153.883 51.0568 157.324 49.2695 158.741 50.2852C159.867 51.0883 159.89 52.4662 159.662 53.4426C159.898 53.7103 160.174 54.1197 160.426 54.7103C160.835 55.7024 160.355 56.8834 159.961 57.6C160.591 58.5448 160.284 59.8204 159.89 60.6314C160.064 61.3951 160.308 63.1352 159.197 64.1588C158.386 64.9069 157.292 65.1588 156.583 65.2454C155.757 68.0328 152.276 70.0721 151.213 70.6311C148.245 78.0797 135.875 87.2212 133.19 89.1424C133.639 90.6385 134.82 94.7092 135.316 97.7013C135.718 100.119 134.844 107.087 129.576 113.221C125.316 118.181 116.789 124.023 100.262 124.023L100.254 124.008ZM62.1843 88.6779C62.6961 91.1896 64.389 98.0871 68.6093 104.929C75.6249 116.299 85.9475 122.157 99.2857 122.338C112.561 122.527 122.324 119.087 128.301 112.126C133.615 105.937 133.883 99.276 133.663 97.9611C133.072 94.4179 131.427 89.0952 131.411 89.0401C131.301 88.6936 131.434 88.3157 131.734 88.111C131.883 88.0086 146.922 77.4813 149.757 69.7335C149.828 69.5288 149.977 69.3634 150.174 69.2689C151.442 68.6548 154.78 66.5682 155.064 64.3321C155.119 63.9147 155.473 63.584 155.898 63.6077C156.284 63.6077 157.426 63.4974 158.056 62.9148C158.528 62.4817 158.355 61.277 158.198 60.7574C158.127 60.529 158.158 60.2849 158.276 60.0802C158.276 60.0723 159.008 58.781 158.426 58.3716C158.245 58.2456 158.127 58.0488 158.087 57.8362C158.048 57.6157 158.103 57.3952 158.229 57.2141C158.654 56.6079 159.024 55.6866 158.883 55.3402C158.583 54.6237 158.253 54.3796 158.253 54.3717C157.875 54.1749 157.78 53.7733 157.938 53.3717C157.938 53.3638 158.41 52.0804 157.772 51.6237C157.268 51.419 154.867 52.3875 152.765 53.6473C152.749 53.6552 152.725 53.6709 152.709 53.6788L151.347 54.3638C151.087 54.4898 150.78 54.4819 150.536 54.3245C150.19 54.1119 149.103 53.5843 148.269 53.726C147.702 53.9308 145.906 56.3795 144.387 59.0645C144.332 59.159 144.269 59.2377 144.182 59.3007C143.922 59.5054 137.899 64.3242 130.19 66.6785C129.427 69.2532 124.419 80.1269 93.6087 86.4023C93.4197 86.4338 77.302 89.1503 62.2001 88.67L62.1843 88.6779Z" fill="#0F0F14"/>
<path d="M99.4226 124.164C84.6986 124.164 75.5964 117.054 70.4076 110.699C64.1243 103.007 62.1322 94.9518 62.0535 94.6132C61.9747 94.2746 62.1086 93.9203 62.3999 93.7235C62.9354 93.3691 64.9668 92.6133 68.6754 97.7548C68.9903 98.1958 69.3446 98.7155 69.7541 99.3217C73.754 105.259 83.1159 119.148 104.123 117.219C126.918 115.124 133.705 98.9989 133.768 98.8336C133.91 98.4792 134.28 98.2666 134.658 98.3218C135.036 98.3769 135.327 98.6761 135.366 99.0619C135.39 99.2824 135.878 104.479 132.327 110.172C129.091 115.361 121.721 121.943 104.989 123.841C103.052 124.061 101.194 124.164 99.4226 124.164ZM63.9983 95.3612C64.7778 97.8336 67.0219 103.944 71.7304 109.692C79.8089 119.557 90.9346 123.762 104.8 122.187C117.461 120.754 126.477 116.321 130.863 109.377C132.382 106.975 133.107 104.637 133.445 102.818C132.406 104.385 130.894 106.353 128.776 108.384C124.446 112.542 116.682 117.731 104.273 118.872C82.2813 120.888 72.5335 106.424 68.3683 100.251C67.9667 99.6603 67.6203 99.1485 67.3211 98.7312C65.7542 96.558 64.6518 95.6998 63.9826 95.3612H63.9983Z" fill="#0F0F14"/>
<path d="M131.418 89.0565C130.78 87.2849 129.883 84.8125 129.221 83.0802C128.489 81.0409 127.497 79.2221 126.914 77.104C126.891 77.041 126.977 76.978 127.032 77.0253C128.725 78.4898 129.583 80.5606 130.575 82.4976C131.512 84.4582 132.331 86.4502 133.001 88.5289C133.3 89.5604 131.804 90.0643 131.426 89.0565H131.418Z" fill="#0F0F14"/>
<path d="M87.3255 116.747C87.0736 116.747 86.8295 116.637 86.6641 116.416C86.3886 116.054 86.4594 115.527 86.8216 115.251C87.0972 115.038 114.569 94.0548 116.12 77.8899C116.167 77.4332 116.569 77.1025 117.026 77.1419C117.482 77.1891 117.821 77.5907 117.774 78.0473C116.152 94.9367 88.979 115.7 87.8295 116.574C87.6799 116.684 87.5066 116.739 87.3255 116.739V116.747Z" fill="#0F0F14"/>
<path d="M81.3642 113.655C81.1043 113.655 80.8524 113.537 80.687 113.308C80.4193 112.938 80.5059 112.418 80.876 112.151C81.1201 111.978 105.442 94.4111 108.521 81.0965C108.623 80.6477 109.072 80.3721 109.521 80.4745C109.97 80.5768 110.245 81.0256 110.143 81.4744C106.923 95.3953 82.8681 112.773 81.8445 113.505C81.6949 113.607 81.5295 113.663 81.3642 113.663V113.655Z" fill="#0F0F14"/>
<path d="M98.7225 98.521C98.5887 98.521 98.447 98.4895 98.321 98.4186C91.7227 94.7494 86.3607 87.3244 86.1323 87.0095C85.8646 86.6394 85.9512 86.1198 86.3213 85.852C86.6914 85.5843 87.211 85.671 87.4787 86.041C87.5339 86.1119 92.8566 93.4818 99.1241 96.9699C99.5257 97.1903 99.6674 97.7021 99.4469 98.1037C99.2973 98.3793 99.0139 98.5289 98.7225 98.5289V98.521Z" fill="#0F0F14"/>
<path d="M94.45 102.764C94.3319 102.764 94.2138 102.74 94.1035 102.685C87.395 99.5988 79.7574 88.1661 79.4346 87.6858C79.1827 87.2999 79.285 86.7881 79.6708 86.5362C80.0567 86.2842 80.5685 86.3866 80.8204 86.7724C80.8992 86.8905 88.521 98.2918 94.7964 101.181C95.2137 101.37 95.3948 101.866 95.2059 102.284C95.0641 102.591 94.7649 102.764 94.45 102.764Z" fill="#0F0F14"/>
<path d="M150.535 70.8539C150.189 70.8539 149.866 70.6334 149.748 70.2869C147.89 64.7123 143.079 59.2715 143.031 59.2164C142.724 58.8699 142.756 58.3503 143.102 58.0432C143.449 57.7361 143.968 57.7676 144.276 58.114C144.48 58.3503 149.362 63.8698 151.33 69.7673C151.472 70.2003 151.244 70.6728 150.803 70.8224C150.716 70.8539 150.63 70.8617 150.543 70.8617L150.535 70.8539Z" fill="#0F0F14"/>
<path d="M151.678 53.1989C152.418 54.4036 153.056 55.6319 153.567 56.9469C153.804 57.6161 154.166 58.4744 153.953 59.2618C153.567 60.3562 152.182 60.5924 151.26 60.3483C150.197 60.0964 149.378 59.3247 149.032 58.4193C149.008 58.3563 149.079 58.2933 149.134 58.3248C150.142 58.8129 151.355 59.5531 152.418 59.0492C152.536 58.9704 152.583 58.8996 152.599 58.8366C152.599 58.8366 152.599 58.8681 152.591 58.8602C152.134 57.1752 151.048 55.5847 150.245 54.0257C149.749 53.0808 151.095 52.2934 151.678 53.1832V53.1989Z" fill="#0F0F14"/>
<path d="M155.888 65.2593C155.707 65.2593 155.526 65.1963 155.368 65.0782C154.668 64.5192 153.699 63.2436 154.085 61.7555C153.652 61.0075 153.305 59.8343 153.833 58.7083C153.4 58.0154 153.077 56.984 153.557 55.9367C153.014 55.5273 152.361 54.8659 152.179 53.9919C152.069 53.4565 152.101 52.6219 152.88 51.7243C153.179 51.3778 153.707 51.3384 154.053 51.6376C154.4 51.9368 154.439 52.4644 154.14 52.8108C153.738 53.2754 153.794 53.5588 153.817 53.6533C153.935 54.2439 154.801 54.795 155.093 54.9446C155.329 55.0627 155.494 55.2832 155.542 55.5352C155.589 55.795 155.518 56.0548 155.337 56.2517C154.549 57.1021 155.337 57.9761 155.439 58.0705C155.723 58.3619 155.746 58.8185 155.502 59.1492C154.849 60.0154 155.636 61.0862 155.675 61.1334C155.857 61.3775 155.896 61.7004 155.77 61.9759C155.36 62.8972 156.376 63.7476 156.416 63.779C156.77 64.0704 156.825 64.5901 156.534 64.9444C156.368 65.1491 156.132 65.2515 155.888 65.2515V65.2593Z" fill="#0F0F14"/>
<path d="M154.72 56.5298C154.373 56.5298 154.051 56.3093 153.933 55.9628C153.791 55.5298 154.019 55.0574 154.46 54.9078C155.216 54.6558 157.358 53.829 158.129 53.081C158.46 52.7582 158.987 52.7661 159.302 53.0968C159.625 53.4275 159.617 53.955 159.287 54.27C158.106 55.4195 155.303 56.3802 154.988 56.4825C154.901 56.514 154.814 56.5219 154.728 56.5219L154.72 56.5298Z" fill="#0F0F14"/>
<path d="M154.718 59.6555C154.308 59.6555 153.954 59.3563 153.899 58.939C153.836 58.4823 154.151 58.065 154.607 58.002C155.851 57.8288 157.859 57.4036 158.434 57.0099C158.812 56.7501 159.332 56.8445 159.591 57.2225C159.851 57.6004 159.757 58.1201 159.379 58.3799C158.276 59.1358 155.403 59.5689 154.844 59.6476C154.804 59.6476 154.765 59.6555 154.725 59.6555H154.718Z" fill="#0F0F14"/>
<path d="M155.003 62.4736C154.586 62.4736 154.224 62.1587 154.176 61.7256C154.129 61.2689 154.46 60.8595 154.917 60.8123C156.058 60.6942 157.909 60.3162 158.46 59.8595C158.814 59.5682 159.334 59.6155 159.633 59.9698C159.924 60.3241 159.877 60.8438 159.523 61.143C158.389 62.08 155.633 62.4107 155.098 62.4658C155.066 62.4658 155.042 62.4658 155.011 62.4658L155.003 62.4736Z" fill="#0F0F14"/>
<path d="M74.2735 91.6339L52.0299 85.5947L49.1875 114.287C49.1875 114.287 57.7621 116.334 62.5415 117.531L74.2656 91.6339H74.2735Z" fill="#3E4049"/>
<path d="M49.1916 114.288C49.1916 114.288 46.8924 118.327 46.3806 122.485C46.3806 122.485 42.9634 124.65 43.3098 125.839C43.6484 127.036 44.672 127.264 45.8137 126.579C45.8137 126.579 44.672 128.744 46.0972 129.366C47.5223 129.996 49.6246 126.863 49.6246 126.863L50.4199 126.807C50.4199 126.807 49.5695 129.256 50.1364 130.225C50.7033 131.193 52.8135 130.736 53.1521 130.225C53.4907 129.713 54.3489 127.382 54.3489 127.382L55.1993 127.272C55.1993 127.272 55.1442 130.177 55.7111 130.516C56.278 130.855 58.1047 130.918 58.6716 130.343C59.2385 129.768 59.9787 125.618 59.9787 125.618C59.9787 125.618 61.5141 127.327 62.0259 127.382C62.5377 127.437 64.1282 126.13 64.1282 125.335C64.1282 124.54 62.5377 117.54 62.5377 117.54C57.7583 116.343 49.1837 114.296 49.1837 114.296L49.1916 114.288Z" fill="#F2C5A7"/>
<g opacity="0.25">
<path d="M47.0708 120.544C47.0708 120.544 45.4802 121.741 50.488 123.898C55.4957 126.063 58.8578 125.78 59.7633 124.977L59.3696 128.496C59.3696 128.496 56.8894 126.772 55.7241 128.339L53.7162 128.284C53.7162 128.284 52.4958 126.575 50.6376 127.866L49.1967 127.449C49.1967 127.449 48.7242 125.15 46.7007 126.717C46.7007 126.717 46.5275 126.26 46.5275 126.174C46.5275 126.087 47.2125 123.985 45.3621 124.323C43.5118 124.662 45.5905 123.071 45.8188 122.859C46.0472 122.646 46.559 122.048 46.559 122.048C46.559 122.048 46.5038 120.229 47.0708 120.536V120.544Z" fill="#0F0F14"/>
</g>
<path d="M52.7481 85.6641C52.3859 89.7664 51.819 95.845 51.4175 100.018L50.0317 114.372C50.0159 114.49 49.9844 114.6 49.9293 114.703C49.6065 115.293 49.2915 115.947 49.0081 116.585C48.1656 118.498 47.5042 120.521 47.2286 122.592C47.1892 122.852 47.0396 123.073 46.8428 123.199C46.3389 123.529 45.8192 123.907 45.3546 124.293C44.9137 124.679 44.3468 125.151 44.1499 125.671C44.1499 125.679 44.1499 125.616 44.1421 125.608C44.2759 125.97 44.3704 126.159 44.7799 126.096C44.9531 126.065 45.1735 125.978 45.3861 125.852C46.1184 125.403 46.9766 126.222 46.5908 126.97C46.3704 127.387 46.205 128.017 46.2601 128.324C46.2916 128.482 46.3152 128.498 46.3782 128.545C46.4648 128.592 46.4885 128.608 46.6144 128.584C47.5672 128.222 48.3231 127.191 48.9293 126.38C49.2128 125.915 49.9214 126.002 50.3781 125.954C50.9765 125.899 51.4568 126.513 51.26 127.08C51.0317 127.781 50.8348 128.592 50.8269 129.254C50.8269 129.474 50.8269 129.663 50.9135 129.805C51.2836 130.033 51.9293 129.923 52.3308 129.773C52.3938 129.75 52.4489 129.718 52.4804 129.702C52.5119 129.687 52.5277 129.655 52.4568 129.742C52.4726 129.718 52.5277 129.616 52.5434 129.584C52.9214 128.789 53.2363 127.931 53.5513 127.088C53.6694 126.773 53.945 126.569 54.2599 126.521L55.1103 126.403C55.5906 126.34 56.0315 126.679 56.0945 127.151C56.1103 127.632 56.0945 128.143 56.1418 128.631C56.1654 129.025 56.2441 129.631 56.3386 129.891C56.3386 129.883 56.3071 129.852 56.2835 129.836C56.252 129.797 56.1654 129.757 56.189 129.765C56.6929 129.954 57.6299 129.954 58.0866 129.726C58.5196 128.655 58.9055 126.828 59.1574 125.474C59.244 125.002 59.7007 124.687 60.1731 124.773C60.37 124.813 60.5353 124.907 60.6613 125.041C61.1495 125.561 61.6455 126.104 62.2125 126.513C62.244 126.537 62.2833 126.553 62.2754 126.553C62.2754 126.553 62.2754 126.553 62.2597 126.553C62.2046 126.529 62.0943 126.521 62.055 126.529C61.992 126.529 62.0077 126.537 62.0314 126.529C62.5195 126.293 63.0943 125.781 63.299 125.317C63.2518 125.175 63.2282 124.718 63.1573 124.443C62.8109 122.506 62.1495 119.695 61.74 117.734C61.6928 117.545 61.7164 117.356 61.7951 117.191L67.7005 104.262C69.4327 100.506 71.8106 95.0025 73.9287 91.4829C74.0468 91.286 74.2987 91.223 74.4877 91.3412C74.6531 91.4435 74.7318 91.6404 74.6688 91.8215C73.9287 94.0891 73.0232 96.278 72.0783 98.4512C70.2595 102.514 65.2439 113.687 63.3542 117.907L63.4093 117.364C63.8423 119.372 64.5116 122.128 64.8659 124.136C64.9368 124.521 65.0234 124.947 65.0392 125.364C65.0392 125.758 64.8659 126.143 64.6848 126.419C64.2675 127.049 63.803 127.474 63.1888 127.883C62.8896 128.057 62.6298 128.222 62.2125 128.269C62.0235 128.293 61.7479 128.246 61.5747 128.159C60.6613 127.671 60.0629 126.939 59.37 126.222L60.8739 125.789C60.7007 126.742 60.5038 127.679 60.2676 128.631C60.0314 129.427 59.8897 130.403 59.2598 131.041C58.3307 131.852 56.0315 131.876 55.1103 131.143C54.8819 130.939 54.7166 130.584 54.6615 130.379C54.3623 129.332 54.3701 128.34 54.3623 127.269L55.3544 128.151L54.504 128.261L55.2126 127.695C54.9134 128.49 54.6221 129.254 54.2678 130.057C54.1654 130.269 54.0394 130.561 53.8977 130.75C52.8977 131.946 50.0789 132.104 49.3545 130.529C48.8191 129.198 49.2679 127.82 49.6459 126.529L50.5277 127.679L49.7325 127.734L50.386 127.356C49.4805 128.561 48.575 129.781 47.0475 130.261C46.2444 130.482 45.268 130.096 44.8507 129.34C44.3783 128.506 44.5673 127.537 44.8507 126.734C44.9216 126.553 44.9846 126.395 45.0869 126.191L46.2837 127.324C44.9609 128.191 43.1578 127.939 42.5988 126.324C41.8429 124.458 44.6775 122.679 45.9609 121.773L45.5751 122.388C45.7719 120.884 46.1578 119.411 46.6617 117.994C47.1735 116.569 47.7561 115.23 48.4884 113.884L48.3861 114.215C48.8585 109.522 50.1025 97.2465 50.575 92.6954C50.8112 90.3018 51.0868 87.916 51.3466 85.5303C51.4568 84.6405 52.8269 84.6957 52.7718 85.672L52.7481 85.6641Z" fill="#0F0F14"/>
<path d="M62.5486 118.363C62.4856 118.363 62.4148 118.355 62.3439 118.339C57.6196 117.158 49.0844 115.119 48.9978 115.095C48.549 114.985 48.2734 114.544 48.3837 114.095C48.4939 113.647 48.9348 113.371 49.3836 113.481C49.4702 113.505 58.0212 115.544 62.7455 116.725C63.1943 116.836 63.462 117.284 63.3518 117.733C63.2573 118.111 62.9187 118.363 62.5486 118.363Z" fill="#0F0F14"/>
<path d="M45.2181 126.001C45.6275 125.497 46.1629 125.135 46.722 124.812C46.9109 124.702 47.1393 124.623 47.5251 124.71C47.5723 124.718 47.6117 124.757 47.6275 124.804C47.7219 125.19 47.6589 125.426 47.5487 125.615C47.2416 126.182 46.8952 126.733 46.407 127.159C45.6433 127.788 44.6118 126.781 45.2102 126.001H45.2181Z" fill="#0F0F14"/>
<path d="M59.1618 125.491C59.2011 124.916 59.3507 124.349 59.5082 123.798C59.7444 123.176 59.7523 122.609 60.4216 122.192C60.4688 122.16 60.5239 122.176 60.5554 122.215C60.8467 122.554 60.9176 122.853 60.9334 123.144C60.9806 124.01 60.9806 124.892 60.7995 125.743C60.5475 126.735 59.0988 126.506 59.1539 125.499L59.1618 125.491Z" fill="#0F0F14"/>
<path d="M27.1377 30.9062C27.1377 30.9062 25.0512 26.6544 19.3742 24.4733C13.6971 22.2844 8.3272 19.0089 5.92569 9.16666C5.75247 6.73365 11.524 2.87549 13.3271 3.43453C13.3271 3.43453 15.0987 12.017 19.5316 15.0563C23.9646 18.0956 34.8226 22.0876 35.9879 27.5284" fill="#742DD2"/>
<path d="M27.1388 31.739C26.8318 31.739 26.5404 31.5657 26.3908 31.2744C26.3593 31.2193 24.3358 27.2745 19.0682 25.2431C13.2888 23.0148 7.59606 19.5503 5.10793 9.36161C5.10006 9.31437 5.09219 9.26713 5.08431 9.22776C4.95833 7.48765 6.78506 5.75541 7.89526 4.88142C9.24168 3.81058 11.9424 2.14133 13.5644 2.64526C13.8557 2.73187 14.0683 2.97596 14.1313 3.26729C14.1471 3.3539 15.8872 11.5584 19.9973 14.3772C21.1705 15.1804 22.8555 16.078 24.6507 17.0386C29.6506 19.7078 35.8709 23.0305 36.8 27.3611C36.8945 27.8099 36.611 28.2509 36.1622 28.3454C35.7134 28.4398 35.2725 28.1564 35.178 27.7076C34.4142 24.1329 28.564 21.007 23.8712 18.5031C22.0366 17.5268 20.3123 16.6055 19.0603 15.7473C15.0683 13.0151 13.1628 6.32233 12.651 4.22789C11.8715 4.35387 10.3991 5.01527 8.93461 6.1806C7.42283 7.38529 6.75356 8.47187 6.74569 9.04666C9.17869 18.8968 14.6904 21.7707 19.6666 23.6919C25.5798 25.9675 27.7845 30.3532 27.879 30.5343C28.0837 30.9437 27.9105 31.4476 27.501 31.6445C27.3829 31.6996 27.257 31.7311 27.1388 31.7311V31.739Z" fill="#0F0F14"/>
<path d="M31.5427 36.9259C31.5427 36.9259 28.3932 40.8471 18.299 43.3116C8.20477 45.7761 2.9372 41.6738 2.00809 40.4219C1.07898 39.17 1.26795 34.1937 2.7561 33.5559C4.24425 32.9103 9.51182 35.9102 14.1023 35.8157C18.6927 35.7212 28.6137 29.186 28.6137 29.186C28.6137 29.186 29.4404 28.2569 31.8262 27.8947C34.2041 27.5325 36.0387 27.6978 36.0387 27.6978L35.9363 29.3356" fill="#742DD2"/>
<path d="M12.3026 44.9024C5.94053 44.9024 2.27921 42.1702 1.3501 40.9104C0.483984 39.7372 0.436741 36.8396 0.940664 34.9656C1.24774 33.8082 1.75167 33.0759 2.43669 32.7846C3.40517 32.3673 4.84607 32.824 7.01924 33.5169C9.12155 34.1861 11.7357 35.0208 14.0899 34.9735C18.389 34.8869 28.0659 28.5485 28.1604 28.4776C28.1762 28.4697 28.184 28.4619 28.1998 28.454C28.373 28.3516 32.4438 26.0052 36.2311 26.8792C36.546 26.9501 36.7901 27.2021 36.8531 27.517L37.1366 28.8556C37.231 29.3044 36.9476 29.7453 36.4988 29.8398C36.05 29.9343 35.609 29.6508 35.5145 29.202L35.3492 28.4068C32.4516 28.0131 29.31 29.7374 29.058 29.8792C28.4045 30.3122 18.8378 36.5404 14.1293 36.627C11.5152 36.6821 8.74361 35.8003 6.52319 35.0916C5.24764 34.69 3.50753 34.131 3.09809 34.2964C3.01935 34.3279 2.75951 34.5956 2.54692 35.3829C2.08237 37.1073 2.30283 39.3907 2.68865 39.9025C3.53115 41.0363 8.60975 44.8 18.1134 42.4772C27.7352 40.1308 30.8769 36.4144 30.9084 36.375C31.1997 36.0207 31.7194 35.9656 32.0737 36.2569C32.428 36.5483 32.4831 37.0601 32.1997 37.4223C32.0658 37.5876 28.7588 41.5954 18.5071 44.0914C16.2158 44.6504 14.145 44.8788 12.3026 44.8788V44.9024Z" fill="#0F0F14"/>
<path d="M57.5377 87.6173C57.5377 87.6173 84.907 89.7904 107.363 81.9717C129.819 74.1531 134.536 63.4683 126.772 51.6025C126.772 51.6025 127.118 24.0127 109.15 9.91855C91.1824 -4.16769 48.9001 -2.71104 36.1052 27.5165C30.9084 40.9728 34.7824 62.8935 34.7824 62.8935C34.7824 62.8935 25.3495 83.7985 57.5377 87.6173Z" fill="#3E4049"/>
<g opacity="0.5">
<path d="M128.814 55.3197C128.751 55.2174 128.688 55.115 128.617 55.0205C128.617 55.0205 128.617 54.9733 128.617 54.8945C128.68 55.0363 128.751 55.1859 128.814 55.3276V55.3197Z" fill="white"/>
</g>
<g opacity="0.5">
<path d="M36.2515 78.1933C33.6296 74.6108 33.291 70.7369 33.5902 67.7842C33.354 70.8392 33.7477 74.7367 36.2515 78.1933Z" fill="white"/>
</g>
<g opacity="0.5">
<path d="M33.4157 47.6523C33.5732 56.0458 34.7857 62.9039 34.7857 62.9039C34.7857 62.9039 33.8803 64.9117 33.5889 67.7935C33.833 64.707 34.7149 62.4945 34.7149 62.4945C34.7149 62.4945 33.3606 55.8962 33.4157 47.6602V47.6523Z" fill="white"/>
</g>
<path d="M104.291 25.4706C108.756 25.691 112.535 28.8248 113.598 33.1633C115.22 39.7773 117.567 52.6903 112.787 57.8555C106.236 64.9341 85.8352 65.8081 71.56 67.3986C57.2927 68.9891 47.7969 69.5639 44.3324 59.1469C40.8679 48.7298 42.8994 35.8325 44.0962 34.6908C45.293 33.5491 60.5446 31.6673 75.9457 29.5256C86.2289 28.1004 96.8822 25.1005 104.291 25.4627V25.4706Z" fill="#F2C5A7"/>
<path d="M66.3901 88.7139C61.0044 88.7139 57.5714 88.4541 57.4769 88.4462C57.4691 88.4462 57.4533 88.4462 57.4454 88.4462C45.7292 87.0604 38.0523 83.2731 34.6193 77.1945C31.0131 70.8168 33.3752 64.1555 33.9264 62.7934C33.4933 60.2265 30.3517 40.1247 35.3279 27.2116C40.564 14.8419 51.3118 6.00746 65.6027 2.32252C73.382 0.314695 81.744 -0.0632477 89.7832 1.22806C97.6019 2.48787 104.665 5.34606 109.665 9.25934C119.137 16.6843 123.507 27.81 125.507 35.8413C127.459 43.6757 127.601 50.0063 127.601 51.3527C130.963 56.5809 131.892 61.5178 130.357 66.0137C128.097 72.6514 120.452 78.2811 107.633 82.7456C93.098 87.8084 76.382 88.6982 66.3822 88.6982L66.3901 88.7139ZM57.6265 86.7927C58.4061 86.8478 85.2872 88.7848 107.098 81.1944C119.412 76.9111 126.711 71.6278 128.798 65.4941C130.176 61.4391 129.262 56.9274 126.089 52.0692C126.003 51.9275 125.955 51.77 125.955 51.6047C125.955 51.3291 126.081 24.2511 108.649 10.59C98.6727 2.76345 81.1456 0.0312377 66.02 3.93665C52.2409 7.49561 41.8947 15.9836 36.8712 27.8415C31.832 40.9042 35.5641 62.5335 35.6035 62.754C35.635 62.9193 35.6035 63.0847 35.5405 63.2422C35.509 63.313 32.5248 70.1396 36.0681 76.3993C39.2333 81.9739 46.4851 85.4778 57.6187 86.8006L57.6265 86.7927Z" fill="#0F0F14"/>
<path d="M59.7228 69.1492C52.101 69.1492 46.1326 67.1965 43.5421 59.4093C40.0226 48.8269 41.9595 35.5832 43.5185 34.095C44.6051 33.0557 51.1246 32.0872 68.1163 29.7723C70.6359 29.4259 73.2264 29.0715 75.8247 28.7172C79.4388 28.2133 83.108 27.5204 86.6591 26.8432C93.2259 25.5913 99.4304 24.4102 104.32 24.6543C109.107 24.8905 113.249 28.3078 114.391 32.9769C116.154 40.1736 118.367 53.0473 113.383 58.433C107.588 64.6926 92.0369 66.2123 78.3208 67.5587C75.9744 67.787 73.7539 68.0075 71.6438 68.2437C67.4155 68.7161 63.3763 69.165 59.7149 69.165L59.7228 69.1492ZM44.6602 35.3076C43.7626 36.465 41.7154 48.6616 45.1169 58.8896C48.3609 68.6374 57.2426 68.165 71.4705 66.5745C73.5965 66.3383 75.8169 66.1178 78.1711 65.8895C90.9346 64.6375 106.808 63.0864 112.178 57.2913C116.8 52.2993 114.147 38.898 112.792 33.3628C111.824 29.4022 108.312 26.5047 104.249 26.3C99.5564 26.0716 93.4463 27.2369 86.9741 28.4653C83.3994 29.1424 79.7065 29.851 76.0531 30.355C73.4547 30.7172 70.8643 31.0715 68.3368 31.4101C57.8252 32.8431 45.92 34.4651 44.6524 35.2997L44.6602 35.3076Z" fill="#0F0F14"/>
<path d="M88.5883 50.3376C88.8875 50.8021 89.6512 52.0462 90.2575 51.5816C92.1394 50.3533 93.974 49.0384 95.8873 47.8573C98.6904 46.0778 101.556 44.3299 104.525 42.826C104.8 42.6842 105.084 43.0779 104.832 43.2905C102.942 44.9125 100.895 46.4164 98.8479 47.8337C96.4306 49.4951 93.9976 51.1171 91.3677 52.4399C90.5331 52.8887 89.7536 53.0934 89.0056 52.3848C88.4859 51.8651 88.2182 51.2116 88.0607 50.5266C88.0292 50.3769 88.1237 50.2273 88.2733 50.1958C88.3993 50.1644 88.5253 50.2352 88.5804 50.3376H88.5883Z" fill="#0F0F14"/>
<path d="M72.2324 52.8658C72.2482 53.913 71.9096 55.3618 70.6655 55.535C69.9097 55.5744 69.1144 55.2594 68.3821 55.0941C66.0751 54.4327 63.8468 53.598 61.6264 52.7083C59.4296 51.8185 57.2092 50.8501 55.1148 49.732C54.8392 49.5824 54.9967 49.1336 55.3116 49.2123C60.3115 50.4485 65.1617 52.2359 69.9411 54.1177C70.0593 54.1649 70.3112 54.2594 70.4293 54.2988C70.4923 54.3224 70.5317 54.3303 70.5789 54.346C70.6025 54.3618 70.6104 54.346 70.6262 54.346C70.7364 54.3539 70.823 54.2909 70.949 54.1807C71.3033 53.8106 71.508 53.2752 71.6813 52.7713C71.7757 52.48 72.2245 52.5508 72.2245 52.8579L72.2324 52.8658Z" fill="#0F0F14"/>
<path d="M32.3281 38.1325C32.3281 38.1325 83.1535 39.0223 122.042 27.7863C122.042 27.7863 124.893 27.0305 123.389 22.3219C121.885 17.6134 115.798 19.259 115.798 19.259C115.798 19.259 82.5551 26.2116 70.4137 27.5265C58.2723 28.8414 36.0445 29.18 34.4619 29.4241C32.8792 29.6682 29.7218 33.2508 32.3359 38.1247L32.3281 38.1325Z" fill="#742DD2"/>
<g opacity="0.25">
<path d="M31.7853 37.5491C31.7853 37.5491 82.6107 38.4388 121.499 27.2029C121.499 27.2029 123.444 26.6832 123.271 23.8486C123.484 24.1793 123.665 24.5651 123.799 25.0061C125.302 29.7146 122.452 30.4705 122.452 30.4705C83.5634 41.7143 33.5411 40.8246 33.5411 40.8246C32.8955 39.6277 33.5096 38.5805 33.4624 37.5648C33.4781 37.5884 31.7695 37.5254 31.7853 37.5491Z" fill="#0F0F14"/>
</g>
<path d="M34.7054 38.9824C33.2094 38.9824 32.3669 38.9666 32.3039 38.9666C32.0047 38.9666 31.7291 38.7934 31.5874 38.5257C29.8079 35.2108 30.5796 32.6282 31.2016 31.3842C31.9417 29.9039 33.1937 28.7937 34.3196 28.6126C34.8472 28.5339 36.9101 28.4551 41.1541 28.3134C48.9649 28.0457 62.0433 27.6047 70.3108 26.7071C82.1451 25.4237 114.562 18.668 115.593 18.4554C117.971 17.8255 122.79 17.7704 124.168 22.0773C124.821 24.1166 124.805 25.7701 124.128 27.0063C123.451 28.2425 122.365 28.5653 122.239 28.5968C88.4757 38.3525 45.2563 38.9824 34.6976 38.9824H34.7054ZM32.8393 37.3053C38.2171 37.3525 85.5309 37.4706 121.805 26.9827C121.829 26.9827 122.357 26.8095 122.695 26.1638C123.12 25.3528 123.081 24.1166 122.585 22.5734C121.333 18.668 116.215 19.9986 116.002 20.0616C115.987 20.0616 115.971 20.0616 115.955 20.0695C115.625 20.1404 82.5388 27.0457 70.4919 28.3528C62.1614 29.2582 49.0515 29.6992 41.2092 29.9669C37.7526 30.085 35.0283 30.1795 34.5716 30.2503C34.1543 30.3133 33.2645 30.9511 32.6819 32.1164C32.2331 33.0219 31.6819 34.8565 32.8315 37.3053H32.8393Z" fill="#0F0F14"/>
<path d="M99.0209 59.124L99.7768 58.9665C102.989 58.2894 105.036 55.132 104.359 51.9194L102.777 44.4551L91.3203 51.4391L91.9817 54.5414C92.6589 57.7539 95.8163 59.8011 99.0288 59.124H99.0209Z" fill="#0F0F14"/>
<path d="M63.1693 63.8404H62.3977C59.1143 63.8168 56.4687 61.1397 56.4923 57.8563L56.5396 50.2266L69.1692 54.7619L69.1456 57.935C69.1219 61.2184 66.4448 63.864 63.1615 63.8404H63.1693Z" fill="#0F0F14"/>
<path d="M60.4776 58.6518C61.656 58.6518 62.6114 57.4603 62.6114 55.9904C62.6114 54.5206 61.656 53.3291 60.4776 53.3291C59.2991 53.3291 58.3438 54.5206 58.3438 55.9904C58.3438 57.4603 59.2991 58.6518 60.4776 58.6518Z" fill="white"/>
<g opacity="0.35">
<path d="M66.3306 59.8319C66.7517 58.9007 66.5373 57.8946 65.8518 57.5847C65.1663 57.2747 64.2693 57.7783 63.8483 58.7095C63.4272 59.6407 63.6416 60.6468 64.3271 60.9567C65.0126 61.2667 65.9096 60.7631 66.3306 59.8319Z" fill="white"/>
</g>
<path d="M95.9307 55.3217C97.1091 55.3217 98.0645 54.1302 98.0645 52.6604C98.0645 51.1905 97.1091 49.999 95.9307 49.999C94.7522 49.999 93.7969 51.1905 93.7969 52.6604C93.7969 54.1302 94.7522 55.3217 95.9307 55.3217Z" fill="white"/>
<g opacity="0.35">
<path d="M101.792 56.5087C102.213 55.5775 101.998 54.5714 101.313 54.2614C100.627 53.9515 99.7302 54.4551 99.3092 55.3862C98.8882 56.3174 99.1026 57.3235 99.7881 57.6335C100.474 57.9434 101.371 57.4398 101.792 56.5087Z" fill="white"/>
</g>
<path d="M130.392 128.963L130.386 130.9C130.384 131.335 130.735 131.689 131.17 131.69L159.429 131.789C159.864 131.79 160.218 131.439 160.219 131.004L160.226 129.067C160.228 128.632 159.876 128.279 159.441 128.277L131.182 128.179C130.748 128.177 130.394 128.528 130.392 128.963Z" fill="#742DD2"/>
<path d="M159.365 132.626L131.247 132.524C130.83 132.524 130.429 132.382 130.122 132.13C129.767 131.839 129.562 131.421 129.562 130.988V128.87C129.57 128.028 130.326 127.351 131.255 127.351L159.373 127.453C160.302 127.453 161.058 128.146 161.058 128.988V131.106C161.05 131.539 160.845 131.957 160.491 132.24C160.184 132.492 159.782 132.626 159.365 132.626ZM131.224 130.862C131.224 130.862 131.24 130.862 131.255 130.862L140.137 130.894L159.381 130.965C159.381 130.965 159.396 130.965 159.412 130.965V129.114C159.412 129.114 159.404 129.114 159.388 129.114L131.271 129.012C131.271 129.012 131.255 129.012 131.24 129.012V130.862H131.224Z" fill="#0F0F14"/>
<path d="M136.543 128.058C142.535 120.42 153.007 120.42 153.007 120.42C154.487 121.585 153.881 122.255 153.881 122.255C145.803 122.365 139.007 128.058 139.007 128.058H136.543Z" fill="#742DD2"/>
<path d="M139.006 128.619H136.542C136.329 128.619 136.14 128.501 136.045 128.304C135.951 128.115 135.975 127.887 136.108 127.721C142.203 119.958 152.573 119.871 153.014 119.871C153.14 119.871 153.258 119.91 153.36 119.989C154.108 120.58 154.517 121.17 154.565 121.753C154.604 122.265 154.352 122.572 154.305 122.627C154.202 122.737 154.053 122.808 153.903 122.808C146.108 122.918 139.447 128.43 139.376 128.485C139.274 128.572 139.148 128.611 139.022 128.611L139.006 128.619ZM137.73 127.509H138.809C139.888 126.643 146.022 122.005 153.415 121.714C153.352 121.548 153.195 121.304 152.817 120.981C151.447 121.029 143.108 121.58 137.73 127.509Z" fill="#0F0F14"/>
<path d="M75.9062 126.735C75.9062 126.735 78.4022 128.814 80.2683 129.105C82.1344 129.396 84.032 123.286 87.7878 122.373C87.7878 122.373 88.0082 121.223 87.1815 121.2C86.3862 121.176 83.4336 122.27 80.6935 127.176C80.473 127.569 79.9848 127.735 79.5675 127.546C78.6542 127.129 77.0794 126.357 75.9141 125.522C75.9141 125.522 75.5361 126.278 75.9141 126.735H75.9062Z" fill="#742DD2"/>
<path d="M80.4043 129.525C80.3413 129.525 80.2704 129.525 80.1996 129.509C78.2468 129.202 75.743 127.139 75.6406 127.053C75.6249 127.037 75.6012 127.021 75.5855 126.997C75.0501 126.352 75.4831 125.431 75.5304 125.328C75.5855 125.218 75.6879 125.139 75.806 125.108C75.9241 125.076 76.0501 125.108 76.1445 125.171C77.302 125.997 78.8846 126.769 79.7271 127.155C79.9397 127.249 80.1996 127.163 80.3177 126.958C83.1916 121.816 86.3175 120.738 87.1836 120.769C87.5852 120.785 87.8214 120.974 87.9553 121.131C88.3332 121.604 88.2072 122.352 88.1915 122.438C88.16 122.596 88.0419 122.722 87.8844 122.761C85.9711 123.226 84.4908 125.257 83.3097 126.895C82.2546 128.352 81.4042 129.517 80.4043 129.517V129.525ZM76.2154 126.446C76.5225 126.698 78.7271 128.438 80.3334 128.69C80.9239 128.777 81.7901 127.58 82.6404 126.415C83.8451 124.745 85.3411 122.69 87.4041 122.045C87.4041 121.895 87.3805 121.738 87.3175 121.659C87.3017 121.643 87.2781 121.612 87.1757 121.604C86.601 121.588 83.7506 122.557 81.0578 127.367C80.735 127.95 80.0027 128.194 79.3964 127.919C78.6405 127.572 77.2941 126.927 76.1603 126.186C76.1603 126.281 76.1682 126.375 76.2154 126.438V126.446Z" fill="#0F0F14"/>
<path d="M84.8907 130.823L88.0481 130.791C89.3551 128.461 90.1819 122.303 90.1819 122.303L88.0166 121.973L85.623 130.366L84.8828 130.823H84.8907Z" fill="#742DD2"/>
<path d="M84.8897 131.65C84.5196 131.65 84.1968 131.406 84.0945 131.052C83.9921 130.689 84.1417 130.311 84.4567 130.115L84.9212 129.831L87.2204 121.745C87.3385 121.343 87.7322 121.083 88.1495 121.154L90.3148 121.485C90.7636 121.556 91.0706 121.965 91.0155 122.414C90.984 122.674 90.1494 128.752 88.7794 131.193C88.6298 131.453 88.3621 131.619 88.0629 131.619L84.9055 131.65H84.8976H84.8897ZM88.6219 122.902L86.6062 129.973H87.5353C88.3148 128.225 88.9526 124.894 89.2439 122.997L88.6219 122.902Z" fill="#0F0F14"/>
<path d="M107.965 123.644C107.965 123.644 108.721 125.565 107.965 126.392C107.209 127.219 105.438 130.408 105.438 130.408H110.894C110.894 130.408 111.044 127.597 112.374 124.605C113.705 121.613 111.721 118.345 110.414 118.306" fill="#742DD2"/>
<path d="M96.4308 118.306C96.4308 118.306 94.8403 121.51 95.7457 123.912C96.6591 126.313 96.5646 128.101 95.9505 128.935C95.3363 129.77 93.2812 130.416 93.2812 130.416H99.3126C99.3126 130.416 102.643 127.998 100.068 124.069L99.785 123.77" fill="#742DD2"/>
<path d="M103.031 117.678C103.031 117.678 103.857 114.93 107.637 115.347C111.408 115.764 110.912 121.252 109.015 122.984C107.117 124.717 104.692 123.394 104.692 123.394C104.692 123.394 101.802 124.914 98.8575 123.37C95.9127 121.827 95.2277 117.433 97.6528 116.67C100.086 115.906 101.913 116.961 103.031 117.678Z" fill="#742DD2"/>
<path d="M101.696 124.897C100.711 124.897 99.5934 124.701 98.4596 124.11C96.1998 122.929 95.1919 120.457 95.3573 118.622C95.4833 117.252 96.2234 116.252 97.3966 115.882C99.6879 115.165 101.538 115.882 102.688 116.512C103.436 115.409 105.011 114.228 107.719 114.528C109.333 114.709 110.499 115.669 111.01 117.244C111.695 119.346 111.034 122.268 109.57 123.606C107.743 125.275 105.562 124.669 104.68 124.315C104.129 124.543 103.034 124.905 101.696 124.905V124.897ZM99.3257 117.236C98.8769 117.236 98.4045 117.307 97.8927 117.465C97.2391 117.669 97.0502 118.283 97.0108 118.764C96.9006 120.016 97.6407 121.795 99.2312 122.63C101.759 123.96 104.263 122.669 104.294 122.653C104.538 122.527 104.837 122.527 105.081 122.653C105.16 122.693 107.026 123.661 108.451 122.362C109.341 121.551 109.963 119.354 109.436 117.74C109.129 116.795 108.491 116.268 107.538 116.165C104.585 115.842 103.885 117.709 103.822 117.921C103.743 118.165 103.554 118.362 103.31 118.449C103.066 118.535 102.798 118.512 102.578 118.37C101.625 117.764 100.578 117.228 99.3257 117.228V117.236Z" fill="#0F0F14"/>
<path d="M104.685 124.222C104.449 124.222 104.205 124.12 104.047 123.923C103.756 123.568 103.803 123.049 104.157 122.75C104.449 122.505 104.59 122.23 104.606 121.883C104.645 120.616 103.031 118.813 102.464 118.285C102.126 117.97 102.11 117.443 102.425 117.112C102.74 116.773 103.26 116.758 103.598 117.073C103.882 117.332 106.338 119.687 106.267 121.939C106.244 122.765 105.882 123.49 105.22 124.041C105.063 124.167 104.874 124.23 104.693 124.23L104.685 124.222Z" fill="#0F0F14"/>
<path d="M99.321 131.243H93.2897C92.8802 131.243 92.5338 130.944 92.4708 130.542C92.4078 130.141 92.6519 129.747 93.0456 129.621C93.77 129.393 94.9825 128.857 95.2975 128.44C95.7227 127.865 95.7935 126.33 94.9904 124.212C93.9668 121.511 95.3762 118.432 95.4392 118.306C95.6361 117.889 96.1321 117.708 96.5416 117.905C96.9589 118.102 97.14 118.59 96.9431 119.007C96.9274 119.031 95.7699 121.59 96.5416 123.629C97.4707 126.086 97.51 128.259 96.636 129.44C96.5967 129.495 96.5573 129.542 96.5101 129.597H99.0376C99.636 129.062 101.163 127.306 99.4391 124.598L99.2108 124.353C98.8958 124.023 98.9037 123.495 99.2344 123.18C99.5651 122.865 100.093 122.873 100.408 123.204L100.691 123.503C100.691 123.503 100.762 123.582 100.786 123.621C103.163 127.259 101.195 130.101 99.8171 131.093C99.6753 131.196 99.5021 131.251 99.3289 131.251L99.321 131.243Z" fill="#0F0F14"/>
<path d="M110.888 131.243H105.431C105.14 131.243 104.864 131.086 104.715 130.834C104.565 130.582 104.565 130.267 104.707 130.007C104.896 129.669 106.549 126.708 107.345 125.834C107.573 125.582 107.447 124.629 107.187 123.944C107.022 123.519 107.234 123.039 107.66 122.866C108.085 122.7 108.565 122.905 108.738 123.338C108.896 123.74 109.628 125.795 108.581 126.952C108.203 127.37 107.463 128.574 106.872 129.582H110.14C110.282 128.496 110.652 126.44 111.612 124.267C112.305 122.7 111.911 121.071 111.313 120.063C110.904 119.378 110.494 119.141 110.392 119.134C109.935 119.118 109.573 118.74 109.589 118.275C109.604 117.819 109.982 117.456 110.447 117.472C111.226 117.496 112.045 118.086 112.683 119.102C113.549 120.472 114.124 122.732 113.14 124.937C111.888 127.755 111.73 130.425 111.73 130.448C111.707 130.889 111.345 131.236 110.904 131.236L110.888 131.243Z" fill="#0F0F14"/>
<path d="M149.75 72.2295L150.892 46.8679C150.892 46.8679 153.285 44.9546 155.899 46.8679L155.018 72.0011C155.018 72.0011 152.884 73.6546 149.75 72.2295Z" fill="#B0B0C1"/>
<g opacity="0.5">
<path d="M153.303 56.8041V55.0562L151.988 54.2215C152.153 50.009 152.287 46.4501 152.287 46.4501C151.185 46.3005 150.878 47.0642 150.878 47.0642L150.012 70.0164C150.012 70.0164 150.996 69.481 151.295 67.6936C151.413 66.9771 151.602 63.3788 151.775 59.3395L153.303 60.4025V58.9694L151.838 57.8514C151.862 57.2372 151.894 56.6152 151.917 56.001L153.303 56.8041Z" fill="white"/>
</g>
<g opacity="0.25">
<path d="M149.75 70.1804C149.75 70.1804 152.199 70.7316 152.821 70.4717C153.451 70.2119 154.246 46.2598 154.246 46.2598H155.018L155.695 46.7243L155.899 46.866L155.018 71.9992C155.018 71.9992 153.679 72.8181 152.222 72.8024C150.758 72.7945 149.758 72.2276 149.758 72.2276V70.1804H149.75Z" fill="#0F0F14"/>
</g>
<path d="M152.047 46.261C152.047 46.261 152.385 43.7178 152.574 43.5839C152.763 43.4501 154.354 43.5839 154.433 43.5839C154.511 43.5839 154.771 46.261 154.771 46.261" fill="#3E4049"/>
<path d="M152.276 73.5046C151.457 73.5046 150.504 73.3393 149.465 72.859C149.205 72.7408 149.048 72.481 149.064 72.1976L150.205 46.836C150.213 46.6392 150.308 46.4502 150.465 46.3242C151.434 45.5447 153.906 44.5447 156.315 46.3085C156.504 46.4423 156.607 46.6628 156.599 46.8911L155.717 72.0243C155.717 72.229 155.615 72.418 155.449 72.544C155.378 72.5991 154.182 73.4967 152.292 73.4967L152.276 73.5046ZM150.457 71.7802C152.371 72.4889 153.78 71.922 154.331 71.6149L155.189 47.2297C153.575 46.2455 152.126 46.9069 151.56 47.2455L150.457 71.7802Z" fill="#0F0F14"/>
<path d="M152.05 46.953C152.05 46.953 151.987 46.953 151.955 46.953C151.577 46.9058 151.31 46.5514 151.357 46.1735C151.735 43.3311 151.924 43.1972 152.168 43.024C152.412 42.8508 152.703 42.7878 154.333 42.8901H154.443C155.089 42.8901 155.136 43.3074 155.31 44.8428C155.388 45.52 155.451 46.1892 155.451 46.1892C155.491 46.5672 155.215 46.9058 154.829 46.9451C154.451 46.9845 154.113 46.7089 154.073 46.3231C154.003 45.583 153.908 44.7483 153.837 44.2365C153.475 44.2129 153.231 44.2129 153.073 44.2129C152.971 44.6853 152.821 45.583 152.727 46.3467C152.68 46.6932 152.381 46.9451 152.042 46.9451L152.05 46.953ZM154.381 44.2759C154.381 44.2759 154.42 44.2759 154.436 44.2759C154.436 44.2759 154.404 44.2759 154.381 44.2759Z" fill="#0F0F14"/>
<path d="M125.47 2.53711L144.171 19.7099C144.171 19.7099 144.1 22.7728 140.95 23.5444L122.258 6.7181C122.258 6.7181 122.368 4.02526 125.47 2.53711Z" fill="#B0B0C1"/>
<g opacity="0.5">
<path d="M135.001 15.1806L136.339 16.2986L137.827 15.8262C140.945 18.6608 143.591 21.0465 143.591 21.0465C144.418 20.2985 144.032 19.5663 144.032 19.5663L127.001 4.15723C127.001 4.15723 126.78 5.25956 127.954 6.6296C128.426 7.18077 131.064 9.6374 134.048 12.3696L132.253 12.8578L133.347 13.779L135.142 13.3696C135.599 13.7869 136.056 14.2042 136.512 14.6215L135.008 15.1727L135.001 15.1806Z" fill="white"/>
</g>
<g opacity="0.25">
<path d="M127.033 3.84911C127.033 3.84911 125.033 5.36875 124.837 6.0144C124.632 6.66005 142.474 22.6675 142.474 22.6675L141.978 23.258L141.183 23.4785L140.946 23.5415L122.254 6.71517C122.254 6.71517 122.49 5.16403 123.435 4.05382C124.38 2.94362 125.466 2.53418 125.466 2.53418L127.033 3.84911Z" fill="#0F0F14"/>
</g>
<path d="M143.889 20.9912C143.889 20.9912 145.621 22.8809 145.597 23.1093C145.574 23.3376 144.448 24.4793 144.4 24.5344C144.353 24.5895 142.133 23.0778 142.133 23.0778" fill="#3E4049"/>
<path d="M140.952 24.236C140.787 24.236 140.614 24.173 140.488 24.0549L121.795 7.22853C121.646 7.0868 121.559 6.88995 121.567 6.68524C121.567 6.55925 121.732 3.55146 125.165 1.90583C125.417 1.77985 125.724 1.8271 125.929 2.02394L144.629 19.1967C144.779 19.3306 144.858 19.5195 144.85 19.7243C144.818 20.9683 144.007 23.5037 141.102 24.2202C141.047 24.236 140.992 24.2438 140.936 24.2438L140.952 24.236ZM122.992 6.44902L141.125 22.7793C142.913 22.173 143.338 20.6376 143.44 19.992L125.354 3.38611C123.583 4.39396 123.11 5.83486 122.992 6.4569V6.44902Z" fill="#0F0F14"/>
<path d="M144.47 25.2503C144.147 25.2503 143.714 24.9589 142.872 24.3999C142.305 24.0219 141.746 23.644 141.746 23.644C141.431 23.4314 141.352 22.9983 141.564 22.6834C141.777 22.3684 142.21 22.2897 142.525 22.5023C143.139 22.9196 143.84 23.3842 144.273 23.6597C144.525 23.392 144.683 23.2109 144.785 23.085C144.494 22.707 143.895 22.0141 143.375 21.4472C143.116 21.1637 143.139 20.7307 143.415 20.4709C143.698 20.211 144.131 20.2346 144.391 20.5102C146.328 22.6204 146.305 22.8566 146.281 23.1558C146.257 23.455 146.116 23.7227 144.99 24.9038L144.911 24.9825C144.769 25.1558 144.627 25.2424 144.454 25.2424L144.47 25.2503ZM143.911 24.0456C143.911 24.0456 143.887 24.0771 143.872 24.0849C143.872 24.0849 143.887 24.0613 143.911 24.0456Z" fill="#0F0F14"/>
<path d="M199.893 73.6105L181.106 56.5322C181.106 56.5322 178.058 56.8787 177.57 60.0833L196.011 77.1852C196.011 77.1852 198.688 76.8388 199.885 73.6105H199.893Z" fill="#B0B0C1"/>
<g opacity="0.5">
<path d="M186.442 65.2559L185.206 64.0276L185.545 62.5C182.434 59.6497 179.82 57.2246 179.82 57.2246C180.49 56.3348 181.253 56.6577 181.253 56.6577L198.135 72.2321C198.135 72.2321 197.056 72.5549 195.584 71.5077C194.985 71.0825 192.308 68.681 189.324 65.9566L188.993 67.7912L187.978 66.7834L188.222 64.9567C187.765 64.5394 187.308 64.122 186.852 63.7047L186.442 65.2559Z" fill="white"/>
</g>
<g opacity="0.25">
<path d="M198.448 72.1622C198.448 72.1622 197.117 74.2881 196.487 74.548C195.857 74.8078 178.314 58.4775 178.314 58.4775L177.771 59.0208L177.621 59.8318L177.574 60.0759L196.015 77.1778C196.015 77.1778 197.534 76.8078 198.558 75.7605C199.582 74.7133 199.889 73.6031 199.889 73.6031L198.44 72.1543L198.448 72.1622Z" fill="#0F0F14"/>
</g>
<path d="M179.853 56.9256C179.853 56.9256 177.814 55.3745 177.586 55.4138C177.357 55.4532 176.326 56.6815 176.271 56.7288C176.216 56.776 177.924 58.8547 177.924 58.8547" fill="#3E4049"/>
<path d="M196.014 77.8707C195.841 77.8707 195.675 77.8078 195.541 77.6896L177.101 60.5877C176.936 60.4303 176.849 60.2019 176.888 59.9736C177.337 57.0209 179.794 55.9816 181.03 55.8398C181.227 55.8162 181.424 55.8792 181.573 56.0131L200.36 73.0913C200.573 73.2803 200.644 73.5795 200.541 73.8472C199.211 77.4219 196.234 77.8471 196.108 77.8629C196.077 77.8629 196.045 77.8629 196.022 77.8629L196.014 77.8707ZM178.329 59.8319L196.226 76.422C196.833 76.2487 198.226 75.6503 199.069 73.7921L180.896 57.2729C180.258 57.4303 178.762 57.9973 178.329 59.8319Z" fill="#0F0F14"/>
<path d="M177.937 59.5478C177.741 59.5478 177.536 59.4612 177.402 59.2958C177.402 59.2958 176.969 58.7762 176.552 58.2486C175.583 57.0439 175.323 56.7132 175.796 56.2408L175.851 56.1699C176.922 54.9416 177.182 54.7763 177.473 54.729C177.772 54.6739 178 54.6345 180.284 56.3746C180.591 56.603 180.646 57.0439 180.418 57.3431C180.189 57.6502 179.748 57.7053 179.449 57.477C178.835 57.0124 178.095 56.477 177.693 56.225C177.583 56.3353 177.41 56.5164 177.174 56.7841C177.489 57.1856 178.016 57.847 178.489 58.4218C178.733 58.7132 178.693 59.1541 178.394 59.3982C178.268 59.5005 178.111 59.5557 177.953 59.5557L177.937 59.5478ZM176.812 57.1699C176.812 57.1699 176.78 57.2093 176.772 57.2171C176.788 57.2014 176.804 57.1856 176.812 57.1699Z" fill="#0F0F14"/>
<path d="M167.73 34.9834L164.227 31.3615C164.227 31.3615 164.282 28.0623 167.415 28.2277L171.392 31.5977" fill="#B0B0C1"/>
<path d="M143.169 43.8564C145.452 43.8564 147.303 42.0056 147.303 39.7226C147.303 37.4396 145.452 35.5889 143.169 35.5889C140.886 35.5889 139.035 37.4396 139.035 39.7226C139.035 42.0056 140.886 43.8564 143.169 43.8564Z" fill="#B0B0C1"/>
<path d="M144.558 43.6202L151.211 40.4706C151.211 40.4706 152.054 38.077 150.715 37.1164L143.629 35.5889" fill="#B0B0C1"/>
<path d="M169.352 35.5909C170.739 35.5909 171.863 34.4663 171.863 33.0791C171.863 31.6919 170.739 30.5674 169.352 30.5674C167.964 30.5674 166.84 31.6919 166.84 33.0791C166.84 34.4663 167.964 35.5909 169.352 35.5909Z" fill="#B0B0C1"/>
<g opacity="0.25">
<path d="M143.169 43.8554C145.452 43.8554 147.303 42.0046 147.303 39.7216C147.303 37.4386 145.452 35.5879 143.169 35.5879C140.886 35.5879 139.035 37.4386 139.035 39.7216C139.035 42.0046 140.886 43.8554 143.169 43.8554Z" fill="#0F0F14"/>
</g>
<g opacity="0.25">
<path d="M169.348 35.5899C170.735 35.5899 171.859 34.4654 171.859 33.0782C171.859 31.691 170.735 30.5664 169.348 30.5664C167.96 30.5664 166.836 31.691 166.836 33.0782C166.836 34.4654 167.96 35.5899 169.348 35.5899Z" fill="#0F0F14"/>
</g>
<path d="M143.174 44.5459C140.513 44.5459 138.348 42.3806 138.348 39.7192C138.348 37.0579 140.513 34.8926 143.174 34.8926C145.836 34.8926 148.001 37.0579 148.001 39.7192C148.001 42.3806 145.836 44.5459 143.174 44.5459ZM143.174 36.2784C141.277 36.2784 139.733 37.8216 139.733 39.7192C139.733 41.6168 141.277 43.1601 143.174 43.1601C145.072 43.1601 146.615 41.6168 146.615 39.7192C146.615 37.8216 145.072 36.2784 143.174 36.2784Z" fill="#0F0F14"/>
<path d="M144.561 44.3113C144.301 44.3113 144.049 44.1617 143.931 43.9176C143.766 43.5711 143.916 43.1617 144.262 42.9964L150.632 39.9807C150.766 39.461 150.971 38.2957 150.404 37.7603L143.483 36.2721C143.112 36.1934 142.868 35.8233 142.955 35.4532C143.034 35.0832 143.404 34.8391 143.774 34.9257L150.86 36.4532C150.955 36.4768 151.041 36.5162 151.12 36.5713C152.86 37.8311 151.908 40.6027 151.868 40.7208C151.805 40.8941 151.679 41.0358 151.514 41.1145L144.86 44.264C144.766 44.3113 144.664 44.327 144.561 44.327V44.3113Z" fill="#0F0F14"/>
<path d="M169.349 36.2804C167.585 36.2804 166.145 34.8473 166.145 33.0757C166.145 31.3041 167.578 29.8711 169.349 29.8711C171.121 29.8711 172.554 31.3041 172.554 33.0757C172.554 34.8473 171.121 36.2804 169.349 36.2804ZM169.349 31.2569C168.349 31.2569 167.53 32.0758 167.53 33.0757C167.53 34.0757 168.349 34.8946 169.349 34.8946C170.349 34.8946 171.168 34.0757 171.168 33.0757C171.168 32.0758 170.349 31.2569 169.349 31.2569Z" fill="#0F0F14"/>
<path d="M167.732 35.6735C167.551 35.6735 167.37 35.6026 167.236 35.4609L163.732 31.8389C163.606 31.7051 163.535 31.5319 163.535 31.3429C163.535 31.272 163.582 29.5162 164.771 28.406C165.456 27.7682 166.354 27.4769 167.448 27.532C167.598 27.5398 167.74 27.595 167.858 27.6973L171.834 31.0673C172.125 31.3114 172.165 31.7523 171.913 32.0437C171.661 32.335 171.228 32.3744 170.937 32.1224L167.149 28.9099C166.551 28.9099 166.078 29.0831 165.724 29.4138C165.181 29.9177 165 30.6972 164.945 31.0988L168.228 34.4924C168.496 34.768 168.488 35.2089 168.212 35.4688C168.078 35.5947 167.905 35.6656 167.732 35.6656V35.6735Z" fill="#0F0F14"/>
<path d="M153.405 42.9924C153.366 42.9924 153.319 42.9924 153.279 42.9688C153.169 42.9294 153.075 42.8506 153.028 42.7404L144.666 24.0165C144.571 23.8039 144.666 23.5598 144.878 23.4653C145.091 23.3709 145.335 23.4653 145.429 23.6779L153.602 41.9767L169.114 32.8509C169.311 32.7328 169.563 32.8037 169.681 33.0005C169.799 33.1974 169.728 33.4493 169.531 33.5674L153.618 42.9294C153.555 42.9688 153.484 42.9845 153.405 42.9845V42.9924Z" fill="#0F0F14"/>
<path d="M176.918 56.4263C176.847 56.4263 176.776 56.4106 176.713 56.3712L153.202 42.9385C153.005 42.8283 152.934 42.5684 153.044 42.3716C153.154 42.1747 153.414 42.1039 153.611 42.2141L177.122 55.6468C177.319 55.7571 177.39 56.0169 177.28 56.2137C177.201 56.3476 177.059 56.4263 176.918 56.4263Z" fill="#0F0F14"/>
<path d="M145.041 28.6457C144.97 28.6457 144.907 28.63 144.836 28.5906L131.49 21.1656C131.293 21.0554 131.215 20.8034 131.333 20.5987C131.443 20.4019 131.695 20.3231 131.9 20.4412L145.246 27.8662C145.443 27.9765 145.521 28.2284 145.403 28.4331C145.325 28.567 145.183 28.6457 145.041 28.6457Z" fill="#0F0F14"/>
<path d="M129.113 27.5977C128.995 27.5977 128.869 27.5741 128.751 27.5347C127.578 27.1253 127.625 25.0072 128.279 23.1254C128.932 21.2436 130.215 19.5507 131.389 19.9601C131.932 20.1491 132.255 20.7554 132.31 21.6688C132.357 22.4561 132.192 23.4167 131.861 24.3695C131.271 26.0623 130.184 27.5977 129.113 27.5977ZM129.058 23.401C128.428 25.2041 128.617 26.6135 129.019 26.7552C129.42 26.897 130.444 25.9049 131.066 24.1018C131.365 23.2435 131.507 22.401 131.467 21.716C131.436 21.0782 131.247 20.7948 131.105 20.7475C130.704 20.6137 129.68 21.5979 129.058 23.401Z" fill="#0F0F14"/>
<path d="M169.477 58.1019C169.359 58.1019 169.249 58.0547 169.162 57.9602C167.068 55.5508 164.658 52.9367 164.194 52.6769C163.769 52.5903 162.91 52.6611 162.611 52.6926C162.383 52.7162 162.178 52.5509 162.155 52.3226C162.131 52.0942 162.296 51.8895 162.525 51.8659C162.651 51.8501 163.784 51.732 164.406 51.8659C164.989 51.9919 167.658 54.9524 169.792 57.409C169.942 57.5823 169.926 57.8421 169.753 57.9917C169.674 58.0626 169.58 58.0941 169.477 58.0941V58.1019Z" fill="#0F0F14"/>
<path d="M167.609 65.93C167.459 65.93 167.302 65.9064 167.16 65.8671C165.759 65.4655 165.2 63.2766 165.877 60.8672C166.192 59.7649 166.719 58.7885 167.373 58.1192C168.089 57.387 168.877 57.0878 169.593 57.2925C170.995 57.694 171.554 59.883 170.877 62.2923C170.562 63.3947 170.034 64.371 169.381 65.0403C168.814 65.623 168.199 65.93 167.609 65.93ZM169.144 58.0641C168.782 58.0641 168.365 58.2846 167.963 58.7019C167.404 59.2767 166.948 60.127 166.672 61.1034C166.089 63.1585 166.577 64.8435 167.381 65.0718C167.782 65.1899 168.294 64.9616 168.774 64.4655C169.333 63.8907 169.79 63.0404 170.066 62.064C170.648 60.0089 170.16 58.3239 169.357 58.0956C169.286 58.072 169.215 58.0641 169.144 58.0641Z" fill="#0F0F14"/>
<path d="M186.625 50.1652C186.42 50.1652 186.239 50.0078 186.216 49.803C185.995 48.0236 185.019 47.8582 184.979 47.8503L176.232 46.8661C176.003 46.8425 175.838 46.6378 175.862 46.4094C175.885 46.1811 176.09 46.0157 176.318 46.0394L185.074 47.0236C185.145 47.0236 186.727 47.244 187.035 49.7007C187.066 49.929 186.901 50.1337 186.672 50.1652C186.657 50.1652 186.641 50.1652 186.625 50.1652Z" fill="#0F0F14"/>
<path d="M156.599 18.6941C149.378 13.3241 141.741 8.31639 133.174 5.41883C132.969 5.35584 133.032 5.00939 133.269 5.06451C139.977 6.52904 146.166 9.9069 151.654 13.9619C153.473 15.3477 155.236 16.7886 156.843 18.4264C156.992 18.5838 156.78 18.8437 156.599 18.7019V18.6941Z" fill="white"/>
<path d="M140.108 10.7697C143.745 12.3366 147.194 14.2814 150.525 16.4152C153.84 18.5569 157.091 20.8954 159.871 23.7221C160.021 23.8796 159.808 24.1394 159.627 23.9977C156.525 21.5962 153.257 19.4388 149.942 17.3443C146.619 15.2578 143.257 13.2342 139.942 11.1004C139.761 10.9902 139.903 10.6831 140.116 10.7776L140.108 10.7697Z" fill="white"/>
<path d="M143.96 16.2359C147.094 17.6375 150.039 19.3776 152.873 21.3145C155.676 23.2751 158.511 25.3459 160.59 28.1175C160.716 28.2986 160.464 28.5191 160.306 28.3537C156.779 24.9759 152.07 22.157 148.015 19.417C146.598 18.48 145.181 17.543 143.787 16.5588C143.614 16.4407 143.763 16.1414 143.968 16.2359H143.96Z" fill="white"/>
<path d="M152.817 25.8563C152.605 25.8563 152.432 25.6988 152.408 25.4862C152.077 22.4548 147.928 13.3055 147.888 13.211C147.794 12.9984 147.888 12.7543 148.093 12.6598C148.306 12.5653 148.55 12.6598 148.644 12.8645C148.817 13.2425 152.888 22.2265 153.235 25.3918C153.258 25.6201 153.093 25.8248 152.865 25.8484C152.849 25.8484 152.833 25.8484 152.817 25.8484V25.8563Z" fill="#0F0F14"/>
<path d="M174.796 35.4564C179.458 39.5193 183.584 44.1964 187.292 49.149C190.15 53.0229 192.725 57.1488 194.638 61.566C194.678 61.6605 194.638 61.7707 194.544 61.8101C194.457 61.8494 194.347 61.8101 194.308 61.7234C190.347 54.5425 185.3 48.0703 179.969 41.8657C178.19 39.7949 176.379 37.7398 174.544 35.7241C174.474 35.6454 174.474 35.5273 174.552 35.4564C174.623 35.3934 174.725 35.3934 174.796 35.4564Z" fill="white"/>
<path d="M173.674 36.9912C178.162 41.3218 182.044 46.2272 185.579 51.3452C186.76 53.0538 187.854 54.8254 188.886 56.6206C188.933 56.7072 188.909 56.8253 188.815 56.8726C188.736 56.9198 188.626 56.8962 188.571 56.8253C187.319 55.1718 186.091 53.5183 184.831 51.8806C182.744 49.1326 179.374 44.8729 177.201 42.1328C175.926 40.5108 174.642 38.8888 173.39 37.2432C173.256 37.0778 173.5 36.8337 173.666 36.9912H173.674Z" fill="white"/>
<path d="M170.266 36.9915C173.707 40.4009 176.723 44.2039 179.565 48.1172C180.502 49.4321 181.415 50.7628 182.226 52.1643C182.337 52.3533 182.069 52.5502 181.927 52.3769L178.841 48.6684C176.825 46.2117 174.738 43.6606 172.809 41.141C171.841 39.8576 170.88 38.5663 169.983 37.2199C169.857 37.0466 170.117 36.8262 170.266 36.9836V36.9915Z" fill="white"/>
<path d="M161.138 51.4325C168.264 57.1017 175.004 63.2668 182.728 68.125C182.917 68.2352 182.767 68.5502 182.555 68.4478C179.964 67.251 177.508 65.6684 175.161 64.0385C171.902 61.7157 168.76 59.1803 165.791 56.5032C164.099 54.96 162.437 53.3852 160.886 51.7002C160.744 51.5428 160.957 51.2829 161.138 51.4325Z" fill="white"/>
<path d="M168.484 62.9135C174.98 66.6693 181.145 71.0471 188.051 74.0391C188.255 74.1179 188.161 74.4486 187.941 74.3935C186.082 73.9289 184.319 73.1888 182.602 72.3856C179.169 70.7636 175.917 68.7952 172.791 66.6535C171.24 65.5669 169.713 64.4489 168.272 63.2127C168.106 63.0709 168.287 62.7954 168.484 62.9135Z" fill="white"/>
<path d="M179.413 74.0536C184.121 75.4158 188.641 77.5023 193.365 78.8173C193.57 78.8645 193.53 79.1952 193.31 79.1795C192.05 79.1322 190.814 78.8724 189.601 78.5811C188.389 78.2818 187.2 77.9039 186.027 77.4866C183.68 76.652 181.397 75.6756 179.255 74.3843C179.074 74.282 179.2 73.9827 179.405 74.0457L179.413 74.0536Z" fill="white"/>
<path d="M136.286 36.66C130.294 30.2822 123.806 20.5816 122.081 11.9362C122.042 11.7236 122.373 11.6134 122.444 11.8496C124.617 18.6447 128.483 24.7154 132.459 30.5814C133.798 32.542 135.176 34.4868 136.569 36.4159C136.632 36.4946 136.616 36.6206 136.53 36.6757C136.451 36.7308 136.349 36.7229 136.286 36.6521V36.66Z" fill="white"/>
<path d="M138.897 34.6069C136.133 31.607 133.802 28.237 131.74 24.7252C130.527 22.6151 129.377 20.3868 128.645 18.0561C128.582 17.8435 128.889 17.7176 128.992 17.9223C131.96 23.678 135.826 28.8511 139.196 34.3864C139.306 34.5675 139.054 34.7801 138.905 34.6147L138.897 34.6069Z" fill="white"/>
<path d="M143.063 33.8427C141.338 32.9923 140.102 31.4018 139.354 29.6696C139.102 29.0869 138.937 28.4649 138.866 27.835C138.834 27.646 139.11 27.5436 139.212 27.709C139.543 28.2286 139.826 28.7483 140.165 29.2444C140.716 30.1026 141.606 31.2758 142.236 32.0947C142.59 32.5671 142.968 33.0474 143.307 33.5592C143.417 33.7088 143.236 33.9214 143.07 33.8348L143.063 33.8427Z" fill="white"/>
<path d="M148.402 52.8721C148.308 52.8721 148.213 52.8878 148.127 52.9036C147.694 52.9744 147.064 53.6122 146.418 54.439C146.418 54.4547 146.434 54.4626 146.434 54.4783C147.127 53.6358 147.851 52.9508 148.402 52.8799V52.8721Z" fill="#F2C5A7"/>
<path d="M153.076 59.3925C153.123 59.2822 153.147 59.1563 153.17 59.0303C152.989 59.4003 152.611 59.731 151.848 59.7704C152.415 59.8964 152.895 59.8413 153.084 59.3925H153.076Z" fill="#F2C5A7"/>
<path d="M158.911 57.683C158.911 57.683 160.076 56.0295 159.651 55.0059C159.225 53.9823 158.714 53.6674 158.714 53.6674C158.714 53.6674 159.454 51.7855 158.257 50.9351C157.06 50.0848 152.336 52.9272 152.336 52.9272L150.974 53.6122C150.974 53.6122 150.344 53.2185 149.533 53.006C150.541 53.3524 151.297 54.1791 151.297 54.1791L151.202 54.8878C151.202 54.8878 149.179 54.2658 148.722 54.3524C148.549 54.3839 147.966 55.1319 147.32 56.0374C147.903 56.9822 148.682 58.0846 149.541 58.8483C149.541 58.8326 149.541 58.8247 149.533 58.809L149.202 58.4783C149.202 58.4783 150.69 59.494 151.84 59.7538C152.604 59.7144 152.989 59.3837 153.163 59.0137C153.367 57.5806 151.934 55.2579 151.934 54.6752C151.934 54.0374 152.391 53.6044 152.391 53.6044L153.871 52.6674C153.871 52.6674 154.47 53.5492 155.383 53.7776C156.296 54.0059 157.407 53.8878 157.407 53.8878C157.407 53.8878 155.296 55.1634 155.241 55.3366C155.186 55.5177 155.501 56.3602 156.178 56.872C156.863 57.3838 158.399 57.5255 158.257 57.6672C158.115 57.809 155.556 58.4625 155.438 58.494C155.328 58.5255 155.737 59.4861 156.509 59.9743C157.281 60.4546 158.265 60.4861 158.265 60.4861L156.021 61.3837C156.021 61.3837 156.052 62.3522 156.934 62.7931C157.816 63.234 158.698 63.0057 158.666 63.1474C158.643 63.2734 158.123 63.8876 157.462 64.1553C157.863 64.0214 158.281 63.8167 158.619 63.5017C159.643 62.5648 158.989 60.4861 158.989 60.4861C158.989 60.4861 160.155 58.5491 158.903 57.6672L158.911 57.683Z" fill="#F2C5A7"/>
<path d="M157.125 64.2754C156.952 64.3069 156.794 64.3384 156.645 64.3699C156.794 64.3463 156.952 64.3148 157.125 64.2754Z" fill="#F2C5A7"/>
<path d="M157.324 64.2168C157.324 64.2168 157.262 64.2324 157.238 64.2403C157.27 64.2324 157.301 64.2246 157.324 64.2168Z" fill="#F2C5A7"/>
<g opacity="0.5">
<path d="M149.54 53.0074C149.186 52.8892 148.808 52.8184 148.414 52.8735C148.8 52.8499 149.186 52.9129 149.54 53.0074Z" fill="white"/>
</g>
<path d="M146.449 54.4793C146.607 54.7943 146.922 55.377 147.331 56.0462C147.985 55.1407 148.559 54.3927 148.733 54.3612C149.189 54.2746 151.213 54.8967 151.213 54.8967L151.307 54.188C151.307 54.188 150.551 53.3613 149.544 53.0148C149.189 52.9203 148.803 52.8573 148.418 52.881C147.867 52.9518 147.15 53.6368 146.449 54.4793Z" fill="#F2C5A7"/>
<g opacity="0.5">
<path d="M146.441 54.4784C146.599 54.7933 146.914 55.376 147.323 56.0452C147.977 55.1398 148.552 54.3918 148.725 54.3603C149.181 54.2736 151.205 54.8957 151.205 54.8957L151.3 54.187C151.3 54.187 150.544 53.3603 149.536 53.0138C149.181 52.9193 148.796 52.8564 148.41 52.88C147.859 52.9508 147.142 53.6359 146.441 54.4784Z" fill="white"/>
</g>
<g opacity="0.25">
<path d="M157.47 64.1719C157.423 64.1876 157.375 64.2034 157.32 64.2191C157.368 64.2034 157.415 64.1876 157.47 64.1719Z" fill="#0F0F14"/>
</g>
<g opacity="0.25">
<path d="M157.137 64.2725C157.137 64.2725 157.199 64.2568 157.238 64.249C157.199 64.2568 157.168 64.2725 157.129 64.2803L157.137 64.2725Z" fill="#0F0F14"/>
</g>
<g opacity="0.25">
<path d="M155.902 64.4321C155.902 64.4321 155.902 64.4636 155.895 64.4872C155.91 64.5108 155.934 64.5423 155.95 64.5659C156.099 64.5187 156.335 64.4478 156.65 64.377C156.217 64.4478 155.902 64.4399 155.902 64.4399V64.4321Z" fill="#0F0F14"/>
</g>
<g opacity="0.25">
<path d="M155.871 64.5899C155.871 64.5899 155.918 64.5743 155.949 64.5665C155.934 64.543 155.91 64.5117 155.895 64.4883C155.895 64.5196 155.887 64.5587 155.879 64.5899H155.871Z" fill="#0F0F14"/>
</g>
<path d="M158.67 63.1636C158.701 63.0219 157.819 63.2502 156.937 62.8093C156.056 62.3684 156.024 61.3999 156.024 61.3999L158.268 60.5023C158.268 60.5023 157.276 60.4708 156.512 59.9905C155.741 59.5102 155.331 58.5417 155.441 58.5102C155.552 58.4787 158.118 57.8252 158.26 57.6835C158.402 57.5417 156.867 57.4 156.181 56.8882C155.496 56.3764 155.189 55.526 155.245 55.3528C155.3 55.1717 157.41 53.904 157.41 53.904C157.41 53.904 156.3 54.0143 155.386 53.7938C154.473 53.5655 153.874 52.6836 153.874 52.6836L152.394 53.6206C152.394 53.6206 151.938 54.0458 151.938 54.6914C151.938 55.2819 153.371 57.5968 153.166 59.0299C153.394 58.5653 153.308 58.0614 153.308 58.0614H154.048C154.048 58.0614 154.166 59.0535 154.426 59.6204C154.685 60.1873 154.717 61.644 154.717 61.644C154.717 61.644 154.622 62.6125 155 63.2502C155.166 63.5258 155.52 64.014 155.874 64.4786C155.874 64.4628 155.874 64.4471 155.882 64.4234C155.882 64.4234 156.197 64.4234 156.63 64.3604C156.78 64.329 156.937 64.2975 157.111 64.266C157.15 64.2581 157.181 64.2502 157.221 64.2345C157.252 64.2345 157.284 64.2187 157.307 64.2108C157.355 64.1951 157.402 64.1793 157.457 64.1636C158.118 63.9038 158.638 63.2817 158.662 63.1558L158.67 63.1636Z" fill="#F2C5A7"/>
<g opacity="0.25">
<path d="M158.674 63.1627C158.705 63.0209 157.823 63.2493 156.941 62.8083C156.059 62.3674 156.028 61.3989 156.028 61.3989L158.272 60.5013C158.272 60.5013 157.28 60.4698 156.516 59.9895C155.744 59.5092 155.335 58.5407 155.445 58.5092C155.555 58.4777 158.122 57.8242 158.264 57.6825C158.406 57.5408 156.87 57.399 156.185 56.8872C155.5 56.3754 155.193 55.5251 155.248 55.3518C155.304 55.1707 157.414 53.9031 157.414 53.9031C157.414 53.9031 156.303 54.0133 155.39 53.7928C154.477 53.5645 153.878 52.6826 153.878 52.6826L152.398 53.6196C152.398 53.6196 151.941 54.0448 151.941 54.6904C151.941 55.281 153.374 57.5959 153.17 59.0289C153.398 58.5643 153.311 58.0604 153.311 58.0604H154.052C154.052 58.0604 154.17 59.0525 154.43 59.6194C154.689 60.1864 154.721 61.643 154.721 61.643C154.721 61.643 154.626 62.6115 155.004 63.2493C155.17 63.5248 155.524 64.013 155.878 64.4776C155.878 64.4618 155.878 64.4461 155.886 64.4225C155.886 64.4225 156.201 64.4225 156.634 64.3595C156.784 64.328 156.941 64.2965 157.115 64.265C157.154 64.2571 157.185 64.2492 157.225 64.2335C157.256 64.2335 157.288 64.2177 157.311 64.2099C157.359 64.1941 157.406 64.1784 157.461 64.1626C158.122 63.9028 158.642 63.2808 158.666 63.1548L158.674 63.1627Z" fill="#0F0F14"/>
</g>
<path d="M151.845 59.7687C150.695 59.5089 149.207 58.4932 149.207 58.4932L149.538 58.8239C149.538 58.8239 149.538 58.8475 149.546 58.8632C150.081 59.3357 150.648 59.6742 151.207 59.753C151.451 59.7845 151.656 59.7923 151.845 59.7845V59.7687Z" fill="#F2C5A7"/>
<g opacity="0.25">
<path d="M151.841 59.7697C150.691 59.5099 149.203 58.4941 149.203 58.4941L149.534 58.8248C149.534 58.8248 149.534 58.8485 149.542 58.8642C150.077 59.3366 150.644 59.6752 151.203 59.7539C151.447 59.7854 151.652 59.7933 151.841 59.7854V59.7697Z" fill="#0F0F14"/>
</g>
<path d="M155.92 65.2663C155.92 65.2663 155.889 65.2663 155.873 65.2663C155.417 65.2663 155.046 64.8805 155.054 64.4238C155.054 63.9671 155.432 63.6049 155.881 63.6049C155.889 63.6049 155.897 63.6049 155.913 63.6049C156.314 63.6049 157.432 63.4789 158.054 62.912C158.527 62.479 158.346 61.2507 158.196 60.7546C158.125 60.5263 158.157 60.2822 158.275 60.0775C158.275 60.0696 159.007 58.7783 158.424 58.3688C158.243 58.2429 158.125 58.046 158.086 57.8334C158.046 57.613 158.101 57.3925 158.227 57.2114C158.653 56.6051 159.023 55.6839 158.881 55.3374C158.582 54.6209 158.251 54.3768 158.251 54.369C157.873 54.1721 157.779 53.7705 157.936 53.369C157.936 53.3611 158.409 52.0777 157.771 51.621C157.267 51.4241 154.865 52.3847 152.763 53.6446C152.747 53.6524 152.724 53.6682 152.708 53.6761L151.346 54.3611C151.086 54.4871 150.779 54.4792 150.535 54.3217C150.188 54.1091 149.102 53.5816 148.267 53.7233C148.267 53.7233 147.834 53.8887 146.7 55.4398C146.433 55.8099 145.905 55.8886 145.535 55.6209C145.165 55.3532 145.086 54.8335 145.354 54.4556C146.779 52.5186 147.48 52.1643 147.984 52.0777C149.165 51.8808 150.362 52.3611 150.984 52.6682L151.928 52.1958C153.873 51.0305 157.314 49.2431 158.731 50.2588C159.857 51.062 159.881 52.4399 159.653 53.4162C159.889 53.6839 160.164 54.0934 160.416 54.6839C160.826 55.676 160.346 56.8571 159.952 57.5736C160.582 58.5184 160.275 59.794 159.881 60.605C160.054 61.3688 160.298 63.1089 159.188 64.1325C158.015 65.2033 156.275 65.2584 155.928 65.2584L155.92 65.2663Z" fill="#0F0F14"/>
<path d="M151.682 53.196C152.422 54.4007 153.059 55.629 153.571 56.9439C153.807 57.6132 154.17 58.4714 153.957 59.2588C153.571 60.3533 152.185 60.5895 151.264 60.3454C150.201 60.0934 149.382 59.3218 149.036 58.4163C149.012 58.3533 149.083 58.2903 149.138 58.3218C150.146 58.81 151.359 59.5501 152.422 59.0462C152.54 58.9675 152.587 58.8966 152.603 58.8336C152.603 58.8336 152.603 58.8651 152.595 58.8573C152.138 57.1723 151.052 55.5818 150.248 54.0227C149.752 53.0779 151.099 52.2905 151.682 53.1802V53.196Z" fill="#0F0F14"/>
<path d="M155.892 65.2574C155.711 65.2574 155.53 65.1944 155.372 65.0763C154.671 64.5172 153.703 63.2417 154.089 61.7535C153.656 61.0055 153.309 59.8323 153.837 58.7064C153.404 58.0135 153.081 56.982 153.561 55.9348C153.018 55.5253 152.364 54.8639 152.183 53.99C152.073 53.4545 152.105 52.6199 152.884 51.7223C153.183 51.3758 153.711 51.3365 154.057 51.6357C154.404 51.9349 154.443 52.4624 154.144 52.8089C153.742 53.2734 153.797 53.5569 153.821 53.6514C153.939 54.2419 154.805 54.7931 155.097 54.9427C155.333 55.0608 155.498 55.2813 155.545 55.5332C155.593 55.7931 155.522 56.0529 155.341 56.2497C154.553 57.1001 155.341 57.9741 155.443 58.0686C155.727 58.3599 155.75 58.8166 155.506 59.1473C154.853 60.0134 155.64 61.0843 155.679 61.1315C155.86 61.3756 155.9 61.6984 155.774 61.974C155.364 62.8952 156.38 63.7456 156.419 63.7771C156.774 64.0684 156.829 64.5881 156.538 64.9424C156.372 65.1471 156.136 65.2495 155.892 65.2495V65.2574Z" fill="#0F0F14"/>
<path d="M154.724 56.5268C154.377 56.5268 154.055 56.3064 153.936 55.9599C153.795 55.5269 154.023 55.0544 154.464 54.9048C155.22 54.6529 157.362 53.8261 158.133 53.0781C158.464 52.7553 158.991 52.7631 159.306 53.0938C159.629 53.4245 159.621 53.9521 159.291 54.267C158.11 55.4166 155.306 56.3772 154.992 56.4796C154.905 56.5111 154.818 56.5189 154.732 56.5189L154.724 56.5268Z" fill="#0F0F14"/>
<path d="M154.721 59.6526C154.312 59.6526 153.958 59.3534 153.903 58.936C153.84 58.4794 154.155 58.0621 154.611 57.9991C155.855 57.8258 157.863 57.4007 158.438 57.007C158.816 56.7471 159.335 56.8416 159.595 57.2196C159.855 57.5975 159.761 58.1172 159.383 58.377C158.28 59.1329 155.406 59.5659 154.847 59.6447C154.808 59.6447 154.769 59.6526 154.729 59.6526H154.721Z" fill="#0F0F14"/>
<path d="M155.011 62.4717C154.594 62.4717 154.231 62.1567 154.184 61.7237C154.137 61.267 154.468 60.8576 154.924 60.8103C156.066 60.6922 157.916 60.3143 158.468 59.8576C158.822 59.5663 159.342 59.6135 159.641 59.9678C159.932 60.3221 159.885 60.8418 159.531 61.141C158.397 62.078 155.641 62.4087 155.105 62.4638C155.074 62.4638 155.05 62.4638 155.019 62.4638L155.011 62.4717Z" fill="#0F0F14"/>
</g>
<defs>
<clipPath id="clip0_1213_9439">
<rect width="199.963" height="137.792" fill="white" transform="translate(0.617188 0.478516)"/>
</clipPath>
</defs>
</svg>
