<svg width="487" height="393" viewBox="0 0 487 393" fill="none" xmlns="http://www.w3.org/2000/svg">
<g clip-path="url(#clip0_1687_14978)">
<path d="M458.03 3.40332H131.375C117.257 3.40332 105.812 14.8481 105.812 28.966V284.525C105.812 298.643 117.257 310.087 131.375 310.087H458.03C472.147 310.087 483.592 298.643 483.592 284.525V28.966C483.592 14.8481 472.147 3.40332 458.03 3.40332Z" fill="white" stroke="#BABABA" stroke-width="6.81066" stroke-miterlimit="10"/>
<path d="M436.326 46.6484H144.981C136.932 46.6484 130.406 53.1738 130.406 61.2233C130.406 69.2727 136.932 75.7981 144.981 75.7981H436.326C444.375 75.7981 450.901 69.2727 450.901 61.2233C450.901 53.1738 444.375 46.6484 436.326 46.6484Z" fill="white" stroke="#B3B3B3" stroke-width="3.7837" stroke-miterlimit="10"/>
<path d="M436.326 84.4658H144.981C136.932 84.4658 130.406 90.9912 130.406 99.0406C130.406 107.09 136.932 113.615 144.981 113.615H436.326C444.375 113.615 450.901 107.09 450.901 99.0406C450.901 90.9912 444.375 84.4658 436.326 84.4658Z" fill="white" stroke="#B3B3B3" stroke-width="3.7837" stroke-miterlimit="10"/>
<path d="M135.08 25.4617C137.587 25.4617 139.62 23.4289 139.62 20.9213C139.62 18.4137 137.587 16.3809 135.08 16.3809C132.572 16.3809 130.539 18.4137 130.539 20.9213C130.539 23.4289 132.572 25.4617 135.08 25.4617Z" fill="#A0A0A0"/>
<path d="M146.658 25.4617C149.165 25.4617 151.198 23.4289 151.198 20.9213C151.198 18.4137 149.165 16.3809 146.658 16.3809C144.15 16.3809 142.117 18.4137 142.117 20.9213C142.117 23.4289 144.15 25.4617 146.658 25.4617Z" fill="#A0A0A0"/>
<path d="M159.103 25.4617C161.611 25.4617 163.643 23.4289 163.643 20.9213C163.643 18.4137 161.611 16.3809 159.103 16.3809C156.595 16.3809 154.562 18.4137 154.562 20.9213C154.562 23.4289 156.595 25.4617 159.103 25.4617Z" fill="#A0A0A0"/>
<path d="M306.812 139.072H135.91C133.302 139.072 131.188 141.186 131.188 143.794C131.188 146.402 133.302 148.516 135.91 148.516H306.812C309.42 148.516 311.534 146.402 311.534 143.794C311.534 141.186 309.42 139.072 306.812 139.072Z" fill="#BABABA"/>
<path d="M306.812 154.412H135.91C133.302 154.412 131.188 156.526 131.188 159.134C131.188 161.742 133.302 163.856 135.91 163.856H306.812C309.42 163.856 311.534 161.742 311.534 159.134C311.534 156.526 309.42 154.412 306.812 154.412Z" fill="#BABABA"/>
<path d="M306.812 169.901H135.91C133.302 169.901 131.188 172.015 131.188 174.623C131.188 177.231 133.302 179.345 135.91 179.345H306.812C309.42 179.345 311.534 177.231 311.534 174.623C311.534 172.015 309.42 169.901 306.812 169.901Z" fill="#BABABA"/>
<path d="M306.812 185.241H135.91C133.302 185.241 131.188 187.355 131.188 189.963C131.188 192.571 133.302 194.685 135.91 194.685H306.812C309.42 194.685 311.534 192.571 311.534 189.963C311.534 187.355 309.42 185.241 306.812 185.241Z" fill="#BABABA"/>
<path d="M446.173 219.114H135.91C133.302 219.114 131.188 221.228 131.188 223.836C131.188 226.444 133.302 228.558 135.91 228.558H446.173C448.781 228.558 450.895 226.444 450.895 223.836C450.895 221.228 448.781 219.114 446.173 219.114Z" fill="#BABABA"/>
<path d="M446.173 234.457H135.91C133.302 234.457 131.188 236.571 131.188 239.179C131.188 241.787 133.302 243.901 135.91 243.901H446.173C448.781 243.901 450.895 241.787 450.895 239.179C450.895 236.571 448.781 234.457 446.173 234.457Z" fill="#BABABA"/>
<path d="M446.173 249.939H135.91C133.302 249.939 131.188 252.054 131.188 254.662C131.188 257.269 133.302 259.384 135.91 259.384H446.173C448.781 259.384 450.895 257.269 450.895 254.662C450.895 252.054 448.781 249.939 446.173 249.939Z" fill="#BABABA"/>
<path d="M446.173 265.29H135.91C133.302 265.29 131.188 267.404 131.188 270.012C131.188 272.62 133.302 274.734 135.91 274.734H446.173C448.781 274.734 450.895 272.62 450.895 270.012C450.895 267.404 448.781 265.29 446.173 265.29Z" fill="#BABABA"/>
<path d="M431.072 134.495H355.163C346.219 134.495 338.969 141.746 338.969 150.689C338.969 159.633 346.219 166.884 355.163 166.884H431.072C440.015 166.884 447.266 159.633 447.266 150.689C447.266 141.746 440.015 134.495 431.072 134.495Z" fill="#3FA85A"/>
<path d="M365.31 143.558C366.422 144.133 367.285 144.951 367.898 146.018C368.511 147.085 368.813 148.311 368.813 149.718C368.813 151.126 368.511 152.344 367.898 153.396C367.285 154.448 366.43 155.257 365.31 155.833C364.197 156.408 362.903 156.695 361.428 156.695H356.539V142.703H361.428C362.896 142.703 364.19 142.991 365.31 143.566V143.558ZM364.742 153.101C365.544 152.299 365.945 151.171 365.945 149.711C365.945 148.25 365.544 147.115 364.742 146.29C363.94 145.465 362.805 145.057 361.337 145.057H359.354V154.296H361.337C362.805 154.296 363.94 153.895 364.742 153.093V153.101Z" fill="white"/>
<path d="M381.399 145.58V156.689H378.569V155.289C378.206 155.773 377.736 156.144 377.154 156.424C376.571 156.696 375.943 156.832 375.262 156.832C374.392 156.832 373.627 156.651 372.954 156.28C372.288 155.909 371.758 155.372 371.38 154.653C371.001 153.942 370.805 153.086 370.805 152.095V145.58H373.612V151.694C373.612 152.579 373.832 153.253 374.271 153.73C374.709 154.206 375.315 154.441 376.072 154.441C376.828 154.441 377.456 154.206 377.895 153.73C378.334 153.253 378.561 152.579 378.561 151.694V145.58H381.391H381.399ZM373.362 143.877C373.105 143.62 372.984 143.309 372.984 142.931C372.984 142.553 373.113 142.242 373.362 141.977C373.612 141.72 373.93 141.584 374.308 141.584C374.687 141.584 374.997 141.713 375.262 141.977C375.519 142.235 375.655 142.553 375.655 142.931C375.655 143.309 375.527 143.62 375.262 143.877C375.005 144.134 374.687 144.255 374.308 144.255C373.93 144.255 373.62 144.127 373.362 143.877ZM377.07 143.877C376.813 143.62 376.692 143.309 376.692 142.931C376.692 142.553 376.821 142.242 377.07 141.977C377.32 141.72 377.638 141.584 378.016 141.584C378.395 141.584 378.705 141.713 378.97 141.977C379.227 142.235 379.363 142.553 379.363 142.931C379.363 143.309 379.235 143.62 378.97 143.877C378.713 144.134 378.395 144.255 378.016 144.255C377.638 144.255 377.328 144.127 377.07 143.877Z" fill="white"/>
<path d="M386.733 154.382H391.682V156.69H383.539V154.427L388.39 147.889H383.562V145.581H391.621V147.844L386.733 154.382Z" fill="white"/>
<path d="M404.098 151.976H395.978C396.046 152.778 396.326 153.406 396.818 153.861C397.31 154.315 397.923 154.542 398.642 154.542C399.686 154.542 400.428 154.095 400.867 153.195H403.894C403.576 154.262 402.955 155.147 402.047 155.828C401.139 156.517 400.019 156.857 398.702 156.857C397.635 156.857 396.674 156.623 395.827 156.146C394.979 155.669 394.313 155.003 393.844 154.133C393.367 153.263 393.133 152.264 393.133 151.129C393.133 149.994 393.367 148.972 393.837 148.102C394.306 147.231 394.957 146.566 395.804 146.096C396.644 145.627 397.613 145.393 398.71 145.393C399.807 145.393 400.708 145.62 401.548 146.074C402.38 146.528 403.031 147.171 403.493 148.011C403.954 148.843 404.181 149.804 404.181 150.887C404.181 151.288 404.151 151.651 404.098 151.969V151.976ZM401.268 150.092C401.253 149.373 400.995 148.79 400.488 148.359C399.981 147.928 399.361 147.708 398.627 147.708C397.931 147.708 397.348 147.92 396.871 148.336C396.394 148.753 396.107 149.343 396.001 150.092H401.275H401.268Z" fill="white"/>
<path d="M415.587 146.679C416.405 147.511 416.813 148.684 416.813 150.175V156.691H414.006V150.554C414.006 149.668 413.786 148.995 413.34 148.518C412.901 148.041 412.296 147.807 411.539 147.807C410.782 147.807 410.154 148.041 409.708 148.518C409.261 148.995 409.034 149.668 409.034 150.554V156.691H406.227V145.582H409.034V146.967C409.405 146.482 409.889 146.111 410.464 145.831C411.039 145.552 411.683 145.423 412.379 145.423C413.703 145.423 414.77 145.839 415.587 146.679Z" fill="white"/>
<path d="M422.284 141.852V156.691H419.477V141.852H422.284Z" fill="white"/>
<path d="M435.285 151.976H427.166C427.234 152.778 427.514 153.406 428.006 153.861C428.498 154.315 429.11 154.542 429.829 154.542C430.874 154.542 431.615 154.095 432.054 153.195H435.081C434.763 154.262 434.143 155.147 433.235 155.828C432.327 156.517 431.207 156.857 429.89 156.857C428.823 156.857 427.862 156.623 427.014 156.146C426.167 155.669 425.501 155.003 425.032 154.133C424.555 153.263 424.32 152.264 424.32 151.129C424.32 149.994 424.555 148.972 425.024 148.102C425.493 147.231 426.144 146.566 426.992 146.096C427.832 145.627 428.8 145.393 429.897 145.393C430.995 145.393 431.895 145.62 432.735 146.074C433.568 146.528 434.218 147.171 434.68 148.011C435.142 148.843 435.369 149.804 435.369 150.887C435.369 151.288 435.338 151.651 435.285 151.969V151.976ZM432.463 150.092C432.448 149.373 432.19 148.79 431.683 148.359C431.176 147.928 430.556 147.708 429.822 147.708C429.126 147.708 428.543 147.92 428.066 148.336C427.589 148.753 427.302 149.343 427.196 150.092H432.47H432.463Z" fill="white"/>
<path d="M359.68 166.587L371.788 184.295L382.102 166.806L359.68 166.587Z" fill="#3FA85A"/>
<path d="M98.9603 260.666C36.2038 251.941 15.2043 273.296 15.2043 273.296C15.2043 273.296 13.7135 284.723 30.9596 292.464C48.2057 300.206 181.672 326.964 193.061 320.827C204.45 314.69 251.156 292.948 251.156 292.948L98.9527 260.673L98.9603 260.666ZM85.7854 306.237C85.7854 306.237 88.4643 271.177 109.547 263.367C88.4643 271.185 85.7854 306.237 85.7854 306.237Z" fill="#FFE921"/>
<g opacity="0.6">
<path d="M26.6404 267.046C26.6404 267.046 50.1296 262.892 68.98 262.468C87.8304 262.044 105.19 265.359 105.19 265.359C105.19 265.359 106.885 264.92 107.097 264.39C107.309 263.86 107.733 262.438 107.733 262.438C107.733 262.438 86.8617 257.034 63.2212 258.745C39.5806 260.455 26.6328 267.054 26.6328 267.054L26.6404 267.046Z" fill="white"/>
</g>
<g opacity="0.25">
<path d="M25.4572 266.274C25.4572 266.274 41.1898 277.269 61.8488 278.76C82.5078 280.251 101.805 268.014 101.805 268.014L106.572 264.276L111.673 263.36L251.17 292.941L191.91 321.243C191.91 321.243 177.433 321.531 165.991 320.078C154.549 318.618 67.0174 302.174 67.0174 302.174C67.0174 302.174 35.9229 294.205 29.6495 291.844C23.3762 289.483 18.6314 284.564 17.1709 281.053C15.7104 277.534 15.2109 273.304 15.2109 273.304L25.4572 266.281V266.274Z" fill="#0F0F14"/>
</g>
<path d="M185.852 323.354C169.718 323.354 135.529 317.497 113.916 313.463C74.7397 306.153 38.7869 297.776 30.2963 293.962C12.1346 285.812 13.5118 273.591 13.5799 273.076C13.6253 272.72 13.7843 272.388 14.0415 272.13C14.9194 271.237 36.3427 250.291 99.2051 259.024C99.2429 259.024 99.2807 259.039 99.3186 259.046L251.522 291.321C252.218 291.465 252.74 292.04 252.816 292.751C252.899 293.455 252.513 294.136 251.87 294.431C251.401 294.651 205.081 316.225 193.858 322.272C192.458 323.021 189.658 323.346 185.852 323.346V323.354ZM16.8188 274.06C16.8188 276.315 17.7798 284.738 31.6433 290.958C39.7934 294.613 76.2002 303.081 114.521 310.225C157.277 318.201 187.804 321.788 192.292 319.374C201.501 314.417 234.026 299.138 246.005 293.538L98.6829 262.3C42.2755 254.475 20.103 271.237 16.8263 274.068L16.8188 274.06Z" fill="#0F0F14"/>
<path d="M85.7872 307.887C85.7418 307.887 85.704 307.887 85.6586 307.887C84.7505 307.819 84.0694 307.024 84.1375 306.116C84.251 304.641 87.1493 269.914 108.974 261.824C109.829 261.506 110.775 261.945 111.093 262.8C111.41 263.656 110.972 264.601 110.116 264.919C90.252 272.282 87.452 306.033 87.4218 306.374C87.3536 307.236 86.6347 307.895 85.7796 307.895L85.7872 307.887Z" fill="#0F0F14"/>
<path d="M226.551 221.328C226.551 221.328 246.627 246.104 254.997 252.634C263.374 259.165 258.826 272.801 247.611 273.717C236.396 274.64 220.383 266.967 220.383 266.967C220.383 266.967 215.601 255.109 215.245 251.068C214.889 247.019 223.622 221.32 223.622 221.32H226.551V221.328Z" fill="#3E4049"/>
<g opacity="0.4">
<path d="M258.504 258.908C258.504 258.908 249.559 252.778 240.933 243.41C233.131 234.934 225.321 225.596 223.331 222.175C222.067 220.004 225.813 221.691 225.813 221.691C225.813 221.691 239.926 237.182 240.259 237.552C240.584 237.923 254.993 252.642 254.993 252.642L258.504 258.915V258.908Z" fill="white"/>
</g>
<path d="M245.667 275.449C234.399 275.449 220.301 268.767 219.673 268.465C219.302 268.283 219.007 267.973 218.856 267.595C218.357 266.361 213.967 255.388 213.604 251.219C213.233 247.034 218.629 223.613 219.249 220.957C219.424 220.207 220.089 219.678 220.854 219.678H226.552C227.051 219.678 227.521 219.905 227.831 220.291C228.028 220.54 247.885 244.998 256.012 251.34C260.287 254.669 261.96 260.012 260.386 265.279C258.698 270.917 253.742 274.882 247.748 275.374C247.067 275.427 246.371 275.457 245.667 275.457V275.449ZM221.671 265.748C224.592 267.072 238.009 272.846 247.476 272.074C253.091 271.613 256.194 267.769 257.223 264.325C258.396 260.39 257.155 256.41 253.984 253.935C246.197 247.866 228.989 226.92 225.765 222.977H222.163C219.885 232.913 216.654 248.29 216.888 250.931C217.146 253.875 220.226 262.116 221.671 265.756V265.748Z" fill="#0F0F14"/>
<g opacity="0.25">
<path d="M219.186 244.105C219.186 244.105 220.919 250.833 234.404 258.9C247.889 266.967 257.832 265.831 257.832 265.831C257.832 265.831 257.969 273.641 244.203 273.285C230.431 272.93 220.381 268.389 220.381 267.678C220.381 266.967 216.234 253.905 216.234 253.905L219.193 244.105H219.186Z" fill="#0F0F14"/>
</g>
<path d="M207.159 281.455C207.159 281.455 215.43 273.472 232.343 278.118C249.256 282.764 254.243 305.179 254.977 313.829C255.704 322.478 233.637 318.377 233.637 318.377C233.637 318.377 211.207 318.187 204.102 295.758" fill="#3E4049"/>
<g opacity="0.4">
<path d="M253.724 312.332C253.724 312.332 248.155 293.905 236.751 284.84C225.354 275.774 208.312 281.109 208.312 281.109C208.312 281.109 219.308 272.558 235.737 279.353C252.166 286.156 254.103 311.636 253.724 312.324V312.332Z" fill="white"/>
</g>
<g opacity="0.25">
<path d="M248.706 319.052L243.764 319.355C243.764 319.355 235.183 299.006 223.324 294.511C211.466 290.016 204.398 296.645 204.398 296.645C204.398 296.645 209.749 312.908 225.004 317.168C240.26 321.429 248.706 319.052 248.706 319.052Z" fill="#0F0F14"/>
</g>
<path d="M206.18 280.432C214.421 273.485 226.749 273.992 236.261 277.769C249.504 283.83 255.24 300.176 256.708 313.699C257.192 323.778 238.471 320.91 233.62 320.101C226.635 319.745 219.847 317.286 214.232 313.108C208.799 308.939 204.251 302.9 203.328 295.998C203.214 295.098 204.463 294.704 204.871 295.507C206.445 298.397 207.898 301.182 209.669 303.785C214.997 311.602 224.312 316.173 233.643 316.657C237.199 317.255 254.12 319.586 253.212 313.63C251.963 302.802 248.164 290.875 239.598 283.701C236.692 281.303 233.211 279.88 229.541 279.153C225.818 278.344 221.981 278.026 218.266 278.556C214.611 279.032 210.948 280.243 208.057 282.559C206.65 283.671 204.902 281.704 206.173 280.432H206.18Z" fill="#0F0F14"/>
<path d="M114.95 223.031C114.95 223.031 93.5793 252.49 98.6873 282.306C103.795 312.122 159.453 328.876 192.107 320.635C224.76 312.402 229.346 282.261 216.239 253.906C216.239 253.906 222.861 234.798 223.065 221.32C223.065 221.32 207.938 227.465 168.966 229.682C129.994 231.9 114.95 223.023 114.95 223.023V223.031Z" fill="#3E4049"/>
<path d="M214.668 253.392C215.515 250.546 216.885 246.437 217.808 243.569C218.996 240.255 219.564 236.88 221.456 233.792C221.524 233.679 221.705 233.716 221.728 233.845C222.318 237.455 221.274 240.845 220.623 244.326C219.874 247.746 218.981 251.129 217.801 254.436C217.036 256.419 214.093 255.442 214.668 253.399V253.392Z" fill="#0F0F14"/>
<path d="M173.571 324.387C154.1 324.387 132.178 318.575 116.808 308.571C105.548 301.238 98.7146 292.255 97.0573 282.584C91.8888 252.428 112.722 223.286 113.607 222.06C114.107 221.372 115.053 221.175 115.779 221.606C115.923 221.689 131.02 230.188 168.864 228.039C206.996 225.867 222.29 219.851 222.442 219.79C223.282 219.45 224.25 219.858 224.591 220.698C224.931 221.546 224.53 222.507 223.683 222.847C223.054 223.105 207.852 229.121 169.054 231.33C136.075 233.207 120.047 227.267 115.491 225.148C111.723 230.831 95.9373 256.507 100.311 282.017C101.81 290.757 108.136 298.975 118.609 305.794C138.602 318.802 170.022 324.493 191.703 319.029C204.34 315.843 213.111 309.267 217.78 299.49C223.501 287.511 222.396 271.142 214.745 254.593C214.36 253.768 214.723 252.784 215.548 252.398C216.372 252.02 217.356 252.375 217.742 253.2C225.801 270.643 226.906 288.033 220.762 300.905C215.722 311.462 205.952 318.832 192.512 322.222C186.739 323.675 180.306 324.372 173.579 324.372L173.571 324.387Z" fill="#0F0F14"/>
<path d="M221.92 271.104C163.084 290.923 100.282 254.985 100.282 254.985C100.282 254.985 97.8681 263.968 97.8908 269.174C97.8908 269.174 165.316 307.518 222.927 285.792C222.927 285.792 223.071 279.307 222.776 276.878C222.48 274.449 221.913 271.104 221.913 271.104H221.92Z" fill="#742DD2"/>
<path d="M184.206 294.062C167.111 294.062 151.008 290.831 138.355 287.214C114.382 280.365 97.2491 270.702 97.0826 270.604C96.568 270.308 96.2502 269.764 96.2502 269.173C96.2275 263.808 98.596 254.924 98.702 254.545C98.8382 254.054 99.1863 253.645 99.6631 253.448C100.132 253.251 100.67 253.282 101.116 253.539C101.275 253.63 116.97 262.529 139.581 268.901C160.369 274.758 191.44 279.624 221.407 269.529C221.861 269.378 222.368 269.431 222.785 269.673C223.201 269.922 223.481 270.339 223.564 270.815C223.587 270.952 224.139 274.228 224.434 276.665C224.737 279.177 224.601 285.542 224.593 285.814C224.578 286.487 224.154 287.085 223.526 287.32C210.556 292.208 197.101 294.047 184.214 294.047L184.206 294.062ZM99.5647 268.205C103.28 270.21 118.74 278.186 139.339 284.066C160.77 290.18 192.273 295.182 221.301 284.633C221.324 282.696 221.354 278.769 221.143 277.074C220.999 275.863 220.779 274.41 220.598 273.267C190.381 282.84 159.423 277.944 138.582 272.056C120.171 266.858 106.254 260.009 101.366 257.436C100.738 260.085 99.7236 264.769 99.5571 268.205H99.5647Z" fill="#0F0F14"/>
<path d="M158.254 276.198C157.747 276.198 157.262 275.918 157.02 275.434C156.68 274.752 156.96 273.928 157.641 273.587C158.064 273.375 200.124 252.217 211.952 223.574C212.239 222.87 213.042 222.537 213.745 222.825C214.449 223.113 214.782 223.922 214.494 224.618C202.266 254.222 160.63 275.169 158.867 276.046C158.67 276.145 158.458 276.19 158.254 276.19V276.198Z" fill="#0F0F14"/>
<path d="M173.224 278.038C172.687 278.038 172.18 277.727 171.96 277.198C171.665 276.501 171.991 275.692 172.687 275.397C173.073 275.23 211.712 258.37 220.513 222.221C220.695 221.479 221.436 221.032 222.178 221.207C222.919 221.388 223.366 222.13 223.192 222.871C214.058 260.383 174.17 277.758 173.769 277.932C173.595 278.007 173.413 278.045 173.232 278.045L173.224 278.038Z" fill="#0F0F14"/>
<path d="M196.33 293.473C195.301 292.209 194.696 290.658 194.438 289.054C193.962 286.027 193.651 280.389 197.064 277.127C201.892 272.511 207.999 277.627 207.999 277.627C207.999 277.627 211.548 271.27 220.917 272.034C230.285 272.799 227.516 289.485 224.89 291.611C222.264 293.738 216.656 292.466 216.656 292.466C216.656 292.466 214.03 298.142 206.365 297.363C200.613 296.78 198.018 295.554 196.33 293.48V293.473Z" fill="#742DD2"/>
<path d="M225.452 290.938L232.634 308.041L221.85 314.428L217.945 292.671" fill="#742DD2"/>
<path d="M213.228 296.016L212.335 317.515L200.484 317.325L202.051 296.659" fill="#742DD2"/>
<path d="M207.821 299.081C207.307 299.081 206.77 299.05 206.202 298.997C200.398 298.407 197.167 297.106 195.055 294.517C193.905 293.102 193.126 291.301 192.815 289.311C192.286 285.936 191.983 279.708 195.925 275.94C199.853 272.186 204.704 273.571 207.632 275.349C209.426 273.261 213.595 269.78 221.049 270.393C224.583 270.68 227.171 272.92 228.337 276.704C230.085 282.349 228.405 290.885 225.93 292.898C223.501 294.866 219.498 294.593 217.477 294.298C216.267 296.023 213.338 299.096 207.814 299.096L207.821 299.081ZM197.613 292.429C198.877 293.98 200.882 295.138 206.535 295.713C212.869 296.364 215.079 291.945 215.169 291.755C215.502 291.059 216.274 290.681 217.031 290.847C218.287 291.127 222.237 291.642 223.857 290.325C224.871 289.455 226.748 282.463 225.151 277.544C224.364 275.115 222.934 273.851 220.784 273.677C212.665 273.011 209.562 278.217 209.433 278.437C209.191 278.861 208.767 279.156 208.291 279.246C207.806 279.33 207.314 279.201 206.944 278.891C206.739 278.724 201.896 274.797 198.211 278.323C195.35 281.055 195.645 286.057 196.077 288.797C196.296 290.212 196.834 291.468 197.621 292.436L197.613 292.429Z" fill="#0F0F14"/>
<path d="M216.658 294.109C215.916 294.109 215.243 293.61 215.061 292.861C212.882 284.151 206.979 278.921 206.918 278.868C206.23 278.271 206.162 277.226 206.752 276.538C207.35 275.849 208.386 275.773 209.075 276.371C209.348 276.606 215.818 282.289 218.254 292.058C218.474 292.944 217.937 293.837 217.051 294.056C216.915 294.087 216.779 294.109 216.65 294.109H216.658Z" fill="#0F0F14"/>
<path d="M221.846 316.078C221.612 316.078 221.377 316.025 221.158 315.927C220.666 315.7 220.318 315.253 220.219 314.716L216.307 292.967C216.148 292.067 216.746 291.211 217.639 291.052C218.532 290.894 219.394 291.491 219.553 292.384L223.042 311.795L230.541 307.353L223.92 291.582C223.564 290.742 223.965 289.774 224.805 289.418C225.645 289.062 226.614 289.463 226.969 290.303L234.151 307.398C234.469 308.155 234.181 309.04 233.47 309.456L222.694 315.843C222.436 315.995 222.141 316.078 221.854 316.078H221.846Z" fill="#0F0F14"/>
<path d="M212.334 319.166C212.334 319.166 212.319 319.166 212.312 319.166L200.461 318.977C200.007 318.977 199.576 318.773 199.265 318.44C198.955 318.107 198.804 317.653 198.842 317.206L200.401 296.539C200.469 295.631 201.263 294.95 202.171 295.018C203.079 295.087 203.76 295.881 203.692 296.789L202.262 315.708L210.753 315.844L211.578 295.949C211.615 295.041 212.395 294.33 213.295 294.368C214.203 294.405 214.915 295.177 214.877 296.085L213.984 317.584C213.946 318.47 213.22 319.166 212.334 319.166Z" fill="#0F0F14"/>
<path d="M95.8405 132.217C95.8405 132.217 90.5509 140.012 72.1016 146.088C53.6523 152.165 43.2396 145.279 41.3174 143.069C39.3953 140.859 39.0169 131.544 41.6958 130.121C44.3747 128.706 54.6285 133.526 63.1645 132.686C71.7081 131.846 89.2342 118.18 89.2342 118.18" fill="#FF2434"/>
<g opacity="0.25">
<path d="M71.1227 139.517C52.6734 145.594 42.2607 138.707 40.3386 136.498C40.1418 136.271 39.9602 135.968 39.8013 135.605C39.6953 138.586 40.2856 141.87 41.3223 143.066C43.2444 145.276 53.6572 152.162 72.1065 146.085C90.5558 140.009 95.8454 132.214 95.8454 132.214L91.5699 131.98C90.4347 131.564 89.7915 130.391 89.7915 130.391C86.1516 133.085 80.249 136.513 71.1227 139.517Z" fill="#0F0F14"/>
</g>
<path d="M58.0527 150.16C47.9957 150.16 41.8358 146.172 40.0726 144.152C38.264 142.063 37.7418 136.607 38.4153 133.02C38.8316 130.795 39.6715 129.335 40.9277 128.669C42.7061 127.73 45.4682 128.374 49.6529 129.357C53.6637 130.303 58.6657 131.476 63.0094 131.045C69.6233 130.394 83.4489 120.594 88.224 116.879C88.9429 116.319 89.9796 116.447 90.5396 117.166C91.0996 117.885 90.9709 118.922 90.252 119.482C89.518 120.049 72.2492 133.451 63.3348 134.337C58.4387 134.821 53.1491 133.572 48.8962 132.574C46.4973 132.014 43.2131 131.242 42.4715 131.59C42.3428 131.658 41.9191 132.195 41.6542 133.693C41.0715 136.947 41.8055 141.11 42.5698 141.995C44.2952 143.978 54.2766 150.236 71.5908 144.53C89.1396 138.749 94.4368 131.37 94.4898 131.295C95.0119 130.545 96.0335 130.364 96.7827 130.871C97.5319 131.385 97.7286 132.399 97.214 133.156C96.987 133.497 91.3871 141.488 72.62 147.663C67.1109 149.479 62.2451 150.168 58.0527 150.168V150.16Z" fill="#0F0F14"/>
<path d="M87.1982 124.402C87.1982 124.402 81.4319 114.262 68.1587 109.804C54.8854 105.347 46.7202 84.7034 47.4694 81.4645C48.2186 78.2257 56.1795 70.121 63.5577 70.6583C63.5577 70.6583 66.2138 90.0838 76.7779 94.9269C87.342 99.7701 96.2413 102.472 100.176 114.375C100.176 114.375 98.9428 122.669 87.1982 124.402Z" fill="#742DD2"/>
<path d="M87.1929 126.048C86.6102 126.048 86.0578 125.738 85.7626 125.216C85.687 125.079 80.0719 115.545 67.6311 111.367C53.6087 106.66 44.9592 85.0177 45.8522 81.0902C46.7224 77.2762 55.2811 68.3997 63.6734 69.0051C64.4528 69.058 65.0809 69.6559 65.1869 70.4277C65.2096 70.6169 67.8506 89.0133 77.4612 93.4251C78.6114 93.9548 79.739 94.4542 80.8438 94.9461C90.0533 99.0325 97.9991 102.566 101.73 113.857C101.813 114.099 101.836 114.364 101.798 114.621C101.737 115.007 100.239 124.149 87.435 126.041C87.3518 126.056 87.2761 126.056 87.1929 126.056V126.048ZM62.1523 72.3045C56.0455 72.7963 49.598 79.5162 49.0683 81.8242C48.6067 84.5485 56.4919 104.148 68.6754 108.234C80.0644 112.056 86.1259 119.813 87.995 122.582C96.1905 120.993 98.0824 115.87 98.4532 114.462C95.1235 104.89 88.2145 101.825 79.5044 97.9579C78.3844 97.4585 77.2417 96.9515 76.0839 96.4218C66.4506 92.0024 63.015 77.0492 62.1448 72.3045H62.1523Z" fill="#0F0F14"/>
<path d="M235.014 218.061C235.014 218.061 186.083 233.582 141.897 228.769C97.7184 223.956 84.6268 206.43 93.7683 181.488C93.7683 181.488 81.5242 131.24 108.32 97.9209C135.117 64.6016 212.735 49.4365 248.764 99.2452C263.883 121.637 266.055 163.303 266.055 163.303C266.055 163.303 292.034 197.508 235.014 218.061Z" fill="#3E4049"/>
<g opacity="0.4">
<path d="M91.6406 189.14C91.7163 188.928 91.7844 188.716 91.8676 188.504C91.8676 188.504 91.8449 188.421 91.8147 188.27C91.7541 188.565 91.7012 188.852 91.6482 189.14H91.6406Z" fill="white"/>
</g>
<g opacity="0.4">
<path d="M269.836 191.86C273.097 184.217 272.091 176.997 270.298 171.73C272.015 177.202 272.946 184.497 269.836 191.86Z" fill="white"/>
</g>
<g opacity="0.4">
<path d="M262.133 134.884C265.371 150.283 266.052 163.315 266.052 163.315C266.052 163.315 268.542 166.599 270.283 171.737C268.542 166.205 266 162.535 266 162.535C266 162.535 265.689 149.913 262.125 134.891L262.133 134.884Z" fill="white"/>
</g>
<path d="M133.599 126.624C125.601 129.068 120.19 136.507 120.251 144.869C120.341 157.643 121.999 182.184 133.017 189.373C148.129 199.233 184.778 189.047 211.37 185.392C237.961 181.737 256.161 180.844 257.674 160.321C259.188 139.799 249.608 117.293 246.914 115.765C244.22 114.236 215.728 117.815 186.828 120.994C167.532 123.113 146.857 122.56 133.599 126.609V126.624Z" fill="#EDBC9A"/>
<path d="M159.618 231.334C153.639 231.334 147.631 231.054 141.705 230.411C116.476 227.664 100.16 220.604 93.2211 209.419C88.5066 201.822 88.1056 192.393 92.033 181.39C91.4655 178.87 89.0666 167.276 89.3239 152.179C89.5888 136.659 92.8806 114.471 107.016 96.8996C114.591 87.4857 125.95 79.5021 139.874 73.8114C153.972 68.0526 169.379 65.2073 184.408 65.5932C212.022 66.297 235.344 77.913 250.086 98.2844C264.608 119.791 267.362 157.757 267.665 162.736C269.284 165.052 276.352 176.236 272.455 189.411C268.739 201.973 256.329 212.136 235.564 219.62C235.541 219.62 235.526 219.635 235.503 219.643C235.08 219.779 198.098 231.342 159.618 231.342V231.334ZM181.82 68.8472C153.427 68.8472 124.02 81.0307 109.597 98.9579C83.6332 131.24 95.2416 180.603 95.3627 181.094C95.4384 181.412 95.4232 181.745 95.3097 182.056C91.5714 192.256 91.8136 200.876 96.0286 207.679C102.408 217.955 117.891 224.493 142.061 227.127C184.946 231.796 233.052 216.941 234.474 216.495C254.149 209.397 265.864 199.983 269.277 188.503C273.113 175.616 264.812 164.416 264.729 164.302C264.532 164.038 264.411 163.72 264.396 163.394C264.373 162.986 262.073 121.917 247.384 100.169C233.294 80.6902 210.894 69.5661 184.333 68.8851C183.493 68.8623 182.66 68.8548 181.82 68.8548V68.8472Z" fill="#0F0F14"/>
<path d="M152.307 195.225C144.134 195.225 137.112 194.022 132.117 190.761C120.585 183.239 118.7 158.788 118.602 144.887C118.541 135.836 124.505 127.679 133.116 125.045C141.879 122.366 153.669 121.663 166.156 120.921C172.898 120.52 179.875 120.104 186.648 119.362C191.521 118.825 196.38 118.28 201.102 117.75C232.976 114.163 245.258 112.937 247.725 114.337C251.251 116.335 260.862 139.567 259.318 160.446C257.812 180.87 240.71 183.148 217.039 186.296C215.268 186.53 213.452 186.773 211.598 187.03C205.612 187.855 199.202 188.99 192.422 190.193C178.437 192.675 164.165 195.218 152.315 195.218L152.307 195.225ZM243.767 117.046C236.971 117.046 218.272 119.15 201.48 121.042C196.751 121.572 191.892 122.124 187.019 122.654C180.163 123.411 173.148 123.827 166.36 124.228C154.078 124.954 142.477 125.643 134.092 128.208C126.866 130.418 121.856 137.267 121.917 144.864C121.992 155.527 123.309 181.067 133.934 187.998C145.08 195.271 169.932 190.851 191.854 186.954C198.673 185.743 205.105 184.601 211.159 183.768C213.02 183.511 214.844 183.269 216.615 183.034C240.384 179.871 254.732 177.964 256.041 160.211C257.509 140.331 248.353 119.15 246.12 117.228C245.712 117.099 244.91 117.039 243.774 117.039L243.767 117.046Z" fill="#0F0F14"/>
<path d="M182.957 169.435C182.155 169.344 181.353 169.14 180.573 168.92C175.874 167.505 171.341 165.621 166.748 163.911C162.843 162.405 158.968 160.838 155.139 159.158C153.898 158.515 152.453 158.364 151.613 156.722C151.265 156.056 151.613 155.208 152.324 154.966C154.065 154.368 155.207 155.261 156.547 155.655L160.459 157.108C164.954 158.825 171.424 161.421 175.965 163.222C178.311 164.153 181.61 165.326 183.865 166.37C185.515 167.157 184.743 169.677 182.949 169.427L182.957 169.435Z" fill="#0F0F14"/>
<g opacity="0.25">
<path d="M260.842 115.752C260.842 115.752 168.656 138.825 93.1026 134.701C93.1026 134.701 89.3492 134.573 88.4714 129.328C88.2292 130.025 88.0627 130.804 87.9946 131.659C87.2303 140.891 92.7394 141.065 92.7394 141.065C168.292 145.19 260.478 122.117 260.478 122.117C261.144 119.657 261.205 117.485 260.879 115.616C260.864 115.662 260.857 115.707 260.849 115.752H260.842Z" fill="#0F0F14"/>
</g>
<path d="M260.103 117.036C260.103 117.036 167.917 140.109 92.3644 135.985C92.3644 135.985 86.8553 135.81 87.6196 126.578C88.3839 117.346 100.159 117.777 100.159 117.777C100.159 117.777 163.619 116.461 186.291 113.736C208.963 111.012 249.577 102.257 252.566 102.045C255.555 101.825 262.813 107.032 260.103 117.036Z" fill="#742DD2"/>
<path d="M111.04 138.126C104.706 138.126 98.4402 137.975 92.2879 137.634C92.0836 137.634 89.942 137.506 88.1561 135.5C86.3854 133.51 85.6513 130.468 85.9843 126.442C86.6881 117.929 95.5419 115.976 100.181 116.128C102.201 116.082 164.034 114.751 186.101 112.102C201.531 110.248 225.535 105.549 239.867 102.734C247.662 101.205 251.453 100.471 252.452 100.395C254.601 100.244 257.378 101.75 259.361 104.156C261.033 106.184 263.553 110.604 261.699 117.467C261.54 118.042 261.086 118.489 260.504 118.64C259.656 118.852 181.765 138.126 111.032 138.126H111.04ZM99.8478 119.427C98.2208 119.427 89.8437 119.768 89.2761 126.715C89.0264 129.711 89.4729 131.966 90.5701 133.245C91.4253 134.244 92.4242 134.335 92.4696 134.335C162.786 138.172 248.691 118.095 258.748 115.674C259.77 110.785 258.014 107.705 256.826 106.26C255.305 104.413 253.466 103.634 252.702 103.695C251.854 103.755 246.595 104.784 240.511 105.98C226.125 108.795 202.053 113.517 186.502 115.386C164.012 118.088 100.847 119.427 100.211 119.442C100.181 119.442 100.15 119.442 100.113 119.442C100.082 119.442 99.9916 119.442 99.8553 119.442L99.8478 119.427Z" fill="#0F0F14"/>
<path d="M164.214 185.28C157.577 185.159 152.295 179.681 152.416 173.044L152.689 158.257C152.696 157.659 152.757 157.069 152.847 156.502C153.082 155.079 176.594 165.583 176.594 165.583L176.45 173.49C176.329 180.127 170.85 185.409 164.214 185.288V185.28Z" fill="#0F0F14"/>
<path d="M160.937 175.469C163.616 175.469 165.787 172.768 165.787 169.437C165.787 166.107 163.616 163.406 160.937 163.406C158.258 163.406 156.086 166.107 156.086 169.437C156.086 172.768 158.258 175.469 160.937 175.469Z" fill="white"/>
<g opacity="0.4">
<path d="M171.908 177.411C172.456 175.503 171.656 173.599 170.122 173.158C168.587 172.718 166.899 173.907 166.351 175.816C165.804 177.724 166.603 179.628 168.138 180.068C169.672 180.509 171.36 179.319 171.908 177.411Z" fill="white"/>
</g>
<path d="M221.71 157.362C223.292 156.522 225.955 155.357 227.598 154.555C231.85 152.519 236.043 150.31 240.303 148.281L243.519 146.768C244.632 146.352 245.502 145.451 247.106 145.989C247.81 146.216 248.196 146.972 247.977 147.669C247.47 149.288 246.228 149.47 245.23 150.128C242.112 151.861 238.949 153.503 235.725 155.039C232.494 156.583 229.255 158.134 225.948 159.534C224.404 160.026 220.779 161.926 220.31 159.322C220.181 158.316 221.014 157.839 221.71 157.362Z" fill="#0F0F14"/>
<path d="M231.573 178.78C238.21 178.901 243.688 173.619 243.81 166.982L244.082 152.195C244.09 151.597 244.059 151.007 243.984 150.432C243.802 149.002 219.919 158.628 219.919 158.628L219.775 166.535C219.654 173.172 224.936 178.651 231.573 178.772V178.78Z" fill="#0F0F14"/>
<path d="M228.452 170.666C231.139 170.666 233.318 168.01 233.318 164.734C233.318 161.457 231.139 158.801 228.452 158.801C225.764 158.801 223.586 161.457 223.586 164.734C223.586 168.01 225.764 170.666 228.452 170.666Z" fill="white"/>
<g opacity="0.4">
<path d="M240.144 170.866C239.493 172.478 237.896 173.341 236.579 172.803C235.263 172.259 234.718 170.51 235.369 168.899C236.019 167.287 237.616 166.424 238.933 166.961C240.25 167.506 240.794 169.254 240.144 170.866Z" fill="white"/>
</g>
<path d="M163.244 182.236C165.991 181.797 168.783 181.502 171.561 181.237C174.133 181.101 177.486 180.39 180.059 181.131C180.18 181.162 180.21 181.328 180.112 181.404C178.856 182.319 177.501 182.788 176.131 183.129C172.022 184.181 167.883 185.074 163.66 185.513C162.752 185.604 161.942 184.938 161.859 184.03C161.776 183.152 162.389 182.372 163.244 182.244V182.236Z" fill="#0F0F14"/>
<path d="M230.199 175.524C234.172 174.881 238.659 174.51 242.7 174.154C244.1 174.033 245.507 174.003 247.013 174.419C247.134 174.45 247.165 174.624 247.066 174.692C244.599 176.432 241.762 176.682 238.969 177.408C236.207 178.014 233.437 178.521 230.615 178.801C228.504 178.96 228.118 175.895 230.199 175.524Z" fill="#0F0F14"/>
<path d="M152.132 292.462C152.132 292.462 159.639 283.23 178.754 285.046C197.87 286.862 207.291 308.15 209.637 316.564C211.983 324.979 187.381 324.548 187.381 324.548C187.381 324.548 163.105 328.037 151.391 307.075" fill="#3E4049"/>
<g opacity="0.4">
<path d="M208.01 315.283C208.01 315.283 198.672 298.022 184.725 290.947C170.778 283.871 153.312 291.93 153.312 291.93C153.312 291.93 163.665 281.692 182.644 285.71C201.623 289.728 208.29 314.542 208.01 315.291V315.283Z" fill="white"/>
</g>
<g opacity="0.25">
<path d="M203.787 322.732L198.497 323.837C198.497 323.837 185.565 305.176 171.936 302.686C158.307 300.197 151.859 307.893 151.859 307.893C151.859 307.893 160.562 323.058 177.823 324.76C195.077 326.463 203.787 322.732 203.787 322.732Z" fill="#0F0F14"/>
</g>
<path d="M151.033 291.564C158.002 284.088 169.172 282.544 178.873 283.391C194.901 284.875 205.601 299.563 210.55 313.684C210.921 314.804 211.33 315.931 211.504 317.112C211.602 318.277 211.33 319.533 210.664 320.494C206.789 325.996 193.614 326.177 187.356 326.268C181.446 327.025 172.342 325.814 165.993 322.742C159.387 319.647 153.212 314.463 150.684 307.471C150.374 306.608 151.54 305.965 152.1 306.676C154.34 309.378 156.474 311.973 158.948 314.259C165.176 320.055 173.72 322.825 182.135 323.037C183.868 323.097 185.722 323.007 187.409 322.825C192.858 322.734 203.338 322.537 207.44 318.951C208.068 318.292 208.144 317.74 207.947 316.968C207.728 316.249 207.523 315.492 207.266 314.796C203.596 304.459 197.163 294.069 187.099 289.082C184.428 287.78 181.514 286.986 178.563 286.683L175.498 286.486C172.456 286.403 169.399 286.547 166.402 287.107C161.582 288.053 156.648 289.892 153.144 293.448C151.88 294.742 149.882 292.972 151.025 291.549L151.033 291.564Z" fill="#0F0F14"/>
<path d="M178.857 246.712C173.522 237.759 175.331 228.156 175.77 226.219C175.452 226.545 175.27 226.734 175.27 226.734C175.27 226.734 174.203 228.436 166.749 228.368C159.295 228.3 154.044 223.116 144.32 222.261C134.595 221.406 128.193 227.392 128.193 227.392C122.533 237.29 125.704 249.898 135.382 255.929L139.56 258.539C173.742 269.293 192.244 258.971 194.711 257.45C193.069 257.253 184.238 255.77 178.85 246.727L178.857 246.712Z" fill="#3E4049"/>
<path d="M213.226 238.796C213.226 238.796 217.373 234.112 217.161 230.276C216.949 226.439 211.977 225.236 211.977 225.236C210.842 219.984 205.734 219.696 205.734 219.696C203.464 216.859 197.546 217.994 197.546 217.994C197.546 217.994 195.866 215.156 190.327 215.935C185.544 216.609 177.795 224.169 175.775 226.212C175.336 228.149 173.527 237.76 178.862 246.704C184.25 255.755 193.081 257.231 194.723 257.427C194.913 257.314 195.011 257.246 195.011 257.246C202.041 254.62 214.315 249.436 215.458 245.176C216.593 240.915 213.226 238.789 213.226 238.789V238.796Z" fill="#EDBC9A"/>
<g opacity="0.25">
<path d="M190.543 222.547C190.543 222.547 191.965 224.166 193.668 224.666C195.371 225.165 196.15 224.106 196.15 224.106C196.15 224.106 199.419 227.927 200.978 227.791C202.537 227.647 202.968 227.155 202.968 227.155L205.269 225.173C205.269 225.173 205.239 228.646 206.449 230.773C207.653 232.899 209.514 232.71 209.514 232.71L211.247 228.919C211.247 228.919 211.065 232.778 212.836 234.087C214.615 235.389 215.25 234.927 215.25 234.927L213.691 237.553C213.691 237.553 212.034 237.636 211.686 237.349C211.338 237.061 208.841 233.996 205.768 234.087C202.696 234.186 202.552 235.601 202.908 235.82C203.264 236.04 203.922 238.378 203.771 238.802C203.619 239.225 203.127 240.376 203.127 240.376C203.127 240.376 201.818 239.785 201.311 239.672C200.797 239.558 199.17 239.483 198.965 239.528C198.753 239.566 197.565 240.065 197.565 240.065C197.565 240.065 192.836 238.802 190.21 234.473C187.584 230.145 189.574 225.248 189.574 225.248L190.565 222.562L190.543 222.547Z" fill="#0F0F14"/>
</g>
<g opacity="0.25">
<path d="M214.457 241.613C214.457 241.613 210.719 246.517 203.749 249.468C196.78 252.427 183.393 252.2 175.75 238.646C175.75 238.646 176.022 245.972 182.394 251.269C188.766 256.559 193.791 257.293 193.791 257.293L196.538 256.672C196.538 256.672 206.587 253.025 211.438 249.468C216.289 245.911 215.509 241.84 214.465 241.613H214.457Z" fill="#0F0F14"/>
</g>
<g opacity="0.25">
<path d="M146.991 260.598C147.097 260.621 147.203 260.643 147.309 260.666C146.015 260.356 144.699 260.015 143.352 259.645C144.509 260 145.713 260.326 146.991 260.606V260.598Z" fill="#0F0F14"/>
</g>
<g opacity="0.25">
<path d="M191.905 258.914C190.096 259.739 187.508 260.73 184.133 261.57C184.163 261.563 184.201 261.555 184.239 261.548C188.257 260.609 190.648 259.701 191.912 258.914H191.905Z" fill="#0F0F14"/>
</g>
<g opacity="0.25">
<path d="M192.834 257.077C192.728 256.979 192.6 256.895 192.441 256.82C190.844 256.078 185.698 253.588 184.064 252.567C182.951 251.871 180.204 248.344 178.555 246.157C178.653 246.339 178.759 246.52 178.865 246.702C183.125 253.853 189.527 256.275 192.834 257.077Z" fill="#0F0F14"/>
</g>
<g opacity="0.25">
<path d="M192.837 257.081C189.522 256.279 183.128 253.857 178.867 246.706C178.761 246.525 178.663 246.343 178.557 246.161C177.785 245.14 177.256 244.406 177.256 244.406L177.119 243.165L176.779 243.21C176.779 243.21 172.473 250.112 155.439 250.535C138.405 250.959 129.899 240.599 127.757 236.377C127.061 235.007 126.456 233.955 125.941 233.176C123.966 241.78 127.538 251.012 135.4 255.916L138.102 257.603C139.699 258.36 141.447 259.049 143.361 259.639C144.708 260.017 146.025 260.35 147.319 260.661C164.565 264.353 175.417 263.582 184.142 261.554C187.517 260.714 190.113 259.722 191.914 258.897C193.14 258.141 193.298 257.497 192.844 257.066L192.837 257.081Z" fill="#0F0F14"/>
</g>
<path d="M168.692 265.047C160.618 265.047 150.742 263.775 139.073 260.105C138.203 259.833 137.719 258.902 137.991 258.039C138.263 257.169 139.187 256.685 140.057 256.957C175.54 268.119 193.884 256.019 194.065 255.89C194.171 255.815 194.3 255.754 194.421 255.709C207.952 250.654 213.347 246.65 213.847 244.759C214.634 241.815 212.553 240.339 212.31 240.18C211.909 239.915 211.645 239.484 211.576 239.015C211.516 238.538 211.652 238.061 211.97 237.698C212.999 236.533 215.633 232.938 215.489 230.365C215.345 227.815 211.599 226.847 211.561 226.839C210.948 226.688 210.479 226.196 210.343 225.583C209.51 221.731 205.999 221.375 205.606 221.345C205.144 221.315 204.705 221.088 204.418 220.732C203.169 219.173 199.446 219.309 197.834 219.62C197.153 219.756 196.457 219.438 196.101 218.84C196.071 218.802 194.777 216.979 190.531 217.576C186.498 218.144 179.12 225.076 176.517 227.8C175.775 228.738 173.528 230.078 166.717 230.017C162.721 229.979 159.392 228.625 155.873 227.187C152.414 225.772 148.835 224.319 144.158 223.91C135.327 223.131 129.357 228.549 129.296 228.602C128.63 229.223 127.586 229.185 126.965 228.511C126.345 227.845 126.383 226.801 127.049 226.181C127.329 225.916 134.109 219.71 144.446 220.611C149.615 221.065 153.603 222.692 157.114 224.122C160.474 225.492 163.38 226.68 166.747 226.71C172.233 226.771 173.785 225.81 173.989 225.666C174.012 225.643 174.035 225.621 174.057 225.59C175.071 224.523 184.137 215.14 190.07 214.3C194.565 213.664 197.024 215.17 198.152 216.229C200.036 216.002 204.115 215.844 206.499 218.129C208.671 218.485 212.038 220.013 213.309 223.941C215.057 224.591 218.569 226.362 218.781 230.184C218.955 233.385 216.813 236.798 215.458 238.614C216.722 240.067 217.857 242.481 217.025 245.606C216.011 249.397 208.852 253.809 195.745 258.728C194.3 259.666 185.28 265.039 168.669 265.039L168.692 265.047ZM173.883 225.84C173.883 225.84 173.883 225.84 173.883 225.848C173.883 225.848 173.883 225.848 173.883 225.84Z" fill="#0F0F14"/>
<path d="M194.522 258.799C194.522 258.799 194.469 258.799 194.447 258.799C194.015 258.776 183.792 258.208 177.45 247.561C171.192 237.065 174.196 226.1 174.325 225.638C174.575 224.76 175.483 224.253 176.36 224.503C177.238 224.753 177.745 225.661 177.496 226.539C177.465 226.645 174.771 236.634 180.28 245.873C185.683 254.947 194.235 255.484 194.59 255.507C195.498 255.552 196.202 256.324 196.157 257.232C196.111 258.118 195.385 258.806 194.515 258.806L194.522 258.799Z" fill="#0F0F14"/>
<path d="M212.006 239.915C210.129 238.144 207.866 236.199 205.271 235.685C205.089 235.632 204.688 235.609 204.567 235.662C204.325 235.738 204.242 236.033 204.143 236.351C203.886 237.388 204.022 238.946 204.287 240.203C204.522 241.194 203.311 241.988 202.494 241.413C201.699 240.914 200.594 240.528 199.648 240.377C198.551 240.218 197.597 240.46 196.614 241.103C196.508 241.171 196.356 241.05 196.409 240.929C196.636 240.331 197.015 239.711 197.613 239.295C199.429 238.008 201.782 238.417 203.689 239.317L201.934 240.702C201.177 238.22 200.473 234.61 203.167 232.968C207.026 231.281 211.907 235.034 214.42 237.668C215.842 239.302 213.527 241.451 211.998 239.915H212.006Z" fill="#0F0F14"/>
<path d="M204.872 235.739C204.872 235.739 204.841 235.739 204.819 235.739C204.584 235.739 202.458 235.625 201.118 234.165C200.763 233.779 200.498 233.34 200.331 232.855C198.326 232.696 195.904 231.962 194.784 230.025C193.15 229.957 190.388 229.435 188.927 226.922C187.694 224.804 187.769 222.67 188.011 221.315L184.773 219.4C183.986 218.939 183.728 217.925 184.19 217.138C184.652 216.351 185.666 216.094 186.453 216.555L190.766 219.105C191.47 219.522 191.765 220.399 191.447 221.156C191.417 221.232 190.63 223.29 191.772 225.258C192.794 227.013 195.655 226.718 195.685 226.711C196.532 226.605 197.319 227.165 197.501 227.997C197.826 229.488 200.899 229.616 201.64 229.571C202.117 229.541 202.571 229.715 202.904 230.048C203.237 230.381 203.411 230.842 203.388 231.312C203.366 231.72 203.494 231.864 203.547 231.925C203.865 232.273 204.614 232.424 204.932 232.439C205.84 232.485 206.544 233.249 206.514 234.149C206.476 235.035 205.757 235.739 204.872 235.739Z" fill="#0F0F14"/>
<path d="M195.9 229.995C195.643 229.995 195.378 229.934 195.128 229.806C194.326 229.382 194.016 228.383 194.44 227.573C195.257 226.03 197.119 221.406 196.014 218.606C195.673 217.758 196.089 216.797 196.937 216.464C197.785 216.131 198.746 216.54 199.079 217.388C200.948 222.095 197.732 228.413 197.361 229.117C197.066 229.677 196.491 229.995 195.9 229.995Z" fill="#0F0F14"/>
<path d="M201.757 232.869C201.446 232.869 201.136 232.786 200.864 232.604C200.099 232.113 199.88 231.091 200.372 230.319C201.492 228.586 204.345 223.312 204.087 219.816C204.019 218.907 204.7 218.113 205.608 218.045C206.517 217.977 207.311 218.658 207.379 219.566C207.773 224.886 203.331 231.81 203.141 232.097C202.824 232.582 202.294 232.854 201.757 232.854V232.869Z" fill="#0F0F14"/>
<path d="M208.05 236.573C207.694 236.573 207.331 236.459 207.028 236.217C206.309 235.657 206.188 234.62 206.756 233.901C206.809 233.841 210.101 229.573 210.335 225.146C210.381 224.238 211.168 223.542 212.068 223.587C212.976 223.632 213.68 224.412 213.627 225.32C213.34 230.822 209.51 235.733 209.352 235.937C209.026 236.353 208.542 236.565 208.057 236.565L208.05 236.573Z" fill="#0F0F14"/>
<path d="M118.112 179.346C118.112 179.346 119.065 175.131 117.968 173.277C116.871 171.423 108.592 167.125 108.592 167.125C108.592 167.125 115.728 153.557 115.6 149.516C115.471 145.475 43.4293 100.918 39.0099 100.078C34.5906 99.2379 25.5324 106.684 14.5067 119.609C5.16095 130.567 -2.6032 147.435 4.07881 153.723C10.7533 160.012 52.2302 185.537 63.1499 191.53C74.0773 197.523 80.1539 203.471 87.6078 202.624C95.5157 201.723 101.486 186.452 101.486 186.452C101.486 186.452 103.885 189.57 106.594 189.88C109.296 190.198 111.929 187.474 111.929 187.474C116.591 185.052 118.127 179.339 118.127 179.339L118.112 179.346Z" fill="#7E58FF"/>
<path d="M293.963 282.294L291.193 280.644L118.112 179.347C118.112 179.347 116.576 185.052 111.914 187.482L283.823 288.62L289.491 291.995C297.24 287.992 293.963 282.294 293.963 282.294Z" fill="#C6975D"/>
<path d="M374.778 334.418C386.454 321.213 381.997 309.983 379.621 307.417C377.252 304.844 323.16 272.274 315.949 269.724C308.737 267.181 307.148 274.136 301.707 281.87C301.707 281.87 298.869 279.88 296.432 278.956C293.996 278.033 291.196 280.644 291.196 280.644L293.965 282.294C293.965 282.294 297.242 287.992 289.493 291.995L283.825 288.62C283.825 288.62 283.333 291.844 284.029 292.737C284.725 293.637 292.482 298.73 292.482 298.73C292.482 298.73 284.135 311.405 284.809 315.28C285.482 319.154 329.381 343.355 351.81 350.219C356.684 351.709 365.954 344.384 374.778 334.41V334.418Z" fill="#7E58FF"/>
<g opacity="0.25">
<path d="M23.585 110.096C23.585 110.096 12.5139 129.703 15.9193 141.553C19.3246 153.396 75.9741 187.472 85.3426 189.886C94.711 192.3 106.115 176.091 106.115 176.091C106.115 176.091 106.213 180.45 110.33 182.221C114.447 183.999 116.535 182.924 116.535 182.924L115.347 184.627L115.029 185.202C115.029 185.202 285.954 286 288.225 286.318C290.495 286.636 292.144 281.195 292.144 281.195L293.983 282.292C293.983 282.292 294.861 283.147 294.664 284.925C294.468 286.704 292.947 289.451 292.947 289.451C292.947 289.451 293.703 292.462 294.695 293.03C295.686 293.598 300.968 293.03 300.968 293.03L298.826 295.376C298.826 295.376 292.137 309.005 293.908 311.631C295.686 314.257 339.479 341.234 353.395 341.371C367.311 341.514 381.319 317.329 379.639 307.416C379.639 307.416 385.481 313.167 380.373 325.207C375.265 337.254 367.463 342.869 362.832 345.881C358.2 348.9 354.167 350.414 351.829 350.224C349.49 350.028 309.565 332.456 296.412 324.314C283.26 316.171 284.252 315.316 285.069 312.917C285.894 310.511 292.409 299.061 292.409 299.061C292.409 299.061 285.379 294.309 284.388 292.818C283.397 291.327 283.669 289.125 283.669 289.125L283.003 288.126C283.003 288.126 113.175 188.108 113.07 188.04C112.964 187.972 111.541 187.851 111.541 187.851C111.541 187.851 108.885 190.545 106.327 189.841C103.769 189.137 102.029 187.329 102.029 187.329H101.143L94.7034 197.756C94.7034 197.756 92.804 201.911 87.5523 202.251C82.3005 202.592 80.1816 201.29 80.1816 201.29C80.1816 201.29 13.9442 163.052 6.4146 155.742C-1.1074 148.432 1.88929 143.18 3.36494 138.912C4.84058 134.644 13.8685 115.915 23.5926 110.096H23.585Z" fill="#0F0F14"/>
</g>
<path d="M352.659 351.922C351.834 351.922 351.062 351.816 350.366 351.612C347.846 350.87 331.455 343.847 315.639 336.182C283.947 320.812 283.41 317.097 283.183 315.515C282.593 311.421 287.791 302.885 290.198 299.192C286.883 296.99 283.357 294.553 282.729 293.744C281.964 292.76 281.934 290.936 282.063 289.491L112.122 189.51C110.911 190.471 108.762 191.803 106.401 191.523C104.592 191.311 102.988 190.222 101.853 189.223C99.9156 192.711 96.2454 199.068 94.3989 200.581C92.0228 202.526 86.4532 207.074 76.1237 201.149C65.5142 195.065 9.84081 161.42 2.94691 154.927C-4.63562 147.784 3.72635 130.893 13.2007 118.604C21.5854 107.722 33.2468 97.3016 39.3158 98.4594C42.3655 99.0345 65.7639 113.329 79.7939 122.198C117.131 145.809 117.207 148.276 117.245 149.456C117.358 153.088 113.461 163.161 111.902 167.012C114.316 168.329 118.372 170.72 119.386 172.431C120.401 174.141 120.196 176.873 119.946 178.5L291.053 278.639C292.339 277.739 294.67 276.513 297.016 277.406C298.59 278.003 300.278 278.98 301.398 279.683C302.366 278.412 303.183 276.914 303.978 275.461C306.498 270.83 309.631 265.071 318.545 268.907C325.931 272.086 379.092 304.149 381.741 307.024C385.055 310.619 386.107 320.948 378.055 332.678C369.065 345.77 359.046 351.914 352.652 351.914L352.659 351.922ZM285.393 291.784C286.081 292.427 290.024 295.151 293.391 297.361C293.762 297.603 294.019 297.989 294.103 298.42C294.186 298.852 294.103 299.306 293.845 299.669C290.546 304.505 286.074 312.473 286.444 315.053C286.55 315.424 288.359 319.322 317.478 333.42C332.991 340.926 348.906 347.76 351.282 348.456C355.406 349.667 365.599 344.998 375.331 330.824C382.951 319.73 381.256 311.383 379.311 309.28C376.527 306.502 323.721 274.75 317.236 271.957C311.091 269.309 309.502 272.23 306.876 277.058C305.749 279.123 304.591 281.265 302.896 283.021C302.336 283.611 301.428 283.694 300.754 283.233C300.724 283.217 298.053 281.348 295.843 280.516C294.738 280.1 292.99 281.25 292.309 281.87C291.779 282.362 290.977 282.453 290.357 282.082L117.275 180.785C116.655 180.422 116.344 179.695 116.496 178.999C116.829 177.501 117.033 174.973 116.541 174.133C116.08 173.354 112.644 171.122 109.049 169.26C108.285 168.866 107.952 167.951 108.285 167.156C110.449 161.957 113.809 152.861 113.938 149.857C112.417 147.791 100.589 139.248 77.062 124.4C56.8344 111.634 40.5947 102.198 38.6726 101.713C35.7365 101.146 25.8761 107.571 15.8115 120.632C6.51872 132.694 -0.110319 147.526 5.20956 152.536C11.5359 158.492 65.3553 191.175 77.7658 198.296C86.1202 203.094 90.1461 199.802 92.3103 198.031C93.6422 196.942 97.6302 190.154 100.037 185.681C100.301 185.189 100.801 184.864 101.353 184.819C101.913 184.773 102.451 185.015 102.799 185.454C103.313 186.12 105.16 188.065 106.787 188.254C108.315 188.436 110.2 186.892 110.745 186.34C111.274 185.795 112.114 185.681 112.765 186.067L284.674 287.205C285.256 287.546 285.567 288.212 285.468 288.878C285.302 289.998 285.271 291.33 285.393 291.791V291.784Z" fill="#0F0F14"/>
<path d="M111.929 189.134C111.332 189.134 110.756 188.808 110.461 188.248C110.038 187.438 110.355 186.44 111.165 186.023C115.1 183.973 116.515 178.971 116.53 178.925C116.773 178.047 117.681 177.525 118.558 177.767C119.436 178.009 119.958 178.91 119.716 179.788C119.648 180.053 117.93 186.228 112.686 188.952C112.444 189.081 112.179 189.141 111.929 189.141V189.134Z" fill="#0F0F14"/>
<path d="M42.0799 138.08C55.459 144.452 68.0814 152.209 80.5601 160.154C84.6995 162.833 88.8161 165.55 92.8344 168.441C93.0841 168.622 93.1371 168.963 92.9631 169.213C92.8041 169.432 92.509 169.5 92.2744 169.387C87.8324 167.215 83.4887 164.877 79.1677 162.493C70.5484 157.71 62.0502 152.708 53.7337 147.411C49.5943 144.732 45.4852 142 41.5123 139.034C41.0053 138.663 41.4745 137.8 42.0799 138.088V138.08Z" fill="#0F0F14"/>
<path d="M289.5 293.645C289.204 293.645 288.917 293.569 288.652 293.41L282.984 290.035C282.205 289.566 281.947 288.552 282.409 287.772C282.878 286.993 283.892 286.736 284.672 287.197L289.522 290.088C291.293 289.029 292.398 287.81 292.814 286.441C293.208 285.139 292.897 283.996 292.685 283.444L290.355 282.051C289.575 281.582 289.318 280.568 289.78 279.789C290.249 279.009 291.263 278.752 292.042 279.214L294.812 280.863C295.054 281.007 295.258 281.211 295.395 281.461C295.455 281.567 296.923 284.17 295.992 287.326C295.266 289.8 293.329 291.859 290.249 293.456C290.014 293.577 289.749 293.637 289.492 293.637L289.5 293.645Z" fill="#0F0F14"/>
<g opacity="0.7">
<path d="M64.6983 126.981C63.9037 125.884 65.1977 124.491 66.3404 125.218C76.0569 131.347 108.105 151.681 109.005 153.671C110.065 156.025 106.675 156.88 90.0263 146.861C77.6536 139.414 68.0657 131.605 64.6983 126.973V126.981Z" fill="white"/>
</g>
<g opacity="0.7">
<path d="M325.165 282.438C324.34 281.363 325.589 279.941 326.754 280.629C336.637 286.486 369.245 305.904 370.198 307.872C371.326 310.195 367.959 311.141 351.038 301.599C338.461 294.508 328.653 286.963 325.157 282.438H325.165Z" fill="white"/>
</g>
<path d="M315.316 302.203C326.576 306.585 337.178 312.381 347.636 318.382C351.102 320.41 354.552 322.484 357.905 324.724C358.162 324.89 358.23 325.238 358.056 325.488C357.905 325.707 357.625 325.791 357.39 325.692C353.644 324.186 349.997 322.499 346.365 320.773C339.115 317.308 331.986 313.615 325.017 309.611C321.551 307.583 318.108 305.502 314.801 303.172C314.286 302.816 314.71 301.961 315.316 302.195V302.203Z" fill="#0F0F14"/>
<path d="M302.846 286.238C304.443 289.757 302.43 293.889 299.524 296.03C298.874 296.537 298.139 296.939 297.383 297.264C297.194 297.347 296.974 297.264 296.891 297.067C296.83 296.931 296.861 296.78 296.951 296.666C299.547 293.7 301.575 290.355 302.135 286.397C302.15 286.011 302.68 285.883 302.854 286.238H302.846Z" fill="#0F0F14"/>
<path d="M101.493 188.104C101.266 188.104 101.039 188.058 100.82 187.96C99.9875 187.589 99.6167 186.613 99.9875 185.781L108.319 167.112C108.69 166.28 109.666 165.909 110.499 166.28C111.331 166.65 111.702 167.627 111.331 168.459L102.999 187.128C102.727 187.741 102.122 188.104 101.493 188.104Z" fill="#0F0F14"/>
<path d="M377.797 334.844C377.797 334.844 325.264 301.835 261.66 291.93C253.753 291.93 225.049 297.143 200.478 315.283C200.478 315.283 127.067 308.305 76.244 296.016C25.4214 283.726 17.468 277.34 15.1978 273.291C15.1978 273.291 5.5418 281.857 15.1978 312.324C15.1978 312.324 34.1541 343.925 151.388 369.48C268.622 395.035 350.26 385.236 377.797 342.222C380.635 338.817 377.797 334.837 377.797 334.837V334.844Z" fill="#FFE921"/>
<g opacity="0.25">
<path d="M363.972 327.042C363.972 327.042 294.821 322.638 267.139 315.29C239.458 307.942 243.287 300.034 243.287 300.034C243.287 300.034 221.493 305.407 208.008 316.153L334.709 330.152L373.931 334.428C373.931 334.428 374.771 333.179 373.931 332.967C373.091 332.756 363.972 327.042 363.972 327.042Z" fill="#0F0F14"/>
</g>
<g opacity="0.25">
<path d="M371.068 350.951C371.068 350.951 249.671 369.06 151.393 347.341C53.1157 325.623 56.521 296.027 56.521 296.027C56.521 296.027 31.4956 290.48 16.5878 280.688C14.8246 280.688 14.03 299.485 18.5024 313.242L21.885 319.357C21.885 319.357 39.8349 339.978 116.644 361.015C193.453 382.053 250.738 383.173 250.738 383.173C250.738 383.173 311.951 385.329 342.145 370.596C359.346 363.104 371.068 350.951 371.068 350.951Z" fill="#0F0F14"/>
</g>
<path d="M264.542 385.114C231.851 385.114 193.84 380.43 151.039 371.1C34.448 345.681 14.576 314.495 13.789 313.179C13.7209 313.065 13.6679 312.952 13.6301 312.831C3.76222 281.706 13.6831 272.443 14.1069 272.065C14.4777 271.732 14.9847 271.588 15.4766 271.672C15.9684 271.755 16.3998 272.057 16.6419 272.489C18.7078 276.174 27.1833 282.455 76.6363 294.412C124.296 305.937 192.758 312.861 200.015 313.58C223.905 296.152 252.306 290.28 261.667 290.28C261.75 290.28 261.833 290.28 261.924 290.303C325.135 300.14 378.152 333.111 378.681 333.444C378.863 333.558 379.022 333.709 379.143 333.883C380.369 335.601 381.935 339.748 379.143 343.199C365.143 364.985 337.992 378.448 298.429 383.207C287.873 384.479 276.567 385.114 264.542 385.114ZM16.71 311.612C17.4516 312.694 22.991 320.148 40.6684 330.183C58.2626 340.164 91.8165 354.807 151.743 367.868C209.913 380.551 259.139 384.607 298.036 379.931C336.614 375.292 362.987 362.306 376.411 341.337C376.449 341.277 376.487 341.224 376.532 341.171C378.19 339.18 377.062 336.819 376.608 336.047C372.174 333.331 321.495 302.948 261.538 293.579C255.507 293.64 226.932 297.809 201.461 316.607C201.135 316.849 200.734 316.962 200.325 316.925C199.591 316.857 126.218 309.796 75.8568 297.62C32.3821 287.109 19.5857 280.745 15.2117 276.061C13.2215 279.572 9.78587 289.637 16.7025 311.605L16.71 311.612Z" fill="#0F0F14"/>
<path d="M377.799 336.491C377.739 336.491 377.678 336.491 377.618 336.484C376.248 336.332 240.239 321.546 200.291 316.922C199.383 316.816 198.74 315.999 198.838 315.091C198.944 314.183 199.761 313.539 200.669 313.638C240.603 318.262 376.604 333.048 377.974 333.192C378.882 333.29 379.532 334.108 379.434 335.008C379.343 335.856 378.624 336.484 377.792 336.484L377.799 336.491Z" fill="#0F0F14"/>
<path d="M184.954 362.663C172.294 362.663 158.226 361.558 139.633 358.909C76.6195 349.927 14.6047 312.9 13.9842 312.521C13.2047 312.052 12.955 311.038 13.4242 310.259C13.8934 309.479 14.9074 309.229 15.6868 309.699C16.2998 310.069 77.7622 346.756 140.102 355.64C185.053 362.05 203.336 359.31 239.758 353.847C254.279 351.667 272.358 348.958 296.135 346.264C375.842 337.229 378.256 340.142 379.058 341.103C379.437 341.557 379.565 342.163 379.391 342.715C379.126 343.585 378.203 344.07 377.325 343.805C377.098 343.737 376.902 343.623 376.735 343.479C375.01 343.01 364.097 341.883 296.505 349.549C272.789 352.235 254.741 354.944 240.249 357.116C218.546 360.37 203.222 362.663 184.962 362.663H184.954ZM376.228 341.739C376.16 341.951 376.145 342.155 376.16 342.337C376.145 342.14 376.167 341.936 376.228 341.739Z" fill="#0F0F14"/>
<g opacity="0.6">
<path d="M293.829 307.289C295.797 307.584 296.417 304.739 294.51 304.187C283.681 301.046 269.576 297.096 265.225 296.513C257.839 295.522 261.955 300.774 267.782 302.333C271.188 303.248 283.659 305.761 293.837 307.297L293.829 307.289Z" fill="white"/>
</g>
<g opacity="0.6">
<path d="M299.656 308.699C298.082 307.89 298.884 305.483 300.632 305.786C303.273 306.24 306.86 307.125 307.814 308.646C309.373 311.129 303.909 310.137 300.572 309.07C300.231 308.964 299.929 308.836 299.656 308.699Z" fill="white"/>
</g>
<g opacity="0.6">
<path d="M295.65 331.976C295.65 331.976 159.157 318.211 113.578 310.197C113.578 310.197 124.014 316.667 161.919 323.909C199.824 331.151 271.57 334.08 295.642 331.976H295.65Z" fill="white"/>
</g>
<path d="M248.367 255.57C248.367 255.57 254.186 252.422 259.309 252.702C264.433 252.982 265.568 256.319 265.568 256.319C265.568 256.319 272.098 256.388 274.369 262.071C274.369 262.071 278.417 262.003 279.908 266.899C279.908 266.899 286.62 269.169 284.312 276.055C281.996 282.942 276.079 279.037 276.079 279.037C276.079 279.037 270.048 281.163 268.481 275.7C268.481 275.7 263.154 275.768 262.162 269.948C262.162 269.948 256.555 270.251 255.7 266.407C254.845 262.563 255.7 260.936 254.988 259.445L248.359 255.563L248.367 255.57Z" fill="#EDBC9A"/>
<g opacity="0.4">
<path d="M252.758 254.481C252.758 254.481 259.304 254.39 261.914 256.327C264.525 258.264 264.26 264.704 264.26 264.704C264.26 264.704 266.992 261.314 266.023 257.818C265.055 254.322 262.732 253.391 261.801 253.149C260.87 252.907 258.986 252.687 258.986 252.687C258.986 252.687 257.851 252.506 257.124 252.687C256.39 252.869 252.758 254.481 252.758 254.481Z" fill="white"/>
</g>
<g opacity="0.4">
<path d="M267.35 259.694C267.35 259.694 270.014 260.277 271.663 263.637C273.313 266.989 273.003 271.908 273.003 271.908C273.003 271.908 275.137 268.056 274.834 263.954C274.531 259.853 271.126 257.568 270.702 257.409C270.278 257.25 268.054 256.728 268.054 256.728L266.812 257.356L267.35 259.702V259.694Z" fill="white"/>
</g>
<g opacity="0.4">
<path d="M275.438 265.549C275.438 265.549 277.458 267.812 277.73 269.182C278.003 270.551 278.457 272.307 278.457 272.307C278.457 272.307 280.144 271.474 280.122 269.946C280.099 268.425 279.796 266.018 279.13 265.065C278.464 264.119 276.951 263.128 276.951 263.128C276.951 263.128 276.24 262.878 276.081 262.878C275.922 262.878 275.445 264.051 275.445 264.051V265.542L275.438 265.549Z" fill="white"/>
</g>
<g opacity="0.25">
<path d="M251.158 254.981C251.158 254.981 257.62 256.328 258.755 257.818C259.89 259.309 259.111 261.435 260.314 264.137C261.517 266.831 265.15 265.84 265.15 265.84C265.15 265.84 263.939 270.244 268.056 271.235C272.172 272.227 272.952 271.235 272.952 271.235C272.952 271.235 272.952 274.504 274.829 274.716C276.713 274.928 278.446 274.081 278.446 274.081C278.446 274.081 280.262 275.783 282.108 275.072C283.955 274.361 284.235 273.801 284.235 273.801C284.235 273.801 284.84 277.251 282.971 278.583C281.102 279.915 279.619 280.21 279.263 280.15C278.907 280.097 277.961 279.9 277.666 279.794C277.364 279.688 275.162 279.045 275.162 279.045C275.162 279.045 272.816 280.142 271.242 279.045C269.668 277.948 268.479 276.729 268.479 276.729L267.745 275.647C267.745 275.647 265.96 275.647 264.264 274.05C262.569 272.461 262.66 271.303 262.66 271.303L261.245 269.956C261.245 269.956 256.637 269.903 255.887 267.883C255.138 265.862 255.335 259.657 254.994 259.46C254.654 259.264 249.273 256.116 249.273 256.116C249.273 256.116 249.516 255.018 249.569 254.988C249.629 254.958 251.15 254.988 251.15 254.988L251.158 254.981Z" fill="#0F0F14"/>
</g>
<path d="M279.652 281.799C278.071 281.799 276.671 281.231 275.861 280.815C274.65 281.102 272.266 281.443 270.125 280.338C268.876 279.695 267.908 278.635 267.287 277.251C265.07 276.88 262.035 275.397 260.855 271.583C258.244 271.378 254.854 270.22 254.09 266.77C253.598 264.552 253.628 262.986 253.651 261.843C253.658 261.261 253.666 260.86 253.62 260.557L247.536 256.993C247.022 256.69 246.711 256.137 246.719 255.54C246.726 254.942 247.059 254.397 247.582 254.117C247.839 253.981 253.885 250.742 259.402 251.052C263.715 251.294 265.751 253.428 266.598 254.753C268.634 255.01 273.197 256.077 275.483 260.534C277.329 260.905 279.902 262.252 281.219 265.65C284.079 266.951 287.923 270.485 285.873 276.585C285.01 279.157 283.58 280.8 281.627 281.473C280.954 281.708 280.288 281.799 279.652 281.799ZM276.073 277.394C276.391 277.394 276.708 277.485 276.981 277.667C277.518 278.015 279.221 278.817 280.56 278.355C281.491 278.03 282.225 277.084 282.74 275.54C284.458 270.417 279.894 268.654 279.365 268.472C278.865 268.298 278.479 267.897 278.32 267.39C277.246 263.871 274.658 263.735 274.37 263.735C273.704 263.728 273.084 263.319 272.834 262.698C271.01 258.143 265.758 257.991 265.539 257.984C264.843 257.969 264.222 257.522 264.003 256.864C263.98 256.803 263.072 254.571 259.213 254.359C256.708 254.223 253.953 255.017 251.963 255.774L255.822 258.029C256.11 258.196 256.337 258.446 256.481 258.741C256.988 259.8 256.965 260.822 256.942 261.904C256.927 262.933 256.897 264.219 257.306 266.058C257.835 268.442 262.028 268.306 262.073 268.306C262.906 268.26 263.647 268.851 263.783 269.676C264.51 273.913 268.067 274.049 268.468 274.049C269.202 274.049 269.86 274.541 270.064 275.245C270.367 276.305 270.874 277.008 271.631 277.394C272.978 278.098 274.9 277.689 275.536 277.47C275.71 277.409 275.891 277.379 276.073 277.379V277.394Z" fill="#0F0F14"/>
<path d="M262.168 271.604C261.707 271.604 261.245 271.414 260.92 271.036C260.322 270.347 260.398 269.311 261.079 268.713C261.313 268.509 266.557 263.779 264.022 256.9C263.705 256.045 264.143 255.099 264.999 254.781C265.854 254.463 266.8 254.902 267.117 255.757C270.455 264.816 263.538 270.945 263.243 271.203C262.933 271.475 262.547 271.604 262.161 271.604H262.168Z" fill="#0F0F14"/>
<path d="M268.488 277.358C267.83 277.358 267.209 276.965 266.952 276.322C266.619 275.474 267.028 274.521 267.867 274.18C268.178 274.051 274.875 271.176 272.771 262.466C272.559 261.58 273.104 260.687 273.99 260.475C274.875 260.264 275.768 260.808 275.98 261.694C278.212 270.934 272.453 275.905 269.093 277.245C268.897 277.328 268.685 277.366 268.48 277.366L268.488 277.358Z" fill="#0F0F14"/>
<path d="M276.079 280.691C275.671 280.691 275.262 280.54 274.944 280.237C274.286 279.609 274.255 278.565 274.876 277.906C274.944 277.831 279.386 272.995 278.289 267.206C278.122 266.313 278.705 265.45 279.606 265.276C280.499 265.11 281.361 265.693 281.535 266.593C282.95 274.077 277.509 279.927 277.275 280.177C276.949 280.517 276.51 280.691 276.079 280.691Z" fill="#0F0F14"/>
<path d="M243.147 264.71C243.147 264.71 240.378 270.249 244.57 276.349C248.755 282.456 260.545 281.245 260.545 281.245C260.545 281.245 269.111 290.712 277.178 284.703L262.671 276.137C262.671 276.137 264.798 273.503 260.257 269.962C255.717 266.42 246.969 266.912 246.969 266.912L243.147 264.71Z" fill="#EDBC9A"/>
<g opacity="0.25">
<path d="M245.904 266.91C245.904 266.91 247.871 271.958 253.305 273.312C258.738 274.667 262.181 273.6 262.181 273.6L262.681 274.667L263.687 276.733L276.529 284.467C276.529 284.467 275.568 287.236 270.195 286.328C264.815 285.42 260.857 281.561 260.857 281.561L259.124 281.334C259.124 281.334 249.809 281.47 245.927 277.853C242.037 274.235 242.151 268.242 242.279 267.848C242.4 267.455 243.18 264.708 243.18 264.708L245.927 266.91H245.904Z" fill="#0F0F14"/>
</g>
<path d="M271.409 288.335C266.695 288.335 262.336 285.407 259.884 282.955C256.971 283.122 247.254 283.19 243.206 277.287C238.521 270.461 241.541 264.233 241.669 263.976C241.874 263.567 242.237 263.265 242.668 263.136C243.107 263.007 243.576 263.06 243.97 263.287L247.375 265.255C249.403 265.21 256.895 265.27 261.261 268.668C263.38 270.318 264.568 272.088 264.78 273.92C264.848 274.495 264.803 275.002 264.72 275.441L278.016 283.288C278.492 283.568 278.795 284.067 278.825 284.62C278.856 285.172 278.606 285.702 278.167 286.035C275.942 287.692 273.634 288.343 271.417 288.343L271.409 288.335ZM260.535 279.595C260.997 279.595 261.443 279.792 261.761 280.14C262.033 280.443 267.815 286.671 273.823 284.643L261.829 277.56C261.398 277.302 261.057 276.916 260.989 276.417C260.921 275.917 261.034 275.463 261.382 275.1C261.715 274.601 261.685 273.17 259.241 271.263C255.245 268.153 247.141 268.554 247.057 268.554C246.74 268.569 246.422 268.494 246.142 268.335L244.091 267.154C243.72 268.993 243.645 272.081 245.93 275.41C249.509 280.632 260.263 279.61 260.376 279.603C260.429 279.603 260.49 279.595 260.543 279.595H260.535Z" fill="#0F0F14"/>
<path d="M264.085 276.972C262.314 279.916 258.364 280.642 255.322 279.666C253.665 279.144 252.008 278.433 251.1 276.851C251.039 276.753 251.115 276.616 251.228 276.609C253.279 276.352 255.224 277.298 257.199 277.101C258.803 277.04 260.271 276.42 261.24 275.3C262.383 273.453 265.145 275.065 264.085 276.972Z" fill="#0F0F14"/>
<path d="M213.572 238.835L213.943 237.768C213.943 237.768 218.029 232.455 216.833 228.883C215.645 225.312 212.217 225.743 211.831 224.699C211.445 223.654 210.363 220.938 208.04 220.317C205.717 219.697 206.08 219.924 204.869 218.917C203.658 217.903 202.334 217.555 199.935 217.775C197.536 217.994 196.53 217.267 196.53 217.267C196.53 217.267 193.261 215.565 190.317 215.936C187.373 216.306 186.602 218.546 186.602 218.546L187.797 219.258L189.924 220.514C189.924 220.514 189.167 222.625 189.734 224.699L190.529 222.55C190.529 222.55 191.952 224.169 193.654 224.668C195.357 225.168 196.136 224.108 196.136 224.108C196.136 224.108 199.406 227.93 200.964 227.794C202.523 227.65 202.955 227.158 202.955 227.158L205.255 225.175C205.255 225.175 205.225 228.649 206.436 230.775C207.639 232.902 209.501 232.713 209.501 232.713L211.233 228.921C211.233 228.921 211.052 232.781 212.823 234.09C214.601 235.391 215.237 234.93 215.237 234.93L213.678 237.556C213.678 237.556 212.02 237.639 211.672 237.351C211.324 237.064 208.827 233.999 205.755 234.09C204.642 234.128 203.916 234.332 203.462 234.597C203.348 234.862 203.144 235.043 203.144 235.043C203.144 235.043 203 235.301 202.864 235.792C202.871 235.8 202.887 235.815 202.894 235.823C203.25 236.035 203.908 238.381 203.757 238.804C203.606 239.228 203.114 240.378 203.114 240.378C203.114 240.378 203 240.325 202.834 240.257L202.72 240.378C202.72 240.378 202.243 240.03 201.54 239.743C201.449 239.712 201.366 239.69 201.297 239.675C200.783 239.561 199.156 239.485 198.952 239.531C197.529 239.992 196.409 246.644 200.753 250.451C201.842 250.193 202.856 249.868 203.764 249.482C210.734 246.523 214.472 241.627 214.472 241.627C215.517 241.854 216.304 245.925 211.445 249.482C209.909 250.609 207.851 251.745 205.755 252.766C205.755 252.766 212.497 251.268 214.82 246.47C217.144 241.665 213.579 238.842 213.579 238.842L213.572 238.835Z" fill="#EDBC9A"/>
<path d="M203.022 240.029L202.825 240.241C202.992 240.317 203.105 240.362 203.105 240.362C203.105 240.362 203.597 239.212 203.748 238.788C203.9 238.364 203.241 236.019 202.886 235.807C202.871 235.807 202.863 235.784 202.855 235.776C202.636 236.594 202.447 238.047 203.022 240.022V240.029Z" fill="#EDBC9A"/>
<g opacity="0.25">
<path d="M203.022 240.031L202.825 240.243C202.992 240.319 203.105 240.364 203.105 240.364C203.105 240.364 203.597 239.214 203.748 238.79C203.9 238.366 203.241 236.02 202.886 235.809C202.871 235.809 202.863 235.786 202.855 235.778C202.636 236.596 202.447 238.049 203.022 240.024V240.031Z" fill="#0F0F14"/>
</g>
<path d="M201.291 239.669C201.359 239.684 201.443 239.707 201.533 239.737C200.814 239.45 199.861 239.223 198.945 239.525C199.157 239.488 200.784 239.556 201.291 239.669Z" fill="#EDBC9A"/>
<g opacity="0.25">
<path d="M201.291 239.67C201.359 239.685 201.443 239.708 201.533 239.738C200.814 239.451 199.861 239.224 198.945 239.526C199.157 239.488 200.784 239.557 201.291 239.67Z" fill="#0F0F14"/>
</g>
<path d="M195.251 228.347L196.143 228.665C196.143 228.665 196 230.133 197.997 230.64C199.995 231.147 202.023 231.465 202.023 231.465C202.023 231.465 202.25 233.001 203.128 233.629C203.582 233.955 203.567 234.318 203.446 234.59C203.908 234.325 204.627 234.121 205.739 234.083C208.811 233.985 211.309 237.057 211.657 237.345C212.005 237.632 213.662 237.549 213.662 237.549L215.221 234.923C215.221 234.923 214.585 235.385 212.807 234.083C211.036 232.782 211.218 228.915 211.218 228.915L209.485 232.706C209.485 232.706 207.623 232.903 206.42 230.769C205.217 228.642 205.239 225.169 205.239 225.169L202.939 227.152C202.939 227.152 202.515 227.651 200.949 227.787C199.39 227.931 196.121 224.102 196.121 224.102C196.121 224.102 195.341 225.161 193.639 224.662C191.936 224.162 190.513 222.543 190.513 222.543L189.719 224.692C189.87 225.237 190.105 225.789 190.475 226.289C192.254 228.703 195.228 228.332 195.228 228.332L195.251 228.347Z" fill="#EDBC9A"/>
<g opacity="0.25">
<path d="M195.258 228.342L196.151 228.66C196.151 228.66 196.007 230.128 198.005 230.635C200.003 231.142 202.031 231.46 202.031 231.46C202.031 231.46 202.258 232.996 203.136 233.624C203.59 233.95 203.575 234.313 203.454 234.585C203.915 234.321 204.634 234.116 205.747 234.078C208.819 233.98 211.316 237.052 211.664 237.34C212.013 237.628 213.67 237.544 213.67 237.544L215.229 234.918C215.229 234.918 214.593 235.38 212.815 234.078C211.044 232.777 211.226 228.91 211.226 228.91L209.493 232.701C209.493 232.701 207.631 232.898 206.428 230.764C205.225 228.637 205.247 225.164 205.247 225.164L202.947 227.147C202.947 227.147 202.523 227.646 200.957 227.782C199.398 227.926 196.129 224.097 196.129 224.097C196.129 224.097 195.349 225.156 193.646 224.657C191.944 224.158 190.521 222.538 190.521 222.538L189.727 224.687C189.878 225.232 190.112 225.785 190.483 226.284C192.262 228.698 195.236 228.327 195.236 228.327L195.258 228.342Z" fill="#0F0F14"/>
</g>
<path d="M214.454 241.611C214.454 241.611 210.716 246.515 203.746 249.466C202.846 249.852 201.832 250.178 200.734 250.435C201.945 251.494 203.572 252.334 205.744 252.758C207.84 251.737 209.899 250.601 211.435 249.474C216.285 245.917 215.506 241.846 214.462 241.619L214.454 241.611Z" fill="#EDBC9A"/>
<g opacity="0.25">
<path d="M214.454 241.612C214.454 241.612 210.716 246.516 203.746 249.467C202.846 249.853 201.832 250.179 200.734 250.436C201.945 251.495 203.572 252.335 205.744 252.759C207.84 251.737 209.899 250.602 211.435 249.475C216.285 245.918 215.506 241.847 214.462 241.62L214.454 241.612Z" fill="#0F0F14"/>
</g>
<path d="M204.275 255.053C203.655 255.053 203.057 254.705 202.777 254.1C202.391 253.275 202.747 252.291 203.572 251.905C212.456 247.743 213.697 245.382 213.863 244.762C214.65 241.818 212.569 240.342 212.327 240.183C211.926 239.919 211.661 239.487 211.593 239.018C211.533 238.541 211.669 238.065 211.987 237.701C213.016 236.536 215.649 232.941 215.505 230.369C215.362 227.818 211.616 226.85 211.578 226.842C210.965 226.691 210.496 226.199 210.36 225.586C209.527 221.734 206.016 221.378 205.622 221.348C205.161 221.318 204.722 221.091 204.434 220.735C203.095 219.063 199.13 219.381 197.843 219.623C197.162 219.751 196.466 219.441 196.118 218.843C196.088 218.806 194.794 216.982 190.548 217.58C189.799 217.686 188.437 218.109 186.22 219.547C185.455 220.039 184.434 219.82 183.934 219.055C183.442 218.291 183.662 217.269 184.426 216.77C186.643 215.34 188.497 214.538 190.087 214.311C194.582 213.675 197.041 215.181 198.169 216.24C200.053 216.013 204.132 215.854 206.515 218.14C208.687 218.495 212.055 220.024 213.326 223.951C215.074 224.602 218.585 226.373 218.797 230.195C218.971 233.396 216.83 236.808 215.475 238.625C216.739 240.078 217.874 242.492 217.042 245.617C216.565 247.395 214.794 250.301 204.964 254.902C204.737 255.008 204.502 255.061 204.268 255.061L204.275 255.053Z" fill="#0F0F14"/>
<path d="M212.021 239.918C210.145 238.147 207.882 236.202 205.286 235.688C205.105 235.635 204.704 235.612 204.583 235.665C204.34 235.741 204.257 236.036 204.159 236.354C203.902 237.39 204.038 238.949 204.303 240.206C204.537 241.197 203.326 241.991 202.509 241.416C201.715 240.917 200.61 240.531 199.664 240.38C198.567 240.221 197.613 240.463 196.629 241.106C196.523 241.174 196.372 241.053 196.425 240.932C196.652 240.334 197.03 239.714 197.628 239.297C199.444 238.011 201.798 238.42 203.705 239.32L201.949 240.705C201.192 238.223 200.489 234.613 203.183 232.971C207.042 231.284 211.923 235.037 214.435 237.67C215.858 239.305 213.542 241.454 212.014 239.918H212.021Z" fill="#0F0F14"/>
<path d="M204.879 235.741C204.879 235.741 204.849 235.741 204.826 235.741C204.592 235.741 202.465 235.628 201.126 234.167C200.77 233.781 200.505 233.343 200.339 232.858C198.334 232.699 195.912 231.965 194.792 230.028C193.158 229.96 190.395 229.438 188.935 226.925C187.701 224.807 187.777 222.673 188.019 221.318L184.78 219.403C183.993 218.942 183.736 217.928 184.198 217.141C184.659 216.354 185.673 216.096 186.46 216.558L190.774 219.108C191.478 219.525 191.773 220.402 191.455 221.159C191.425 221.235 190.638 223.293 191.78 225.261C192.802 227.016 195.662 226.721 195.693 226.714C196.54 226.608 197.327 227.168 197.509 228C197.834 229.491 200.907 229.619 201.648 229.574C202.125 229.544 202.579 229.718 202.912 230.051C203.245 230.384 203.419 230.845 203.396 231.315C203.374 231.723 203.502 231.867 203.555 231.927C203.873 232.276 204.622 232.427 204.94 232.442C205.848 232.487 206.552 233.252 206.522 234.152C206.484 235.038 205.765 235.741 204.879 235.741Z" fill="#0F0F14"/>
<path d="M195.9 229.998C195.643 229.998 195.378 229.937 195.128 229.809C194.326 229.385 194.016 228.386 194.44 227.576C195.257 226.033 197.119 221.409 196.014 218.609C195.673 217.761 196.089 216.8 196.937 216.467C197.785 216.134 198.746 216.543 199.079 217.391C200.948 222.098 197.732 228.416 197.361 229.12C197.066 229.68 196.491 229.998 195.9 229.998Z" fill="#0F0F14"/>
<path d="M201.749 232.872C201.439 232.872 201.128 232.789 200.856 232.607C200.092 232.115 199.872 231.094 200.364 230.322C201.484 228.589 204.337 223.315 204.08 219.818C204.011 218.91 204.693 218.116 205.601 218.048C206.509 217.98 207.303 218.661 207.371 219.569C207.765 224.889 203.323 231.813 203.134 232.1C202.816 232.585 202.286 232.857 201.749 232.857V232.872Z" fill="#0F0F14"/>
<path d="M208.042 236.572C207.686 236.572 207.323 236.458 207.02 236.216C206.302 235.656 206.181 234.619 206.748 233.9C206.801 233.84 210.093 229.572 210.327 225.145C210.373 224.237 211.16 223.541 212.06 223.586C212.968 223.631 213.672 224.411 213.619 225.319C213.332 230.821 209.503 235.732 209.344 235.936C209.018 236.352 208.534 236.564 208.05 236.564L208.042 236.572Z" fill="#0F0F14"/>
<path d="M369.905 372.195C369.905 372.195 342.64 392.672 237.271 392.15C131.903 391.628 43.2733 347.01 3.46875 318.951C3.46875 318.951 18.8003 310.732 49.8418 324.762C80.8832 338.792 89.7371 345.906 151.389 353.541C213.04 361.177 252.686 359.141 268.479 358.006C284.28 356.878 311 355.531 324.205 357.552C324.205 357.552 323.918 355.486 325.393 355.319C326.869 355.153 337.146 358.823 337.146 358.823C337.146 358.823 335.905 354.351 338.576 354.487C341.247 354.623 351.524 362.183 351.524 362.183C351.524 362.183 351.123 357.923 352.999 358.059C354.876 358.195 356.965 362.38 356.965 362.38C356.965 362.38 363.874 356.28 365.145 357.34C366.424 358.407 363.2 362.539 363.2 362.539C363.2 362.539 368.694 361.252 368.497 362.289C368.301 363.326 364.714 366.232 364.714 366.232C364.714 366.232 367.839 365.853 367.642 367.034C367.446 368.214 364.91 371.635 364.91 371.635L369.897 372.187L369.905 372.195Z" fill="#02DAFF"/>
<path d="M368.834 372.074C368.834 372.074 366.753 373.898 363.665 373.898C360.578 373.898 359.882 373.096 361.486 371.34C363.083 369.584 362.818 367.988 362.227 367.935C361.637 367.882 359.352 371.393 359.087 369.425C358.822 367.458 362.069 363.939 360.26 364.529C358.451 365.112 358.557 368.578 357.278 367.67C355.999 366.762 355.152 363.409 354.138 364.264C353.124 365.12 355.205 367.564 352.965 366.769C350.733 365.967 344.603 359.792 344.073 360.382C343.544 360.965 345.405 362.993 344.073 362.456C342.741 361.926 341.198 359.769 340.827 360.337C340.456 360.905 343.279 363.727 340.562 363.356C337.845 362.986 332.684 360.11 330.285 359.573C327.887 359.043 330.603 361.169 329.809 361.646C329.007 362.123 317.247 360.155 317.777 361.487C318.306 362.819 324.701 364.734 328.318 365.96C331.935 367.185 331.617 372.029 323.263 368.358C314.901 364.688 317.671 362.236 311.76 361.434C305.85 360.632 314.583 365.854 311.76 365.907C308.938 365.96 309.044 363.349 304.095 362.07C299.146 360.791 292.486 359.02 285.888 360.995C279.289 362.97 273.326 367.73 269.383 366.686C265.44 365.634 273.538 362.547 269.383 362.229C265.229 361.911 257.033 363.932 237.335 363.402C217.637 362.872 161.275 358.347 147.82 353.103C147.82 353.103 188.745 357.741 226.567 358.922C264.381 360.102 272.69 356.228 297.072 356.462C321.454 356.697 324.012 357.408 324.012 357.408C324.012 357.408 323.876 355.486 325.208 355.274C326.532 355.063 337.089 358.748 337.399 358.665C337.709 358.581 336.128 354.283 338.277 354.359C340.433 354.434 344.452 356.788 347.607 359.172C350.77 361.555 351.527 362.191 351.527 362.191C351.527 362.191 351.724 357.393 353.449 358.165C355.167 358.937 357.165 362.622 357.165 362.622C357.165 362.622 363.098 356.462 364.816 356.939C366.533 357.416 362.402 362.917 363.363 362.97C364.324 363.023 368.274 361.321 367.979 362.63C367.684 363.939 365.194 366.194 365.194 366.194C365.194 366.194 367.774 365.778 367.979 366.898C368.191 368.025 365.171 369.902 365.156 370.901C365.141 371.892 368.834 372.074 368.834 372.074Z" fill="white"/>
<path d="M5.44531 318.26C5.44531 318.26 27.6632 319.017 32.0296 321.726C36.396 324.435 21.5941 322.944 26.3843 324.541C31.1745 326.138 37.1376 323.686 42.3591 325.396C47.573 327.099 43.638 327.417 45.2347 328.801C46.8314 330.186 53.7556 330.716 62.8062 333.274C71.8568 335.831 77.1162 337.284 77.1162 337.284C77.1162 337.284 62.3219 330.391 53.3999 326.418C44.478 322.437 25.2946 312.622 5.45288 318.268L5.44531 318.26Z" fill="white"/>
<path d="M1.1609 318.627C13.3974 313.118 27.45 315.086 39.7546 319.301C46.2929 321.435 54.7911 325.62 61.125 328.571C67.3302 331.484 73.5204 334.398 79.8467 336.91C98.8636 344.478 119.318 347.86 139.553 350.63C180.259 355.746 221.463 358.977 262.463 357.047C276.145 355.942 289.918 354.883 303.675 355.087C310.615 355.17 317.463 355.413 324.395 356.215L322.896 357.94C322.571 356.601 322.548 355.049 323.767 354.088C324.077 353.846 324.47 353.77 324.834 353.839C325.999 354.058 327.104 354.346 328.209 354.641C331.493 355.534 334.702 356.578 337.918 357.683L336.192 359.385C335.587 357.342 334.883 353.952 337.524 353.036C337.751 352.953 337.993 352.953 338.213 353.021C343.677 354.527 348.119 357.698 352.402 361.209L350.207 362.019C350.578 360.339 350.835 355.776 353.544 356.873C353.893 357.047 354.301 357.342 354.49 357.539C355.958 358.916 357.003 360.309 358.206 361.852L356.238 361.694C358.781 359.431 361.097 357.009 364.29 355.556L364.699 355.443L364.903 355.39C365.017 355.375 365.13 355.367 365.244 355.36C365.932 355.307 366.757 355.851 366.924 356.54C367.173 357.282 366.878 358.213 366.689 358.735C365.978 360.566 364.979 362.201 363.942 363.82L362.527 361.86C364.449 361.429 366.364 360.937 368.361 361.035C368.558 361.073 368.619 361.035 369.08 361.187C369.322 361.292 369.625 361.459 369.86 361.883C370.034 362.185 370.049 362.571 369.996 362.882C369.655 364.138 368.656 364.668 367.824 365.439C367.022 366.083 366.227 366.658 365.38 367.218L364.555 365.106C365.993 365.016 367.499 365.031 368.641 366.03C370.019 367.672 367.801 369.465 366.613 370.449L366.818 370.23C366.364 370.88 365.887 371.516 365.425 372.152L364.767 370.721C366.666 371.009 368.573 371.281 370.473 371.599C370.843 371.66 371.093 372.008 371.025 372.379C370.965 372.719 370.662 372.961 370.321 372.939C368.399 372.833 366.485 372.681 364.563 372.538C363.897 372.507 363.511 371.72 363.866 371.175C364.381 370.419 364.774 369.556 365.38 368.875C365.955 368.36 366.644 367.732 366.946 367.074C366.931 367.089 366.954 367.051 366.939 367.112C366.924 367.18 366.954 367.195 366.961 367.309C366.984 367.407 367.067 367.483 367.082 367.528C367.113 367.581 367.226 367.626 367.151 367.589C366.492 367.278 365.592 367.316 364.888 367.407C363.692 367.596 363.072 366.007 364.018 365.326C365.236 364.388 366.621 363.449 367.582 362.269C367.62 362.231 367.59 362.201 367.544 362.397C367.529 362.481 367.529 362.511 367.529 362.639C367.529 363.003 367.839 363.404 368.149 363.51C368.376 363.585 368.195 363.54 368.149 363.54C366.492 363.54 364.797 363.979 363.185 364.365C362.05 364.675 361.127 363.351 361.77 362.405C362.746 360.77 363.942 359.007 364.404 357.206C364.404 357.206 364.404 357.206 364.404 357.236C364.404 357.274 364.411 357.259 364.434 357.357C364.525 357.698 364.986 358.038 365.334 357.978C363.859 358.538 362.603 359.665 361.271 360.725C360.181 361.641 359.099 362.617 358.07 363.593C357.502 364.138 356.571 364.062 356.102 363.434C355.035 362.064 353.673 360.286 352.447 359.28C352.697 359.393 353.105 359.363 353.37 359.196C353.454 359.136 353.529 359.098 353.597 359.03C353.658 358.947 353.65 358.969 353.643 358.977C353.189 359.998 353.037 361.27 352.833 362.397C352.704 363.419 351.395 363.896 350.639 363.207C348.709 361.572 346.567 360.029 344.403 358.697C342.216 357.373 339.916 356.23 337.57 355.632L338.258 355.617C338.258 355.617 338.311 355.617 338.326 355.587C338.357 355.587 338.387 355.564 338.387 355.534C338.394 355.534 338.402 355.534 338.387 355.534C338.137 356.419 338.485 357.66 338.735 358.545C339.091 359.567 338.016 360.611 337.01 360.233C334.913 359.514 332.787 358.825 330.668 358.182C328.587 357.554 326.43 356.926 324.319 356.517L325.386 356.268C325.447 356.23 325.469 356.177 325.462 356.2C325.439 356.336 325.394 356.608 325.439 356.797C325.454 356.934 325.492 357.123 325.515 357.206C325.78 358.122 324.97 359.052 324.032 358.931C320.717 358.538 317.274 358.311 313.876 358.144C296.766 357.274 279.694 358.447 262.637 359.9C224.831 361.868 186.948 358.992 149.399 354.747C125.516 351.742 101.368 348.435 78.8176 339.498C66.18 334.572 53.8981 327.565 41.2833 322.668L40.0952 322.214L38.892 321.813L36.4855 321.011C34.8737 320.504 33.2467 320.065 31.6121 319.641C21.9561 317.296 11.3239 316.728 2.1144 320.822C1.51657 321.087 0.812804 320.822 0.547945 320.224C0.283086 319.626 0.547945 318.923 1.14577 318.658L1.1609 318.627Z" fill="#2CC8FF"/>
<path d="M336.915 366.429C336.915 366.429 339.397 366.142 339.329 367.852C339.261 369.555 335.068 367.852 336.915 366.429Z" fill="white"/>
<path d="M299.08 363.09C299.912 363.286 304.051 364.157 302.561 365.216C301.07 366.283 300.926 365.428 297.876 364.149C294.827 362.87 296.522 362.469 299.08 363.09Z" fill="white"/>
<path d="M20.1735 321.726C18.6827 321.704 14.2785 320.924 16.0568 322.059C17.8352 323.194 24.0783 323.55 23.0113 322.483C21.9443 321.416 20.1735 321.726 20.1735 321.726Z" fill="white"/>
<path d="M349.688 371.823C349.287 371.672 348.409 368.206 349.975 368.562C351.534 368.91 352.889 373.034 349.688 371.823Z" fill="white"/>
<path d="M75.0094 345.642C100.073 354.231 126.044 359.974 152.341 363.137C152.545 363.16 152.681 363.349 152.658 363.546C152.636 363.735 152.462 363.872 152.273 363.864C132.31 362.941 112.476 359.354 93.4057 353.398C87.0491 351.385 80.7833 349.108 74.7218 346.308C74.5402 346.224 74.4569 346.005 74.5402 345.823C74.6234 345.649 74.8277 345.566 75.0094 345.634V345.642Z" fill="white"/>
<path d="M126.842 367.138C146.071 370.959 165.792 372.359 185.338 373.532C185.762 373.555 185.815 374.244 185.338 374.266C170.544 374.872 155.629 374.085 141.031 371.497C136.165 370.581 131.33 369.484 126.631 367.842C126.441 367.774 126.335 367.562 126.404 367.373C126.464 367.191 126.661 367.093 126.842 367.138Z" fill="white"/>
</g>
<defs>
<clipPath id="clip0_1687_14978">
<rect width="487" height="392.158" fill="white"/>
</clipPath>
</defs>
</svg>
