<svg width="58" height="56" viewBox="0 0 58 56" fill="none" xmlns="http://www.w3.org/2000/svg">
<path d="M18.3359 31.9993H39.6693M18.3359 18.666H29.0026M13.2666 46.666C9.80171 46.3247 7.19994 45.2829 5.46127 43.5407C2.33594 40.418 2.33594 35.3887 2.33594 25.3327V23.9993C2.33594 13.9433 2.33594 8.91402 5.46127 5.79135C8.5866 2.66868 13.6133 2.66602 23.6693 2.66602H34.3359C44.3919 2.66602 49.4213 2.66602 52.5439 5.79135C55.6666 8.91668 55.6693 13.9433 55.6693 23.9993V25.3327C55.6693 35.3887 55.6693 40.418 52.5439 43.5407C49.4186 46.6633 44.3919 46.666 34.3359 46.666C32.8426 46.698 31.6506 46.8127 30.4826 47.0794C27.2853 47.8154 24.3253 49.4527 21.4026 50.8767C17.2346 52.9087 15.1519 53.9247 13.8453 52.9727C11.3439 51.1113 13.7893 45.338 14.3359 42.666" stroke="#7E58FF" stroke-width="4" stroke-linecap="round" stroke-linejoin="round"/>
</svg>
