<svg width="61" height="61" viewBox="0 0 61 61" fill="none" xmlns="http://www.w3.org/2000/svg">
<path d="M46.1255 30.5005V46.126M33.6245 46.126V39.8755M2.375 39.8755L11.219 31.0315M18.0005 14.875C15.5141 14.875 13.1295 15.8627 11.3714 17.6209C9.61322 19.379 8.6255 21.7636 8.6255 24.25C8.6255 26.7364 9.61322 29.121 11.3714 30.8791C13.1295 32.6373 15.5141 33.625 18.0005 33.625C20.4869 33.625 22.8715 32.6373 24.6296 30.8791C26.3878 29.121 27.3755 26.7364 27.3755 24.25C27.3755 21.7636 26.3878 19.379 24.6296 17.6209C22.8715 15.8627 20.4869 14.875 18.0005 14.875Z" stroke="#7E58FF" stroke-width="4" stroke-linecap="round" stroke-linejoin="round"/>
<path d="M18.001 2.375H55.501C56.3297 2.375 57.1244 2.70419 57.7104 3.29014C58.2963 3.8761 58.6255 4.67083 58.6255 5.4995V55.5005C58.6255 56.3292 58.2963 57.1239 57.7104 57.7099C57.1244 58.2958 56.3297 58.625 55.501 58.625H18.001C17.5906 58.6252 17.1841 58.5445 16.8048 58.3876C16.4256 58.2307 16.081 58.0005 15.7907 57.7104C15.5004 57.4202 15.2701 57.0757 15.113 56.6965C14.9559 56.3174 14.875 55.9109 14.875 55.5005V46.1255" stroke="#7E58FF" stroke-width="4" stroke-linecap="round" stroke-linejoin="round"/>
</svg>
