<svg width="354" height="364" viewBox="0 0 354 364" fill="none" xmlns="http://www.w3.org/2000/svg">
<g clip-path="url(#clip0_384_556)">
<path d="M75.4505 39.8884H270.25C284.383 39.8884 295.84 50.1853 295.84 62.8871V272.841C295.84 285.543 284.383 295.84 270.25 295.84H75.4505C61.3176 295.84 49.8605 285.543 49.8605 272.841V62.8871C49.8605 50.1853 61.3176 39.8884 75.4505 39.8884Z" stroke="#D1D3D4" stroke-opacity="0.3" stroke-width="16" stroke-miterlimit="10"/>
</g>
<path d="M31.4182 0H245.582C262.934 0 277 16.1177 277 36C277 55.8822 262.934 72 245.582 72H31.4182C14.0664 72 0 55.8822 0 36C0 16.1177 14.0664 0 31.4182 0Z" fill="#D1D3D4" fill-opacity="0.3"/>
<path d="M31.4182 86H245.582C262.934 86 277 102.118 277 122C277 141.882 262.934 158 245.582 158H31.4182C14.0664 158 0 141.882 0 122C0 102.118 14.0664 86 31.4182 86Z" fill="#D1D3D4" fill-opacity="0.3"/>
<path d="M31.4182 173H245.582C262.934 173 277 189.118 277 209C277 228.882 262.934 245 245.582 245H31.4182C14.0664 245 0 228.882 0 209C0 189.118 14.0664 173 31.4182 173Z" fill="#D1D3D4" fill-opacity="0.3"/>
<defs>
<clipPath id="clip0_384_556">
<rect width="354" height="332.294" fill="white" transform="matrix(-1 0 0 1 354 31.0244)"/>
</clipPath>
</defs>
</svg>
