<svg width="164" height="195" viewBox="0 0 164 195" fill="none" xmlns="http://www.w3.org/2000/svg">
<g clip-path="url(#clip0_2001_1246)">
<g opacity="0.25">
<path d="M108.609 194.991C135.197 194.991 156.75 192.455 156.75 189.326C156.75 186.197 135.197 183.66 108.609 183.66C82.0221 183.66 60.4688 186.197 60.4688 189.326C60.4688 192.455 82.0221 194.991 108.609 194.991Z" fill="#0F0F14"/>
</g>
<path d="M55.5434 33.304C55.5434 33.304 54.0796 28.319 48.3587 24.8928C42.6299 21.4666 37.4392 16.9168 36.6875 5.83905C36.9486 3.18039 43.9118 0.0865341 45.7554 1.02814C45.7554 1.02814 46.064 10.6341 50.2894 14.7487C54.5148 18.8633 65.5055 25.2093 65.7428 31.302" fill="#742DD2"/>
<path d="M55.5465 34.1662C55.1746 34.1662 54.8344 33.921 54.7236 33.5491C54.7078 33.5016 53.2598 28.8331 47.9187 25.6364C42.1029 22.1548 36.6115 17.3518 35.8281 5.90216C35.8281 5.85469 35.8281 5.80721 35.8281 5.75974C36.018 3.87652 38.3048 2.3652 39.6499 1.62932C41.2879 0.735187 44.5083 -0.562492 46.1463 0.268339C46.4232 0.410767 46.6052 0.695624 46.6131 1.00422C46.6131 1.09917 46.9613 10.3174 50.8859 14.1393C52.0016 15.2312 53.6633 16.521 55.4199 17.8899C60.3179 21.7038 66.4106 26.4435 66.6005 31.2781C66.6164 31.7529 66.2524 32.1564 65.7776 32.1723C65.3108 32.1881 64.8993 31.8241 64.8835 31.3493C64.7252 27.3139 58.9806 22.8432 54.3675 19.2508C52.5714 17.8503 50.878 16.5368 49.6911 15.3816C45.8772 11.6705 45.086 4.02686 44.9277 1.72427C44.0573 1.69262 42.3086 2.13573 40.4729 3.14064C38.5897 4.16929 37.656 5.2375 37.5452 5.87051C38.3285 17.0036 43.7645 21.1499 48.797 24.1567C54.7394 27.7174 56.3061 32.8448 56.3694 33.0585C56.5039 33.5174 56.2428 33.9922 55.7839 34.1267C55.7048 34.1504 55.6177 34.1583 55.5386 34.1583L55.5465 34.1662Z" fill="#0F0F14"/>
<path d="M59.1806 40.6372C59.1806 40.6372 55.0423 44.285 43.6718 45.0604C32.3012 45.8359 27.3796 40.4236 26.6041 38.8885C25.8366 37.3614 26.9681 32.0203 28.6931 31.6089C30.418 31.1895 35.5534 35.4149 40.5304 36.1745C45.5075 36.9341 57.4477 31.7197 57.4477 31.7197C57.4477 31.7197 58.5159 30.873 61.1588 30.9284C63.8016 30.9838 65.7481 31.506 65.7481 31.506L65.3288 33.2547" fill="#742DD2"/>
<path d="M41.5321 45.9946C31.5542 45.9946 26.7591 41.1204 25.8333 39.2767C25.1212 37.8604 25.6118 34.7349 26.498 32.82C27.044 31.6489 27.7086 30.9526 28.4841 30.7706C29.5918 30.5016 31.1348 31.3087 33.2712 32.4165C35.4235 33.5401 38.1059 34.9327 40.6538 35.3204C45.3301 36.0325 56.9855 30.9843 57.0963 30.9289C57.1121 30.9289 57.1279 30.921 57.1359 30.913C57.3416 30.8339 62.1604 29.0615 66.0693 30.7073C66.3779 30.8339 66.5836 31.1346 66.5994 31.4669L66.6548 32.9624C66.6706 33.4372 66.2987 33.8407 65.824 33.8566C65.3492 33.8803 64.9457 33.5005 64.9298 33.0257L64.8982 32.0999C61.8122 31.1029 58.0537 32.4006 57.761 32.5114C56.9855 32.8516 45.4884 37.7892 40.3926 37.0137C37.5599 36.5785 34.7351 35.1147 32.472 33.9357C31.1585 33.2552 29.3624 32.3215 28.8876 32.4323C28.761 32.4639 28.4287 32.733 28.0568 33.5321C27.2101 35.3521 27.036 37.8366 27.3684 38.4934C28.0726 39.886 32.8835 44.9264 43.6052 44.1905C54.5563 43.4467 58.5601 40.0126 58.5997 39.981C58.9558 39.6645 59.5017 39.6961 59.8183 40.0601C60.1348 40.4162 60.0952 40.9621 59.7391 41.2786C59.565 41.4369 55.2526 45.1321 43.7239 45.9155C42.9643 45.9709 42.2363 45.9946 41.5241 45.9946H41.5321Z" fill="#0F0F14"/>
<path d="M132.691 103.49C106.967 107.747 77.793 100.277 77.793 100.277C43.721 90.1412 57.8214 69.3072 57.8214 69.3072C57.8214 69.3072 57.7818 57.1533 60.6146 45.221C60.8915 44.0578 61.1922 42.8947 61.5325 41.7552C62.6244 37.9967 64.0408 34.3806 65.8686 31.3184C85.3496 1.05242 131.314 7.37465 148.097 25.9615C153.723 32.1967 156.841 39.6821 158.502 46.8826C158.787 48.0933 159.017 49.296 159.214 50.4829C161.39 63.2935 159.349 74.308 159.349 74.308C165.521 88.5825 158.423 99.2487 132.699 103.498L132.691 103.49Z" fill="#3E4049"/>
<g opacity="0.4">
<path d="M160.846 78.6978C160.798 78.5791 160.743 78.4525 160.695 78.3338C160.695 78.3338 160.703 78.2864 160.719 78.1914C160.767 78.3576 160.806 78.5237 160.846 78.6978Z" fill="white"/>
</g>
<g opacity="0.4">
<path d="M56.5422 86.1037C54.3821 81.7439 54.7381 77.4947 55.6165 74.3613C54.7856 77.6134 54.4849 81.9021 56.5422 86.1037Z" fill="white"/>
</g>
<g opacity="0.4">
<path d="M59.1859 52.5703C57.7854 61.6699 57.817 69.3056 57.817 69.3056C57.817 69.3056 56.4639 71.3075 55.6094 74.3618C56.4481 71.0702 57.817 68.8467 57.817 68.8467C57.817 68.8467 57.5875 61.4642 59.1859 52.5703Z" fill="white"/>
</g>
<g opacity="0.25">
<path d="M126.803 97.325C152.527 93.0759 159.624 82.4096 153.453 68.1352C153.453 68.1352 158.485 41.0659 144.385 22.4395C145.738 23.5551 146.98 24.7262 148.088 25.9606C164.871 44.5475 159.34 74.2991 159.34 74.2991C165.511 88.5736 158.414 99.2399 132.69 103.489C106.966 107.738 77.7915 100.276 77.7915 100.276C66.1203 96.8028 60.0988 92.0789 57.2344 87.363C60.6606 89.8555 65.4003 92.1818 71.9045 94.1125C71.9045 94.1125 101.079 101.582 126.803 97.325Z" fill="#0F0F14"/>
</g>
<path d="M139.927 41.8487C144.714 42.9169 148.211 47.0157 148.544 51.8978C149.058 59.3515 149.177 73.7447 143.052 78.429C134.649 84.8541 112.438 81.9818 96.7156 81.0402C80.9931 80.0907 70.6275 78.9354 68.8314 67.0348C67.0352 55.1262 71.6404 41.5718 73.1438 40.5669C74.6472 39.5619 91.4774 40.3769 108.529 40.9467C119.908 41.3265 131.982 40.0842 139.919 41.8566L139.927 41.8487Z" fill="#F2C5A7"/>
<path d="M115.549 105.649C95.6013 105.649 77.8057 101.17 77.5762 101.107C77.5683 101.107 77.5525 101.107 77.5446 101.099C65.1612 97.4119 57.5809 91.8968 55.0093 84.7042C52.3031 77.1318 56.125 70.3822 56.9558 69.045C56.9716 66.2518 57.3119 43.9064 65.1217 30.8742C73.0818 18.4988 86.3356 10.9739 102.454 9.66036C111.237 8.94822 120.336 10.0956 128.771 12.9995C136.977 15.8243 144.066 20.2238 148.735 25.3828C157.573 35.1629 160.216 47.9973 160.873 57.0336C161.522 65.8957 160.477 72.7719 160.24 74.1961C162.899 80.4709 162.978 85.9623 160.485 90.5279C156.806 97.2695 147.508 101.914 132.83 104.336C127.133 105.277 121.254 105.641 115.549 105.641V105.649ZM78.0193 99.4455C78.8185 99.6512 107.534 106.773 132.546 102.642C146.67 100.308 155.556 95.956 158.966 89.705C161.221 85.5667 161.079 80.5025 158.547 74.6393C158.475 74.481 158.46 74.3069 158.491 74.1408C158.507 74.0695 159.852 66.6633 159.148 57.1127C158.499 48.3533 155.951 35.9384 147.453 26.5302C138.132 16.2121 119.688 9.97686 102.596 11.3695C87.0319 12.6355 74.2371 19.8835 66.5855 31.7763C58.6887 44.9667 58.6808 69.0529 58.6808 69.2903C58.6808 69.4644 58.6333 69.6305 58.5304 69.773C58.4829 69.8442 53.9648 76.6886 56.6393 84.1345C59.021 90.7653 66.2136 95.9164 78.0193 99.4297V99.4455Z" fill="#0F0F14"/>
<path d="M123.114 83.3741C116.966 83.3741 110.311 82.8835 104.013 82.4167C101.433 82.2268 98.9961 82.0448 96.6698 81.9023C82.3399 81.0399 69.9724 80.2961 67.9863 67.161C66.1585 55.0863 70.7162 41.16 72.6706 39.8465C74.0158 38.9444 81.6436 39.1185 100.033 39.7832C102.826 39.886 105.69 39.9889 108.57 40.0838C112.566 40.2184 116.665 40.1471 120.629 40.0838C127.956 39.9572 134.88 39.8465 140.118 41.0175C145.23 42.157 149.044 46.6118 149.408 51.85C149.97 59.9447 149.954 74.2508 143.576 79.125C139.264 82.4246 131.675 83.3741 123.114 83.3741ZM73.628 41.2866C72.4095 42.4023 67.9072 55.1417 69.6875 66.9078C71.3808 78.0884 81.0818 79.2358 96.7726 80.1853C99.1069 80.3277 101.552 80.5097 104.139 80.6996C118.168 81.7362 135.632 83.0259 142.532 77.7561C148.482 73.2063 148.118 58.2039 147.691 51.9687C147.382 47.4901 144.114 43.6762 139.738 42.695C134.706 41.5714 127.877 41.6822 120.653 41.8009C116.665 41.8642 112.543 41.9354 108.507 41.8009C105.627 41.7059 102.763 41.6031 99.9693 41.5002C88.3298 41.0808 75.1394 40.614 73.628 41.2787V41.2866Z" fill="#0F0F14"/>
<path d="M59.7888 42.0869C59.7888 42.0869 114.544 52.5554 158.673 47.6811C158.673 47.6811 161.894 47.3963 161.15 42.0315C160.406 36.6667 153.514 37.2997 153.514 37.2997C153.514 37.2997 116.293 38.6053 102.921 37.7507C89.5483 36.9041 65.4701 33.1139 63.7134 33.0823C61.9568 33.0506 57.8739 36.3265 59.7888 42.0869Z" fill="#742DD2"/>
<g opacity="0.25">
<path d="M60.2224 41.5176C59.6289 41.4069 59.3203 41.3515 59.3203 41.3515C59.3203 41.3357 59.7713 41.4227 60.2224 41.5176Z" fill="#0F0F14"/>
</g>
<g opacity="0.25">
<path d="M61.1168 41.6829C61.1168 41.6829 60.8319 41.6355 60.5312 41.5801C60.7053 41.6117 60.9031 41.6434 61.1168 41.6829Z" fill="#0F0F14"/>
</g>
<g opacity="0.25">
<path d="M159.207 50.4825C158.867 50.6328 158.621 50.6487 158.621 50.6487C114.492 55.5229 60.6069 45.2206 60.6069 45.2206C60.1401 43.8042 60.9947 42.7835 61.1292 41.6836C61.2558 41.7073 61.3824 41.7311 61.5248 41.7548C72.1674 43.6222 119.311 51.2421 158.202 46.9455C158.202 46.9455 158.313 46.9376 158.503 46.8822C158.787 48.0929 159.017 49.2956 159.215 50.4825H159.207Z" fill="#0F0F14"/>
</g>
<path d="M133.156 49.8168C96.1956 49.8168 60.0822 43.0119 59.6312 42.9249C59.3226 42.8695 59.0773 42.648 58.9744 42.3473C57.6767 38.4542 58.9902 35.8193 59.8844 34.6008C60.9447 33.1527 62.4876 32.1953 63.7299 32.2111C64.3155 32.219 66.5548 32.5276 71.1599 33.1607C79.6581 34.3317 93.8693 36.2941 102.977 36.8796C116.009 37.7104 152.336 36.4682 153.46 36.4286C156.134 36.1912 161.317 37.022 161.997 41.8962C162.322 44.2067 161.997 45.9792 161.048 47.174C160.098 48.3688 158.88 48.5112 158.745 48.5192C150.461 49.437 141.781 49.8089 133.148 49.8089L133.156 49.8168ZM60.462 41.3344C66.1116 42.371 117.338 51.3756 158.579 46.8179C158.611 46.8179 159.228 46.7309 159.727 46.0821C160.344 45.275 160.542 43.914 160.296 42.1415C159.671 37.663 153.839 38.1298 153.594 38.1536C153.578 38.1536 153.563 38.1536 153.547 38.1536C153.175 38.1694 116.128 39.4433 102.874 38.6046C93.7031 38.019 79.4445 36.0488 70.9305 34.8777C67.1799 34.3555 64.2126 33.9519 63.7062 33.944C63.7062 33.944 63.7062 33.944 63.6983 33.944C63.2156 33.944 62.1316 34.4742 61.277 35.6294C60.6123 36.5315 59.6628 38.4463 60.462 41.3344Z" fill="#0F0F14"/>
<path d="M88.643 75.201C85.0507 74.8132 82.4553 71.5928 82.843 68.0004L83.3574 63.2212C83.7451 59.6288 86.9656 57.0335 90.5579 57.4212C94.1503 57.8089 96.7456 61.0294 96.3579 64.6217L95.8436 69.401C95.4559 72.9933 92.2354 75.5887 88.643 75.201Z" fill="#0F0F14"/>
<path d="M94.3004 64.7821C94.3979 63.0761 93.3911 61.6312 92.0516 61.5547C90.7122 61.4781 89.5474 62.799 89.4499 64.5049C89.3524 66.2108 90.3593 67.6558 91.6987 67.7323C93.0381 67.8088 94.2029 66.488 94.3004 64.7821Z" fill="white"/>
<g opacity="0.4">
<path d="M86.4626 71.7911C87.2187 71.7911 87.8315 70.7885 87.8315 69.5518C87.8315 68.3151 87.2187 67.3125 86.4626 67.3125C85.7066 67.3125 85.0938 68.3151 85.0938 69.5518C85.0938 70.7885 85.7066 71.7911 86.4626 71.7911Z" fill="white"/>
</g>
<path d="M127.39 77.979C123.781 77.8207 120.988 74.7744 121.139 71.1662L121.368 65.8251C121.368 65.8251 124.533 66.197 127.485 65.5086C130.824 64.7332 134.013 62.8974 134.076 63.0478C134.361 63.6966 134.511 64.4246 134.471 65.1842L134.187 71.728C134.028 75.3362 130.982 78.1293 127.374 77.979H127.39Z" fill="#0F0F14"/>
<path d="M130.66 72.2261C131.849 72.2261 132.812 70.887 132.812 69.2351C132.812 67.5833 131.849 66.2441 130.66 66.2441C129.471 66.2441 128.508 67.5833 128.508 69.2351C128.508 70.887 129.471 72.2261 130.66 72.2261Z" fill="white"/>
<g opacity="0.4">
<path d="M124.775 75.0827C125.531 75.0827 126.144 74.0695 126.144 72.8197C126.144 71.5698 125.531 70.5566 124.775 70.5566C124.019 70.5566 123.406 71.5698 123.406 72.8197C123.406 74.0695 124.019 75.0827 124.775 75.0827Z" fill="white"/>
</g>
<path d="M82.3916 53.9565C84.441 49.6916 94.6721 49.8261 96.6978 54.1069C96.8481 54.4788 96.3813 54.7399 96.1201 54.4471C94.3002 52.9991 91.8552 52.8171 89.5922 52.8329C87.3212 52.9358 84.9079 52.9991 82.9693 54.2809L82.8585 54.3522C82.6053 54.5183 82.265 54.2256 82.3837 53.9565H82.3916Z" fill="#0F0F14"/>
<path d="M119.915 65.5083C125.509 65.5399 130.692 64.7803 135.305 61.3779C135.606 61.1563 136.001 61.544 135.78 61.8526C132.741 66.1334 126.902 67.9296 121.861 66.8455C121.141 66.6794 120.437 66.4895 119.749 66.1571C119.583 66.078 119.503 65.8723 119.59 65.7061C119.654 65.5795 119.78 65.5083 119.915 65.5083Z" fill="#0F0F14"/>
<path d="M87.0832 73.4043C88.7132 73.4992 90.3353 73.6971 91.9495 73.9265C93.5953 74.2193 95.2333 74.2351 96.7683 75.0343C96.8237 75.066 96.8237 75.1609 96.7525 75.1767C95.1067 75.699 93.4846 75.4379 91.815 75.4458C90.185 75.3904 88.555 75.3113 86.9329 75.1293C85.8409 74.9789 85.9754 73.3806 87.0832 73.4122V73.4043Z" fill="#0F0F14"/>
<path d="M126.089 76.4356C127.711 76.5385 129.42 76.5781 131.066 76.5227C132.799 76.5227 134.373 76.1112 136.154 76.2616C136.486 76.3644 135.457 76.8787 135.347 76.9579C134.057 77.583 132.609 77.8204 131.2 78.034C129.436 78.2714 127.703 78.3426 125.907 78.1448C124.791 77.9865 124.973 76.3486 126.097 76.4356H126.089Z" fill="#0F0F14"/>
<path d="M106.931 171.79C106.892 171.766 106.852 171.75 106.812 171.734C106.852 171.75 106.892 171.774 106.931 171.79Z" fill="#3E4049"/>
<path d="M89.8486 169.472C85.1405 169.939 81.7223 170.944 81.7223 170.944C81.7223 170.944 72.8363 176.847 72.3378 179.118C71.8393 181.389 73.8333 183.169 73.8333 183.169H106.813C106.813 183.169 106.75 180.708 106.813 171.735C101.433 169.116 94.9206 168.982 89.8565 169.472H89.8486Z" fill="#F2C5A7"/>
<path d="M141.504 101.423C108.951 109.668 77.791 100.275 77.791 100.275C71.9357 108.647 69.4353 124.172 69.4353 124.172C67.4413 145.069 81.5496 170.959 81.5496 170.959C81.5496 170.959 85.047 169.939 89.85 169.472C94.8824 168.973 101.395 169.1 106.807 171.735C106.807 171.426 106.807 171.118 106.807 170.801C106.878 161.061 108.231 157.579 108.231 157.579H110.644C113.271 161.274 114.767 171.79 114.767 171.79C114.767 171.79 127.775 168.127 140.072 170.366C140.214 162.406 143.909 143.36 145.334 131.705C146.758 120.049 141.496 101.423 141.496 101.423H141.504Z" fill="#3E4049"/>
<path d="M89.8516 169.473C94.9157 168.982 101.428 169.116 106.808 171.736C101.396 169.101 94.884 168.974 89.8516 169.473Z" fill="#3E4049"/>
<path d="M145.587 179.465C144.48 177.471 140.088 170.366 140.088 170.366C127.792 168.126 114.783 171.79 114.783 171.79C114.783 171.79 114.427 176.696 114.783 179.323C115.139 181.95 115.353 183.516 115.353 183.516H145.983C145.983 183.516 146.695 181.459 145.587 179.465Z" fill="#F2C5A7"/>
<path d="M107.728 112.423C107.728 112.423 112.697 107.976 113.433 107.224C114.169 106.465 114.572 106.053 114.778 105.832C114.984 105.61 115.276 105.017 115.276 105.017H114.992C114.992 105.017 106.359 104.653 106.003 104.637C105.647 104.621 101.049 104.138 100.575 104.257C100.1 104.376 99.815 104.415 99.5697 104.415C99.3244 104.415 99 104.487 99 104.487V105.088C99 105.088 100.717 107.636 101.904 108.894C103.091 110.152 106.28 113.056 106.28 113.056L106.968 113.19L107.419 113.127L107.728 112.423Z" fill="#F2C5A7"/>
<path d="M145.01 134.277C145.01 134.277 131.859 147.768 108.185 147.768C84.5099 147.768 69.5866 134.277 69.5866 134.277C69.5866 134.277 69.1356 130.297 69.2543 127.654C69.2543 127.654 82.69 140.52 107.734 140.52C132.777 140.52 145.596 127.654 145.596 127.654C145.596 127.654 145.176 133.154 145.018 134.277H145.01Z" fill="#742DD2"/>
<g opacity="0.25">
<path d="M72.1619 113.371C72.1619 113.371 80.1378 135.281 107.144 136.033C134.15 136.785 141.888 120.057 144.207 113.545C144.207 113.545 145.053 118.111 145.338 121.901C145.615 125.691 145.592 126.973 145.592 127.131C145.592 127.289 145.267 127.954 145.267 127.954C145.267 127.954 131.325 140.583 109.336 140.496C87.3463 140.409 75.2874 132.211 71.7188 129.624L69.5823 127.954L69.25 127.653C69.25 127.653 70.0887 118.918 72.154 113.371H72.1619Z" fill="#0F0F14"/>
</g>
<g opacity="0.25">
<path d="M77.7969 100.275C77.7969 100.275 91.2801 108.766 106.971 108.766C122.662 108.766 134.831 106.21 140.085 101.969C140.085 101.969 123.595 104.857 112.011 104.809C100.427 104.762 80.8986 101.755 77.7969 100.275Z" fill="#0F0F14"/>
</g>
<path d="M145.981 184.38H115.351C114.924 184.38 114.56 184.063 114.497 183.636C114.497 183.636 114.283 182.069 113.927 179.442C113.587 176.926 113.864 172.55 113.911 171.822C113.769 170.841 112.408 162.019 110.192 158.434H108.871C108.523 159.74 107.724 163.475 107.676 170.802C107.605 180.4 107.676 183.114 107.676 183.138C107.676 183.367 107.597 183.597 107.431 183.763C107.273 183.929 107.043 184.024 106.814 184.024H73.8336C73.62 184.024 73.4142 183.945 73.2639 183.802C73.1689 183.715 70.9059 181.658 71.5073 178.928C71.99 176.712 77.9403 172.463 80.5989 170.659C78.2964 166.307 66.7359 143.353 68.5717 124.093C68.5717 124.077 68.5717 124.054 68.5717 124.038C68.6745 123.397 71.1749 108.228 77.0778 99.7854C77.2914 99.4768 77.6713 99.3502 78.0352 99.4531C78.3438 99.5481 109.354 108.679 141.289 100.593C141.74 100.482 142.199 100.743 142.326 101.194C142.539 101.961 147.619 120.113 146.187 131.808C145.641 136.255 144.755 141.889 143.892 147.333C142.508 156.116 141.068 165.2 140.941 170.137C141.701 171.364 145.325 177.243 146.33 179.055C147.611 181.357 146.82 183.707 146.788 183.802C146.67 184.15 146.345 184.38 145.973 184.38H145.981ZM116.095 182.655H145.285C145.38 182.014 145.404 180.922 144.826 179.885C143.742 177.939 139.39 170.897 139.343 170.825C139.256 170.683 139.208 170.525 139.216 170.359C139.303 165.366 140.775 156.068 142.199 147.072C143.054 141.643 143.948 136.025 144.486 131.61C145.704 121.617 141.867 106.155 140.894 102.476C111.268 109.716 82.6641 102.515 78.1539 101.281C72.8287 109.344 70.4074 123.579 70.2887 124.291C68.3659 144.674 82.3397 170.272 82.4822 170.533C82.6958 170.928 82.5771 171.419 82.2052 171.664C78.0748 174.41 73.4459 178.113 73.1848 179.308C72.892 180.653 73.7782 181.84 74.1976 182.315H105.935C105.92 180.906 105.904 177.583 105.951 170.802C106.022 161.022 107.375 157.421 107.431 157.279C107.557 156.947 107.882 156.733 108.23 156.733H110.643C110.92 156.733 111.181 156.867 111.348 157.097C114.07 160.919 115.557 171.253 115.62 171.688C115.628 171.751 115.628 171.807 115.62 171.87C115.62 171.917 115.272 176.712 115.62 179.229C115.834 180.788 115.992 181.974 116.087 182.679L116.095 182.655Z" fill="#0F0F14"/>
<path d="M81.2691 150.094C93.7157 157.365 112.492 159.051 125.849 153.417C127.843 152.562 129.829 151.494 131.499 150.117C131.617 150.007 131.815 150.007 131.918 150.141C132.013 150.252 132.005 150.418 131.902 150.529C130.272 152.167 128.334 153.346 126.308 154.406C114.566 160.222 98.4871 159.565 86.7367 154.058C84.6953 153.077 82.7171 151.985 80.9288 150.553C80.8022 150.458 80.7864 150.276 80.8814 150.149C80.9763 150.03 81.1504 150.007 81.2691 150.094Z" fill="#0F0F14"/>
<path d="M108.186 148.631C84.4479 148.631 69.1606 135.053 69.0102 134.918C68.852 134.776 68.757 134.586 68.7333 134.38C68.7175 134.214 68.2823 130.305 68.393 127.623C68.4089 127.282 68.6146 126.99 68.9311 126.863C69.2476 126.736 69.6037 126.808 69.849 127.037C69.9835 127.164 83.3638 139.666 107.727 139.666C132.09 139.666 144.853 127.18 144.98 127.053C145.233 126.8 145.621 126.729 145.945 126.879C146.27 127.029 146.475 127.369 146.444 127.726C146.428 127.955 146.016 133.264 145.866 134.404C145.842 134.586 145.755 134.752 145.629 134.887C145.494 135.029 142.179 138.392 135.888 141.786C130.104 144.912 120.601 148.639 108.186 148.639V148.631ZM70.4029 133.842C72.4206 135.535 86.7425 146.906 108.178 146.906C129.613 146.906 142.456 135.512 144.189 133.866C144.284 133.011 144.442 131.168 144.56 129.696C140.343 133.114 128.063 141.375 107.727 141.375C87.3914 141.375 74.2326 132.798 70.1101 129.514C70.1576 131.27 70.3316 133.106 70.4108 133.842H70.4029Z" fill="#0F0F14"/>
<path d="M114.787 172.512C114.47 172.512 114.185 172.306 114.098 171.99C113.987 171.61 114.217 171.214 114.597 171.103C114.731 171.064 127.906 167.424 140.226 169.663C140.614 169.734 140.875 170.106 140.804 170.494C140.732 170.882 140.36 171.143 139.973 171.072C127.993 168.888 115.119 172.441 114.992 172.48C114.929 172.496 114.866 172.504 114.795 172.504L114.787 172.512Z" fill="#0F0F14"/>
<path d="M106.816 172.512C106.706 172.512 106.603 172.488 106.5 172.441C96.3796 167.432 82.0814 171.586 81.939 171.633C81.5592 171.744 81.1635 171.531 81.0448 171.151C80.9341 170.771 81.1477 170.375 81.5275 170.257C82.1368 170.075 96.5141 165.905 107.133 171.151C107.489 171.325 107.631 171.76 107.457 172.108C107.331 172.361 107.078 172.512 106.816 172.512Z" fill="#0F0F14"/>
<path d="M87.4943 177.781C87.0116 178.517 86.7109 179.308 86.6872 180.21C86.6239 181.215 86.9879 182.07 86.972 183.138C86.972 183.185 86.9166 183.225 86.8692 183.193C85.8643 182.545 85.5873 181.373 85.4211 180.266C85.3341 179.546 85.437 178.77 85.6823 178.082C85.8484 177.678 86.0858 177.259 86.3469 176.919C86.9404 176.143 88.064 176.998 87.4943 177.781Z" fill="#0F0F14"/>
<path d="M81.5334 183.58C80.7026 182.417 80.3544 180.818 80.9954 179.489C81.2011 179.046 81.5888 178.69 82.0715 178.587C82.119 178.579 82.1585 178.619 82.1585 178.666C82.1111 179.172 81.9844 179.489 81.9291 179.829C81.7233 180.866 82.2218 181.91 82.7282 182.797C83.1555 183.572 82.0636 184.284 81.5334 183.58Z" fill="#0F0F14"/>
<path d="M77.7173 183.391C77.2505 182.006 77.1001 180.511 77.5986 179.11C77.7648 178.643 78.1367 178.16 78.6748 178.05C78.7222 178.042 78.7697 178.089 78.7539 178.137C78.5956 179.063 78.4532 179.648 78.5719 180.534C78.6589 181.333 78.8805 182.188 79.0862 182.956C79.2999 183.834 78.0497 184.222 77.7173 183.383V183.391Z" fill="#0F0F14"/>
<path d="M74.9925 183.518C74.3436 182.379 74.13 180.962 74.6206 179.72C74.7788 179.301 75.1111 178.937 75.578 178.81C75.6255 178.794 75.6729 178.834 75.6729 178.889C75.6809 179.728 75.483 180.195 75.6255 180.954C75.7442 181.595 76.0132 182.284 76.2743 182.861C76.6304 183.676 75.4672 184.278 75.0004 183.518H74.9925Z" fill="#0F0F14"/>
<path d="M127.337 183.178C127.891 181.904 128.295 180.464 128.105 179.063C128.049 178.588 127.931 178.137 127.923 177.536C127.923 177.496 127.954 177.465 127.986 177.465C128.524 177.718 128.88 178.264 129.07 178.818C129.45 179.902 129.466 181.105 129.205 182.22C128.991 182.925 128.698 184.626 127.63 184.135C127.282 183.945 127.163 183.518 127.337 183.17V183.178Z" fill="#0F0F14"/>
<path d="M132.68 183.248C132.91 182.497 133.068 181.666 133.131 180.867C133.25 179.949 133.021 179.173 133.282 178.224C133.298 178.176 133.361 178.161 133.393 178.192C133.804 178.54 134.026 178.984 134.136 179.442C134.397 180.376 134.484 181.357 134.366 182.323C134.247 183.019 134.12 184.538 133.06 184.174C132.696 184.024 132.538 183.605 132.672 183.248H132.68Z" fill="#0F0F14"/>
<path d="M137.39 183.217C137.612 182.584 137.802 181.879 137.881 181.199C138.015 180.392 137.786 179.775 137.991 178.92C137.999 178.873 138.055 178.849 138.102 178.873C139.218 179.577 139.25 181.365 139.091 182.528C139.012 182.995 138.909 183.375 138.696 183.826C138.26 184.649 137.05 184.079 137.398 183.217H137.39Z" fill="#0F0F14"/>
<path d="M141.52 183.161C141.892 182.307 142.168 181.333 142.066 180.384C142.042 180.051 141.994 179.719 142.089 179.244C142.089 179.205 142.137 179.181 142.176 179.189C143.363 179.751 143.442 181.531 143.229 182.655C143.126 183.106 143.007 183.47 142.762 183.881C142.256 184.665 141.1 183.992 141.52 183.161Z" fill="#0F0F14"/>
<path d="M87.0051 138.028C86.9339 138.028 86.8627 138.02 86.7994 137.997C84.3623 137.253 79.9074 135.267 79.7175 135.18C79.4723 135.069 79.3061 134.832 79.2903 134.563C79.2744 134.293 79.4169 134.04 79.6463 133.906C97.165 123.714 115.071 104.494 115.253 104.297C115.396 104.146 115.594 104.059 115.799 104.067C119.336 104.154 125.856 103.442 125.92 103.434C126.205 103.402 126.474 103.545 126.616 103.782C126.758 104.028 126.743 104.336 126.576 104.566C114.818 120.866 87.654 137.743 87.3849 137.91C87.2742 137.981 87.1396 138.02 87.0051 138.02V138.028ZM81.577 134.428C83.0092 135.045 85.3276 136.011 86.9023 136.525C89.7113 134.752 113.062 119.805 124.44 105.032C122.327 105.23 118.632 105.539 116.076 105.507C114.011 107.699 97.8218 124.608 81.5691 134.428H81.577Z" fill="#0F0F14"/>
<path d="M102.353 118.483C102.202 118.483 102.052 118.436 101.926 118.341C96.0781 114.036 88.0546 103.504 87.7223 103.053C87.4849 102.737 87.5482 102.286 87.8568 102.048C88.1733 101.811 88.6243 101.874 88.8617 102.183C88.9408 102.294 97.0988 113 102.78 117.177C103.097 117.415 103.168 117.858 102.93 118.182C102.788 118.372 102.574 118.475 102.353 118.475V118.483Z" fill="#0F0F14"/>
<path d="M106.971 114.266C106.836 114.266 106.694 114.227 106.567 114.139C102.571 111.441 97.4359 104.7 97.2223 104.407C96.9849 104.09 97.0482 103.639 97.3568 103.402C97.6733 103.165 98.1243 103.228 98.3617 103.536C98.4171 103.608 103.568 110.381 107.366 112.945C107.699 113.166 107.778 113.609 107.556 113.942C107.414 114.147 107.192 114.258 106.963 114.258L106.971 114.266Z" fill="#0F0F14"/>
<path d="M148.764 99.058C148.764 99.058 148.606 97.5863 147.119 94.1759C145.623 90.7655 144.634 88.3443 142.213 88.7715C139.799 89.1988 140.575 95.3074 140.575 95.3074C140.575 95.3074 129.774 95.3074 127.764 97.5704C125.762 99.8335 129.41 102.421 129.41 102.421C129.41 102.421 128.983 102.991 128.342 104.518C127.701 106.045 129.552 107.248 129.552 107.248C129.552 107.248 129.909 109.519 131.475 112.296C133.042 115.065 137.584 115.564 137.584 115.564C153.931 115.991 148.757 99.0501 148.757 99.0501L148.764 99.058Z" fill="#F2C5A7"/>
<path d="M161.973 109.455C160.904 103.062 151.757 97.5703 151.757 97.5703L148.766 99.0579C148.766 99.0579 153.941 115.999 137.594 115.572C137.594 115.572 144.058 124.386 152.731 124.03C161.403 123.674 163.033 115.857 161.973 109.463V109.455Z" fill="#3E4049"/>
<g opacity="0.25">
<path d="M129.562 107.256C129.562 107.256 130.702 112.193 137.594 111.885C144.486 111.576 148.545 108.427 149.392 104.803C149.392 104.803 149.661 107.699 148.165 110.808C146.67 113.918 144.343 114.385 144.343 114.385C144.343 114.385 148.11 119.362 154.883 118.99C161.656 118.618 162.258 113.341 162.258 113.341C162.258 113.341 162.558 121.071 155.84 123.469C149.123 125.866 143.085 120.881 141.867 119.908C140.648 118.935 137.966 116.308 138.029 116.134C138.092 115.952 137.475 115.564 137.475 115.564C137.475 115.564 133.907 115.319 131.92 112.945C129.934 110.571 129.562 107.264 129.562 107.264V107.256Z" fill="#0F0F14"/>
</g>
<path d="M152.216 124.9C144.279 124.9 138.353 117.929 137.126 116.37C135.924 116.173 132.228 115.373 130.733 112.723C129.459 110.468 128.953 108.529 128.786 107.753C127.916 107.065 126.919 105.736 127.568 104.193C127.861 103.496 128.114 102.982 128.304 102.626C127.584 101.985 126.5 100.806 126.333 99.4056C126.231 98.5352 126.508 97.7123 127.133 97.0081C129.032 94.8637 136.596 94.5156 139.635 94.4681C139.492 92.4266 139.524 88.3833 142.072 87.9322C145.102 87.3942 146.36 90.2744 147.816 93.6056L147.919 93.8351C148.718 95.6629 149.154 96.9685 149.383 97.8073L151.393 96.8103C151.654 96.6837 151.971 96.6916 152.216 96.8419C152.604 97.0714 161.719 102.61 162.835 109.32C163.642 114.179 162.811 118.562 160.556 121.347C158.76 123.563 156.141 124.758 152.786 124.892C152.604 124.892 152.414 124.9 152.232 124.9H152.216ZM130.108 102.935C130.108 102.935 129.72 103.473 129.15 104.85C128.794 105.696 130.029 106.527 130.037 106.535C130.234 106.669 130.377 106.883 130.416 107.12C130.416 107.144 130.772 109.289 132.236 111.876C133.344 113.83 136.549 114.59 137.696 114.717C137.933 114.74 138.155 114.867 138.297 115.065C138.361 115.152 144.612 123.5 152.706 123.175C155.547 123.057 157.739 122.083 159.211 120.263C161.157 117.866 161.861 113.981 161.133 109.605C160.263 104.399 153.442 99.6826 151.717 98.5669L149.154 99.8408C148.9 99.9674 148.6 99.9595 148.354 99.825C148.109 99.6905 147.943 99.4452 147.911 99.1603C147.911 99.1524 147.729 97.7281 146.329 94.5314L146.226 94.3019C144.762 90.947 143.987 89.3486 142.365 89.6335C141.336 89.8155 141.162 93.0517 141.431 95.2119C141.463 95.4572 141.383 95.7025 141.225 95.8924C141.059 96.0744 140.829 96.1852 140.576 96.1852C136.248 96.1852 129.617 96.7944 128.414 98.1554C128.114 98.4957 127.995 98.828 128.043 99.2078C128.161 100.26 129.435 101.384 129.918 101.732C130.108 101.866 130.234 102.072 130.266 102.302C130.298 102.531 130.242 102.769 130.108 102.95V102.935Z" fill="#0F0F14"/>
<path d="M138.198 116.441C137.993 116.441 137.787 116.441 137.581 116.433C137.106 116.418 136.734 116.022 136.742 115.547C136.758 115.072 137.162 114.693 137.629 114.708C141.933 114.819 145.027 113.688 146.807 111.338C150.202 106.867 147.978 99.3895 147.955 99.3104C147.812 98.8594 148.073 98.3767 148.524 98.2343C148.975 98.0919 149.458 98.353 149.6 98.804C149.703 99.1442 152.109 107.215 148.176 112.374C146.127 115.072 142.772 116.433 138.198 116.433V116.441Z" fill="#0F0F14"/>
<path d="M149.454 99.8649C151.392 100.688 153.252 101.693 155.087 102.737C155.705 103.085 156.29 103.481 156.781 104.098C156.812 104.13 156.805 104.185 156.765 104.209C155.246 104.304 153.972 103.544 152.595 103.093C151.281 102.587 149.976 102.049 148.718 101.424C148.29 101.21 148.124 100.696 148.33 100.268C148.536 99.8569 149.034 99.6829 149.446 99.8649H149.454Z" fill="#0F0F14"/>
<path d="M69.8157 123.452C69.8157 123.452 65.8751 125.09 56.0634 123.103C46.2517 121.109 42.4141 109.881 42.4141 109.881C45.5396 102.918 51.0864 100.275 51.0864 100.275C55.2089 102.894 63.2402 104.762 68.4151 102.349C73.59 99.9351 78.488 100.695 78.488 100.695C78.488 100.695 78.6304 107.959 77.4751 110.522C76.3199 113.078 71.8255 114.21 71.8255 114.21" fill="#3E4049"/>
<g opacity="0.25">
<path d="M44.1627 106.732C44.1627 106.732 49.5987 115.064 58.271 117.771C66.9433 120.477 70.8126 118.688 70.8126 118.688L69.6731 122.977L68.9768 123.784C68.9768 123.784 60.3599 125.034 53.0644 122.154C45.7689 119.274 42.4219 109.89 42.4219 109.89L44.1627 106.74V106.732Z" fill="#0F0F14"/>
</g>
<path d="M64.9127 124.979C62.7446 124.979 59.7853 124.734 55.9002 123.951C45.7245 121.885 41.776 110.641 41.6099 110.167C41.5387 109.961 41.5466 109.732 41.6415 109.534C44.862 102.365 50.4879 99.6112 50.7253 99.5004C50.9943 99.3738 51.3108 99.3896 51.5561 99.5479C55.2592 101.898 63.0532 103.908 68.054 101.566C73.403 99.0652 78.4196 99.809 78.6254 99.8407C79.0922 99.9119 79.4166 100.355 79.3454 100.822C79.2742 101.289 78.8311 101.613 78.3643 101.542C78.3168 101.542 73.6404 100.853 68.782 103.124C63.6783 105.506 55.7577 104.034 51.0655 101.265C49.8074 101.993 45.8432 104.612 43.3507 109.914C44.0549 111.694 47.9321 120.572 56.2325 122.257C65.6723 124.172 69.146 122.772 69.1776 122.756C69.6128 122.574 70.1192 122.772 70.3092 123.215C70.4911 123.65 70.2854 124.156 69.8502 124.346C69.7553 124.386 68.2835 124.979 64.9048 124.979H64.9127Z" fill="#0F0F14"/>
<path d="M68.6855 123.342C69.1919 121.213 69.8091 119.117 70.4738 117.035C71.2097 114.954 71.7003 112.802 72.9821 110.943C73.0217 110.887 73.1245 110.911 73.1166 110.982C73.1483 112.953 72.3333 115.524 71.9376 117.431C71.4391 119.544 70.9327 121.664 70.3472 123.761C70.0228 124.822 68.4561 124.426 68.6776 123.334L68.6855 123.342Z" fill="#0F0F14"/>
<path d="M56.0529 37.6408C45.624 35.4886 36.2079 47.0727 34.4433 51.7095C30.938 48.2042 17.5973 41.4943 8.96452 47.7295C0.331791 53.9647 -3.7195 67.3292 8.67175 85.4571C21.063 103.585 46.1145 106.204 46.1145 106.204C46.1145 106.204 67.8902 93.5518 71.7674 71.9344C75.6447 50.3169 66.4739 39.7931 56.045 37.6408H56.0529Z" fill="#FF6F00"/>
<path d="M46.1234 107.058C46.1234 107.058 46.0601 107.058 46.0364 107.058C45.7753 107.034 39.5717 106.362 31.754 103.434C24.5139 100.728 14.5044 95.4898 7.97642 85.9392C2.12103 77.3777 -0.529713 69.3463 0.087476 62.0587C0.609713 55.8947 3.58488 50.5537 8.467 47.0325C16.8861 40.9477 29.4435 46.4945 34.1436 50.2846C36.8735 44.8961 46.0601 34.6967 56.2279 36.7935C62.1229 38.0121 67.0287 41.6598 70.0355 47.0642C73.5883 53.4576 74.4587 61.8767 72.6309 72.0841C70.5894 83.4704 63.6104 92.3484 58.1111 97.7844C52.1687 103.656 46.7881 106.813 46.5665 106.947C46.432 107.026 46.2817 107.066 46.1313 107.066L46.1234 107.058ZM17.4242 46.0434C14.6152 46.0434 11.8536 46.7081 9.47982 48.4173C1.36933 54.2726 -2.91143 66.9487 9.4007 84.958C20.7316 101.535 43.172 104.938 45.9414 105.301C48.3152 103.838 67.4006 91.5176 70.9376 71.7755C74.7831 50.3084 65.6836 40.4967 55.8877 38.471C45.8623 36.4058 36.7706 48.0295 35.2593 52.0017C35.1565 52.2707 34.9191 52.4765 34.6342 52.5398C34.3494 52.6031 34.0487 52.516 33.843 52.3103C31.6907 50.166 24.4269 46.0434 17.4242 46.0434Z" fill="#0F0F14"/>
<g opacity="0.5">
<path d="M11.7597 78.2948C13.8879 78.2948 15.6132 76.5696 15.6132 74.4414C15.6132 72.3132 13.8879 70.5879 11.7597 70.5879C9.63151 70.5879 7.90625 72.3132 7.90625 74.4414C7.90625 76.5696 9.63151 78.2948 11.7597 78.2948Z" fill="white"/>
</g>
<g opacity="0.5">
<path d="M10.0067 65.983C9.00181 66.6556 7.63291 66.0859 7.26893 64.9307C7.24519 64.8674 7.22937 64.8041 7.21354 64.7408C7.11068 64.353 7.04738 63.9732 7.01573 63.5855C6.9999 63.2057 7.00781 62.818 7.03946 62.4461C7.13442 60.9268 7.45092 59.3997 7.95733 57.92C8.1868 57.1683 8.53496 56.4562 8.85938 55.7361C9.23919 55.0398 9.61108 54.3356 10.0938 53.6867C10.98 52.3891 12.1036 51.2496 13.338 50.3001C14.7781 49.1844 16.8907 49.3743 18.0381 50.7828C19.1221 52.1042 19.0193 53.9874 17.8957 55.1902L17.6741 55.4275C16.9224 56.2346 16.0995 56.9468 15.3952 57.7934C15.0075 58.1891 14.691 58.6401 14.3191 59.0595C14.145 59.281 13.9868 59.5105 13.8206 59.7399C13.7415 59.8586 13.6465 59.9615 13.5674 60.0802L13.33 60.4442C12.6812 61.3937 12.0957 62.4303 11.5734 63.5301C11.336 64.084 11.0512 64.6379 10.6556 65.1997C10.5131 65.5478 10.2837 65.8011 10.0067 65.983Z" fill="white"/>
</g>
<path d="M42.3709 110.311C42.3709 110.311 36.3098 109.353 34.4978 108.602C32.6858 107.858 31.586 106.196 31.586 106.196C31.586 106.196 28.3892 106.576 27.8907 104.519C27.8907 104.519 25.8334 103.846 25.8651 102.176C25.8651 102.176 23.0244 101.077 22.1303 99.5495C21.2441 98.0223 22.0116 97.8008 22.0116 97.8008L26.3952 99.9768C26.3952 99.9768 28.5238 99.1618 29.2359 100.618C29.2359 100.618 31.76 99.6919 32.5038 101.29C32.5038 101.29 34.3871 100.08 35.028 101.678C35.6689 103.276 35.843 103.878 35.843 103.878C35.843 103.878 42.2048 105.516 43.3046 105.729C44.4045 105.943 44.8555 105.753 44.6735 105.998C44.4915 106.244 42.363 110.311 42.363 110.311H42.3709Z" fill="#F2C5A7"/>
<g opacity="0.25">
<path d="M43.5987 108.782C43.5987 108.782 36.8808 107.967 34.8948 106.511C32.9008 105.055 32.0304 103.133 32.0304 103.133C32.0304 103.133 30.2025 105.063 29.071 103.742C27.9316 102.42 26.4203 101.851 26.1987 101.534C25.9772 101.218 25.8822 99.9279 25.8822 99.9279C25.8822 99.9279 24.1731 98.8597 23.9436 98.7489C23.7141 98.6381 21.8626 97.9102 21.8626 97.9102C21.8626 97.9102 21.0555 98.5036 22.4165 99.9279C23.7774 101.352 24.9564 102.175 24.9564 102.175C24.9564 102.175 25.5974 102.412 26.0721 103.053C26.5548 103.702 27.1878 104.375 27.3698 104.517C27.5439 104.66 28.2006 105.609 29.0869 105.87C29.9731 106.139 31.3499 106.218 31.3499 106.218L31.88 106.567C31.88 106.567 33.8265 108.205 35.3616 108.885C36.8967 109.558 42.0478 110.254 42.2219 110.278C42.3881 110.301 43.6145 108.774 43.6145 108.774L43.5987 108.782Z" fill="#0F0F14"/>
</g>
<path d="M42.3744 111.173C42.3269 111.173 42.2874 111.173 42.2399 111.165C41.9867 111.125 36.0601 110.184 34.1769 109.408C32.713 108.807 31.6765 107.699 31.1859 107.098C29.8091 107.145 27.8784 106.773 27.2058 105.175C26.3591 104.787 25.3068 103.996 25.0615 102.769C24.1278 102.35 22.1892 101.353 21.39 99.9763C20.8598 99.0663 20.7174 98.3304 20.9548 97.737C21.1368 97.286 21.5008 97.0407 21.7777 96.9615C21.9834 96.9062 22.205 96.922 22.3949 97.0169L26.462 99.0347C27.364 98.7894 28.725 98.7261 29.5796 99.6044C30.5924 99.3749 31.9297 99.367 32.7763 100.19C33.259 100.016 33.9078 99.8734 34.5329 100.079C34.9444 100.214 35.4983 100.538 35.8227 101.345C36.1709 102.208 36.3845 102.793 36.5111 103.149C37.9829 103.529 42.5722 104.7 43.4663 104.866C43.8936 104.945 44.2022 104.961 44.4238 104.969C44.7245 104.977 45.2309 105.001 45.4762 105.507C45.5474 105.658 45.6819 106.045 45.3654 106.488C45.223 106.71 44.0994 108.823 43.1182 110.698C42.9679 110.983 42.6751 111.157 42.3586 111.157L42.3744 111.173ZM31.5815 105.341C31.8664 105.341 32.1433 105.483 32.3016 105.729C32.3095 105.745 33.2906 107.185 34.8257 107.818C36.0917 108.34 39.9215 109.044 41.8996 109.369C42.414 108.387 42.952 107.367 43.3556 106.615C43.2923 106.607 43.2211 106.591 43.1498 106.575C42.0342 106.362 35.8939 104.779 35.6328 104.716C35.34 104.637 35.1106 104.415 35.0235 104.123C35.0235 104.123 34.8415 103.521 34.2323 101.994C34.1373 101.765 34.0503 101.733 34.0186 101.725C33.7654 101.646 33.2511 101.836 32.9741 102.01C32.7684 102.144 32.5073 102.176 32.2699 102.105C32.0325 102.034 31.8347 101.867 31.7318 101.646C31.3441 100.807 29.5559 101.408 29.54 101.416C29.1286 101.567 28.6617 101.377 28.4718 100.981C28.1237 100.261 26.7231 100.768 26.7073 100.768C26.4857 100.855 26.2325 100.839 26.0189 100.736L22.9488 99.2087C23.6214 100.198 25.4887 101.092 26.1772 101.361C26.5174 101.496 26.731 101.82 26.7231 102.184C26.6994 103.189 28.1395 103.687 28.1553 103.695C28.4402 103.79 28.6538 104.02 28.725 104.312C29.0336 105.586 31.4628 105.341 31.4866 105.341C31.5182 105.341 31.5499 105.341 31.5815 105.341Z" fill="#0F0F14"/>
<path d="M31.5883 107.058C31.1451 107.058 30.7733 106.725 30.7337 106.274C30.6704 105.538 30.4172 101.827 31.9839 100.601C32.3558 100.308 32.9018 100.379 33.1945 100.751C33.4873 101.123 33.4161 101.669 33.0442 101.962C32.5061 102.381 32.3004 104.454 32.4507 106.124C32.4903 106.599 32.1421 107.018 31.6674 107.058C31.6437 107.058 31.612 107.058 31.5883 107.058Z" fill="#0F0F14"/>
<path d="M27.8955 105.38C27.856 105.38 27.8085 105.38 27.7689 105.372C27.3021 105.301 26.9777 104.866 27.0489 104.391C27.1676 103.584 27.6423 100.893 28.671 99.9677C29.027 99.6512 29.573 99.6749 29.8895 100.031C30.206 100.387 30.1823 100.925 29.8262 101.25C29.4385 101.598 28.9558 103.291 28.7501 104.644C28.6868 105.071 28.3149 105.38 27.9034 105.38H27.8955Z" fill="#0F0F14"/>
<path d="M25.8708 103.031C25.8708 103.031 25.855 103.031 25.8391 103.031C25.3644 103.015 24.9925 102.62 25.0083 102.145C25.032 101.488 25.1666 99.8818 25.9974 99.2488C26.3772 98.956 26.9153 99.0272 27.208 99.407C27.5008 99.7868 27.4296 100.325 27.0498 100.618C26.9232 100.768 26.757 101.551 26.7333 102.208C26.7174 102.675 26.3376 103.039 25.8708 103.039V103.031Z" fill="#0F0F14"/>
<path d="M111.421 143.939C111.421 143.939 112.371 147.318 108.715 151.733C105.06 156.148 101.578 157.794 101.578 157.794C101.578 157.794 104.569 162.162 106.856 163.167C106.856 163.167 113.131 158.933 116.478 151.203C119.825 143.464 112.798 138.59 112.798 138.59" fill="#742DD2"/>
<path d="M106.844 164.028C106.726 164.028 106.607 164.005 106.496 163.957C104.059 162.881 101.179 158.751 100.862 158.284C100.72 158.078 100.672 157.817 100.744 157.572C100.807 157.326 100.981 157.128 101.211 157.018C101.242 157.002 104.581 155.38 108.055 151.186C111.386 147.158 110.603 144.199 110.595 144.175C110.468 143.716 110.729 143.242 111.188 143.115C111.647 142.988 112.122 143.258 112.249 143.709C112.296 143.867 113.277 147.57 109.376 152.286C106.718 155.498 104.154 157.295 102.841 158.078C103.806 159.36 105.444 161.33 106.781 162.161C108.197 161.085 112.969 157.144 115.683 150.862C118.698 143.883 112.565 139.483 112.296 139.301C111.908 139.032 111.813 138.494 112.083 138.106C112.352 137.719 112.89 137.616 113.277 137.893C113.356 137.948 120.842 143.265 117.257 151.55C113.847 159.423 107.596 163.712 107.327 163.886C107.185 163.981 107.018 164.036 106.844 164.036V164.028Z" fill="#0F0F14"/>
<path d="M99.8785 145.53C99.8785 145.53 97.0537 157.288 86.3953 157.731L83.5547 152.39C83.5547 152.39 88.508 151.868 90.8818 148.521C93.2635 145.166 96.1121 140.403 99.0952 140.497" fill="#742DD2"/>
<path d="M86.3965 158.593C86.08 158.593 85.7872 158.419 85.6369 158.135L82.7962 152.793C82.6617 152.54 82.6617 152.24 82.7962 151.986C82.9307 151.733 83.1839 151.567 83.4688 151.535C83.5163 151.535 88.066 151.005 90.1866 148.022C90.4873 147.603 90.788 147.16 91.1045 146.709C93.3913 143.393 95.9866 139.643 99.0093 139.643C99.0488 139.643 99.0884 139.643 99.1359 139.643C99.6106 139.658 99.9825 140.054 99.9667 140.529C99.9509 141.004 99.5553 141.383 99.0805 141.36C99.0568 141.36 99.0409 141.36 99.0172 141.36C96.8887 141.36 94.4753 144.865 92.5288 147.682C92.2123 148.141 91.9037 148.592 91.603 149.019C89.7673 151.607 86.618 152.643 84.8851 153.031L86.9108 156.837C96.3664 156.061 99.0251 145.443 99.0568 145.332C99.1675 144.873 99.6344 144.588 100.093 144.699C100.552 144.81 100.837 145.276 100.726 145.735C100.695 145.862 97.6246 158.135 86.4439 158.593C86.436 158.593 86.4202 158.593 86.4044 158.593H86.3965Z" fill="#0F0F14"/>
<path d="M106.154 139.427C106.154 139.427 107.143 135.581 112.057 136.08C116.971 136.578 116.504 144.23 114.098 146.683C111.693 149.136 108.496 147.347 108.496 147.347C108.496 147.347 104.793 149.531 100.916 147.442C97.0385 145.361 96.0099 139.261 99.1433 138.145C102.277 137.029 104.69 138.461 106.162 139.427H106.154Z" fill="#742DD2"/>
<path d="M104.501 149.208C103.282 149.208 101.906 148.954 100.505 148.195C97.6248 146.644 96.2638 143.249 96.4458 140.844C96.5803 139.103 97.4507 137.821 98.8433 137.331C101.826 136.27 104.271 137.299 105.743 138.154C106.59 136.626 108.552 134.854 112.137 135.218C114.083 135.416 115.539 136.595 116.243 138.541C117.256 141.327 116.536 145.41 114.7 147.277C112.651 149.366 109.953 148.939 108.489 148.306C107.793 148.638 106.313 149.208 104.485 149.208H104.501ZM101.423 138.597C100.798 138.597 100.133 138.708 99.421 138.953C98.4794 139.285 98.2182 140.235 98.1628 140.978C98.0204 142.87 99.1598 145.52 101.32 146.676C104.73 148.511 108.022 146.612 108.054 146.596C108.315 146.438 108.647 146.438 108.908 146.589C109.011 146.644 111.575 148.013 113.482 146.074C114.716 144.808 115.492 141.509 114.629 139.135C114.146 137.805 113.252 137.062 111.97 136.935C107.888 136.524 107.017 139.523 106.985 139.649C106.914 139.918 106.716 140.132 106.455 140.227C106.194 140.322 105.909 140.298 105.68 140.148C104.414 139.317 103.037 138.605 101.423 138.605V138.597Z" fill="#0F0F14"/>
<path d="M108.497 148.203C108.267 148.203 108.03 148.108 107.864 147.926C107.539 147.578 107.563 147.032 107.911 146.708C108.339 146.312 108.552 145.845 108.56 145.268C108.576 143.361 106.4 140.852 105.561 140.045C105.221 139.713 105.205 139.175 105.537 138.827C105.87 138.487 106.408 138.471 106.756 138.803C106.898 138.945 110.309 142.245 110.285 145.284C110.277 146.344 109.874 147.246 109.082 147.974C108.916 148.124 108.71 148.203 108.497 148.203Z" fill="#0F0F14"/>
<path d="M146.093 183.52H115.597C114.422 183.52 113.469 184.472 113.469 185.648V186.93C113.469 188.105 114.422 189.058 115.597 189.058H146.093C147.268 189.058 148.221 188.105 148.221 186.93V185.648C148.221 184.472 147.268 183.52 146.093 183.52Z" fill="#742DD2"/>
<path d="M146.167 189.912H115.529C113.923 189.912 112.609 188.607 112.609 186.993V185.568C112.609 183.962 113.915 182.648 115.529 182.648H146.167C147.773 182.648 149.087 183.954 149.087 185.568V186.993C149.087 188.599 147.781 189.912 146.167 189.912ZM115.529 184.381C114.872 184.381 114.334 184.919 114.334 185.576V187C114.334 187.657 114.872 188.195 115.529 188.195H146.167C146.824 188.195 147.362 187.657 147.362 187V185.576C147.362 184.919 146.824 184.381 146.167 184.381H115.529Z" fill="#0F0F14"/>
<path d="M105.554 183.52H73.7691C72.5936 183.52 71.6406 184.472 71.6406 185.648V186.93C71.6406 188.105 72.5936 189.058 73.7691 189.058H105.554C106.73 189.058 107.683 188.105 107.683 186.93V185.648C107.683 184.472 106.73 183.52 105.554 183.52Z" fill="#742DD2"/>
<path d="M105.629 189.912H73.701C72.0948 189.912 70.7812 188.607 70.7812 186.993V185.568C70.7812 183.962 72.0868 182.648 73.701 182.648H105.629C107.235 182.648 108.548 183.954 108.548 185.568V186.993C108.548 188.599 107.243 189.912 105.629 189.912ZM73.701 184.381C73.0443 184.381 72.5062 184.919 72.5062 185.576V187C72.5062 187.657 73.0443 188.195 73.701 188.195H105.629C106.285 188.195 106.823 187.657 106.823 187V185.576C106.823 184.919 106.285 184.381 105.629 184.381H73.701Z" fill="#0F0F14"/>
<path d="M142.859 174.845C142.859 174.845 133.902 174.702 128.577 177.511C128.577 177.511 123.671 174.916 120.332 175.628C116.993 176.34 114.785 178.54 114.785 178.54C114.785 178.54 113.97 176.799 114.397 175.802C114.825 174.805 122.183 171.292 128.363 175.304C128.363 175.304 135.113 172.748 141.601 173.064C141.601 173.064 142.614 173.776 142.859 174.845Z" fill="#742DD2"/>
<path d="M114.785 179.26C114.745 179.26 114.698 179.26 114.658 179.252C114.429 179.212 114.231 179.062 114.136 178.849C114.041 178.643 113.194 176.783 113.732 175.525C114.081 174.718 115.853 173.864 117.459 173.373C119.311 172.811 124.019 171.822 128.442 174.52C129.914 173.998 135.817 172.067 141.632 172.36C141.767 172.36 141.901 172.416 142.012 172.487C142.139 172.574 143.255 173.389 143.555 174.686C143.603 174.9 143.555 175.13 143.413 175.304C143.27 175.478 143.065 175.581 142.843 175.573C142.756 175.573 134.005 175.47 128.901 178.152C128.695 178.263 128.442 178.263 128.228 178.152C128.181 178.128 123.512 175.691 120.466 176.332C117.388 176.989 115.299 179.03 115.275 179.054C115.141 179.189 114.959 179.26 114.769 179.26H114.785ZM115.038 176.119C114.935 176.403 114.99 176.862 115.109 177.321C116.09 176.562 117.871 175.414 120.181 174.924C123.251 174.267 127.366 176.119 128.577 176.704C132.897 174.576 139.116 174.196 141.696 174.133C141.561 173.974 141.435 173.856 141.34 173.769C135.144 173.531 128.687 175.945 128.616 175.968C128.402 176.047 128.165 176.024 127.967 175.897C122.231 172.17 115.608 175.414 115.038 176.103V176.119Z" fill="#0F0F14"/>
<path d="M104.545 183.661C104.545 183.661 101.633 177.181 95.8015 176.579C89.9699 175.986 86.5121 177.94 86.0373 177.83C85.5625 177.727 80.9099 174.134 78.3145 173.707C78.3145 173.707 77.4995 172.14 79.0583 172.037C80.6171 171.935 86.4725 175.377 86.4725 175.377C86.4725 175.377 93.3407 172.821 99.2435 175.519C105.146 178.217 106.381 183.653 106.381 183.653H104.537L104.545 183.661Z" fill="#742DD2"/>
<path d="M106.385 184.38H104.541C104.256 184.38 104.003 184.213 103.884 183.96C103.845 183.881 101.052 177.844 95.7263 177.298C91.4772 176.863 88.5416 177.828 87.1331 178.295C86.4843 178.508 86.1915 178.603 85.875 178.54C85.6218 178.485 85.3527 178.311 84.3478 177.646C82.789 176.617 79.893 174.702 78.1918 174.426C77.9702 174.386 77.7803 174.251 77.6695 174.054C77.5746 173.872 77.1236 172.922 77.5667 172.123C77.7487 171.798 78.1522 171.395 79.0068 171.332C80.5893 171.221 85.0916 173.753 86.5476 174.6C88.0272 174.117 94.1121 172.392 99.5402 174.877C105.688 177.693 107.026 183.272 107.073 183.509C107.121 183.723 107.073 183.944 106.931 184.119C106.788 184.293 106.59 184.388 106.369 184.388L106.385 184.38ZM104.992 182.94H105.396C104.778 181.365 103.053 178.05 98.9546 176.174C93.4079 173.634 86.8008 176.024 86.7296 176.056C86.5238 176.127 86.3023 176.111 86.1124 176C83.3271 174.362 79.9484 172.708 79.1097 172.756C78.8881 172.772 78.8169 172.827 78.8169 172.827C78.8011 172.867 78.8169 172.97 78.8406 173.096C80.8188 173.595 83.4933 175.367 85.1391 176.451C85.5189 176.704 85.9383 176.981 86.1519 177.1C86.2864 177.06 86.4922 176.997 86.6821 176.934C88.1855 176.435 91.311 175.407 95.8687 175.874C101.21 176.42 104.201 181.436 104.984 182.947L104.992 182.94Z" fill="#0F0F14"/>
<g opacity="0.3">
<path d="M103.628 71.7365C103.628 71.7365 100.448 77.671 96.0402 79.847C90.7387 82.466 81.196 82.379 77.5324 78.2407C73.8609 74.1023 74.6997 64.3618 74.6997 64.3618C74.6759 60.6904 77.754 54.2653 88.7051 55.4126C99.6563 56.5599 104.918 58.5935 105.963 61.5924C107.007 64.5913 103.636 71.7365 103.636 71.7365H103.628Z" fill="white"/>
</g>
<path d="M86.1678 82.0624C82.52 81.8409 79.0859 80.7252 77.1631 78.5571C73.3967 74.308 74.1721 64.7178 74.2038 64.3064C74.2275 64.0373 74.4649 63.8395 74.7339 63.8633C75.003 63.887 75.2008 64.1244 75.177 64.3934C75.1691 64.4884 74.4016 73.9757 77.8911 77.9083C81.3252 81.7855 90.6226 81.9675 95.8212 79.4038C100.039 77.3227 103.164 71.5544 103.196 71.499C103.322 71.2616 103.623 71.1746 103.861 71.3012C104.098 71.4278 104.185 71.7285 104.058 71.9658C103.924 72.2111 100.751 78.0586 96.2564 80.2821C93.5186 81.6351 89.7443 82.284 86.1678 82.0624Z" fill="#0F0F14"/>
<g opacity="0.3">
<path d="M116.125 72.4881C116.125 72.4881 118.57 78.7629 122.685 81.4532C127.63 84.6895 137.117 85.7498 141.256 82.0862C145.394 78.4147 145.742 68.6426 145.742 68.6426C146.209 64.9948 143.922 58.2453 132.916 58.0712C121.909 57.8972 116.442 59.2819 115.041 62.1304C113.648 64.9869 116.133 72.4802 116.133 72.4802L116.125 72.4881Z" fill="white"/>
</g>
<path d="M149.054 63.5385L148.516 60.8798C148.469 60.6345 148.287 60.4367 148.041 60.3734C146.546 59.962 141.134 58.4665 137.834 57.6356C133.973 56.6703 124.707 56.1085 119.951 57.778C115.758 59.2577 111.667 59.0203 110.765 58.9412C110.765 58.9412 110.733 58.9412 110.67 58.9333C110.607 58.9333 110.575 58.9254 110.575 58.9254C109.673 58.9017 105.582 58.6405 101.594 56.6703C97.0759 54.4389 87.8023 53.8771 83.8617 54.3756C80.5384 54.795 75.1024 55.6021 73.4724 55.8474C73.1796 55.8948 72.9343 56.1006 72.8394 56.3775L72.0402 58.775C71.9136 59.1549 72.0956 59.5663 72.4517 59.7325C74.3349 60.6266 74.2162 63.3565 74.0263 64.7175C73.9709 65.1052 74.2241 65.485 74.6039 65.5562C75.0075 65.6353 75.3793 65.3742 75.4506 64.9865C75.6642 63.9262 76.2181 61.6869 77.4129 59.6138C79.0508 56.7731 84.9933 55.6654 92.3125 56.1085C99.6317 56.5516 103.802 60.4763 104.569 63.9499C105.163 66.6165 103.374 70.3038 102.52 71.8626C102.156 72.5194 102.702 73.3344 103.446 73.2078C103.469 73.2078 103.501 73.1999 103.525 73.1919C104.269 72.9941 106.816 67.2733 107.671 65.3584C108.518 63.4514 109.681 63.6809 110.488 63.7205C111.255 63.76 112.237 63.673 112.846 65.667C113.463 67.661 115.299 73.6509 116.019 73.9357C116.043 73.9437 116.066 73.9516 116.098 73.9595C116.818 74.181 117.451 73.4293 117.174 72.7409C116.509 71.0872 115.18 67.2179 116.09 64.6383C117.269 61.2834 121.882 57.8888 129.201 58.3319C136.521 58.775 142.289 60.5871 143.571 63.6097C144.512 65.8094 144.789 68.1041 144.876 69.1802C144.908 69.5442 145.193 69.8291 145.557 69.8528C145.984 69.8765 146.332 69.5363 146.324 69.1169C146.293 67.7243 146.506 64.9232 148.564 64.306C148.896 64.2031 149.102 63.8708 149.031 63.5306L149.054 63.5385Z" fill="#0F0F14"/>
<path d="M132.219 84.8464C128.642 84.6327 124.979 83.5328 122.415 81.8633C118.213 79.1176 115.768 72.9299 115.665 72.6687C115.57 72.4155 115.689 72.1307 115.942 72.0357C116.196 71.9408 116.48 72.0595 116.575 72.3127C116.599 72.376 119.012 78.4687 122.945 81.0483C127.796 84.2213 137.045 85.1549 140.923 81.7208C144.855 78.2314 145.235 68.7203 145.243 68.6254C145.251 68.3563 145.48 68.1427 145.749 68.1506C145.749 68.1506 145.757 68.1506 145.765 68.1506C146.026 68.1664 146.232 68.388 146.224 68.657C146.208 69.0685 145.821 78.6824 141.579 82.4488C139.411 84.3716 135.866 85.0679 132.219 84.8464Z" fill="#0F0F14"/>
<g opacity="0.39">
<path d="M82.9688 57.8807C82.9688 57.8807 96.0405 56.3773 100.772 60.8954C105.496 65.4135 99.6487 72.5587 99.6487 72.5587C99.6487 72.5587 100.836 65.548 96.0247 62.4779C91.2138 59.4078 82.9688 57.8728 82.9688 57.8728V57.8807Z" fill="#0F0F14"/>
</g>
<g opacity="0.39">
<path d="M123.961 59.6612C123.961 59.6612 135.996 58.1657 141.393 63.3485C146.109 67.8825 141.662 75.8584 141.662 75.8584C141.662 75.8584 141.052 68.555 136.645 64.931C131.652 60.8323 123.961 59.6533 123.961 59.6533V59.6612Z" fill="#0F0F14"/>
</g>
</g>
<defs>
<clipPath id="clip0_2001_1246">
<rect width="163.128" height="195" fill="white"/>
</clipPath>
</defs>
</svg>
