<svg width="51" height="51" viewBox="0 0 51 51" fill="none" xmlns="http://www.w3.org/2000/svg">
<path d="M36.125 29.75C36.6886 29.75 37.2291 29.5261 37.6276 29.1276C38.0261 28.7291 38.25 28.1886 38.25 27.625C38.25 27.0614 38.0261 26.5209 37.6276 26.1224C37.2291 25.7239 36.6886 25.5 36.125 25.5C35.5614 25.5 35.0209 25.7239 34.6224 26.1224C34.2239 26.5209 34 27.0614 34 27.625C34 28.1886 34.2239 28.7291 34.6224 29.1276C35.0209 29.5261 35.5614 29.75 36.125 29.75ZM36.125 38.25C36.6886 38.25 37.2291 38.0261 37.6276 37.6276C38.0261 37.2291 38.25 36.6886 38.25 36.125C38.25 35.5614 38.0261 35.0209 37.6276 34.6224C37.2291 34.2239 36.6886 34 36.125 34C35.5614 34 35.0209 34.2239 34.6224 34.6224C34.2239 35.0209 34 35.5614 34 36.125C34 36.6886 34.2239 37.2291 34.6224 37.6276C35.0209 38.0261 35.5614 38.25 36.125 38.25ZM27.625 27.625C27.625 28.1886 27.4011 28.7291 27.0026 29.1276C26.6041 29.5261 26.0636 29.75 25.5 29.75C24.9364 29.75 24.3959 29.5261 23.9974 29.1276C23.5989 28.7291 23.375 28.1886 23.375 27.625C23.375 27.0614 23.5989 26.5209 23.9974 26.1224C24.3959 25.7239 24.9364 25.5 25.5 25.5C26.0636 25.5 26.6041 25.7239 27.0026 26.1224C27.4011 26.5209 27.625 27.0614 27.625 27.625ZM27.625 36.125C27.625 36.6886 27.4011 37.2291 27.0026 37.6276C26.6041 38.0261 26.0636 38.25 25.5 38.25C24.9364 38.25 24.3959 38.0261 23.9974 37.6276C23.5989 37.2291 23.375 36.6886 23.375 36.125C23.375 35.5614 23.5989 35.0209 23.9974 34.6224C24.3959 34.2239 24.9364 34 25.5 34C26.0636 34 26.6041 34.2239 27.0026 34.6224C27.4011 35.0209 27.625 35.5614 27.625 36.125ZM14.875 29.75C15.4386 29.75 15.9791 29.5261 16.3776 29.1276C16.7761 28.7291 17 28.1886 17 27.625C17 27.0614 16.7761 26.5209 16.3776 26.1224C15.9791 25.7239 15.4386 25.5 14.875 25.5C14.3114 25.5 13.7709 25.7239 13.3724 26.1224C12.9739 26.5209 12.75 27.0614 12.75 27.625C12.75 28.1886 12.9739 28.7291 13.3724 29.1276C13.7709 29.5261 14.3114 29.75 14.875 29.75ZM14.875 38.25C15.4386 38.25 15.9791 38.0261 16.3776 37.6276C16.7761 37.2291 17 36.6886 17 36.125C17 35.5614 16.7761 35.0209 16.3776 34.6224C15.9791 34.2239 15.4386 34 14.875 34C14.3114 34 13.7709 34.2239 13.3724 34.6224C12.9739 35.0209 12.75 35.5614 12.75 36.125C12.75 36.6886 12.9739 37.2291 13.3724 37.6276C13.7709 38.0261 14.3114 38.25 14.875 38.25Z" fill="#7E58FF"/>
<path fill-rule="evenodd" clip-rule="evenodd" d="M14.8807 3.71875C15.3034 3.71875 15.7088 3.88666 16.0076 4.18555C16.3065 4.48443 16.4744 4.88981 16.4744 5.3125V6.93388C17.8812 6.90625 19.4303 6.90625 21.1346 6.90625H29.8747C31.5811 6.90625 33.1302 6.90625 34.5369 6.93388V5.3125C34.5369 4.88981 34.7048 4.48443 35.0037 4.18555C35.3026 3.88666 35.708 3.71875 36.1307 3.71875C36.5534 3.71875 36.9588 3.88666 37.2576 4.18555C37.5565 4.48443 37.7244 4.88981 37.7244 5.3125V7.06987C38.2769 7.11237 38.8004 7.16621 39.2948 7.23138C41.7853 7.56713 43.8019 8.27262 45.3936 9.86212C46.9831 11.4537 47.6886 13.4704 48.0243 15.9609C48.3494 18.3834 48.3494 21.4753 48.3494 25.381V29.869C48.3494 33.7747 48.3494 36.8688 48.0243 39.2891C47.6886 41.7796 46.9831 43.7962 45.3936 45.3879C43.8019 46.9774 41.7853 47.6829 39.2948 48.0186C36.8723 48.3438 33.7804 48.3438 29.8747 48.3438H21.1388C17.2331 48.3438 14.1391 48.3438 11.7187 48.0186C9.22819 47.6829 7.21156 46.9774 5.61994 45.3879C4.03044 43.7962 3.32494 41.7796 2.98919 39.2891C2.66406 36.8666 2.66406 33.7747 2.66406 29.869V25.381C2.66406 21.4753 2.66406 18.3813 2.98919 15.9609C3.32494 13.4704 4.03044 11.4537 5.61994 9.86212C7.21156 8.27262 9.22819 7.56713 11.7187 7.23138C12.2145 7.16621 12.738 7.11237 13.2891 7.06987V5.3125C13.2891 4.89018 13.4567 4.48512 13.7551 4.1863C14.0535 3.88747 14.4584 3.71931 14.8807 3.71875ZM12.1394 10.3912C10.0038 10.6781 8.77131 11.2179 7.87244 12.1168C6.97356 13.0156 6.43381 14.2481 6.14694 16.3837C6.09877 16.745 6.05769 17.1268 6.02369 17.5291H44.9877C44.9537 17.1268 44.9126 16.7443 44.8644 16.3816C44.5776 14.246 44.0378 13.0135 43.1389 12.1146C42.2401 11.2158 41.0076 10.676 38.8698 10.3891C36.6874 10.0959 33.8081 10.0916 29.7557 10.0916H21.2557C17.2033 10.0916 14.3261 10.098 12.1394 10.3912ZM5.84944 25.5C5.84944 23.6852 5.84944 22.1064 5.87706 20.7188H45.1343C45.1619 22.1064 45.1619 23.6852 45.1619 25.5V29.75C45.1619 33.8024 45.1577 36.6818 44.8644 38.8663C44.5776 41.0019 44.0378 42.2344 43.1389 43.1333C42.2401 44.0321 41.0076 44.5719 38.8698 44.8587C36.6874 45.152 33.8081 45.1562 29.7557 45.1562H21.2557C17.2033 45.1562 14.3261 45.152 12.1394 44.8587C10.0038 44.5719 8.77131 44.0321 7.87244 43.1333C6.97356 42.2344 6.43381 41.0019 6.14694 38.8641C5.85369 36.6817 5.84944 33.8024 5.84944 29.75V25.5Z" fill="#7E58FF"/>
</svg>
