<svg xmlns="http://www.w3.org/2000/svg" width="191" height="191" fill="none" xmlns:v="https://vecta.io/nano"><path d="M38.907 54.183c.091-5.313 1.521-10.518 4.158-15.132s6.396-8.486 10.929-11.259 9.691-4.357 14.997-4.604 10.589.85 15.359 3.19c3.816-3.675 8.495-6.33 13.605-7.721a31.54 31.54 0 0 1 29.469 7.069c3.924 3.558 6.889 8.047 8.622 13.053a31.54 31.54 0 0 1 15.159 4.129 31.55 31.55 0 0 1 11.288 10.931c2.78 4.538 4.368 9.706 4.616 15.023a31.58 31.58 0 0 1-3.199 15.389c3.673 3.816 6.327 8.496 7.716 13.609s1.469 10.492.234 15.644a31.57 31.57 0 0 1-7.306 13.836c-3.558 3.926-8.046 6.893-13.05 8.627a31.58 31.58 0 0 1-15.032 26.423 31.55 31.55 0 0 1-30.353 1.478 31.56 31.56 0 0 1-13.623 7.762 31.53 31.53 0 0 1-15.674.246c-5.162-1.238-9.928-3.759-13.857-7.33s-6.893-8.076-8.618-13.098a31.54 31.54 0 0 1-26.41-15.032c-2.781-4.528-4.374-9.684-4.631-14.992a31.58 31.58 0 0 1 3.159-15.372c-3.708-3.817-6.391-8.51-7.799-13.643s-1.495-10.539-.253-15.716 3.772-9.954 7.355-13.89a31.56 31.56 0 0 1 13.14-8.62z" fill="#e1ffcf" stroke="#7e58ff" stroke-width="6.526" stroke-linejoin="round"/><mask id="A" maskUnits="userSpaceOnUse" x="47.441" y="61.275" width="97.171" height="82.59" fill="#000"><path fill="#fff" d="M47.441 61.275h97.171v82.59H47.441z"/><path d="M50.181 80.211c.224.307.453.457.688.451.372-.01.611-.193.719-.549l2.538-14.461 1.409-.039 5.271 13.276.289.903.21-.916 4.59-13.549 1.35-.037 3.73 15.962-1.35.037-3.006-13.133-.172-.906-.239.917-4.39 13.337-1.379.038-5.118-13.046-.29-.932-2.146 12.688a2.17 2.17 0 0 1-.672 1.193c-.363.343-.779.521-1.248.534a2.12 2.12 0 0 1-1.213-.319c-.359-.245-.622-.551-.789-.918l1.219-.533zm32.909-1.172c.005.196.099.379.279.55s.369.254.565.249c.274-.008.495-.141.664-.4l1.077.705c-.335.636-.903.965-1.706.987-.548.015-1.022-.148-1.423-.489a2.19 2.19 0 0 1-.711-1.273c-.671 1.232-1.847 1.872-3.53 1.918-1.585.044-2.833-.49-3.745-1.6-.892-1.111-1.362-2.547-1.411-4.308-.049-1.78.4-3.252 1.347-4.413.946-1.181 2.261-1.795 3.943-1.842 1.056-.029 2.085.011 3.087.12l1.291-.036.271 9.831zm-1.529-8.592a18.59 18.59 0 0 1-1.47-.048l-1.588-.074c-1.33.037-2.345.515-3.044 1.435s-1.029 2.094-.989 3.522c.038 1.37.383 2.515 1.035 3.437s1.575 1.366 2.768 1.333c1.017-.028 1.85-.364 2.498-1.009.668-.645.987-1.476.959-2.493l-.168-6.104zm12.141-.335c-.61-.101-1.13-.145-1.56-.133-1.213.033-2.229.825-3.048 2.375l.232 8.393-1.291.036-.228-8.276c-.035-1.252-.373-2.183-1.017-2.791l.771-.785c.619.433 1.068 1.106 1.348 2.019.763-1.431 1.888-2.167 3.375-2.208.333-.009.794.037 1.384.138l.034 1.233zm14.332 8.063c-.024.549-.236 1.034-.635 1.457-.381.402-.845.611-1.393.626a1.99 1.99 0 0 1-1.816-.919l-2.363-3.665-3.991.11.13 4.696-1.291.036-.471-17.051 1.291-.036.206 7.454c.74-1.567 1.951-2.374 3.633-2.42 1.174-.032 2.092.246 2.755.834s1.028 1.44 1.098 2.554c-.036 1.528-.739 2.673-2.108 3.436l2.267 3.403c.181.171.379.254.595.248a.76.76 0 0 0 .551-.25c.152-.161.225-.339.22-.535l1.322.022zm-4.081-6.349c-.14-1.523-1.002-2.263-2.587-2.219-1.135.031-2.011.545-2.63 1.541-.619.977-.911 2.12-.874 3.431l2.73-.075c1.076-.03 1.882-.257 2.418-.683.556-.427.871-1.091.944-1.994zm15.907 6.199c.005.196.099.379.28.55s.369.254.564.249c.274-.008.496-.141.665-.4l1.077.705c-.335.636-.904.965-1.706.987-.548.015-1.022-.148-1.423-.489a2.19 2.19 0 0 1-.711-1.273c-.671 1.232-1.847 1.872-3.53 1.918-1.585.044-2.833-.49-3.745-1.6-.892-1.111-1.362-2.547-1.411-4.308-.049-1.78.4-3.252 1.347-4.413.946-1.181 2.261-1.795 3.943-1.842 1.057-.029 2.086.011 3.087.12l1.292-.036.271 9.831zm-1.529-8.592c-.313.009-.803-.007-1.47-.048l-1.588-.074c-1.33.037-2.345.515-3.044 1.435s-1.029 2.094-.99 3.522c.038 1.37.383 2.515 1.035 3.437s1.575 1.366 2.768 1.333c1.017-.028 1.85-.364 2.498-1.009.667-.645.987-1.476.959-2.493l-.168-6.104zm13.798 2.233c-.027-.978-.262-1.686-.705-2.125-.424-.439-1.105-.645-2.044-.619a3.69 3.69 0 0 0-1.662.428c-.502.268-.885.553-1.151.854a17.19 17.19 0 0 0-.936 1.201l.23 8.335-1.292.036-.228-8.276c-.035-1.252-.374-2.183-1.017-2.791l.771-.785c.678.432 1.128 1.144 1.352 2.136.976-1.515 2.276-2.295 3.9-2.34 2.641-.073 3.996 1.143 4.065 3.647l.175 6.339c.006.196.089.379.251.551.181.171.379.254.594.248a.81.81 0 0 0 .665-.371l1.076.675c-.394.637-.962.966-1.706.987-.587.016-1.091-.175-1.513-.575a2.04 2.04 0 0 1-.658-1.48l-.167-6.075zm8.215 7.909a2.04 2.04 0 0 1-1.514-.575c-.422-.4-.641-.893-.657-1.48l-.272-9.861 1.291-.036.272 9.861c.006.196.099.379.28.55s.369.254.565.249a.81.81 0 0 0 .665-.371l1.105.674c-.433.638-1.011.968-1.735.988zM61.075 94.527c-.006-.215-.079-.389-.22-.523a.68.68 0 0 0-.505-.192c-.235.007-.437.13-.607.369l-1.255-.788c.432-.658 1.03-.998 1.793-1.019.978-.027 1.666.404 2.062 1.294.124.251.191.523.199.817l.138 4.989 8.657-.239-.194-7.043 1.438-.04.443 16.053-1.438.039-.212-7.689-8.657.239.212 7.689-1.467.041-.386-13.999zm20.214 12.453c1.096-.03 2.308-.436 3.638-1.216l.644.98c-1.227.935-2.643 1.424-4.247 1.469-3.561.098-5.397-1.868-5.508-5.899-.047-1.702.373-3.152 1.26-4.352.887-1.219 2.103-1.85 3.648-1.892 1.233-.034 2.259.251 3.078.855.819.584 1.244 1.444 1.275 2.579.036 1.291-.428 2.244-1.39 2.858-.943.593-2.168.911-3.674.953l-2.759.076c.381 2.456 1.726 3.653 4.035 3.589zm-4.157-4.819l2.847-.079c2.563-.071 3.822-.918 3.777-2.542-.022-.802-.312-1.391-.871-1.767-.54-.396-1.25-.582-2.13-.558-1.154.032-2.06.546-2.718 1.543-.639.977-.94 2.111-.905 3.403zm18.763-2.486c-.052-1.878-.88-2.795-2.484-2.751-.978.027-1.885.502-2.721 1.426-.208.26-.395.588-.56.985l.232 8.393-1.291.036-.228-8.276c-.035-1.252-.373-2.183-1.017-2.791l.771-.785c.66.51 1.1 1.184 1.319 2.019.335-.636.81-1.158 1.425-1.567.635-.409 1.363-.625 2.185-.648 1.683-.046 2.798.647 3.347 2.081.86-1.473 2.043-2.23 3.55-2.271 1.154-.032 2.063.266 2.727.894.683.627 1.04 1.518 1.072 2.672l.177 6.398c.006.215.099.408.28.579.18.152.368.225.564.22.293-.008.525-.132.695-.372l1.076.675a1.98 1.98 0 0 1-1.735.988 2.04 2.04 0 0 1-1.514-.575c-.422-.4-.641-.893-.658-1.48l-.175-6.368c-.063-.84-.285-1.461-.669-1.861s-.975-.59-1.777-.568c-1.429.039-2.532.843-3.311 2.412l.232 8.393-1.291.035-.218-7.894zm18.41 6.394c1.095-.03 2.308-.436 3.637-1.216l.644.98c-1.227.935-2.643 1.424-4.247 1.469-3.561.098-5.397-1.868-5.508-5.899-.047-1.702.373-3.152 1.26-4.352.887-1.219 2.103-1.85 3.648-1.892 1.233-.034 2.259.251 3.078.855.819.584 1.244 1.444 1.276 2.579.035 1.291-.428 2.244-1.39 2.857-.943.594-2.168.912-3.674.954l-2.759.076c.381 2.456 1.726 3.653 4.035 3.589zm-4.157-4.819l2.847-.079c2.563-.071 3.822-.918 3.777-2.542-.022-.802-.312-1.391-.871-1.767-.54-.396-1.25-.582-2.13-.558-1.154.032-2.06.546-2.718 1.543-.639.977-.94 2.111-.905 3.403zm19.086-2.495c-.027-.978-.262-1.686-.705-2.125-.424-.439-1.105-.645-2.044-.619a3.69 3.69 0 0 0-1.662.428c-.502.268-.885.553-1.151.854a17.19 17.19 0 0 0-.936 1.201l.23 8.335-1.292.035-.228-8.276c-.035-1.252-.373-2.183-1.017-2.791l.771-.785c.678.432 1.128 1.144 1.352 2.136.976-1.515 2.276-2.295 3.9-2.34 2.641-.073 3.996 1.143 4.066 3.647l.174 6.339c.006.196.089.38.251.552.181.171.379.253.594.247.274-.007.495-.131.665-.37l1.076.675c-.394.637-.962.966-1.706.987a2.04 2.04 0 0 1-2.171-2.055l-.167-6.075zm-64.849 21.692c-.313.009-.584.134-.812.375a1.08 1.08 0 0 0-.301.802l-1.321.036c-.029-1.056.449-1.833 1.434-2.33.29-.126.592-.193.905-.202l5.224-.144c2.152-.059 3.643.742 4.472 2.403a4.21 4.21 0 0 1 .4 1.721c.038 1.39-.529 2.463-1.703 3.219-.019.02-.135.073-.348.157l-.349.127c.08.056.208.082.384.077l.356.137c1.668.855 2.527 2.173 2.576 3.953.03 1.096-.238 2.013-.805 2.754-.547.739-1.296 1.279-2.246 1.618-.679.234-1.576.367-2.691.397s-2.134.02-3.055-.033l-1.266-.112-.413-14.967-.44.012zm7.712 4.869c.612-.546.905-1.278.879-2.198s-.319-1.626-.881-2.12-1.302-.727-2.222-.702l-3.61.1.383 13.881 1.526-.042c.196-.006.382-.001.559.014.196-.006.352 0 .47.016l.205-.006c3.072-.084 4.577-1.252 4.514-3.502-.029-1.056-.434-1.877-1.213-2.463-.761-.605-1.699-.893-2.814-.862l-2.23.062-.036-1.291 2.054-.057c.998-.028 1.803-.304 2.415-.83zm9.198-5.805c.008.274-.094.512-.303.713-.191.182-.423.276-.697.284s-.511-.084-.712-.274a.98.98 0 0 1-.283-.668c-.008-.274.074-.511.245-.712.19-.22.422-.334.695-.342.293-.008.541.083.742.273s.306.432.314.726zm5.194-.143a.96.96 0 0 1-.274.712c-.191.182-.423.276-.697.284-.254.007-.492-.085-.712-.274a.93.93 0 0 1-.312-.667.96.96 0 0 1 .274-.713c.209-.221.441-.335.695-.342a.9.9 0 0 1 .712.274c.201.171.305.413.314.726zm1.608 13.583c.005.195.099.379.279.55s.369.254.565.249a.81.81 0 0 0 .665-.371l1.106.704c-.453.619-1.031.939-1.736.958a2 2 0 0 1-1.484-.576c-.403-.4-.631-.883-.686-1.449-.942 1.357-2.195 2.057-3.76 2.101-2.504.069-3.846-1.03-4.026-3.296l-.163-5.899c-.008-.293-.163-.602-.466-.927-.303-.344-.594-.6-.873-.769l.675-1.076c.837.545 1.422 1.155 1.754 1.831.125.291.192.592.201.905l.146 5.283c.026.959.252 1.667.675 2.125.443.438 1.124.645 2.044.619.841-.023 1.55-.248 2.125-.675.594-.486 1.145-1.079 1.654-1.779l-.231-8.363 1.262-.035.273 9.89zm5.405-7.433c-.014-.489-.46-1.055-1.339-1.696l.675-1.076c.856.525 1.431 1.135 1.725 1.832.144.27.221.572.231.904l.146 5.283c.052 1.878.958 2.793 2.719 2.744.92-.025 1.763-.332 2.53-.921.766-.609 1.177-1.335 1.232-2.178l-.213-7.719 1.262-.034.4 14.497c.034 1.233-.263 2.2-.889 2.903-.607.721-1.487 1.098-2.642 1.13-.978.027-1.79-.313-2.436-1.019-.626-.688-.953-1.541-.981-2.558-.038-1.389.327-2.349 1.095-2.879-2.178-.155-3.295-1.26-3.351-3.314l-.163-5.899zm5.802 14.436c.763-.021 1.343-.281 1.741-.782.417-.481.615-1.113.594-1.896l-.117-4.226-.258.242c-.324.322-1.122.844-2.394 1.564-.598.33-1.038.685-1.322 1.065-.263.398-.385.94-.366 1.625s.221 1.257.605 1.716a1.78 1.78 0 0 0 1.517.692zm9.646-21.206c.008.274-.093.511-.303.713-.191.182-.423.276-.697.284s-.512-.084-.713-.274c-.181-.191-.275-.414-.282-.668a1.02 1.02 0 0 1 .244-.712c.19-.22.422-.334.696-.342.293-.008.54.083.741.273a.99.99 0 0 1 .314.726zm5.195-.144c.007.274-.084.512-.274.713-.191.181-.424.276-.697.283-.255.007-.492-.084-.713-.274-.201-.19-.305-.412-.312-.666a.96.96 0 0 1 .274-.713c.209-.221.441-.335.695-.342.294-.008.531.083.713.274.2.171.305.412.314.725zm1.608 13.584c.005.195.099.379.279.55s.37.254.565.249c.274-.008.496-.132.666-.371l1.106.704c-.453.619-1.032.938-1.736.958a2 2 0 0 1-1.484-.576c-.403-.4-.632-.883-.687-1.449-.941 1.357-2.194 2.057-3.76 2.1-2.504.069-3.846-1.029-4.026-3.295l-.163-5.899c-.008-.294-.163-.603-.466-.927-.303-.344-.594-.6-.873-.769l.675-1.076c.838.545 1.422 1.155 1.754 1.831a2.41 2.41 0 0 1 .201.905l.146 5.283c.027.958.252 1.667.676 2.125.442.438 1.124.645 2.043.619.842-.023 1.55-.248 2.126-.675.593-.487 1.145-1.079 1.654-1.779l-.231-8.364 1.262-.034.273 9.89zm7.835 1.869c-1.956.054-2.968-1.113-3.033-3.5l-.312-11.298 1.291-.036.082 2.964 3.698-.102.035 1.291-3.697.102.194 7.044c.043 1.565.652 2.331 1.826 2.299.41-.012.808-.16 1.191-.444.384-.305.678-.636.883-.994l.959.679c-.63 1.29-1.669 1.955-3.117 1.995zm6.817-4.153l-1.321.036-.588-12.789 1.79-.049.119 12.802zm-1.776 2.692c-.009-.313.091-.58.3-.801.229-.242.499-.367.812-.375a1.03 1.03 0 0 1 .803.33c.24.209.365.47.374.783s-.102.58-.331.802c-.209.221-.47.336-.783.344s-.59-.091-.831-.3c-.221-.229-.336-.49-.344-.783z"/></mask><path d="M50.181 80.211c.224.307.453.457.688.451.372-.01.611-.193.719-.549l2.538-14.461 1.409-.039 5.271 13.276.289.903.21-.916 4.59-13.549 1.35-.037 3.73 15.962-1.35.037-3.006-13.133-.172-.906-.239.917-4.39 13.337-1.379.038-5.118-13.046-.29-.932-2.146 12.688a2.17 2.17 0 0 1-.672 1.193c-.363.343-.779.521-1.248.534a2.12 2.12 0 0 1-1.213-.319c-.359-.245-.622-.551-.789-.918l1.219-.533zm32.909-1.172c.005.196.099.379.279.55s.369.254.565.249c.274-.008.495-.141.664-.4l1.077.705c-.335.636-.903.965-1.706.987-.548.015-1.022-.148-1.423-.489a2.19 2.19 0 0 1-.711-1.273c-.671 1.232-1.847 1.872-3.53 1.918-1.585.044-2.833-.49-3.745-1.6-.892-1.111-1.362-2.547-1.411-4.308-.049-1.78.4-3.252 1.347-4.413.946-1.181 2.261-1.795 3.943-1.842 1.056-.029 2.085.011 3.087.12l1.291-.036.271 9.831zm-1.529-8.592a18.59 18.59 0 0 1-1.47-.048l-1.588-.074c-1.33.037-2.345.515-3.044 1.435s-1.029 2.094-.989 3.522c.038 1.37.383 2.515 1.035 3.437s1.575 1.366 2.768 1.333c1.017-.028 1.85-.364 2.498-1.009.668-.645.987-1.476.959-2.493l-.168-6.104zm12.141-.335c-.61-.101-1.13-.145-1.56-.133-1.213.033-2.229.825-3.048 2.375l.232 8.393-1.291.036-.228-8.276c-.035-1.252-.373-2.183-1.017-2.791l.771-.785c.619.433 1.068 1.106 1.348 2.019.763-1.431 1.888-2.167 3.375-2.208.333-.009.794.037 1.384.138l.034 1.233zm14.332 8.063c-.024.549-.236 1.034-.635 1.457-.381.402-.845.611-1.393.626a1.99 1.99 0 0 1-1.816-.919l-2.363-3.665-3.991.11.13 4.696-1.291.036-.471-17.051 1.291-.036.206 7.454c.74-1.567 1.951-2.374 3.633-2.42 1.174-.032 2.092.246 2.755.834s1.028 1.44 1.098 2.554c-.036 1.528-.739 2.673-2.108 3.436l2.267 3.403c.181.171.379.254.595.248a.76.76 0 0 0 .551-.25c.152-.161.225-.339.22-.535l1.322.022zm-4.081-6.349c-.14-1.523-1.002-2.263-2.587-2.219-1.135.031-2.011.545-2.63 1.541-.619.977-.911 2.12-.874 3.431l2.73-.075c1.076-.03 1.882-.257 2.418-.683.556-.427.871-1.091.944-1.994zm15.907 6.199c.005.196.099.379.28.55s.369.254.564.249c.274-.008.496-.141.665-.4l1.077.705c-.335.636-.904.965-1.706.987-.548.015-1.022-.148-1.423-.489a2.19 2.19 0 0 1-.711-1.273c-.671 1.232-1.847 1.872-3.53 1.918-1.585.044-2.833-.49-3.745-1.6-.892-1.111-1.362-2.547-1.411-4.308-.049-1.78.4-3.252 1.347-4.413.946-1.181 2.261-1.795 3.943-1.842 1.057-.029 2.086.011 3.087.12l1.292-.036.271 9.831zm-1.529-8.592c-.313.009-.803-.007-1.47-.048l-1.588-.074c-1.33.037-2.345.515-3.044 1.435s-1.029 2.094-.99 3.522c.038 1.37.383 2.515 1.035 3.437s1.575 1.366 2.768 1.333c1.017-.028 1.85-.364 2.498-1.009.667-.645.987-1.476.959-2.493l-.168-6.104zm13.798 2.233c-.027-.978-.262-1.686-.705-2.125-.424-.439-1.105-.645-2.044-.619a3.69 3.69 0 0 0-1.662.428c-.502.268-.885.553-1.151.854a17.19 17.19 0 0 0-.936 1.201l.23 8.335-1.292.036-.228-8.276c-.035-1.252-.374-2.183-1.017-2.791l.771-.785c.678.432 1.128 1.144 1.352 2.136.976-1.515 2.276-2.295 3.9-2.34 2.641-.073 3.996 1.143 4.065 3.647l.175 6.339c.006.196.089.379.251.551.181.171.379.254.594.248a.81.81 0 0 0 .665-.371l1.076.675c-.394.637-.962.966-1.706.987-.587.016-1.091-.175-1.513-.575a2.04 2.04 0 0 1-.658-1.48l-.167-6.075zm8.215 7.909a2.04 2.04 0 0 1-1.514-.575c-.422-.4-.641-.893-.657-1.48l-.272-9.861 1.291-.036.272 9.861c.006.196.099.379.28.55s.369.254.565.249a.81.81 0 0 0 .665-.371l1.105.674c-.433.638-1.011.968-1.735.988zM61.075 94.527c-.006-.215-.079-.389-.22-.523a.68.68 0 0 0-.505-.192c-.235.007-.437.13-.607.369l-1.255-.788c.432-.658 1.03-.998 1.793-1.019.978-.027 1.666.404 2.062 1.294.124.251.191.523.199.817l.138 4.989 8.657-.239-.194-7.043 1.438-.04.443 16.053-1.438.039-.212-7.689-8.657.239.212 7.689-1.467.041-.386-13.999zm20.214 12.453c1.096-.03 2.308-.436 3.638-1.216l.644.98c-1.227.935-2.643 1.424-4.247 1.469-3.561.098-5.397-1.868-5.508-5.899-.047-1.702.373-3.152 1.26-4.352.887-1.219 2.103-1.85 3.648-1.892 1.233-.034 2.259.251 3.078.855.819.584 1.244 1.444 1.275 2.579.036 1.291-.428 2.244-1.39 2.858-.943.593-2.168.911-3.674.953l-2.759.076c.381 2.456 1.726 3.653 4.035 3.589zm-4.157-4.819l2.847-.079c2.563-.071 3.822-.918 3.777-2.542-.022-.802-.312-1.391-.871-1.767-.54-.396-1.25-.582-2.13-.558-1.154.032-2.06.546-2.718 1.543-.639.977-.94 2.111-.905 3.403zm18.763-2.486c-.052-1.878-.88-2.795-2.484-2.751-.978.027-1.885.502-2.721 1.426-.208.26-.395.588-.56.985l.232 8.393-1.291.036-.228-8.276c-.035-1.252-.373-2.183-1.017-2.791l.771-.785c.66.51 1.1 1.184 1.319 2.019.335-.636.81-1.158 1.425-1.567.635-.409 1.363-.625 2.185-.648 1.683-.046 2.798.647 3.347 2.081.86-1.473 2.043-2.23 3.55-2.271 1.154-.032 2.063.266 2.727.894.683.627 1.04 1.518 1.072 2.672l.177 6.398c.006.215.099.408.28.579.18.152.368.225.564.22.293-.008.525-.132.695-.372l1.076.675a1.98 1.98 0 0 1-1.735.988 2.04 2.04 0 0 1-1.514-.575c-.422-.4-.641-.893-.658-1.48l-.175-6.368c-.063-.84-.285-1.461-.669-1.861s-.975-.59-1.777-.568c-1.429.039-2.532.843-3.311 2.412l.232 8.393-1.291.035-.218-7.894zm18.41 6.394c1.095-.03 2.308-.436 3.637-1.216l.644.98c-1.227.935-2.643 1.424-4.247 1.469-3.561.098-5.397-1.868-5.508-5.899-.047-1.702.373-3.152 1.26-4.352.887-1.219 2.103-1.85 3.648-1.892 1.233-.034 2.259.251 3.078.855.819.584 1.244 1.444 1.276 2.579.035 1.291-.428 2.244-1.39 2.857-.943.594-2.168.912-3.674.954l-2.759.076c.381 2.456 1.726 3.653 4.035 3.589zm-4.157-4.819l2.847-.079c2.563-.071 3.822-.918 3.777-2.542-.022-.802-.312-1.391-.871-1.767-.54-.396-1.25-.582-2.13-.558-1.154.032-2.06.546-2.718 1.543-.639.977-.94 2.111-.905 3.403zm19.086-2.495c-.027-.978-.262-1.686-.705-2.125-.424-.439-1.105-.645-2.044-.619a3.69 3.69 0 0 0-1.662.428c-.502.268-.885.553-1.151.854a17.19 17.19 0 0 0-.936 1.201l.23 8.335-1.292.035-.228-8.276c-.035-1.252-.373-2.183-1.017-2.791l.771-.785c.678.432 1.128 1.144 1.352 2.136.976-1.515 2.276-2.295 3.9-2.34 2.641-.073 3.996 1.143 4.066 3.647l.174 6.339c.006.196.089.38.251.552.181.171.379.253.594.247.274-.007.495-.131.665-.37l1.076.675c-.394.637-.962.966-1.706.987a2.04 2.04 0 0 1-2.171-2.055l-.167-6.075zm-64.849 21.692c-.313.009-.584.134-.812.375a1.08 1.08 0 0 0-.301.802l-1.321.036c-.029-1.056.449-1.833 1.434-2.33.29-.126.592-.193.905-.202l5.224-.144c2.152-.059 3.643.742 4.472 2.403a4.21 4.21 0 0 1 .4 1.721c.038 1.39-.529 2.463-1.703 3.219-.019.02-.135.073-.348.157l-.349.127c.08.056.208.082.384.077l.356.137c1.668.855 2.527 2.173 2.576 3.953.03 1.096-.238 2.013-.805 2.754-.547.739-1.296 1.279-2.246 1.618-.679.234-1.576.367-2.691.397s-2.134.02-3.055-.033l-1.266-.112-.413-14.967-.44.012zm7.712 4.869c.612-.546.905-1.278.879-2.198s-.319-1.626-.881-2.12-1.302-.727-2.222-.702l-3.61.1.383 13.881 1.526-.042c.196-.006.382-.001.559.014.196-.006.352 0 .47.016l.205-.006c3.072-.084 4.577-1.252 4.514-3.502-.029-1.056-.434-1.877-1.213-2.463-.761-.605-1.699-.893-2.814-.862l-2.23.062-.036-1.291 2.054-.057c.998-.028 1.803-.304 2.415-.83zm9.198-5.805c.008.274-.094.512-.303.713-.191.182-.423.276-.697.284s-.511-.084-.712-.274a.98.98 0 0 1-.283-.668c-.008-.274.074-.511.245-.712.19-.22.422-.334.695-.342.293-.008.541.083.742.273s.306.432.314.726zm5.194-.143a.96.96 0 0 1-.274.712c-.191.182-.423.276-.697.284-.254.007-.492-.085-.712-.274a.93.93 0 0 1-.312-.667.96.96 0 0 1 .274-.713c.209-.221.441-.335.695-.342a.9.9 0 0 1 .712.274c.201.171.305.413.314.726zm1.608 13.583c.005.195.099.379.279.55s.369.254.565.249a.81.81 0 0 0 .665-.371l1.106.704c-.453.619-1.031.939-1.736.958a2 2 0 0 1-1.484-.576c-.403-.4-.631-.883-.686-1.449-.942 1.357-2.195 2.057-3.76 2.101-2.504.069-3.846-1.03-4.026-3.296l-.163-5.899c-.008-.293-.163-.602-.466-.927-.303-.344-.594-.6-.873-.769l.675-1.076c.837.545 1.422 1.155 1.754 1.831.125.291.192.592.201.905l.146 5.283c.026.959.252 1.667.675 2.125.443.438 1.124.645 2.044.619.841-.023 1.55-.248 2.125-.675.594-.486 1.145-1.079 1.654-1.779l-.231-8.363 1.262-.035.273 9.89zm5.405-7.433c-.014-.489-.46-1.055-1.339-1.696l.675-1.076c.856.525 1.431 1.135 1.725 1.832.144.27.221.572.231.904l.146 5.283c.052 1.878.958 2.793 2.719 2.744.92-.025 1.763-.332 2.53-.921.766-.609 1.177-1.335 1.232-2.178l-.213-7.719 1.262-.034.4 14.497c.034 1.233-.263 2.2-.889 2.903-.607.721-1.487 1.098-2.642 1.13-.978.027-1.79-.313-2.436-1.019-.626-.688-.953-1.541-.981-2.558-.038-1.389.327-2.349 1.095-2.879-2.178-.155-3.295-1.26-3.351-3.314l-.163-5.899zm5.802 14.436c.763-.021 1.343-.281 1.741-.782.417-.481.615-1.113.594-1.896l-.117-4.226-.258.242c-.324.322-1.122.844-2.394 1.564-.598.33-1.038.685-1.322 1.065-.263.398-.385.94-.366 1.625s.221 1.257.605 1.716a1.78 1.78 0 0 0 1.517.692zm9.646-21.206c.008.274-.093.511-.303.713-.191.182-.423.276-.697.284s-.512-.084-.713-.274c-.181-.191-.275-.414-.282-.668a1.02 1.02 0 0 1 .244-.712c.19-.22.422-.334.696-.342.293-.008.54.083.741.273a.99.99 0 0 1 .314.726zm5.195-.144c.007.274-.084.512-.274.713-.191.181-.424.276-.697.283-.255.007-.492-.084-.713-.274-.201-.19-.305-.412-.312-.666a.96.96 0 0 1 .274-.713c.209-.221.441-.335.695-.342.294-.008.531.083.713.274.2.171.305.412.314.725zm1.608 13.584c.005.195.099.379.279.55s.37.254.565.249c.274-.008.496-.132.666-.371l1.106.704c-.453.619-1.032.938-1.736.958a2 2 0 0 1-1.484-.576c-.403-.4-.632-.883-.687-1.449-.941 1.357-2.194 2.057-3.76 2.1-2.504.069-3.846-1.029-4.026-3.295l-.163-5.899c-.008-.294-.163-.603-.466-.927-.303-.344-.594-.6-.873-.769l.675-1.076c.838.545 1.422 1.155 1.754 1.831a2.41 2.41 0 0 1 .201.905l.146 5.283c.027.958.252 1.667.676 2.125.442.438 1.124.645 2.043.619.842-.023 1.55-.248 2.126-.675.593-.487 1.145-1.079 1.654-1.779l-.231-8.364 1.262-.034.273 9.89zm7.835 1.869c-1.956.054-2.968-1.113-3.033-3.5l-.312-11.298 1.291-.036.082 2.964 3.698-.102.035 1.291-3.697.102.194 7.044c.043 1.565.652 2.331 1.826 2.299.41-.012.808-.16 1.191-.444.384-.305.678-.636.883-.994l.959.679c-.63 1.29-1.669 1.955-3.117 1.995zm6.817-4.153l-1.321.036-.588-12.789 1.79-.049.119 12.802zm-1.776 2.692c-.009-.313.091-.58.3-.801.229-.242.499-.367.812-.375a1.03 1.03 0 0 1 .803.33c.24.209.365.47.374.783s-.102.58-.331.802c-.209.221-.47.336-.783.344s-.59-.091-.831-.3c-.221-.229-.336-.49-.344-.783z" fill="#000"/><path d="M50.181 80.211l.435-.317-.255-.349-.396.173.216.493zm1.407-.098l.515.156.009-.031.006-.032-.53-.093zm2.538-14.461l-.015-.538-.439.012-.076.433.53.093zm1.409-.039l.5-.199-.139-.35-.376.01.015.538zm5.271 13.276l.513-.164-.006-.017-.007-.017-.5.199zm.289.903l-.513.164.599 1.87.438-1.914-.525-.12zm.21-.916l-.51-.173-.009.026-.006.027.525.12zm4.59-13.549l-.015-.538-.375.01-.12.355.51.173zm1.35-.037l.524-.123-.1-.428-.439.012.015.538zm3.73 15.962l.015.538.66-.018-.15-.643-.524.123zm-1.35.037l-.525.12.099.43.441-.012-.015-.538zm-3.006-13.133l-.529.1.002.01.002.01.525-.12zm-.172-.906l.529-.1-1.05-.035.521.136zm-.239.917l.511.168.005-.016.004-.016-.521-.136zm-4.39 13.337l.015.538.378-.01.118-.359-.511-.168zm-1.379.038l-.501.197.138.352.378-.01-.015-.538zm-5.118-13.046l-.514.16.006.019.007.018.501-.197zm-.29-.932l.514-.16-1.045.07.531.09zm-2.146 12.688l.529.1.002-.01-.531-.09zm-.672 1.193l.37.391-.37-.391zm-2.461.215l-.303.445.008.006.009.005.286-.456zm-.789-.918l-.216-.493-.5.219.226.497.49-.223zm.784-.216c.262.36.638.686 1.138.672l-.03-1.076c.01 0 0 .005-.038-.02-.044-.029-.113-.09-.2-.21l-.87.634zm1.138.672c.272-.008.541-.08.77-.255s.37-.415.449-.676l-1.03-.312c-.029.095-.061.124-.072.132s-.047.032-.147.035l.03 1.076zm1.234-.994l2.538-14.461-1.061-.186-2.538 14.461 1.06.186zm2.023-14.016l1.409-.039-.03-1.076-1.409.039.03 1.076zm.893-.378l5.271 13.276 1.001-.397-5.271-13.276-1.001.397zm5.259 13.242l.289.902 1.025-.329-.289-.903-1.025.329zm1.327.858l.21-.916-1.05-.24-.21.916 1.05.24zm.195-.864l4.59-13.549-1.02-.346-4.59 13.549 1.02.346zm4.094-13.183l1.35-.037-.03-1.076-1.35.037.03 1.076zm.811-.453l3.73 15.962 1.049-.245-3.73-15.962-1.049.245zm4.239 15.301l-1.35.037.03 1.076 1.35-.037-.03-1.076zm-.81.455l-3.006-13.133-1.05.24 3.006 13.133 1.05-.24zm-3.002-13.114l-.172-.906-1.058.201.172.906 1.058-.201zm-1.222-.941l-.239.917 1.042.272.239-.917-1.042-.272zm-.229.884l-4.39 13.337 1.023.337 4.39-13.337L65.696 68zm-3.893 12.968l-1.379.038.03 1.076 1.379-.038-.03-1.076zm-.863.38l-5.118-13.046-1.002.393 5.118 13.046 1.002-.393zm-5.105-13.009l-.29-.932-1.028.32.29.932 1.028-.32zm-1.335-.862l-2.146 12.688 1.062.18 2.146-12.688-1.062-.18zm-2.145 12.678c-.063.332-.225.63-.513.902l.74.782c.438-.414.723-.911.831-1.485l-1.058-.2zm-.513.902c-.273.258-.565.378-.893.387l.03 1.076a2.38 2.38 0 0 0 1.603-.681l-.74-.782zm-.893.387c-.351.01-.649-.072-.912-.237l-.572.912c.454.285.965.416 1.514.401l-.03-1.076zm-.895-.226c-.284-.194-.479-.425-.602-.696l-.98.445a2.74 2.74 0 0 0 .976 1.14l.606-.89zm-.876.02l1.219-.533-.431-.987-1.219.533.431.987zm34.192-1.648l-.37.391h0l.37-.391zm1.229-.151l.295-.45-.451-.295-.294.452.451.294zm1.077.705l.476.251.228-.433-.41-.268-.295.451zm-3.129.497l-.359.401.01.009.349-.41zm-.711-1.273l.53-.096-.273-1.5-.729 1.34.473.257zm-7.275.318l-.42.337.004.005.416-.342zm-.064-8.721l.417.34.003-.003-.42-.337zm7.031-1.721l-.059.535.037.004.037-.001-.015-.538zm1.291-.036l.538-.015-.015-.538-.538.015.015.538zm-1.258 1.239l.538-.015-.015-.538-.538.015.015.538zm-1.47-.048l-.05.536.009.001h.009l.032-.537zm-4.632 1.361l-.429-.326.429.326zm.045 6.959l.44-.311-.44.311zm5.266.325l-.374-.387-.005.005.38.382zm1.782.01c.01.375.193.685.448.927l.74-.782c-.107-.101-.111-.157-.111-.174l-1.076.03zm.448.927c.255.241.575.406.95.396l-.03-1.076c-.017 0-.073-.001-.18-.102l-.74.782zm.95.396c.475-.013.85-.259 1.101-.644l-.902-.588c-.087.133-.156.154-.228.156l.03 1.076zm.355-.488l1.077.705.59-.901-1.077-.704-.59.901zm.895.003c-.232.441-.609.682-1.244.7l.03 1.076c.969-.027 1.729-.443 2.167-1.274l-.953-.502zm-1.244.7c-.421.012-.764-.11-1.059-.361l-.698.82a2.57 2.57 0 0 0 1.787.618l-.03-1.076zm-1.049-.352a1.65 1.65 0 0 1-.54-.968l-1.059.193a2.73 2.73 0 0 0 .881 1.577l.719-.802zm-1.543-1.129c-.559 1.028-1.536 1.595-3.072 1.637l.03 1.076c1.829-.05 3.206-.762 3.988-2.199l-.946-.515zm-3.072 1.637c-1.438.04-2.52-.436-3.314-1.403l-.832.683c1.029 1.254 2.444 1.844 4.176 1.797l-.03-1.076zm-3.31-1.399c-.803-.999-1.247-2.314-1.293-3.986l-1.076.03c.051 1.85.548 3.407 1.529 4.63l.84-.674zm-1.293-3.986c-.046-1.677.375-3.015 1.226-4.058l-.835-.68c-1.043 1.28-1.52 2.884-1.468 4.768l1.076-.03zm1.229-4.062c.836-1.043 1.994-1.598 3.538-1.64l-.03-1.076c-1.821.05-3.292.724-4.349 2.043l.84.673zm3.538-1.64a22.12 22.12 0 0 1 3.014.117l.117-1.07a23.19 23.19 0 0 0-3.16-.123l.03 1.076zm3.087.12l1.291-.036-.03-1.076-1.291.036.03 1.076zm.738-.559l.271 9.831 1.076-.03-.271-9.831-1.076.03zm-.735.686c-.288.008-.758-.007-1.422-.047l-.065 1.075 1.517.048-.03-1.076zm-1.405-.045l-1.653-.076.03 1.076a13.18 13.18 0 0 1 1.523.072l.1-1.072zm-1.653-.076c-1.466.04-2.645.577-3.458 1.647l.857.651c.585-.769 1.435-1.19 2.63-1.222l-.03-1.076zm-3.458 1.647c-.79 1.039-1.141 2.342-1.099 3.863l1.076-.03c-.037-1.335.272-2.381.88-3.182l-.857-.651zm-1.099 3.863c.04 1.453.408 2.707 1.133 3.733l.879-.622c-.579-.818-.901-1.855-.936-3.141l-1.076.03zm1.133 3.733c.763 1.079 1.862 1.598 3.223 1.561l-.03-1.076c-1.026.028-1.773-.341-2.314-1.106l-.879.622zm3.223 1.561c1.138-.031 2.106-.413 2.863-1.165l-.759-.763c-.539.536-1.236.828-2.133.852l.03 1.076zm2.857-1.16c.787-.761 1.155-1.743 1.123-2.896l-1.076.03c.024.883-.248 1.562-.795 2.091l.748.774zm1.123-2.896l-.168-6.104-1.076.03.169 6.104 1.076-.03zm11.434-6.424l-.088.531.644.106-.018-.652-.538.015zm-4.608 2.242l-.476-.252-.066.125.004.141.538-.015zm.232 8.393l.015.538.538-.015-.015-.538-.538.015zm-1.291.036l-.538.015.015.538.538-.015-.015-.538zm-1.245-11.067l-.384-.377-.385.391.398.377.37-.391zm.771-.785l.309-.441-.373-.261-.319.325.384.377zm1.348 2.019l-.515.158.38 1.239.61-1.143-.475-.253zm4.76-2.07l.538-.015-.012-.441-.435-.075-.091.531zm.122.701c-.63-.104-1.187-.153-1.663-.14l.03 1.076c.385-.011.869.029 1.458.126l.175-1.062zm-1.663-.14c-1.487.041-2.644 1.025-3.509 2.662l.952.503c.773-1.463 1.647-2.062 2.586-2.088l-.03-1.076zm-3.571 2.928l.232 8.393 1.076-.03-.232-8.393-1.076.03zm.755 7.84l-1.291.036.03 1.076 1.291-.036-.03-1.076zm-.738.559l-.228-8.276-1.076.03.228 8.276 1.076-.03zm-.228-8.276c-.037-1.335-.401-2.426-1.185-3.168l-.74.782c.503.476.817 1.246.849 2.415l1.076-.03zm-1.171-2.399l.771-.785-.768-.755-.771.785.768.755zm.079-.721c.497.348.888.907 1.142 1.735l1.029-.316c-.306-.996-.813-1.784-1.554-2.302l-.618.882zm2.132 1.831c.682-1.279 1.642-1.888 2.915-1.923l-.03-1.076c-1.701.047-2.991.91-3.835 2.493l.95.507zm2.915-1.923c.28-.008.7.031 1.278.13l.182-1.061c-.602-.103-1.104-.156-1.49-.146l.03 1.076zm.831-.385l.034 1.233 1.076-.03-.034-1.233-1.076.03zm14.904 9.281l.538.023.024-.553-.553-.009-.009.538zm-.635 1.457l-.391-.37.391.37zm-3.209-.293l-.453.292.007.01.446-.301zm-2.363-3.665l.453-.292-.165-.255-.303.008.015.538zm-3.991.11l-.015-.538-.538.015.015.538.538-.015zm.13 4.696l.015.538.538-.015-.015-.538-.538.015zm-1.291.036l-.538.015.015.538.538-.015-.015-.538zm-.471-17.051l-.015-.538-.538.015.015.538.538-.015zm1.291-.036l.538-.015-.015-.538-.538.015.015.538zm.206 7.454l-.538.015 1.025.215-.487-.23zm6.388-1.586l.357-.402-.357.402zm1.098 2.554l.538.013.001-.023-.002-.023-.537.034zm-2.108 3.436l-.262-.47-.509.284.323.485.448-.298zm2.267 3.403l-.448.299.034.051.044.042.37-.391zm1.146-.002l-.391-.37h0l.391.37zm.22-.535l.009-.538-.563-.009.016.563.538-.015zm-2.759-6.326l.537.043.003-.046-.004-.046-.536.049zm-5.217-.678l.455.288.003-.004-.457-.284zm-.874 3.431l-.538.015.015.538.538-.015-.015-.538zm5.148-.759l-.327-.427-.007.006.334.422zm4.487 4.331c-.018.412-.172.776-.488 1.11l.782.74c.483-.51.752-1.117.782-1.803l-1.076-.047zm-.488 1.11c-.284.3-.613.447-1.016.458l.029 1.076a2.46 2.46 0 0 0 1.769-.794l-.782-.74zm-1.016.458c-.604.017-1.034-.205-1.356-.682l-.892.603c.534.791 1.316 1.182 2.277 1.156l-.029-1.076zm-1.35-.673l-2.362-3.665-.905.584 2.362 3.665.905-.583zm-2.83-3.911l-3.991.11.03 1.076 3.991-.11-.03-1.076zm-4.514.663l.13 4.696 1.076-.03-.13-4.696-1.076.03zm.653 4.142l-1.291.036.03 1.076 1.291-.036-.03-1.076zm-.738.559l-.471-17.051-1.076.03.471 17.051 1.076-.03zm-.994-16.498l1.291-.036-.03-1.076-1.291.036.03 1.076zm.738-.559l.206 7.454 1.076-.03-.206-7.454-1.076.03zm1.231 7.669c.336-.712.765-1.223 1.275-1.562s1.131-.529 1.887-.55l-.03-1.076c-.926.026-1.751.262-2.454.73s-1.248 1.144-1.652 1.999l.974.46zM101.349 69c1.083-.03 1.852.227 2.382.699l.715-.805c-.794-.706-1.861-1.005-3.127-.97l.03 1.076zm2.382.699c.53.471.855 1.174.919 2.186l1.074-.067c-.076-1.217-.483-2.217-1.278-2.923l-.715.805zm.918 2.139c-.032 1.332-.624 2.306-1.832 2.978l.524.941c1.531-.852 2.344-2.169 2.384-3.893l-1.076-.025zm-2.018 3.747l2.267 3.403.897-.597-2.268-3.403-.896.597zm2.345 3.496c.267.253.599.406.98.395l-.03-1.076c-.05.001-.115-.011-.209-.101l-.741.782zm.98.395a1.3 1.3 0 0 0 .927-.418l-.782-.74c-.057.06-.107.08-.175.082l.03 1.076zm.927-.418c.236-.25.377-.562.367-.92l-1.076.03c.001.034-.005.078-.073.15l.782.74zm-.18-.367l1.322.022.018-1.077-1.322-.022-.018 1.077zm-2.214-6.914c-.078-.852-.367-1.568-.937-2.057s-1.328-.676-2.201-.652l.03 1.076c.711-.02 1.174.139 1.47.393s.504.666.566 1.338l1.072-.099zm-3.138-2.708c-1.323.037-2.362.651-3.073 1.795l.915.568c.527-.849 1.241-1.261 2.188-1.287l-.03-1.076zm-3.07 1.791c-.684 1.079-.997 2.331-.958 3.734l1.076-.03c-.034-1.219.237-2.254.791-3.128l-.909-.577zm-.405 4.258l2.729-.075-.029-1.076-2.73.075.03 1.076zm2.729-.075c1.131-.031 2.073-.271 2.739-.8l-.669-.843c-.407.323-1.078.539-2.099.567l.029 1.076zm2.732-.794c.71-.544 1.071-1.37 1.153-2.378l-1.074-.087c-.064.798-.332 1.301-.734 1.61l.655.854zm16.803 4.328l-.37.391h0l.37-.391zm1.229-.151l.295-.45-.451-.295-.295.452.451.294zm1.077.705l.476.251.228-.433-.41-.268-.294.451zm-3.129.498l-.36.401.011.009.349-.41zm-.711-1.273l.53-.096-.274-1.5-.729 1.34.473.257zm-7.275.318l-.419.337.003.004.416-.342zm-.064-8.721l.417.34.003-.004-.42-.337zm7.03-1.721l-.058.535.037.004.036-.001-.015-.538zm1.292-.036l.538-.015-.015-.538-.538.015.015.538zm-1.258 1.239l.538-.015-.015-.538-.538.015.015.538zm-1.47-.048l-.05.536.009.001.008.001.033-.537zm-4.632 1.361l-.429-.326.429.326zm.045 6.959l.439-.311-.439.311zm5.266.325l-.374-.387-.006.005.38.382zm1.782.01c.01.375.193.685.448.926l.74-.782c-.107-.101-.111-.157-.112-.174l-1.076.03zm.448.926c.254.241.575.406.949.396l-.029-1.076c-.017.001-.073 0-.18-.102l-.74.782zm.949.396c.476-.013.85-.259 1.101-.644l-.902-.588c-.087.133-.156.154-.228.156l.029 1.076zm.355-.488l1.077.704.589-.901-1.076-.704-.59.901zm.895.003c-.232.441-.609.682-1.244.7l.03 1.076c.969-.027 1.729-.443 2.167-1.274l-.953-.502zm-1.244.7c-.421.012-.764-.11-1.059-.361l-.698.82a2.57 2.57 0 0 0 1.787.618l-.03-1.076zm-1.049-.352a1.65 1.65 0 0 1-.54-.968l-1.059.193a2.73 2.73 0 0 0 .88 1.577l.719-.802zm-1.543-1.129c-.559 1.028-1.536 1.595-3.072 1.637l.03 1.076c1.829-.05 3.206-.762 3.988-2.199l-.946-.515zm-3.072 1.637c-1.438.04-2.519-.436-3.314-1.403l-.832.683c1.029 1.254 2.445 1.844 4.176 1.797l-.03-1.076zm-3.31-1.399c-.802-.999-1.246-2.314-1.293-3.985l-1.076.03c.051 1.85.548 3.407 1.53 4.63l.839-.674zm-1.293-3.985c-.046-1.677.376-3.015 1.226-4.058l-.834-.68c-1.044 1.28-1.52 2.884-1.468 4.768l1.076-.03zm1.229-4.062c.836-1.043 1.994-1.598 3.538-1.64l-.029-1.076c-1.821.05-3.292.724-4.349 2.043l.84.673zm3.538-1.64c1.033-.028 2.038.011 3.014.117l.117-1.07c-1.027-.112-2.081-.153-3.16-.123l.029 1.076zm3.087.12l1.292-.036-.03-1.076-1.291.036.029 1.076zm.739-.559l.271 9.831 1.076-.03-.271-9.831-1.076.03zm-.735.686c-.288.008-.758-.007-1.423-.047l-.065 1.075 1.518.048-.03-1.076zm-1.405-.045l-1.653-.076.03 1.076c.38-.01.886.012 1.523.072l.1-1.072zm-1.653-.076c-1.465.04-2.645.577-3.458 1.647l.857.651c.585-.769 1.436-1.19 2.631-1.223l-.03-1.076zM111.8 70.42c-.79 1.039-1.141 2.342-1.099 3.863l1.076-.03c-.036-1.335.272-2.381.88-3.182l-.857-.651zm-1.099 3.863c.04 1.453.408 2.707 1.133 3.733l.879-.622c-.578-.818-.9-1.855-.936-3.141l-1.076.03zm1.133 3.733c.763 1.079 1.862 1.598 3.223 1.561l-.03-1.076c-1.026.028-1.772-.341-2.314-1.106l-.879.622zm3.223 1.561c1.137-.031 2.106-.413 2.863-1.165l-.76-.763c-.539.536-1.236.828-2.133.852l.03 1.076zm2.857-1.16c.787-.761 1.155-1.743 1.123-2.896l-1.076.03c.024.883-.247 1.562-.795 2.091l.748.774zm1.123-2.896l-.168-6.104-1.076.03.168 6.104 1.076-.03zm12.387-5.981l-.388.374.009.009.379-.383zm-3.706-.191l-.254-.475h0l.254.475zm-1.151.854l-.404-.356-.001.001.405.355zm-.936 1.201l-.436-.316-.108.148.005.183.539-.015zm.23 8.335l.014.538.539-.015-.015-.538-.538.015zm-1.292.036l-.538.015.015.538.538-.015-.015-.538zm-1.245-11.067l-.384-.377-.384.391.398.377.37-.391zm.771-.785l.29-.454-.368-.234-.306.311.384.377zm1.352 2.136l-.526.118.282 1.253.696-1.08-.452-.292zm8.391 8.198l-.393.369.011.011.012.011.37-.391zm1.259-.123l.286-.456-.431-.271-.294.416.439.311zm1.076.675l.458.283.281-.455-.453-.284-.286.456zm-3.219.412l.37-.391-.37.391zm-.287-7.569c-.029-1.041-.28-1.914-.865-2.492l-.757.765c.301.298.52.841.545 1.757l1.077-.03zm-.856-2.484c-.574-.595-1.436-.811-2.446-.783l.03 1.076c.869-.024 1.369.172 1.641.455l.775-.748zm-2.446-.783c-.684.019-1.321.181-1.901.491l.508.95c.423-.226.894-.35 1.423-.364l-.03-1.076zm-1.901.491c-.537.287-.979.608-1.301.972l.807.713c.21-.237.535-.486 1.002-.736l-.508-.95zm-1.302.974c-.263.299-.586.715-.967 1.24l.871.633.905-1.162-.809-.711zm-1.07 1.571l.23 8.335 1.077-.03-.23-8.335-1.077.03zm.754 7.782l-1.291.036.029 1.076 1.291-.036-.029-1.076zm-.738.559l-.229-8.276-1.076.03.228 8.276 1.077-.03zm-.229-8.276c-.037-1.335-.401-2.426-1.185-3.168l-.74.782c.503.476.817 1.246.849 2.415l1.076-.03zm-1.171-2.399l.771-.785-.768-.755-.771.785.768.755zm.098-.708c.528.336.915.908 1.115 1.8l1.051-.236c-.246-1.092-.76-1.945-1.587-2.472l-.579.908zm2.093 1.974c.893-1.385 2.038-2.054 3.463-2.093l-.03-1.076c-1.823.05-3.278.941-4.338 2.586l.905.583zm3.463-2.093c1.244-.034 2.086.238 2.623.72.531.477.857 1.242.889 2.404l1.077-.03c-.037-1.343-.423-2.437-1.247-3.176s-1.975-1.033-3.372-.994l.03 1.076zm3.512 3.124l.175 6.339 1.077-.03-.175-6.339-1.077.03zm.175 6.339c.01.353.164.658.396.905l.785-.737c-.091-.096-.103-.159-.104-.197l-1.077.03zm.419.927c.267.253.598.406.979.395l-.03-1.076c-.05.001-.115-.011-.209-.101l-.74.782zm.979.395c.457-.013.83-.231 1.09-.598l-.879-.622c-.08.113-.15.141-.241.144l.03 1.076zm.364-.453l1.076.675.572-.912-1.076-.675-.572.912zm.904-.064a1.42 1.42 0 0 1-1.262.732l.029 1.076a2.49 2.49 0 0 0 2.149-1.242l-.916-.566zm-1.262.732a1.5 1.5 0 0 1-1.129-.428l-.74.782c.527.499 1.17.742 1.898.722l-.029-1.076zm-1.129-.428a1.5 1.5 0 0 1-.49-1.104l-1.076.03c.02.728.299 1.357.826 1.856l.74-.782zm-.49-1.104l-.167-6.075-1.077.03.168 6.075 1.076-.03zm5.996 1.274l-.37.391.37-.391zm-.929-11.34l-.015-.538-.538.015.015.538.538-.015zm1.291-.036l.538-.015-.015-.538-.538.015.015.538zm.552 10.411l.37-.391-.37.391zm1.23-.122l.28-.46-.429-.262-.291.411.44.311zm1.105.674l.446.302.317-.468-.482-.294-.281.46zm-1.75.45c-.446.012-.811-.128-1.128-.428l-.741.782c.528.499 1.171.742 1.899.722l-.03-1.076zm-1.128-.428c-.318-.3-.478-.658-.49-1.104l-1.076.03c.02.728.298 1.357.825 1.856l.741-.782zm-.49-1.104l-.272-9.861-1.076.03.272 9.861 1.076-.03zm-.795-9.308l1.291-.036-.03-1.076-1.291.036.03 1.076zm.738-.559l.272 9.861 1.076-.03-.272-9.861-1.076.03zm.272 9.861c.01.375.193.685.448.927l.74-.782c-.107-.101-.111-.157-.112-.174l-1.076.03zm.448.927c.255.241.575.406.949.396l-.029-1.076c-.017 0-.073 0-.18-.102l-.74.782zm.949.396c.457-.013.831-.231 1.09-.598l-.879-.622c-.079.113-.149.141-.24.144l.029 1.076zm.37-.449l1.106.674.561-.919-1.106-.674-.561.919zm.94-.087c-.343.506-.766.737-1.304.752l.03 1.076c.91-.025 1.643-.453 2.166-1.224l-.892-.604zM59.744 94.182l-.286.456.431.271.294-.416-.439-.311zm-1.255-.788l-.45-.296-.302.46.466.292.286-.456zm3.855.275l-.492.219.005.01.005.01.482-.239zm.337 5.806l-.538.015.015.539.538-.015-.015-.538zm8.657-.239l.015.538.538-.015-.015-.538-.538.015zm-.194-7.043l-.015-.538-.538.015.015.538.538-.015zm1.438-.04l.538-.015-.015-.538-.538.015.015.538zm.443 16.053l.015.538.538-.015-.015-.538-.538.015zm-1.438.039l-.538.015.015.538.538-.015-.015-.538zm-.212-7.689l.538-.015-.015-.538-.538.015.015.538zm-8.657.239l-.015-.538-.538.015.015.538.538-.015zm.212 7.689l.015.538.538-.015-.015-.538-.538.015zm-1.467.041l-.538.014.015.539.538-.015-.015-.538zm.152-14.014c-.009-.341-.132-.656-.388-.899l-.74.782c.025.024.049.057.052.146l1.076-.03zm-.388-.899c-.246-.232-.553-.348-.889-.339l.03 1.076c.055-.001.084.011.12.044l.74-.782zm-.889-.339c-.446.012-.791.257-1.031.596l.879.622c.099-.14.159-.141.182-.142l-.03-1.076zm-.306.451l-1.255-.788-.572.912 1.255.788.572-.912zm-1.091-.036c.339-.516.777-.76 1.358-.776l-.03-1.076c-.946.026-1.703.462-2.228 1.261l.9.591zm1.358-.776c.405-.011.712.073.948.221s.444.387.607.754l.984-.438c-.233-.523-.568-.945-1.019-1.228s-.977-.401-1.55-.385l.03 1.076zm1.565.995a1.4 1.4 0 0 1 .143.593l1.076-.03c-.01-.367-.094-.717-.255-1.041l-.965.478zm.143.593l.138 4.989 1.076-.03-.138-4.989-1.076.03zm.691 5.513l8.657-.239-.03-1.076-8.657.239.03 1.077zm9.181-.792l-.194-7.043-1.076.03.194 7.043 1.076-.03zm-.718-6.49l1.438-.04-.03-1.076-1.438.04.03 1.076zm.885-.563l.443 16.052 1.076-.029-.443-16.053-1.076.03zm.966 15.499l-1.438.04.03 1.076 1.438-.039-.03-1.077zm-.885.563l-.212-7.689-1.076.03.212 7.689 1.076-.03zm-.765-8.212l-8.657.239.03 1.076 8.657-.239-.03-1.076zm-9.181.792l.212 7.689 1.076-.03-.212-7.689-1.076.03zm.735 7.136l-1.467.04.03 1.077 1.467-.041-.03-1.076zm-.914.564l-.386-13.999-1.076.03.386 13.998 1.076-.029zm22.927-2.747l.45-.296-.281-.428-.442.259.273.465zm.644.98l.326.429.399-.304-.276-.42-.45.295zm-8.495-8.782l.433.32.003-.004-.435-.317zm6.726-1.037l-.319.433.007.005.313-.438zm-.114 5.437l.287.455.003-.002-.29-.453zm-6.433 1.029l-.015-.538-.611.016.094.604.532-.082zm-.122-1.23l-.538.014.015.539.538-.015-.015-.538zm5.753-4.388l-.319.434.009.007.009.006.301-.447zm-4.848.986l-.45-.296-.001.002.451.295zm3.267 8.76c1.216-.033 2.518-.481 3.895-1.29l-.545-.929c-1.281.753-2.405 1.116-3.38 1.143l.03 1.076zm3.173-1.459l.644.981.9-.591-.644-.981-.9.591zm.768.257c-1.134.863-2.44 1.317-3.936 1.358l.03 1.077c1.712-.048 3.238-.573 4.559-1.578l-.652-.857zm-3.936 1.358c-1.679.047-2.858-.393-3.639-1.23-.793-.849-1.262-2.197-1.316-4.144l-1.076.029c.057 2.083.562 3.733 1.605 4.85 1.055 1.13 2.574 1.624 4.456 1.572l-.03-1.077zm-4.955-5.374c-.044-1.6.349-2.928 1.155-4.017l-.866-.64c-.969 1.31-1.415 2.883-1.366 4.687l1.076-.029zm1.157-4.021c.785-1.08 1.844-1.632 3.228-1.671l-.03-1.076c-1.708.047-3.081.756-4.069 2.114l.871.633zm3.228-1.671c1.139-.031 2.04.231 2.744.75l.639-.867c-.935-.689-2.086-.996-3.412-.96l.03 1.076zm2.75.755c.663.473 1.023 1.164 1.05 2.155l1.076-.03c-.035-1.279-.525-2.306-1.501-3.002l-.626.876zm1.05 2.155c.031 1.132-.362 1.892-1.141 2.389l.579.907c1.145-.73 1.678-1.876 1.638-3.326l-1.076.03zm-1.138 2.388c-.838.527-1.959.831-3.402.87l.03 1.077c1.57-.044 2.898-.376 3.946-1.036l-.574-.911zm-3.402.87l-2.759.077.03 1.076 2.759-.076-.03-1.077zm-3.276.697c.203 1.305.673 2.352 1.469 3.06.801.713 1.862 1.02 3.113.985l-.03-1.076c-1.058.029-1.824-.23-2.367-.714-.549-.488-.942-1.268-1.12-2.42l-1.064.165zm.425-.774l2.847-.079-.03-1.076-2.847.078.03 1.077zm2.847-.079c1.321-.036 2.398-.272 3.152-.78.795-.535 1.175-1.334 1.148-2.315l-1.076.03c.018.643-.209 1.08-.673 1.392-.505.34-1.339.563-2.581.597l.03 1.076zm4.301-3.095c-.026-.938-.377-1.707-1.109-2.199l-.601.893c.386.26.615.67.634 1.336l1.076-.03zm-1.091-2.187c-.663-.487-1.501-.689-2.464-.662l.03 1.076c.799-.022 1.38.148 1.796.454l.637-.868zm-2.464-.662c-1.337.037-2.402.647-3.153 1.785l.899.593c.565-.856 1.312-1.275 2.284-1.302l-.03-1.076zm-3.154 1.787c-.705 1.079-1.03 2.324-.992 3.712l1.076-.029c-.033-1.194.245-2.218.817-3.093l-.901-.589zm13.103-.113l-.399-.361-.011.012-.01.013.42.336zm-.56.985l-.497-.207-.044.107.003.115.538-.015zm.232 8.393l.015.538.538-.014-.015-.539-.538.015zm-1.291.036l-.538.015.015.538.538-.015-.015-.538zm-1.245-11.067l-.384-.377-.385.391.398.377.37-.391zm.771-.785l.329-.426-.378-.292-.335.341.384.377zm1.319 2.019l-.521.136.351 1.341.646-1.227-.476-.251zm1.425-1.567l-.292-.453-.006.004.298.448zm5.532 1.433l-.503.192.401 1.049.566-.97-.465-.272zm6.277-1.377l-.37.391.006.005.364-.397zm1.529 9.649l-.37.391.011.011.012.01.347-.412zm1.259-.152l.286-.456-.432-.271-.294.416.44.311zm1.076.675l.458.283.28-.455-.452-.284-.286.456zm-3.249.413l.37-.391h0l-.37.391zm-.833-7.848l.538-.015-.001-.013v-.013l-.537.04zm-5.757-.017l-.482-.24-.06.12.004.134.538-.015zm.232 8.393l.015.538.538-.015-.015-.538-.538.015zm-1.291.035l-.538.015.015.539.538-.015-.015-.539zm.32-7.909c-.028-1.003-.264-1.85-.799-2.442-.549-.608-1.329-.857-2.239-.832l.03 1.076c.695-.019 1.131.168 1.41.477.293.325.497.875.521 1.751l1.076-.03zm-3.037-3.274c-1.163.032-2.2.602-3.106 1.603l.798.722c.766-.846 1.543-1.227 2.337-1.249l-.03-1.076zm-3.127 1.628a4.63 4.63 0 0 0-.637 1.114l.994.415c.151-.362.314-.644.484-.856l-.841-.673zm-.678 1.336l.232 8.393 1.076-.03-.232-8.393-1.076.03zm.755 7.84l-1.291.036.03 1.076 1.291-.036-.03-1.076zm-.738.559l-.228-8.276-1.076.03.228 8.276 1.076-.03zm-.228-8.276c-.037-1.335-.401-2.426-1.185-3.168l-.74.782c.503.476.816 1.246.849 2.415l1.076-.03zm-1.171-2.399l.771-.785-.768-.755-.771.785.768.755zm.058-.736c.563.435.937 1.005 1.127 1.73l1.042-.273c-.248-.947-.752-1.723-1.51-2.309l-.659.852zm2.124 1.844a3.68 3.68 0 0 1 1.247-1.369l-.596-.897c-.688.457-1.226 1.046-1.604 1.764l.953.502zm1.24-1.365c.545-.351 1.176-.542 1.908-.562l-.03-1.076c-.911.025-1.737.266-2.462.733l.583.905zm1.908-.562c.765-.021 1.353.127 1.799.404s.79.705 1.03 1.331l1.006-.385c-.309-.807-.793-1.442-1.467-1.86s-1.48-.592-2.398-.566l.03 1.076zm3.797 1.814c.781-1.337 1.807-1.969 3.1-2.005l-.03-1.076c-1.72.047-3.06.93-4 2.538l.93.543zm3.1-2.005c1.051-.029 1.808.241 2.342.747l.74-.782c-.793-.75-1.854-1.076-3.112-1.041l.03 1.076zm2.348.752c.55.506.869 1.244.898 2.291l1.076-.03c-.035-1.262-.431-2.305-1.246-3.054l-.728.793zm.898 2.291l.176 6.397 1.077-.029-.177-6.398-1.076.03zm.176 6.397c.011.381.182.704.449.956l.74-.782c-.095-.09-.111-.153-.112-.203l-1.077.029zm.472.977c.26.219.573.356.926.346l-.03-1.077c-.038.002-.102-.008-.203-.093l-.693.824zm.926.346c.463-.013.852-.221 1.119-.599l-.879-.622a.3.3 0 0 1-.27.144l.03 1.077zm.393-.454l1.076.675.573-.912-1.076-.675-.573.912zm.904-.064c-.296.48-.705.717-1.291.733l.029 1.076c.941-.026 1.688-.448 2.179-1.243l-.917-.566zm-1.291.733a1.5 1.5 0 0 1-1.129-.428l-.74.782c.527.499 1.17.742 1.898.722l-.029-1.076zm-1.129-.428a1.5 1.5 0 0 1-.489-1.104l-1.077.03c.02.728.299 1.357.826 1.856l.74-.782zm-.489-1.104l-.176-6.368-1.077.03.176 6.368 1.077-.03zm-.177-6.393c-.067-.903-.312-1.666-.816-2.193l-.779.744c.262.274.463.751.521 1.529l1.074-.08zm-.816-2.193c-.529-.552-1.297-.758-2.182-.734l.03 1.076c.719-.02 1.135.153 1.373.402l.779-.744zm-2.182-.734c-1.676.046-2.935 1.012-3.778 2.71l.964.479c.714-1.438 1.663-2.08 2.844-2.113l-.03-1.076zm-3.834 2.965l.232 8.394 1.076-.03-.232-8.393-1.076.03zm.755 7.841l-1.291.035.03 1.077 1.291-.036-.03-1.076zm-.738.559l-.218-7.895-1.076.03.218 7.894 1.076-.029zm21.291-2.702l.45-.296-.281-.428-.441.259.272.465zm.644.98l.326.429.4-.304-.276-.42-.45.295zm-8.495-8.782l.433.32.002-.004-.435-.317zm6.726-1.037l-.319.433.007.005.312-.438zm-.114 5.436l.287.456.003-.002-.29-.454zm-6.433 1.03l-.015-.538-.61.016.093.604.532-.082zm-.122-1.23l-.538.014.015.539.538-.015-.015-.538zm5.753-4.388l-.319.434.009.007.009.006.301-.447zm-4.848.986l-.45-.296-.001.002.451.295zm3.267 8.76c1.215-.033 2.517-.481 3.895-1.29l-.545-.929c-1.281.753-2.405 1.116-3.38 1.143l.03 1.076zm3.172-1.459l.644.981.9-.591-.644-.981-.9.591zm.768.257c-1.134.863-2.44 1.317-3.936 1.358l.03 1.077c1.712-.048 3.238-.573 4.558-1.578l-.652-.857zm-3.936 1.358c-1.679.047-2.858-.393-3.639-1.23-.793-.849-1.262-2.197-1.316-4.144l-1.076.029c.057 2.083.562 3.733 1.605 4.85 1.054 1.13 2.574 1.624 4.456 1.572l-.03-1.077zm-4.955-5.374c-.044-1.6.349-2.928 1.155-4.017l-.866-.64c-.968 1.31-1.415 2.883-1.365 4.687l1.076-.029zm1.157-4.021c.786-1.08 1.845-1.632 3.228-1.671l-.029-1.076c-1.708.047-3.082.756-4.069 2.114l.87.633zm3.228-1.671c1.139-.031 2.04.231 2.744.75l.639-.867c-.935-.689-2.086-.996-3.412-.96l.029 1.076zm2.751.755c.662.473 1.022 1.164 1.05 2.155l1.076-.03c-.035-1.279-.526-2.306-1.501-3.002l-.625.877zm1.05 2.155c.031 1.132-.362 1.891-1.142 2.389l.58.907c1.145-.73 1.678-1.876 1.638-3.326l-1.076.03zm-1.139 2.388c-.837.527-1.959.831-3.402.87l.03 1.077c1.57-.044 2.897-.376 3.946-1.036l-.574-.911zm-3.402.87l-2.759.077.03 1.076 2.759-.076-.03-1.077zm-3.276.697c.203 1.305.673 2.352 1.469 3.06.801.713 1.862 1.02 3.113.985l-.03-1.076c-1.058.029-1.824-.23-2.367-.714-.549-.488-.942-1.268-1.121-2.42l-1.064.165zm.425-.774l2.847-.079-.03-1.076-2.847.078.03 1.077zm2.847-.079c1.321-.036 2.398-.272 3.152-.78.795-.535 1.175-1.334 1.148-2.315l-1.076.03c.018.643-.209 1.08-.673 1.392-.505.34-1.339.563-2.581.597l.03 1.076zm4.3-3.095c-.026-.938-.377-1.707-1.108-2.199l-.602.893c.386.26.616.67.634 1.336l1.076-.03zm-1.09-2.187c-.663-.487-1.502-.689-2.464-.662l.03 1.076c.798-.022 1.38.148 1.796.454l.638-.868zm-2.464-.662c-1.337.037-2.402.647-3.153 1.785l.899.593c.565-.857 1.312-1.275 2.284-1.302l-.03-1.076zm-3.154 1.787c-.705 1.079-1.03 2.323-.992 3.712l1.076-.029c-.033-1.194.245-2.218.817-3.093l-.901-.589zm17.927-.922l-.388.374.009.009.379-.383zm-3.706-.191l-.254-.475.254.475zm-1.151.854l-.404-.356-.001.001.405.355zm-.936 1.201l-.436-.316-.108.148.005.183.539-.015zm.23 8.335l.014.538.539-.015-.015-.538-.538.015zm-1.292.035l-.538.015.015.538.538-.015-.015-.538zm-1.245-11.067l-.384-.377-.384.391.398.377.37-.391zm.771-.785l.29-.454-.368-.234-.306.311.384.377zm1.352 2.136l-.526.118.282 1.254.696-1.08-.452-.292zm8.391 8.198l-.393.368.011.012.012.011.37-.391zm1.259-.123l.286-.456-.431-.271-.294.416.439.311zm1.076.675l.458.283.281-.455-.453-.284-.286.456zm-3.219.412l.37-.391-.37.391zm-.287-7.57c-.029-1.041-.28-1.914-.865-2.492l-.757.766c.301.298.52.841.545 1.757l1.077-.03zm-.856-2.484c-.574-.595-1.436-.811-2.446-.783l.03 1.076c.869-.024 1.369.172 1.641.455l.775-.748zm-2.446-.783c-.684.019-1.321.181-1.901.491l.508.949a3.15 3.15 0 0 1 1.423-.364l-.03-1.076zm-1.901.491c-.537.287-.979.608-1.301.972l.807.713c.21-.237.535-.486 1.002-.736l-.508-.949zm-1.302.974c-.263.299-.586.715-.967 1.24l.871.633.905-1.162-.809-.711zm-1.07 1.571l.23 8.334 1.077-.029-.23-8.335-1.077.03zm.754 7.781l-1.291.036.029 1.076 1.291-.035-.029-1.077zm-.738.559l-.229-8.276-1.076.03.228 8.276 1.077-.03zm-.229-8.276c-.037-1.335-.401-2.426-1.185-3.168l-.74.782c.503.476.817 1.246.849 2.415l1.076-.03zm-1.171-2.399l.771-.785-.768-.755-.771.785.768.755zm.098-.708c.528.336.915.908 1.115 1.8l1.051-.236c-.246-1.092-.76-1.945-1.587-2.472l-.579.908zm2.093 1.974c.893-1.385 2.038-2.054 3.463-2.093l-.03-1.076c-1.823.05-3.278.941-4.338 2.586l.905.583zm3.463-2.093c1.244-.034 2.086.238 2.623.72.531.477.857 1.242.889 2.404l1.077-.03c-.037-1.343-.423-2.437-1.247-3.176-.819-.734-1.975-1.033-3.372-.995l.03 1.076zm3.512 3.124l.175 6.339 1.077-.029-.175-6.339-1.077.03zm.175 6.339c.01.353.164.658.396.905l.785-.737c-.09-.096-.103-.159-.104-.197l-1.077.029zm.419.928c.267.252.598.405.979.395l-.03-1.077c-.05.002-.114-.011-.209-.101l-.74.783zm.979.395a1.35 1.35 0 0 0 1.09-.598l-.879-.622c-.08.112-.15.141-.241.143l.03 1.077zm.364-.453l1.076.675.572-.912-1.076-.675-.572.912zm.904-.064a1.42 1.42 0 0 1-1.262.732l.029 1.076c.927-.026 1.661-.452 2.149-1.242l-.916-.566zm-1.262.732a1.5 1.5 0 0 1-1.129-.428l-.74.782c.527.499 1.17.742 1.898.722l-.029-1.076zm-1.129-.428c-.318-.301-.477-.658-.49-1.104l-1.076.03c.02.728.299 1.357.826 1.856l.74-.782zm-.49-1.104l-.167-6.075-1.077.03.168 6.075 1.076-.03zm-66.366 16.007l.391.37-.391-.37zm-.301.802l.015.538.538-.015-.015-.538-.538.015zm-1.321.036l-.538.015.015.538.538-.015-.015-.538zm1.434-2.33l-.214-.495-.015.007-.014.007.243.481zm10.6 2.057l.486-.232-.004-.009-.482.241zm-1.303 4.94l-.292-.452-.055.035-.045.047.391.37zm-.348.157l.184.506.007-.003.007-.002-.198-.501zm-.349.127l-.184-.506-.965.352.839.593.311-.439zm.384.077l.193-.502-.1-.039-.108.003.015.538zm.356.137l.245-.479-.025-.013-.027-.01-.193.502zm1.771 6.707l-.427-.328-.005.007.433.321zm-2.246 1.618l.175.509.006-.002-.181-.507zm-5.746.364l-.047.537h.008l.008.001.031-.538zm-1.266-.112l-.538.015.013.479.477.043.047-.537zm-.413-14.967l.538-.015-.015-.538-.538.015.015.538zm7.271 4.881l.351.408.007-.007-.358-.401zm-.002-4.318l-.355.405.355-.405zm-5.832-.602l-.015-.539-.538.015.015.538.538-.014zm.383 13.881l-.538.015.015.538.538-.015-.015-.538zm2.084-.028l-.045.536.03.003.03-.001-.015-.538zm.47.016l-.074.533.044.006.045-.001-.015-.538zm3.506-5.971l-.335.422.006.004.006.005.323-.431zm-5.044-.8l-.538.015.015.538.538-.015-.015-.538zm-.036-1.291l-.015-.539-.538.015.015.538.538-.014zm-3.257-6.294c-.465.013-.868.205-1.188.543l.782.74a.59.59 0 0 1 .436-.206l-.03-1.077zm-1.188.543c-.311.328-.461.735-.448 1.186l1.076-.029c-.005-.175.046-.302.154-.417l-.782-.74zm.075.633l-1.321.037.03 1.076 1.321-.036-.03-1.077zm-.767.56c-.012-.44.081-.792.257-1.078s.459-.544.881-.757l-.485-.961c-.563.284-1.012.664-1.313 1.154s-.433 1.056-.416 1.672l1.076-.03zm1.109-1.821a1.87 1.87 0 0 1 .706-.157l-.03-1.077c-.382.011-.751.093-1.104.245l.427.989zm.706-.157l5.224-.145-.03-1.076-5.224.144.03 1.077zm5.224-.145c1.007-.027 1.82.147 2.462.493.638.342 1.143.871 1.513 1.612l.963-.481c-.459-.92-1.114-1.622-1.967-2.08-.848-.455-1.857-.651-3.002-.62l.03 1.076zm3.971 2.097c.214.448.332.947.348 1.504l1.076-.029c-.019-.695-.168-1.344-.452-1.939l-.972.464zm.348 1.504c.033 1.2-.44 2.096-1.456 2.752l.584.905c1.331-.858 1.993-2.108 1.949-3.686l-1.076.029zm-1.556 2.834c.024-.025.045-.042.057-.051l.029-.021.018-.011-.036.016-.224.093.396 1.002.27-.112.102-.05c.008-.004.096-.048.17-.126l-.782-.74zm-.141.021l-.349.127.369 1.012.349-.127-.369-1.012zm-.476 1.072c.225.16.499.182.71.177l-.03-1.077a.47.47 0 0 1-.107-.005c-.014-.003.01-.001.049.026l-.622.879zm.502.141l.356.137.386-1.005-.356-.137-.386 1.005zm.304.114c.767.392 1.32.877 1.69 1.444s.572 1.239.594 2.044l1.076-.03c-.027-.976-.278-1.85-.768-2.602s-1.199-1.353-2.101-1.815l-.491.959zm2.283 3.488c.027.995-.215 1.786-.694 2.411l.855.655c.655-.855.949-1.899.916-3.096l-1.076.03zm-.7 2.418c-.478.646-1.135 1.125-1.995 1.432l.362 1.014c1.04-.372 1.881-.972 2.498-1.805l-.866-.641zm-1.989 1.43c-.607.209-1.443.338-2.53.368l.03 1.077c1.143-.032 2.101-.168 2.852-.427l-.351-1.018zm-2.53.368c-1.103.031-2.106.02-3.01-.032l-.062 1.075 3.101.034-.03-1.077zm-2.993-.031l-1.266-.112-.095 1.073 1.266.112.095-1.073zm-.775.409l-.413-14.967-1.076.03.413 14.967 1.076-.03zm-.966-15.49l-.44.012.03 1.077.44-.013-.03-1.076zm7.645 5.82c.745-.665 1.088-1.558 1.059-2.614l-1.076.03c.022.783-.222 1.355-.699 1.781l.717.803zm1.059-2.614c-.028-1.032-.364-1.895-1.064-2.509l-.711.809c.424.373.676.923.698 1.73l1.076-.03zm-1.064-2.509c-.686-.603-1.57-.864-2.592-.836l.03 1.076c.817-.022 1.414.184 1.852.569l.711-.809zm-2.592-.836l-3.61.099.03 1.077 3.61-.1-.03-1.076zm-4.133.652l.383 13.882 1.076-.03-.383-13.881-1.076.029zm.936 14.405l1.526-.042-.03-1.076-1.526.042.03 1.076zm1.526-.042c.178-.005.344-.001.499.012l.089-1.073c-.198-.016-.404-.021-.618-.015l.03 1.076zm.558.014a2.58 2.58 0 0 1 .382.011l.148-1.066a3.6 3.6 0 0 0-.559-.022l.03 1.077zm.47.016h.02l.02-.001h.02l.02-.001.02-.001h.02l.02-.001h.02l.02-.001h.02l-.026-1.077-.02.001h-.02l-.02.001h-.02l-.02.001-.02.001h-.02l-.02.001h-.02l-.02.001.026 1.076zm.205-.005c1.586-.044 2.864-.367 3.747-1.052.914-.709 1.325-1.742 1.29-3.004l-1.076.03c.027.989-.283 1.664-.874 2.123-.622.482-1.631.785-3.117.826l.03 1.077zm5.038-4.056c-.033-1.204-.505-2.185-1.428-2.878l-.647.861c.636.478.973 1.139.998 2.047l1.076-.03zm-1.416-2.869c-.874-.696-1.942-1.013-3.164-.979l.03 1.076c1.008-.027 1.817.231 2.464.746l.671-.843zm-3.164-.979l-2.23.062.03 1.076 2.23-.062-.03-1.076zm-1.677.585l-.036-1.291-1.076.029.036 1.292 1.076-.03zm-.559-.738l2.054-.057-.03-1.076-2.054.056.03 1.077zm2.054-.057c1.091-.03 2.024-.336 2.751-.96l-.702-.817c-.498.428-1.174.676-2.079.701l.03 1.076zm11.294-6.46l.371.39.002-.002-.373-.388zm-1.409.01l-.39.371.01.01.01.01.37-.391zm-.038-1.38l-.408-.351-.002.002.41.349zm1.437-.069l-.37.391h0l.37-.391zm5.234 1.295l.371.39.01-.01.01-.01-.391-.37zm-1.409.01l-.37.391.009.008.01.009.351-.408zm-.038-1.38l.391.37-.391-.37zm1.408-.068l-.39.371.02.021.022.018.349-.41zm2.201 14.859l.37-.391-.37.391zm1.23-.122l.289-.454-.432-.275-.296.418.439.311zm1.106.704l.435.317.339-.463-.485-.309-.289.455zm-3.22.382l-.38.382.01.009.37-.391zm-.686-1.449l.536-.052-.141-1.462-.837 1.207.442.307zm-7.786-1.195l-.538.015v.014l.001.013.537-.042zm-.629-6.826l-.404.356.005.006.005.005.394-.367zm-.873-.769l-.456-.286-.291.464.469.283.278-.461zm.675-1.076l.294-.451-.459-.298-.291.463.456.286zm1.754 1.831l.494-.213-.005-.012-.006-.012-.483.237zm1.022 8.313l-.395.366.008.009.008.008.379-.383zm4.169-.056l.321.432.01-.007.01-.009-.341-.416zm1.654-1.779l.435.317.108-.148-.005-.183-.538.014zm-.231-8.363l-.015-.539-.538.015.015.538.538-.014zm1.262-.035l.538-.015-.015-.538-.538.015.015.538zm-7.068-3.535c.003.112-.03.206-.138.31l.746.776c.312-.299.481-.68.469-1.116l-1.076.03zm-.136.308a.48.48 0 0 1-.341.136l.03 1.076c.401-.011.762-.155 1.053-.432l-.742-.78zm-.341.136c-.13.003-.229-.034-.328-.127l-.74.782a1.5 1.5 0 0 0 1.097.421l-.03-1.076zm-.308-.107c-.093-.098-.131-.195-.135-.312l-1.076.03a1.52 1.52 0 0 0 .431 1.024l.78-.742zm-.135-.312a.48.48 0 0 1 .116-.348l-.82-.698c-.261.307-.384.675-.373 1.076l1.076-.03zm.115-.346c.098-.113.19-.152.302-.155l-.03-1.076c-.436.012-.807.202-1.089.529l.817.702zm.302-.155c.16-.004.266.041.357.126l.74-.782c-.312-.294-.7-.432-1.127-.42l.03 1.076zm.357.126a.46.46 0 0 1 .146.35l1.076-.03c-.012-.426-.17-.807-.482-1.102l-.74.782zm5.34.206c.004.13-.034.229-.127.328l.782.74c.287-.303.433-.679.421-1.097l-1.076.029zm-.107.308c-.09.086-.194.131-.341.135l.03 1.077c.401-.011.762-.155 1.053-.432l-.742-.78zm-.341.135c-.101.003-.212-.028-.347-.144l-.702.817c.306.263.671.415 1.078.404l-.03-1.077zm-.328-.126c-.107-.102-.141-.193-.144-.291l-1.076.03c.011.41.186.764.48 1.043l.74-.782zm-.144-.291c-.004-.13.034-.229.127-.328l-.782-.74a1.5 1.5 0 0 0-.421 1.098l1.076-.03zm.127-.328c.132-.139.235-.171.319-.174l-.03-1.076c-.424.012-.785.207-1.072.51l.782.74zm.319-.174c.16-.004.244.04.308.107l.78-.742c-.299-.315-.691-.453-1.117-.441l.03 1.076zm.349.146c.062.053.119.138.124.33l1.076-.029c-.012-.434-.164-.833-.503-1.121l-.698.82zm1.733 13.914c.01.374.193.685.448.926l.74-.782c-.107-.101-.111-.158-.111-.174l-1.076.03zm.448.926c.255.241.575.406.95.396l-.03-1.076c-.017 0-.073-.001-.18-.102l-.74.782zm.95.396c.457-.013.831-.232 1.09-.598l-.879-.622c-.08.113-.15.141-.241.144l.03 1.076zm.361-.455l1.106.704.578-.909-1.106-.703-.578.908zm.96-.068c-.364.499-.794.723-1.316.738l.03 1.076c.887-.024 1.614-.438 2.155-1.179l-.869-.635zm-1.316.738a1.47 1.47 0 0 1-1.1-.429l-.74.782a2.54 2.54 0 0 0 1.869.723l-.03-1.076zm-1.09-.42c-.313-.311-.487-.677-.53-1.119l-1.072.103c.067.691.351 1.291.843 1.78l.759-.764zm-1.508-1.374c-.85 1.226-1.949 1.831-3.332 1.869l.03 1.077c1.747-.048 3.155-.843 4.188-2.332l-.885-.614zm-3.332 1.869c-1.179.033-1.995-.213-2.529-.65-.525-.43-.864-1.115-.946-2.15l-1.073.085c.098 1.232.521 2.23 1.337 2.898.808.661 1.916.93 3.241.894l-.03-1.077zm-3.474-2.772l-.163-5.899-1.076.03.163 5.899 1.076-.03zm-.163-5.899c-.013-.477-.263-.906-.611-1.279l-.787.734c.257.276.319.465.322.575l1.076-.03zm-.6-1.268c-.326-.37-.658-.668-.998-.874l-.557.922c.217.131.467.346.748.664l.808-.712zm-.821-.127l.675-1.076-.912-.572-.675 1.076.912.572zm-.074-.91c.782.508 1.287 1.052 1.564 1.617l.967-.475c-.387-.787-1.051-1.464-1.944-2.045l-.587.903zm1.553 1.593a1.89 1.89 0 0 1 .157.706l1.076-.029c-.011-.383-.093-.752-.245-1.104l-.988.427zm.157.706l.146 5.283 1.076-.03-.146-5.282-1.076.029zm.146 5.283c.028 1.022.269 1.882.818 2.476l.79-.731c-.298-.323-.508-.88-.532-1.775l-1.076.03zm.835 2.493c.588.582 1.441.802 2.437.774l-.03-1.076c-.843.023-1.353-.169-1.65-.464l-.757.766zm2.437.774c.932-.025 1.752-.277 2.431-.781l-.642-.864c-.472.35-1.069.548-1.819.569l.03 1.076zm2.452-.797c.633-.518 1.215-1.146 1.748-1.878l-.87-.634c-.486.667-1.006 1.226-1.56 1.679l.682.833zm1.851-2.209l-.231-8.364-1.076.029.231 8.364 1.076-.029zm-.754-7.811l1.262-.035-.03-1.076-1.262.034.03 1.077zm.709-.558l.273 9.89 1.076-.03-.273-9.89-1.076.03zm4.877.746l-.456-.286-.267.425.406.296.317-.435zm.675-1.076l.281-.459-.454-.278-.283.451.456.286zm1.725 1.832l-.496.209.01.023.012.022.475-.254zm5.625 8.01l.328.427.006-.006-.334-.421zm1.232-2.178l.537.035.002-.025-.001-.025-.538.015zm-.213-7.719l-.015-.538-.538.015.015.538.538-.015zm1.262-.034l.538-.015-.015-.538-.538.014.015.539zm-.489 17.4l-.402-.359-.005.006-.005.006.412.347zm-5.078.111l-.398.362.001.001.397-.363zm.114-5.437l.306.443 1.263-.871-1.53-.109-.038.537zm4.029 4.441l-.407-.353-.008.009-.007.009.422.335zm.477-6.122l.538-.015-.033-1.198-.874.821.369.392zm-.258.242l-.368-.392-.006.005-.005.005.379.382zm-2.394 1.564l.26.472.005-.003-.265-.469zm-1.322 1.065l-.432-.322-.009.012-.009.013.449.297zm.239 3.341l.42-.337-.007-.009-.413.346zm-3.747-13.759c-.011-.404-.198-.777-.46-1.11s-.638-.669-1.099-1.006l-.635.87c.418.305.707.574.889.804s.227.386.229.472l1.076-.03zm-1.421-1.395l.675-1.076-.912-.572-.675 1.076.912.572zm-.062-.903c.791.485 1.272 1.018 1.51 1.582l.992-.418c-.349-.83-1.018-1.518-1.94-2.082l-.562.918zm1.531 1.627a1.47 1.47 0 0 1 .167.665l1.076-.03c-.011-.408-.107-.793-.294-1.143l-.95.508zm.167.665l.146 5.283 1.076-.03-.146-5.283-1.076.03zm.146 5.283c.028 1.013.289 1.867.874 2.458.592.598 1.425.836 2.398.809l-.03-1.076c-.788.022-1.289-.173-1.603-.49-.321-.324-.539-.867-.563-1.731l-1.076.03zm3.272 3.267c1.039-.028 1.991-.378 2.843-1.032l-.656-.854c-.682.523-1.417.788-2.217.81l.03 1.076zm2.849-1.038c.865-.686 1.368-1.545 1.435-2.564l-1.074-.07c-.044.667-.362 1.261-1.03 1.791l.669.843zm1.436-2.614l-.213-7.718-1.076.029.213 7.719 1.076-.03zm-.736-7.165l1.262-.035-.03-1.077-1.262.035.03 1.077zm.709-.559l.4 14.498 1.076-.03-.4-14.497-1.076.029zm.4 14.498c.031 1.139-.243 1.958-.753 2.529l.803.717c.744-.833 1.063-1.95 1.026-3.276l-1.076.03zm-.763 2.541c-.486.578-1.207.91-2.245.939l.03 1.076c1.271-.035 2.311-.456 3.039-1.322l-.824-.693zm-2.245.939c-.826.023-1.486-.256-2.024-.845l-.795.727c.754.825 1.718 1.225 2.849 1.194l-.03-1.076zm-2.024-.844c-.531-.583-.816-1.308-.841-2.21l-1.076.03c.031 1.133.4 2.113 1.121 2.905l.796-.725zm-.841-2.21c-.036-1.302.308-2.038.863-2.421l-.611-.886c-.983.678-1.369 1.861-1.328 3.337l1.076-.03zm.595-3.401c-1.01-.072-1.694-.359-2.131-.791s-.695-1.069-.721-2.001l-1.076.03c.031 1.121.355 2.06 1.04 2.737.68.672 1.644 1.016 2.811 1.099l.077-1.074zm-2.852-2.792l-.163-5.899-1.076.03.163 5.899 1.076-.03zm5.116 9.091c.888-.025 1.632-.337 2.147-.986l-.843-.67c-.279.352-.696.562-1.334.579l.03 1.077zm2.133-.968c.524-.605.749-1.379.725-2.264l-1.077.03c.019.68-.152 1.171-.462 1.528l.814.706zm.725-2.264l-.117-4.226-1.076.03.116 4.226 1.077-.03zm-1.024-4.603l-.257.242.737.785.258-.242-.738-.785zm-.268.252c-.264.262-.994.749-2.28 1.478l.53.937c1.258-.713 2.124-1.268 2.509-1.651l-.759-.764zm-2.275 1.475c-.638.351-1.149.751-1.493 1.214l.863.643c.222-.297.592-.607 1.15-.914l-.52-.943zm-1.511 1.239c-.345.523-.476 1.188-.455 1.937l1.076-.03c-.017-.62.096-1.039.278-1.314l-.899-.593zm-.455 1.937c.022.788.257 1.481.731 2.047l.826-.692c-.296-.353-.464-.803-.48-1.385l-1.076.03zm.724 2.039c.493.612 1.161.914 1.951.893l-.03-1.077c-.462.013-.805-.147-1.083-.491l-.839.675zm11.279-20.139l.371.39.002-.002-.373-.388zm-1.41.01l-.39.371.01.01.01.01.37-.391zm-.038-1.38l-.408-.351-.002.002.41.349zm1.437-.069l-.37.391h0l.37-.391zm5.235 1.295l.371.39.01-.01.01-.01-.391-.37zm-1.41.009l-.37.391.009.009.01.009.351-.409zm-.038-1.379l.391.37-.391-.37zm1.408-.068l-.39.371.019.02.022.019.349-.41zm2.201 14.859l.371-.391-.371.391zm1.231-.122l.289-.454-.433-.276-.296.419.44.311zm1.106.704l.434.317.339-.463-.484-.309-.289.455zm-3.22.382l-.38.382.01.009.37-.391zm-.687-1.449l.536-.052-.141-1.462-.837 1.207.442.307zm-7.786-1.195l-.538.014v.014l.001.014.537-.042zm-.629-6.826l-.404.356.005.006.005.005.394-.367zm-.873-.769l-.456-.286-.291.464.469.283.278-.461zm.675-1.076l.294-.451-.459-.299-.291.464.456.286zm1.754 1.831l.494-.213-.005-.012-.005-.012-.484.237zm1.023 8.313l-.396.366.009.008.008.009.379-.383zm4.169-.056l.32.432.011-.008.01-.008-.341-.416zm1.654-1.779l.435.317.108-.148-.005-.184-.538.015zm-.231-8.364l-.015-.538-.538.015.015.538.538-.015zm1.262-.034l.538-.015-.015-.538-.538.014.015.539zm-7.068-3.535c.003.112-.03.206-.138.31l.746.776c.311-.299.48-.68.468-1.116l-1.076.03zm-.136.308c-.09.086-.194.131-.341.135l.03 1.077c.401-.011.762-.155 1.053-.432l-.742-.78zm-.341.135c-.13.004-.229-.033-.328-.126l-.74.782a1.5 1.5 0 0 0 1.098.421l-.03-1.077zm-.308-.106c-.093-.099-.131-.196-.134-.312l-1.077.03c.011.392.162.74.431 1.024l.78-.742zm-.134-.312c-.004-.147.036-.253.116-.348l-.82-.698a1.56 1.56 0 0 0-.373 1.076l1.077-.03zm.114-.346c.098-.113.191-.152.303-.155l-.03-1.076c-.436.012-.807.202-1.089.529l.816.702zm.303-.155a.46.46 0 0 1 .356.126l.741-.782c-.312-.295-.701-.432-1.127-.42l.03 1.076zm.356.126c.091.086.142.189.146.35l1.076-.03a1.53 1.53 0 0 0-.481-1.102l-.741.782zm5.34.206c.004.13-.033.229-.126.328l.782.74a1.5 1.5 0 0 0 .421-1.097l-1.077.029zm-.106.308a.48.48 0 0 1-.341.135l.029 1.077c.401-.011.762-.155 1.054-.432l-.742-.78zm-.341.135c-.102.003-.212-.028-.347-.144l-.702.817c.307.263.671.415 1.078.404l-.029-1.077zm-.328-.127c-.107-.101-.141-.192-.144-.29l-1.076.029a1.46 1.46 0 0 0 .48 1.043l.74-.782zm-.144-.29c-.003-.13.034-.229.127-.328l-.782-.74c-.287.304-.433.679-.421 1.097l1.076-.029zm.127-.328c.132-.139.235-.172.319-.174l-.029-1.076c-.425.011-.785.207-1.072.51l.782.74zm.319-.174c.161-.004.244.04.308.107l.78-.742c-.299-.315-.691-.453-1.117-.441l.029 1.076zm.349.146c.062.053.119.138.124.33l1.077-.029c-.012-.434-.164-.833-.503-1.121l-.698.82zm1.733 13.913c.01.375.192.686.447.927l.741-.782c-.107-.101-.111-.158-.112-.174l-1.076.029zm.447.927c.255.241.576.406.95.396l-.029-1.077c-.017.001-.074 0-.18-.101l-.741.782zm.95.396c.457-.013.831-.232 1.09-.598l-.879-.622c-.08.113-.15.141-.24.143l.029 1.077zm.362-.455l1.106.704.578-.909-1.106-.703-.578.908zm.96-.068c-.365.499-.794.723-1.316.738l.03 1.076c.887-.024 1.614-.439 2.155-1.179l-.869-.635zm-1.316.738c-.421.011-.778-.125-1.099-.429l-.74.782a2.54 2.54 0 0 0 1.869.723l-.03-1.076zm-1.09-.42a1.76 1.76 0 0 1-.53-1.119l-1.071.103a2.83 2.83 0 0 0 .842 1.78l.759-.764zm-1.508-1.374c-.85 1.225-1.949 1.831-3.332 1.869l.029 1.077c1.747-.049 3.155-.844 4.188-2.333l-.885-.613zm-3.332 1.869c-1.18.033-1.995-.213-2.529-.65-.526-.43-.864-1.115-.946-2.15l-1.074.085c.098 1.232.521 2.229 1.338 2.898.807.661 1.915.93 3.24.894l-.029-1.077zm-3.474-2.772l-.163-5.899-1.076.03.163 5.898 1.076-.029zm-.163-5.899c-.013-.477-.262-.906-.61-1.279l-.788.734c.258.276.319.465.322.575l1.076-.03zm-.6-1.268c-.326-.37-.658-.668-.998-.874l-.557.922c.217.131.467.346.747.664l.808-.712zm-.821-.127l.675-1.076-.912-.572-.675 1.076.912.572zm-.074-.911c.782.509 1.287 1.053 1.564 1.618l.967-.475c-.387-.787-1.051-1.464-1.944-2.045l-.587.902zm1.553 1.594c.099.228.151.462.157.706l1.077-.03a2.96 2.96 0 0 0-.246-1.103l-.988.427zm.157.706l.146 5.283 1.076-.03-.145-5.283-1.077.03zm.146 5.283c.028 1.021.269 1.882.818 2.476l.791-.732c-.298-.322-.508-.879-.533-1.774l-1.076.03zm.835 2.493c.588.582 1.441.802 2.437.774l-.03-1.076c-.842.023-1.352-.17-1.65-.464l-.757.766zm2.437.774c.932-.025 1.752-.277 2.431-.781l-.641-.865c-.472.351-1.069.549-1.82.57l.03 1.076zm2.452-.797c.633-.519 1.215-1.146 1.748-1.878l-.87-.634c-.486.667-1.007 1.225-1.561 1.679l.683.833zm1.851-2.21l-.231-8.363-1.076.029.231 8.364 1.076-.03zm-.754-7.81l1.262-.035-.03-1.077-1.262.035.03 1.077zm.709-.559l.273 9.89 1.076-.029-.273-9.89-1.076.029zm5.301-3.053l-.015-.539-.538.015.015.538.538-.014zm1.291-.036l.538-.015-.015-.538-.538.015.015.538zm.082 2.964l-.538.015.015.538.538-.015-.015-.538zm3.698-.102l.538-.015-.015-.538-.538.015.015.538zm.035 1.291l.015.538.538-.014-.015-.539-.538.015zm-3.697.102l-.015-.538-.538.015.014.538.539-.015zm3.211 8.899l.321.432.007-.005.007-.006-.335-.421zm.883-.994l.311-.439-.483-.342-.295.513.467.268zm.959.679l.484.236.201-.411-.374-.265-.311.44zm-3.132 1.456c-.864.024-1.431-.219-1.804-.648-.39-.45-.645-1.194-.676-2.328l-1.077.03c.035 1.253.318 2.286.94 3.003.638.737 1.554 1.05 2.647 1.02l-.03-1.077zm-2.48-2.976l-.312-11.298-1.076.029.311 11.299 1.077-.03zm-.835-10.745l1.291-.036-.03-1.076-1.291.035.03 1.077zm.738-.559l.082 2.964 1.076-.03-.082-2.964-1.076.03zm.635 3.487l3.698-.102-.03-1.076-3.698.102.03 1.076zm3.144-.625l.036 1.291 1.076-.03-.035-1.291-1.077.03zm.559.738l-3.697.102.029 1.076 3.698-.102-.03-1.076zm-4.221.655l.195 7.043 1.076-.029-.194-7.044-1.077.03zm.195 7.043c.023.835.196 1.554.605 2.069.431.543 1.055.774 1.773.754l-.029-1.076c-.456.012-.723-.124-.901-.348-.2-.251-.352-.697-.372-1.428l-1.076.029zm2.378 2.823c.539-.015 1.041-.21 1.498-.55l-.641-.865c-.31.23-.603.331-.886.339l.029 1.076zm1.512-.561c.427-.339.77-.72 1.015-1.147l-.934-.536c-.165.289-.411.57-.75.84l.669.843zm.237-.975l.959.678.622-.879-.959-.678-.622.879zm.786.002c-.279.571-.635.978-1.058 1.249s-.946.427-1.59.444l.03 1.077c.804-.022 1.525-.22 2.14-.614s1.095-.964 1.446-1.683l-.968-.473zm4.183-1.921l.015.538.529-.015-.005-.528-.539.005zm-1.32.036l-.538.025.024.528.529-.015-.015-.538zm-.588-12.789l-.015-.538-.548.015.025.548.538-.025zm1.79-.049l.539-.005-.005-.549-.549.016.015.538zm.258 14.648l-.387.375.016.016.018.016.353-.407zm.043 1.585l-.374-.387-.009.008-.008.009.391.37zm-1.614.044l-.386.375.016.017.017.015.353-.407zm1.417-4.014l-1.321.037.03 1.076 1.32-.036-.029-1.077zm-.768.55l-.588-12.789-1.076.05.588 12.789 1.076-.05zm-1.111-12.226l1.79-.049-.03-1.076-1.79.049.03 1.076zm1.237-.582l.118 12.802 1.077-.01-.118-12.802-1.077.01zm-.581 15.474c-.005-.175.045-.302.154-.416l-.783-.74c-.31.328-.46.734-.448 1.186l1.077-.03zm.154-.416c.136-.145.274-.203.435-.207l-.029-1.076c-.465.012-.869.205-1.189.543l.783.74zm.435-.207c.16-.004.282.044.401.167l.773-.75a1.57 1.57 0 0 0-1.203-.493l.029 1.076zm.435.199c.129.112.184.231.188.391l1.077-.03a1.57 1.57 0 0 0-.56-1.175l-.705.814zm.188.391c.005.159-.044.281-.166.4l.749.773a1.57 1.57 0 0 0 .494-1.203l-1.077.03zm-.183.417a.54.54 0 0 1-.407.176l.03 1.077c.451-.013.849-.185 1.159-.513l-.782-.74zm-.407.176a.64.64 0 0 1-.463-.168l-.706.813a1.72 1.72 0 0 0 1.199.432l-.03-1.077zm-.429-.136c-.137-.141-.189-.277-.193-.424l-1.077.03a1.68 1.68 0 0 0 .497 1.143l.773-.749z" fill="#000" mask="url(#A)"/></svg>