<svg width="48" height="48" viewBox="0 0 48 48" fill="none" xmlns="http://www.w3.org/2000/svg">
<path fill-rule="evenodd" clip-rule="evenodd" d="M23.8791 0.708008H27.2526C27.6836 0.708008 28.0969 0.879213 28.4017 1.18396C28.7064 1.48871 28.8776 1.90203 28.8776 2.33301C28.8776 2.76398 28.7064 3.17731 28.4017 3.48206C28.0969 3.7868 27.6836 3.95801 27.2526 3.95801H24.0026C18.8503 3.95801 15.1496 3.96234 12.3329 4.33934C9.56177 4.71201 7.89127 5.42267 6.65627 6.65551C5.42344 7.89051 4.71494 9.55884 4.34227 12.33C3.96527 15.1467 3.96094 18.8473 3.96094 23.9997C3.96094 29.152 3.96527 32.8527 4.34227 35.6693C4.71494 38.4405 5.4256 40.111 6.65844 41.346C7.89344 42.5788 9.56177 43.2873 12.3329 43.66C15.1496 44.037 18.8503 44.0413 24.0026 44.0413C29.1549 44.0413 32.8556 44.037 35.6723 43.66C38.4434 43.2873 40.1139 42.5767 41.3489 41.3438C42.5818 40.1088 43.2903 38.4405 43.6629 35.6693C44.0399 32.8527 44.0443 29.152 44.0443 23.9997V20.7497C44.0443 20.3187 44.2155 19.9054 44.5202 19.6006C44.825 19.2959 45.2383 19.1247 45.6693 19.1247C46.1003 19.1247 46.5136 19.2959 46.8183 19.6006C47.1231 19.9054 47.2943 20.3187 47.2943 20.7497V24.1232C47.2943 29.126 47.2943 33.0455 46.8826 36.1048C46.4623 39.2335 45.5826 41.7035 43.6456 43.6427C41.7064 45.5818 39.2364 46.4593 36.1056 46.8797C33.0484 47.2913 29.1289 47.2913 24.1261 47.2913H23.8791C18.8763 47.2913 14.9568 47.2913 11.8974 46.8797C8.76877 46.4593 6.29877 45.5797 4.3596 43.6427C2.42044 41.7035 1.54294 39.2335 1.1226 36.1027C0.710938 33.0455 0.710938 29.126 0.710938 24.1232V23.8762C0.710938 18.8733 0.710938 14.9538 1.1226 11.8945C1.54294 8.76584 2.4226 6.29584 4.3596 4.35667C6.29877 2.41751 8.76877 1.54001 11.8996 1.11967C14.9568 0.708008 18.8763 0.708008 23.8791 0.708008ZM34.3376 2.93101C35.7675 1.54055 37.6872 0.768777 39.6816 0.782603C41.676 0.796428 43.5848 1.59474 44.9952 3.00489C46.4057 4.41504 47.2044 6.3237 47.2186 8.31811C47.2328 10.3125 46.4614 12.2324 45.0713 13.6625L30.6673 28.0687C29.8634 28.8703 29.3586 29.3773 28.7974 29.815C28.1351 30.3325 27.418 30.7757 26.6589 31.1367C26.0154 31.4422 25.3373 31.6675 24.2604 32.0272L17.9663 34.1245C17.3968 34.3142 16.7858 34.3415 16.2017 34.2036C15.6176 34.0656 15.0834 33.7677 14.659 33.3433C14.2346 32.9189 13.9367 32.3847 13.7987 31.8006C13.6607 31.2165 13.6881 30.6055 13.8778 30.036L15.9751 23.7418C16.3348 22.6628 16.5601 21.9868 16.8656 21.3433C17.2296 20.5836 17.6702 19.8707 18.1873 19.2048C18.6249 18.6415 19.1298 18.1388 19.9336 17.335L34.3376 2.93101ZM42.7724 5.22767C41.9586 4.41424 40.8551 3.95729 39.7044 3.95729C38.5538 3.95729 37.4503 4.41424 36.6364 5.22767L35.8218 6.04451C35.868 6.25395 35.9388 6.49806 36.0341 6.77684C36.3439 7.67167 36.9333 8.85034 38.0426 9.95967C39.1229 11.0403 40.4759 11.8078 41.9578 12.1805L42.7724 11.3658C43.5859 10.552 44.0428 9.44848 44.0428 8.29784C44.0428 7.1472 43.5859 6.04149 42.7724 5.22767ZM39.3968 14.7437C38.0325 14.1554 36.7927 13.3128 35.7438 12.2607C34.6917 11.2117 33.849 9.97194 33.2608 8.60767L22.3083 19.558C21.4048 20.4615 21.0516 20.819 20.7483 21.2047C20.3799 21.6831 20.0626 22.1987 19.8014 22.743C19.5891 23.1828 19.4288 23.6595 19.0236 24.8707L18.0898 27.6765L20.3258 29.9147L23.1316 28.9787C24.3449 28.5735 24.8194 28.4132 25.2614 28.203C25.8074 27.943 26.3202 27.626 26.7998 27.2518C27.1833 26.9507 27.5408 26.5975 28.4443 25.6962L39.3968 14.7437Z" fill="#7E58FF"/>
</svg>
