<svg width="49" height="49" viewBox="0 0 49 49" fill="none" xmlns="http://www.w3.org/2000/svg">
<circle cx="24.4114" cy="24.4114" r="24.4114" fill="#7E58FF"/>
<path d="M18.9865 12.4473C18.6437 12.7997 18.4512 13.2777 18.4512 13.7761C18.4512 14.2744 18.6437 14.7524 18.9865 15.1049L28.0376 24.4083L18.9865 33.7118C18.6535 34.0663 18.4692 34.541 18.4733 35.0338C18.4775 35.5266 18.6698 35.998 19.0088 36.3465C19.3478 36.695 19.8064 36.8926 20.2859 36.8969C20.7653 36.9012 21.2272 36.7117 21.572 36.3694L31.9158 25.7371C32.2586 25.3847 32.4512 24.9067 32.4512 24.4083C32.4512 23.9099 32.2586 23.432 31.9158 23.0795L21.572 12.4473C21.2291 12.0949 20.7641 11.897 20.2793 11.897C19.7944 11.897 19.3294 12.0949 18.9865 12.4473Z" fill="white"/>
</svg>
