<svg width="46" height="46" viewBox="0 0 46 46" fill="none" xmlns="http://www.w3.org/2000/svg">
<path d="M39.234 21.4906L32.9916 27.7329C31.9684 28.7575 30.6969 29.499 29.3014 29.8852C27.9058 30.2713 26.434 30.2888 25.0297 29.9359C24.974 29.997 24.9183 30.0563 24.859 30.1156L18.6166 36.3579C17.8421 37.1514 16.9178 37.7832 15.8972 38.2167C14.8767 38.6503 13.7802 38.877 12.6714 38.8836C11.5627 38.8903 10.4636 38.6768 9.43789 38.2556C8.41221 37.8344 7.48034 37.2137 6.69629 36.4297C5.91224 35.6456 5.29161 34.7138 4.87037 33.6881C4.44913 32.6624 4.23567 31.5633 4.24234 30.4545C4.24901 29.3457 4.4757 28.2493 4.90925 27.2288C5.34281 26.2082 5.97461 25.2839 6.76804 24.5093L13.0104 18.267C14.0338 17.2428 15.3053 16.5014 16.7008 16.1153C18.0963 15.7292 19.568 15.7115 20.9723 16.064C21.028 16.0029 21.0837 15.9436 21.152 15.8843L27.3854 9.642C28.963 8.1019 31.0841 7.24567 33.2888 7.25894C35.4935 7.27221 37.6041 8.15391 39.1631 9.71289C40.7221 11.2719 41.6038 13.3825 41.617 15.5872C41.6303 17.7919 40.7741 19.913 39.234 21.4906Z" fill="#E3E5E5"/>
<path d="M43.126 15.8538C43.0539 18.3562 42.0249 20.7357 40.251 22.5022L34.0069 28.7499C33.0975 29.6643 32.0157 30.3893 30.8242 30.8828C29.6327 31.3763 28.3552 31.6285 27.0656 31.6249H27.0566C25.7449 31.624 24.4468 31.3602 23.2388 30.8492C22.0308 30.3381 20.9374 29.5901 20.0234 28.6494C19.1093 27.7087 18.393 26.5944 17.9169 25.3722C17.4407 24.15 17.2143 22.8448 17.251 21.5337C17.2618 21.1524 17.4235 20.7911 17.7006 20.5291C17.9778 20.2671 18.3477 20.1259 18.729 20.1366C19.1102 20.1473 19.4716 20.3091 19.7336 20.5862C19.9956 20.8634 20.1368 21.2333 20.126 21.6145C20.0999 22.5416 20.2598 23.4645 20.5963 24.3287C20.9329 25.1929 21.4392 25.9809 22.0855 26.6461C22.7318 27.3113 23.5048 27.8401 24.3589 28.2015C25.2131 28.5629 26.1309 28.7493 27.0584 28.7499C27.97 28.7522 28.8731 28.5737 29.7154 28.2249C30.5577 27.8761 31.3225 27.3638 31.9656 26.7177L38.2098 20.4735C39.4981 19.169 40.2179 17.4078 40.2122 15.5744C40.2065 13.7409 39.4756 11.9843 38.1792 10.6878C36.8827 9.39139 35.126 8.66053 33.2926 8.65479C31.4592 8.64905 29.698 9.36891 28.3934 10.6572L26.4169 12.6338C26.1451 12.892 25.7832 13.0338 25.4084 13.029C25.0335 13.0242 24.6754 12.8732 24.4103 12.6081C24.1452 12.343 23.9942 11.9849 23.9894 11.61C23.9846 11.2352 24.1264 10.8733 24.3846 10.6015L26.3612 8.62494C27.2731 7.71272 28.3558 6.98908 29.5474 6.49538C30.739 6.00167 32.0163 5.74756 33.3061 5.74756C34.596 5.74756 35.8732 6.00167 37.0648 6.49538C38.2564 6.98908 39.3391 7.71272 40.251 8.62494C41.1956 9.57181 41.9375 10.701 42.4318 11.9437C42.9261 13.1865 43.1623 14.5168 43.126 15.8538ZM19.587 33.3607L17.6104 35.3373C16.9658 35.9863 16.1985 36.5007 15.3533 36.8505C14.5081 37.2004 13.6017 37.3786 12.687 37.3749C11.3147 37.3738 9.97354 36.966 8.83296 36.203C7.69238 35.44 6.80356 34.356 6.27879 33.088C5.75403 31.82 5.61688 30.425 5.88466 29.0791C6.15244 27.7332 6.81315 26.4969 7.78329 25.5263L14.0167 19.2822C14.9984 18.2952 16.2543 17.6263 17.6212 17.3622C18.988 17.0982 20.4027 17.2512 21.6815 17.8014C22.9602 18.3517 24.044 19.2738 24.792 20.4478C25.54 21.6219 25.9177 22.9938 25.876 24.3853C25.8708 24.5741 25.9028 24.7621 25.9702 24.9385C26.0376 25.1149 26.1391 25.2764 26.2689 25.4135C26.3988 25.5507 26.5544 25.6609 26.7268 25.7379C26.8993 25.815 27.0852 25.8572 27.274 25.8624H27.3135C27.688 25.8625 28.0478 25.7165 28.3163 25.4554C28.5847 25.1943 28.7407 24.8387 28.751 24.4644C28.7853 23.1298 28.5481 21.8022 28.0539 20.5621C27.5597 19.322 26.8188 18.1951 25.876 17.2499C24.0346 15.4093 21.5375 14.3753 18.9338 14.3753C16.3301 14.3753 13.833 15.4093 11.9916 17.2499L5.75103 23.4941C4.37863 24.8659 3.44369 26.6138 3.06436 28.5168C2.68503 30.4199 2.87833 32.3926 3.61984 34.1858C4.36136 35.979 5.61779 37.5122 7.23038 38.5915C8.84296 39.6709 10.7393 40.248 12.6798 40.2499C13.9697 40.2537 15.2476 40.0015 16.4393 39.508C17.6311 39.0145 18.7132 38.2895 19.6229 37.3749L21.5995 35.3984C21.8321 35.1244 21.9536 34.7731 21.9401 34.4139C21.9266 34.0547 21.779 33.7136 21.5264 33.4579C21.2738 33.2022 20.9346 33.0503 20.5756 33.0323C20.2166 33.0143 19.8639 33.1315 19.587 33.3607Z" fill="black"/>
</svg>
