<svg width="59" height="59" viewBox="0 0 59 59" fill="none" xmlns="http://www.w3.org/2000/svg">
<g clip-path="url(#clip0_1081_1116)">
<path d="M33.4261 19.1897C30.7975 18.0122 27.7665 20.2775 27.7665 23.1185C27.7665 23.2505 27.7769 23.3878 27.7926 23.5198L26.2092 23.7627C26.136 23.1977 25.9531 22.6432 25.6343 22.1469C24.5421 20.4465 21.8612 19.6808 20.1367 20.8003C18.4069 21.5238 17.5708 23.6043 17.9575 25.4103L16.3584 25.7377C15.5745 22.9548 11.9373 21.2281 9.41324 22.9865C9.38188 23.0023 9.36098 23.0287 9.34008 23.0551C7.26018 20.8954 4.9608 18.9468 2.67188 17.0141C5.92759 16.9983 9.13104 17.2729 12.3972 17.3785C13.0139 20.5521 16.7608 22.2102 19.3267 20.0294C20.5234 19.0049 21.0408 17.3943 20.5077 15.8735C20.0688 14.622 18.8668 13.4497 17.5029 13.4233C17.5342 13.3653 17.5551 13.2913 17.5551 13.2068C17.529 9.70581 17.7067 6.31567 18.4226 2.92554C19.8859 5.88795 21.3439 8.85564 22.8124 11.818C22.8646 11.9131 22.9221 11.9712 22.9796 12.0293C21.5059 14.189 22.2062 17.3363 24.6519 18.5138C27.317 19.7865 30.4735 17.7323 30.2801 14.7171C30.2801 14.6432 30.2488 14.5745 30.2226 14.5059C33.5097 13.7138 36.7654 12.7897 40.0211 11.8709C37.983 14.1837 35.8143 16.3646 33.6247 18.5508C33.4261 18.7515 33.3843 18.9785 33.4313 19.1845L33.4261 19.1897Z" fill="#D8D8D8"/>
<path d="M31.9007 31.3878C31.8589 28.4835 27.9291 27.0102 25.7133 28.7687C23.3512 30.6274 23.9888 34.4823 26.7533 35.3219C26.5704 35.4328 26.4345 35.6229 26.4606 35.9186C26.7428 39.0975 26.9675 42.2817 27.1504 45.4659C25.3527 42.5616 23.5446 39.652 21.5065 36.9272C21.4333 36.8321 21.3497 36.7688 21.2557 36.7424L21.2713 36.6843C21.3445 36.7001 21.4438 36.7001 21.5483 36.6684C22.9541 36.2671 23.4453 34.514 23.2572 33.1832C23.0429 31.6624 22.0082 30.4901 20.5606 30.0307C17.4565 29.038 13.0354 31.5938 13.7722 35.1899C11.0809 36.6368 8.35301 37.9991 5.59375 39.3034C7.54822 36.2249 9.55495 33.1304 11.1959 29.8829C13.4796 31.5463 16.6517 29.4182 16.5001 26.6353C16.4844 26.3343 16.4322 26.0281 16.3486 25.7429L17.9477 25.4155C18.0052 25.7007 18.1045 25.9858 18.2299 26.2551C19.2385 28.4096 22.1075 29.3337 24.1665 28.1561C25.6558 27.2954 26.4293 25.4578 26.1993 23.7627L27.7828 23.5198C28.065 26.102 31.028 28.1033 33.3013 26.6353C33.317 26.836 33.4162 27.0314 33.6619 27.1581C36.4107 28.5944 39.2013 29.941 42.0389 31.203C38.6578 31.1925 35.2714 31.2136 31.8955 31.3878H31.9007Z" fill="#D8D8D8"/>
<path d="M42.0424 31.2031C39.2048 29.941 36.4141 28.5945 33.6653 27.1581C33.4249 27.0314 33.3257 26.836 33.3048 26.6354C31.0315 28.1087 28.0684 26.1073 27.7862 23.5198C27.7706 23.3878 27.7601 23.2505 27.7601 23.1185C27.7601 20.2723 30.7911 18.0122 33.4197 19.1897L33.8169 19.6861C33.8012 19.9237 33.6444 20.1508 33.3831 20.1138C31.6168 19.8762 29.5265 20.5257 29.1554 22.5429C28.6903 25.0248 31.0054 26.3449 33.0435 25.2835C33.4615 25.067 33.9162 25.3997 33.958 25.7905C34.0991 25.7641 34.2506 25.7746 34.4074 25.8591C38.1387 27.8182 41.9431 29.6136 45.8416 31.2295C46.5732 31.5305 46.5419 32.6922 45.643 32.7028C40.783 32.7186 35.8863 32.8453 31.0211 32.576C30.4985 32.5496 30.3574 32.011 30.5821 31.6783C30.373 30.8704 30.1065 30.1628 29.3226 29.677C28.4343 29.1225 27.3734 29.2545 26.5582 29.8935C24.6507 31.3932 25.8265 33.78 27.6556 34.6038C27.9744 34.7463 27.9221 35.2163 27.6713 35.3959C27.8124 35.5226 27.9221 35.6916 27.9378 35.9239C28.3036 40.0375 28.5806 44.1616 28.7687 48.2911C28.8001 49.0462 27.7862 49.2416 27.4204 48.6607C25.1054 44.959 22.6597 41.3048 20.6529 37.4289C20.4126 36.9589 20.8672 36.6051 21.2539 36.7477C21.348 36.7741 21.4264 36.8427 21.5048 36.9325C23.5428 39.6573 25.351 42.5669 27.1487 45.4712C26.9658 42.2817 26.7411 39.1028 26.4589 35.9239C26.4327 35.6282 26.5686 35.4381 26.7515 35.3272C23.987 34.4876 23.3443 30.6328 25.7116 28.774C27.9273 27.0156 31.8572 28.4889 31.899 31.3932C35.2697 31.2189 38.6613 31.1978 42.0424 31.2084V31.2031Z" fill="#1D1D1B"/>
<path d="M24.4908 22.8228C23.477 21.3178 21.6688 21.4921 20.237 22.131C20.1533 22.1627 20.0802 22.1838 20.0018 22.1838C19.2702 23.1343 18.8678 24.3119 19.3381 25.5264C19.9234 27.0314 21.8517 27.7707 23.2993 27.1106C24.8253 26.4188 25.4367 24.2327 24.4908 22.828V22.8228ZM20.1377 20.8056C21.8622 19.6861 24.5431 20.4518 25.6353 22.1521C25.954 22.6485 26.137 23.203 26.2101 23.768C26.4453 25.4578 25.6666 27.3007 24.1773 28.1614C22.1183 29.339 19.2493 28.4149 18.2407 26.2604C18.1153 25.9911 18.016 25.706 17.9585 25.4208C17.577 23.6096 18.4079 21.5343 20.1377 20.8109V20.8056Z" fill="#1D1D1B"/>
<path d="M12.392 17.3838C9.12581 17.2835 5.92236 17.0036 2.66665 17.0194C4.95557 18.9521 7.25495 20.9007 9.33485 23.0604C9.36098 23.034 9.37666 23.0076 9.40801 22.9918C11.9321 21.2333 15.5693 22.9601 16.3532 25.743C16.4368 26.0281 16.4838 26.3344 16.5047 26.6354C16.6563 29.4183 13.4842 31.5463 11.2005 29.8829C9.55956 33.1305 7.55283 36.2249 5.59836 39.3035C8.35239 37.9992 11.0855 36.6368 13.7768 35.1899C13.0348 31.5991 17.4558 29.038 20.5652 30.0308C22.0128 30.4955 23.0475 31.6625 23.2618 33.1833C23.4551 34.514 22.9639 36.2619 21.5529 36.6685C21.4536 36.7002 21.3543 36.7002 21.2759 36.6843C20.8945 36.5893 20.7325 36.0612 21.0199 35.7338C21.7201 34.8942 22.2271 34.1761 21.903 33.0143C21.579 31.8526 20.5025 31.2136 19.3633 31.1239C17.0012 30.9285 14.8168 32.782 14.6861 35.153C15.0519 35.4381 15.1774 36.0507 14.66 36.3305C11.19 38.1999 7.6678 39.9477 4.07763 41.5742C3.49233 41.8435 2.7189 41.2626 3.1213 40.6131C5.5879 36.6579 7.90296 32.518 10.7406 28.8268C10.9653 28.5417 11.2998 28.6948 11.4409 28.9536C13.3326 30.0836 15.5798 28.3621 15.0519 26.2024C14.7854 25.1146 13.9754 24.2908 12.9302 23.9634C11.8537 23.6254 10.9392 23.937 9.89924 24.1377C9.63272 24.1905 9.41846 24.0954 9.28259 23.9423C9.17285 23.9845 9.04743 23.974 8.922 23.8895C5.85965 21.7667 3.06904 19.2531 0.231394 16.8399C-0.285966 16.4016 0.163458 15.6095 0.738303 15.5884C4.64202 15.4036 8.78091 15.3032 12.6271 16.0742C12.9668 16.1429 13.1079 16.4386 13.087 16.729C13.1863 16.7871 13.2699 16.8716 13.3222 17.0089C14.0224 18.8835 16.071 20.4096 18.0098 19.2531C18.9086 18.7145 19.5253 17.6901 19.2744 16.6128C18.9975 15.4669 18.1091 14.997 17.0848 14.6696C16.5936 14.5112 16.5361 14.0042 16.7765 13.6874C16.6458 13.6293 16.5361 13.529 16.4995 13.3441C15.7992 9.04574 16.2905 4.71038 17.4506 0.53872C17.6178 -0.0579868 18.5167 -0.237527 18.8146 0.36446C20.5652 3.93414 22.3263 7.49325 24.0666 11.0682C24.1397 11.2108 24.1502 11.3481 24.1345 11.4695C24.286 11.6227 24.3488 11.8392 24.2181 12.061C23.2252 13.7032 23.0005 15.9422 24.8243 17.1092C26.7317 18.329 29.005 16.9508 28.9214 14.7224C28.9057 14.4214 29.0625 14.2366 29.2611 14.1415C29.1461 13.8141 29.2454 13.4022 29.6791 13.2597C33.7449 11.9818 37.8785 10.9098 41.986 9.76919C42.7438 9.55796 43.1514 10.4768 42.702 11.0207C40.2302 14.0517 37.5911 17.0194 34.628 19.5858C34.372 19.8023 34.0689 19.8129 33.8285 19.6861L33.4313 19.1898C33.379 18.9891 33.4208 18.762 33.6247 18.5561C35.8143 16.3699 37.9778 14.189 40.0211 11.8761C36.7654 12.795 33.5097 13.7191 30.2226 14.5112C30.2488 14.5798 30.2801 14.6432 30.2801 14.7224C30.4735 17.7323 27.317 19.7865 24.6519 18.5191C22.2062 17.3415 21.5059 14.1943 22.9796 12.0346C22.9221 11.9765 22.8646 11.9184 22.8124 11.8233C21.3491 8.86092 19.8911 5.89324 18.4226 2.93083C17.7067 6.32096 17.5342 9.7111 17.5551 13.2121C17.5551 13.2966 17.5395 13.3705 17.5029 13.4286C18.8668 13.455 20.0688 14.622 20.5077 15.8788C21.0408 17.3996 20.5234 19.0102 19.3267 20.0346C16.7608 22.2155 13.0139 20.5574 12.3972 17.3838H12.392Z" fill="#1D1D1B"/>
<path d="M46.0667 29.1858C43.4381 28.0083 40.4071 30.2736 40.4071 33.1146C40.4071 33.2466 40.4175 33.3839 40.4332 33.5159L38.8498 33.7588C38.7766 33.1938 38.5937 32.6393 38.2749 32.143C37.1827 30.4426 34.5019 29.6769 32.7773 30.7964C31.0476 31.5199 30.2114 33.6004 30.5982 35.4064L28.999 35.7338C28.2152 32.9509 24.578 31.2241 22.0539 32.9826C22.0225 32.9984 22.0016 33.0248 21.9807 33.0512C19.9008 30.8915 17.6014 28.9429 15.3125 27.0102C18.5682 26.9944 21.7717 27.269 25.0378 27.3746C25.6545 30.5482 29.4014 32.2063 31.9673 30.0255C33.164 29.001 33.6814 27.3904 33.1484 25.8696C32.7094 24.6181 31.5075 23.4458 30.1435 23.4194C30.1749 23.3614 30.1958 23.2874 30.1958 23.2029C30.1696 19.7019 30.3473 16.3118 31.0633 12.9216C32.5265 15.884 33.9845 18.8517 35.453 21.8141C35.5052 21.9092 35.5627 21.9673 35.6202 22.0254C34.1465 24.1851 34.8468 27.3324 37.2925 28.5099C39.9577 29.7825 43.1141 27.7284 42.9207 24.7132C42.9207 24.6393 42.8894 24.5706 42.8633 24.502C46.1503 23.7099 49.406 22.7858 52.6617 21.8669C50.6237 24.1798 48.4549 26.3607 46.2653 28.5469C46.0667 28.7476 46.0249 28.9746 46.0719 29.1753L46.0667 29.1858Z" fill="#D8D8D8"/>
<path d="M44.5414 41.3893C44.4996 38.485 40.5697 37.0117 38.3539 38.7701C35.9919 40.6289 36.6294 44.4837 39.3939 45.3234C39.211 45.4342 39.0751 45.6243 39.1012 45.9201C39.3834 49.099 39.6082 52.2832 39.7911 55.4674C37.9934 52.563 36.1852 49.6534 34.1471 46.9287C34.074 46.8336 33.9904 46.7702 33.8963 46.7438L33.912 46.6857C33.9851 46.7016 34.0844 46.7016 34.1889 46.6699C35.5947 46.2686 36.0859 44.5154 35.8978 43.1847C35.6835 41.6639 34.6488 40.4916 33.2012 40.0322C30.0971 39.0395 25.676 41.5953 26.4129 45.1913C23.7215 46.6382 20.9936 48.0006 18.2344 49.3049C20.1888 46.2263 22.1956 43.1319 23.8365 39.8843C26.1202 41.5477 29.2923 39.4197 29.1408 36.6368C29.1251 36.3358 29.0728 36.0295 28.9892 35.7444L30.5883 35.417C30.6458 35.7021 30.7451 35.9873 30.8705 36.2566C31.8791 38.4111 34.7481 39.3352 36.8071 38.1576C38.2965 37.2969 39.0699 35.4592 38.84 33.7641L40.4234 33.5212C40.7056 36.1034 43.6687 38.1048 45.9419 36.6368C45.9576 36.8374 46.0569 37.0328 46.3025 37.1596C49.0513 38.5959 51.8419 39.9424 54.6795 41.2045C51.2984 41.1939 47.9121 41.2151 44.5361 41.3893H44.5414Z" fill="#D8D8D8"/>
<path d="M54.683 41.2045C51.8454 39.9425 49.0548 38.5959 46.306 37.1596C46.0656 37.0329 45.9663 36.8375 45.9454 36.6368C43.6721 38.1101 40.7091 36.1088 40.4269 33.5213C40.4112 33.3893 40.4007 33.252 40.4007 33.12C40.4007 30.2737 43.4317 28.0136 46.0603 29.1912L46.4575 29.6876C46.4418 29.9252 46.2851 30.1523 46.0238 30.1153C44.2574 29.8777 42.1671 30.5272 41.796 32.5444C41.3309 35.0263 43.646 36.3464 45.6841 35.285C46.1022 35.0685 46.5568 35.4012 46.5986 35.7919C46.7397 35.7655 46.8913 35.7761 47.048 35.8606C50.7793 37.8197 54.5837 39.6151 58.4822 41.2309C59.2139 41.5319 59.1825 42.6937 58.2836 42.7042C53.4236 42.7201 48.527 42.8468 43.6617 42.5775C43.1391 42.5511 42.998 42.0125 43.2227 41.6798C43.0137 40.8719 42.7472 40.1643 41.9633 39.6785C41.0749 39.124 40.014 39.256 39.1988 39.895C37.2914 41.3946 38.4672 43.7815 40.2962 44.6052C40.615 44.7478 40.5627 45.2178 40.3119 45.3973C40.453 45.5241 40.5627 45.693 40.5784 45.9254C40.9442 50.039 41.2212 54.1631 41.4093 58.2925C41.4407 59.0476 40.4269 59.243 40.0611 58.6622C37.746 54.9605 35.3003 51.3063 33.2936 47.4304C33.0532 46.9604 33.5078 46.6066 33.8945 46.7492C33.9886 46.7756 34.067 46.8442 34.1454 46.934C36.1835 49.6588 37.9916 52.5736 39.7893 55.4727C39.6064 52.2832 39.3817 49.1043 39.0995 45.9254C39.0734 45.6297 39.2092 45.4396 39.3921 45.3287C36.6277 44.4891 35.9849 40.6342 38.3522 38.7755C40.568 37.017 44.4978 38.4903 44.5396 41.3946C47.9103 41.2204 51.3019 41.1993 54.683 41.2098V41.2045Z" fill="#1D1D1B"/>
<path d="M37.1314 32.8241C36.1176 31.3192 34.3095 31.4934 32.8776 32.1324C32.794 32.1641 32.7208 32.1852 32.6424 32.1852C31.9108 33.1357 31.5084 34.3133 31.9787 35.5278C32.564 37.0328 34.4924 37.7721 35.9399 37.112C37.4659 36.4202 38.0773 34.2341 37.1314 32.8294V32.8241ZM32.7783 30.8017C34.5028 29.6822 37.1837 30.4479 38.2759 32.1482C38.5947 32.6446 38.7776 33.1991 38.8507 33.7641C39.0859 35.4539 38.3072 37.2968 36.8179 38.1575C34.7589 39.3351 31.8899 38.411 30.8813 36.2565C30.7559 35.9872 30.6566 35.7021 30.5991 35.4169C30.2176 33.6057 31.0485 31.5304 32.7783 30.807V30.8017Z" fill="#1D1D1B"/>
<path d="M25.0326 27.3799C21.7664 27.2796 18.563 26.9997 15.3073 27.0155C17.5962 28.9482 19.8956 30.8968 21.9755 33.0565C22.0016 33.0301 22.0173 33.0037 22.0486 32.9879C24.5727 31.2294 28.2099 32.9562 28.9938 35.7391C29.0774 36.0242 29.1297 36.3305 29.1454 36.6315C29.2969 39.4143 26.1248 41.5424 23.8411 39.879C22.2002 43.1266 20.1935 46.221 18.239 49.2996C20.993 47.9953 23.7261 46.6329 26.4175 45.186C25.6754 41.5952 30.0965 39.0341 33.2059 40.0269C34.6534 40.4916 35.6881 41.6586 35.9024 43.1794C36.0958 44.5101 35.6045 46.258 34.1935 46.6646C34.0943 46.6963 33.995 46.6963 33.9166 46.6804C33.5351 46.5854 33.3731 46.0573 33.6605 45.7299C34.3608 44.8903 34.8677 44.1721 34.5437 43.0104C34.2197 41.8487 33.1431 41.2097 32.0039 41.12C29.6418 40.9246 27.4574 42.7781 27.3268 45.1491C27.6926 45.4342 27.818 46.0468 27.3006 46.3266C23.8307 48.196 20.3084 49.9438 16.7183 51.5703C16.133 51.8396 15.3595 51.2587 15.7619 50.6092C18.2285 46.654 20.5436 42.514 23.3812 38.8229C23.6059 38.5378 23.9404 38.6909 24.0815 38.9497C25.9733 40.0744 28.2204 38.3582 27.6926 36.1985C27.426 35.1107 26.616 34.2869 25.5709 33.9595C24.4943 33.6215 23.5798 33.9331 22.5399 34.1338C22.2733 34.1866 22.0591 34.0915 21.9232 33.9384C21.8135 33.9806 21.688 33.9701 21.5626 33.8856C18.5003 31.7628 15.7097 29.2492 12.872 26.836C12.3547 26.3977 12.8041 25.6056 13.3789 25.5845C17.2826 25.3997 21.4215 25.2993 25.2678 26.0703C25.6074 26.1389 25.7485 26.4347 25.7276 26.7251C25.8269 26.7832 25.9105 26.8677 25.9628 27.005C26.6631 28.8796 28.7116 30.4057 30.6504 29.2492C31.5493 28.7106 32.1659 27.6862 31.9151 26.6089C31.6381 25.463 30.7497 24.9931 29.7254 24.6657C29.2342 24.5072 29.1767 24.0003 29.4171 23.6835C29.2865 23.6254 29.1767 23.5251 29.1401 23.3402C28.4399 19.0418 28.9311 14.7065 30.0912 10.5348C30.2585 9.93811 31.1573 9.75857 31.4552 10.3606C33.2059 13.9302 34.967 17.4893 36.7072 21.0643C36.7803 21.2069 36.7908 21.3442 36.7751 21.4656C36.9267 21.6188 36.9894 21.8353 36.8587 22.0571C35.8658 23.6993 35.6411 25.9383 37.4649 27.1053C39.3724 28.3251 41.6456 26.9469 41.562 24.7185C41.5463 24.4175 41.7031 24.2327 41.9017 24.1376C41.7867 23.8102 41.886 23.3983 42.3198 23.2557C46.3855 21.9778 50.5191 20.9059 54.6267 19.7653C55.3844 19.5541 55.792 20.4729 55.3426 21.0168C52.8708 24.0478 50.2317 27.0155 47.2687 29.5819C47.0126 29.7984 46.7095 29.809 46.4691 29.6822L46.0719 29.1858C46.0197 28.9852 46.0615 28.7581 46.2653 28.5575C48.4549 26.3713 50.6184 24.1904 52.6617 21.8775C49.406 22.7963 46.1503 23.7204 42.8632 24.5125C42.8894 24.5812 42.9207 24.6445 42.9207 24.7238C43.1141 27.7337 39.9577 29.7878 37.2925 28.5205C34.8468 27.3429 34.1465 24.1957 35.6202 22.0359C35.5627 21.9778 35.5052 21.9198 35.453 21.8247C33.9897 18.8623 32.5317 15.8946 31.0632 12.9322C30.3473 16.3223 30.1749 19.7125 30.1958 23.2135C30.1958 23.298 30.1801 23.3719 30.1435 23.43C31.5074 23.4564 32.7094 24.6234 33.1484 25.8802C33.6814 27.401 33.164 29.0116 31.9673 30.036C29.4014 32.2169 25.6545 30.5588 25.0378 27.3852L25.0326 27.3799Z" fill="#1D1D1B"/>
</g>
<defs>
<clipPath id="clip0_1081_1116">
<rect width="59" height="59" fill="white"/>
</clipPath>
</defs>
</svg>
