<svg width="40" height="40" viewBox="0 0 40 40" fill="none" xmlns="http://www.w3.org/2000/svg">
<path d="M17.8638 27.0907C17.77 27.2032 17.6794 27.3157 17.5857 27.422C17.4732 27.5501 17.3513 27.6938 17.22 27.8501C17.0169 28.0907 16.7982 28.3532 16.5607 28.6188C16.5763 28.6657 16.595 28.7126 16.6107 28.7595C16.6232 28.7907 16.6294 28.822 16.6419 28.8532C16.6669 28.9376 16.6919 29.022 16.7075 29.1063C16.7138 29.1407 16.7232 29.172 16.7294 29.2032C16.7513 29.3095 16.7669 29.4157 16.7763 29.5157C16.8138 30.0188 16.6888 30.6251 16.495 31.2126C17.7013 30.1407 18.7419 28.8438 19.3357 28.1001L19.4544 27.9532C19.5544 27.8282 19.6544 27.7001 19.7544 27.5751C19.7232 27.5751 19.695 27.5751 19.6638 27.572C18.9732 27.5313 18.3982 27.3501 17.8638 27.0907ZM8.77004 29.9657C8.88879 30.4251 9.13567 30.8095 9.44192 31.147C9.70442 31.4376 10.0044 31.7032 10.3044 31.9563C10.3075 31.9563 10.3107 31.9595 10.3138 31.9626C10.3669 32.0095 10.4325 32.0563 10.5013 32.1032C10.5232 32.1157 10.5513 32.1345 10.5763 32.1501C10.6294 32.1845 10.6825 32.2188 10.745 32.2501C10.7763 32.2688 10.8107 32.2876 10.845 32.3032C10.8575 32.3095 10.8732 32.3188 10.8857 32.322C10.9294 32.347 10.9763 32.3688 11.0232 32.3907C11.0607 32.4095 11.1013 32.4282 11.1419 32.4438C11.1919 32.4657 11.2388 32.4876 11.2888 32.5063C11.8232 31.8126 12.1825 31.147 12.2982 30.3751V30.372C12.3138 30.2532 12.3325 30.1407 12.3388 30.0188C12.32 30.0032 12.2982 29.9876 12.2794 29.972C12.0857 29.8126 11.9263 29.6282 11.8044 29.422C11.6763 29.2001 11.6013 28.9532 11.5919 28.6876C11.5888 28.5876 11.5919 28.4845 11.6075 28.3782C11.6919 27.8438 11.9669 27.3563 12.2888 26.9063C12.4575 26.6688 12.6388 26.4438 12.8107 26.2313C12.9513 26.0563 13.095 25.8845 13.2357 25.7095C13.2357 25.7063 13.2357 25.7063 13.2388 25.7063C13.6294 25.2313 14.0325 24.7688 14.4513 24.3251C14.7357 24.0251 15.0232 23.7345 15.3294 23.4563C15.8669 22.972 16.4669 22.4595 17.1544 22.2063C17.2825 22.1563 17.42 22.1376 17.5575 22.1345C17.5669 22.1345 17.5763 22.1282 17.5857 22.1282C17.5919 22.1282 17.5982 22.1313 17.6044 22.1313C17.6638 22.1313 17.72 22.1407 17.7763 22.147C17.8013 22.1532 17.8294 22.1532 17.8544 22.1595C17.9169 22.1751 17.9732 22.197 18.0325 22.222C18.0513 22.2282 18.0732 22.2345 18.0919 22.2438C18.195 22.2938 18.2825 22.372 18.37 22.4532C18.3919 22.4563 18.4107 22.4626 18.4357 22.4657C18.5013 22.4782 18.5638 22.4907 18.6263 22.5032C18.6357 22.5063 18.6482 22.5095 18.6607 22.5126C18.77 22.5376 18.87 22.5595 18.9732 22.5782C19.0232 22.5876 19.0669 22.597 19.1138 22.6063C19.1763 22.6157 19.2388 22.6251 19.2982 22.6282C19.3263 22.6313 19.3544 22.6345 19.3825 22.6345C19.4169 22.6376 19.445 22.6407 19.4794 22.6407C19.4888 22.6407 19.4982 22.6438 19.5107 22.6438C19.6232 22.6438 19.7388 22.6313 19.8544 22.6063C20.0388 22.5657 20.2294 22.4876 20.445 22.3595C20.6575 22.2313 20.8607 22.0751 21.0607 21.9095C21.1294 21.8532 21.195 21.7938 21.2607 21.7345C20.9982 21.1626 20.5888 20.7063 20.1263 20.2876C20.0732 20.2407 20.0232 20.1907 19.97 20.1438C19.8575 20.0438 19.7388 19.9563 19.6169 19.8657C19.0982 19.4782 18.5044 19.1782 17.8669 19.0595C17.7388 19.0376 17.6044 19.0376 17.4732 19.022C17.3638 19.0126 17.2575 18.9938 17.1513 18.9938C17.0888 18.9907 17.0263 18.9907 16.9638 18.9907C16.8263 18.9938 16.6919 19.0063 16.5544 19.022C16.4888 19.0282 16.4263 19.0345 16.3638 19.0438C16.295 19.0563 16.2263 19.0813 16.1544 19.097C16.0325 19.1251 15.9075 19.147 15.7888 19.1876C14.8544 19.5126 14.0325 20.1001 13.295 20.7626C12.9982 21.0282 12.7107 21.3095 12.4357 21.5907C12.3575 21.672 12.2794 21.7595 12.2013 21.8407C10.9794 23.1313 9.81692 24.6282 9.16379 26.3063C9.02317 26.672 8.89504 27.0407 8.80754 27.4251C8.75129 27.6688 8.71379 27.9188 8.68879 28.1688C8.62942 28.7063 8.63879 29.2532 8.74504 29.8063C8.73879 29.8626 8.75754 29.9126 8.77004 29.9657Z" fill="#D0D2D3"/>
<path d="M35.3141 8.7126C35.2484 8.36572 35.1203 8.04697 34.9859 7.73135C34.8484 7.40947 34.7047 7.09072 34.6109 6.7501C34.4828 6.2876 34.5891 5.77822 34.3672 5.34385C34.0234 4.66572 33.2891 4.39697 32.7328 3.94072C32.1984 3.50322 31.8109 2.89697 31.1922 2.56572C30.9734 2.4501 30.7359 2.43447 30.5141 2.32822C30.3859 2.2626 30.2766 2.20635 30.1391 2.15947C30.0016 2.1126 29.8703 2.09385 29.7391 2.0876C29.6734 2.05947 29.6078 2.02197 29.5453 1.99385C28.6297 1.61885 27.6922 1.42822 26.7547 1.42822C24.3578 1.42822 22.0484 2.7001 20.4109 4.9251C18.9391 6.9251 17.6578 9.06572 16.5984 11.2907C16.4484 11.6063 16.2734 11.9626 16.0797 12.3532C15.2953 13.9438 13.9172 16.7407 13.4297 18.9563C14.0016 18.5501 14.6297 18.1938 15.3359 17.947C15.6516 17.8376 15.9859 17.7688 16.3297 17.7251C16.4859 17.3001 16.7016 16.922 16.8953 16.5907L16.9266 16.5345L17.0297 16.3595C17.9922 14.7001 19.9922 11.2438 21.1016 9.88135C21.5047 9.3876 21.9984 8.82822 22.6203 8.45322C22.9516 8.25322 23.3578 8.03135 23.8609 7.9001C24.1797 7.81885 24.5016 7.77822 24.8234 7.77822C24.8516 7.77822 24.8766 7.78135 24.9016 7.78447C24.9078 7.79385 24.9109 7.80322 24.9172 7.80947C25.1953 8.15947 25.9016 8.26885 26.3047 8.41885C26.6078 8.53135 26.9453 8.60635 27.2359 8.7501C27.5547 8.90947 27.8641 9.06885 28.0859 9.34385C28.3203 9.6376 28.5078 9.9626 28.6422 10.3126C28.8891 10.9626 28.9234 11.6688 28.8203 12.3532C28.5203 14.3157 27.1234 16.2626 26.3516 17.3345L26.2922 17.4157C25.9953 17.8282 25.7141 18.2501 25.4141 18.7001C24.7578 19.6813 24.0797 20.697 23.2359 21.6095C23.0797 21.7782 22.9234 21.947 22.7641 22.1126L22.6828 22.1938C22.5141 22.3657 22.3422 22.5313 22.1641 22.6938C21.9797 22.8595 21.7922 23.0157 21.5953 23.1626C21.4391 23.2813 21.2797 23.3938 21.1141 23.497C20.6516 23.7782 19.9266 24.1188 19.3828 23.8751C19.1516 23.7688 18.9578 23.5813 18.7391 23.4501C18.4141 23.2563 18.0516 23.0782 17.6922 22.9626C17.5047 22.9001 17.3016 22.7688 17.0891 22.7813C16.7453 22.8001 16.2203 23.2126 16.0016 23.4563C15.7703 23.7126 15.5672 24.1001 15.5609 24.447C15.5547 24.8751 15.7516 25.0188 16.0953 25.2751C16.5078 25.5813 17.0172 25.722 17.4672 25.972C17.9547 26.2438 18.5891 26.4907 19.1578 26.4095C19.6828 26.3345 20.1953 26.2938 20.7266 26.2376C21.0172 26.2095 21.3047 26.1626 21.5828 26.0907C21.6859 26.0657 21.7891 26.0282 21.8953 25.997C22.0891 25.9376 22.2828 25.872 22.4703 25.7938C23.6453 25.3032 24.7609 24.4595 26.0453 23.3095C27.4359 22.072 28.6641 20.7001 29.9703 19.2501L30.1891 19.0063C30.9766 18.1313 31.7109 17.1188 32.4234 16.1376C32.6984 15.7563 32.9734 15.3782 33.2516 15.0063C33.4984 14.6751 33.7203 14.347 33.9297 14.0188C34.9172 12.4501 35.6734 10.5782 35.3141 8.7126Z" fill="#D0D2D3"/>
<path d="M21.4609 27.4376C21.4766 27.4345 21.4922 27.4345 21.5047 27.4313C21.6391 27.4063 21.7703 27.3813 21.9016 27.3501C21.7734 27.3813 21.6391 27.4032 21.5078 27.4313C21.4922 27.4313 21.4766 27.4345 21.4609 27.4376ZM20.4453 27.5532H20.6016C20.7078 27.547 20.8141 27.5345 20.9172 27.522C20.8172 27.5345 20.7109 27.5376 20.6078 27.5438C20.5547 27.5501 20.4984 27.5532 20.4453 27.5532ZM6.32656 34.4345C6.29531 34.4407 6.26094 34.4501 6.22656 34.447H6.25156C6.27656 34.447 6.30156 34.4407 6.32656 34.4345ZM7.84219 35.4251C7.82656 35.4251 7.81094 35.422 7.79531 35.422C7.80469 35.422 7.81719 35.4251 7.82656 35.4251H7.84219Z" fill="#8CD5F5"/>
<path d="M15.2635 28.228C15.1947 28.0905 15.1229 27.9562 15.0447 27.8218C14.8385 27.4437 14.4666 26.5562 13.9229 26.6124C13.7291 26.6312 13.4604 26.728 13.3104 26.8562C13.0885 27.0405 12.9385 27.3468 12.8354 27.6093C12.7479 27.8374 12.7604 27.8405 12.8666 28.0343C13.0479 28.353 13.3041 28.6155 13.4729 28.9437C13.6322 29.253 13.651 29.5343 13.651 29.8812C13.651 29.9155 13.6479 29.9468 13.6479 29.9812C13.6416 30.1999 13.626 30.4124 13.5947 30.6124C13.5916 30.6218 13.5916 30.6312 13.5885 30.6405C13.5447 30.9093 13.4791 31.1655 13.3979 31.4155C13.2229 31.9343 12.9697 32.4062 12.6666 32.853L12.6135 32.9343C12.476 33.1343 12.326 33.328 12.1729 33.5187C12.0322 33.6937 11.8854 33.8687 11.7354 34.0405C11.7291 34.0499 11.7197 34.0562 11.7135 34.0687L11.6447 34.1468C11.5166 34.2937 11.3885 34.4499 11.2604 34.6062C10.801 35.1655 10.2354 35.853 9.47598 36.2968C9.11348 36.5093 8.69786 36.6562 8.23223 36.7155C8.10098 36.7312 7.96661 36.753 7.82286 36.753C7.67286 36.753 7.51973 36.7405 7.36661 36.7187C7.22911 36.5905 7.07286 36.4749 6.96348 36.3718C6.67598 36.0999 6.38223 35.8249 6.17911 35.478C6.10723 35.353 5.96973 35.1562 5.95411 35.0093C5.93223 34.8374 6.05098 34.6593 6.07598 34.4905C6.09786 34.3405 6.05098 34.228 6.05098 34.0812C6.05098 33.7343 6.23848 33.3343 6.37911 33.028C6.54786 32.6562 6.75723 32.3062 6.98848 31.9687C7.06036 31.8655 7.76973 31.0468 7.74786 30.9999C7.61036 30.7155 7.49473 30.4062 7.43223 30.0624C7.39786 29.8999 7.38223 29.7312 7.36348 29.5655C6.49473 30.6093 5.71036 31.7562 5.18223 33.0124C5.01661 33.403 4.91973 33.8218 4.79161 34.2218C4.75723 34.3312 4.71661 34.4405 4.67598 34.5499C4.44786 35.1405 4.33848 35.8312 4.62598 36.4187C4.85411 36.8905 4.90723 37.4343 5.32286 37.803C5.54473 37.9999 5.77911 38.0312 6.03848 38.0312C6.06036 38.0468 6.07911 38.0624 6.10411 38.078C6.68848 38.4155 7.38848 38.5812 7.99161 38.5812C8.33223 38.5812 8.66661 38.5312 8.95098 38.4405C9.02598 38.4155 9.09786 38.378 9.16973 38.3499C10.8729 37.703 12.2166 36.053 13.0885 34.8374C13.2197 34.6562 13.3385 34.4562 13.4635 34.2655C13.501 34.2093 13.5385 34.153 13.5729 34.0968C13.701 33.8999 13.8322 33.7093 13.9541 33.5062C14.1229 33.2187 14.2791 32.9155 14.4354 32.6155C14.5041 32.478 14.5854 32.3499 14.6541 32.2124C15.1322 31.2374 15.576 30.1249 15.501 29.0155C15.4854 28.7312 15.3885 28.4749 15.2635 28.228Z" fill="#D0D2D3"/>
<path d="M10.4102 33.5592C10.432 33.5311 10.4602 33.5029 10.482 33.4748C10.5414 33.4061 10.6008 33.3373 10.657 33.2686C10.5977 33.3342 10.5414 33.4029 10.482 33.4717C10.457 33.5029 10.432 33.5311 10.4102 33.5592Z" fill="#8CD5F5"/>
<path d="M36.2659 7.27207C35.7816 5.53145 34.6503 3.87207 33.1472 2.64707C32.2128 1.88457 31.1691 1.23145 30.0503 0.77207C29.7878 0.662695 29.5222 0.57207 29.2597 0.487695C29.1722 0.45957 29.0847 0.44082 28.9972 0.418945C28.8222 0.368945 28.6441 0.32207 28.4691 0.28457C28.3659 0.262695 28.2628 0.250195 28.1566 0.231445C27.9972 0.206445 27.8378 0.17832 27.6784 0.15957C27.5691 0.14707 27.4597 0.14082 27.3534 0.13457C27.2003 0.12207 27.0472 0.11582 26.8941 0.112695C26.8503 0.112695 26.8066 0.106445 26.7597 0.106445C26.7128 0.106445 26.6659 0.11582 26.6191 0.11582C26.3503 0.118945 26.0847 0.13457 25.8191 0.16582C25.7628 0.17207 25.7097 0.175195 25.6534 0.181445C25.3441 0.22207 25.0378 0.28457 24.7347 0.362695C24.6628 0.37832 24.5909 0.40332 24.5191 0.42207C24.2722 0.49082 24.0253 0.575195 23.7847 0.66582C23.7191 0.69082 23.6503 0.71582 23.5847 0.74082C23.2941 0.85957 23.0097 0.993945 22.7316 1.14395C22.6753 1.1752 22.6191 1.20957 22.5628 1.24082C22.3316 1.37207 22.1066 1.5127 21.8847 1.66582C21.8159 1.7127 21.7472 1.75645 21.6816 1.80645C21.4191 1.99707 21.1628 2.2002 20.9159 2.41582C20.8816 2.44707 20.8472 2.48145 20.8159 2.5127C20.6003 2.70957 20.3909 2.91895 20.1878 3.13457C20.1284 3.2002 20.0659 3.26582 20.0066 3.33457C19.7784 3.5877 19.5597 3.85645 19.3503 4.1377C17.8284 6.20332 16.5066 8.40644 15.4066 10.7189C14.3722 12.8971 12.0347 17.1721 11.9441 20.2033C11.7816 20.3627 11.6222 20.5221 11.4722 20.6783C10.0753 22.1158 8.14719 24.3502 7.50344 27.1346C7.47531 27.2564 7.45969 27.3814 7.43781 27.5064L7.42844 27.5158C5.73469 29.2471 3.90344 31.7596 3.44094 34.1783C3.19094 35.4908 3.11594 36.6002 3.85344 37.7721C4.20344 38.3314 4.83469 38.9721 5.51594 39.2689C5.48156 39.2502 5.45344 39.2221 5.42219 39.2033C5.46281 39.2283 5.50031 39.2533 5.54094 39.2783C5.54406 39.2814 5.55344 39.2846 5.55969 39.2877C5.77219 39.4033 5.99406 39.5033 6.22219 39.5846C6.27844 39.6033 6.33781 39.6189 6.39406 39.6377C6.57219 39.6939 6.75031 39.7439 6.93156 39.7814C7.00969 39.7971 7.08781 39.8096 7.16594 39.8252C7.34094 39.8533 7.51594 39.8721 7.69094 39.8814C7.75969 39.8846 7.82844 39.8908 7.89719 39.8939C7.92844 39.8939 7.95969 39.9002 7.99094 39.9002C8.13156 39.9002 8.27219 39.8814 8.41281 39.8689C8.49094 39.8627 8.57219 39.8627 8.64719 39.8502C8.89094 39.8158 9.12844 39.7658 9.35344 39.6939C11.3909 39.0408 12.9503 37.2908 14.1597 35.6033C14.6097 34.9752 15.0066 34.3064 15.3816 33.6283C15.3892 33.6229 15.3976 33.6187 15.4066 33.6158C17.5378 32.4627 19.4441 30.0689 20.3597 28.9189L20.4784 28.7721C20.8097 28.3596 21.1628 27.9096 21.5003 27.4314C21.4878 27.4346 21.4691 27.4346 21.4566 27.4377L21.5034 27.4283C21.6347 27.4033 21.7691 27.3814 21.8972 27.3471C22.0722 27.3033 22.2441 27.2471 22.4128 27.1908C22.5503 27.1471 22.6909 27.1033 22.8222 27.0533C22.9909 26.9846 23.1566 26.9064 23.3222 26.8314C23.4472 26.7721 23.5784 26.7158 23.7034 26.6502C23.8691 26.5627 24.0284 26.4658 24.1909 26.3658C24.3097 26.2971 24.4253 26.2314 24.5409 26.1533C24.7097 26.0439 24.8722 25.9283 25.0347 25.8096C25.1378 25.7314 25.2472 25.6627 25.3503 25.5846C25.5316 25.4471 25.7066 25.3033 25.8847 25.1596C25.9691 25.0908 26.0566 25.0252 26.1409 24.9533C26.4003 24.7346 26.6597 24.5096 26.9191 24.2783C28.4441 22.9189 29.8003 21.3908 31.1628 19.8752C32.3003 18.6096 33.2784 17.1471 34.2972 15.7814C36.1316 13.3408 37.4847 10.2596 36.2659 7.27207ZM8.67219 28.1721C8.69719 27.9221 8.73781 27.6721 8.79094 27.4283C8.87844 27.0439 9.00656 26.6752 9.14719 26.3096C9.80031 24.6314 10.9628 23.1346 12.1847 21.8439C12.2628 21.7596 12.3409 21.6752 12.4191 21.5939C12.6941 21.3127 12.9784 21.0346 13.2784 20.7658C14.0191 20.1033 14.8378 19.5158 15.7722 19.1908C15.8909 19.1471 16.0159 19.1283 16.1378 19.1002C16.2097 19.0846 16.2784 19.0596 16.3472 19.0471C16.4097 19.0377 16.4722 19.0314 16.5378 19.0252C16.6722 19.0096 16.8097 18.9971 16.9472 18.9939C17.0097 18.9939 17.0722 18.9939 17.1347 18.9971C17.2441 18.9971 17.3503 19.0158 17.4566 19.0252C17.5878 19.0377 17.7222 19.0377 17.8503 19.0627C18.4909 19.1783 19.0816 19.4814 19.6003 19.8689C19.7222 19.9596 19.8409 20.0502 19.9534 20.1471C20.0066 20.1939 20.0566 20.2439 20.1097 20.2908C20.5722 20.7096 20.9816 21.1658 21.2441 21.7377C21.1784 21.7971 21.1128 21.8564 21.0441 21.9127C20.8441 22.0783 20.6409 22.2346 20.4284 22.3627C20.2159 22.4908 20.0222 22.5689 19.8378 22.6096C19.7191 22.6346 19.6066 22.6471 19.4941 22.6471C19.4847 22.6471 19.4753 22.6439 19.4628 22.6439C19.4284 22.6439 19.3972 22.6408 19.3659 22.6377C19.3378 22.6377 19.3097 22.6346 19.2816 22.6314C19.2222 22.6252 19.1597 22.6189 19.0972 22.6096C19.0503 22.6002 19.0034 22.5939 18.9566 22.5814C18.8566 22.5596 18.7503 22.5377 18.6441 22.5158L18.6097 22.5064C18.5472 22.4939 18.4847 22.4814 18.4191 22.4689C18.3972 22.4658 18.3753 22.4596 18.3534 22.4564C18.2691 22.3752 18.1816 22.2971 18.0753 22.2471C18.0566 22.2377 18.0347 22.2314 18.0159 22.2252C17.9566 22.2002 17.8972 22.1783 17.8378 22.1627C17.8128 22.1564 17.7878 22.1564 17.7597 22.1502C17.7034 22.1408 17.6441 22.1346 17.5878 22.1346C17.5816 22.1346 17.5753 22.1314 17.5691 22.1314C17.5597 22.1314 17.5503 22.1377 17.5409 22.1377C17.4034 22.1408 17.2659 22.1596 17.1378 22.2096C16.4503 22.4627 15.8503 22.9752 15.3128 23.4596C15.0066 23.7346 14.7191 24.0283 14.4347 24.3283C14.0141 24.7741 13.6097 25.2348 13.2222 25.7096C13.2191 25.7096 13.2191 25.7127 13.2191 25.7127C13.0753 25.8846 12.9347 26.0596 12.7941 26.2346C12.6222 26.4502 12.4409 26.6752 12.2722 26.9096C11.9503 27.3596 11.6753 27.8502 11.5909 28.3814C11.5753 28.4877 11.5722 28.5908 11.5753 28.6908C11.5847 28.9564 11.6597 29.2033 11.7878 29.4252C11.9066 29.6314 12.0691 29.8158 12.2628 29.9752C12.2816 29.9908 12.3034 30.0064 12.3222 30.0221C12.3159 30.1439 12.2972 30.2596 12.2816 30.3752V30.3783C12.1659 31.1502 11.8066 31.8158 11.2722 32.5096C11.2222 32.4908 11.1753 32.4689 11.1253 32.4471C11.0878 32.4314 11.0472 32.4127 11.0066 32.3939C10.9597 32.3721 10.9128 32.3471 10.8691 32.3252C10.8534 32.3189 10.8409 32.3127 10.8284 32.3064C10.7941 32.2908 10.7597 32.2721 10.7284 32.2533C10.6691 32.2189 10.6128 32.1877 10.5597 32.1533C10.5347 32.1377 10.5066 32.1221 10.4847 32.1064C10.4159 32.0596 10.3534 32.0127 10.2972 31.9658C10.2941 31.9627 10.2909 31.9627 10.2878 31.9596C9.98781 31.7033 9.68781 31.4408 9.42531 31.1502C9.11906 30.8127 8.87219 30.4314 8.75344 29.9689C8.73781 29.9189 8.72219 29.8658 8.71281 29.8127C8.62219 29.2564 8.61281 28.7096 8.67219 28.1721ZM17.7816 17.7158C17.8722 17.5377 17.9753 17.3627 18.0722 17.1939C18.9316 15.7127 21.0472 12.0408 22.1284 10.7096C22.4566 10.3064 22.8534 9.85019 23.3097 9.57832C23.5972 9.40645 23.8722 9.25644 24.1972 9.17207C24.3409 9.13457 24.4816 9.11582 24.6191 9.10332L24.7253 9.09395C24.7597 9.09395 24.7941 9.0877 24.8284 9.0877C24.8941 9.0877 24.9566 9.09707 25.0191 9.1002C25.0659 9.10332 25.1097 9.10645 25.1534 9.1127C25.2784 9.12832 25.4003 9.15645 25.5222 9.19082C25.5316 9.19394 25.5409 9.19394 25.5503 9.19707C25.6784 9.2377 25.8034 9.28457 25.9284 9.34395C25.9691 9.36269 26.0097 9.38457 26.0503 9.40645C26.1347 9.44707 26.2159 9.49082 26.2941 9.54082C26.3409 9.56895 26.3816 9.59707 26.4284 9.62519C26.5471 9.70308 26.6628 9.78543 26.7753 9.87207C26.8159 9.90645 26.8597 9.9377 26.9003 9.97207C26.9034 9.97519 26.9066 9.98145 26.9097 9.98769C28.6816 11.9033 26.3941 15.0221 25.2284 16.6408C24.2534 17.9939 23.4128 19.4783 22.2753 20.7096C22.2628 20.7221 22.2503 20.7377 22.2378 20.7502C21.8534 20.1064 21.3441 19.6002 20.8347 19.1502C19.9972 18.4127 19.0503 17.9346 18.0941 17.7596C17.9909 17.7408 17.8847 17.7283 17.7816 17.7158ZM9.44719 32.9564C9.68781 33.1627 10.0253 33.3721 10.4097 33.5596C10.4316 33.5314 10.4566 33.5002 10.4816 33.4721C10.5409 33.4033 10.5972 33.3346 10.6566 33.2689C10.6003 33.3346 10.5409 33.4064 10.4816 33.4752C10.4597 33.5064 10.4316 33.5314 10.4097 33.5596C10.3972 33.5783 10.3784 33.5939 10.3628 33.6127L10.3159 33.6689C10.3128 33.6752 10.3066 33.6814 10.3003 33.6877C10.2347 33.7689 10.1659 33.8533 10.0972 33.9346C10.0753 33.9627 10.0503 33.9908 10.0284 34.0189C9.93781 34.1252 9.84719 34.2346 9.75656 34.3377C9.74094 34.3533 9.72531 34.3721 9.70969 34.3877C9.61281 34.4939 9.51594 34.5971 9.41281 34.6939C9.40656 34.7002 9.40031 34.7033 9.39719 34.7096C9.29719 34.8033 9.19406 34.8908 9.08469 34.9721C9.07531 34.9814 9.06281 34.9908 9.05031 34.9971C8.94406 35.0752 8.83156 35.1408 8.71594 35.2002C8.69719 35.2127 8.67844 35.2221 8.65969 35.2314C8.54719 35.2846 8.42844 35.3283 8.30656 35.3596C6.62219 35.1252 7.37531 33.5033 8.53156 32.1127C8.84406 32.4377 9.16594 32.7158 9.44719 32.9564ZM7.84094 35.4252H7.82531C7.81594 35.4252 7.80344 35.4221 7.79406 35.4221C7.80969 35.4221 7.82531 35.4252 7.84094 35.4252ZM15.3003 29.7158C15.3566 30.5471 15.0847 31.3408 14.6566 32.2096C14.5878 32.3471 14.5066 32.4783 14.4378 32.6127C14.2816 32.9127 14.1253 33.2127 13.9566 33.5033C13.8378 33.7064 13.7034 33.8971 13.5753 34.0939C13.5409 34.1502 13.5034 34.2096 13.4659 34.2627C13.3409 34.4533 13.2253 34.6502 13.0909 34.8346C12.2191 36.0502 10.8784 37.7002 9.17219 38.3471C9.10031 38.3752 9.02844 38.4127 8.95344 38.4377C8.66906 38.5283 8.33469 38.5783 7.99406 38.5783C7.39094 38.5783 6.69094 38.4127 6.10656 38.0752C5.67219 37.8221 5.30031 37.4814 5.08781 37.0283C5.05656 36.9596 5.03156 36.8971 5.00344 36.8314C4.99094 36.8127 4.97531 36.7939 4.96281 36.7752C4.33781 35.8064 4.67219 34.3627 5.04406 33.3658C5.29406 32.7002 5.61281 32.0689 5.98469 31.4658C6.19094 31.1283 6.41281 30.8002 6.64719 30.4783C6.75344 30.3314 7.37844 29.7158 7.36281 29.5627C7.38156 29.7283 7.39719 29.8971 7.43156 30.0596C7.49719 30.4033 7.60969 30.7127 7.74719 30.9971C7.76594 31.0377 6.97531 32.0127 6.91281 32.1064C6.59719 32.5939 6.29719 33.1033 6.11281 33.6564C5.75031 34.7533 5.76594 35.9752 6.91281 36.5846C6.97219 36.6158 7.03469 36.6408 7.10344 36.6658C7.34719 36.7189 7.59094 36.7471 7.82531 36.7471C7.96906 36.7471 8.10031 36.7283 8.23469 36.7096C8.70031 36.6502 9.11594 36.5033 9.47844 36.2908C10.2409 35.8471 10.8034 35.1596 11.2628 34.6002C11.3909 34.4439 11.5159 34.2877 11.6472 34.1408L11.7159 34.0627C11.7241 34.054 11.7314 34.0446 11.7378 34.0346C11.8878 33.8627 12.0347 33.6877 12.1753 33.5127C12.3284 33.3221 12.4753 33.1283 12.6159 32.9283C12.6347 32.9033 12.6503 32.8752 12.6691 32.8471C12.9722 32.4002 13.2253 31.9283 13.4003 31.4064C13.4816 31.1596 13.5472 30.9033 13.5909 30.6346C13.5909 30.6252 13.5941 30.6189 13.5972 30.6064C13.7159 29.7877 13.8722 28.7408 13.1847 28.1096C13.1159 28.0439 13.0284 28.0189 12.9628 27.9502C13.0128 27.8346 13.0159 27.7439 13.0784 27.6377C13.1316 27.5471 13.1909 27.4564 13.2566 27.3721C13.9659 26.4502 14.7628 27.9939 14.9941 28.5221C15.1784 28.9346 15.2753 29.3283 15.3003 29.7158ZM15.9003 27.3689C15.8816 27.3439 15.8628 27.3158 15.8441 27.2908C15.8283 27.2693 15.8116 27.2484 15.7941 27.2283C15.7316 27.1471 15.6659 27.0658 15.5972 26.9877C15.5722 26.9596 15.5441 26.9314 15.5191 26.9033C15.453 26.8299 15.3831 26.76 15.3097 26.6939L15.2534 26.6377C15.1628 26.5596 15.0722 26.4846 14.9784 26.4221C14.9597 26.4064 14.9347 26.3939 14.9128 26.3814C14.8378 26.3314 14.7628 26.2908 14.6878 26.2533C14.6597 26.2377 14.6316 26.2252 14.6034 26.2127C14.5847 26.2033 14.5691 26.1939 14.5503 26.1877C14.7847 25.9096 15.0284 25.6346 15.2784 25.3658C15.3253 25.3846 15.3722 25.4033 15.4097 25.4314C15.5534 25.5377 15.6847 25.6564 15.8316 25.7596C16.1378 25.9814 16.4284 26.2002 16.7159 26.4033C16.6722 26.4564 16.6316 26.5064 16.5847 26.5564C16.4691 26.6908 16.3409 26.8408 16.2066 27.0002C16.1128 27.1158 16.0066 27.2408 15.9003 27.3689ZM19.4503 27.9502L19.3316 28.0971C18.7378 28.8408 17.6972 30.1377 16.4909 31.2096C16.6816 30.6189 16.8097 30.0158 16.7722 29.5127C16.7628 29.4127 16.7472 29.3064 16.7253 29.2002C16.7191 29.1689 16.7128 29.1346 16.7034 29.1033C16.6847 29.0221 16.6628 28.9377 16.6378 28.8502C16.6284 28.8189 16.6191 28.7877 16.6066 28.7564C16.5909 28.7096 16.5753 28.6627 16.5566 28.6158C16.7909 28.3502 17.0128 28.0877 17.2159 27.8471C17.3472 27.6939 17.4691 27.5471 17.5816 27.4189C17.6753 27.3127 17.7691 27.1971 17.8597 27.0877C18.3941 27.3502 18.9691 27.5283 19.6597 27.5658C19.6909 27.5658 19.7191 27.5658 19.7503 27.5689C19.6503 27.6971 19.5503 27.8252 19.4503 27.9502ZM20.6003 27.5533C20.5472 27.5564 20.4972 27.5533 20.4441 27.5533C20.4972 27.5533 20.5534 27.5471 20.6066 27.5439C20.7097 27.5377 20.8159 27.5346 20.9159 27.5221C20.8097 27.5346 20.7066 27.5471 20.6003 27.5533ZM33.9284 14.0096C33.7222 14.3314 33.5003 14.6596 33.2534 14.9908C32.9753 15.3627 32.7003 15.7408 32.4253 16.1221C31.7128 17.1033 30.9784 18.1158 30.1909 18.9908L29.9722 19.2346C28.6691 20.6846 27.4378 22.0564 26.0472 23.2939C24.7628 24.4408 23.6472 25.2877 22.4722 25.7783C22.2847 25.8564 22.0909 25.9221 21.8972 25.9814C21.7941 26.0127 21.6909 26.0502 21.5847 26.0752C21.3066 26.1439 21.0222 26.1939 20.7284 26.2221C20.5159 26.2439 20.3034 26.2627 20.0784 26.2627C19.9628 26.2627 19.8441 26.2596 19.7253 26.2533C19.3253 26.2346 18.9722 26.1439 18.6316 26.0002C17.8878 25.6908 16.8753 25.1908 16.2816 24.6377C16.1409 24.5064 16.0034 24.4189 16.1159 24.2564C16.2441 24.0689 16.4659 23.7971 16.6503 23.6471C17.0909 23.2846 17.3503 23.4408 17.8316 23.6283C18.1409 23.7471 18.4659 23.8252 18.7941 23.8877C18.9128 23.9096 19.0378 23.9221 19.1659 23.9346C19.2753 23.9471 19.3784 23.9627 19.4941 23.9627C19.7097 23.9627 19.9222 23.9408 20.1284 23.8939C20.4628 23.8189 20.7878 23.6846 21.1128 23.4877C21.2784 23.3846 21.4378 23.2721 21.5972 23.1533C21.7909 23.0064 21.9816 22.8502 22.1628 22.6877C22.3378 22.5283 22.5128 22.3627 22.6816 22.1877C22.7066 22.1596 22.7347 22.1346 22.7628 22.1064C22.9222 21.9408 23.0784 21.7752 23.2347 21.6033C24.0816 20.6908 24.7597 19.6752 25.4128 18.6939C25.7128 18.2471 25.9941 17.8221 26.2909 17.4096L26.3503 17.3283C27.1222 16.2564 28.5191 14.3064 28.8191 12.3471C29.1003 10.5127 28.1847 8.98145 26.5784 8.17832C26.0816 7.92832 25.3753 7.77207 24.8222 7.77207C24.5003 7.77207 24.1784 7.8127 23.8597 7.89395C23.3566 8.0252 22.9503 8.24707 22.6191 8.44707C21.9972 8.82207 21.5003 9.38144 21.1003 9.8752C19.9909 11.2377 17.9878 14.6939 17.0284 16.3533L16.9253 16.5283L16.8941 16.5846C16.7003 16.9158 16.4847 17.2939 16.3284 17.7189C15.9878 17.7658 15.6503 17.8314 15.3347 17.9408C14.6316 18.1846 14.0003 18.5439 13.4284 18.9502C13.9159 16.7346 15.2909 13.9377 16.0784 12.3471C16.2722 11.9564 16.4472 11.6002 16.5972 11.2846C17.6566 9.05957 18.9378 6.91895 20.4097 4.91895C22.0441 2.69707 24.3566 1.42207 26.7534 1.42207C27.6878 1.42207 28.6284 1.6127 29.5441 1.9877C30.0503 2.19707 30.5534 2.47207 31.0441 2.78145C32.8222 3.89082 34.0222 5.59707 34.9253 7.48769C34.9597 7.5627 34.9784 7.64395 35.0097 7.71582C35.7816 9.54707 35.4253 11.6533 33.9284 14.0096Z" fill="#3F4042"/>
</svg>
