<svg width="40" height="44" viewBox="0 0 40 44" fill="none" xmlns="http://www.w3.org/2000/svg">
<path fill-rule="evenodd" clip-rule="evenodd" d="M7.59844 1.19995C5.9541 1.19995 4.3771 1.74781 3.21438 2.723C2.05165 3.69818 1.39844 5.02083 1.39844 6.39995V37.6C1.39844 38.9791 2.05165 40.3017 3.21438 41.2769C4.3771 42.2521 5.9541 42.8 7.59844 42.8H32.3984C34.0428 42.8 35.6198 42.2521 36.7825 41.2769C37.9452 40.3017 38.5984 38.9791 38.5984 37.6V15.2764C38.5981 13.8973 37.9446 12.5749 36.7818 11.6L26.1984 2.72355C25.036 1.74829 23.4592 1.20025 21.815 1.19995H7.59844ZM13.7984 27.2C13.7984 26.5104 13.4718 25.8491 12.8905 25.3615C12.3091 24.8739 11.5206 24.6 10.6984 24.6C9.87627 24.6 9.08777 24.8739 8.50641 25.3615C7.92504 25.8491 7.59844 26.5104 7.59844 27.2V35C7.59844 35.6895 7.92504 36.3508 8.50641 36.8384C9.08777 37.326 9.87627 37.6 10.6984 37.6C11.5206 37.6 12.3091 37.326 12.8905 36.8384C13.4718 36.3508 13.7984 35.6895 13.7984 35V27.2ZM19.9984 19.4C20.8206 19.4 21.6091 19.6739 22.1905 20.1615C22.7718 20.6491 23.0984 21.3104 23.0984 22V35C23.0984 35.6895 22.7718 36.3508 22.1905 36.8384C21.6091 37.326 20.8206 37.6 19.9984 37.6C19.1763 37.6 18.3878 37.326 17.8064 36.8384C17.225 36.3508 16.8984 35.6895 16.8984 35V22C16.8984 21.3104 17.225 20.6491 17.8064 20.1615C18.3878 19.6739 19.1763 19.4 19.9984 19.4ZM32.3984 16.8C32.3984 16.1104 32.0718 15.4491 31.4905 14.9615C30.9091 14.4739 30.1206 14.2 29.2984 14.2C28.4763 14.2 27.6878 14.4739 27.1064 14.9615C26.525 15.4491 26.1984 16.1104 26.1984 16.8V35C26.1984 35.6895 26.525 36.3508 27.1064 36.8384C27.6878 37.326 28.4763 37.6 29.2984 37.6C30.1206 37.6 30.9091 37.326 31.4905 36.8384C32.0718 36.3508 32.3984 35.6895 32.3984 35V16.8Z" fill="#BFBFC0" stroke="#3F4042" stroke-width="2"/>
</svg>
