<svg width="68" height="57" viewBox="0 0 68 57" fill="none" xmlns="http://www.w3.org/2000/svg">
<g clip-path="url(#clip0_1213_9134)">
<path d="M8.29796 39.11C9.38755 37.8713 10.0895 36.4113 10.7757 34.9354C10.9172 34.635 11.0324 34.2765 11.5091 34.208V34.8774C11.5091 36.1108 11.4986 37.3495 11.5091 38.5829C11.5196 39.479 11.792 39.8795 12.5516 40.0219C14.2069 40.3328 15.8675 40.5911 17.5228 40.9021C17.9471 40.9812 18.1043 40.8389 18.1986 40.4435C18.4081 39.5738 18.6596 38.7094 18.9267 37.729C19.5396 38.662 19.7387 39.6265 20.1054 40.5121C22.6984 46.7212 26.6324 51.697 32.8347 54.6013C35.8992 56.035 39.0632 57.047 42.4839 56.9838C46.8056 56.9047 50.8706 55.8242 54.6371 53.6947C58.6445 51.4229 61.9237 48.3921 63.9877 44.1701C66.6802 38.6567 67.8903 32.7954 67.9898 26.6864C68.0527 22.8755 67.4136 19.1542 66.6121 15.4382C65.9992 12.5971 64.4539 10.4466 62.2747 8.66501C61.9499 8.39619 61.6618 8.0852 61.4889 7.70042C60.4622 5.41283 58.6445 3.9686 56.5072 2.81953C53.6418 1.28568 50.5982 0.521398 47.3766 0.162974C42.201 -0.411559 37.2979 0.431792 32.5938 2.56652C28.403 4.46934 25.1238 7.64772 21.7136 10.6363C21.1007 11.174 20.8335 11.9857 20.5035 12.7342C20.1892 13.4405 19.8382 14.1257 19.1572 14.5632C15.6841 16.7823 12.3944 19.2543 9.31421 22.0005C5.72589 25.2 2.79237 28.9371 0.225543 32.9851C-0.109716 33.5122 -0.073047 34.013 0.393173 34.4768C1.11084 35.1884 1.84946 35.8631 2.72951 36.3796C4.33247 37.3231 5.93019 38.2824 7.51219 39.2681C7.8946 39.5053 8.04651 39.3893 8.29796 39.0994V39.11ZM17.7376 37.6868C17.7062 37.7922 17.6485 37.8871 17.6066 37.982C17.3622 38.994 16.744 39.4052 15.7522 39.2154C15.1498 39.0994 14.5474 39.0098 13.945 38.9097C13.0964 38.7621 12.5987 38.2877 12.6301 37.5234C12.7244 35.083 12.7925 32.6373 13.2011 30.2232C13.353 29.3166 13.7145 28.489 14.2802 27.7722C15.4641 26.2752 16.6532 24.7888 18.1095 23.4553C18.4238 24.4831 18.1933 25.4213 18.0362 26.3596C17.7952 29.1743 17.9314 31.9626 18.5129 34.7404C18.7329 35.7788 18.0362 36.7117 17.7428 37.6868H17.7376ZM27.1615 7.06264C30.9803 3.83155 35.4016 1.97618 40.3257 1.29623C45.4436 0.58992 50.3416 1.35948 55.0247 3.52584C57.0572 4.46406 58.7073 5.88722 59.8755 7.8322C59.9488 7.9587 60.1322 8.06939 60.0588 8.22752C59.9645 8.43309 59.7445 8.33821 59.5874 8.31713C57.7854 8.11683 55.9886 7.88491 54.1918 7.7057C52.9293 7.57919 51.6669 7.4685 50.3992 7.42634C47.6176 7.33146 44.836 7.16279 42.0544 7.28929C38.5656 7.44742 35.0768 7.63717 31.6142 8.16954C29.6079 8.47525 27.6068 8.79678 25.6267 9.23954C25.5429 9.25535 25.4538 9.23954 25.2757 9.23954C25.6791 8.24333 26.4543 7.66353 27.1615 7.06264ZM22.0279 12.2756C22.3369 11.9119 22.6722 11.5535 23.1437 11.3743C24.1704 10.6205 25.4067 10.4888 26.5853 10.1883C31.2737 8.98126 36.0459 8.49107 40.881 8.42781C43.9454 8.38565 47.0099 8.159 50.0692 8.34875C53.647 8.57013 57.2353 8.78624 60.7136 9.79826C62.8823 10.4308 64.0872 11.9488 64.7367 14.0256C64.7525 14.0414 64.7787 14.0466 64.7891 14.0677C65.4073 15.4487 65.4073 15.4593 63.9353 15.4909C60.6246 15.5541 57.3244 15.338 54.0189 15.2273C50.1215 15.0956 46.2189 15.0218 42.3268 15.2484C37.7851 15.512 33.2433 15.823 28.7383 16.5082C26.1453 16.9035 23.5418 17.2303 20.9645 17.7258C20.2992 17.8523 20.2678 17.399 20.273 16.9931C20.294 15.2115 20.8859 13.6302 22.0383 12.2756H22.0279ZM19.9063 22.2851C20.053 21.4681 20.2101 20.6511 20.3673 19.8341C20.4773 19.2596 20.8335 18.8959 21.3993 18.7852C23.5994 18.3425 25.8048 17.9313 27.9997 17.4675C29.7493 17.0985 31.5147 16.8508 33.301 16.7032C34.4534 16.6083 35.6059 16.5082 36.7583 16.4238C39.7023 16.2025 42.6568 16.018 45.6008 16.0601C49.692 16.1181 53.7884 16.2446 57.8796 16.329C59.2312 16.3553 60.5932 16.35 61.9447 16.4291C62.8352 16.4818 63.731 16.5714 64.6058 16.719C65.0353 16.7928 65.533 16.9035 65.6587 17.4728C66.2402 18.4584 66.324 19.5969 66.5597 20.6775C67.1883 23.5343 67.0626 26.4175 66.8635 29.3113C66.6069 33.0168 65.8263 36.6063 64.5848 40.0956C63.9038 42.0037 63.1128 43.8644 61.9656 45.5458C60.8446 47.4539 59.3202 48.9983 57.6177 50.3529C54.8047 52.5878 51.625 54.1374 48.1414 55.0019C46.7009 55.3603 45.2289 55.5026 43.7464 55.6344C39.0004 56.0613 34.8358 54.4484 30.9384 51.9869C25.7838 48.7347 22.5412 43.9909 20.6659 38.2403C19.5972 34.9618 18.932 31.6147 19.0786 28.1411C19.1624 26.1645 19.5658 24.2301 19.9168 22.2851H19.9063ZM2.32091 34.4505C1.38847 33.8232 1.28894 33.391 1.84422 32.4001C4.14912 28.2887 7.03026 24.6571 10.7391 21.7211C12.5987 20.2505 14.3798 18.6798 16.2918 17.2725C17.0252 16.7348 17.8109 16.3026 18.691 16.076C18.8324 16.0391 19.1729 15.7755 19.0577 16.2763C19.0944 16.835 18.9477 17.3673 18.7853 17.8944C18.6543 18.3214 18.6805 18.7167 18.8691 19.112C19.3458 20.1135 19.2044 20.999 18.3714 21.7897C16.8523 23.2234 15.3855 24.6992 14.1964 26.4334C12.2215 29.306 10.6762 32.4106 9.2723 35.589C9.20944 35.726 9.13087 35.8631 9.06277 36.0001C8.37129 37.6288 7.9365 38.1243 6.19735 36.9436C4.92441 36.0845 3.60433 35.2991 2.32615 34.4452L2.32091 34.4505Z" fill="black"/>
<path d="M60.0003 16.9622C55.9091 16.7355 51.8126 16.7513 47.7162 16.8304C45.5998 16.8726 43.4783 16.9622 41.3672 17.0939C36.7626 17.3733 32.2628 18.2588 27.8259 19.5291C25.7514 20.1247 24.0804 21.1631 23.0746 23.1503C22.7446 23.8038 22.7131 24.5207 22.6608 25.2007C22.5822 26.297 22.4355 27.3828 22.3517 28.4739C22.205 30.3346 22.666 32.1003 23.2475 33.8292C23.588 34.8307 23.4622 35.9218 23.9023 36.9074C25.6257 40.7763 27.7368 44.3184 31.1627 46.9802C33.8029 49.0306 36.8412 49.9477 40.0052 50.5275C42.923 51.0652 45.867 50.9808 48.7796 50.3167C50.5868 49.9056 52.4203 49.6367 54.1908 49.0569C56.6162 48.2558 58.8478 47.0276 61.1265 45.9049C61.3989 45.7679 61.687 45.6625 61.9647 45.5412C63.1171 43.8598 63.9029 41.9991 64.5839 40.0911C65.8254 36.6017 66.6059 33.0175 66.8626 29.3067C67.0617 26.413 67.1821 23.5245 66.5588 20.6729C66.323 19.5924 66.2392 18.4538 65.6578 17.4682C64.4372 17.4471 63.2324 17.2468 62.0223 17.1098C61.3518 17.036 60.6708 16.9991 60.0003 16.9622ZM59.5812 35.7742C58.2716 36.5332 56.7734 36.8705 55.3014 37.192C52.8289 37.7402 50.3144 38.0354 47.7947 38.2831C45.8513 38.4729 43.9131 38.5256 41.9644 38.5361C40.4243 38.5467 38.9313 38.2093 37.4279 37.9458C36.4588 37.7771 35.4792 37.756 34.5048 37.6401C32.3885 37.3871 30.6703 36.3329 29.1459 34.9308C27.7735 33.6658 26.642 32.2005 26.1757 30.3451C25.6362 28.1893 25.8876 26.0651 26.6944 24.0147C27.0034 23.2293 27.7316 22.834 28.4754 22.5494C30.4922 21.7745 32.6033 21.4583 34.7458 21.3054C36.6264 21.1736 38.507 21.1736 40.8486 21.1789C43.9812 21.3423 47.559 20.7098 51.1526 20.9154C53.6408 21.0577 56.1343 21.2633 58.3921 22.4914C61.2418 24.0463 62.8762 26.4604 62.8447 29.7337C62.8238 32.2374 61.8651 34.4512 59.5812 35.7742Z" fill="black"/>
<path d="M20.661 38.2348C22.5364 43.9854 25.7842 48.7293 30.9336 51.9814C34.8362 54.443 38.9955 56.0559 43.7415 55.6289C45.224 55.4972 46.696 55.3496 48.1366 54.9964C51.6253 54.132 54.7998 52.5823 57.6129 50.3474C59.3154 48.9928 60.845 47.4432 61.9608 45.5403C61.6517 45.825 61.2902 46.0305 60.9183 46.215C59.1896 47.0689 57.4767 47.965 55.6904 48.7082C53.8098 49.4883 51.8349 49.8889 49.86 50.2947C47.7961 50.7164 45.7321 51.0696 43.6053 51.0432C41.0123 51.0116 38.4979 50.5319 36.0568 49.7255C31.3998 48.1864 28.0158 45.1081 25.7109 40.7912C25.4489 40.3063 25.1765 39.8319 24.8675 39.3733C24.0293 38.1294 23.516 36.759 23.3431 35.2673C23.2593 34.5399 23.0864 33.8283 22.8402 33.1483C22.0806 31.0347 22.0125 28.8789 22.3478 26.6862C22.4421 26.0747 22.4473 25.458 22.4997 24.8413C22.7302 22.3007 24.2441 20.7722 26.4233 19.8181C27.8534 19.1962 29.383 18.8588 30.9021 18.5057C33.6785 17.8626 36.4758 17.3144 39.3203 17.0509C40.1061 16.9771 40.8971 16.8875 41.6776 16.8928C43.3015 16.9033 44.9202 16.7979 46.5336 16.7083C49.4514 16.5449 52.364 16.6239 55.2765 16.6239C58.5401 16.6239 61.7984 16.8348 65.0357 17.2617C65.2557 17.2881 65.4757 17.2986 65.6486 17.4567C65.5229 16.8875 65.0252 16.7768 64.5957 16.703C63.7156 16.5554 62.8251 16.4658 61.9346 16.4131C60.5831 16.334 59.2211 16.3393 57.8696 16.313C53.7783 16.2339 49.6819 16.1021 45.5907 16.0441C42.6467 16.002 39.6922 16.1864 36.7482 16.4078C35.5958 16.4974 34.4433 16.5923 33.2909 16.6872C31.5098 16.8348 29.7444 17.0825 27.9896 17.4515C25.7947 17.9153 23.5893 18.3265 21.3892 18.7692C20.8234 18.8852 20.4724 19.2436 20.3572 19.8181C20.2 20.6351 20.0429 21.4521 19.8962 22.2691C19.5452 24.2088 19.1419 26.1433 19.0581 28.1251C18.9166 31.5987 19.5767 34.9457 20.6453 38.2243L20.661 38.2348Z" fill="black"/>
<path d="M55.2873 16.6295C52.3747 16.6295 49.4621 16.5504 46.5443 16.7138C44.9309 16.8034 43.3122 16.9088 41.6883 16.8983C40.9078 16.8983 40.1168 16.9826 39.331 17.0564C36.4866 17.32 33.6892 17.8681 30.9129 18.5112C29.399 18.8591 27.8641 19.1964 26.434 19.8237C24.2496 20.7777 22.7357 22.301 22.5104 24.8469C22.4528 25.4636 22.4528 26.075 22.3585 26.6917C22.0233 28.8792 22.0966 31.0402 22.8509 33.1539C23.0971 33.8338 23.27 34.5454 23.3538 35.2728C23.5267 36.7645 24.0401 38.1349 24.8782 39.3789C25.1873 39.8374 25.4649 40.3066 25.7216 40.7968C28.0265 45.1137 31.4105 48.1919 36.0675 49.731C38.5086 50.5375 41.023 51.0118 43.6161 51.0487C45.7429 51.0751 47.8068 50.7219 49.8707 50.3003C51.8456 49.8944 53.8205 49.4938 55.7011 48.7137C57.4874 47.9705 59.1951 47.0745 60.9291 46.2206C61.3062 46.0361 61.6624 45.8252 61.9715 45.5459C61.6939 45.6671 61.4058 45.7778 61.1334 45.9096C58.8546 47.0323 56.6231 48.2657 54.1977 49.0616C52.4323 49.6414 50.5936 49.9102 48.7864 50.3214C45.8738 50.9855 42.9298 51.0698 40.012 50.5322C36.848 49.9471 33.8097 49.0352 31.1696 46.9848C27.7436 44.323 25.6378 40.7809 23.9091 36.9121C23.4691 35.9264 23.5948 34.8353 23.2543 33.8338C22.6728 32.0997 22.2119 30.3392 22.3585 28.4786C22.4423 27.3875 22.589 26.3017 22.6676 25.2053C22.7147 24.5254 22.7462 23.8138 23.0814 23.1549C24.0872 21.1678 25.7583 20.1294 27.8327 19.5338C32.2696 18.2635 36.7747 17.3779 41.374 17.0986C43.4851 16.9721 45.6067 16.8772 47.723 16.835C51.8194 16.756 55.9159 16.7402 60.0071 16.9668C60.6776 17.0037 61.3534 17.0353 62.0291 17.1144C63.2392 17.2514 64.444 17.4465 65.6646 17.4728C65.4865 17.3147 65.2665 17.3094 65.0517 17.2778C61.8144 16.8456 58.556 16.64 55.2925 16.64L55.2873 16.6295Z" fill="black"/>
<path d="M22.8766 15.4383C22.8661 15.9127 23.0285 16.0761 23.4895 15.997C26.6745 15.4752 29.8542 14.927 33.0444 14.4579C34.6159 14.226 36.2136 14.1417 37.8009 14.0204C40.5668 13.8096 43.3431 13.72 46.1143 13.5882C49.9278 13.409 53.7362 13.4617 57.5497 13.525C59.9437 13.5671 62.3534 13.6567 64.7316 14.0152C64.0821 11.9384 62.8772 10.4151 60.7085 9.78787C57.2302 8.77585 53.6419 8.55974 50.064 8.33836C47.0048 8.1486 43.9351 8.37526 40.8758 8.41742C36.0408 8.48067 31.2686 8.97087 26.5802 10.1779C25.4015 10.4784 24.1653 10.6101 23.1385 11.3639C22.7561 12.7027 22.908 14.0731 22.8714 15.4331L22.8766 15.4383Z" fill="#7E58FF"/>
<path d="M25.6244 9.2402C27.6045 8.80271 29.6056 8.48118 31.6119 8.17019C35.0745 7.6431 38.5633 7.45335 42.0521 7.28995C44.8337 7.16344 47.6153 7.33211 50.3969 7.42699C51.6646 7.46916 52.9271 7.57985 54.1895 7.70635C55.9916 7.89083 57.7883 8.12276 59.5851 8.31778C59.7423 8.33359 59.9623 8.42847 60.0566 8.22817C60.1299 8.07005 59.9466 7.95936 59.8732 7.83285C58.7051 5.88787 57.055 4.46472 55.0225 3.52649C50.3445 1.3654 45.4414 0.590575 40.3234 1.29688C35.3941 1.97683 30.9728 3.82693 27.1593 7.0633C26.4521 7.66418 25.682 8.24399 25.2734 9.2402C25.4515 9.2402 25.5406 9.25601 25.6244 9.2402Z" fill="black"/>
<path d="M9.42684 25.8016C7.59339 27.8256 6.07948 30.0763 4.9637 32.5905C4.74369 33.0913 4.70178 33.4286 5.26753 33.6974C6.60857 34.3352 7.78197 35.2524 9.06015 36.0061C9.12825 35.8691 9.20682 35.7373 9.26969 35.595C10.6736 32.4113 12.2189 29.312 14.1938 26.4393C15.3882 24.7052 16.8549 23.2293 18.3688 21.7956C19.2017 21.0103 19.3432 20.1247 18.8665 19.118C18.6779 18.7227 18.6517 18.3274 18.7827 17.9004C18.9451 17.3733 19.0917 16.8409 19.0551 16.2822C18.1802 17.0149 17.4207 17.8635 16.5668 18.6225C14.0471 20.8732 11.6898 23.2979 9.4216 25.8016H9.42684Z" fill="#7E58FF"/>
<path d="M20.9598 17.7255C23.5371 17.23 26.1406 16.898 28.7336 16.5079C33.2386 15.8227 37.7803 15.5117 42.3221 15.2482C46.2195 15.0215 50.1168 15.1006 54.0142 15.2271C57.3197 15.3378 60.6199 15.5539 63.9306 15.4906C65.4078 15.4643 65.4078 15.4485 64.7844 14.0675C64.774 14.0517 64.753 14.0411 64.732 14.0253C64.5801 14.1887 64.3811 14.2045 64.182 14.1782C61.9871 13.8566 59.766 13.9041 57.5659 13.7301C57.283 13.7091 56.9949 13.7038 56.712 13.7038C54.3233 13.7038 51.9346 13.7038 49.5459 13.7038C46.5023 13.7038 43.464 13.9568 40.4258 14.0675C34.9306 14.2678 29.5351 15.2324 24.1238 16.081C24.0819 16.0862 24.04 16.0968 23.9928 16.1021C22.8351 16.2865 22.6832 16.1548 22.678 14.9793C22.678 14.2941 22.6675 13.6142 22.678 12.929C22.6884 12.365 22.7984 11.8326 23.1389 11.374C22.6727 11.5532 22.3322 11.9117 22.0232 12.2754C20.8759 13.63 20.284 15.2113 20.2578 16.9929C20.2578 17.3987 20.2892 17.852 20.9493 17.7255H20.9598Z" fill="#7E58FF"/>
<path d="M22.6766 14.9848C22.6766 16.1602 22.839 16.292 23.9914 16.1075C24.0333 16.1023 24.0805 16.0917 24.1224 16.0864C29.5337 15.2378 34.9293 14.2732 40.4244 14.0729C43.4627 13.9623 46.5009 13.7093 49.5445 13.7093C51.9332 13.7093 54.3219 13.7093 56.7106 13.7093C56.9935 13.7093 57.2816 13.7093 57.5645 13.7356C59.7699 13.9095 61.9857 13.8621 64.1806 14.1836C64.3797 14.21 64.5788 14.1942 64.7307 14.0308C62.3472 13.6724 59.9427 13.5827 57.5488 13.5406C53.7405 13.4773 49.9269 13.4246 46.1133 13.6038C43.3422 13.7356 40.5658 13.8199 37.7999 14.0361C36.2127 14.1573 34.615 14.2416 33.0434 14.4735C29.8532 14.9374 26.6735 15.4908 23.4885 16.0127C23.0276 16.0864 22.8599 15.9283 22.8757 15.4539C22.9123 14.094 22.7604 12.7236 23.1428 11.3848C22.7971 11.8486 22.6923 12.381 22.6818 12.9397C22.6714 13.6249 22.6766 14.3049 22.6818 14.9901L22.6766 14.9848Z" fill="#7E58FF"/>
<path d="M9.05547 36.0054C8.78307 36.1952 8.58925 35.9843 8.41638 35.8473C7.44727 35.083 6.36292 34.5085 5.29951 33.8918C4.54518 33.4543 4.49804 33.2751 4.86473 32.4528C6.13242 29.6065 7.93968 27.145 10.0665 24.8837C11.4809 23.3762 12.9162 21.8951 14.3829 20.4456C15.7397 19.1068 17.2222 17.8892 18.5475 16.5135C18.6785 16.3764 18.8199 16.2077 19.0556 16.2868C19.1761 15.7861 18.8356 16.0496 18.6889 16.0865C17.8089 16.3132 17.0231 16.7454 16.2897 17.283C14.3777 18.6851 12.5966 20.2611 10.737 21.7317C7.02819 24.6623 4.1523 28.2993 1.84215 32.4106C1.28688 33.4016 1.38117 33.8338 2.31885 34.461C3.59703 35.3149 4.91711 36.1003 6.19005 36.9595C7.9292 38.1349 8.36399 37.6447 9.05547 36.016V36.0054Z" fill="#7E58FF"/>
<path d="M18.5501 16.5081C17.2195 17.8838 15.7423 19.0961 14.3855 20.4402C12.9188 21.8897 11.4835 23.3709 10.0691 24.8784C7.94228 27.1396 6.13502 29.6011 4.86732 32.4474C4.50063 33.2697 4.54778 33.4436 5.30211 33.8864C6.36028 34.5031 7.44987 35.0776 8.41898 35.8419C8.59184 35.979 8.78567 36.1951 9.05806 36.0001C7.78513 35.2463 6.60648 34.3292 5.26544 33.6914C4.6997 33.4226 4.7416 33.0852 4.96162 32.5845C6.0774 30.0702 7.58607 27.8195 9.42475 25.7955C11.693 23.2918 14.0503 20.8672 16.57 18.6165C17.4238 17.8575 18.1834 17.0088 19.0582 16.2762C18.8225 16.2024 18.6863 16.3658 18.5501 16.5028V16.5081Z" fill="#7E58FF"/>
<path d="M13.5903 36.1639C13.826 34.667 14.4965 33.3387 15.1094 31.9788C15.9266 30.1603 16.6862 28.3155 17.6972 26.5919C17.7653 26.4759 17.7653 26.2018 18.0325 26.3652C18.1896 25.427 18.4201 24.4888 18.1058 23.4609C16.6495 24.7945 15.4552 26.2809 14.2765 27.7778C13.7108 28.4947 13.3493 29.3222 13.1974 30.2288C12.7888 32.6429 12.7207 35.0886 12.6264 37.5291C12.595 38.2934 13.0926 38.7678 13.9413 38.9153C14.5437 39.0208 15.1513 39.1104 15.7485 39.2211C16.7403 39.4108 17.3584 38.9997 17.6029 37.9877C16.3981 37.6082 15.2037 37.197 13.9884 36.8597C13.5431 36.7384 13.5274 36.554 13.5903 36.1639Z" fill="#7E58FF"/>
<path d="M18.0372 26.3594C17.0314 27.9143 16.3242 29.6221 15.5909 31.3088C15.0775 32.4948 14.4279 33.628 14.0665 34.8878C13.6055 36.5218 13.5845 36.5112 15.1456 37.0014C15.7952 37.2017 16.429 37.4442 17.089 37.6181C17.3038 37.6761 17.5134 37.7499 17.6077 37.9818C17.6548 37.8817 17.7072 37.7868 17.7386 37.6866C18.032 36.7115 18.7287 35.7786 18.5087 34.7402C17.9272 31.9624 17.791 29.1741 18.032 26.3594H18.0372Z" fill="#7E58FF"/>
<path d="M17.0827 37.6239C16.4227 37.4552 15.7888 37.2127 15.1393 37.0072C13.5782 36.517 13.5992 36.5222 14.0602 34.8935C14.4164 33.6337 15.0659 32.5005 15.5845 31.3145C16.3179 29.6278 17.0303 27.92 18.0309 26.3651C17.7637 26.2017 17.7585 26.4758 17.6956 26.5918C16.6846 28.3154 15.925 30.1602 15.1078 31.9787C14.4949 33.3386 13.8244 34.6669 13.5887 36.1638C13.5258 36.5539 13.5468 36.7383 13.9868 36.8596C15.2021 37.1969 16.4017 37.6028 17.6013 37.9875C17.5018 37.7556 17.2975 37.6818 17.0827 37.6239Z" fill="#7E58FF"/>
<path d="M58.3892 22.4965C56.1367 21.2683 53.6432 21.0628 51.1497 20.9205C47.5562 20.7149 43.9835 21.3474 40.8457 21.184C38.5042 21.1735 36.6236 21.1735 34.743 21.3105C32.6004 21.4634 30.4894 21.7796 28.4726 22.5545C27.7287 22.8391 27.0006 23.2344 26.6915 24.0198C25.8848 26.0702 25.6333 28.1944 26.1729 30.3502C26.6391 32.2056 27.7654 33.6761 29.1431 34.9359C30.6675 36.338 32.3857 37.3922 34.502 37.6452C35.4763 37.7611 36.4559 37.7822 37.425 37.9509C38.9285 38.2144 40.4214 38.5518 41.9615 38.5412C43.9102 38.5307 45.8484 38.478 47.7919 38.2882C50.3116 38.0458 52.8208 37.7453 55.2985 37.1971C56.7705 36.8703 58.2687 36.5383 59.5783 35.7793C61.8571 34.4562 62.8157 32.2424 62.8419 29.7388C62.8681 26.4708 61.2337 24.0514 58.3892 22.4965ZM57.2839 35.2785C54.2037 36.1851 51.0502 36.6332 47.8809 37.0548C43.1035 37.6979 38.3994 37.097 33.7058 36.2747C30.107 35.6422 26.1729 31.1988 26.9849 26.6552C27.011 26.5024 27.0582 26.3601 27.1001 26.2072C27.2887 24.3571 27.713 23.9407 29.405 23.3978C32.6581 22.3542 36.0054 22.1539 39.379 22.0379C42.9254 21.9167 46.4718 21.8745 50.0182 21.885C52.5431 21.8956 55.0419 22.0643 57.3572 23.2608C58.5621 23.8827 59.6517 24.6259 60.3746 25.8172C62.4019 28.5739 61.8047 33.945 57.2839 35.2785Z" fill="black"/>
<path d="M54.233 24.1659C53.0491 23.9762 51.8548 23.797 50.6604 23.7126C47.9259 23.5123 45.181 23.4438 42.4518 23.6019C39.5759 23.7653 36.6948 23.9393 33.8293 24.3135C32.0273 24.5507 30.2253 24.6825 28.5176 25.3835C28.0042 25.5944 27.5537 25.9001 27.098 26.2058C27.0613 26.3534 27.0089 26.501 26.9827 26.6538C26.1708 31.1974 30.0996 35.6408 33.7036 36.2733C38.392 37.1008 43.0961 37.6964 47.8788 37.0534C51.048 36.6264 54.2016 36.1837 57.2818 35.2771C61.8078 33.9488 62.405 28.5724 60.3724 25.8157C58.3242 25.2834 56.3336 24.498 54.233 24.1659ZM40.7755 29.1891C40.6236 30.0536 40.4612 30.918 40.1626 31.7455C39.9531 32.3306 39.5811 32.7207 38.9473 32.7997C38.3082 32.8841 37.9363 32.5151 37.622 32.0249C37.2867 31.5084 36.941 30.9971 36.9672 30.4542C36.9672 29.7742 37.1348 29.2471 37.3967 28.7622C37.6115 28.3616 37.5067 28.214 37.1138 28.0612C35.6104 27.4708 34.1227 26.8488 32.6297 26.2427C32.4883 26.1847 32.3521 26.1162 32.2054 26.0687C31.7235 25.9053 31.5349 25.4257 31.6502 25.0883C31.7602 24.7721 32.2683 24.751 32.6507 24.8986C34.3375 25.5627 36.019 26.2321 37.7005 26.9068C38.4706 27.2125 39.2302 27.5446 40.0002 27.8556C40.6131 28.0981 40.9012 28.5145 40.7807 29.1891H40.7755Z" fill="#FDE0C2"/>
<path d="M28.3195 25.2677C29.9067 24.5773 31.5987 24.3664 33.3012 24.1556C36.3028 23.7866 39.3149 23.5705 42.327 23.4071C44.5952 23.2806 46.874 23.3228 49.1527 23.4493C51.4104 23.5758 53.6472 23.7813 55.8526 24.3084C57.1727 24.6247 58.4561 25.0885 59.7657 25.447C60.0067 25.5102 60.19 25.6683 60.3839 25.8159C59.6609 24.6247 58.5714 23.8815 57.3665 23.2595C55.0511 22.063 52.5524 21.8943 50.0275 21.8838C46.4811 21.868 42.9347 21.9154 39.3882 22.0367C36.0147 22.1526 32.6673 22.3582 29.4143 23.3966C27.717 23.9395 27.298 24.3559 27.1094 26.206C27.3503 25.6789 27.8428 25.4733 28.3299 25.2625L28.3195 25.2677Z" fill="#B39F8A"/>
<path d="M33.8317 24.3196C36.6971 23.9401 39.573 23.7714 42.4541 23.608C45.1834 23.4499 47.9335 23.5237 50.6628 23.7187C51.8571 23.803 53.0515 23.9822 54.2354 24.172C56.336 24.5041 58.3213 25.2894 60.3748 25.8218C60.181 25.6742 59.9976 25.5161 59.7567 25.4528C58.4471 25.0944 57.1689 24.6306 55.8436 24.3143C53.6434 23.7872 51.4014 23.5816 49.1436 23.4551C46.8649 23.3234 44.5862 23.2865 42.3179 23.413C39.3059 23.5816 36.2938 23.7925 33.2921 24.1614C31.5897 24.3723 29.9029 24.5831 28.3104 25.2736C27.8285 25.4845 27.336 25.69 27.0898 26.2171C27.5456 25.9167 27.9961 25.611 28.5095 25.3948C30.2172 24.6938 32.0192 24.562 33.8212 24.3248L33.8317 24.3196Z" fill="#B39F8A"/>
<path d="M39.9908 27.8568C39.2208 27.5511 38.4612 27.219 37.6912 26.908C36.0096 26.2333 34.3228 25.5692 32.6413 24.8998C32.2641 24.7522 31.756 24.7733 31.6408 25.0895C31.5203 25.4269 31.7089 25.9065 32.196 26.0699C32.3427 26.1174 32.4789 26.1859 32.6204 26.2439C34.1133 26.8553 35.601 27.4773 37.1045 28.0623C37.4973 28.2152 37.6073 28.368 37.3873 28.7634C37.1254 29.2483 36.963 29.7754 36.9578 30.4553C36.9316 30.9983 37.2773 31.5095 37.6126 32.0261C37.9321 32.5163 38.2988 32.8852 38.9379 32.8009C39.5718 32.7166 39.9437 32.3265 40.1532 31.7467C40.4518 30.9139 40.6142 30.0548 40.7661 29.1903C40.8814 28.5156 40.5932 28.0992 39.9856 27.8568H39.9908Z" fill="black"/>
<path d="M46.0463 27.8568C46.8164 27.5511 47.5759 27.219 48.346 26.908C50.0275 26.2333 51.7143 25.5692 53.3958 24.8998C53.773 24.7522 54.2811 24.7733 54.3964 25.0895C54.5169 25.4269 54.3283 25.9065 53.8411 26.0699C53.6944 26.1174 53.5582 26.1859 53.4168 26.2439C51.9238 26.8553 50.4361 27.4773 48.9327 28.0623C48.5398 28.2152 48.4298 28.368 48.6498 28.7634C48.9117 29.2483 49.0741 29.7754 49.0794 30.4553C49.1056 30.9983 48.7598 31.5095 48.4246 32.0261C48.105 32.5163 47.7383 32.8852 47.0993 32.8009C46.4654 32.7166 46.0935 32.3265 45.8839 31.7467C45.5853 30.9139 45.423 30.0548 45.271 29.1903C45.1558 28.5156 45.4439 28.0992 46.0516 27.8568H46.0463Z" fill="black"/>
</g>
<defs>
<clipPath id="clip0_1213_9134">
<rect width="68" height="57" fill="white"/>
</clipPath>
</defs>
</svg>
