<svg width="67" height="56" viewBox="0 0 67 56" fill="none" xmlns="http://www.w3.org/2000/svg">
<g clip-path="url(#clip0_1081_2092)">
<mask id="mask0_1081_2092" style="mask-type:luminance" maskUnits="userSpaceOnUse" x="0" y="0" width="67" height="34">
<path d="M67 0.571289H0V33.6403H67V0.571289Z" fill="white"/>
</mask>
<g mask="url(#mask0_1081_2092)">
<path d="M53.6551 33.1298C53.6551 45.0036 44.0295 54.6293 32.1557 54.6293C20.2819 54.6293 10.6562 45.0036 10.6562 33.1298C10.6562 21.256 20.2819 11.6304 32.1557 11.6304C44.0295 11.6304 53.6551 21.256 53.6551 33.1298Z" fill="#D5DDE0" stroke="#3F4042" stroke-width="2"/>
</g>
<path d="M20 14L33 33" stroke="white" stroke-width="2" stroke-miterlimit="10"/>
<path d="M44 14L32 34" stroke="white" stroke-width="2" stroke-miterlimit="10"/>
<path d="M20.4387 39.6743C21.2054 39.7592 21.8816 39.5526 22.4191 38.967C22.8039 38.5455 23.2763 38.3955 23.8478 38.5228C24.5862 38.6869 25.2454 38.5002 25.7688 37.9457C26.1026 37.5921 26.5015 37.428 26.974 37.4846C27.4662 37.544 27.9755 37.5298 28.4083 37.3516C28.9968 37.1083 29.2231 37.3969 29.4636 37.8156C29.7295 38.2767 30.1511 38.5002 30.6773 38.503C31.2572 38.5059 31.7835 38.3135 32.2729 38.0079C32.5275 37.8495 32.6294 37.6119 32.6265 37.3148C32.6209 36.9499 32.5388 36.599 32.4342 36.2567C32.3747 36.0587 32.4059 35.9766 32.6152 35.9059C33.9336 35.4646 35.2463 35.0063 36.5364 34.4744C40.814 32.7119 44.7719 30.375 48.5092 27.6732C51.1629 25.7551 53.6864 23.6672 56.0855 21.4322C57.6783 19.9469 58.9712 18.2579 59.8991 16.286C60.001 16.0682 60.0547 15.7853 59.9048 15.6636C59.7605 15.5448 59.4918 15.6382 59.2909 15.7796C58.2158 16.5378 57.1379 17.2904 56.0516 18.0316C54.422 19.1406 52.7811 20.2298 51.1515 21.336C48.2687 23.2937 45.2811 25.0761 42.1974 26.6915C39.9426 27.8741 37.5577 28.7709 35.201 29.7187C33.8119 30.2788 32.4087 30.805 30.9772 31.2549C30.7622 31.3228 30.6518 31.2945 30.5415 31.0851C30.335 30.6975 30.1143 30.3184 29.8455 29.9704C29.4947 29.515 29.0449 29.3452 28.4791 29.4923C28.0236 29.6111 27.5964 29.795 27.1635 29.9733C27.0362 30.0242 26.9513 30.1232 26.9117 30.2449C26.7476 30.7541 26.6741 31.2662 26.875 31.7896C26.9683 32.0329 27.2427 32.3073 27.1098 32.511C26.9768 32.7147 26.626 32.7713 26.3572 32.8561C24.5523 33.4248 22.719 33.8831 20.8857 34.3471C19.3524 34.7347 17.8331 35.1732 16.3478 35.7192C15.8358 35.9087 15.4652 36.2454 15.335 36.9414C15.2898 37.6204 15.3124 38.4238 15.5698 39.199C15.6971 39.5838 15.932 39.9091 16.2828 40.1354C16.9702 40.5768 17.6577 40.4721 18.3282 40.1071C18.9902 39.7478 19.6834 39.5951 20.4359 39.6771L20.4387 39.6743ZM39.7757 28.29C42.8198 26.9688 45.6461 25.2656 48.4611 23.5286C51.259 21.8 53.9071 19.8507 56.6315 18.0146C57.1747 17.6497 57.7122 17.2791 58.2498 16.9084C58.445 16.7727 58.6628 16.6963 58.9316 16.5774C58.8015 17.1574 58.5808 17.6355 58.2526 18.0684C57.5397 19.1689 56.6994 20.1676 55.7319 21.0418C52.8914 23.6106 50.0001 26.1144 46.8145 28.2673C43.8751 30.2562 40.831 32.0414 37.6143 33.5323C36.2138 34.183 34.7257 34.5847 33.2829 35.1081C32.734 35.3061 32.1824 35.4957 31.6279 35.6824C30.5302 36.053 30.1794 35.2807 30.0351 34.3952C30.0096 34.2367 30.1709 34.2537 30.2586 34.2226C31.6646 33.7332 33.0594 33.2126 34.44 32.6468C38.3725 31.0399 42.1465 29.1217 45.7791 26.9235C49.1938 24.8582 52.4501 22.5582 55.5734 20.0742C55.5734 19.8818 55.4688 19.9639 55.3839 19.9978C55.0472 20.1365 54.77 20.3741 54.4757 20.5806C52.6 21.8962 50.7413 23.2343 48.8345 24.5074C46.6759 25.9475 44.3871 27.1753 42.1578 28.4937C39.4305 30.1091 36.5703 31.4274 33.5884 32.494C32.4794 32.8901 31.427 33.4361 30.2699 33.7049C29.9587 33.7756 29.871 33.6681 29.8116 33.4163C29.7239 33.0429 29.8087 32.6807 29.8823 32.3186C29.9106 32.1828 30.0464 32.1262 30.1624 32.081C30.4906 31.9565 30.8187 31.8348 31.1497 31.7245C34.0892 30.7315 36.9381 29.5178 39.7814 28.2843L39.7757 28.29ZM27.5964 32.0414C27.4719 31.6934 27.3672 31.3397 27.3616 30.9635C27.3587 30.7173 27.4323 30.491 27.6077 30.3269C28.0151 29.945 28.5243 29.829 29.0619 29.8545C29.2938 29.8658 29.4721 30.0412 29.5711 30.2534C29.7352 30.6042 29.8766 30.9691 30.0351 31.3228C30.0832 31.4331 30.0464 31.4784 29.9559 31.5265C29.3929 31.8235 29.2373 32.3299 29.2373 32.924C29.2401 33.9369 29.4806 34.8874 29.9813 35.7701C30.1284 36.0304 30.3123 36.2539 30.6773 36.3133C30.8895 36.3529 31.1384 36.3133 31.3874 36.2624C31.6307 36.2143 31.7835 36.2794 31.9079 36.5085C32.2644 37.1705 32.0494 37.725 31.328 37.9344C30.5698 38.1579 30.1482 37.9683 29.8229 37.2497C29.0449 35.5296 28.2301 33.8237 27.5992 32.0414H27.5964ZM16.2036 39.0943C15.9885 38.4521 15.9008 37.7844 15.915 37.1111C15.9235 36.6669 16.1724 36.3303 16.6025 36.1832C17.5021 35.8691 18.4018 35.5494 19.3156 35.2779C21.8278 34.5281 24.3684 33.8774 26.9032 33.2098C27.4917 33.0542 27.3587 32.9976 27.5822 33.5408C27.9613 34.4574 28.3291 35.3769 28.7139 36.2907C28.7903 36.4689 28.7422 36.5538 28.5951 36.6443C28.0207 36.998 27.421 37.1564 26.759 36.9216C26.2384 36.8622 25.831 37.0885 25.4915 37.4534C25.1633 37.8042 24.7871 38.0419 24.2948 38.0221C24.0628 38.0136 23.828 37.9797 23.6017 37.9344C23.1151 37.841 22.7218 38.0108 22.3767 38.3333C21.9976 38.6898 21.6128 39.0208 21.0725 39.1198C20.7386 39.182 20.4104 39.1622 20.0879 39.1198C19.457 39.0321 18.8912 39.1651 18.3735 39.5328C18.0368 39.7733 17.6577 39.8752 17.2475 39.8582C17.2051 39.8695 17.1711 39.8695 17.14 39.8582C16.7467 39.8412 16.3563 39.53 16.2092 39.0915L16.2036 39.0943Z" fill="#010101"/>
<path d="M58.0145 18.1377C57.2308 18.6582 56.5547 19.3118 55.8219 19.8946C55.7399 19.9596 55.6494 20.0162 55.5645 20.0756C52.4412 22.5596 49.1849 24.8597 45.7701 26.9249C42.1375 29.1231 38.3635 31.0413 34.4311 32.6482C33.0504 33.2112 31.6585 33.7317 30.2496 34.224C30.1619 34.2551 30.0007 34.2382 30.0261 34.3966C30.1704 35.2793 30.5212 36.0544 31.6189 35.6838C32.1734 35.4971 32.7251 35.3076 33.2739 35.1095C34.7196 34.5861 36.2049 34.1844 37.6053 33.5337C40.822 32.0399 43.869 30.2576 46.8056 28.2687C49.9883 26.113 52.8825 23.612 55.7229 21.0432C56.6905 20.169 57.5307 19.1703 58.2437 18.0698C58.1305 17.9679 58.0739 18.0981 58.0117 18.1405L58.0145 18.1377Z" fill="#E2DDE1"/>
<path d="M30.1576 32.0894C30.0417 32.1346 29.9059 32.1884 29.8776 32.327C29.804 32.6891 29.7191 33.0513 29.8068 33.4247C29.8662 33.6793 29.954 33.7868 30.2652 33.7133C31.4251 33.4445 32.4747 32.8985 33.5837 32.5024C36.5656 31.4358 39.4258 30.1175 42.1531 28.502C44.3852 27.1809 46.6712 25.9558 48.8298 24.5158C50.7366 23.2456 52.5953 21.9046 54.471 20.589C54.7652 20.3825 55.0425 20.1449 55.3792 20.0062C55.4669 19.9695 55.5715 19.8902 55.5687 20.0826C55.8233 19.7431 56.1826 19.5196 56.4995 19.2537C56.9748 18.8548 57.4274 18.4248 57.9565 18.0966C58.047 18.04 58.1347 17.9353 58.262 18.0259C58.2648 18.0259 58.2648 18.0428 58.262 18.0485C58.262 18.057 58.2507 18.0655 58.2479 18.0739C58.576 17.6411 58.7967 17.163 58.9269 16.583C58.6553 16.7018 58.4403 16.7782 58.245 16.914C57.7103 17.2875 57.17 17.6552 56.6268 18.0202C53.9024 19.8563 51.2543 21.8055 48.4563 23.5341C45.6442 25.2712 42.8151 26.9743 39.771 28.2955C36.9277 29.529 34.0788 30.7427 31.1393 31.7357C30.8083 31.8489 30.4773 31.9677 30.152 32.0922L30.1576 32.0894Z" fill="#A09D9F"/>
<path d="M58.2675 18.0189C58.1402 17.9283 58.0497 18.033 57.962 18.0896C57.4301 18.4178 56.9803 18.8506 56.505 19.2467C56.1853 19.5126 55.826 19.7361 55.5742 20.0756C55.6591 20.0162 55.7496 19.9596 55.8317 19.8946C56.5644 19.3118 57.2406 18.6583 58.0242 18.1377C58.0893 18.0953 58.1431 17.9651 58.2562 18.067C58.2619 18.0585 58.2675 18.05 58.2704 18.0415C58.2704 18.033 58.2732 18.0217 58.2704 18.0189H58.2675Z" fill="#A09D9F"/>
<path d="M26.3887 36.2067C26.2218 35.8474 26.052 35.4853 25.8964 35.1203C25.8285 34.9619 25.7493 34.9025 25.5654 34.9392C24.148 35.2335 22.7307 35.522 21.3076 35.7965C20.4787 35.9577 19.6441 36.0879 18.8095 36.2321C18.2465 36.3283 17.7458 36.5914 17.2337 36.8234C17.1686 36.8517 17.1149 36.9253 17.0753 36.9903C16.5406 37.9324 16.4415 38.7699 17.0781 39.7544C17.1234 39.8223 17.1799 39.8364 17.2422 39.8591C17.6552 39.876 18.0343 39.7742 18.3682 39.5337C18.8859 39.1659 19.4489 39.033 20.0826 39.1207C20.4051 39.1659 20.7333 39.1829 21.0671 39.1207C21.6075 39.0216 21.9923 38.6906 22.3714 38.3342C22.7165 38.0117 23.1098 37.8419 23.5964 37.9353C23.8255 37.9805 24.0575 38.0145 24.2895 38.023C24.7818 38.0399 25.1609 37.8051 25.4862 37.4543C25.8257 37.0894 26.2331 36.863 26.7536 36.9224C26.7282 36.6339 26.499 36.4528 26.3859 36.2067H26.3887Z" fill="#3F4042"/>
<path d="M17.2403 39.8589C17.2035 39.8617 17.1668 39.8617 17.1328 39.8589C17.1639 39.8674 17.2007 39.8674 17.2403 39.8589Z" fill="#3F4042"/>
<path d="M17.0382 36.921C17.1203 36.7909 17.2532 36.7258 17.3862 36.6636C18.0312 36.3524 18.7102 36.1515 19.4203 36.0412C21.2423 35.7583 23.0444 35.3735 24.8494 35.0001C25.0701 34.9548 25.2907 34.9237 25.5114 34.8756C25.7377 34.8275 25.8792 34.8954 25.9754 35.1161C26.2017 35.6451 26.4252 36.1741 26.7421 36.6607C26.793 36.7371 26.8609 36.8277 26.759 36.921C27.421 37.1558 28.0208 36.9974 28.5951 36.6438C28.7422 36.5532 28.7903 36.4712 28.7139 36.2901C28.3292 35.3763 27.9614 34.454 27.5823 33.5402C27.3588 32.997 27.4889 33.0536 26.9033 33.2092C24.3684 33.8741 21.8279 34.5276 19.3156 35.2773C18.4018 35.5489 17.5022 35.8686 16.6025 36.1826C16.1753 36.3326 15.9235 36.6664 15.9151 37.1106C15.9037 37.7839 15.9886 38.4516 16.2036 39.0938C16.3507 39.5323 16.7412 39.8463 17.1344 39.8605C17.0693 39.8435 17.0241 39.7897 16.9816 39.7247C16.3564 38.7854 16.478 37.8065 17.0382 36.921Z" fill="#2D2D2F"/>
<path d="M17.0763 39.7548C16.437 38.7731 16.536 37.9329 17.0735 36.9908C17.1103 36.9257 17.1669 36.8522 17.2319 36.8239C17.744 36.5919 18.2448 36.3288 18.8078 36.2326C19.6395 36.0883 20.4741 35.9582 21.3059 35.7969C22.7261 35.5225 24.1463 35.2339 25.5637 34.9397C25.7476 34.9029 25.8268 34.9623 25.8947 35.1207C26.0531 35.4857 26.22 35.8478 26.3869 36.2071C26.5001 36.4504 26.7321 36.6343 26.7547 36.9229C26.8566 36.8295 26.7887 36.739 26.7378 36.6626C26.4209 36.176 26.1974 35.647 25.9711 35.1179C25.8749 34.8972 25.7334 34.8293 25.5071 34.8774C25.2864 34.9255 25.0657 34.9538 24.8451 35.0019C23.0401 35.3782 21.238 35.7601 19.416 36.043C18.7059 36.1534 18.0269 36.3542 17.3819 36.6654C17.2489 36.7305 17.1159 36.7956 17.0339 36.9229C16.4737 37.8084 16.3521 38.7873 16.9773 39.7265C17.0198 39.7916 17.065 39.8454 17.1301 39.8623C17.1669 39.8623 17.2037 39.8623 17.2376 39.8623C17.1754 39.8425 17.1159 39.8255 17.0735 39.7577L17.0763 39.7548Z" fill="#2D2D2F"/>
<path d="M31.3259 37.9319C32.0473 37.7197 32.2623 37.1681 31.9058 36.5061C31.7813 36.2769 31.6314 36.2118 31.3853 36.2599C31.1391 36.3108 30.8874 36.3505 30.6752 36.3108C30.3102 36.2514 30.1263 36.0251 29.9792 35.7677C29.4785 34.885 29.238 33.9344 29.2352 32.9216C29.2352 32.3303 29.3879 31.821 29.9537 31.524C30.0471 31.4759 30.0839 31.4306 30.033 31.3203C29.8745 30.9667 29.7331 30.6017 29.569 30.2509C29.47 30.0387 29.2946 29.8633 29.0597 29.852C28.5222 29.8265 28.0101 29.9425 27.6056 30.3244C27.4302 30.4885 27.3566 30.7149 27.3595 30.961C27.3651 31.3373 27.4698 31.6909 27.5943 32.0389C28.2252 33.8212 29.0371 35.5272 29.818 37.2473C30.1433 37.9659 30.5648 38.1526 31.323 37.9319H31.3259Z" fill="#D5DDE0"/>
</g>
<defs>
<clipPath id="clip0_1081_2092">
<rect width="67" height="55.054" fill="white" transform="translate(0 0.576172)"/>
</clipPath>
</defs>
</svg>
