<svg width="48" height="48" viewBox="0 0 48 48" fill="none" xmlns="http://www.w3.org/2000/svg">
<mask id="mask0_1115_5374" style="mask-type:luminance" maskUnits="userSpaceOnUse" x="2" y="6" width="44" height="36">
<path d="M44 11C44 10.2044 43.6839 9.44129 43.1213 8.87868C42.5587 8.31607 41.7957 8 41 8H7C6.20435 8 5.44129 8.31607 4.87868 8.87868C4.31607 9.44129 4 10.2044 4 11V20H44V11Z" fill="#555555" stroke="white" stroke-width="3" stroke-linecap="round" stroke-linejoin="round"/>
<path d="M4.11328 39.03L16.2893 26.73L22.8693 33.03L30.9113 26L35.3913 30.368" stroke="white" stroke-width="3" stroke-linecap="round" stroke-linejoin="round"/>
<path d="M44 18V37C44 37.7956 43.6839 38.5587 43.1213 39.1213C42.5587 39.6839 41.7956 40 41 40H12M19.112 14H37.112M11.11 14H13.11M4 18V27" stroke="white" stroke-width="3" stroke-linecap="round" stroke-linejoin="round"/>
</mask>
<g mask="url(#mask0_1115_5374)">
<path d="M0 0H48V48H0V0Z" fill="#3F4042"/>
</g>
</svg>
