<svg width="64" height="63" viewBox="0 0 64 63" fill="none" xmlns="http://www.w3.org/2000/svg">
<path d="M1.08203 20.7377L39.1333 17.2791L47.5918 62.3749H11.8987C9.95791 62.3749 8.51735 62.3747 7.37654 62.2815C6.23867 62.1886 5.42101 62.0043 4.72203 61.6483C3.46768 61.0091 2.44786 59.9893 1.80872 58.735C1.45269 58.036 1.26842 57.2183 1.17544 56.0804C1.08223 54.9396 1.08203 53.4991 1.08203 51.5583V20.7377ZM23.1872 56.8323C24.8111 55.8593 27.491 54.0506 29.7677 51.5399C32.0434 49.0301 33.9362 45.7962 33.9362 41.9787C33.9362 34.507 28.1678 29.5208 21.582 29.5208C15.2171 29.5208 9.22787 34.5042 9.22787 41.9752C9.22787 45.7945 11.1206 49.0292 13.3964 51.5394C15.6731 54.0506 18.353 55.8593 19.9768 56.8323C19.9768 56.8322 19.9768 56.8322 19.9767 56.8322L23.1872 56.8323Z" fill="#E6E6E6" stroke="black" stroke-width="0.5"/>
<path d="M1.58595 4.1515C0.832031 5.63167 0.832031 7.56833 0.832031 11.4417V13.5651L63.0474 7.90725C62.9817 6.21958 62.8054 5.09217 62.3281 4.1515C61.665 2.8501 60.6069 1.79203 59.3055 1.12892C57.8254 0.375 55.8887 0.375 52.0154 0.375H11.8987C8.02536 0.375 6.0887 0.375 4.60853 1.12892C3.30713 1.79203 2.24906 2.8501 1.58595 4.1515ZM63.082 14.8516L46.2572 16.3802L54.9238 62.6077C56.9712 62.5628 58.2542 62.4071 59.3055 61.8711C60.6069 61.208 61.665 60.1499 62.3281 58.8485C63.082 57.3683 63.082 55.4317 63.082 51.5583V14.8516Z" fill="#3F4042"/>
<path d="M24.7917 41.8751C24.7917 43.647 23.3552 45.0834 21.5833 45.0834C19.8114 45.0834 18.375 43.647 18.375 41.8751C18.375 40.1032 19.8114 38.6667 21.5833 38.6667C23.3552 38.6667 24.7917 40.1032 24.7917 41.8751Z" fill="#E3E5E5" stroke="black" stroke-width="0.5"/>
</svg>
