<?xml version="1.0" encoding="utf-8"?>
<svg viewBox="15.697 16.874 79.619 85.543" fill="none" xmlns="http://www.w3.org/2000/svg">
  <defs>
    <clipPath id="clip0_1019_783">
      <rect width="87.2028" height="92.653" fill="white" transform="translate(0 43.166) rotate(-29.6702)"/>
    </clipPath>
  </defs>
  <g clip-path="url(#clip0_1019_783)" transform="matrix(1, 0, 0, 1, -6.06727609138602, -1.3272190291765327)">
    <path d="M59.6303 77.5802C66.1593 84.6739 73.0967 91.3406 80.4456 97.5694C81.7582 98.6809 83.0647 99.7496 84.725 100.311C86.7681 100.997 87.7616 100.163 87.3857 98.0371C86.4785 92.8837 84.4708 88.0705 82.8039 83.1465C80.9375 77.6145 78.9552 72.1208 77.275 66.529C76.9607 65.4778 77.0581 64.6176 77.8623 63.7894C83.363 58.1212 88.6819 52.279 93.986 46.4268C95.6287 44.6214 97.1266 42.7229 97.892 40.3443C98.3206 39.0179 97.8552 38.2655 96.4693 38.1208C95.5978 38.0253 94.7467 38.1587 93.9007 38.3817C84.6074 40.8086 75.5883 44.0875 66.4695 47.0625C65.1134 47.502 64.101 47.2556 63.1464 46.2084C56.4892 38.938 49.8182 31.6755 43.1402 24.417C41.69 22.8382 39.9692 21.7835 37.7161 21.6796C37.7196 22.4269 37.6952 23.1253 37.7352 23.8239C37.762 24.3544 37.8711 24.8843 37.9515 25.412C38.8344 30.829 40.8189 35.9237 42.5151 41.1086C44.1196 46.0035 45.7419 50.8975 47.4028 55.7788C47.8295 57.0434 47.6174 58.0245 46.6607 58.9395C45.5547 59.9951 44.536 61.1397 43.4528 62.2193C39.2209 66.4247 34.5808 70.1874 30.1651 74.183C27.5353 76.56 25.503 79.3735 23.5661 82.29C22.8971 83.2909 23.0824 84.2768 23.9515 84.7067C24.7174 85.0843 25.59 85.2625 26.3866 85.1139C28.4723 84.7305 30.5588 84.3003 32.5935 83.7146C40.5173 81.4296 48.3074 78.6844 56.3071 76.6614C57.6722 76.3185 58.6778 76.5689 59.6164 77.5881L59.6303 77.5802ZM28.9308 83.054C28.2305 83.2587 27.5002 83.3787 26.7799 83.4839C25.6829 83.637 25.3541 83.2694 25.5165 82.1686C25.581 81.7341 25.7517 81.3408 26.0623 81.0159C28.9844 77.5567 32.1001 74.2924 35.4581 71.2601C39.2584 67.8279 43.1014 64.4545 46.9434 61.0632C47.5668 60.5138 48.2706 60.0574 48.9247 59.546C49.3087 59.2532 49.791 59.0524 49.9655 58.5368C49.0395 54.9296 47.5688 51.494 46.411 47.9633C44.1585 41.1251 41.3086 34.4792 39.7445 27.4153C39.5755 26.6513 39.5462 25.891 39.5308 25.1227C39.5188 24.5376 39.7965 24.6384 40.1457 24.8002C41.0655 24.8034 41.692 25.3715 42.2671 25.9781C45.9173 29.8556 49.5814 33.7252 53.198 37.6403C55.8113 40.4712 58.3673 43.3625 60.947 46.2311C61.6692 47.0314 62.2884 47.9089 62.8423 48.8329C63.1466 49.3348 63.477 49.4796 64.0714 49.3629C66.5415 48.8807 68.835 47.8793 71.2053 47.0932C78.5064 44.682 85.643 41.7725 93.1267 39.9234C93.617 39.8013 94.0927 39.7338 94.5895 39.8485C96.0212 39.6063 96.1206 39.7162 95.7 41.0566C95.4124 41.9697 94.8796 42.7265 94.2804 43.4471C88.9221 49.913 83.2927 56.1448 77.0783 61.7848C75.3914 63.3194 74.9174 64.7271 75.586 66.5292C75.7173 66.7597 75.8348 66.998 75.9066 67.2531C77.2327 71.2243 78.6262 75.185 79.8751 79.1817C81.3683 83.9458 83.2973 88.5726 84.7409 93.3464C84.9136 93.9233 85.0545 94.509 85.2132 95.0938C85.399 95.839 85.5393 96.6008 85.7707 97.3292C86.024 98.1284 85.6021 98.2578 84.9727 98.2648C83.932 98.275 83.1261 97.7628 82.3666 97.1225C76.6441 92.3629 71.1709 87.3318 66.028 81.9459C64.0793 79.9111 62.097 77.9139 60.179 75.8524C59.0387 74.6243 57.7922 74.3539 56.2004 74.863C47.1498 77.7159 38.0463 80.3954 28.9338 83.043L28.9308 83.054Z" fill="#010101"/>
    <path d="M40.1803 76.1537C42.8186 75.0484 45.4609 73.9501 48.2307 73.2046C50.6904 72.5433 53.1035 71.8161 55.7692 72.0642C57.2909 72.2055 58.8228 71.9618 60.1697 72.9242C62.4417 74.5436 64.6603 76.2304 66.5931 78.2373C70.3056 82.0792 74.2694 85.6208 78.4764 88.9128C80.6981 90.6534 82.5865 92.7596 84.6568 94.6696C84.8306 94.8296 85.0202 94.9528 85.2038 95.098C85.049 94.5201 84.9042 93.9274 84.7315 93.3505C83.2908 88.5658 81.3589 83.95 79.8657 79.1859C78.6168 75.1891 77.2273 71.2355 75.8972 67.2572C75.4676 66.503 74.7835 65.9307 74.4597 65.0884C73.5302 62.6673 74.3064 60.7266 76.0405 59.0171C78.7164 56.3827 81.6396 54.0051 84.3314 51.3985C87.9423 47.9077 91.3019 44.153 94.4143 40.2061C94.4943 40.105 94.5258 39.9668 94.5801 39.8527C94.0833 39.7379 93.6076 39.8054 93.1173 39.9275C85.6267 41.7806 78.4971 44.6862 71.1959 47.0974C68.8256 47.8835 66.5321 48.8849 64.062 49.367C63.4676 49.4837 63.1372 49.3389 62.8329 48.837C62.279 47.9131 61.6598 47.0356 60.9376 46.2353C58.3579 43.3667 55.8089 40.4714 53.1886 37.6444C49.572 33.7293 45.9079 29.8597 42.2577 25.9823C41.6826 25.3756 41.0492 24.8115 40.1363 24.8043C40.7508 27.7843 42.2061 30.4517 43.3524 33.2211C45.3821 38.1051 47.0571 43.1078 48.7005 48.1193C49.2419 49.7626 49.826 51.4001 50.6032 52.9738C51.5744 54.9365 51.4761 56.8425 49.963 58.537C49.7886 59.0526 49.3063 59.2534 48.9223 59.5462C48.2641 60.0506 47.5643 60.514 46.941 61.0634C43.1019 64.4438 39.2559 67.8281 35.4557 71.2603C32.1046 74.2887 28.9819 77.5569 26.0599 81.0161C28.7518 80.4723 31.2344 79.3354 33.7898 78.4069C35.9103 77.6335 38.1016 77.0327 40.1843 76.1607L40.1803 76.1537ZM56.2473 63.2355C55.8291 60.2456 56.6001 57.6511 59.2063 55.8611C59.6883 55.531 60.2281 55.3345 60.791 55.2913C63.2884 55.0988 65.9605 56.0832 67.076 58.8147C68.2236 61.2319 68.6162 63.774 67.5189 66.2306C66.0861 69.4519 61.1648 69.8691 58.7022 67.1095C58.4151 66.7828 58.1518 66.4333 57.8785 66.0988C56.7206 65.5004 56.4031 64.3308 56.2513 63.2425L56.2473 63.2355Z" fill="#E2DDE1"/>
    <path d="M75.581 66.5406C75.6697 66.7768 75.7693 67.0161 75.9016 67.2645C75.8297 67.0094 75.7123 66.7711 75.581 66.5406Z" fill="#E2DDE1"/>
    <path d="M60.175 75.8637C62.0931 77.9253 64.0754 79.9225 66.0241 81.9573C71.167 87.3431 76.6402 92.3742 82.3627 97.1339C83.1292 97.7702 83.935 98.2824 84.9688 98.2762C85.5981 98.2691 86.0132 98.1437 85.7668 97.3406C85.5354 96.6121 85.3882 95.8543 85.2093 95.1052C84.4522 95.1942 84.0981 94.5727 83.684 94.1519C81.2756 91.713 78.7455 89.3989 76.0414 87.2949C72.4042 84.4553 69.1616 81.1966 65.8913 77.9537C64.1007 76.1803 62.135 74.5991 60.033 73.1974C59.1884 72.6334 58.2631 72.3465 57.2113 72.2889C51.6047 71.9865 46.5206 73.8099 41.5017 75.957C39.4131 76.8509 37.2467 77.5115 35.0943 78.229C32.5031 79.0947 30.0116 80.2643 27.3696 80.9925C26.9645 81.1031 26.5122 81.4532 26.0683 81.0124C25.7577 81.3373 25.5939 81.7266 25.5224 82.1651C25.3601 83.2658 25.6889 83.6335 26.7858 83.4804C27.5102 83.3822 28.2364 83.2552 28.9368 83.0504C38.0493 80.4028 47.1528 77.7233 56.2035 74.8704C57.7992 74.3682 59.0348 74.6356 60.182 75.8598L60.175 75.8637Z" fill="#A09D9F"/>
    <path d="M27.3591 80.9894C30.0011 80.2612 32.4925 79.0916 35.0837 78.2259C37.2361 77.5084 39.4094 76.8438 41.4911 75.9538C46.5101 73.8068 51.5941 71.9834 57.2008 72.2858C58.2525 72.3434 59.1709 72.6342 60.0224 73.1943C62.1205 74.589 64.0901 76.1772 65.8807 77.9506C69.151 81.1935 72.3936 84.4521 76.0309 87.2917C78.7389 89.4027 81.265 91.7098 83.6734 94.1488C84.0876 94.5696 84.4417 95.1911 85.1987 95.102C85.0151 94.9569 84.8146 94.8306 84.6517 94.6736C82.5883 92.7597 80.693 90.6574 78.4713 88.9169C74.2752 85.6279 70.3005 82.0833 66.588 78.2414C64.6552 76.2345 62.4257 74.5446 60.1646 72.9283C58.8177 71.9659 57.2928 72.2056 55.7641 72.0682C53.1024 71.8271 50.6893 72.5544 48.2256 73.2087C45.4587 73.9432 42.8204 75.0485 40.1752 76.1577C38.0994 77.0258 35.9012 77.6306 33.7807 78.404C31.2253 79.3325 28.7427 80.4693 26.0508 81.0132C26.4907 81.447 26.94 81.1078 27.3521 80.9933L27.3591 80.9894Z" fill="#A09D9F"/>
    <path d="M94.3337 40.7419C90.4624 45.3709 86.5951 50.0068 81.9443 53.8959C79.8752 55.6296 77.9253 57.5082 76.0509 59.4548C74.0143 61.5678 73.8338 63.5392 75.3187 66.0972C75.4023 66.2439 75.4898 66.3975 75.5733 66.5442C74.9017 64.753 75.3787 63.3343 77.0656 61.7998C83.2799 56.1597 88.9093 49.9279 94.2677 43.462C94.8669 42.7414 95.4066 41.9807 95.6873 41.0715C96.1039 39.7242 96.0045 39.6143 94.5767 39.8634C94.8065 40.2506 94.5275 40.502 94.3267 40.7459L94.3337 40.7419Z" fill="#A19DA0"/>
    <path d="M84.3416 51.4124C81.6498 54.0189 78.7266 56.3965 76.0507 59.031C74.3165 60.7404 73.5433 62.6702 74.4699 65.1023C74.7937 65.9446 75.4708 66.5208 75.9074 67.2711C75.782 67.0188 75.6755 66.7835 75.5868 66.5472C75.5032 66.4006 75.4157 66.2469 75.3322 66.1003C73.8473 63.5422 74.0238 61.5639 76.0644 59.4579C77.9388 57.5113 79.8818 55.6367 81.9578 53.8989C86.6086 50.0099 90.4759 45.3739 94.3471 40.745C94.5479 40.5011 94.8269 40.2497 94.5971 39.8626C94.5468 39.9837 94.5114 40.1149 94.4313 40.216C91.316 44.1738 87.9524 47.9215 84.3485 51.4084L84.3416 51.4124Z" fill="#A19DA0"/>
    <path d="M50.4216 53.2636C48.6028 49.2493 47.412 45.016 46.0142 40.8544C44.8227 37.2966 43.235 33.8814 41.8405 30.4024C41.2558 28.941 40.5344 27.5297 40.1775 25.9848C40.0836 25.5943 39.9292 25.2105 40.1425 24.8115C39.8002 24.6457 39.5225 24.5449 39.5276 25.134C39.543 25.9022 39.5723 26.6626 39.7413 27.4265C41.3124 34.4865 44.1622 41.1324 46.4078 47.9746C47.5656 51.5052 49.0363 54.9409 49.9623 58.5481C50.0527 58.1913 50.165 57.8406 50.3507 57.522C51.1687 56.1218 51.0498 54.6725 50.4187 53.2746L50.4216 53.2636Z" fill="#A09DA0"/>
    <path d="M50.6035 52.9737C49.8303 51.4069 49.2353 49.7664 48.7008 48.1192C47.0535 43.1007 45.3755 38.1089 43.3528 33.221C42.2064 30.4515 40.7511 27.7842 40.1366 24.8042C39.9233 25.2032 40.0777 25.587 40.1717 25.9775C40.5286 27.5224 41.2499 28.9337 41.8346 30.3951C43.2331 33.8811 44.8168 37.2894 46.0083 40.8471C47.4061 45.0087 48.597 49.2421 50.4158 53.2564C51.0469 54.6543 51.1767 56.1067 50.3478 57.5038C50.1621 57.8224 50.0498 58.1731 49.9594 58.5299C51.4725 56.8354 51.5708 54.9294 50.5995 52.9667L50.6035 52.9737Z" fill="#A09DA0"/>
    <path d="M59.5623 58.1574C57.2967 59.7719 56.5523 63.267 57.8771 66.092C58.1503 66.4266 58.4137 66.776 58.7008 67.1027C61.1633 69.8623 66.0846 69.4451 67.5174 66.2239C68.6148 63.7672 68.2222 61.2251 67.0746 58.8079C64.8383 56.6872 61.9684 56.4352 59.5623 58.1574ZM64.3925 66.3299C62.4985 67.3719 60.3416 66.8247 59.3489 65.05C58.3841 63.3242 59.0322 60.7719 60.6717 59.8471C62.6024 58.7565 64.6957 59.2567 65.6785 61.0463C66.8056 63.1052 66.2727 65.2957 64.3856 66.3338L64.3925 66.3299Z" fill="#010101"/>
    <path d="M56.9417 64.1631C56.4494 59.8186 59.9476 55.4854 65.2606 57.1576C66.1462 57.4393 66.5531 58.1695 67.0658 58.8117C65.9503 56.0802 63.2851 55.0918 60.7808 55.2883C60.2179 55.3314 59.6781 55.528 59.196 55.8581C56.5869 57.659 55.8189 60.2425 56.2371 63.2325C56.3889 64.3208 56.7064 65.4904 57.8643 66.0887C57.2696 65.5766 57.0165 64.9067 56.9308 64.1601L56.9417 64.1631Z" fill="#A19DA0"/>
    <path d="M56.9434 64.163C57.0262 64.9206 57.2793 65.5904 57.877 66.0916C56.5521 63.2667 57.2965 59.7716 59.5621 58.1571C61.9683 56.4349 64.8382 56.6869 67.0745 58.8076C66.5548 58.1694 66.151 57.4282 65.2693 57.1535C59.9563 55.4813 56.4581 59.8145 56.9504 64.159L56.9434 64.163Z" fill="#A19DA0"/>
  </g>
</svg>