<svg width="54" height="47" viewBox="0 0 54 47" fill="none" xmlns="http://www.w3.org/2000/svg">
<g clip-path="url(#clip0_1081_1151)">
<path d="M41.2725 1.69777C41.252 1.77563 41.2233 1.85126 41.1961 1.92949C40.7623 3.23633 40.2347 4.50003 39.5973 5.72283C38.4204 7.97991 37.2756 10.2567 35.975 12.4427C34.4842 14.9436 32.9446 17.4136 31.4314 19.8996C30.0738 22.1359 28.8347 24.4463 27.4353 26.6581C27.0557 27.2595 26.7211 27.8731 26.6793 28.6061C26.6761 28.6601 26.6573 28.7231 26.6254 28.7693C26.3577 29.1706 26.4398 29.5575 26.6759 29.9425C26.8522 30.2299 27.031 30.5158 27.2445 30.7783C27.6064 31.2261 28.0541 31.3811 28.6021 31.2385C29.1449 31.0988 29.6418 30.8676 30.0918 30.5313C31.0072 29.8499 31.9358 29.1852 32.8528 28.5064C33.0754 28.3431 33.1974 28.3873 33.3261 28.6223C33.5727 29.0672 33.5517 29.4963 33.3556 29.95C32.9407 30.9019 32.289 31.6882 31.6728 32.5062C30.7701 33.7049 29.9701 34.98 28.6884 35.8624C27.6018 36.6114 26.6234 36.5334 25.8362 35.4624C25.2149 34.6188 24.5872 33.7823 23.9648 32.9429C23.8947 32.8513 23.8399 32.7266 23.6927 32.8116C23.455 32.9488 23.2126 33.054 23.0422 33.3018C21.8661 35.0233 20.7459 36.782 19.5195 38.47C18.7473 39.5308 17.9949 40.6081 17.2411 41.6827C16.8079 42.3046 16.6592 42.9778 16.9419 43.718C17.0203 43.9195 16.9987 44.1266 16.9299 44.3296C16.6843 45.0378 15.8132 45.3009 15.1524 44.8485C14.79 44.6025 14.4443 44.326 14.0903 44.0648C12.5182 42.9049 11.0206 41.6533 9.53396 40.3849C9.01455 39.9447 8.95943 39.3302 9.33705 38.7612C9.68536 38.2369 10.1595 37.8589 10.781 37.7781C11.513 37.6856 12.0194 37.3098 12.3927 36.7155C14.0822 34.0339 15.8597 31.4092 17.4613 28.6706C17.582 28.462 17.7108 28.2556 17.78 28.0175C17.8626 27.737 17.7581 27.568 17.4873 27.4985C17.3539 27.4643 17.2161 27.4465 17.0789 27.4355C16.3289 27.3715 15.5801 27.3452 14.8356 27.219C13.9084 27.0628 12.9922 26.8482 12.1619 26.3824C10.8625 25.6592 10.4941 24.6453 11.0436 23.2821C11.9045 21.1519 13.4803 19.6513 15.3273 18.3938C15.8028 18.1436 16.2777 17.9042 16.7768 17.7307C17.1163 17.6146 17.4653 17.6703 17.7096 17.9323C17.9554 18.197 17.7645 18.4809 17.6279 18.7335C17.289 19.3635 16.9318 19.9798 16.5929 20.6099C16.3124 21.1263 16.0318 21.6427 15.7844 22.1747C15.5608 22.6583 15.6931 22.9293 16.188 23.1301C16.416 23.2209 16.6497 23.2736 16.8935 23.2961C17.5722 23.356 18.2582 23.3213 18.933 23.446C19.704 23.5882 20.3364 23.3412 20.8939 22.8213C21.66 22.1079 22.1936 21.2125 22.8202 20.3886C25.9445 16.2844 29.1876 12.2784 32.5515 8.36253C34.6289 5.94694 36.814 3.64637 39.1471 1.48277C39.5997 1.0616 40.1443 0.865336 40.7645 0.931227C41.212 0.978609 41.3823 1.2556 41.2628 1.69294L41.2725 1.69777ZM16.2927 23.9141C15.1761 23.8116 14.7791 23.0227 15.255 21.9974C15.6495 21.1475 16.1551 20.3587 16.5787 19.5234C16.7003 19.2865 16.8136 19.0473 16.9173 18.8033C16.9569 18.7109 17.0224 18.6035 16.9375 18.5101C16.8612 18.4256 16.7623 18.4931 16.675 18.5088C16.1851 18.597 15.7735 18.8625 15.3786 19.1391C14.0539 20.0603 12.9341 21.1933 12.0144 22.5235C11.5179 23.2445 11.2333 23.9926 11.6487 24.8613C11.8295 25.2399 12.1187 25.5142 12.4448 25.7569C12.9817 26.1558 13.5983 26.3349 14.2516 26.4164C15.2924 26.5487 16.3397 26.6564 17.3676 26.8796C17.5808 26.9267 17.7858 27.0134 17.9937 27.081C18.6294 27.2873 18.8157 27.7114 18.4719 28.2852C17.9032 29.2391 17.309 30.1728 16.7179 31.1118C16.0693 32.1361 15.4151 33.1567 14.7594 34.1746C14.0084 35.3379 13.2534 36.5001 12.4928 37.6585C12.2254 38.0665 11.8388 38.2619 11.3454 38.2306C10.7069 38.1927 10.2838 38.5933 9.91834 39.0163C9.7314 39.2354 9.80307 39.5624 10.025 39.8096C10.6028 40.4524 11.3113 40.9398 11.9678 41.4921C12.8195 42.2097 13.7009 42.8892 14.5662 43.5885C14.8753 43.8374 15.2268 44.0167 15.5736 44.2057C15.79 44.324 15.9942 44.3138 16.1865 44.1576C16.3736 44.0044 16.2855 43.8399 16.2268 43.6548C15.9985 42.9491 16.0646 42.282 16.4997 41.6694C17.4711 40.3094 18.434 38.9403 19.411 37.584C20.5039 36.0704 21.6121 34.5653 22.4172 32.8634C22.626 32.4197 22.9558 32.132 23.4814 32.0996C23.7082 32.0868 23.9293 32.0043 24.1383 31.901C24.728 32.7733 25.3498 33.6236 25.997 34.4522C26.1398 34.6339 26.2711 34.8256 26.4062 35.0117C27.0288 35.8754 27.6071 35.7257 28.4252 35.1978C29.7914 34.3186 30.6036 32.9393 31.5455 31.6831C31.9625 31.1227 32.435 30.5928 32.7021 29.9278C32.7228 29.8741 32.7501 29.8201 32.7601 29.7657C32.7847 29.6472 32.8848 29.5164 32.7601 29.4078C32.6196 29.2838 32.5005 29.4117 32.3854 29.4747C32.0491 29.6619 31.7279 29.8751 31.4445 30.136C31.3998 30.148 31.3664 30.1916 31.3356 30.2337C30.8303 30.6053 30.3194 30.9733 29.8171 31.3502C29.5819 31.5276 29.309 31.6157 29.0316 31.6959C28.6898 31.796 28.3396 31.8696 27.9959 31.9603C27.6928 32.038 27.4351 31.9435 27.2489 31.7105C26.7801 31.1194 26.36 30.4932 25.9669 29.848C25.7349 29.4641 25.7817 29.0619 25.9364 28.6737C26.3956 27.5121 26.2493 26.4116 25.6453 25.3356C24.9717 24.133 23.9699 23.436 22.6016 23.2913C22.0664 23.2354 21.5565 23.3665 21.115 23.6457C20.5705 23.9913 19.997 24.0897 19.3652 24.0514C18.3394 23.9868 17.3079 24.002 16.2856 23.9077L16.2927 23.9141ZM38.4684 3.00393C35.7084 5.50786 33.2974 8.34193 30.9062 11.1924C28.0406 14.6052 25.216 18.0533 22.6508 21.7061C22.5182 21.8939 22.3631 22.0668 22.2925 22.4099C22.6331 22.4808 22.9821 22.5365 23.3204 22.6331C23.7199 22.7464 24.1065 22.9089 24.4588 23.1433C24.86 23.4086 25.0785 23.3694 25.3581 22.9647C26.2057 21.7422 27.0604 20.5259 27.8871 19.2911C30.6665 15.1323 33.5638 11.0584 36.6028 7.08684C36.6857 6.9799 36.7641 6.86513 36.8441 6.75297C37.0549 6.50962 37.2672 6.26888 37.471 6.0192C37.6179 5.84406 37.6811 5.95352 37.7193 6.0913C37.7835 6.3218 37.651 6.4921 37.5222 6.65681C36.4998 7.9942 35.4815 9.33272 34.455 10.669C32.873 12.7256 31.3887 14.8439 30.0216 17.0579C28.8279 18.9877 27.4979 20.8363 26.2751 22.7515C25.4471 24.0496 25.5467 23.6793 26.1652 24.9833C26.3365 25.3396 26.5403 25.6806 26.7064 26.0399C26.8072 26.2563 26.8905 26.2394 27.0156 26.0803C27.11 25.9633 27.2226 25.8601 27.3001 25.7319C29.5945 21.8427 32.1722 18.134 34.4569 14.2401C36.1035 11.4303 37.686 8.58116 39.191 5.6933C39.7364 4.64524 40.1288 3.52912 40.5885 2.44014C40.6012 2.40848 40.6124 2.3742 40.6196 2.33881C40.6492 2.15145 40.7914 1.90256 40.6488 1.78682C40.4752 1.64727 40.2094 1.69996 39.9969 1.83306C39.4011 2.10757 38.9473 2.57455 38.4725 3.00504L38.4684 3.00393Z" fill="#010101"/>
<path d="M31.4498 30.1439C31.413 30.1755 31.3762 30.2072 31.3408 30.2415C31.3716 30.1994 31.405 30.1558 31.4498 30.1439Z" fill="#3F4042"/>
<path d="M21.1202 23.6521C21.5618 23.3728 22.0717 23.2418 22.6068 23.2976C23.9752 23.4424 24.9743 24.1408 25.6506 25.3419C26.2546 26.4179 26.4023 27.521 25.9417 28.68C25.7895 29.0667 25.7402 29.4705 25.9721 29.8543C26.3627 30.501 26.7828 31.1272 27.2541 31.7169C27.4403 31.9499 27.6981 32.0443 28.0011 31.9667C28.3464 31.8785 28.6965 31.8049 29.0368 31.7023C29.3102 31.6209 29.5831 31.5328 29.8223 31.3565C30.3246 30.9796 30.8355 30.6117 31.3408 30.24C31.3949 30.2262 31.4846 30.1848 31.4962 30.199C31.5495 30.2794 31.4978 30.3509 31.4483 30.4143C31.1031 30.8603 30.741 31.2952 30.4181 31.7561C30.1209 32.1779 29.9336 32.6649 29.5346 33.0238C29.0292 33.4789 28.5073 33.9053 27.9415 34.2737C27.7615 34.3915 27.5696 34.3633 27.4008 34.214C26.9338 33.7991 26.521 33.3286 26.135 32.839C25.7506 32.3521 25.2948 31.9863 24.693 31.809C24.4815 31.747 24.31 31.7661 24.1431 31.9006C23.9341 32.0039 23.713 32.0864 23.4862 32.0992C22.9632 32.1301 22.6349 32.4205 22.422 32.8631C21.6169 34.565 20.5072 36.0674 19.4158 37.5836C18.4388 38.94 17.4745 40.3064 16.5045 41.6691C16.0694 42.2817 16.0034 42.9488 16.2317 43.6544C16.2888 43.8369 16.381 44.0026 16.1913 44.1573C15.999 44.3134 15.7948 44.3236 15.5784 44.2053C15.2316 44.0164 14.8816 43.8397 14.571 43.5881C13.7057 42.8888 12.8243 42.2093 11.9726 41.4918C11.3177 40.9421 10.6076 40.452 10.0298 39.8092C9.80639 39.5594 9.73215 39.2339 9.92317 39.0159C10.2886 38.593 10.7118 38.1923 11.3502 38.2302C11.8436 38.2616 12.2303 38.0662 12.4976 37.6582C13.2582 36.4997 14.0132 35.3375 14.7642 34.1743C15.4199 33.1563 16.0741 32.1357 16.7228 31.1114C17.3154 30.1751 17.908 29.2387 18.4767 28.2849C18.818 27.7126 18.6317 27.2885 17.9985 27.0807C17.7907 27.013 17.5856 26.9264 17.3724 26.8792C16.3431 26.6534 15.2998 26.5468 14.2564 26.4161C13.6032 26.3345 12.9865 26.1554 12.4496 25.7565C12.1236 25.5139 11.8343 25.2396 11.6536 24.8609C11.2367 23.9896 11.5212 23.2416 12.0192 22.5232C12.939 21.1929 14.0587 20.0599 15.3835 19.1387C15.7798 18.8647 16.1899 18.5967 16.6798 18.5084C16.7672 18.4927 16.8675 18.4279 16.9423 18.5098C17.0288 18.6058 16.9633 18.7131 16.9221 18.8029C16.8144 19.0458 16.7025 19.2876 16.5836 19.5231C16.1584 20.3558 15.6544 21.1472 15.2598 21.997C14.7814 23.0238 15.1809 23.8113 16.2975 23.9137C17.3198 24.008 18.3513 23.9928 19.3771 24.0573C20.0089 24.0956 20.5825 23.9973 21.1269 23.6517L21.1202 23.6521ZM22.1837 24.7304C21.89 24.9555 21.6181 25.2064 21.4055 25.5063C21.0356 26.0291 20.7514 26.5928 20.6983 27.2525C20.6668 27.6216 20.7172 27.9713 20.9171 28.252C21.2184 28.8634 21.7794 28.9878 22.3281 29.0671C24.2649 29.3493 25.2658 27.569 24.8 26.1596C24.571 25.4648 23.9849 25.1117 23.4542 24.7057C23.1206 24.45 22.5194 24.4706 22.1822 24.7278L22.1837 24.7304Z" fill="#3F4042"/>
<path d="M39.4671 2.68145C38.595 3.98076 37.7873 5.32621 36.8566 6.5898C36.8221 6.6375 36.8111 6.69598 36.8416 6.75481C36.7617 6.86697 36.6833 6.98173 36.6004 7.08868C33.5614 11.0603 30.6641 15.1342 27.8847 19.2929C27.058 20.5278 26.2048 21.7466 25.3557 22.9666C25.0761 23.3712 24.8576 23.4105 24.4564 23.1452C24.1015 22.9123 23.7175 22.7483 23.3179 22.6349C22.9797 22.5383 22.6307 22.4827 22.2901 22.4117C22.3607 22.0687 22.5157 21.8958 22.6484 21.708C25.2136 18.0551 28.0356 14.6085 30.9038 11.1942C33.2991 8.34488 35.706 5.5097 38.466 3.00577C38.9408 2.57527 39.3961 2.1109 39.9904 1.83378C39.877 2.1564 39.6492 2.40609 39.4646 2.68294L39.4671 2.68145Z" fill="#E2DDE1"/>
<path d="M39.1763 3.25631C39.3995 2.89116 39.6872 2.57216 39.9007 2.20217C39.9647 2.09226 40.0963 1.99198 39.9978 1.83338C40.2077 1.70177 40.4735 1.64908 40.6497 1.78714C40.7908 1.90028 40.646 2.15066 40.6205 2.33914C40.6159 2.37303 40.6047 2.4073 40.5894 2.44046C40.1323 3.52795 39.7373 4.64556 39.192 5.69362C37.6884 8.58409 36.1059 11.4333 34.4578 14.2404C32.1731 18.1344 29.5954 21.8431 27.301 25.7322C27.2261 25.8589 27.1094 25.961 27.0165 26.0806C26.8914 26.2398 26.8096 26.2592 26.7073 26.0402C26.5412 25.6809 26.3348 25.3414 26.1662 24.9836C25.5477 23.6797 25.448 24.0499 26.2761 22.7518C27.4988 20.8366 28.8288 18.988 30.0225 17.0583C31.3911 14.8469 32.8739 12.7259 34.4559 10.6693C35.4839 9.33564 36.5007 7.99452 37.5231 6.65713C37.6504 6.48981 37.7829 6.31952 37.7202 6.09162C37.682 5.95384 37.6173 5.84177 37.4719 6.01953C37.2666 6.26659 37.0517 6.50883 36.845 6.75329C37.0512 6.35277 37.3473 6.01849 37.6083 5.65928C38.1682 4.88086 38.675 4.07044 39.1763 3.25631Z" fill="#A09DA0"/>
<path d="M36.8572 6.58815C37.7854 5.32605 38.593 3.9806 39.4678 2.6798C39.6524 2.40295 39.8802 2.15326 39.9936 1.83064C40.0921 1.98924 39.959 2.08691 39.8965 2.19943C39.6846 2.57202 39.3968 2.89103 39.1722 3.25357C38.6709 4.06771 38.1655 4.88073 37.6042 5.65654C37.3431 6.01575 37.047 6.35003 36.8408 6.75055C36.8077 6.69322 36.8187 6.63474 36.8557 6.58555L36.8572 6.58815Z" fill="#A09DA0"/>
<path d="M26.0066 32.8453C26.3523 33.2711 26.7246 33.6713 27.0953 34.0688C27.4043 34.4012 27.6868 34.5683 28.214 34.2048C28.7206 33.8532 29.176 33.4548 29.6351 33.0507C29.757 32.9456 29.8769 32.8312 29.9577 32.6907C30.3994 31.9284 30.8903 31.2037 31.461 30.5336C31.5058 30.48 31.5394 30.4189 31.5592 30.3518C31.575 30.2836 31.5991 30.2002 31.5335 30.1582C31.5015 30.1384 31.4718 30.1347 31.4481 30.1414C31.7341 29.8791 32.0527 29.6673 32.389 29.4801C32.5026 29.4145 32.6232 29.2893 32.7637 29.4132C32.8858 29.5234 32.7842 29.6515 32.7636 29.7711C32.7511 29.827 32.7263 29.8795 32.7056 29.9332C32.4386 30.5982 31.9676 31.1307 31.5491 31.6885C30.6087 32.9473 29.7976 34.3225 28.4288 35.2032C27.6092 35.7285 27.0309 35.8782 26.4097 35.0171C26.2747 34.831 26.1433 34.6393 26.0006 34.4576C25.3519 33.6264 24.729 32.7802 24.1419 31.9064C24.9661 31.8128 25.5316 32.2612 26.0081 32.8479L26.0066 32.8453Z" fill="#2D2D2F"/>
<path d="M24.6918 31.8149C25.2962 31.9907 25.7504 32.3539 26.1338 32.8449C26.5198 33.3344 26.9311 33.8023 27.3996 34.2199C27.5684 34.3692 27.7577 34.3988 27.9403 34.2795C28.5087 33.9097 29.0306 33.4833 29.5334 33.0297C29.9324 32.6707 30.1208 32.1797 30.4169 31.762C30.7424 31.2996 31.1034 30.8688 31.4471 30.4201C31.4966 30.3568 31.5468 30.2826 31.495 30.2048C31.486 30.1892 31.3936 30.2321 31.3396 30.2459C31.3749 30.2116 31.4118 30.1799 31.4486 30.1482C31.4723 30.1415 31.5019 30.1452 31.534 30.165C31.5996 30.207 31.578 30.2889 31.5597 30.3586C31.5439 30.4268 31.5077 30.4894 31.4614 30.5404C30.8907 31.2105 30.3998 31.9352 29.9582 32.6975C29.8774 32.838 29.7574 32.9524 29.6356 33.0575C29.175 33.459 28.7211 33.86 28.2145 34.2116C27.6873 34.5751 27.4048 34.408 27.0958 34.0756C26.7235 33.6755 26.3528 33.2779 26.007 32.8521C25.5306 32.2654 24.9651 31.817 24.1408 31.9106C24.3077 31.7761 24.4807 31.7596 24.6907 31.819L24.6918 31.8149Z" fill="#2D2D2F"/>
<path d="M23.4568 24.7082C23.9874 25.1142 24.5736 25.4673 24.8025 26.1621C25.2658 27.5731 24.2674 29.3518 22.3306 29.0696C21.7819 28.9903 21.2236 28.8644 20.9197 28.2545C20.7182 27.9712 20.6694 27.6241 20.7008 27.255C20.7514 26.5968 21.0382 26.0316 21.408 25.5088C21.6206 25.2089 21.8952 24.9566 22.1862 24.7329C22.5219 24.4731 23.1247 24.4552 23.4583 24.7108L23.4568 24.7082ZM22.3138 25.455C21.8001 25.8836 21.472 26.431 21.3644 27.0978C21.2846 27.592 21.5523 27.99 22.1243 28.247C22.6688 28.4921 23.2064 28.5223 23.687 28.1197C24.1012 27.7694 24.3647 27.3427 24.2861 26.7591C24.2596 26.5521 24.1503 26.3927 24.1089 26.309C23.8752 25.8566 23.575 25.5991 23.2638 25.3583C22.9779 25.1376 22.6575 25.1732 22.3153 25.4576L22.3138 25.455Z" fill="#010101"/>
</g>
<defs>
<clipPath id="clip0_1081_1151">
<rect width="26.3108" height="47.1402" fill="white" transform="matrix(-0.5 -0.866025 -0.866025 0.5 53.9805 23.2441)"/>
</clipPath>
</defs>
</svg>
