<svg width="39" height="39" viewBox="0 0 39 39" fill="none" xmlns="http://www.w3.org/2000/svg">
<path d="M5.84922 3.8999C4.81487 3.8999 3.82289 4.31079 3.0915 5.04219C2.36011 5.77358 1.94922 6.76556 1.94922 7.7999V31.1999C1.94922 32.2342 2.36011 33.2262 3.0915 33.9576C3.82289 34.689 4.81487 35.0999 5.84922 35.0999H33.1492C34.1836 35.0999 35.1755 34.689 35.9069 33.9576C36.6383 33.2262 37.0492 32.2342 37.0492 31.1999V7.7999C37.0492 6.76556 36.6383 5.77358 35.9069 5.04219C35.1755 4.31079 34.1836 3.8999 33.1492 3.8999H5.84922ZM5.84922 33.1499C5.33205 33.1499 4.83606 32.9445 4.47036 32.5788C4.10466 32.2131 3.89922 31.7171 3.89922 31.1999V7.7999C3.89922 7.28273 4.10466 6.78674 4.47036 6.42104C4.83606 6.05535 5.33205 5.8499 5.84922 5.8499H33.1492C33.6664 5.8499 34.1624 6.05535 34.5281 6.42104C34.8938 6.78674 35.0992 7.28273 35.0992 7.7999V31.1999C35.0992 31.7171 34.8938 32.2131 34.5281 32.5788C34.1624 32.9445 33.6664 33.1499 33.1492 33.1499H5.84922Z" fill="#3F4042"/>
<path d="M33.1516 7.7998H5.85156V27.2998H33.1516V7.7998ZM9.75156 23.3998L14.6266 17.5498L18.5266 21.4498L23.4016 15.5998L29.2516 23.3998H9.75156ZM7.80156 29.2498H31.2016V31.1998H7.80156V29.2498Z" fill="#D0D2D3"/>
</svg>
