<svg width="51" height="44" viewBox="0 0 51 44" fill="none" xmlns="http://www.w3.org/2000/svg">
<g clip-path="url(#clip0_1019_2887)">
<path d="M38.5091 42.2586C38.4893 42.187 38.462 42.1173 38.4361 42.0453C38.0215 40.8423 37.5202 39.6781 36.9174 38.5503C35.8044 36.4687 34.721 34.3693 33.4939 32.3517C32.0873 30.0435 30.6357 27.7632 29.2086 25.4685C27.928 23.4042 26.7568 21.2731 25.4378 19.231C25.08 18.6758 24.7638 18.1097 24.7183 17.4368C24.7147 17.3872 24.6967 17.3293 24.6667 17.2866C24.4145 16.9159 24.4872 16.5617 24.7028 16.2107C24.8637 15.9486 25.0271 15.6879 25.2228 15.4491C25.5546 15.0415 25.9687 14.9034 26.4786 15.0393C26.9836 15.1724 27.4469 15.3892 27.8676 15.7018C28.7235 16.3354 29.5914 16.9538 30.4486 17.585C30.6567 17.7368 30.7695 17.6974 30.8869 17.483C31.1116 17.0771 31.0882 16.6832 30.902 16.2651C30.5083 15.3879 29.8962 14.6605 29.3168 13.9045C28.468 12.7963 27.7138 11.6191 26.5162 10.7978C25.5009 10.1006 24.5935 10.1631 23.8728 11.1386C23.3039 11.9068 22.7291 12.6685 22.1591 13.433C22.0949 13.5164 22.0452 13.6303 21.9077 13.5509C21.6859 13.4229 21.46 13.3241 21.2996 13.0952C20.1922 11.505 19.1365 9.88113 17.9827 8.32116C17.2563 7.34074 16.5482 6.34548 15.8386 5.35259C15.4309 4.77803 15.2867 4.15909 15.5423 3.48253C15.6132 3.29843 15.5912 3.10822 15.5255 2.92131C15.2911 2.26931 14.4802 2.01988 13.8711 2.42894C13.537 2.65127 13.2188 2.90178 12.8926 3.1382C11.4442 4.18794 10.0658 5.32248 8.69772 6.4725C8.21971 6.87166 8.1742 7.43496 8.52988 7.96045C8.85797 8.44465 9.30145 8.79579 9.87904 8.87568C10.5592 8.96725 11.0326 9.31665 11.3846 9.86534C12.9772 12.3412 14.651 14.7656 16.1626 17.2929C16.2765 17.4855 16.3979 17.676 16.4644 17.8951C16.5436 18.1532 16.4482 18.3073 16.1974 18.3686C16.0739 18.3987 15.9463 18.4137 15.819 18.4226C15.1236 18.4744 14.4288 18.4917 13.739 18.6006C12.8799 18.7354 12.0316 18.9239 11.2652 19.3436C10.066 19.9952 9.73342 20.9221 10.2559 22.1778C11.0744 24.1402 12.5507 25.5313 14.2764 26.702C14.72 26.936 15.1629 27.16 15.6278 27.3238C15.9439 27.4334 16.2673 27.3855 16.4916 27.1474C16.7173 26.9068 16.5376 26.6445 16.4085 26.4115C16.0881 25.8304 15.751 25.2617 15.4306 24.6805C15.1655 24.2042 14.9004 23.7278 14.666 23.2374C14.4539 22.7917 14.5743 22.5442 15.0317 22.3645C15.2425 22.2834 15.4589 22.2371 15.6849 22.2187C16.3143 22.1699 16.9513 22.2081 17.5764 22.0999C18.2906 21.9766 18.8798 22.209 19.402 22.6911C20.1196 23.3526 20.6231 24.179 21.2121 24.9407C24.1495 28.7349 27.1961 32.4401 30.3541 36.0637C32.3043 38.2991 34.3534 40.4299 36.5385 42.4363C36.9625 42.8269 37.4697 43.012 38.0446 42.9572C38.4596 42.9179 38.615 42.6653 38.5001 42.263L38.5091 42.2586ZM15.1217 21.6462C14.0863 21.7299 13.7252 22.4502 14.1762 23.3952C14.5502 24.1785 15.0267 24.9069 15.4275 25.6772C15.5425 25.8957 15.6499 26.1162 15.7483 26.341C15.786 26.4261 15.8477 26.5252 15.7698 26.6101C15.6997 26.687 15.6073 26.6241 15.5261 26.6089C15.0707 26.5235 14.6862 26.2762 14.3172 26.0188C13.0793 25.1614 12.0297 24.1116 11.1638 22.8827C10.6964 22.2166 10.4255 21.5277 10.803 20.7345C10.9673 20.3888 11.2332 20.1398 11.5336 19.9202C12.0282 19.5591 12.5988 19.4004 13.2044 19.3316C14.1692 19.2198 15.1402 19.1306 16.092 18.9353C16.2895 18.894 16.479 18.8164 16.6712 18.7562C17.2594 18.5728 17.4284 18.1854 17.104 17.6558C16.5674 16.7754 16.0075 15.9133 15.4502 15.0464C14.8388 14.1007 14.2223 13.1583 13.6044 12.2183C12.8968 11.1441 12.1854 10.0709 11.4688 9.0011C11.2169 8.62431 10.855 8.44384 10.3987 8.46568C9.80647 8.49463 9.4101 8.12314 9.06703 7.73172C8.89153 7.52896 8.95503 7.22964 9.15872 7.00491C9.68908 6.42042 10.3422 5.97971 10.9463 5.47903C11.7302 4.82853 12.542 4.21318 13.3386 3.57957C13.6232 3.35398 13.9478 3.19272 14.2679 3.02252C14.4676 2.91597 14.6573 2.92719 14.8372 3.07226C15.0122 3.21453 14.9319 3.36471 14.8792 3.53397C14.6738 4.17928 14.7413 4.79194 15.1507 5.35798C16.0648 6.61475 16.9709 7.87963 17.8902 9.13304C18.9184 10.5318 19.9607 11.9228 20.7235 13.4916C20.9214 13.9007 21.2302 14.1677 21.7182 14.2022C21.9288 14.2161 22.1347 14.2938 22.3297 14.3905C22.869 13.5956 23.4382 12.8212 24.0313 12.0669C24.1621 11.9015 24.2823 11.7268 24.4059 11.5573C24.9758 10.7706 25.5139 10.9133 26.278 11.4051C27.5541 12.2243 28.3205 13.4973 29.2062 14.6584C29.5984 15.1764 30.0417 15.667 30.2957 16.2795C30.3154 16.3289 30.3413 16.3788 30.351 16.4288C30.3749 16.5377 30.4691 16.6586 30.3543 16.7571C30.2251 16.8696 30.1134 16.7512 30.006 16.6923C29.6922 16.5175 29.3921 16.3189 29.1267 16.0769C29.085 16.0655 29.0537 16.0252 29.0247 15.9863C28.5523 15.6407 28.0748 15.2984 27.6051 14.948C27.3853 14.783 27.1312 14.6997 26.8729 14.6235C26.5548 14.5286 26.2291 14.4579 25.9093 14.3715C25.6273 14.2974 25.389 14.3817 25.2183 14.5938C24.7887 15.1319 24.4046 15.7025 24.0456 16.2909C23.8339 16.6409 23.881 17.0104 24.0282 17.368C24.4649 18.438 24.3393 19.4463 23.7886 20.4279C23.1745 21.5251 22.2512 22.1553 20.9826 22.2755C20.4864 22.3219 20.012 22.197 19.5996 21.9367C19.0912 21.6146 18.5579 21.5191 17.9719 21.5485C17.0205 21.5982 16.0631 21.5748 15.1151 21.652L15.1217 21.6462ZM35.8947 41.0345C33.3102 38.7118 31.0465 36.0895 28.8011 33.4523C26.1102 30.2948 23.4571 27.1053 21.0429 23.7304C20.918 23.5568 20.7725 23.3968 20.7038 23.0814C21.0193 23.0194 21.3427 22.9716 21.6557 22.886C22.0255 22.7857 22.3828 22.6402 22.7076 22.4284C23.0775 22.1886 23.2806 22.2267 23.5438 22.6005C24.3417 23.73 25.1461 24.8537 25.9247 25.9942C28.5424 29.8353 31.2688 33.5996 34.1257 37.2714C34.2037 37.3703 34.2775 37.4763 34.3527 37.5799C34.5506 37.8051 34.7499 38.0279 34.9413 38.2589C35.0792 38.4209 35.1368 38.3211 35.171 38.195C35.2285 37.9841 35.104 37.8267 34.983 37.6744C34.0218 36.4379 33.0644 35.2005 32.0994 33.9651C30.6124 32.0637 29.2153 30.1065 27.9262 28.0627C26.8007 26.2812 25.5493 24.573 24.3969 22.8046C23.6165 21.6059 23.7124 21.9466 24.2744 20.756C24.4301 20.4306 24.6161 20.1196 24.7669 19.7915C24.8585 19.5939 24.936 19.6101 25.0536 19.7572C25.1422 19.8655 25.2476 19.9612 25.3208 20.0795C27.4859 23.6688 29.9123 27.0951 32.0685 30.6887C33.6224 33.2817 35.1173 35.9103 36.5406 38.5737C37.0564 39.5403 37.4308 40.5679 37.8675 41.5712C37.8796 41.6004 37.8903 41.6319 37.8972 41.6645C37.9264 41.8366 38.0607 42.0663 37.9294 42.1712C37.7696 42.2976 37.5224 42.2468 37.324 42.1228C36.7685 41.8654 36.3431 41.4328 35.8985 41.0335L35.8947 41.0345Z" fill="#010101"/>
<path d="M29.1308 16.0702C29.0963 16.0408 29.0619 16.0113 29.0288 15.9796C29.0578 16.0185 29.0891 16.0588 29.1308 16.0702Z" fill="#3F4042"/>
<path d="M19.6062 21.9314C20.0185 22.1917 20.4929 22.3166 20.9891 22.2703C22.2577 22.15 23.1786 21.5184 23.7951 20.4227C24.3458 19.441 24.4728 18.4303 24.0347 17.3627C23.8899 17.0065 23.8404 16.6356 24.0521 16.2856C24.4087 15.6958 24.7928 15.1252 25.2248 14.5885C25.3955 14.3764 25.6338 14.2922 25.9158 14.3662C26.237 14.4502 26.5627 14.521 26.8795 14.6183C27.1339 14.6954 27.388 14.7788 27.6116 14.9427C28.0813 15.2931 28.5588 15.6354 29.0312 15.981C29.0815 15.9942 29.1651 16.033 29.1758 16.0201C29.2245 15.9468 29.1759 15.8807 29.1293 15.8222C28.8048 15.4097 28.4648 15.0074 28.1609 14.5816C27.8812 14.1918 27.7029 13.7434 27.3293 13.4104C26.8561 12.9882 26.3678 12.5922 25.8393 12.249C25.6712 12.1393 25.4933 12.1634 25.338 12.2988C24.9084 12.6752 24.5296 13.1031 24.1759 13.5487C23.8236 13.9919 23.4039 14.3233 22.847 14.4804C22.6513 14.5354 22.492 14.5163 22.3359 14.3913C22.1409 14.2946 21.935 14.2169 21.7244 14.2031C21.2387 14.17 20.9313 13.9006 20.7297 13.4925C19.9668 11.9237 18.9232 10.535 17.8963 9.13391C16.9771 7.8805 16.0696 6.618 15.1569 5.35885C14.7475 4.79281 14.68 4.18016 14.8854 3.53484C14.9367 3.36796 15.0208 3.2168 14.8433 3.07313C14.6635 2.92807 14.4738 2.91684 14.2741 3.02339C13.954 3.19359 13.6307 3.35248 13.3448 3.58044C12.5482 4.21406 11.7364 4.8294 10.9525 5.4799C10.3497 5.9782 9.69525 6.42129 9.1649 7.00578C8.95983 7.23289 8.89392 7.53082 9.07321 7.73259C9.41628 8.12402 9.81265 8.4955 10.4048 8.46655C10.8625 8.44233 11.2231 8.62518 11.475 9.00197C12.1915 10.0718 12.9029 11.145 13.6105 12.2192C14.2285 13.1592 14.845 14.1015 15.4564 15.0473C16.015 15.9118 16.5736 16.7763 17.1102 17.6567C17.4322 18.1849 17.2632 18.5723 16.6774 18.7571C16.4852 18.8173 16.2957 18.8949 16.0982 18.9362C15.145 19.1339 14.1777 19.2221 13.2106 19.3325C12.605 19.4013 12.0344 19.56 11.5398 19.921C11.2394 20.1406 10.9734 20.3896 10.8092 20.7354C10.4303 21.5309 10.7012 22.2199 11.17 22.8836C12.0358 24.1125 13.0855 25.1623 14.3234 26.0196C14.6938 26.2747 15.0769 26.5244 15.5323 26.6098C15.6135 26.625 15.7072 26.6855 15.7759 26.611C15.8553 26.5237 15.7935 26.4246 15.7545 26.3419C15.6522 26.118 15.5462 25.8952 15.4337 25.678C15.0315 24.9101 14.5564 24.1794 14.1824 23.3961C13.7289 22.4496 14.0925 21.7308 15.1278 21.6471C16.0758 21.57 17.0332 21.5934 17.9846 21.5436C18.5707 21.5143 19.1039 21.6097 19.6124 21.9318L19.6062 21.9314ZM20.5832 20.9519C20.3086 20.7426 20.0539 20.51 19.8538 20.2328C19.5058 19.7498 19.2368 19.23 19.1814 18.6243C19.1489 18.2853 19.1924 17.965 19.3754 17.7093C19.6494 17.1511 20.1688 17.0421 20.6774 16.9744C22.4723 16.7333 23.4176 18.3758 22.9982 19.6646C22.7921 20.3 22.2513 20.6186 21.7626 20.9862C21.4553 21.2177 20.8971 21.1934 20.5818 20.9543L20.5832 20.9519Z" fill="#3F4042"/>
<path d="M36.8241 41.3399C36.0028 40.1398 35.2408 38.898 34.3655 37.7301C34.333 37.686 34.3223 37.6323 34.3501 37.5786C34.2749 37.475 34.201 37.3689 34.1231 37.2701C31.2661 33.5983 28.5398 29.834 25.9221 25.9929C25.1435 24.8524 24.3404 23.7263 23.5412 22.5992C23.278 22.2253 23.0749 22.1873 22.705 22.427C22.3777 22.6375 22.0228 22.7844 21.6531 22.8847C21.3401 22.9703 21.0166 23.0181 20.7012 23.0801C20.7699 23.3955 20.9153 23.5555 21.0402 23.7291C23.4545 27.104 26.1052 30.2921 28.7985 33.451C31.0477 36.0872 33.3075 38.7105 35.8921 41.0332C36.3367 41.4325 36.7634 41.8627 37.3176 42.1224C37.2094 41.8254 36.9956 41.5942 36.8217 41.3385L36.8241 41.3399Z" fill="#E2DDE1"/>
<path d="M36.548 40.8101C36.7585 41.1472 37.0284 41.4425 37.23 41.7839C37.2904 41.8853 37.4134 41.9785 37.3234 42.1231C37.5195 42.2458 37.7666 42.2966 37.9289 42.1716C38.0588 42.0691 37.9221 41.838 37.8967 41.6649C37.8922 41.6337 37.8814 41.6022 37.8669 41.5716C37.4327 40.5697 37.0558 39.5406 36.5401 38.5741C35.1181 35.9083 33.6233 33.2797 32.0679 30.6891C29.9117 27.0955 27.4854 23.6692 25.3203 20.0799C25.2495 19.963 25.1403 19.8682 25.053 19.7576C24.9354 19.6105 24.8593 19.5919 24.7664 19.7918C24.6155 20.12 24.4271 20.4296 24.2739 20.7563C23.7118 21.947 23.6159 21.6063 24.3964 22.805C25.5487 24.5733 26.8001 26.2816 27.9257 28.063C29.2162 30.1045 30.6118 32.0641 32.0989 33.9655C33.0652 35.1985 34.0212 36.4383 34.9824 37.6747C35.1021 37.8294 35.2266 37.9869 35.1705 38.1954C35.1363 38.3215 35.0773 38.4237 34.9407 38.2593C34.748 38.0307 34.5463 37.8065 34.3522 37.5803C34.5472 37.9496 34.8251 38.2591 35.0707 38.591C35.5974 39.3104 36.0753 40.0585 36.548 40.8101Z" fill="#A09DA0"/>
<path d="M34.3679 37.7316C35.2409 38.8981 36.0028 40.1399 36.8266 41.3414C37.0005 41.5971 37.2142 41.8283 37.3225 42.1253C37.4124 41.9807 37.288 41.8899 37.229 41.7861C37.0288 41.4423 36.7588 41.147 36.547 40.8123C36.0743 40.0607 35.5978 39.3102 35.0697 38.5932C34.8241 38.2613 34.5462 37.9518 34.3512 37.5825C34.321 37.6348 34.3317 37.6885 34.3666 37.734L34.3679 37.7316Z" fill="#A09DA0"/>
<path d="M24.0537 13.5415C24.3707 13.154 24.7125 12.7903 25.0529 12.4289C25.3366 12.1268 25.5972 11.9761 26.0899 12.3145C26.5633 12.6417 26.9896 13.0114 27.4194 13.3863C27.5334 13.4839 27.6458 13.59 27.7221 13.7196C28.139 14.4231 28.6012 15.0925 29.1371 15.7125C29.1791 15.7621 29.2109 15.8185 29.2299 15.8802C29.2452 15.9429 29.2683 16.0197 29.2078 16.0576C29.1783 16.0754 29.1508 16.0786 29.1287 16.0722C29.3965 16.3156 29.6942 16.5128 30.008 16.6876C30.1141 16.7489 30.2271 16.8648 30.3563 16.7524C30.4687 16.6525 30.3732 16.5339 30.353 16.424C30.3409 16.3727 30.3174 16.3242 30.2977 16.2748C30.0438 15.6623 29.6018 15.1693 29.2082 14.6537C28.3239 13.4902 27.5585 12.221 26.2801 11.4004C25.5146 10.9109 24.9765 10.7683 24.4079 11.5526C24.2843 11.7221 24.1641 11.8968 24.0333 12.0622C23.4389 12.8189 22.8686 13.5895 22.3317 14.3857C23.0975 14.4792 23.6182 14.073 24.0551 13.5391L24.0537 13.5415Z" fill="#2D2D2F"/>
<path d="M22.8444 14.4749C23.4036 14.3192 23.8219 13.9901 24.1732 13.5432C24.5269 13.0976 24.9044 12.6721 25.3353 12.2933C25.4906 12.1579 25.6661 12.1324 25.8366 12.2435C26.3675 12.5881 26.8558 12.9841 27.3266 13.4049C27.7002 13.7379 27.8795 14.1901 28.1583 14.5761C28.4646 15.0033 28.8035 15.4019 29.1267 15.8167C29.1732 15.8752 29.2205 15.9437 29.1731 16.0146C29.1649 16.0289 29.0788 15.9887 29.0285 15.9755C29.0616 16.0073 29.0961 16.0367 29.1305 16.0661C29.1526 16.0725 29.1801 16.0694 29.2096 16.0516C29.2701 16.0136 29.2507 15.9358 29.2317 15.8741C29.2165 15.8115 29.1823 15.7537 29.1389 15.7064C28.603 15.0864 28.1408 14.417 27.7239 13.7135C27.6476 13.5839 27.5352 13.4778 27.4212 13.3803C26.99 13.0077 26.5651 12.6356 26.0917 12.3084C25.599 11.9701 25.3384 12.1207 25.0547 12.4229C24.7129 12.7866 24.3725 13.1479 24.0555 13.5354C23.6187 14.0693 23.098 14.4756 22.3321 14.3821C22.4882 14.5071 22.649 14.5238 22.8433 14.4712L22.8444 14.4749Z" fill="#2D2D2F"/>
<path d="M21.764 20.9836C22.2527 20.6159 22.7935 20.2974 22.9996 19.662C23.4166 18.3718 22.4737 16.7306 20.6788 16.9717C20.1702 17.0395 19.6532 17.1499 19.3768 17.7066C19.1924 17.9647 19.1503 18.2827 19.1828 18.6217C19.2358 19.226 19.5072 19.7471 19.8552 20.2302C20.0553 20.5074 20.3124 20.7414 20.5846 20.9493C20.8985 21.1907 21.4581 21.2127 21.7654 20.9812L21.764 20.9836ZM20.6964 20.2879C20.2156 19.8899 19.9061 19.3847 19.8001 18.772C19.7216 18.3178 19.9663 17.9551 20.4949 17.7246C20.998 17.5047 21.4966 17.4819 21.9463 17.8557C22.334 18.181 22.5824 18.5748 22.5148 19.1095C22.4921 19.2992 22.3922 19.4444 22.3545 19.5209C22.1432 19.9314 21.8655 20.1673 21.5789 20.3854C21.3156 20.5852 21.0179 20.5496 20.6977 20.2855L20.6964 20.2879Z" fill="#010101"/>
</g>
<defs>
<clipPath id="clip0_1019_2887">
<rect width="24" height="44" fill="white" transform="translate(50.1055 22.6074) rotate(120)"/>
</clipPath>
</defs>
</svg>
