<svg width="50" height="50" viewBox="0 0 50 50" fill="none" xmlns="http://www.w3.org/2000/svg">
<path d="M31.6245 5.55078H13.0946C11.6832 5.55078 10.5391 6.69494 10.5391 8.10634V41.8438C10.5391 43.2552 11.6832 44.3994 13.0946 44.3994H31.6245C33.0359 44.3994 34.18 43.2552 34.18 41.8438V8.10634C34.18 6.69494 33.0359 5.55078 31.6245 5.55078Z" fill="#3F4042"/>
<path d="M31.5179 38.2002H13.1984C13.0195 38.1997 12.848 38.1283 12.7215 38.0017C12.595 37.875 12.5238 37.7035 12.5234 37.5245V10.5058C12.5238 10.3267 12.5951 10.155 12.7218 10.0284C12.8484 9.90175 13.02 9.83045 13.1991 9.83008H31.5186C31.6975 9.83063 31.869 9.90202 31.9955 10.0286C32.122 10.1553 32.1932 10.3268 32.1936 10.5058V37.5245C32.1988 37.6146 32.185 37.7048 32.1529 37.7891C32.1207 37.8734 32.0711 37.95 32.0073 38.0138C31.9435 38.0775 31.8669 38.127 31.7825 38.1591C31.6981 38.1911 31.608 38.2056 31.5179 38.2002Z" fill="#D0D2D3"/>
<path d="M32.1929 27.4627V37.5245C32.1981 37.6145 32.1843 37.7046 32.1522 37.7889C32.1201 37.8732 32.0706 37.9497 32.0068 38.0135C31.9431 38.0772 31.8665 38.1268 31.7823 38.1588C31.698 38.1909 31.6079 38.2048 31.5179 38.1995H13.1984C13.0196 38.199 12.8482 38.1277 12.7217 38.0012C12.5953 37.8747 12.524 37.7034 12.5234 37.5245V10.5058C12.5238 10.3267 12.5951 10.155 12.7218 10.0284C12.8484 9.90175 13.02 9.83045 13.1991 9.83008H31.5186C31.6975 9.83063 31.869 9.90202 31.9955 10.0286C32.122 10.1553 32.1932 10.3268 32.1936 10.5058V28.4716" stroke="black" stroke-width="1.38889" stroke-linecap="round" stroke-linejoin="round"/>
<path d="M22.3624 42.5066C23.1084 42.5066 23.7131 41.9018 23.7131 41.1559C23.7131 40.4099 23.1084 39.8052 22.3624 39.8052C21.6164 39.8052 21.0117 40.4099 21.0117 41.1559C21.0117 41.9018 21.6164 42.5066 22.3624 42.5066Z" fill="#D0D2D3"/>
<path d="M18.9821 7.80634H25.737M34.18 27.4647V41.8438C34.1782 42.521 33.9084 43.17 33.4295 43.6489C32.9506 44.1277 32.3017 44.3976 31.6245 44.3994H13.0946C12.4174 44.3976 11.7685 44.1277 11.2896 43.6489C10.8107 43.17 10.5409 42.521 10.5391 41.8438V8.10634C10.5409 7.42912 10.8107 6.78017 11.2896 6.30131C11.7685 5.82245 12.4174 5.55261 13.0946 5.55078H31.6245C32.3017 5.55261 32.9506 5.82245 33.4295 6.30131C33.9084 6.78017 34.1782 7.42912 34.18 8.10634V28.1256" stroke="black" stroke-width="1.38889" stroke-linecap="round" stroke-linejoin="round"/>
</svg>
