<svg width="74" height="87" viewBox="0 0 74 87" fill="none" xmlns="http://www.w3.org/2000/svg">
<g clip-path="url(#clip0_1115_3975)">
<mask id="mask0_1115_3975" style="mask-type:luminance" maskUnits="userSpaceOnUse" x="2" y="3" width="72" height="84">
<path d="M21.7476 3.44898L2.58203 17.9351L54.1537 86.166L73.3192 71.6799L21.7476 3.44898Z" fill="white"/>
</mask>
<g mask="url(#mask0_1115_3975)">
<path d="M51.0452 60.9575C51.2494 61.2277 51.1935 61.622 50.9219 61.8273C50.6503 62.0326 50.2557 61.9788 50.0514 61.7086L31.4711 37.1262C30.5652 37.8006 29.5051 38.519 28.4098 38.9016C28.4197 38.9148 28.4247 38.9214 28.4297 38.928L35.3467 57.1551L61.2382 75.4761L50.6765 45.5683L35.028 33.9407C35.028 33.9407 35.0131 33.9209 35.0031 33.9078C34.3412 34.8637 33.3558 35.681 32.4598 36.3685L51.0402 60.9509L51.0452 60.9575Z" fill="#E6E6E6"/>
<path d="M-8.52271 -34.8216L-35.8445 -54.1534C-36.0651 -54.3077 -36.3619 -54.3008 -36.5739 -54.1406L-36.766 -53.9954C-36.9846 -53.8302 -37.0721 -53.5465 -36.9773 -53.2972L-25.8333 -21.7376C-25.7901 -21.6253 -25.722 -21.5214 -25.6141 -21.4476L-10.4635 -10.1894C-10.6977 -9.20464 -10.5222 -8.10492 -9.6007 -6.88569L23.8837 37.4153C24.9348 38.8059 26.0875 39.2291 27.2411 39.1441C27.2429 39.2153 27.2496 39.2931 27.2746 39.3674L34.2614 57.7696C34.3046 57.8819 34.3793 57.9807 34.4806 58.0596L61.8023 77.3914C62.023 77.5456 62.3197 77.5388 62.5317 77.3786L62.7238 77.2334C62.9424 77.0681 63.03 76.7845 62.9352 76.5351L51.7912 44.9755C51.7479 44.8632 51.6798 44.7594 51.572 44.6856L35.7742 32.943C35.7095 32.8988 35.6431 32.8661 35.5685 32.85C35.965 31.7632 35.8724 30.5388 34.8213 29.1483L1.33685 -15.1527C0.415301 -16.372 -0.588215 -16.8458 -1.60611 -16.8841L-8.30353 -34.5316C-8.34677 -34.6439 -8.42149 -34.7428 -8.52271 -34.8216ZM33.8392 29.9009C35.4332 32.0099 34.268 33.4705 31.2338 35.7639C28.1996 38.0572 26.4765 38.7797 24.8825 36.6708L22.3519 33.3229L31.3087 26.553L33.8392 29.9009ZM13.625 3.15691L4.66162 9.93177L-5.79916 -3.90817L3.15757 -10.678L13.6184 3.16192L13.625 3.15691ZM16.7184 7.24958L7.75502 14.0244L5.40882 10.9203L14.3655 4.15048L16.7118 7.25458L16.7184 7.24958ZM20.1007 11.7245L11.1373 18.4994L8.50222 15.013L17.459 8.24315L20.0941 11.7295L20.1007 11.7245ZM21.5981 32.3393L11.8895 19.4945L20.8463 12.7247L30.5548 25.5694L21.5981 32.3393ZM2.417 -11.6716L-6.54635 -4.89674L-8.6136 -7.63177C-9.15159 -8.34354 -9.3629 -8.98119 -9.31062 -9.60062C-9.28119 -9.93353 -9.16887 -10.267 -8.98692 -10.5909C-8.48903 -11.4746 -7.4723 -12.3881 -6.00822 -13.4947C-4.54414 -14.6013 -3.39291 -15.3368 -2.40187 -15.5681C-2.03396 -15.6598 -1.68917 -15.6719 -1.36086 -15.6094C-0.744039 -15.4957 -0.194857 -15.1134 0.343126 -14.4016L2.41038 -11.6666L2.417 -11.6716ZM35.0344 33.9475L50.6829 45.575L61.2446 75.4829L35.3531 57.1619L28.4361 38.9347C28.4361 38.9347 28.4212 38.915 28.4162 38.9084C29.5165 38.5324 30.5716 37.8074 31.4775 37.133L50.0578 61.7154C50.2621 61.9856 50.6567 62.0394 50.9283 61.8341C51.1999 61.6288 51.2558 61.2345 51.0516 60.9643L32.4712 36.3819C33.3672 35.6943 34.3476 34.8705 35.0145 33.9211C35.0244 33.9343 35.0294 33.9409 35.0394 33.9541L35.0344 33.9475ZM-2.87575 -16.7322C-4.0888 -16.3952 -5.2615 -15.5917 -6.25357 -14.8522L-24.0967 -38.4592C-24.3009 -38.7294 -24.6955 -38.7832 -24.9671 -38.578C-25.2387 -38.3727 -25.2946 -37.9783 -25.0904 -37.7081L-7.24729 -14.1011C-8.22941 -13.3485 -9.3224 -12.4395 -9.97754 -11.3644L-24.7267 -22.3255L-35.2884 -52.2334L-9.39688 -33.9123L-2.87575 -16.7322Z" fill="black"/>
<path d="M20.8395 12.7194L11.8828 19.4893L21.5914 32.334L30.5481 25.5642L20.8395 12.7194Z" fill="#BFBFC0"/>
<path d="M17.4567 8.24382L8.5 15.0137L11.1351 18.5L20.0919 11.7302L17.4567 8.24382Z" fill="#3F4042"/>
<path d="M14.363 4.15178L5.40625 10.9216L7.75245 14.0257L16.7092 7.25588L14.363 4.15178Z" fill="#FEFEFE"/>
<path d="M24.8743 36.6773C26.4683 38.7862 28.1914 38.0637 31.2256 35.7704C34.2598 33.477 35.425 32.0164 33.831 29.9074L31.3005 26.5595L22.3438 33.3293L24.8743 36.6773Z" fill="#3F4042"/>
</g>
</g>
<defs>
<clipPath id="clip0_1115_3975">
<rect width="24.0824" height="90.0472" fill="white" transform="translate(0 14.5215) rotate(-37.0834)"/>
</clipPath>
</defs>
</svg>
