<svg width="53" height="53" viewBox="0 0 53 53" fill="none" xmlns="http://www.w3.org/2000/svg">
<g clip-path="url(#clip0_1081_1082)">
<path d="M35.1926 22.8879C35.1519 22.7913 35.1519 22.6795 35.1926 22.588L39.0952 13.8894L30.4007 17.7938C30.3042 17.8345 30.1975 17.8396 30.1009 17.7938C30.0044 17.7532 29.9282 17.6769 29.8926 17.5752L26.5032 8.66309L23.1139 17.5752C23.0783 17.6718 23.0021 17.7532 22.9055 17.7938C22.809 17.8345 22.6972 17.8345 22.6057 17.7938L13.9113 13.8894L17.8139 22.588C17.8545 22.6846 17.8596 22.7913 17.8139 22.8879C17.7732 22.9845 17.697 23.0608 17.5954 23.0964L8.6875 26.4874L17.5954 29.8783C17.6919 29.9139 17.7732 29.9902 17.8139 30.0868C17.8545 30.1834 17.8545 30.2952 17.8139 30.3867L13.9113 39.0853L22.6057 35.1809C22.6565 35.1605 22.7073 35.1453 22.7632 35.1453C22.8141 35.1453 22.8649 35.1555 22.9106 35.1758C23.0072 35.2165 23.0834 35.2927 23.1189 35.3944L26.5083 44.3065L29.8977 35.3944C29.9332 35.2978 30.0095 35.2165 30.106 35.1758C30.2026 35.1351 30.3093 35.1351 30.4058 35.1758L39.1002 39.0803L35.1977 30.3816C35.157 30.2851 35.1519 30.1783 35.1977 30.0817C35.2383 29.9851 35.3145 29.9088 35.4162 29.8733L44.324 26.4823L35.4162 23.0913C35.3196 23.0557 35.2383 22.9794 35.1977 22.8828L35.1926 22.8879ZM30.233 27.6363C29.9282 28.6328 29.2523 29.4564 28.3275 29.9444C27.7634 30.2444 27.1333 30.402 26.4981 30.402C25.0448 30.402 23.7236 29.6038 23.0427 28.3227C22.0315 26.4162 22.7582 24.0471 24.6637 23.0354C25.2278 22.7354 25.8579 22.5778 26.4931 22.5778C27.9464 22.5778 29.2676 23.376 29.9485 24.6571C30.4363 25.5824 30.5379 26.6399 30.233 27.6363Z" fill="#CCCCCC"/>
<path d="M38.6548 21.4541C38.6141 21.3575 38.6141 21.2456 38.6548 21.1541L44.2037 8.77475L31.8303 14.3264C31.7338 14.3671 31.627 14.3722 31.5305 14.3264C31.4339 14.2857 31.3577 14.2095 31.3222 14.1078L26.4998 1.42847L21.6775 14.1078C21.6419 14.2044 21.5657 14.2857 21.4691 14.3264C21.3726 14.3671 21.2608 14.3671 21.1693 14.3264L8.79589 8.77475L14.3449 21.1541C14.3855 21.2507 14.3906 21.3575 14.3449 21.4541C14.3042 21.5507 14.228 21.6269 14.1264 21.6625L1.45312 26.4872L14.1264 31.3118C14.2229 31.3474 14.3042 31.4237 14.3449 31.5203C14.3855 31.6169 14.3855 31.7287 14.3449 31.8202L8.79589 44.1996L21.1693 38.6479C21.2201 38.6276 21.271 38.6124 21.3269 38.6124C21.3777 38.6124 21.4285 38.6225 21.4742 38.6429C21.5708 38.6835 21.647 38.7598 21.6826 38.8615L26.5049 51.5408L31.3272 38.8615C31.3628 38.7649 31.439 38.6835 31.5356 38.6429C31.6321 38.6022 31.7388 38.6022 31.8354 38.6429L44.2088 44.1945L38.6598 31.8151C38.6192 31.7185 38.6141 31.6118 38.6598 31.5152C38.7005 31.4186 38.7767 31.3423 38.8783 31.3067L51.5516 26.4821L38.8783 21.6574C38.7818 21.6218 38.7005 21.5456 38.6598 21.449L38.6548 21.4541ZM45.7688 26.4872C45.7688 26.6448 45.6723 26.7871 45.5249 26.843L36.0581 30.4476L40.2046 39.6952C40.2707 39.8376 40.2402 40.0104 40.1284 40.1223C40.0166 40.2341 39.8489 40.2646 39.7015 40.1985L30.4583 36.0501L26.8555 45.5214C26.7996 45.6689 26.6573 45.7654 26.4998 45.7654C26.3423 45.7654 26.2 45.6689 26.1441 45.5214L22.5413 36.0501L13.2981 40.1985C13.1558 40.2646 12.983 40.2341 12.8712 40.1223C12.7595 40.0104 12.729 39.8427 12.795 39.6952L16.9415 30.4476L7.4747 26.843C7.32733 26.7871 7.23079 26.6448 7.23079 26.4872C7.23079 26.3296 7.32733 26.1872 7.4747 26.1313L16.9415 22.5268L12.795 13.2791C12.729 13.1368 12.7595 12.9639 12.8712 12.8521C12.983 12.7402 13.1507 12.7097 13.2981 12.7758L22.5413 16.9243L26.1441 7.45293C26.2559 7.15806 26.7437 7.15806 26.8555 7.45293L30.4583 16.9243L39.7015 12.7758C39.8438 12.7097 40.0166 12.7402 40.1284 12.8521C40.2402 12.9639 40.2707 13.1317 40.2046 13.2791L36.0581 22.5268L45.5249 26.1313C45.6723 26.1872 45.7688 26.3296 45.7688 26.4872Z" fill="#F2F2F2"/>
<path d="M52.7561 26.1318L39.5239 21.0936L45.3219 8.16518C45.3879 8.02283 45.3574 7.84998 45.2456 7.73813C45.1338 7.62629 44.9662 7.59578 44.8188 7.66187L31.8965 13.4626L26.8557 0.224081C26.7439 -0.0707873 26.2561 -0.0707873 26.1443 0.224081L21.1085 13.4626L8.19137 7.66187C8.04909 7.59578 7.87632 7.62629 7.76453 7.73813C7.65273 7.84998 7.62224 8.01775 7.6883 8.16518L13.4863 21.0936L0.243912 26.1318C0.0965484 26.1877 0 26.3301 0 26.4877C0 26.6453 0.0965484 26.7876 0.243912 26.8436L13.4761 31.8817L7.67814 44.8051C7.61208 44.9474 7.64257 45.1203 7.75436 45.2321C7.86616 45.344 8.03384 45.3745 8.18121 45.3084L21.0984 39.5076L26.1341 52.7462C26.19 52.8936 26.3323 52.9902 26.4898 52.9902C26.6474 52.9902 26.7896 52.8936 26.8455 52.7462L31.8813 39.5076L44.8035 45.3084C44.9458 45.3745 45.1186 45.344 45.2304 45.2321C45.3422 45.1203 45.3727 44.9525 45.3066 44.8051L39.5086 31.8817L52.7408 26.8436C52.8882 26.7876 52.9848 26.6453 52.9848 26.4877C52.9848 26.3301 52.8882 26.1877 52.7408 26.1318H52.7561ZM38.8734 31.3174C38.7769 31.353 38.6956 31.4293 38.6549 31.5259C38.6143 31.6224 38.6143 31.7343 38.6549 31.8258L44.2039 44.2052L31.8305 38.6535C31.7339 38.6129 31.6272 38.6078 31.5307 38.6535C31.4341 38.6942 31.3579 38.7705 31.3223 38.8721L26.5 51.5515L21.6777 38.8721C21.6421 38.7755 21.5659 38.6942 21.4693 38.6535C21.4236 38.6332 21.3728 38.623 21.322 38.623C21.2711 38.623 21.2152 38.6332 21.1644 38.6586L8.79099 44.2103L14.34 31.8309C14.3806 31.7343 14.3857 31.6275 14.34 31.5309C14.2993 31.4343 14.2231 31.3581 14.1215 31.3225L1.45331 26.4877L14.1266 21.663C14.2231 21.6274 14.3044 21.5512 14.3451 21.4546C14.3857 21.358 14.3857 21.2461 14.3451 21.1546L8.79607 8.77526L21.1695 14.3269C21.2661 14.3676 21.3728 14.3727 21.4693 14.3269C21.5659 14.2862 21.6421 14.21 21.6777 14.1083L26.5 1.42897L31.3223 14.1083C31.3579 14.2049 31.4341 14.2862 31.5307 14.3269C31.6272 14.3676 31.7339 14.3676 31.8305 14.3269L44.2039 8.77526L38.6549 21.1546C38.6143 21.2512 38.6092 21.358 38.6549 21.4546C38.6956 21.5512 38.7718 21.6274 38.8734 21.663L51.5467 26.4877L38.8734 31.3123V31.3174Z" fill="black"/>
<path d="M40.2043 13.2793C40.2704 13.1369 40.2399 12.9641 40.1281 12.8522C40.0163 12.7404 39.8486 12.7099 39.7012 12.776L30.458 16.9245L26.8552 7.45308C26.7434 7.15822 26.2556 7.15822 26.1438 7.45308L22.541 16.9245L13.2978 12.776C13.1555 12.7099 12.9827 12.7404 12.8709 12.8522C12.7591 12.9641 12.7286 13.1318 12.7947 13.2793L16.9412 22.5269L7.47438 26.1315C7.32702 26.1874 7.23047 26.3297 7.23047 26.4873C7.23047 26.6449 7.32702 26.7873 7.47438 26.8432L16.9412 30.4477L12.7947 39.6954C12.7286 39.8377 12.7591 40.0106 12.8709 40.1224C12.9827 40.2343 13.1504 40.2648 13.2978 40.1987L22.541 36.0502L26.1438 45.5216C26.1997 45.669 26.342 45.7656 26.4995 45.7656C26.657 45.7656 26.7993 45.669 26.8552 45.5216L30.458 36.0502L39.7012 40.1987C39.8435 40.2648 40.0163 40.2343 40.1281 40.1224C40.2399 40.0106 40.2704 39.8428 40.2043 39.6954L36.0578 30.4477L45.5246 26.8432C45.672 26.7873 45.7685 26.6449 45.7685 26.4873C45.7685 26.3297 45.672 26.1874 45.5246 26.1315L36.0578 22.5269L40.2043 13.2793ZM44.3152 26.4873L35.4074 29.8783C35.3108 29.9139 35.2295 29.9902 35.1889 30.0868C35.1482 30.1833 35.1482 30.2952 35.1889 30.3867L39.0914 39.0853L30.397 35.1809C30.3005 35.1351 30.1937 35.1351 30.0972 35.1809C30.0007 35.2215 29.9244 35.2978 29.8889 35.3995L26.4995 44.3116L23.1101 35.3995C23.0746 35.3029 22.9984 35.2215 22.9018 35.1809C22.8561 35.1605 22.8053 35.1504 22.7544 35.1504C22.7036 35.1504 22.6477 35.1605 22.5969 35.1859L13.9025 39.0904L17.8051 30.3918C17.8457 30.2952 17.8508 30.1884 17.8051 30.0918C17.7644 29.9952 17.6882 29.919 17.5866 29.8834L8.6787 26.4924L17.5866 23.1014C17.6831 23.0658 17.7644 22.9896 17.8051 22.893C17.8457 22.7964 17.8457 22.6845 17.8051 22.593L13.9025 13.8944L22.5969 17.7989C22.6935 17.8396 22.8002 17.8446 22.8967 17.7989C22.9933 17.7582 23.0695 17.682 23.1051 17.5803L26.4944 8.66814L29.8838 17.5803C29.9193 17.6769 29.9956 17.7582 30.0921 17.7989C30.1887 17.8396 30.2954 17.8396 30.3919 17.7989L39.0864 13.8944L35.1838 22.593C35.1431 22.6896 35.138 22.7964 35.1838 22.893C35.2244 22.9896 35.3006 23.0658 35.4023 23.1014L44.3101 26.4924L44.3152 26.4873Z" fill="#666666"/>
<path d="M26.4963 22.5776C25.8611 22.5776 25.231 22.7352 24.667 23.0352C22.7614 24.0469 22.0348 26.416 23.046 28.3225C23.7269 29.6036 25.0481 30.4018 26.5014 30.4018C27.1366 30.4018 27.7667 30.2442 28.3307 29.9443C29.2505 29.4562 29.9314 28.6326 30.2363 27.6362C30.5412 26.6397 30.4396 25.5772 29.9517 24.657C29.2708 23.3758 27.9496 22.5776 26.4963 22.5776ZM29.5096 27.4125C29.2657 28.2157 28.7169 28.8766 27.975 29.2732C27.5228 29.5121 27.0146 29.6392 26.5014 29.6392C25.3326 29.6392 24.2655 28.9986 23.7167 27.9666C22.9037 26.4313 23.4881 24.5248 25.0227 23.7114C25.4749 23.4724 25.9831 23.3453 26.4963 23.3453C27.6651 23.3453 28.7322 23.9859 29.281 25.0179C29.6722 25.7602 29.7535 26.6143 29.5096 27.4175V27.4125Z" fill="black"/>
</g>
<defs>
<clipPath id="clip0_1081_1082">
<rect width="53" height="53" fill="white"/>
</clipPath>
</defs>
</svg>
