<svg width="68" height="60" viewBox="0 0 68 60" fill="none" xmlns="http://www.w3.org/2000/svg">
<g clip-path="url(#clip0_1115_4016)">
<path d="M8.29796 41.1688C9.38755 39.865 10.0895 38.3281 10.7757 36.7745C10.9172 36.4583 11.0324 36.081 11.5091 36.0089V36.7135C11.5091 38.0118 11.4986 39.3157 11.5091 40.614C11.5196 41.5572 11.792 41.9789 12.5516 42.1287C14.2069 42.4561 15.8675 42.7279 17.5228 43.0553C17.9471 43.1385 18.1043 42.9887 18.1986 42.5726C18.4081 41.6571 18.6596 40.7472 18.9267 39.7152C19.5396 40.6972 19.7387 41.7126 20.1054 42.6447C22.6984 49.1807 26.6324 54.4183 32.8347 57.4755C35.8992 58.9846 39.0632 60.0499 42.4839 59.9833C46.8056 59.9001 50.8706 58.7627 54.6371 56.5212C58.6445 54.1298 61.9237 50.9395 63.9877 46.4953C66.6802 40.6917 67.8903 34.5219 67.9898 28.0913C68.0527 24.0799 67.4136 20.1627 66.6121 16.2511C65.9992 13.2606 64.4539 10.9968 62.2747 9.12149C61.9499 8.83852 61.6618 8.51117 61.4889 8.10613C60.4622 5.69814 58.6445 4.17789 56.5072 2.96835C53.6418 1.35378 50.5982 0.549264 47.3766 0.171975C42.201 -0.432796 37.2979 0.454942 32.5938 2.70203C28.403 4.70499 25.1238 8.05065 21.7136 11.1966C21.1007 11.7625 20.8335 12.617 20.5035 13.4048C20.1892 14.1483 19.8382 14.8696 19.1572 15.3301C15.6841 17.666 12.3944 20.2681 9.31421 23.1588C5.72589 26.5267 2.79237 30.4605 0.225543 34.7216C-0.109716 35.2765 -0.073047 35.8036 0.393173 36.2918C1.11084 37.0409 1.84946 37.751 2.72951 38.2948C4.33247 39.2879 5.93019 40.2977 7.51219 41.3353C7.8946 41.585 8.04651 41.4629 8.29796 41.1577V41.1688ZM17.7376 39.6708C17.7062 39.7817 17.6485 39.8816 17.6066 39.9815C17.3622 41.0468 16.744 41.4795 15.7522 41.2798C15.1498 41.1577 14.5474 41.0634 13.945 40.958C13.0964 40.8026 12.5987 40.3033 12.6301 39.4988C12.7244 36.9299 12.7925 34.3554 13.2011 31.8143C13.353 30.86 13.7145 29.9889 14.2802 29.2343C15.4641 27.6586 16.6532 26.0939 18.1095 24.6902C18.4238 25.7721 18.1933 26.7597 18.0362 27.7473C17.7952 30.7102 17.9314 33.6453 18.5129 36.5692C18.7329 37.6623 18.0362 38.6443 17.7428 39.6708H17.7376ZM27.1615 7.43478C30.9803 4.03364 35.4016 2.08061 40.3257 1.36487C45.4436 0.621393 50.3416 1.43145 55.0247 3.71183C57.0572 4.69944 58.7073 6.1975 59.8755 8.24484C59.9488 8.37801 60.1322 8.49452 60.0588 8.66097C59.9646 8.87736 59.7445 8.77749 59.5874 8.75529C57.7854 8.54446 55.9886 8.30033 54.1918 8.11168C52.9293 7.97852 51.6669 7.86201 50.3992 7.81762C47.6176 7.71775 44.836 7.5402 42.0544 7.67336C38.5656 7.83981 35.0768 8.03955 31.6142 8.59994C29.6079 8.92174 27.6068 9.26019 25.6267 9.72626C25.5429 9.7429 25.4538 9.72626 25.2757 9.72626C25.6791 8.67762 26.4543 8.0673 27.1615 7.43478ZM22.0279 12.9221C22.3369 12.5393 22.6722 12.162 23.1437 11.9733C24.1704 11.1799 25.4067 11.0412 26.5853 10.725C31.2737 9.45439 36.0459 8.93839 40.881 8.87181C43.9454 8.82742 47.0099 8.58884 50.0692 8.78858C53.647 9.02162 57.2353 9.2491 60.7136 10.3144C62.8824 10.9802 64.0872 12.5781 64.7368 14.7642C64.7525 14.7808 64.7787 14.7864 64.7891 14.8086C65.4073 16.2622 65.4073 16.2733 63.9353 16.3066C60.6246 16.3732 57.3244 16.1457 54.0189 16.0292C50.1215 15.8905 46.2189 15.8128 42.3268 16.0514C37.7851 16.3288 33.2433 16.6562 28.7383 17.3774C26.1453 17.7936 23.5418 18.1376 20.9645 18.6591C20.2992 18.7923 20.2678 18.3151 20.273 17.8879C20.294 16.0126 20.8859 14.348 22.0383 12.9221H22.0279ZM19.9063 23.4585C20.053 22.5985 20.2101 21.7385 20.3673 20.8785C20.4773 20.2737 20.8335 19.8909 21.3993 19.7743C23.5994 19.3083 25.8048 18.8755 27.9997 18.3873C29.7493 17.9989 31.5147 17.7381 33.301 17.5827C34.4534 17.4829 35.6059 17.3774 36.7583 17.2887C39.7023 17.0556 42.6568 16.8615 45.6008 16.9058C49.692 16.9669 53.7884 17.1 57.8797 17.1888C59.2312 17.2165 60.5932 17.211 61.9447 17.2942C62.8352 17.3497 63.731 17.444 64.6058 17.5994C65.0353 17.6771 65.533 17.7936 65.6587 18.3928C66.2402 19.4303 66.324 20.6288 66.5597 21.7662C67.1883 24.7734 67.0626 27.8084 66.8636 30.8544C66.6069 34.7549 65.8263 38.5334 64.5848 42.2064C63.9038 44.2149 63.1128 46.1735 61.9656 47.9434C60.8446 49.9519 59.3202 51.5776 57.6177 53.0035C54.8047 55.356 51.625 56.9872 48.1414 57.8971C46.7009 58.2744 45.2289 58.4242 43.7464 58.563C39.0004 59.0124 34.8358 57.3146 30.9384 54.7235C25.7838 51.3001 22.5412 46.3066 20.6659 40.2534C19.5972 36.8023 18.932 33.2791 19.0786 29.6227C19.1625 27.5421 19.5658 25.5058 19.9168 23.4585H19.9063ZM2.32091 36.2641C1.38847 35.6038 1.28894 35.1489 1.84422 34.1058C4.14912 29.778 7.03026 25.9552 10.7391 22.8648C12.5987 21.3168 14.3798 19.6634 16.2918 18.182C17.0252 17.616 17.8109 17.1611 18.691 16.9225C18.8324 16.8836 19.1729 16.6062 19.0577 17.1333C19.0944 17.7214 18.9477 18.2818 18.7853 18.8367C18.6543 19.2861 18.6805 19.7022 18.8691 20.1183C19.3458 21.1725 19.2044 22.1047 18.3715 22.9369C16.8523 24.4461 15.3855 25.9996 14.1964 27.825C12.2215 30.8489 10.6762 34.1169 9.27231 37.4625C9.20944 37.6068 9.13087 37.751 9.06277 37.8953C8.37129 39.6097 7.93651 40.1313 6.19735 38.8885C4.92441 37.9841 3.60433 37.1574 2.32615 36.2585L2.32091 36.2641Z" fill="#010101"/>
<path d="M60.0003 17.8546C55.9091 17.616 51.8126 17.6326 47.7162 17.7159C45.5998 17.7603 43.4783 17.8546 41.3672 17.9933C36.7626 18.2874 32.2628 19.2195 27.8259 20.5566C25.7514 21.1836 24.0804 22.2766 23.0746 24.3684C22.7446 25.0564 22.7131 25.8109 22.6608 26.5267C22.5822 27.6807 22.4355 28.8237 22.3517 29.9722C22.205 31.9308 22.666 33.7895 23.2475 35.6093C23.588 36.6635 23.4622 37.812 23.9023 38.8496C25.6257 42.9221 27.7368 46.6506 31.1627 49.4525C33.8029 51.6108 36.8412 52.5762 40.0052 53.1866C42.923 53.7525 45.867 53.6637 48.7796 52.9646C50.5868 52.5319 52.4203 52.2489 54.1908 51.6386C56.6162 50.7952 58.8478 49.5024 61.1265 48.3206C61.3989 48.1764 61.687 48.0654 61.9647 47.9378C63.1171 46.1679 63.9029 44.2093 64.5839 42.2008C65.8254 38.5278 66.6059 34.7549 66.8626 30.8488C67.0617 27.8028 67.1821 24.7623 66.5588 21.7606C66.323 20.6232 66.2392 19.4248 65.6578 18.3872C64.4372 18.365 63.2324 18.1542 62.0223 18.0099C61.3518 17.9323 60.6708 17.8934 60.0003 17.8546ZM59.5812 37.6567C58.2716 38.4557 56.7734 38.8107 55.3014 39.1492C52.8289 39.7262 50.3144 40.0369 47.7947 40.2977C45.8513 40.4974 43.9131 40.5529 41.9644 40.564C40.4243 40.5751 38.9313 40.22 37.4279 39.9426C36.4588 39.7651 35.4792 39.7429 34.5048 39.6208C32.3885 39.3545 30.6703 38.2448 29.1459 36.7689C27.7735 35.4373 26.642 33.8949 26.1757 31.9419C25.6362 29.6726 25.8876 27.4366 26.6944 25.2783C27.0034 24.4516 27.7316 24.0355 28.4754 23.7358C30.4922 22.9202 32.6033 22.5873 34.7458 22.4264C36.6264 22.2877 38.507 22.2877 40.8486 22.2933C43.9812 22.4653 47.559 21.7995 51.1526 22.0159C53.6408 22.1657 56.1343 22.382 58.3921 23.6748C61.2418 25.3116 62.8762 27.8527 62.8447 31.2983C62.8238 33.9337 61.8651 36.2641 59.5812 37.6567Z" fill="#3F4042"/>
<path d="M20.661 40.2478C22.5364 46.3011 25.7842 51.2946 30.9336 54.7179C34.8362 57.309 38.9955 59.0068 43.7415 58.5574C45.224 58.4187 46.696 58.2633 48.1366 57.8916C51.6254 56.9816 54.7998 55.3504 57.6129 52.9979C59.3154 51.572 60.845 49.9408 61.9608 47.9378C61.6517 48.2374 61.2902 48.4538 60.9183 48.648C59.1896 49.5468 57.4767 50.4901 55.6904 51.2724C53.8098 52.0935 51.8349 52.5152 49.86 52.9424C47.7961 53.3863 45.7321 53.758 43.6053 53.7303C41.0123 53.697 38.4979 53.1921 36.0568 52.3432C31.3998 50.7231 28.0158 47.4829 25.7109 42.9387C25.4489 42.4283 25.1765 41.9289 24.8675 41.4462C24.0293 40.1368 23.516 38.6942 23.3431 37.1241C23.2593 36.3584 23.0864 35.6094 22.8402 34.8936C22.0806 32.6687 22.0125 30.3994 22.3478 28.0913C22.4421 27.4477 22.4473 26.7986 22.4997 26.1494C22.7302 23.4751 24.2441 21.8661 26.4233 20.8618C27.8534 20.2071 29.383 19.852 30.9021 19.4803C33.6785 18.8034 36.4758 18.2263 39.3203 17.9489C40.1061 17.8712 40.8971 17.7769 41.6776 17.7825C43.3015 17.7936 44.9202 17.6826 46.5336 17.5883C49.4514 17.4163 52.364 17.4995 55.2765 17.4995C58.5401 17.4995 61.7984 17.7214 65.0357 18.1708C65.2557 18.1986 65.4757 18.2097 65.6486 18.3761C65.5229 17.7769 65.0252 17.6604 64.5957 17.5827C63.7156 17.4274 62.8251 17.333 61.9346 17.2776C60.5831 17.1943 59.2211 17.1999 57.8696 17.1721C53.7783 17.0889 49.6819 16.9502 45.5907 16.8892C42.6467 16.8448 39.6922 17.039 36.7482 17.272C35.5958 17.3663 34.4433 17.4662 33.2909 17.5661C31.5098 17.7214 29.7444 17.9822 27.9896 18.3706C25.7947 18.8588 23.5893 19.2916 21.3892 19.7577C20.8234 19.8797 20.4724 20.257 20.3572 20.8618C20.2 21.7218 20.0429 22.5818 19.8962 23.4418C19.5452 25.4836 19.1419 27.5198 19.0581 29.606C18.9166 33.2624 19.5767 36.7856 20.6453 40.2367L20.661 40.2478Z" fill="#2D2D2F"/>
<path d="M55.2873 17.5051C52.3747 17.5051 49.4621 17.4219 46.5443 17.5939C44.9309 17.6882 43.3122 17.7992 41.6883 17.7881C40.9078 17.7881 40.1168 17.8769 39.331 17.9545C36.4866 18.232 33.6892 18.809 30.9129 19.4859C29.399 19.8521 27.8641 20.2072 26.434 20.8674C24.2496 21.8717 22.7357 23.4752 22.5104 26.155C22.4528 26.8042 22.4528 27.4478 22.3585 28.0969C22.0233 30.3995 22.0966 32.6743 22.8509 34.8992C23.0971 35.615 23.27 36.364 23.3538 37.1297C23.5267 38.6999 24.0401 40.1424 24.8782 41.4519C25.1873 41.9346 25.4649 42.4284 25.7216 42.9444C28.0265 47.4885 31.4105 50.7287 36.0675 52.3488C38.5086 53.1977 41.023 53.6971 43.6161 53.7359C45.7429 53.7637 47.8068 53.3919 49.8707 52.9481C51.8456 52.5208 53.8205 52.0992 55.7011 51.278C57.4874 50.4957 59.1951 49.5525 60.9291 48.6536C61.3062 48.4594 61.6624 48.2375 61.9715 47.9434C61.6939 48.0711 61.4057 48.1876 61.1333 48.3263C58.8546 49.5081 56.6231 50.8064 54.1977 51.6442C52.4323 52.2545 50.5936 52.5375 48.7864 52.9703C45.8738 53.6693 42.9298 53.7581 40.012 53.1922C36.848 52.5763 33.8097 51.6165 31.1696 49.4581C27.7436 46.6562 25.6378 42.9277 23.9091 38.8552C23.4691 37.8177 23.5948 36.6692 23.2543 35.615C22.6728 33.7896 22.2119 31.9364 22.3585 29.9778C22.4423 28.8293 22.589 27.6864 22.6676 26.5323C22.7147 25.8166 22.7462 25.0675 23.0814 24.374C24.0872 22.2823 25.7583 21.1892 27.8327 20.5623C32.2696 19.2251 36.7747 18.293 41.374 17.9989C43.4851 17.8658 45.6067 17.7659 47.723 17.7215C51.8194 17.6383 55.9159 17.6216 60.0071 17.8602C60.6776 17.899 61.3534 17.9323 62.0291 18.0156C63.2392 18.1598 64.444 18.3651 65.6646 18.3929C65.4865 18.2264 65.2665 18.2209 65.0517 18.1876C61.8143 17.7326 58.556 17.5162 55.2925 17.5162L55.2873 17.5051Z" fill="#2D2D2F"/>
<path d="M22.8766 16.2511C22.8661 16.7505 23.0285 16.9225 23.4895 16.8392C26.6745 16.29 29.8542 15.7129 33.0444 15.2191C34.6159 14.975 36.2136 14.8862 37.8009 14.7586C40.5668 14.5367 43.3431 14.4423 46.1143 14.3036C49.9278 14.115 53.7362 14.1705 57.5497 14.2371C59.9437 14.2814 62.3534 14.3758 64.7316 14.7531C64.0821 12.567 62.8772 10.9635 60.7085 10.3033C57.2302 9.23798 53.6419 9.0105 50.064 8.77747C47.0048 8.57773 43.9351 8.81631 40.8758 8.8607C36.0408 8.92728 31.2686 9.44327 26.5802 10.7138C25.4015 11.0301 24.1653 11.1688 23.1385 11.9622C22.7561 13.3715 22.908 14.8141 22.8714 16.2456L22.8766 16.2511Z" fill="#E6E6E6"/>
<path d="M25.6283 9.72632C27.6084 9.2658 29.6095 8.92735 31.6158 8.6C35.0784 8.04516 38.5672 7.84542 42.056 7.67342C44.8376 7.54026 47.6192 7.71781 50.4008 7.81768C51.6685 7.86207 52.931 7.97858 54.1935 8.11174C55.9955 8.30593 57.7923 8.55006 59.589 8.75535C59.7462 8.772 59.9662 8.87187 60.0605 8.66103C60.1338 8.49458 59.9505 8.37806 59.8771 8.2449C58.709 6.19756 57.0589 4.6995 55.0264 3.71189C50.3484 1.43706 45.4453 0.621452 40.3273 1.36493C35.398 2.08067 30.9768 4.02815 27.1632 7.43484C26.456 8.06735 25.6859 8.67767 25.2773 9.72632C25.4555 9.72632 25.5445 9.74296 25.6283 9.72632Z" fill="#3F4042"/>
<path d="M9.42293 27.1593C7.58948 29.2898 6.07558 31.659 4.95979 34.3056C4.73978 34.8326 4.69787 35.1877 5.26362 35.4707C6.60466 36.1421 7.77807 37.1075 9.05624 37.9009C9.12434 37.7566 9.20292 37.6179 9.26578 37.4681C10.6697 34.1169 12.215 30.8545 14.1899 27.8306C15.3843 26.0052 16.851 24.4517 18.3649 22.9425C19.1978 22.1158 19.3393 21.1837 18.8626 20.1239C18.674 19.7078 18.6478 19.2917 18.7788 18.8423C18.9411 18.2874 19.0878 17.727 19.0512 17.1389C18.1763 17.9101 17.4168 18.8034 16.5629 19.6024C14.0432 21.9715 11.6859 24.5238 9.41769 27.1593H9.42293Z" fill="#E6E6E6"/>
<path d="M18.0372 27.7473C17.0314 29.3841 16.3242 31.1818 15.5909 32.9572C15.0775 34.2056 14.4279 35.3985 14.0665 36.7246C13.6055 38.4446 13.5845 38.4335 15.1456 38.9495C15.7952 39.1603 16.429 39.4155 17.089 39.5986C17.3038 39.6597 17.5134 39.7373 17.6077 39.9815C17.6548 39.876 17.7072 39.7762 17.7386 39.6707C18.032 38.6443 18.7287 37.6622 18.5087 36.5692C17.9272 33.6452 17.791 30.7101 18.032 27.7473H18.0372Z" fill="#E6E6E6"/>
<path d="M17.0827 39.6042C16.4227 39.4267 15.7888 39.1714 15.1393 38.9551C13.5782 38.4391 13.5992 38.4446 14.0602 36.7302C14.4164 35.4041 15.0659 34.2112 15.5845 32.9628C16.3179 31.1874 17.0303 29.3897 18.0309 27.7529C17.7637 27.5809 17.7585 27.8694 17.6956 27.9915C16.6846 29.8058 15.925 31.7477 15.1078 33.6619C14.4949 35.0934 13.8244 36.4916 13.5887 38.0673C13.5258 38.4779 13.5468 38.6721 13.9868 38.7997C15.2021 39.1548 16.4017 39.582 17.6013 39.9871C17.5018 39.7429 17.2975 39.6652 17.0827 39.6042Z" fill="#E6E6E6"/>
<path d="M58.3892 23.6804C56.1367 22.3876 53.6432 22.1712 51.1497 22.0214C47.5562 21.805 43.9835 22.4708 40.8457 22.2988C38.5042 22.2877 36.6236 22.2877 34.743 22.432C32.6004 22.5929 30.4894 22.9258 28.4726 23.7414C27.7287 24.041 27.0006 24.4571 26.6915 25.2838C25.8848 27.4422 25.6333 29.6781 26.1729 31.9474C26.6391 33.9004 27.7654 35.4484 29.1431 36.7745C30.6675 38.2504 32.3857 39.36 34.502 39.6264C35.4763 39.7484 36.4559 39.7706 37.425 39.9482C38.9285 40.2256 40.4214 40.5807 41.9615 40.5696C43.9102 40.5585 45.8484 40.503 47.7919 40.3033C50.3116 40.048 52.8208 39.7318 55.2985 39.1547C56.7705 38.8107 58.2687 38.4612 59.5783 37.6622C61.8571 36.2696 62.8157 33.9393 62.8419 31.3038C62.8681 27.8638 61.2337 25.3171 58.3892 23.6804ZM57.2839 37.1351C54.2037 38.0895 51.0502 38.5611 47.8809 39.0049C43.1035 39.6818 38.3994 39.0493 33.7058 38.1838C30.107 37.518 26.1729 32.8407 26.9849 28.058C27.011 27.8971 27.0582 27.7473 27.1001 27.5864C27.2887 25.6389 27.713 25.2006 29.405 24.6291C32.6581 23.5306 36.0054 23.3197 39.379 23.1977C42.9254 23.07 46.4718 23.0257 50.0182 23.0368C52.5431 23.0478 55.0419 23.2254 57.3572 24.4849C58.5621 25.1396 59.6517 25.9219 60.3746 27.1758C62.4019 30.0776 61.8047 35.7314 57.2839 37.1351Z" fill="#010101"/>
<path d="M54.233 25.4392C53.0491 25.2395 51.8548 25.0508 50.6604 24.9621C47.9259 24.7512 45.181 24.6791 42.4518 24.8455C39.5759 25.0175 36.6948 25.2006 33.8293 25.5946C32.0273 25.8443 30.2253 25.983 28.5176 26.7209C28.0042 26.9428 27.5537 27.2646 27.098 27.5864C27.0613 27.7418 27.0089 27.8971 26.9827 28.058C26.1708 32.8407 30.0996 37.518 33.7036 38.1838C38.392 39.0549 43.0961 39.6819 47.8788 39.005C51.048 38.5556 54.2016 38.0895 57.2818 37.1352C61.8078 35.737 62.405 30.0777 60.3724 27.1759C58.3242 26.6155 56.3336 25.7888 54.233 25.4392ZM40.7755 30.7268C40.6236 31.6367 40.4612 32.5467 40.1626 33.4178C39.9531 34.0336 39.5811 34.4442 38.9473 34.5274C38.3082 34.6162 37.9363 34.2278 37.622 33.7118C37.2867 33.1681 36.941 32.6299 36.9672 32.0584C36.9672 31.3427 37.1348 30.7878 37.3967 30.2774C37.6115 29.8557 37.5067 29.7004 37.1138 29.5395C35.6104 28.918 34.1227 28.2633 32.6297 27.6253C32.4883 27.5642 32.3521 27.4921 32.2054 27.4422C31.7235 27.2702 31.5349 26.7653 31.6502 26.4102C31.7602 26.0773 32.2683 26.0551 32.6507 26.2104C34.3375 26.9095 36.019 27.6142 37.7005 28.3244C38.4706 28.6462 39.2302 28.9957 40.0002 29.3231C40.6131 29.5783 40.9012 30.0166 40.7807 30.7268H40.7755Z" fill="#E6E6E6"/>
<path d="M39.9908 29.3231C39.2208 29.0013 38.4612 28.6517 37.6912 28.3244C36.0096 27.6142 34.3228 26.9151 32.6413 26.2104C32.2641 26.0551 31.756 26.0773 31.6408 26.4102C31.5203 26.7653 31.7089 27.2702 32.196 27.4422C32.3427 27.4921 32.4789 27.5642 32.6204 27.6253C34.1133 28.2689 35.601 28.9236 37.1045 29.5395C37.4973 29.7004 37.6073 29.8613 37.3873 30.2774C37.1254 30.7878 36.963 31.3427 36.9578 32.0584C36.9316 32.6299 37.2773 33.1681 37.6126 33.7118C37.9321 34.2278 38.2988 34.6162 38.9379 34.5274C39.5718 34.4387 39.9437 34.0281 40.1532 33.4178C40.4518 32.5411 40.6142 31.6367 40.7661 30.7268C40.8814 30.0166 40.5932 29.5783 39.9856 29.3231H39.9908Z" fill="#010001"/>
<path d="M46.0463 29.3231C46.8164 29.0013 47.5759 28.6517 48.346 28.3244C50.0275 27.6142 51.7143 26.9151 53.3958 26.2104C53.773 26.0551 54.2811 26.0773 54.3964 26.4102C54.5169 26.7653 54.3283 27.2702 53.8411 27.4422C53.6944 27.4921 53.5582 27.5642 53.4168 27.6253C51.9238 28.2689 50.4361 28.9236 48.9327 29.5395C48.5398 29.7004 48.4298 29.8613 48.6498 30.2774C48.9117 30.7878 49.0741 31.3427 49.0794 32.0584C49.1056 32.6299 48.7598 33.1681 48.4246 33.7118C48.105 34.2278 47.7383 34.6162 47.0993 34.5274C46.4654 34.4387 46.0935 34.0281 45.8839 33.4178C45.5853 32.5411 45.423 31.6367 45.271 30.7268C45.1558 30.0166 45.4439 29.5783 46.0516 29.3231H46.0463Z" fill="#010001"/>
</g>
<defs>
<clipPath id="clip0_1115_4016">
<rect width="68" height="60" fill="white"/>
</clipPath>
</defs>
</svg>
