<svg width="46" height="38" viewBox="0 0 46 38" fill="none" xmlns="http://www.w3.org/2000/svg">
<g clip-path="url(#clip0_1019_739)">
<path d="M5.61459 26.0735C6.35166 25.2477 6.82651 24.2743 7.29073 23.2904C7.38641 23.0901 7.46437 22.8512 7.78684 22.8055V23.2518C7.78684 24.074 7.77975 24.8998 7.78684 25.7221C7.79393 26.3195 7.9782 26.5865 8.49202 26.6814C9.61181 26.8887 10.7351 27.0609 11.8549 27.2682C12.142 27.3209 12.2483 27.2261 12.3121 26.9625C12.4538 26.3827 12.6239 25.8064 12.8046 25.1528C13.2192 25.7748 13.3539 26.4179 13.602 27.0082C15.3561 31.1476 18.0173 34.4648 22.213 36.401C24.286 37.3568 26.4264 38.0315 28.7404 37.9893C31.6639 37.9366 34.4138 37.2163 36.9616 35.7966C39.6725 34.2821 41.8908 32.2616 43.287 29.4469C45.1085 25.7713 45.927 21.8638 45.9944 17.7911C46.0369 15.2505 45.6046 12.7696 45.0624 10.2923C44.6478 8.39825 43.6024 6.96455 42.1283 5.77683C41.9086 5.59762 41.7137 5.3903 41.5967 5.13378C40.9022 3.60872 39.6725 2.64589 38.2267 1.87985C36.2883 0.857286 34.2295 0.347761 32.0501 0.108812C28.549 -0.27421 25.2322 0.288024 22.05 1.71118C19.2151 2.97972 16.9968 5.09864 14.6899 7.09106C14.2752 7.44948 14.0945 7.99063 13.8713 8.48961C13.6587 8.96048 13.4212 9.4173 12.9606 9.70896C10.6111 11.1883 8.38571 12.8364 6.30205 14.6672C3.87466 16.8001 1.89022 19.2915 0.153837 21.9903C-0.0729558 22.3417 -0.0481504 22.6755 0.267234 22.9847C0.752712 23.4591 1.25237 23.9089 1.8477 24.2533C2.93205 24.8823 4.01286 25.5218 5.08304 26.1789C5.34173 26.337 5.44449 26.2597 5.61459 26.0665V26.0735ZM12.0002 25.1247C11.979 25.195 11.94 25.2582 11.9116 25.3215C11.7463 25.9962 11.3281 26.2703 10.6572 26.1438C10.2497 26.0665 9.84215 26.0067 9.43463 25.94C8.86056 25.8416 8.52392 25.5253 8.54518 25.0158C8.60896 23.3888 8.65503 21.7583 8.93144 20.1489C9.0342 19.5445 9.27871 18.9928 9.66143 18.5149C10.4623 17.517 11.2667 16.526 12.2518 15.637C12.4644 16.3222 12.3085 16.9477 12.2022 17.5732C12.0392 19.4497 12.1313 21.3086 12.5247 23.1604C12.6735 23.8527 12.2022 24.4746 12.0038 25.1247H12.0002ZM18.3752 4.70859C20.9586 2.55453 23.9494 1.31762 27.2804 0.864314C30.7425 0.393443 34.0558 0.906482 37.2239 2.35072C38.5988 2.97621 39.715 3.92498 40.5053 5.22163C40.5549 5.30596 40.6789 5.37976 40.6293 5.48518C40.5655 5.62222 40.4167 5.55897 40.3104 5.54491C39.0914 5.41138 37.8759 5.25677 36.6604 5.13729C35.8064 5.05296 34.9524 4.97917 34.0948 4.95105C32.2132 4.8878 30.3315 4.77535 28.4498 4.85969C26.0897 4.96511 23.7297 5.09161 21.3873 5.44652C20.0301 5.65033 18.6764 5.86468 17.337 6.15986C17.2803 6.1704 17.22 6.15986 17.0995 6.15986C17.3724 5.49572 17.8968 5.10918 18.3752 4.70859ZM14.9025 8.1839C15.1115 7.94144 15.3383 7.70249 15.6573 7.58301C16.3518 7.08051 17.1881 6.99267 17.9854 6.79237C21.157 5.98767 24.3853 5.66087 27.656 5.61871C29.7291 5.59059 31.8021 5.43949 33.8716 5.566C36.2919 5.71358 38.7193 5.85766 41.0723 6.53234C42.5393 6.95401 43.3544 7.96603 43.7938 9.35054C43.8044 9.36108 43.8221 9.36459 43.8292 9.37865C44.2474 10.2993 44.2474 10.3063 43.2516 10.3274C41.012 10.3696 38.7795 10.2255 36.5435 10.1517C33.907 10.0639 31.267 10.0147 28.6341 10.1658C25.5617 10.3415 22.4894 10.5488 19.4419 11.0056C17.6878 11.2692 15.9266 11.487 14.1831 11.8173C13.7331 11.9017 13.7118 11.5995 13.7154 11.3289C13.7295 10.1412 14.13 9.08699 14.9096 8.1839H14.9025ZM13.4673 14.8569C13.5665 14.3123 13.6728 13.7676 13.7791 13.2229C13.8536 12.8399 14.0945 12.5974 14.4772 12.5236C15.9656 12.2285 17.4574 11.9544 18.9422 11.6452C20.1258 11.3992 21.32 11.234 22.5284 11.1356C23.308 11.0724 24.0876 11.0056 24.8672 10.9494C26.8587 10.8018 28.8573 10.6788 30.8489 10.7069C33.6164 10.7456 36.3876 10.8299 39.1551 10.8861C40.0694 10.9037 40.9907 10.9002 41.905 10.9529C42.5074 10.988 43.1134 11.0478 43.7052 11.1462C43.9958 11.1954 44.3324 11.2692 44.4174 11.6487C44.8108 12.3058 44.8675 13.0648 45.027 13.7852C45.4522 15.6897 45.3671 17.6119 45.2325 19.541C45.0588 22.0113 44.5308 24.4044 43.691 26.7306C43.2303 28.0027 42.6952 29.2431 41.9192 30.364C41.1608 31.6361 40.1296 32.6657 38.978 33.5688C37.075 35.0587 34.924 36.0918 32.5675 36.6681C31.593 36.907 30.5973 37.0019 29.5944 37.0898C26.3839 37.3744 23.5667 36.2991 20.9302 34.6581C17.4433 32.49 15.2497 29.3274 13.9811 25.4937C13.2582 23.308 12.8082 21.0766 12.9074 18.7609C12.9641 17.4432 13.237 16.1536 13.4744 14.8569H13.4673ZM1.57129 22.9671C0.940525 22.549 0.873196 22.2608 1.24882 21.6002C2.80802 18.8593 4.75703 16.4382 7.26592 14.4809C8.52392 13.5005 9.72875 12.4534 11.0222 11.5151C11.5183 11.1567 12.0498 10.8686 12.6452 10.7175C12.7408 10.6929 12.9712 10.5172 12.8932 10.851C12.918 11.2235 12.8188 11.5784 12.709 11.9298C12.6204 12.2144 12.6381 12.478 12.7657 12.7415C13.0881 13.4092 12.9924 13.9995 12.429 14.5266C11.4014 15.4824 10.4091 16.4663 9.60473 17.6224C8.26877 19.5375 7.2234 21.6072 6.27371 23.7262C6.23118 23.8175 6.17803 23.9089 6.13196 24.0002C5.6642 25.0861 5.37008 25.4164 4.19359 24.6292C3.33248 24.0565 2.43949 23.5329 1.57484 22.9636L1.57129 22.9671Z" fill="#010101"/>
<path d="M40.5922 11.3078C37.8246 11.1567 35.0535 11.1672 32.2824 11.2199C30.8507 11.248 29.4156 11.3078 27.9875 11.3956C24.8726 11.5819 21.8286 12.1722 18.8272 13.0191C17.4239 13.4162 16.2935 14.1084 15.6131 15.4332C15.3898 15.8689 15.3686 16.3468 15.3331 16.8001C15.28 17.531 15.1808 18.2549 15.1241 18.9823C15.0248 20.2227 15.3367 21.3999 15.73 22.5525C15.9568 23.2201 15.8753 23.9475 16.173 24.6046C17.3388 27.1839 18.7669 29.5453 21.0845 31.3198C22.8705 32.6867 24.9258 33.2982 27.0661 33.6847C29.0399 34.0431 31.0315 33.9869 33.0017 33.5441C34.2243 33.2701 35.4646 33.0908 36.6623 32.7043C38.303 32.1702 39.8126 31.3514 41.3541 30.603C41.5384 30.5116 41.7333 30.4413 41.9211 30.3605C42.7007 29.2395 43.2322 27.9991 43.6929 26.7271C44.5327 24.4008 45.0607 22.0113 45.2344 19.5375C45.369 17.6083 45.4505 15.6827 45.0288 13.7816C44.8694 13.0613 44.8127 12.3022 44.4193 11.6451C43.5937 11.6311 42.7786 11.4975 41.9601 11.4062C41.5065 11.357 41.0458 11.3324 40.5922 11.3078ZM40.3087 23.8491C39.4228 24.3551 38.4093 24.58 37.4136 24.7944C35.741 25.1598 34.04 25.3566 32.3355 25.5218C31.0208 25.6483 29.7097 25.6834 28.3914 25.6904C27.3496 25.6975 26.3397 25.4726 25.3227 25.2969C24.6671 25.1844 24.0044 25.1704 23.3453 25.0931C21.9137 24.9244 20.7514 24.2216 19.7202 23.2869C18.7917 22.4435 18.0263 21.4667 17.7109 20.2297C17.3459 18.7925 17.516 17.3764 18.0617 16.0095C18.2708 15.4859 18.7634 15.2223 19.2666 15.0326C20.6309 14.516 22.059 14.3052 23.5083 14.2033C24.7805 14.1154 26.0526 14.1154 27.6367 14.119C29.7558 14.2279 32.1761 13.8062 34.607 13.9433C36.2902 14.0381 37.977 14.1752 39.5043 14.9939C41.432 16.0306 42.5377 17.6399 42.5164 19.8221C42.5022 21.4913 41.8537 22.9671 40.3087 23.8491Z" fill="#3F4042"/>
<path d="M13.9761 25.4902C15.2447 29.3239 17.4418 32.4865 20.9252 34.6546C23.5652 36.2956 26.3789 37.3709 29.5894 37.0863C30.5922 36.9984 31.588 36.9 32.5625 36.6646C34.9226 36.0883 37.07 35.0552 38.973 33.5653C40.1246 32.6622 41.1594 31.6291 41.9142 30.3606C41.7051 30.5503 41.4606 30.6874 41.209 30.8103C40.0396 31.3796 38.8808 31.977 37.6724 32.4724C36.4003 32.9925 35.0643 33.2596 33.7284 33.5301C32.3322 33.8113 30.936 34.0467 29.4973 34.0291C27.7432 34.008 26.0422 33.6883 24.3909 33.1506C21.2406 32.1246 18.9514 30.0724 17.3922 27.1945C17.215 26.8712 17.0307 26.5549 16.8217 26.2492C16.2547 25.4199 15.9074 24.5063 15.7905 23.5118C15.7338 23.0269 15.6168 22.5525 15.4503 22.0992C14.9364 20.6901 14.8904 19.2529 15.1172 17.7911C15.181 17.3835 15.1845 16.9724 15.2199 16.5612C15.3759 14.8675 16.4 13.8484 17.8741 13.2124C18.8415 12.7978 19.8763 12.5729 20.9039 12.3374C22.7821 11.9087 24.6744 11.5433 26.5986 11.3676C27.1301 11.3184 27.6652 11.2586 28.1932 11.2622C29.2917 11.2692 30.3867 11.1989 31.4782 11.1392C33.452 11.0302 35.4222 11.0829 37.3925 11.0829C39.6002 11.0829 41.8043 11.2235 43.9943 11.5081C44.1431 11.5257 44.292 11.5327 44.4089 11.6382C44.3239 11.2586 43.9872 11.1849 43.6966 11.1357C43.1013 11.0373 42.4989 10.9775 41.8965 10.9424C40.9822 10.8897 40.0609 10.8932 39.1466 10.8756C36.379 10.8229 33.6079 10.7351 30.8403 10.6964C28.8488 10.6683 26.8502 10.7913 24.8586 10.9389C24.079 10.9986 23.2994 11.0619 22.5198 11.1251C21.315 11.2235 20.1208 11.3887 18.9337 11.6346C17.4489 11.9439 15.957 12.218 14.4687 12.5131C14.086 12.5904 13.8485 12.8294 13.7706 13.2124C13.6643 13.7571 13.558 14.3017 13.4587 14.8464C13.2213 16.1395 12.9485 17.4292 12.8918 18.7504C12.7961 21.0661 13.2426 23.2975 13.9655 25.4832L13.9761 25.4902Z" fill="#2D2D2F"/>
<path d="M37.4003 11.0865C35.4301 11.0865 33.4598 11.0338 31.486 11.1427C30.3945 11.2024 29.2996 11.2727 28.201 11.2657C27.673 11.2657 27.1379 11.3219 26.6064 11.3711C24.6822 11.5468 22.7899 11.9123 20.9118 12.341C19.8877 12.5729 18.8494 12.7978 17.882 13.2159C16.4043 13.852 15.3801 14.8675 15.2278 16.5647C15.1888 16.9759 15.1888 17.3835 15.125 17.7946C14.8982 19.2529 14.9478 20.6937 15.4581 22.1028C15.6247 22.5561 15.7416 23.0304 15.7983 23.5154C15.9152 24.5098 16.2625 25.4234 16.8295 26.2527C17.0386 26.5585 17.2264 26.8712 17.4 27.198C18.9592 30.0759 21.2484 32.1281 24.3987 33.1542C26.05 33.6918 27.751 34.0081 29.5051 34.0327C30.9438 34.0502 32.34 33.8148 33.7362 33.5337C35.0722 33.2631 36.4081 32.996 37.6803 32.476C38.8887 31.9805 40.0439 31.3831 41.2168 30.8139C41.472 30.6909 41.7129 30.5503 41.922 30.3641C41.7342 30.4449 41.5393 30.5187 41.355 30.6065C39.8135 31.355 38.304 32.1773 36.6632 32.7079C35.469 33.0944 34.2252 33.2736 33.0027 33.5477C31.0324 33.9905 29.0409 34.0467 27.0671 33.6883C24.9267 33.2982 22.8714 32.6903 21.0854 31.3234C18.7679 29.5488 17.3433 27.1875 16.1739 24.6082C15.8763 23.9511 15.9613 23.2237 15.731 22.5561C15.3376 21.4 15.0258 20.2263 15.125 18.9859C15.1817 18.2585 15.2809 17.5346 15.3341 16.8037C15.366 16.3504 15.3872 15.876 15.614 15.4368C16.2944 14.112 17.4248 13.4198 18.8281 13.0227C21.8296 12.1758 24.8771 11.5855 27.9884 11.3992C29.4165 11.3149 30.8517 11.2516 32.2833 11.2235C35.0544 11.1708 37.8256 11.1603 40.5931 11.3114C41.0467 11.336 41.5039 11.3571 41.961 11.4098C42.7796 11.5011 43.5946 11.6311 44.4203 11.6487C44.2998 11.5433 44.151 11.5398 44.0057 11.5187C41.8157 11.2306 39.6116 11.0935 37.4039 11.0935L37.4003 11.0865Z" fill="#2D2D2F"/>
<path d="M15.4764 10.2924C15.4693 10.6086 15.5791 10.7176 15.891 10.6649C18.0455 10.317 20.1965 9.95152 22.3546 9.63878C23.4177 9.48417 24.4985 9.42794 25.5722 9.34712C27.4433 9.20656 29.3214 9.14683 31.196 9.05898C33.7757 8.9395 36.352 8.97464 38.9317 9.01681C40.5512 9.04492 42.1813 9.10466 43.7901 9.34361C43.3507 7.95911 42.5356 6.94357 41.0686 6.52541C38.7156 5.85073 36.2882 5.70665 33.8679 5.55907C31.7984 5.43257 29.7218 5.58367 27.6523 5.61178C24.3815 5.65395 21.1533 5.98074 17.9817 6.78544C17.1844 6.98574 16.3481 7.07359 15.6536 7.57608C15.3949 8.46863 15.4976 9.38226 15.4728 10.2889L15.4764 10.2924Z" fill="#FE6364"/>
<path d="M17.3351 6.15964C18.6746 5.86798 20.0282 5.65363 21.3855 5.44631C23.7278 5.09491 26.0879 4.96841 28.4479 4.85948C30.3296 4.77514 32.2113 4.88759 34.093 4.95084C34.9505 4.97895 35.8045 5.05274 36.6586 5.13708C37.8776 5.26007 39.093 5.41468 40.3085 5.5447C40.4148 5.55524 40.5636 5.61849 40.6274 5.48496C40.677 5.37954 40.553 5.30575 40.5034 5.22141C39.7132 3.92476 38.5969 2.97599 37.222 2.35051C34.0575 0.909781 30.7407 0.393228 27.2785 0.864099C23.944 1.3174 20.9531 2.5508 18.3734 4.70837C17.895 5.10897 17.3741 5.4955 17.0977 6.15964C17.2181 6.15964 17.2784 6.17018 17.3351 6.15964Z" fill="#3F4042"/>
<path d="M6.37537 17.2007C5.1351 18.5501 4.11098 20.0505 3.35619 21.7267C3.20736 22.0605 3.17901 22.2854 3.56172 22.4646C4.46889 22.8898 5.26267 23.5012 6.12732 24.0037C6.17338 23.9124 6.22654 23.8245 6.26906 23.7297C7.21876 21.6072 8.26413 19.541 9.60008 17.6259C10.408 16.4698 11.4003 15.4859 12.4244 14.5301C12.9878 14.0065 13.0835 13.4162 12.761 12.745C12.6334 12.4815 12.6157 12.2179 12.7043 11.9333C12.8142 11.5819 12.9134 11.227 12.8886 10.8545C12.2968 11.3429 11.783 11.9087 11.2054 12.4147C9.50086 13.9152 7.90622 15.5316 6.37183 17.2007H6.37537Z" fill="#FE6364"/>
<path d="M14.178 11.8173C15.9214 11.487 17.6826 11.2656 19.4367 11.0056C22.4843 10.5488 25.5566 10.3415 28.6289 10.1658C31.2654 10.0147 33.9019 10.0674 36.5383 10.1517C38.7744 10.2255 41.0069 10.3696 43.2465 10.3274C44.2458 10.3098 44.2458 10.2993 43.8241 9.37864C43.817 9.3681 43.8028 9.36107 43.7886 9.35053C43.6859 9.45946 43.5512 9.47001 43.4166 9.45244C41.9318 9.23808 40.4293 9.26971 38.9409 9.15375C38.7496 9.13969 38.5547 9.13618 38.3633 9.13618C36.7474 9.13618 35.1315 9.13618 33.5156 9.13618C31.4568 9.13618 29.4015 9.30485 27.3461 9.37864C23.6289 9.51217 19.9789 10.1552 16.3183 10.721C16.29 10.7245 16.2616 10.7315 16.2297 10.735C15.4466 10.858 15.3438 10.7702 15.3403 9.98656C15.3403 9.52974 15.3332 9.07644 15.3403 8.61963C15.3474 8.24363 15.4218 7.88872 15.6521 7.58301C15.3367 7.70248 15.1064 7.94143 14.8973 8.1839C14.1213 9.08698 13.7208 10.1412 13.7031 11.3289C13.7031 11.5995 13.7244 11.9017 14.1709 11.8173H14.178Z" fill="#B44647"/>
<path d="M15.3404 9.98988C15.3404 10.7735 15.4502 10.8613 16.2298 10.7384C16.2582 10.7348 16.2901 10.7278 16.3184 10.7243C19.979 10.1586 23.629 9.5155 27.3462 9.38197C29.4016 9.30817 31.4569 9.1395 33.5157 9.1395C35.1316 9.1395 36.7475 9.1395 38.3634 9.1395C38.5548 9.1395 38.7497 9.1395 38.941 9.15707C40.4329 9.27303 41.9319 9.24141 43.4167 9.45576C43.5513 9.47333 43.686 9.46279 43.7887 9.35385C42.1764 9.1149 40.5499 9.05517 38.9304 9.02705C36.3542 8.98489 33.7744 8.94975 31.1946 9.06922C29.3201 9.15707 27.4419 9.21329 25.5709 9.35737C24.4972 9.43819 23.4164 9.49441 22.3533 9.64903C20.1952 9.95825 18.0442 10.3272 15.8897 10.6751C15.5778 10.7243 15.4644 10.6189 15.475 10.3026C15.4999 9.39602 15.3971 8.48239 15.6558 7.58984C15.4219 7.89907 15.351 8.25398 15.3439 8.62646C15.3368 9.08328 15.3404 9.53658 15.3439 9.99339L15.3404 9.98988Z" fill="#B44647"/>
<path d="M6.12668 24.0036C5.94241 24.1301 5.81129 23.9896 5.69435 23.8982C5.03878 23.3887 4.30524 23.0056 3.58589 22.5945C3.0756 22.3029 3.04371 22.1834 3.29176 21.6352C4.14932 19.7377 5.37188 18.0966 6.8106 16.5891C7.76738 15.5842 8.73834 14.5967 9.73056 13.6304C10.6484 12.7378 11.6512 11.9261 12.5478 11.009C12.6363 10.9176 12.732 10.8052 12.8915 10.8579C12.973 10.524 12.7427 10.6997 12.6434 10.7243C12.0481 10.8754 11.5166 11.1636 11.0204 11.522C9.72701 12.4567 8.52218 13.5074 7.26418 14.4878C4.75529 16.4416 2.80983 18.8662 1.24708 21.6071C0.871456 22.2677 0.935242 22.5559 1.56955 22.974C2.4342 23.5433 3.3272 24.0669 4.1883 24.6396C5.36479 25.4233 5.65892 25.0965 6.12668 24.0106V24.0036Z" fill="#B44647"/>
<path d="M12.5512 11.0057C11.6511 11.9229 10.6518 12.7311 9.73404 13.6271C8.74182 14.5935 7.77086 15.5809 6.81408 16.5859C5.37536 18.0934 4.15281 19.7344 3.29524 21.632C3.04719 22.1801 3.07908 22.2961 3.58937 22.5913C4.30518 23.0024 5.04226 23.3854 5.69783 23.8949C5.81477 23.9863 5.94589 24.1304 6.13016 24.0004C5.26905 23.4979 4.47173 22.8864 3.56456 22.4612C3.18185 22.282 3.2102 22.0571 3.35903 21.7233C4.11383 20.0472 5.13439 18.5467 6.37821 17.1973C7.91261 15.5282 9.50725 13.9118 11.2117 12.4113C11.7894 11.9053 12.3032 11.3396 12.895 10.8511C12.7355 10.8019 12.6434 10.9108 12.5512 11.0022V11.0057Z" fill="#B44647"/>
<path d="M9.19204 24.1093C9.35151 23.1113 9.80509 22.2258 10.2197 21.3192C10.7725 20.1069 11.2863 18.877 11.9703 17.7279C12.0163 17.6506 12.0163 17.4679 12.197 17.5768C12.3034 16.9513 12.4593 16.3258 12.2467 15.6406C11.2615 16.5297 10.4536 17.5206 9.65626 18.5186C9.27355 18.9965 9.02904 19.5482 8.92627 20.1526C8.64987 21.7619 8.6038 23.3924 8.54001 25.0194C8.51875 25.5289 8.8554 25.8452 9.42947 25.9436C9.83699 26.0138 10.248 26.0736 10.652 26.1474C11.323 26.2739 11.7411 25.9998 11.9065 25.3251C11.0914 25.0721 10.2835 24.798 9.46136 24.5731C9.16015 24.4923 9.14952 24.3693 9.19204 24.1093Z" fill="#B44647"/>
<path d="M12.2031 17.5732C11.5228 18.6099 11.0444 19.7484 10.5483 20.8729C10.201 21.6635 9.76156 22.419 9.51705 23.2588C9.20521 24.3482 9.19104 24.3411 10.247 24.6679C10.6865 24.8015 11.1152 24.9631 11.5617 25.0791C11.707 25.1177 11.8488 25.1669 11.9126 25.3215C11.9444 25.2548 11.9799 25.1915 12.0011 25.1248C12.1996 24.4747 12.6709 23.8527 12.5221 23.1604C12.1287 21.3086 12.0366 19.4497 12.1996 17.5732H12.2031Z" fill="#FE6364"/>
<path d="M11.5571 25.0826C11.1106 24.9701 10.6818 24.8085 10.2424 24.6714C9.18641 24.3446 9.20059 24.3481 9.51243 23.2623C9.75339 22.4225 10.1928 21.667 10.5436 20.8764C11.0397 19.7519 11.5217 18.6134 12.1985 17.5767C12.0178 17.4678 12.0142 17.6505 11.9717 17.7278C11.2878 18.8769 10.774 20.1068 10.2212 21.3191C9.80655 22.2257 9.35296 23.1112 9.1935 24.1092C9.15098 24.3692 9.16515 24.4922 9.46282 24.573C10.2849 24.7979 11.0964 25.0685 11.9079 25.325C11.8406 25.1704 11.7024 25.1212 11.5571 25.0826Z" fill="#FE6364"/>
<path d="M39.4987 14.9973C37.9749 14.1786 36.2882 14.0415 34.6014 13.9466C32.1705 13.8096 29.7537 14.2313 27.631 14.1223C26.047 14.1153 24.7749 14.1153 23.5027 14.2067C22.0534 14.3086 20.6253 14.5194 19.261 15.036C18.7578 15.2257 18.2652 15.4893 18.0561 16.0129C17.5104 17.3798 17.3403 18.7959 17.7053 20.2331C18.0207 21.47 18.7826 22.4504 19.7146 23.2903C20.7458 24.225 21.9081 24.9278 23.3397 25.0965C23.9988 25.1738 24.6615 25.1878 25.3171 25.3003C26.3341 25.476 27.344 25.7009 28.3858 25.6938C29.7041 25.6868 31.0152 25.6517 32.3299 25.5252C34.0344 25.3635 35.7318 25.1632 37.408 24.7978C38.4037 24.5799 39.4172 24.3585 40.3031 23.8525C41.8446 22.9705 42.4931 21.4946 42.5108 19.8255C42.5285 17.6469 41.4229 16.0339 39.4987 14.9973ZM38.751 23.5187C36.6673 24.1231 34.5341 24.4218 32.3902 24.7029C29.1584 25.1316 25.9762 24.731 22.8011 24.1828C20.3666 23.7611 17.7053 20.7989 18.2546 17.7698C18.2723 17.6679 18.3042 17.5731 18.3325 17.4712C18.4601 16.2378 18.7471 15.9601 19.8917 15.5982C22.0923 14.9024 24.3567 14.7689 26.6388 14.6916C29.0379 14.6108 31.4369 14.5827 33.836 14.5897C35.544 14.5967 37.2343 14.7092 38.8006 15.5068C39.6156 15.9215 40.3527 16.417 40.8417 17.2111C42.2131 19.0489 41.8092 22.6297 38.751 23.5187Z" fill="#010101"/>
<path d="M36.6905 16.1114C35.8896 15.9849 35.0817 15.8655 34.2737 15.8092C32.4239 15.6757 30.5671 15.63 28.7208 15.7354C26.7754 15.8444 24.8264 15.9603 22.888 16.2098C21.669 16.368 20.45 16.4558 19.2948 16.9232C18.9475 17.0637 18.6427 17.2675 18.3344 17.4713C18.3096 17.5697 18.2742 17.6681 18.2565 17.77C17.7072 20.7991 20.3649 23.7613 22.803 24.183C25.9745 24.7347 29.1567 25.1318 32.392 24.7031C34.536 24.4184 36.6692 24.1233 38.7529 23.5189C41.8146 22.6333 42.2186 19.0491 40.8436 17.2113C39.4581 16.8564 38.1115 16.3328 36.6905 16.1114ZM27.5869 19.4602C27.4841 20.0365 27.3743 20.6128 27.1723 21.1645C27.0305 21.5546 26.7789 21.8146 26.3501 21.8673C25.9178 21.9235 25.6662 21.6776 25.4536 21.3508C25.2268 21.0064 24.9929 20.6655 25.0106 20.3036C25.0106 19.8503 25.124 19.4989 25.3012 19.1756C25.4465 18.9085 25.3756 18.8102 25.1099 18.7083C24.0928 18.3147 23.0864 17.9 22.0765 17.4959C21.9808 17.4573 21.8887 17.4116 21.7895 17.38C21.4635 17.271 21.3359 16.9513 21.4138 16.7264C21.4883 16.5155 21.832 16.5015 22.0907 16.5999C23.2317 17.0426 24.3692 17.4889 25.5068 17.9387C26.0277 18.1425 26.5415 18.3639 27.0624 18.5712C27.477 18.7328 27.6719 19.0105 27.5904 19.4602H27.5869Z" fill="#FDE0C2"/>
<path d="M19.1584 16.8458C20.2321 16.3855 21.3767 16.2449 22.5284 16.1044C24.5589 15.8584 26.5965 15.7143 28.6341 15.6054C30.1685 15.5211 31.71 15.5492 33.2515 15.6335C34.7788 15.7178 36.2919 15.8549 37.7838 16.2063C38.6768 16.4171 39.545 16.7263 40.4309 16.9653C40.5939 17.0075 40.7179 17.1129 40.849 17.2113C40.36 16.4171 39.6229 15.9216 38.8079 15.507C37.2416 14.7093 35.5513 14.5969 33.8433 14.5899C31.4442 14.5793 29.0452 14.6109 26.6461 14.6918C24.364 14.7691 22.0996 14.9061 19.899 15.5984C18.7509 15.9603 18.4674 16.2379 18.3398 17.4713C18.5029 17.1199 18.836 16.9829 19.1655 16.8423L19.1584 16.8458Z" fill="#B39F8A"/>
<path d="M22.8849 16.2135C24.8233 15.9605 26.7687 15.8481 28.7177 15.7392C30.564 15.6337 32.4244 15.6829 34.2706 15.8129C35.0786 15.8692 35.8865 15.9886 36.6874 16.1151C38.1084 16.3365 39.4514 16.8601 40.8405 17.215C40.7094 17.1166 40.5854 17.0112 40.4224 16.969C39.5365 16.7301 38.6718 16.4209 37.7753 16.21C36.2869 15.8586 34.7703 15.7216 33.2429 15.6372C31.7015 15.5494 30.16 15.5248 28.6256 15.6091C26.588 15.7216 24.5504 15.8621 22.5199 16.1081C21.3682 16.2487 20.2272 16.3892 19.1499 16.8496C18.8239 16.9901 18.4908 17.1272 18.3242 17.4786C18.6325 17.2783 18.9373 17.0745 19.2845 16.9304C20.4398 16.463 21.6588 16.3752 22.8778 16.2171L22.8849 16.2135Z" fill="#B39F8A"/>
<path d="M27.0553 18.5712C26.5343 18.3674 26.0205 18.146 25.4996 17.9387C24.3621 17.4889 23.221 17.0461 22.0835 16.5998C21.8284 16.5015 21.4847 16.5155 21.4067 16.7263C21.3252 16.9512 21.4528 17.271 21.7823 17.3799C21.8815 17.4116 21.9737 17.4573 22.0694 17.4959C23.0793 17.9035 24.0857 18.3182 25.1027 18.7082C25.3685 18.8101 25.4429 18.912 25.2941 19.1756C25.1169 19.4989 25.007 19.8503 25.0035 20.3036C24.9858 20.6655 25.2197 21.0064 25.4464 21.3507C25.6626 21.6775 25.9107 21.9235 26.343 21.8673C26.7718 21.8111 27.0234 21.551 27.1651 21.1645C27.3671 20.6093 27.477 20.0365 27.5797 19.4602C27.6577 19.0104 27.4628 18.7328 27.0517 18.5712H27.0553Z" fill="#010001"/>
<path d="M31.1468 18.5712C31.6677 18.3674 32.1815 18.146 32.7025 17.9387C33.84 17.4889 34.981 17.0461 36.1185 16.5998C36.3737 16.5015 36.7174 16.5155 36.7954 16.7263C36.8769 16.9512 36.7493 17.271 36.4197 17.3799C36.3205 17.4116 36.2284 17.4573 36.1327 17.4959C35.1228 17.9035 34.1164 18.3182 33.0994 18.7082C32.8336 18.8101 32.7592 18.912 32.908 19.1756C33.0852 19.4989 33.195 19.8503 33.1986 20.3036C33.2163 20.6655 32.9824 21.0064 32.7556 21.3507C32.5395 21.6775 32.2914 21.9235 31.8591 21.8673C31.4303 21.8111 31.1787 21.551 31.0369 21.1645C30.835 20.6093 30.7251 20.0365 30.6223 19.4602C30.5444 19.0104 30.7393 18.7328 31.1503 18.5712H31.1468Z" fill="#010001"/>
</g>
<defs>
<clipPath id="clip0_1019_739">
<rect width="46" height="38" fill="white"/>
</clipPath>
</defs>
</svg>
