<svg width="68" height="67" viewBox="0 0 68 67" fill="none" xmlns="http://www.w3.org/2000/svg">
<g clip-path="url(#clip0_1081_1094)">
<path d="M27.635 41.4121C27.8128 41.309 27.8519 41.1447 27.8103 40.9972C29.7836 39.2415 25.4684 34.3719 23.1487 37.2223C22.1849 38.4156 22.6297 40.1668 23.6955 41.0581C24.7934 41.9852 26.356 42.1449 27.6318 41.4091L27.635 41.4121ZM22.0282 20.2407C23.2324 21.2899 25.3007 21.0358 26.3054 19.7468C27.3372 18.422 27.0164 16.3117 25.5941 15.4862C25.4389 15.3978 25.303 15.4425 25.2062 15.5475C24.2226 15.0292 22.9255 15.1142 22.0321 15.9294C20.8106 17.0428 20.8206 19.1822 22.0344 20.2403L22.0282 20.2407ZM12.66 38.4664C14.3977 39.7585 17.0511 38.8118 18.9702 38.3473C19.3479 38.2585 19.3519 37.7342 19.1006 37.5511C19.1031 37.5291 19.112 37.5131 19.1177 37.494C19.6107 32.3954 18.9213 26.8079 16.881 22.1598C16.8275 22.0317 16.7292 21.9714 16.6225 21.9459C16.5643 21.868 16.4754 21.8103 16.3536 21.8012C14.1833 21.6397 11.7112 22.0495 10.4445 24.1105C9.1509 26.2136 9.81465 29.4411 10.1514 31.6753C10.4723 33.7856 10.798 37.0717 12.6631 38.4631L12.66 38.4664ZM20.1516 39.6972C18.2032 39.8919 16.2242 40.6653 14.2712 40.5825C9.80657 40.3939 9.22141 35.1876 8.88778 31.7304C8.64237 29.198 8.07024 25.2357 9.3449 22.9028C10.8187 20.2255 15.5381 20.0543 18.1375 19.4037C18.4409 19.3313 18.4832 19.0608 18.3777 18.8543L18.5086 18.7443C18.6502 18.9052 18.9071 18.9539 19.0601 18.7429C20.5111 16.8093 22.3953 13.7637 25.2215 14.6452C27.7145 15.4259 28.4323 18.3572 27.5581 20.6344C27.3927 21.0706 27.8229 21.4125 28.1585 21.2667C31.2553 22.4643 31.8039 26.4778 28.775 28.3711C28.6862 28.4288 28.6382 28.4938 28.5966 28.5646C28.2472 28.5521 27.9377 29.074 28.2718 29.3213C29.3505 30.1153 30.3576 31.2499 30.3636 32.6877C30.3779 34.0907 29.3213 35.3076 27.9122 35.3985C27.598 35.4185 27.4489 35.6573 27.4524 35.891C27.3154 36.0075 27.2429 36.2017 27.3628 36.3669C28.6241 38.1181 30.3734 41.4965 27.1671 42.5102C24.6498 43.3092 22.5849 41.236 21.0131 39.6356C20.7725 39.3895 20.464 39.4996 20.2924 39.7178C20.2485 39.7077 20.2046 39.6975 20.1518 39.7035L20.1516 39.6972ZM29.058 33.0257C30.4395 31.0584 25.7412 28.421 24.2046 30.7492C23.3558 32.0423 23.9999 33.7891 25.2504 34.4865C26.5961 35.2474 28.2181 34.6366 29.0523 33.3786C29.142 33.2427 29.12 33.1254 29.058 33.0257ZM25.7237 27.9072C27.7776 28.5866 28.9659 27.1754 29.4425 25.2783C29.5019 25.0599 29.3855 24.9101 29.2404 24.8493C29.334 23.4062 28.42 22.0357 26.9384 21.7624C25.3376 21.4643 23.6849 22.5385 23.3313 24.1545C22.9415 25.9254 24.1256 27.3688 25.7237 27.9072Z" fill="#D3A740"/>
<path d="M31.0517 34.1514C40.8228 34.7706 51.8234 35.1151 58.3067 43.1847C49.0058 39.9949 39.4411 37.0656 29.4133 38.0728C29.1062 37.456 28.7157 36.8654 28.3179 36.347C29.545 36.2097 30.5662 35.2879 31.0517 34.1514Z" fill="#D8D8D8"/>
<path d="M30.1179 29.7559C29.9058 29.524 29.6877 29.3048 29.4453 29.1056C30.3026 28.5607 30.9143 27.8136 31.2961 26.9821C31.2993 26.9851 31.3057 26.991 31.3087 26.9877C41.499 27.2164 54.463 26.5669 59.8781 36.662C51.242 30.8381 40.7514 28.3419 30.2136 29.7227C30.1795 29.7277 30.1521 29.751 30.1211 29.7589L30.1179 29.7559Z" fill="#D8D8D8"/>
<path d="M28.6286 20.5084C28.9999 19.5216 29.0383 18.4464 28.8106 17.4354C38.0396 18.0587 48.2526 17.9867 54.7266 25.1678C46.9332 21.7289 38.4472 20.2611 29.8172 20.8879C29.7363 20.8922 29.6715 20.9175 29.61 20.9457C29.3119 20.762 28.9838 20.6174 28.6224 20.5088L28.6286 20.5084Z" fill="#D8D8D8"/>
<path d="M27.0714 40.8246C28.0377 39.834 27.1996 38.5031 26.3478 37.7969C25.0908 36.7536 23.02 37.3634 23.4759 39.2887C23.8333 40.8137 25.7153 41.4742 27.0714 40.8246ZM27.8116 40.9971C27.85 41.1417 27.8141 41.309 27.6363 41.4121C26.3605 42.1478 24.7979 41.9881 23.7 41.061C22.6342 40.1697 22.1894 38.4185 23.1532 37.2253C25.4729 34.3748 29.7851 39.2477 27.8148 41.0001L27.8116 40.9971Z" fill="#1D1D1B"/>
<path d="M25.1585 30.9103C24.0939 31.7315 24.7658 33.3582 25.7269 33.8496C26.6658 34.3266 27.816 33.8939 28.3874 33.0429C28.4201 32.9881 28.4628 32.9546 28.5025 32.9244C28.9 31.4277 26.3298 30.0054 25.1554 30.9136L25.1585 30.9103ZM25.2523 34.4864C24.0019 33.789 23.3578 32.0422 24.2066 30.7491C25.74 28.4179 30.4415 31.0583 29.06 33.0257C29.125 33.122 29.1408 33.2397 29.0543 33.3785C28.2201 34.6365 26.598 35.2473 25.2523 34.4864Z" fill="#1D1D1B"/>
<path d="M27.867 26.8162C28.2247 26.4602 28.4119 25.9105 28.5663 25.4156C28.5338 25.3675 28.5041 25.3098 28.5145 25.2344C28.5961 24.1444 28.0865 22.9707 26.9655 22.6656C25.8538 22.3632 24.6022 22.9574 24.2321 24.097C23.8079 25.4174 24.6088 26.5319 25.7848 27.0212C26.4564 27.3003 27.2877 27.3869 27.87 26.813L27.867 26.8162ZM29.4443 25.2782C28.9677 27.1754 27.7764 28.5898 25.7255 27.9071C24.1243 27.372 22.9433 25.9253 23.3331 24.1545C23.6867 22.5384 25.3332 21.4646 26.9402 21.7624C28.4218 22.0356 29.339 23.4091 29.2422 24.8492C29.3935 24.9097 29.5037 25.0598 29.4443 25.2782Z" fill="#1D1D1B"/>
<path d="M22.0312 15.9263C22.9245 15.1111 24.2216 15.0262 25.2053 15.5444C25.302 15.4394 25.4411 15.3977 25.5931 15.4832C27.0216 16.3083 27.3362 18.4189 26.3044 19.7437C25.2997 21.0328 23.2344 21.2836 22.0272 20.2376C20.8134 19.1795 20.8064 17.0368 22.0249 15.9266L22.0312 15.9263ZM25.6994 16.8313C24.9219 15.9994 23.4729 15.6652 22.5603 16.5718C21.7445 17.3735 21.7365 18.8712 22.6049 19.6109C23.5208 20.3823 25.1455 20.0896 25.7704 19.033C26.1928 18.3179 26.1058 17.5458 25.763 16.8778C25.7408 16.8634 25.7155 16.8523 25.6931 16.8316L25.6994 16.8313Z" fill="#1D1D1B"/>
<path d="M18.9708 38.3472C17.0548 38.8084 14.4013 39.7551 12.6607 38.4663C10.7956 37.0749 10.4699 33.7888 10.149 31.6785C9.81545 29.4472 9.15153 26.2135 10.4421 24.1138C11.7088 22.0527 14.1809 21.6429 16.3512 21.8044C16.473 21.8135 16.5589 21.8744 16.6202 21.9492C16.7268 21.9746 16.8219 22.0319 16.8786 22.1631C18.9189 26.8111 19.6051 32.3957 19.1153 37.4973C19.1128 37.5192 19.1039 37.5353 19.0982 37.5543C19.3527 37.7404 19.3455 38.2617 18.9678 38.3505L18.9708 38.3472ZM18.1644 37.5918C18.1644 37.5918 18.1573 37.561 18.1537 37.5455C18.3308 32.2954 17.5899 27.5342 16.2248 22.5193C12.9619 22.7343 10.8246 23.8656 10.7501 27.8812C10.7198 29.3583 10.9536 30.9211 11.2185 32.3669C11.6241 34.6099 11.772 35.6626 13.7135 37.0031C15.6742 38.3613 15.7226 37.975 17.8232 37.6475C17.935 37.6352 18.0465 37.6106 18.1614 37.5951L18.1644 37.5918Z" fill="#1D1D1B"/>
<path d="M58.3032 43.1847C51.8168 35.1184 40.8193 34.7706 31.0482 34.1514C30.5627 35.2879 29.5382 36.2068 28.3144 36.3471C28.7152 36.8622 29.1027 37.456 29.4097 38.0728C39.4376 37.0656 49.0023 39.9949 58.3032 43.1847ZM54.723 25.1679C48.249 17.9868 38.036 18.0588 28.804 17.4388C29.0317 18.4498 28.9933 19.525 28.622 20.5118C28.9834 20.6204 29.3116 20.7651 29.6096 20.9488C29.668 20.9176 29.7359 20.8952 29.8168 20.8909C38.4436 20.2612 46.9329 21.7319 54.7262 25.1709L54.723 25.1679ZM30.2135 29.7165C40.7483 28.339 51.2419 30.8318 59.8779 36.6557C54.4629 26.5606 41.502 27.2131 31.3086 26.9814C31.3056 26.9847 31.3024 26.9818 31.296 26.9759C30.9142 27.8073 30.3025 28.5544 29.4452 29.0994C29.6876 29.2985 29.9056 29.5177 30.1178 29.7497C30.1487 29.7418 30.1761 29.7185 30.2103 29.7135L30.2135 29.7165ZM60.8132 38.5616C52.2363 32.1793 41.529 29.3984 30.7793 30.6689C31.2054 31.4197 31.435 32.2746 31.3204 33.1885C31.31 33.264 31.287 33.3338 31.2704 33.4096C41.783 33.3528 53.7846 34.6139 60.1062 43.9181C60.3336 44.2491 59.9757 44.8235 59.5697 44.6799C49.9946 41.3768 40.1431 38.1103 29.7957 39.0598C30.2213 40.4595 30.0499 41.9036 28.5209 42.9462C25.5609 44.9636 22.5311 42.5958 20.492 40.5524C20.4162 40.6282 20.315 40.6866 20.1814 40.7031C17.2696 40.993 13.8602 42.5416 11.2183 40.6708C8.77979 38.9451 8.33147 35.5096 7.99818 32.7324C7.63692 29.7352 6.94271 25.3084 8.48986 22.468C10.1758 19.3551 14.9294 19.1789 17.9117 18.6264C18.1319 18.5866 18.3004 18.7055 18.3794 18.8572C18.4849 19.0637 18.4394 19.3313 18.1392 19.4066C15.5398 20.0572 10.8266 20.2281 9.34661 22.9058C8.06875 25.2357 8.64089 29.198 8.8895 31.7333C9.2201 35.1938 9.80526 40.4001 14.2729 40.5855C16.226 40.6682 18.2049 39.8948 20.1534 39.7002C20.2062 39.6942 20.2501 39.7043 20.294 39.7145C20.4625 39.4996 20.7708 39.3833 21.0146 39.6323C22.5866 41.239 24.6515 43.3122 27.1687 42.5069C30.3749 41.4932 28.6226 38.118 27.3644 36.3636C27.2445 36.1984 27.3169 36.0042 27.4539 35.8877C27.4505 35.654 27.5996 35.4151 27.9138 35.3952C29.3229 35.3043 30.3827 34.0903 30.3651 32.6843C30.3561 31.2499 29.352 30.1119 28.2734 29.318C27.9393 29.0707 28.2487 28.5488 28.5981 28.5613C28.6397 28.4905 28.6878 28.4255 28.7765 28.3677C31.8117 26.4741 31.26 22.4639 28.16 21.2634C27.8246 21.4155 27.3942 21.0673 27.5596 20.631C28.4338 18.3539 27.7129 15.4196 25.223 14.6418C22.3937 13.7575 20.5127 16.8059 19.0617 18.7396C18.9024 18.9509 18.6455 18.9022 18.5101 18.741C18.395 18.6349 18.3467 18.469 18.4325 18.3053C19.877 15.5828 22.8253 12.2558 26.1435 13.9063C27.3601 14.5057 28.2294 15.6166 28.6515 16.8917C28.6732 16.8874 28.6885 16.8772 28.707 16.87C38.844 16.3092 50.6065 17.4896 56.904 26.2679C57.2023 26.6824 56.6527 27.1953 56.2387 26.9897C48.3014 23.0843 39.5895 21.3416 30.6756 21.8463C31.6719 23.0377 31.9872 24.7303 31.5535 26.2665C42.5943 25.1551 56.9176 26.42 61.6459 38.0305C61.8565 38.5402 61.1663 38.8204 60.8132 38.5616Z" fill="#1D1D1B"/>
</g>
<defs>
<clipPath id="clip0_1081_1094">
<rect width="53" height="42" fill="white" transform="translate(29) rotate(42.6677)"/>
</clipPath>
</defs>
</svg>
