<svg width="122" height="131" viewBox="0 0 122 131" fill="none" xmlns="http://www.w3.org/2000/svg">
<path d="M86.2602 48.8181C83.5058 46.1306 80.6708 43.4398 77.4818 41.259C74.3777 39.1312 71.0372 37.0798 67.3525 36.1456C62.8345 34.9976 61.4751 37.5323 59.4999 40.6375C60.0776 40.8451 59.7778 41.778 59.1461 41.6191C39.9304 36.7249 21.1936 50.1464 16.24 68.8532C10.8966 89.0144 22.3558 106.891 41.8017 113.379C58.2912 118.881 75.6897 112.736 84.5279 97.4936C94.6302 80.0577 89.8369 60.0608 73.5084 48.4689C72.9613 48.08 73.5091 47.1842 74.0647 47.5784C77.5197 50.0316 80.5074 52.912 82.9683 56.0883C84.2707 54.4376 88.0234 50.5445 86.2602 48.8181Z" fill="#4D4D4D" stroke="black" stroke-width="0.35" stroke-miterlimit="10"/>
<path d="M100.249 44.0198C102.067 43.694 104.024 43.3363 105.674 42.4689C106.871 41.8369 105.299 41.3146 103.998 40.3015C103.592 39.9889 103.739 39.3381 104.297 39.3326C106.637 39.2855 108.986 38.9606 111.199 38.1737C111.822 37.9499 109.437 35.9173 109.349 35.8505C106.189 33.2277 102.661 31.5897 98.8347 30.1076C98.4531 29.9635 98.2622 29.3254 98.7423 29.1419C102.53 27.6646 94.5802 26.707 93.3856 26.7507C89.7054 26.9041 87.1883 29.1402 86.3367 32.1454C86.6537 32.1666 86.9791 32.193 87.2886 32.2449C87.2918 32.1643 87.3225 32.0774 87.3755 31.9926C90.7358 27.4063 98.108 31.8938 100.024 35.791C100.148 36.0454 100.064 36.3698 99.8039 36.5023C95.6184 38.6158 88.7591 38.4222 86.9677 33.306C86.9613 33.2784 86.9634 33.2562 86.9571 33.2286C86.673 33.1926 86.3836 33.1652 86.0974 33.1514C85.928 34.2719 85.9633 35.4612 86.2518 36.6791C88.2936 42.4705 94.4082 45.064 100.245 44.006L100.249 44.0198Z" fill="#FCCC3A" stroke="black" stroke-width="0.35" stroke-miterlimit="10"/>
<path d="M89.8598 34.1471C89.3021 33.8695 88.7467 33.6639 88.1785 33.4976C89.8943 37.2815 95.3798 37.2771 98.8181 35.7934C96.936 32.7665 91.0522 28.973 88.3394 32.4662C89.0358 32.6537 89.7344 32.9132 90.4161 33.2565C91.0161 33.5606 90.4598 34.4511 89.8598 34.1471Z" fill="#FF6F00" stroke="black" stroke-width="0.35" stroke-miterlimit="10"/>
<path d="M83.6219 56.968C83.2362 57.5288 82.3456 56.9725 82.7314 56.4117C82.7896 56.3184 82.8808 56.2103 82.9634 56.0968C80.5025 52.9205 77.5148 50.0401 74.0598 47.5869C73.5042 47.1927 72.9564 48.0886 73.5034 48.4775C89.832 60.0693 94.6306 80.0577 84.523 97.5021C75.6848 112.745 58.2863 118.89 41.7968 113.388C22.3508 106.9 10.8948 89.0368 16.235 68.8617C21.194 50.1464 39.917 36.7282 59.138 41.6138C59.7697 41.7727 60.0642 40.8483 59.4918 40.6322C59.3699 40.8273 59.2481 41.0223 59.1209 41.2259C58.7522 41.7973 57.8616 41.241 58.2304 40.6696C58.294 40.5678 58.3523 40.4745 58.4158 40.3727C39.0869 36.0563 21.605 49.1298 15.5807 67.38C12.6888 76.1616 13.2049 85.8107 16.9835 94.2199C21.3262 103.878 30.7117 110.106 40.2281 113.917C57.604 120.869 75.7687 113.611 85.4104 98.0447C93.8313 84.4516 92.2708 68.7735 83.6134 56.9627L83.6219 56.968Z" fill="black"/>
<path d="M59.5002 40.6375C61.4754 37.5324 62.8348 34.9976 67.3528 36.1457C71.0375 37.0798 74.3727 39.1398 77.4821 41.2591C80.6711 43.4399 83.5061 46.1306 86.2605 48.8182C88.0237 50.5445 84.2657 54.4461 82.9687 56.0884C83.1881 56.3787 83.4076 56.6691 83.6271 56.9595C85.2611 54.6081 86.9906 52.4814 88.243 49.8915C88.3478 49.6859 88.3626 49.4357 88.1909 49.2577C84.3985 45.4383 80.3464 41.7514 75.8185 38.9582C75.4592 39.1936 74.9196 38.8683 75.0043 38.4496C71.2801 36.2763 67.2412 34.72 62.7424 34.2207C62.5643 34.2037 62.3736 34.3204 62.2835 34.4646C60.996 36.4311 59.7138 38.3892 58.4348 40.3611C58.7783 40.4342 59.1218 40.5072 59.4599 40.5888C59.4769 40.5994 59.4938 40.61 59.5108 40.6206L59.5002 40.6375Z" fill="black"/>
<path d="M82.7314 56.4117C82.3457 56.9725 83.2415 57.5203 83.6219 56.968C83.4077 56.6691 83.1967 56.384 82.9635 56.0968C82.867 56.2134 82.7897 56.3184 82.7314 56.4117Z" fill="black"/>
<path d="M59.1213 41.2259C59.2484 41.0223 59.3703 40.8273 59.4921 40.6322C59.4752 40.6216 59.4582 40.611 59.4413 40.6004C59.0946 40.5136 58.7596 40.4458 58.4162 40.3727C58.3526 40.4745 58.2943 40.5678 58.2307 40.6696C57.862 41.241 58.7525 41.7973 59.1213 41.2259Z" fill="black"/>
<path d="M87.6385 32.7367C87.4255 32.6625 87.259 32.476 87.2802 32.2534C86.9568 32.2047 86.6452 32.1751 86.3283 32.1539C86.2382 32.4868 86.1567 32.825 86.1059 33.1705C86.3921 33.1842 86.673 33.2064 86.9656 33.2477C86.887 32.8449 87.3025 32.6328 87.647 32.742L87.6385 32.7367Z" fill="black"/>
<path d="M75.968 38.8151C78.0524 35.7427 81.3952 33.4683 84.9493 33.1771C84.9831 32.821 85.0339 32.4754 85.1017 32.1404C81.149 32.3713 77.4226 34.8069 75.0775 38.2587C75.0351 38.3266 75.0012 38.3997 74.9949 38.4665C75.2663 38.6361 75.5377 38.8056 75.8091 38.9751C75.8663 38.9402 75.9204 38.8914 75.9627 38.8235L75.968 38.8151Z" fill="black"/>
<path d="M88.1777 33.4976C88.7374 33.6586 89.3067 33.861 89.859 34.147C90.459 34.4511 91.0153 33.5606 90.4153 33.2565C89.7251 32.9079 89.035 32.6537 88.3386 32.4662C88.3174 32.5001 88.2845 32.515 88.2633 32.5489C88.1192 32.7418 87.9072 32.7981 87.7228 32.7536C87.8383 32.814 87.9412 32.9136 87.9984 33.0673C88.0557 33.221 88.1236 33.3577 88.1915 33.4944L88.1777 33.4976Z" fill="black"/>
<path d="M75.8142 38.9666C75.5428 38.7971 75.2714 38.6275 75 38.458C74.9291 38.8735 75.4602 39.1935 75.8142 38.9666Z" fill="black"/>
<path d="M105.691 40.3457C105.691 40.3457 105.718 40.3393 105.732 40.3362C104.636 39.3919 105.619 40.3478 105.691 40.3457Z" fill="black"/>
<path d="M86.2543 36.6929C86.0358 36.0612 85.0076 36.2914 85.2346 36.9284C85.3874 37.5898 86.4071 37.3543 86.2543 36.6929Z" fill="black"/>
<path d="M86.2545 36.6929C85.9744 35.4803 85.9306 34.2857 86.1 33.1652C85.711 33.1462 85.3283 33.1548 84.9489 33.1771C84.8346 34.3792 84.9303 35.6416 85.2263 36.9231C84.9993 36.2861 86.0275 36.0559 86.246 36.6876L86.2545 36.6929Z" fill="black"/>
<path d="M93.3704 26.7538C94.565 26.7101 102.515 27.6677 98.7271 29.1451C98.2555 29.3339 98.4379 29.9667 98.8195 30.1107C102.637 31.5876 106.165 33.2256 109.334 35.8537C109.425 35.9342 111.816 37.9583 111.184 38.1768C108.971 38.9638 106.619 39.2749 104.282 39.3358C103.732 39.3465 103.582 39.9836 103.983 40.3047C105.292 41.3231 106.856 41.84 105.659 42.472C104.009 43.3395 102.052 43.6971 100.233 44.0229C94.3962 45.081 88.2816 42.4874 86.2398 36.696C86.3926 37.3574 85.3729 37.593 85.2202 36.9315C88.4954 46.2408 99.6584 46.8119 107.385 42.7483C107.664 42.6041 107.787 42.1621 107.53 41.9311C107.165 41.6089 106.801 41.2867 106.436 40.9646C106.134 40.6933 105.9 40.5004 105.727 40.3446C105.718 40.3393 105.699 40.351 105.685 40.3542C105.613 40.3563 104.625 39.4089 105.727 40.3446C108.042 40.2816 110.373 39.5688 112.526 38.803C112.894 38.6672 113.076 38.2623 112.797 37.9348C111.315 36.2306 109.734 34.7597 107.916 33.4234C106.745 32.5619 105.429 31.8933 104.144 31.2322C103.797 31.051 99.6876 29.8159 101.441 29.3311C101.879 29.2155 101.997 28.6293 101.604 28.3718C98.065 26.0903 93.9997 24.9538 89.9922 26.5182C87.1506 27.6318 85.6161 29.6917 85.0919 32.1351C85.4937 32.1149 85.9018 32.1222 86.3131 32.1433C87.1647 29.138 89.687 26.8935 93.362 26.7485L93.3704 26.7538Z" fill="black"/>
<path d="M86.1011 33.1652C86.1519 32.8196 86.2249 32.4762 86.3234 32.1486C85.9122 32.1275 85.5041 32.1202 85.1023 32.1404C85.0293 32.4838 84.9785 32.8294 84.9499 33.1771C85.3347 33.1463 85.712 33.1462 86.1011 33.1652Z" fill="black"/>
<path d="M99.313 35.5707C99.1572 35.6502 98.9845 35.7192 98.8149 35.8019C98.9167 35.9598 99.0132 36.1262 99.0927 36.282C99.169 36.0467 99.2368 35.806 99.313 35.5707Z" fill="black"/>
<path d="M98.8117 35.8019C98.976 35.7276 99.1488 35.6587 99.3099 35.5707C99.2336 35.806 99.1658 36.0467 99.0896 36.282C99.01 36.1262 98.9135 35.9598 98.8117 35.8019C95.3819 37.2908 89.8879 37.2899 88.172 33.5061C87.7607 33.3906 87.3611 33.2942 86.9487 33.2371C86.9551 33.2646 86.9445 33.2816 86.9594 33.3145C88.7508 38.4307 95.6101 38.6243 99.7956 36.5108C100.055 36.3782 100.14 36.0539 100.016 35.7995C98.0996 31.9023 90.719 27.4095 87.3672 32.001C87.3089 32.0943 87.2835 32.1728 87.2803 32.2533C87.6344 32.3094 87.9916 32.3793 88.3467 32.4715C91.0596 28.9782 96.9381 32.7802 98.8255 35.7987L98.8117 35.8019Z" fill="black"/>
<path d="M87.6396 32.7366C87.6396 32.7366 87.6926 32.7462 87.718 32.7621C87.9078 32.7981 88.1145 32.7503 88.2586 32.5574C88.2798 32.5235 88.3126 32.5086 88.3338 32.4747C87.9787 32.3825 87.6268 32.3042 87.2674 32.2565C87.2463 32.4792 87.4127 32.6657 87.6258 32.7398L87.6396 32.7366Z" fill="black"/>
<path d="M87.9869 33.0705C87.9296 32.9168 87.8268 32.8172 87.7112 32.7568C87.6858 32.7409 87.6635 32.7388 87.6328 32.7313C87.2882 32.6222 86.8728 32.8343 86.9513 33.2371C87.3637 33.2943 87.7633 33.3906 88.1746 33.5061C88.112 33.3609 88.0389 33.2326 87.9816 33.079L87.9869 33.0705Z" fill="black"/>
<path d="M87.6417 32.7366C87.6417 32.7366 87.6894 32.7546 87.7202 32.762C87.6947 32.7462 87.6725 32.744 87.6417 32.7366Z" fill="black"/>
</svg>
