<svg width="41" height="43" viewBox="0 0 41 43" fill="none" xmlns="http://www.w3.org/2000/svg">
<g clip-path="url(#clip0_1081_2034)">
<path d="M39.3792 3.95459H33.6367V8.5003H39.3792C39.7683 8.5003 40.0835 8.18511 40.0835 7.79604V4.66378C40.0835 4.27471 39.7683 3.95951 39.3792 3.95951V3.95459Z" fill="#32313F"/>
<path d="M0.704265 3.95459H6.44673V8.5003H0.704265C0.315196 8.5003 0 8.18511 0 7.79604V4.66378C0 4.27471 0.315196 3.95951 0.704265 3.95951V3.95459Z" fill="#32313F"/>
<path d="M34.4395 29.8793L35.8726 29.569V25.6685L32.7847 24.9987L35.8726 24.3289V15.9023L33.8534 15.3163L35.8726 14.7253V8.93848H3.94922V16.4933L7.1455 17.1877L3.94922 17.8772V21.0095L6.70718 21.6054L3.94922 22.2062V28.5939L6.7318 29.4065L3.94922 30.2142V33.3858H35.8726V30.1945L34.4395 29.8793Z" fill="#D0D2D3"/>
<path d="M36.9204 1.38869C34.4727 2.00923 31.9905 2.40322 29.7891 2.65439V9.79062C31.9905 10.0418 34.4727 10.4358 36.9204 11.0563C37.6985 11.2533 38.5062 10.8446 38.6342 10.1748C38.8411 9.0962 39.0873 7.52023 39.0873 6.22004C39.0873 4.91986 38.8362 3.34388 38.6342 2.26532C38.5062 1.60046 37.6985 1.18676 36.9204 1.38376V1.38869Z" fill="#4C4C4C"/>
<path d="M3.16697 1.38869C5.61466 2.00923 8.09682 2.40322 10.2983 2.65439V9.79062C8.09682 10.0418 5.61466 10.4358 3.16697 11.0563C2.38883 11.2533 1.58114 10.8446 1.45309 10.1748C1.24625 9.0962 1 7.52023 1 6.22004C1 4.91986 1.25117 3.34388 1.45309 2.26532C1.58114 1.60046 2.38883 1.18676 3.16697 1.38376V1.38869Z" fill="#4C4C4C"/>
<path d="M37.2674 1.18171C37.1345 0.334623 36.2775 -0.18742 35.4551 0.0637515C27.8904 2.37354 20.045 2.2258 20.045 2.2258C20.045 2.2258 12.1996 2.37354 4.63486 0.0637515C3.8124 -0.18742 2.95546 0.334623 2.82249 1.18171C2.60579 2.55577 2.33984 4.56021 2.33984 6.22484C2.33984 7.88947 2.60579 9.89391 2.82249 11.268C2.95546 12.1151 3.8124 12.6371 4.63486 12.3859C12.1996 10.0761 20.045 10.2239 20.045 10.2239C20.045 10.2239 27.8904 10.0761 35.4551 12.3859C36.2775 12.6371 37.1345 12.1151 37.2674 11.268C37.4841 9.89391 37.7501 7.88947 37.7501 6.22484C37.7501 4.56021 37.4841 2.55577 37.2674 1.18171Z" fill="#D0D2D3"/>
<g style="mix-blend-mode:soft-light" opacity="0.5">
<path d="M37.2673 1.1819C37.1639 0.536733 36.6468 0.0836396 36.0459 0.00976562C36.2331 1.3001 36.4104 2.9007 36.4104 4.26983C36.4104 5.92953 36.1444 7.9389 35.9277 9.31296C35.7948 10.16 34.9378 10.6821 34.1154 10.4309C26.5507 8.12113 18.7052 8.26888 18.7052 8.26888C18.7052 8.26888 10.8598 8.12113 3.29514 10.4309C3.09321 10.49 2.89129 10.5048 2.69922 10.4802C2.73862 10.756 2.77802 11.0219 2.81742 11.2632C2.95039 12.1103 3.80733 12.6324 4.62979 12.3812C12.1945 10.0714 20.0399 10.2191 20.0399 10.2191C20.0399 10.2191 27.8853 10.0714 35.45 12.3812C36.2725 12.6324 37.1294 12.1103 37.2624 11.2632C37.4791 9.88918 37.745 7.88473 37.745 6.2201C37.745 4.55548 37.4791 2.55103 37.2624 1.17697L37.2673 1.1819Z" fill="white"/>
</g>
<path d="M39.3792 38.9119H33.6367V34.3662H39.3792C39.7683 34.3662 40.0835 34.6814 40.0835 35.0705V38.2027C40.0835 38.5918 39.7683 38.907 39.3792 38.907V38.9119Z" fill="#32313F"/>
<path d="M0.704265 38.9119H6.44673V34.3662H0.704265C0.315196 34.3662 0 34.6814 0 35.0705V38.2027C0 38.5918 0.315196 38.907 0.704265 38.907V38.9119Z" fill="#32313F"/>
<path d="M36.9204 41.4727C34.4727 40.8521 31.9905 40.4581 29.7891 40.2069V33.0707C31.9905 32.8196 34.4727 32.4256 36.9204 31.805C37.6985 31.608 38.5062 32.0168 38.6342 32.6866C38.8411 33.7651 39.0873 35.3411 39.0873 36.6413C39.0873 37.9415 38.8362 39.5175 38.6342 40.596C38.5062 41.2609 37.6985 41.6746 36.9204 41.4776V41.4727Z" fill="#4C4C4C"/>
<path d="M3.16697 41.4727C5.61466 40.8521 8.09682 40.4581 10.2983 40.2069V33.0707C8.09682 32.8196 5.61466 32.4256 3.16697 31.805C2.38883 31.608 1.58114 32.0168 1.45309 32.6866C1.24625 33.7651 1 35.3411 1 36.6413C1 37.9415 1.25117 39.5175 1.45309 40.596C1.58114 41.2609 2.38883 41.6746 3.16697 41.4776V41.4727Z" fill="#4C4C4C"/>
<path d="M37.2674 41.6796C37.1345 42.5267 36.2775 43.0487 35.4551 42.7976C27.8904 40.4878 20.045 40.6355 20.045 40.6355C20.045 40.6355 12.1996 40.4878 4.63486 42.7976C3.8124 43.0487 2.95546 42.5267 2.82249 41.6796C2.60579 40.3056 2.33984 38.3011 2.33984 36.6365C2.33984 34.9719 2.60579 32.9674 2.82249 31.5934C2.95546 30.7463 3.8124 30.2242 4.63486 30.4705C12.1996 32.7803 20.045 32.6325 20.045 32.6325C20.045 32.6325 27.8904 32.7803 35.4551 30.4705C36.2775 30.2193 37.1345 30.7413 37.2674 31.5934C37.4841 32.9674 37.7501 34.9719 37.7501 36.6365C37.7501 38.3011 37.4841 40.3056 37.2674 41.6796Z" fill="#D0D2D3"/>
<g style="mix-blend-mode:soft-light" opacity="0.5">
<path d="M37.2673 41.6796C37.1639 42.3248 36.6468 42.7779 36.0459 42.8517C36.2331 41.5614 36.4104 39.9608 36.4104 38.5917C36.4104 36.932 36.1444 34.9226 35.9277 33.5485C35.7948 32.7015 34.9378 32.1794 34.1154 32.4257C26.5507 34.7355 18.7052 34.5877 18.7052 34.5877C18.7052 34.5877 10.8598 34.7355 3.29514 32.4257C3.09321 32.3666 2.89129 32.3518 2.69922 32.3764C2.73862 32.1006 2.77802 31.8347 2.81742 31.5934C2.95039 30.7463 3.80733 30.2242 4.62979 30.4705C12.1945 32.7803 20.0399 32.6325 20.0399 32.6325C20.0399 32.6325 27.8853 32.7803 35.45 30.4705C36.2725 30.2193 37.1294 30.7413 37.2624 31.5934C37.4791 32.9674 37.745 34.9719 37.745 36.6365C37.745 38.3011 37.4791 40.3056 37.2624 41.6796H37.2673Z" fill="white"/>
</g>
<g style="mix-blend-mode:soft-light" opacity="0.5">
<path d="M33.8447 2.89556C33.7462 2.45232 33.303 2.18637 32.8646 2.2898C30.8651 2.76259 25.3196 3.95442 19.9121 3.95442C14.2139 3.95442 7.1171 2.56067 5.03878 2.12727C4.66941 2.04847 4.29512 2.23562 4.13752 2.57544C3.20178 4.63899 3.74845 6.75671 4.13752 7.81064C4.28527 8.20464 4.70881 8.41641 5.11758 8.30314C15.4058 5.52548 29.9048 7.83527 33.0272 8.38686C33.4162 8.45581 33.8053 8.23419 33.9333 7.86482C34.48 6.29869 34.1057 4.07262 33.8398 2.89556H33.8447Z" fill="white"/>
</g>
<g style="mix-blend-mode:soft-light" opacity="0.5">
<path d="M33.8447 35.1539C33.7462 34.7106 33.303 34.4447 32.8646 34.5481C30.8651 35.0209 25.3196 36.2127 19.9121 36.2127C14.2139 36.2127 7.1171 34.819 5.03878 34.3856C4.66941 34.3068 4.29512 34.4939 4.13752 34.8337C3.20178 36.8973 3.74845 39.015 4.13752 40.0689C4.28527 40.4629 4.70881 40.6747 5.11758 40.5614C15.4058 37.7838 29.9048 40.0936 33.0272 40.6452C33.4162 40.7141 33.8053 40.4925 33.9333 40.1231C34.48 38.557 34.1057 36.3309 33.8398 35.1539H33.8447Z" fill="white"/>
</g>
<path d="M17.7295 24.8017H13.5531L12.8636 26.8013H10.6523L14.4248 16.2964H16.8725L20.645 26.8013H18.419L17.7295 24.8017ZM17.1582 23.1174L15.6413 18.7293L14.1244 23.1174H17.1582Z" fill="#4C4C4C"/>
<path d="M21.1195 20.3694C21.4544 19.7193 21.9124 19.217 22.4887 18.8673C23.0649 18.5176 23.71 18.3403 24.4192 18.3403C25.0398 18.3403 25.5864 18.4635 26.0494 18.7146C26.5173 18.9658 26.8866 19.281 27.1673 19.6602V18.4733H29.2851V26.7964H27.1673V25.58C26.8965 25.969 26.5222 26.2941 26.0494 26.5502C25.5717 26.8063 25.025 26.9343 24.4045 26.9343C23.7051 26.9343 23.0649 26.7521 22.4887 26.3926C21.9124 26.0331 21.4544 25.5258 21.1195 24.8659C20.7846 24.2108 20.6172 23.4573 20.6172 22.6053C20.6172 21.7533 20.7846 21.0195 21.1195 20.3645V20.3694ZM26.8669 21.3199C26.665 20.9555 26.3941 20.6747 26.0543 20.4778C25.7145 20.2808 25.35 20.1823 24.9561 20.1823C24.5621 20.1823 24.2025 20.2758 23.8726 20.4679C23.5426 20.66 23.2717 20.9358 23.0698 21.3002C22.863 21.6647 22.7645 22.0981 22.7645 22.6004C22.7645 23.1027 22.8679 23.5411 23.0698 23.9154C23.2717 24.2896 23.5475 24.5802 23.8824 24.7772C24.2173 24.9791 24.5768 25.0776 24.9561 25.0776C25.3353 25.0776 25.7145 24.9791 26.0543 24.7871C26.3941 24.5901 26.665 24.3093 26.8669 23.9449C27.0688 23.5805 27.1673 23.1421 27.1673 22.6299C27.1673 22.1178 27.0688 21.6794 26.8669 21.315V21.3199Z" fill="#4C4C4C"/>
</g>
<defs>
<clipPath id="clip0_1081_2034">
<rect width="40.0889" height="42.8617" fill="white"/>
</clipPath>
</defs>
</svg>
