<svg width="43" height="43" viewBox="0 0 43 43" fill="none" xmlns="http://www.w3.org/2000/svg">
<g clip-path="url(#clip0_1081_1142)">
<path d="M28.4318 17.1482C29.1069 17.6181 29.8578 17.9948 30.6679 18.2827C28.2799 5.42671 21.673 1.90899 18.707 0.969238C23.8036 4.84254 27.3138 10.6461 28.4318 17.1482Z" fill="#B3B3B3"/>
<path d="M17.6077 15.0234C17.557 15.0911 17.4853 15.1377 17.4009 15.1504C10.9163 16.2426 5.1321 19.7857 1.34766 24.9458C3.57529 23.9511 6.00543 23.4135 8.30478 23.4135C9.41016 23.4135 10.4607 23.5447 11.4521 23.7902C11.4817 23.7733 11.5112 23.7606 11.545 23.7521C11.6715 23.7309 11.7981 23.7902 11.8656 23.896C13.0385 24.2304 14.1101 24.7342 15.0467 25.4073C15.1142 25.4581 15.1606 25.53 15.1733 25.6147C16.2618 32.121 19.7931 37.9246 24.9361 41.7217C23.4214 38.3056 23.1135 34.6524 24.0037 31.3336C23.9994 31.3167 23.991 31.304 23.9868 31.2871C23.9657 31.1728 24.0163 31.0627 24.1007 30.9907C24.4087 29.9494 24.8306 28.9461 25.3791 27.9937C25.4297 27.9048 25.5225 27.8455 25.6238 27.8371C31.8847 27.2529 37.5424 23.786 41.6686 18.0374C39.4367 19.0364 37.0066 19.574 34.703 19.574C33.3909 19.574 32.1463 19.3962 30.9988 19.0491C30.9819 19.0449 30.9692 19.0406 30.9523 19.0322C29.8554 18.6978 28.8428 18.211 27.9569 17.576C27.8894 17.5252 27.8429 17.4532 27.8303 17.3686C26.7418 10.8623 23.2105 5.05443 18.0633 1.25732C19.9112 5.44811 20.4302 11.0316 17.6077 15.0065V15.0234ZM21.5018 18.2406C22.7084 18.2406 23.8054 18.9052 24.3707 19.9719C25.2103 21.5594 24.607 23.532 23.0249 24.3744C22.5565 24.6241 22.0334 24.7554 21.506 24.7554C20.2994 24.7554 19.2024 24.0908 18.6371 23.024C17.7975 21.4366 18.4008 19.464 19.983 18.6216C20.4513 18.3718 20.9744 18.2406 21.5018 18.2406Z" fill="#CCCCCC"/>
<path d="M14.5717 25.8518C13.8123 25.3227 12.9516 24.9163 12.0234 24.6157C14.4662 37.6707 21.2757 41.0571 24.1446 41.9122C19.1324 38.0432 15.6813 32.2904 14.5717 25.8518Z" fill="#B3B3B3"/>
<path d="M17.1667 14.5491C17.6857 13.7956 18.078 12.9829 18.3607 12.1362C9.65692 13.7321 5.30292 17.2795 3.18076 19.9971C1.75896 21.8174 1.12611 23.5106 0.847656 24.5604C4.70382 19.3071 10.5809 15.692 17.1667 14.5491Z" fill="#B3B3B3"/>
<path d="M25.8497 28.4591C25.4278 29.2126 25.0861 30.0042 24.8203 30.8169C33.406 29.2041 37.7136 25.6864 39.8188 22.9899C41.2195 21.195 41.8524 19.5272 42.1393 18.4731C37.9456 24.2852 32.212 27.8114 25.8497 28.4591Z" fill="#B3B3B3"/>
<path d="M0.157273 25.9786C0.25431 26.0845 0.410413 26.1141 0.541202 26.0464C2.96291 24.7595 5.71791 24.0483 8.30415 24.0483C9.37156 24.0483 10.3883 24.1796 11.3418 24.4166C14.4723 41.8359 25.2983 42.8137 25.408 42.8222C25.467 42.8603 25.5219 42.9026 25.5809 42.945C25.6358 42.9788 25.6949 42.9958 25.7539 42.9958C25.8299 42.9958 25.9058 42.9661 25.9649 42.9111C26.0703 42.8137 26.0999 42.6571 26.0324 42.5259C24.1423 38.9489 23.6697 35.0206 24.619 31.4944C42.0097 28.3619 42.9885 17.487 42.997 17.3769C43.0054 17.288 42.9716 17.2034 42.9126 17.1441C42.8999 17.0976 42.8788 17.051 42.8451 17.0129C42.748 16.9071 42.5919 16.8774 42.4611 16.9452C40.0394 18.232 37.2844 18.9432 34.6982 18.9432C33.5169 18.9432 32.3904 18.7908 31.3525 18.4987C28.2473 0.990549 17.3834 0.00846623 17.2737 0C17.2653 0 17.2611 0 17.2569 0C17.2273 0 17.202 0 17.1767 0.0126993C17.1683 0.0126993 17.1556 0.0126993 17.1472 0.0211656C17.1176 0.0338649 17.0881 0.0507974 17.0586 0.071963C17.0586 0.071963 17.0501 0.0761961 17.0459 0.0804292C17.0459 0.0804292 17.0459 0.0804292 17.0417 0.0804292C17.0122 0.105828 16.9911 0.13546 16.9742 0.169325C16.9742 0.173558 16.9742 0.182024 16.97 0.186257C16.9573 0.215889 16.9489 0.245521 16.9447 0.279386C16.9447 0.283619 16.9447 0.287852 16.9447 0.292085C16.9447 0.300551 16.9447 0.309018 16.9447 0.317484C16.9447 0.342882 16.9447 0.368281 16.9531 0.39368C16.9531 0.410612 16.9615 0.423312 16.9658 0.436011C16.9658 0.444477 16.9658 0.452943 16.9742 0.46141C18.628 3.58545 19.5225 7.7974 18.5605 11.4463C0.992635 14.5408 0.00960839 25.4918 0.0011704 25.6019C-0.00726759 25.695 0.0307034 25.7797 0.0897693 25.8389C0.102426 25.8897 0.123521 25.9363 0.157273 25.9786ZM12.0253 24.6113C12.9535 24.9119 13.8142 25.3183 14.5736 25.8474C15.6832 32.2817 19.1343 38.0346 24.1465 41.9079C21.2776 41.0528 14.4681 37.6663 12.0253 24.6113ZM39.82 22.9901C37.7148 25.6908 33.4072 29.2043 24.8215 30.8171C25.0873 30.0043 25.4291 29.2127 25.851 28.4592C32.2132 27.8116 37.9468 24.2854 42.1405 18.4733C41.8536 19.5274 41.2208 21.1952 39.82 22.9901ZM30.6648 18.2786C29.8548 17.9907 29.1038 17.614 28.4288 17.1441C27.3107 10.6421 23.8005 4.83845 18.704 0.965151C21.6742 1.9049 28.2811 5.42262 30.6648 18.2744V18.2786ZM18.0627 1.27417C23.2056 5.07127 26.7412 10.8791 27.8297 17.3854C27.8423 17.4701 27.8887 17.542 27.9562 17.5928C28.8422 18.2278 29.8506 18.7146 30.9517 19.049C30.9686 19.0575 30.9813 19.0617 30.9981 19.066C32.1457 19.4088 33.3903 19.5909 34.7024 19.5909C37.006 19.5909 39.4403 19.049 41.668 18.0542C37.5418 23.8028 31.8883 27.2655 25.6231 27.8539C25.5219 27.8624 25.4291 27.9216 25.3784 28.0105C24.83 28.9587 24.4081 29.9662 24.1001 31.0076C24.0157 31.0795 23.9651 31.1854 23.9862 31.3039C23.9862 31.3208 23.9988 31.3335 24.003 31.3505C23.1128 34.665 23.4208 38.3224 24.9354 41.7385C19.7925 37.9414 16.2612 32.1336 15.1727 25.6315C15.16 25.5469 15.1136 25.4749 15.0461 25.4241C14.1095 24.7553 13.0379 24.2473 11.865 23.9129C11.7975 23.807 11.6709 23.7478 11.5443 23.7689C11.5106 23.7732 11.4768 23.7901 11.4515 23.807C10.4601 23.5615 9.40953 23.4303 8.30415 23.4303C6.0048 23.4303 3.57466 23.9679 1.34703 24.9627C5.13147 19.8025 10.9199 16.2552 17.4003 15.1673C17.4847 15.1546 17.5564 15.108 17.607 15.0403C20.4295 11.0654 19.9106 5.48189 18.0627 1.2911V1.27417ZM3.18229 19.993C5.30445 17.2753 9.65845 13.728 18.3622 12.1321C18.0796 12.983 17.6872 13.7957 17.1683 14.545C10.5824 15.6879 4.70535 19.3072 0.849188 24.5563C1.12764 23.5065 1.76049 21.8132 3.18229 19.993Z" fill="black"/>
<path d="M18.6365 23.0241C19.2019 24.0909 20.2988 24.7555 21.5054 24.7555C22.0328 24.7555 22.556 24.6243 23.0243 24.3745C24.6064 23.5321 25.2097 21.5595 24.3701 19.9721C23.8048 18.9053 22.7079 18.2407 21.5012 18.2407C20.9738 18.2407 20.4507 18.3719 19.9824 18.6217C18.4003 19.4641 17.7969 21.4367 18.6365 23.0241ZM20.2777 19.1847C20.6532 18.9858 21.0751 18.8799 21.5012 18.8799C22.4716 18.8799 23.3576 19.4133 23.8132 20.2726C24.4883 21.551 24.0031 23.1384 22.7289 23.8157C22.3535 24.0147 21.9316 24.1205 21.5054 24.1205C20.5351 24.1205 19.6491 23.5871 19.1934 22.7278C18.5184 21.4494 19.0036 19.862 20.2777 19.1847Z" fill="black"/>
</g>
<defs>
<clipPath id="clip0_1081_1142">
<rect width="43" height="43" fill="white"/>
</clipPath>
</defs>
</svg>
