<svg width="411" height="411" viewBox="0 0 411 411" fill="none" xmlns="http://www.w3.org/2000/svg">
<g clip-path="url(#clip0_384_581)">
<path d="M353.804 227.329C347.389 270.523 322.294 310.562 281.773 334.531C243.915 356.925 200.23 360.762 161.263 348.765L205.405 205.429L353.794 227.335L353.804 227.329Z" fill="#EAECEE"/>
<path d="M270.679 70.4216L205.405 205.429L158.935 62.8459C196.274 50.612 236.371 53.8712 270.689 70.4157" fill="#EAECEE"/>
<path d="M334.508 129.062C352.72 159.851 358.652 194.511 353.805 227.33L205.406 205.43L270.68 70.4218C296.421 82.7948 318.884 102.649 334.508 129.062Z" fill="#F1F1F2"/>
<path d="M205.406 205.429L161.264 348.765C138.173 341.65 116.711 328.948 99.1055 311.25L205.396 205.435L205.406 205.429Z" fill="#F1F1F2"/>
<g clip-path="url(#clip1_384_581)">
<path d="M140.458 91.2828L173.239 198.461L94.9392 269.298C89.1778 262.923 84.1164 255.751 79.9166 247.809C52.6588 196.279 72.3319 132.393 123.88 105.135C130.831 101.46 138.028 98.636 145.335 96.6342" stroke="#F1F1F2" stroke-width="16" stroke-miterlimit="10"/>
</g>
</g>
<defs>
<clipPath id="clip0_384_581">
<rect width="299.949" height="299.949" fill="white" transform="translate(0 152.711) rotate(-30.6056)"/>
</clipPath>
<clipPath id="clip1_384_581">
<rect width="139.678" height="146.107" fill="white" transform="translate(21.7031 151.754) rotate(-27.8694)"/>
</clipPath>
</defs>
</svg>
