<svg width="38" height="38" viewBox="0 0 38 38" fill="none" xmlns="http://www.w3.org/2000/svg">
<ellipse cx="19" cy="19" rx="19" ry="19" transform="rotate(-180 19 19)" fill="#7E58FF"/>
<path d="M23.5794 27.6038C23.8487 27.35 24 27.0059 24 26.6471C24 26.2882 23.8487 25.9441 23.5794 25.6903L16.4678 18.9918L23.5794 12.2933C23.8411 12.0381 23.9859 11.6963 23.9826 11.3415C23.9793 10.9867 23.8282 10.6473 23.5619 10.3964C23.2955 10.1455 22.9352 10.0031 22.5585 10.0001C22.1818 9.99697 21.8189 10.1334 21.5479 10.3799L13.4206 18.0351C13.1513 18.2889 13 18.633 13 18.9918C13 19.3507 13.1513 19.6948 13.4206 19.9486L21.5479 27.6038C21.8173 27.8575 22.1827 28 22.5636 28C22.9446 28 23.3099 27.8575 23.5794 27.6038Z" fill="white"/>
</svg>
