<svg width="42" height="42" viewBox="0 0 42 42" fill="none" xmlns="http://www.w3.org/2000/svg">
<circle cx="21.0009" cy="20.9999" r="21.0001" transform="rotate(-180 21.0009 20.9999)" fill="#7E58FF"/>
<path d="M25.668 31.2922C25.9629 30.989 26.1285 30.5779 26.1285 30.1491C26.1285 29.7204 25.9629 29.3092 25.668 29.006L17.8818 21.0027L25.668 12.9993C25.9545 12.6944 26.1131 12.286 26.1095 11.862C26.1059 11.4381 25.9405 11.0326 25.6488 10.7328C25.3572 10.433 24.9627 10.263 24.5502 10.2593C24.1378 10.2556 23.7405 10.4186 23.4438 10.7131L14.5455 19.8596C14.2506 20.1628 14.085 20.5739 14.085 21.0027C14.085 21.4314 14.2506 21.8426 14.5455 22.1458L23.4438 31.2922C23.7388 31.5953 24.1388 31.7656 24.5559 31.7656C24.973 31.7656 25.373 31.5953 25.668 31.2922Z" fill="white"/>
</svg>
