<svg width="30" height="30" viewBox="0 0 30 30" fill="none" xmlns="http://www.w3.org/2000/svg">
<circle cx="15.0009" cy="15" r="15" transform="rotate(-180 15.0009 15)" fill="#7E58FF"/>
<path d="M18.3341 22.3513C18.5448 22.1347 18.6631 21.8411 18.6631 21.5348C18.6631 21.2286 18.5448 20.9349 18.3341 20.7183L12.7726 15.0016L18.3341 9.28495C18.5388 9.06714 18.6521 8.77541 18.6495 8.4726C18.6469 8.16979 18.5288 7.88013 18.3205 7.66601C18.1121 7.45188 17.8303 7.33043 17.5357 7.3278C17.2412 7.32517 16.9573 7.44157 16.7454 7.65194L10.3895 14.1851C10.1789 14.4017 10.0605 14.6954 10.0605 15.0016C10.0605 15.3079 10.1789 15.6016 10.3895 15.8181L16.7454 22.3513C16.9561 22.5678 17.2419 22.6895 17.5398 22.6895C17.8377 22.6895 18.1234 22.5678 18.3341 22.3513Z" fill="white"/>
</svg>
