<svg width="49" height="49" viewBox="0 0 49 49" fill="none" xmlns="http://www.w3.org/2000/svg">
<circle cx="24.4108" cy="24.4113" r="24.4114" transform="rotate(-180 24.4108 24.4113)" fill="#7E58FF"/>
<path d="M29.8357 36.3755C30.1785 36.023 30.3711 35.5451 30.3711 35.0467C30.3711 34.5483 30.1785 34.0704 29.8357 33.7179L20.7847 24.4144L29.8357 15.111C30.1688 14.7565 30.3531 14.2817 30.3489 13.7889C30.3448 13.2961 30.1525 12.8247 29.8135 12.4763C29.4744 12.1278 29.0158 11.9301 28.5364 11.9259C28.057 11.9216 27.5951 12.111 27.2502 12.4534L16.9065 23.0856C16.5637 23.4381 16.3711 23.9161 16.3711 24.4144C16.3711 24.9128 16.5637 25.3908 16.9065 25.7432L27.2502 36.3755C27.5931 36.7278 28.0581 36.9258 28.543 36.9258C29.0278 36.9258 29.4928 36.7278 29.8357 36.3755Z" fill="white"/>
</svg>
