<svg width="52" height="52" viewBox="0 0 52 52" fill="none" xmlns="http://www.w3.org/2000/svg">
<path d="M48.3519 34.6856C48.1994 34.5098 48.011 34.3687 47.7994 34.272C47.5877 34.1753 47.3577 34.1251 47.125 34.125H43.875V30.875C43.875 29.0842 42.4174 27.625 40.625 27.625H34.125C32.3326 27.625 30.875 29.0842 30.875 30.875V34.125H27.625C27.3921 34.125 27.1619 34.175 26.95 34.2717C26.7381 34.3684 26.5495 34.5096 26.3969 34.6856C26.2444 34.8616 26.1314 35.0683 26.0657 35.2918C26.0001 35.5152 25.9832 35.7502 26.0163 35.9808L27.6413 47.3558C27.6968 47.7428 27.89 48.0969 28.1855 48.353C28.481 48.6091 28.859 48.7501 29.25 48.75H45.5C45.891 48.7501 46.269 48.6091 46.5645 48.353C46.86 48.0969 47.0532 47.7428 47.1088 47.3558L48.7338 35.9808C48.7667 35.7501 48.7496 35.5151 48.6837 35.2916C48.6178 35.0682 48.5046 34.8615 48.3519 34.6856ZM34.125 30.875H40.625V34.125H34.125V30.875ZM44.0911 45.5H30.6589L29.4986 37.375H45.2514L44.0911 45.5ZM16.25 32.5H19.5V48.75H16.25V32.5Z" fill="#7E58FF"/>
<path d="M27.2675 29.0469L24.1702 25.1729L21.827 19.3147C21.467 18.4086 20.8427 17.6318 20.0353 17.0852C19.2279 16.5386 18.2748 16.2476 17.2997 16.25H8.125C5.43725 16.25 3.25 18.4373 3.25 21.125V32.5C3.25 34.2924 4.70762 35.75 6.5 35.75H8.125V48.75H11.375V32.5H6.5V21.125C6.5 20.694 6.67121 20.2807 6.97595 19.976C7.2807 19.6712 7.69402 19.5 8.125 19.5H17.2997C17.9676 19.5 18.5608 19.9014 18.8078 20.5221L21.4809 27.0156L24.7309 31.0781L27.2675 29.0469ZM6.5 8.125C6.5 4.54025 9.41525 1.625 13 1.625C16.5848 1.625 19.5 4.54025 19.5 8.125C19.5 11.7098 16.5848 14.625 13 14.625C9.41525 14.625 6.5 11.7098 6.5 8.125ZM9.75 8.125C9.75 9.91737 11.2076 11.375 13 11.375C14.7924 11.375 16.25 9.91737 16.25 8.125C16.25 6.33262 14.7924 4.875 13 4.875C11.2076 4.875 9.75 6.33262 9.75 8.125Z" fill="#7E58FF"/>
</svg>
