<svg width="51" height="45" viewBox="0 0 51 45" fill="none" xmlns="http://www.w3.org/2000/svg">
<path d="M30.0781 17.5636C27.7865 15.4484 21.6746 14.7448 21.6746 18.9752C21.6746 23.2056 30.0781 21.0904 30.0781 25.3186C30.0781 29.5467 23.2031 29.549 20.9115 26.7279M25.4948 28.6919V31.6665M25.4948 15.8838V13.3331M2.57812 13.3331L24.8806 2.1819C25.0714 2.08668 25.2816 2.03711 25.4948 2.03711C25.708 2.03711 25.9182 2.08668 26.109 2.1819L48.4115 13.3331" stroke="#7E58FF" stroke-width="3.4375" stroke-linecap="round" stroke-linejoin="round"/>
<path d="M43.8307 20.208V38.5413C43.8307 39.7569 43.3478 40.9227 42.4883 41.7822C41.6288 42.6418 40.463 43.1247 39.2474 43.1247H11.7474C10.5318 43.1247 9.36603 42.6418 8.50649 41.7822C7.64695 40.9227 7.16406 39.7569 7.16406 38.5413V20.208" stroke="#7E58FF" stroke-width="3.4375" stroke-linecap="round" stroke-linejoin="round"/>
</svg>
