<svg width="400" height="400" viewBox="0 0 400 400" fill="none" xmlns="http://www.w3.org/2000/svg">
<g clip-path="url(#clip0_384_499)">
<path d="M231.589 67.084C259.323 67.084 281.804 88.5823 281.804 115.105C281.804 141.628 259.323 163.126 231.589 163.126C203.855 163.126 181.374 141.628 181.374 115.105C181.374 88.5823 203.855 67.084 231.589 67.084ZM231.589 137.64C244.597 137.64 255.144 127.554 255.144 115.114C255.144 102.675 244.597 92.5888 231.589 92.5888C218.581 92.5888 208.034 102.675 208.034 115.114C208.034 127.554 218.581 137.64 231.589 137.64Z" fill="#DDDBF5"/>
<path d="M231.589 16C288.825 16 335.222 60.3695 335.222 115.105C335.222 169.841 288.825 214.211 231.589 214.211C174.353 214.211 127.957 169.841 127.957 115.105C127.957 60.3695 174.353 16 231.589 16ZM231.589 177.359C267.546 177.359 296.687 149.482 296.687 115.105C296.687 80.7285 267.536 52.8517 231.589 52.8517C195.642 52.8517 166.492 80.7192 166.492 115.105C166.492 149.492 195.632 177.359 231.589 177.359Z" fill="#DDDBF5"/>
<path d="M361.198 180C339.541 180 321.957 196.817 321.957 217.527V399.582H400.439V217.527C400.439 196.817 382.855 180 361.198 180Z" fill="#DDDBF5"/>
<path d="M261.198 236C239.541 236 221.957 252.817 221.957 273.527V455.582H300.439V273.527C300.439 252.817 282.855 236 261.198 236Z" fill="#DDDBF5"/>
<path d="M162.198 297C140.541 297 122.957 313.817 122.957 334.527V516.582H201.439V334.527C201.439 313.817 183.855 297 162.198 297Z" fill="#DDDBF5"/>
<path d="M86.6663 320.716L376.658 145.605" stroke="#DDDBF5" stroke-width="16" stroke-miterlimit="10"/>
</g>
<defs>
<clipPath id="clip0_384_499">
<rect width="400" height="400" fill="white" transform="matrix(-1 0 0 1 400 0)"/>
</clipPath>
</defs>
</svg>
