<svg width="192" height="187" viewBox="0 0 192 187" fill="none" xmlns="http://www.w3.org/2000/svg">
<path d="M96.9789 186.1C62.197 186.1 34.0007 184.179 34.0007 181.81C34.0007 179.44 62.197 177.52 96.9789 177.52C131.761 177.52 159.957 179.44 159.957 181.81C159.957 184.179 131.761 186.1 96.9789 186.1Z" fill="#C3C3C4"/>
<g clip-path="url(#clip0_1213_9847)">
<path d="M142.853 109.648C142.853 109.648 133.551 97.1201 134.918 92.162C136.284 87.2039 142.244 90.1953 142.244 90.1953C142.631 90.1044 155.399 92.5586 158.535 103.549L158.264 105.094C158.264 105.094 155.95 110.986 148.435 111.903C148.435 111.903 146.64 109.59 142.862 109.648H142.853Z" fill="#3E4049"/>
<path d="M158.255 105.094C158.255 105.094 160.165 109.325 160.783 111.87C161.408 114.407 162.289 118.092 161.96 118.53C161.631 118.968 160.239 118.902 159.614 117.167C159.614 117.167 160.289 119.761 159.597 120.389C158.898 121.017 158.387 120.927 158.387 120.927C158.387 120.927 157.778 121.513 157.177 121.538C156.568 121.555 154.666 119.2 154.666 119.2C154.666 119.2 155.415 122.034 154.773 122.364C154.131 122.695 150.295 116.77 150.295 116.77C150.295 116.77 147.949 118.282 146.994 117.175C146.039 116.068 148.427 111.911 148.427 111.911C155.942 110.994 158.255 105.102 158.255 105.102V105.094Z" fill="#F2C5A7"/>
<path d="M154.699 123.091C154.855 123.091 154.971 123.033 155.078 122.975C155.275 122.876 155.736 122.636 155.712 121.38C156.634 122.24 157.029 122.223 157.185 122.223C157.794 122.207 158.338 121.843 158.634 121.612C158.963 121.57 159.474 121.422 160.041 120.909C160.437 120.554 160.577 119.942 160.585 119.29C160.749 119.356 160.914 119.405 161.087 119.43C161.671 119.521 162.206 119.331 162.495 118.951C162.873 118.438 162.816 117.323 161.441 111.712C160.881 109.423 159.342 105.886 158.955 105.01L159.194 103.672C159.21 103.572 159.21 103.465 159.177 103.366C156.181 92.8629 144.755 89.8137 142.45 89.5493C141.89 89.2848 138.919 87.9875 136.605 89.0204C135.445 89.541 134.646 90.5409 134.251 91.987C132.81 97.2095 141.907 109.539 142.294 110.068C142.425 110.241 142.631 110.34 142.853 110.34C145.43 110.307 146.969 111.448 147.578 112.018C146.739 113.571 145.438 116.422 146.475 117.629C147.455 118.761 149.159 118.141 150.073 117.686C153.094 122.306 154.139 123.099 154.699 123.099V123.091ZM154.658 118.513C154.551 118.513 154.444 118.538 154.345 118.587C154.057 118.736 153.909 119.058 153.991 119.372C154.156 120.008 154.279 120.694 154.32 121.207C153.481 120.256 152.032 118.215 150.855 116.397C150.649 116.083 150.229 115.992 149.916 116.191C149.274 116.604 147.899 117.182 147.496 116.728C147.2 116.389 147.801 114.356 149.003 112.257C149.143 112.018 149.118 111.712 148.945 111.497C148.863 111.398 147.01 109.059 143.174 108.977C140.524 105.349 134.531 96.0609 135.552 92.3588C135.84 91.3094 136.358 90.6235 137.14 90.2764C139.058 89.417 141.882 90.8053 141.907 90.8218C142.014 90.8797 142.137 90.8962 142.252 90.8962C142.664 90.9293 145.784 91.5325 149.266 93.4827C152.304 95.185 156.238 98.3251 157.794 103.597L157.547 104.985C157.523 105.118 157.547 105.258 157.597 105.39C157.613 105.432 159.482 109.596 160.091 112.042C160.404 113.315 161.309 117.025 161.326 118.083C161.26 118.083 161.177 118.067 161.079 118.025C160.873 117.934 160.486 117.678 160.223 116.951C160.099 116.604 159.729 116.422 159.375 116.53C159.029 116.637 158.823 117.001 158.914 117.356C159.194 118.414 159.276 119.653 159.087 119.901C158.757 120.199 158.51 120.248 158.436 120.256C158.206 120.19 158.041 120.273 157.868 120.446C157.712 120.595 157.407 120.81 157.185 120.851C156.848 120.67 155.934 119.736 155.152 118.777C155.02 118.612 154.822 118.521 154.625 118.521L154.658 118.513Z" fill="#0F0F14"/>
<path d="M148.426 112.596C148.426 112.596 148.484 112.596 148.509 112.596C156.337 111.637 158.79 105.613 158.889 105.357C159.029 105.002 158.856 104.605 158.502 104.465C158.148 104.324 157.753 104.498 157.621 104.853C157.531 105.076 155.341 110.381 148.344 111.241C147.974 111.29 147.702 111.629 147.751 112.001C147.792 112.348 148.089 112.604 148.426 112.604V112.596Z" fill="#0F0F14"/>
<path d="M159.029 120.702C158.79 119.884 158.403 119.124 157.992 118.38C157.86 118.132 157.679 117.892 157.317 117.727C157.275 117.711 157.226 117.727 157.21 117.768C157.037 118.124 157.045 118.421 157.094 118.702C157.234 119.537 157.407 120.371 157.736 121.156C158.082 121.933 159.235 121.52 159.021 120.702H159.029Z" fill="#0F0F14"/>
<path d="M150.638 117.355C151.906 116.57 152.951 115.504 153.478 114.066L152.96 114.454C153.33 114.405 153.668 114.347 154.013 114.264C155.034 114.008 156.211 113.735 156.829 112.785C156.853 112.744 156.812 112.677 156.763 112.694C156.409 112.768 156.088 112.826 155.767 112.884C155.199 112.991 154.408 113.14 153.84 113.182C153.519 113.206 153.182 113.239 152.877 113.248C152.671 113.248 152.49 113.372 152.4 113.545C151.889 114.652 150.91 115.528 149.922 116.198C149.206 116.702 149.881 117.784 150.646 117.355H150.638Z" fill="#0F0F14"/>
<path d="M164.248 33.4649C164.248 33.4649 167.367 29.4985 173.739 28.4903C180.11 27.4822 186.416 25.2676 191.116 15.5414C191.849 13.0459 186.729 7.72416 184.728 7.8977C184.728 7.8977 180.966 16.4587 175.682 18.632C170.405 20.8135 158.247 22.5323 155.818 27.9449" fill="#742DD2"/>
<path d="M164.247 34.291C164.486 34.291 164.725 34.1836 164.889 33.977C164.939 33.9109 167.935 30.2419 173.87 29.3081C180.349 28.2835 187.008 25.9532 191.857 15.9048C191.873 15.8634 191.89 15.8221 191.906 15.7808C192.425 14.0124 190.91 11.8143 189.964 10.6574C188.819 9.26092 186.424 6.93062 184.662 7.08762C184.366 7.11241 184.103 7.30247 183.987 7.57517C183.954 7.6578 180.291 15.8552 175.377 17.8797C173.977 18.4582 172.026 19.0201 169.952 19.6151C164.181 21.276 157.003 23.3336 155.077 27.6224C154.888 28.0356 155.077 28.5231 155.489 28.7132C155.9 28.9032 156.386 28.7132 156.575 28.3C158.189 24.7136 164.963 22.7635 170.405 21.2017C172.52 20.5902 174.521 20.02 176.002 19.4085C180.769 17.4418 184.251 10.8227 185.222 8.81469C186.004 9.10391 187.42 10.1286 188.704 11.6986C189.881 13.1365 190.515 14.5248 190.35 15.2602C185.609 25.0277 179.229 26.796 173.615 27.6802C166.997 28.7297 163.745 32.7788 163.605 32.9523C163.325 33.3077 163.383 33.8283 163.737 34.1092C163.885 34.2249 164.066 34.2828 164.247 34.2828V34.291Z" fill="#0F0F14"/>
<path d="M158.713 36.0178C158.713 36.0178 161.923 40.3066 172.542 43.2732C183.161 46.2315 188.882 42.0337 189.903 40.728C190.932 39.4224 190.899 34.109 189.343 33.3735C187.788 32.6381 182.108 35.6625 177.243 35.4063C172.378 35.1584 162.08 27.8535 162.08 27.8535" fill="#742DD2"/>
<path d="M179.565 45.1161C185.846 45.1161 189.55 42.4883 190.538 41.2323C191.46 40.0589 191.625 36.9518 191.156 34.952C190.867 33.7373 190.374 32.9523 189.682 32.6217C188.694 32.1507 187.073 32.6217 184.842 33.258C182.586 33.9026 179.771 34.7124 177.277 34.5802C172.708 34.3488 162.649 27.2504 162.55 27.1761C162.179 26.9116 161.669 27.0025 161.406 27.3744C161.142 27.7463 161.233 28.2586 161.603 28.523C162.031 28.8288 172.156 35.9684 177.194 36.2246C179.96 36.3651 182.915 35.5222 185.295 34.8363C186.743 34.4232 188.554 33.9026 188.991 34.1091C189.106 34.167 189.369 34.4893 189.567 35.3239C190.011 37.2327 189.699 39.6457 189.254 40.2076C188.316 41.3975 182.776 45.2649 172.749 42.4718C162.599 39.6457 159.389 35.5553 159.356 35.5139C159.084 35.1586 158.566 35.0842 158.212 35.3569C157.849 35.6296 157.775 36.142 158.047 36.5056C158.187 36.6874 161.546 41.0587 172.313 44.0584C175.021 44.8104 177.441 45.1161 179.565 45.1161Z" fill="#0F0F14"/>
<path d="M84.7348 88.8707C84.7348 88.8707 113.061 95.6633 137.863 91.1101C162.666 86.5569 169.35 76.054 163.151 62.2705C163.151 62.2705 168.017 33.2243 151.479 15.4082C134.941 -2.40785 90.3983 -7.82043 72.0659 21.9612C64.4268 35.3067 64.9124 59.0643 64.9124 59.0643C64.9124 59.0643 51.618 79.566 84.7265 88.8872L84.7348 88.8707Z" fill="#3E4049"/>
<g opacity="0.5">
<path d="M164.676 66.5188C164.626 66.4031 164.577 66.2874 164.519 66.1635C164.519 66.1635 164.519 66.1139 164.544 66.0312C164.593 66.1965 164.635 66.3535 164.676 66.5188Z" fill="white"/>
</g>
<g opacity="0.5">
<path d="M63.957 75.426C61.8003 71.2199 62.0719 67.0799 62.8704 64.0059C62.1213 67.1873 61.8991 71.3686 63.957 75.426Z" fill="white"/>
</g>
<g opacity="0.5">
<path d="M65.9688 42.7441C64.7669 51.6274 64.9233 59.0563 64.9233 59.0563C64.9233 59.0563 63.6474 61.023 62.8736 64.0144C63.6309 60.7999 64.9151 58.61 64.9151 58.61C64.9151 58.61 64.5693 51.4291 65.9688 42.7441Z" fill="white"/>
</g>
<path d="M138.357 32.7464C142.984 33.8041 146.35 37.8036 146.663 42.5634C147.141 49.8187 147.207 63.8336 141.271 68.3703C133.122 74.5927 111.974 70.3204 96.7781 69.3453C81.5821 68.3703 71.2429 68.6099 69.5471 57.0162C67.8432 45.4225 72.346 32.2423 73.803 31.2672C75.2601 30.2921 91.5345 31.1432 108.015 31.7547C119.021 32.1596 130.693 30.9945 138.366 32.7464H138.357Z" fill="#F2C5A7"/>
<path d="M126.816 66.7255V59.0074C126.816 56.3383 124.94 54.1072 122.445 53.57C122.174 53.5122 113.209 56.9911 113.045 57.6439C112.937 58.0819 112.88 58.5364 112.88 59.0074V66.2628L126.816 66.7255Z" fill="#0F0F14"/>
<path d="M117.456 61.3542C115.874 61.3542 114.591 60.1777 114.591 58.7264C114.591 57.2751 115.874 56.0986 117.456 56.0986C119.038 56.0986 120.32 57.2751 120.32 58.7264C120.32 60.1777 119.038 61.3542 117.456 61.3542Z" fill="white"/>
<g opacity="0.5">
<path d="M122.811 67.0473C121.861 67.0473 121.09 66.3406 121.09 65.469C121.09 64.5973 121.861 63.8906 122.811 63.8906C123.761 63.8906 124.531 64.5973 124.531 65.469C124.531 66.3406 123.761 67.0473 122.811 67.0473Z" fill="white"/>
</g>
<path d="M119.126 93.4908C125.325 93.4908 131.787 93.0611 138.01 91.9207C152.136 89.326 161.051 84.6571 164.5 78.0546C166.846 73.5675 166.673 68.221 163.998 62.1556C164.204 60.7839 165.101 54.0657 164.336 45.4469C163.545 36.6628 160.779 24.2179 152.087 14.8471C147.493 9.89732 140.57 5.73252 132.593 3.12126C124.386 0.427359 115.57 -0.547733 107.099 0.286879C91.5411 1.82389 78.8558 9.36019 71.3731 21.5158C64.022 34.3573 64.0632 56.1233 64.0961 58.8254C63.3141 60.1311 59.725 66.7749 62.4744 74.1046C65.0839 81.0542 72.4926 86.285 84.5111 89.6648C84.5194 89.6648 84.5276 89.6648 84.5441 89.6648C84.7581 89.7144 100.753 93.4825 119.126 93.4825V93.4908ZM112.895 1.65036C127.704 1.65036 142.735 7.17863 150.876 15.9545C159.248 24.9782 161.924 37.0264 162.689 45.5378C163.529 54.8176 162.352 62.0482 162.335 62.1226C162.31 62.2796 162.335 62.4449 162.393 62.5936C164.945 68.2706 165.159 73.2122 163.035 77.2778C159.833 83.4093 151.313 87.789 137.705 90.2846C113.578 94.7138 85.7047 88.2435 84.9309 88.0617C73.464 84.8307 66.4257 79.9387 64.0056 73.5262C61.289 66.3039 65.5531 59.5526 65.5943 59.4865C65.6849 59.346 65.726 59.189 65.726 59.0238C65.726 58.7924 65.3309 35.3406 72.7643 22.3504C79.9589 10.6658 92.2079 3.40222 107.248 1.91479C109.108 1.73299 111.001 1.64209 112.886 1.64209L112.895 1.65036Z" fill="#0F0F14"/>
<path d="M126.332 72.5097C132.77 72.5097 138.302 71.6668 141.767 69.0225C147.941 64.304 147.999 50.3883 147.48 42.505C147.151 37.4147 143.471 33.0681 138.54 31.9442C133.486 30.7873 126.793 30.8782 119.706 30.9691C115.87 31.0187 111.91 31.0766 108.041 30.9278C105.259 30.8287 102.485 30.713 99.7929 30.6055C82.0203 29.9031 74.6445 29.7048 73.3439 30.5725C71.4423 31.8451 67.0054 45.3724 68.7341 57.1313C70.4134 68.5763 80.1434 69.163 93.6107 69.9645C94.6233 70.0224 95.6605 70.0885 96.7224 70.1546C100.147 70.3777 103.818 70.7578 107.704 71.1627C114.092 71.8238 120.578 72.5014 126.332 72.5014V72.5097ZM138.178 33.5473C142.409 34.5142 145.562 38.241 145.842 42.6124C146.237 48.6861 146.542 63.3042 140.771 67.7086C134.729 72.3279 120.463 70.8405 107.868 69.5348C103.966 69.1299 100.279 68.7415 96.8212 68.5184C95.7593 68.4523 94.7138 68.3862 93.7013 68.3284C80.0611 67.5103 71.8292 67.0145 70.3475 56.8917C68.6929 45.6368 73.0969 32.9937 74.2412 31.9525C75.69 31.2997 88.4576 31.812 99.7188 32.2582C102.419 32.3657 105.193 32.4731 107.975 32.5805C111.885 32.721 115.87 32.6714 119.722 32.6218C126.711 32.5309 133.313 32.44 138.17 33.5556L138.178 33.5473Z" fill="#0F0F14"/>
<path d="M109.359 56.5784C109.4 57.8345 110.059 59.6029 111.614 59.4294C111.927 59.388 112.257 59.2889 112.553 59.198C114.685 58.5286 116.735 57.6444 118.751 56.7189C121.97 55.2232 125.131 53.6284 128.136 51.7195C128.44 51.5295 128.226 51.0254 127.864 51.1411C122.81 52.7607 117.945 54.9092 113.17 57.1899C112.602 57.4626 112.043 57.7436 111.475 57.9998C111.392 58.0328 111.335 58.0659 111.26 58.0741C111.145 58.0989 111.046 58.0328 110.898 57.9337C110.47 57.5535 110.199 56.9751 109.96 56.438C109.828 56.1074 109.318 56.2396 109.342 56.5867L109.359 56.5784Z" fill="#0F0F14"/>
<path d="M112.444 66.3285C117.49 67.1465 122.569 67.097 127.665 67.3201C127.969 67.3283 128.052 66.8821 127.763 66.783C125.31 65.9318 122.717 65.5847 120.141 65.403C118.214 65.279 116.28 65.279 114.354 65.4856C113.712 65.56 113.07 65.6426 112.427 65.7831C112.139 65.8409 112.148 66.2871 112.436 66.3285H112.444Z" fill="#0F0F14"/>
<path d="M75.5809 63.6759L76.1818 56.2966C76.3876 53.7432 78.3386 51.76 80.7505 51.4377C81.0139 51.4046 89.2458 55.4207 89.3446 56.0653C89.4104 56.4867 89.4351 56.9329 89.3939 57.3792L88.8259 64.3205L75.5726 63.6759H75.5809Z" fill="#0F0F14"/>
<path d="M80.3286 57.8765C78.8288 57.7535 77.7044 56.5291 77.8173 55.1418C77.9302 53.7545 79.2376 52.7295 80.7374 52.8525C82.2373 52.9755 83.3616 54.1999 83.2487 55.5872C83.1358 56.9745 81.8284 57.9995 80.3286 57.8765Z" fill="white"/>
<g opacity="0.5">
<path d="M84.8408 63.4186C83.939 63.3447 83.263 62.6099 83.3307 61.7775C83.3984 60.9451 84.1843 60.3303 85.0861 60.4042C85.9878 60.4781 86.6638 61.2129 86.5961 62.0453C86.5284 62.8777 85.7425 63.4925 84.8408 63.4186Z" fill="white"/>
</g>
<path d="M92.3324 55.1648C92.1019 55.578 91.394 56.8588 90.8672 56.5283C88.8915 55.3714 86.9323 54.1814 84.9073 53.0989C81.9356 51.4958 78.9392 49.9505 75.8028 48.678C75.4736 48.5457 75.1937 49.0002 75.49 49.2316C76.8318 50.2811 78.2395 51.2231 79.6554 52.1404C82.5118 53.9666 85.4177 55.6689 88.4964 57.0985C89.1302 57.3794 89.7888 57.6852 90.4638 57.8752C90.5873 57.9083 90.719 57.9165 90.8425 57.9248C92.209 57.9496 92.8016 56.4456 92.9498 55.3218C92.9992 54.9582 92.4806 54.8177 92.3324 55.1483V55.1648Z" fill="#0F0F14"/>
<path d="M89.3026 63.8816C85.9687 62.8569 82.429 62.766 78.9799 63.0635C77.8274 63.1875 76.6749 63.361 75.5472 63.6833C75.399 63.7246 75.3167 63.8816 75.3579 64.0303C75.3908 64.146 75.4896 64.2204 75.6048 64.2287C77.885 64.3939 80.1323 64.4683 82.4043 64.5509C84.6846 64.6253 86.9483 64.6749 89.2368 64.427C89.5249 64.3939 89.5743 63.9725 89.2944 63.8816H89.3026Z" fill="#0F0F14"/>
<path d="M66.3796 32.5227C66.3796 32.5227 119.492 41.8191 162.075 36.3569C162.075 36.3569 165.187 36.0264 164.372 30.8204C163.565 25.6061 156.914 26.3416 156.914 26.3416C156.914 26.3416 120.949 28.2091 108.008 27.6059C95.0677 26.9944 71.7303 23.6973 70.0263 23.6973C68.3223 23.6973 64.4369 26.9531 66.3796 32.5227Z" fill="#742DD2"/>
<g opacity="0.25">
<path d="M65.9083 31.8199C65.9083 31.8199 119.02 41.1164 161.604 35.6542C161.604 35.6542 163.728 35.4311 164.007 32.4066C164.172 32.795 164.304 33.2247 164.378 33.7123C165.185 38.9265 162.081 39.2488 162.081 39.2488C119.498 44.711 66.3858 35.4146 66.3858 35.4146C65.9083 34.0428 65.7848 32.8116 65.8919 31.7373C65.9001 31.7621 65.9083 31.7869 65.9165 31.8117L65.9083 31.8199Z" fill="#0F0F14"/>
</g>
<path d="M132.365 38.8862C142.366 38.8862 152.557 38.4069 162.172 37.1756C162.287 37.1674 163.448 37.0104 164.345 35.837C165.243 34.6635 165.523 32.9282 165.177 30.6888C164.444 25.9704 159.415 25.2432 156.846 25.5159C155.768 25.5737 120.659 27.3751 108.048 26.7719C99.2314 26.3587 85.4595 24.673 77.2276 23.6731C72.7577 23.1277 70.5845 22.8633 70.0247 22.8633C68.8393 22.8633 67.3658 23.8136 66.3615 25.2349C65.5137 26.4331 64.2871 29.0113 65.6042 32.7877C65.703 33.0687 65.9417 33.2753 66.2381 33.3249C66.6497 33.3992 98.4576 38.8779 132.365 38.8779V38.8862ZM157.801 27.1272C159.439 27.1272 163.028 27.5239 163.555 30.9532C163.827 32.7051 163.654 34.052 163.045 34.8453C162.576 35.4651 161.991 35.5477 161.983 35.5477C122.149 40.6546 72.4449 32.7134 67.0036 31.8044C66.1722 28.9865 67.0695 27.1025 67.7033 26.21C68.5183 25.0531 69.5555 24.5325 70.0247 24.5325C70.4939 24.5325 73.3916 24.8796 77.03 25.3258C85.2866 26.3339 99.0997 28.0197 107.965 28.4329C120.799 29.0361 156.591 27.1934 156.953 27.1686C156.97 27.1686 156.986 27.1686 157.003 27.1686C157.052 27.1686 157.357 27.1355 157.801 27.1355V27.1272Z" fill="#0F0F14"/>
<path d="M129.764 156.717C132.036 160.469 131.599 165.774 131.599 165.774C131.533 166.443 131.443 167.08 131.303 167.683C131.303 167.683 128.874 170.484 125.417 170.096C121.951 169.708 109.563 162.973 104.311 151.982C104.73 150.916 105.257 150.016 105.257 150.016C105.257 150.016 113.967 158.395 119.745 159.114C125.524 159.833 129.755 156.717 129.755 156.717H129.764Z" fill="#F2C5A7"/>
<path d="M125.415 170.105C128.881 170.493 131.293 167.7 131.301 167.692C130.371 171.898 127.514 174.286 119.562 170.493C110.466 166.147 103.971 155.801 103.831 154.255C103.773 153.611 104.012 152.76 104.317 151.991C109.569 162.982 121.949 169.716 125.423 170.105H125.415Z" fill="#742DD2"/>
<path d="M74.776 88.9728C74.6937 88.9728 68.4787 92.7245 66.857 93.1707C65.2353 93.6087 64.8731 93.0302 64.7661 92.146C64.6591 91.2618 66.61 88.8324 66.61 88.8324C65.0707 88.0886 56.5178 87.7581 55.9333 86.8739C55.3571 85.9897 56.5095 85.0477 56.5095 85.0477C56.5095 85.0477 55.4888 84.7171 55.4641 83.8577C55.4229 82.6595 56.5672 82.2877 56.5672 82.2877C56.4025 80.8664 58.0983 80.4532 59.2672 80.3375C59.9916 80.2631 60.6996 80.0813 61.3499 79.759C66.9311 77.0569 73.7964 77.2552 73.7964 77.2552C74.4632 84.9485 75.2617 90.5842 75.2617 90.5842C75.0642 89.8488 74.8254 88.9646 74.776 88.9646V88.9728Z" fill="#F2C5A7"/>
<path d="M80.7746 136.026C82.7585 136.579 82.561 139.67 82.561 139.67C76.0166 144.694 57.3056 155.627 57.3056 155.627C55.8239 155.404 54.3915 152.809 54.3915 152.644C54.3915 152.602 54.4327 152.487 54.4903 152.338C54.4903 152.338 76.1648 140.141 80.7746 136.018V136.026Z" fill="#742DD2"/>
<path d="M54.4934 152.346C54.6498 151.949 54.9462 151.321 54.9462 151.321C52.419 150.545 52.3614 148.784 54.23 143.587C55.6706 139.579 56.1974 137.191 56.3621 136.307C56.3621 136.307 66.3144 130.423 69.9117 127.63L77.8802 130.96L79.3372 132.381L80.7695 136.026C76.1597 140.149 54.4852 152.346 54.4852 152.346H54.4934Z" fill="#F2C5A7"/>
<path d="M69.9091 127.63C66.3117 130.423 56.3594 136.307 56.3594 136.307C56.4088 136.05 56.4253 135.91 56.4253 135.91C52.9597 130.497 48.5062 119.234 54.4414 113.433C60.3848 107.632 71.078 110.177 71.078 110.177C72.107 106.715 79.4745 93.3199 79.4745 93.3199C79.4745 93.3199 75.5644 91.6507 75.515 91.5433C75.4903 91.5019 75.3833 91.0805 75.2515 90.593C75.2515 90.593 74.4531 84.9573 73.7863 77.2639C73.7863 77.2639 87.1384 74.9089 105.693 79.2555C124.256 83.602 134.299 91.1136 134.299 91.1136C134.299 91.1136 142.514 96.5592 144.053 113.722C145.716 132.224 132.973 141.339 132.973 141.339C136.052 152.164 129.746 156.726 129.746 156.726C129.746 156.726 125.507 159.833 119.737 159.122C113.958 158.403 105.248 150.024 105.248 150.024C102.022 145.529 97.6175 141.331 97.6175 141.331C86.8338 137.72 79.2934 132.332 79.2934 132.332L79.3181 132.39L77.861 130.968L69.8926 127.638L69.9091 127.63Z" fill="#3E4049"/>
<g opacity="0.5">
<path d="M53.8386 150.6C54.2749 150.6 57.6499 138.941 58.2344 135.181L57.1889 135.602L56.2999 136.552C56.2999 136.552 55.1474 140.899 54.3819 143.122C53.6163 145.345 53.1224 147.171 53.0648 148.254C53.0071 149.328 53.8303 150.6 53.8303 150.6H53.8386Z" fill="white"/>
</g>
<path d="M73.1289 141.331C73.1289 141.331 62.1476 136.596 54.9118 141.612L55.6279 139.306C55.6279 139.306 66.1812 133.695 76.2734 139.306" fill="#742DD2"/>
<path d="M113.1 163.079C113.1 163.079 119.307 163.641 124.757 165.409C124.757 165.409 126.691 160.707 126.741 158.253L129.227 157.071H129.762C129.762 157.071 127.506 165.36 125.745 167.178C125.745 167.178 117.661 165.401 115.677 165.128" fill="#742DD2"/>
<path d="M138.859 134.901C138.859 134.901 121.778 102.979 70.9712 110.921C70.9712 110.921 70.609 114.424 71.3087 118.82C71.3087 118.82 87.3444 117.581 104.862 122.886C122.379 128.191 132.982 141.33 132.982 141.33C132.982 141.33 136.851 138.331 138.851 134.901H138.859Z" fill="#742DD2"/>
<path d="M54.9086 142.164C55.0156 142.164 55.1226 142.131 55.2214 142.065C62.1197 137.28 72.8047 141.784 72.9117 141.834C73.1916 141.949 73.5126 141.825 73.6279 141.544C73.7431 141.263 73.6196 140.941 73.3398 140.825C72.9035 140.635 63.1652 136.528 55.8553 140.396L56.0693 139.693C57.5428 138.983 67.0341 134.801 75.9986 139.784C76.2621 139.933 76.5913 139.834 76.7395 139.569C76.8877 139.305 76.7889 138.974 76.5255 138.826C66.2933 133.14 55.4684 138.76 55.3614 138.826C55.2379 138.892 55.1391 139.008 55.0979 139.148L54.3818 141.454C54.3159 141.677 54.39 141.916 54.5793 142.057C54.6781 142.131 54.7851 142.164 54.9004 142.164H54.9086Z" fill="#0F0F14"/>
<path d="M125.747 167.723C125.895 167.723 126.035 167.665 126.142 167.558C127.978 165.657 130.201 157.559 130.291 157.212C130.332 157.046 130.299 156.873 130.201 156.732C130.094 156.6 129.937 156.518 129.764 156.518H129.229C129.147 156.518 129.065 156.534 128.999 156.567L126.513 157.749C126.324 157.84 126.208 158.022 126.2 158.236C126.159 160.12 124.924 163.492 124.447 164.723C119.129 163.079 113.227 162.525 113.161 162.525C112.856 162.5 112.593 162.723 112.568 163.021C112.543 163.327 112.766 163.591 113.062 163.616C113.12 163.616 119.277 164.194 124.595 165.921C124.866 166.012 125.163 165.872 125.27 165.607C125.344 165.417 127.081 161.178 127.278 158.6L128.999 157.774C128.258 160.327 126.743 165.012 125.55 166.558C124.01 166.219 117.54 164.822 115.762 164.574C115.457 164.533 115.186 164.74 115.145 165.045C115.103 165.343 115.309 165.624 115.614 165.665C117.557 165.93 125.558 167.69 125.64 167.706C125.681 167.715 125.714 167.723 125.756 167.723H125.747Z" fill="#0F0F14"/>
<path d="M126.181 173.21C127.326 173.21 128.314 172.97 129.153 172.491C131.014 171.433 132.084 169.26 132.413 165.855C132.429 165.632 132.808 160.765 130.808 156.906C132.347 155.46 136.298 150.7 133.928 141.643C134.94 140.825 137.451 138.594 139.838 134.909C142.621 130.612 145.765 123.431 144.884 113.638C143.353 96.5412 135.352 90.8228 134.784 90.4345C134.166 89.98 124.198 82.7412 105.89 78.4524C88.142 74.2959 74.9134 76.2543 73.7363 76.4444C72.9049 76.4278 66.4264 76.4031 60.9934 79.0308C60.4501 79.2953 59.8327 79.4605 59.1823 79.5266C57.75 79.6671 56.7457 80.0886 56.1942 80.7744C55.9555 81.0719 55.8073 81.419 55.7497 81.7909C55.1981 82.1627 54.6054 82.8403 54.6384 83.898C54.6548 84.4847 54.9265 84.931 55.2722 85.2532C54.9018 85.8813 54.7948 86.6498 55.2475 87.3357C55.7085 88.038 56.9844 88.286 61.479 88.8148C62.7467 88.9636 64.2202 89.1371 65.2245 89.3189C64.5331 90.294 63.858 91.4839 63.9568 92.2607C64.0144 92.74 64.1709 93.4258 64.78 93.8473C65.4962 94.3266 66.4346 94.153 67.0767 93.9795C68.2539 93.6572 71.2173 91.988 74.2467 90.2361C74.2631 90.2279 74.2878 90.2113 74.3043 90.2031C74.3784 90.4758 74.4525 90.7567 74.5101 90.9633C74.7159 91.7484 74.7406 91.8145 74.79 91.9219C74.9464 92.2359 74.9793 92.2937 78.3297 93.7316C76.8232 96.4999 71.9335 105.557 70.5423 109.242C67.9575 108.771 59.2235 107.647 53.881 112.862C47.5672 119.026 52.1359 130.595 55.5768 136.107C55.4369 136.884 54.9265 139.272 53.4694 143.329C52.2594 146.692 51.7078 148.932 52.4569 150.444C52.745 151.022 53.1978 151.46 53.8481 151.791C53.5847 152.411 53.5847 152.543 53.5847 152.667C53.5847 153.27 55.2969 156.179 57.1985 156.46C57.3796 156.485 57.5689 156.451 57.7335 156.361C58.4991 155.914 76.5598 145.345 83.0712 140.346C83.2605 140.197 83.3758 139.982 83.3923 139.743C83.4746 138.445 83.1288 136.173 81.4166 135.404L81.0379 134.446C84.0343 136.305 89.9037 139.61 97.2136 142.073C97.9297 142.775 101.511 146.304 104.309 150.105C103.824 151.014 102.902 152.973 103.033 154.361C103.215 156.278 109.866 166.789 119.234 171.26C122.008 172.582 124.313 173.243 126.198 173.243L126.181 173.21ZM133.854 91.7897C133.952 91.8558 141.764 97.3097 143.246 113.787C144.843 131.57 132.635 140.569 132.512 140.66C132.232 140.858 132.108 141.222 132.199 141.552C135.072 151.642 129.515 155.873 129.277 156.055C128.931 156.311 128.84 156.782 129.054 157.146C131.162 160.633 130.775 165.657 130.775 165.707C130.503 168.533 129.705 170.285 128.346 171.061C126.626 172.036 123.794 171.598 119.917 169.747C111.101 165.533 104.828 155.509 104.647 154.171C104.556 153.245 105.412 151.386 105.972 150.436C106.137 150.155 106.12 149.799 105.931 149.535C102.696 145.031 98.3825 140.908 98.2014 140.734C98.1108 140.652 98.012 140.586 97.8968 140.553C87.3518 137.024 79.869 131.711 79.7949 131.661C79.4986 131.446 79.1035 131.463 78.8153 131.686C78.5272 131.909 78.4284 132.297 78.5602 132.636L80.0172 136.338C80.1077 136.578 80.3135 136.76 80.5605 136.826C81.5401 137.098 81.7212 138.578 81.7459 139.272C75.5144 143.957 59.5692 153.361 57.1985 154.757C56.4576 154.435 55.585 153.196 55.2722 152.617C55.371 152.378 55.5356 151.997 55.6838 151.692C55.7826 151.477 55.7908 151.229 55.692 151.006C55.5933 150.783 55.4121 150.617 55.1817 150.551C54.2926 150.279 54.0374 149.956 53.9139 149.7C53.3953 148.667 54.1774 146.18 55.0006 143.883C56.8774 138.668 57.2314 136.14 57.2396 136.032C57.2643 135.842 57.2232 135.644 57.1161 135.479C53.3953 129.669 49.7651 119.158 55.017 114.035C60.5571 108.622 70.7893 110.961 70.888 110.986C71.3079 111.085 71.7359 110.837 71.8594 110.424C72.8472 107.085 80.116 93.8638 80.1901 93.7316C80.3053 93.525 80.3218 93.2854 80.2477 93.0622C80.1736 92.8391 80.009 92.6656 79.7949 92.5747C78.3791 91.9715 76.8068 91.2773 76.2058 90.9881C76.1647 90.8476 76.1235 90.6824 76.0824 90.5336C75.9836 90.1535 75.8601 89.7073 75.7613 89.3519C75.572 88.6826 75.4238 88.1537 74.7653 88.1537C74.6061 88.1537 74.1534 88.3686 73.407 88.7983C71.8594 89.6907 67.7599 92.0706 66.6239 92.3764C65.8748 92.583 65.6773 92.4673 65.6691 92.4673C65.6691 92.4673 65.6032 92.4012 65.5538 92.0458C65.5703 91.707 66.3523 90.4345 67.2249 89.3519C67.3813 89.1536 67.4389 88.8974 67.3895 88.6578C67.3319 88.4099 67.1673 88.2033 66.945 88.0959C66.1794 87.724 64.4343 87.5009 61.6519 87.1704C59.882 86.9638 57.2479 86.6498 56.5811 86.3523C56.5728 86.1374 56.9186 85.7656 57.0091 85.6912C57.2396 85.5012 57.3549 85.1954 57.2972 84.8979C57.2396 84.6004 57.0338 84.3608 56.7457 84.2616C56.6552 84.2286 56.2765 84.0468 56.2683 83.8319C56.2518 83.2948 56.721 83.0965 56.8198 83.0634C57.1738 82.9312 57.4043 82.5676 57.3631 82.1958C57.3384 81.9809 57.396 81.8817 57.4619 81.7991C57.7088 81.4851 58.4086 81.2455 59.3305 81.1546C60.1784 81.0719 60.9687 80.8488 61.6931 80.5017C67.0273 77.9153 73.6951 78.0805 73.761 78.0805C73.8186 78.0805 73.868 78.0805 73.9256 78.0723C74.0573 78.0475 87.3436 75.7998 105.503 80.0473C123.654 84.2947 133.705 91.6905 133.812 91.7649C133.821 91.7731 133.837 91.7814 133.845 91.7897H133.854Z" fill="#0F0F14"/>
<path d="M121.508 160.039C126.563 160.039 130.086 157.502 130.25 157.378C130.613 157.114 130.695 156.593 130.432 156.229C130.168 155.866 129.65 155.783 129.287 156.048C129.287 156.048 125.221 158.956 119.854 158.287C114.412 157.609 105.917 149.495 105.835 149.412C105.505 149.098 104.987 149.106 104.674 149.437C104.361 149.767 104.369 150.288 104.699 150.602C105.061 150.949 113.671 159.18 119.656 159.915C120.29 159.998 120.916 160.031 121.508 160.031V160.039Z" fill="#0F0F14"/>
<path d="M97.4443 142.131C105.215 143.883 117.777 145.329 125.268 142.503C125.334 142.478 125.317 142.362 125.235 142.37C122.905 142.552 120.625 142.717 118.328 142.792C113.735 142.866 109.134 142.453 104.59 141.767C102.326 141.42 100.029 141.015 97.7982 140.528C96.7528 140.329 96.3988 141.85 97.436 142.131H97.4443Z" fill="#0F0F14"/>
<path d="M79.3065 133.149C79.5452 133.149 79.7839 133.041 79.9485 132.843C80.2284 132.488 80.179 131.967 79.8251 131.686C79.6933 131.579 69.8645 123.439 71.8895 110.308C71.9554 109.862 71.6508 109.441 71.2063 109.366C70.7618 109.3 70.3419 109.606 70.2679 110.052C68.0946 124.166 78.6891 132.876 78.7961 132.967C78.9442 133.091 79.1254 133.149 79.3065 133.149Z" fill="#0F0F14"/>
<path d="M79.2125 94.0947C89.0413 97.5985 99.1089 101.499 108.715 105.49C108.781 105.523 108.847 105.416 108.781 105.374C106.625 103.788 104.246 102.59 101.842 101.458C97.0427 99.2098 92.1447 97.2018 87.1974 95.293C84.7278 94.3344 82.25 93.4254 79.7475 92.5495C78.735 92.2272 78.1999 93.7064 79.2042 94.103L79.2125 94.0947Z" fill="#0F0F14"/>
<path d="M132.99 142.015C133.138 142.015 133.286 141.965 133.41 141.874C133.575 141.75 137.402 138.759 139.452 135.247C139.576 135.04 139.576 134.784 139.469 134.578C139.287 134.247 134.999 126.364 124.355 119.356C118.115 115.249 110.986 112.324 103.166 110.647C93.4113 108.556 82.5452 108.424 70.8807 110.25C70.5761 110.299 70.3374 110.547 70.3045 110.853C70.288 111.002 69.9422 114.497 70.6502 118.927C70.7078 119.282 71.0289 119.521 71.3746 119.505C71.531 119.497 87.4926 118.34 104.681 123.546C121.778 128.719 132.364 141.635 132.463 141.767C132.595 141.932 132.793 142.023 132.998 142.023L132.99 142.015ZM138.069 134.892C136.554 137.313 134.118 139.494 133.081 140.379C130.874 137.858 120.601 126.926 105.076 122.232C89.5835 117.547 75.0707 117.943 71.9097 118.1C71.4898 115.092 71.5639 112.572 71.6298 111.522C97.3132 107.63 114.024 114.225 123.54 120.464C132.71 126.479 137.139 133.322 138.077 134.892H138.069Z" fill="#0F0F14"/>
<path d="M75.2585 91.2772C75.2585 91.2772 75.3243 91.2772 75.3573 91.2772C75.7277 91.2276 75.9911 90.8806 75.9335 90.5005C75.9335 90.4426 75.135 84.7987 74.4764 77.2045C74.4435 76.8244 74.106 76.5517 73.7356 76.5847C73.3569 76.6178 73.0853 76.9483 73.1182 77.3285C73.7767 84.9557 74.5752 90.6409 74.5835 90.6905C74.6329 91.0293 74.921 91.2772 75.2585 91.2772Z" fill="#0F0F14"/>
<path d="M61.4319 78.9559C60.0654 79.5839 58.7812 80.2284 57.5382 81.1044C57.176 81.3853 56.8797 81.6002 56.5916 82.0216C56.3281 82.3604 56.2705 83.0132 56.6409 83.352C57.2007 83.8726 57.9745 83.8478 58.6331 83.9057C60.0572 83.9801 61.5224 83.7983 62.9219 83.8396C63.9262 83.9883 64.9222 84.542 66.0006 84.6246C66.7579 84.7155 67.5317 84.6411 68.2232 84.385C68.2808 84.3684 68.2726 84.2775 68.2067 84.2693C67.4741 84.2032 66.7991 84.104 66.1405 83.8974C65.0786 83.6165 64.1731 83.0215 63.0371 82.7901C61.2261 82.5505 59.3492 82.8893 57.5958 82.4265C57.5547 82.41 57.5465 82.3935 57.5958 82.4265C57.6123 82.443 57.6535 82.4926 57.6782 82.5587C57.7029 82.6248 57.7029 82.7157 57.6946 82.7405C57.6782 82.8149 57.6782 82.7984 57.6946 82.7736C58.8635 81.6332 60.4935 80.9721 61.9834 80.2036C62.7902 79.807 62.2468 78.6088 61.4154 78.9559H61.4319Z" fill="#0F0F14"/>
<path d="M56.4593 85.7321C57.6447 85.8809 58.8383 85.8643 60.0237 85.8148C60.4189 85.7982 60.8222 85.7404 61.242 85.4925C61.2832 85.4677 61.2914 85.4099 61.2503 85.3768C60.5423 84.7984 59.7438 84.8231 58.9289 84.6331C58.1469 84.5009 57.3648 84.3934 56.5664 84.3604C55.702 84.3521 55.6032 85.5999 56.4593 85.7239V85.7321Z" fill="#0F0F14"/>
<path d="M54.4884 153.031C54.6037 153.031 54.7189 153.006 54.8177 152.94C55.7068 152.444 76.6075 140.661 81.2255 136.537C81.5054 136.289 81.5301 135.851 81.2832 135.57C81.0362 135.289 80.5999 135.265 80.32 135.512C75.8172 139.537 54.3732 151.626 54.1592 151.742C53.8299 151.924 53.7147 152.345 53.8958 152.676C54.0192 152.899 54.2497 153.023 54.4884 153.023V153.031Z" fill="#0F0F14"/>
<path d="M56.3601 136.999C56.4753 136.999 56.5988 136.966 56.7058 136.9C57.1009 136.668 66.1971 131.281 70.0085 128.413L77.6147 131.595C77.9605 131.743 78.3638 131.578 78.512 131.223C78.6602 130.876 78.4955 130.471 78.1416 130.322L70.1731 126.992C69.9426 126.901 69.6874 126.934 69.4899 127.083C65.9666 129.818 56.1131 135.652 56.0143 135.718C55.6933 135.908 55.578 136.33 55.7756 136.66C55.8991 136.875 56.1296 136.999 56.3683 136.999H56.3601Z" fill="#0F0F14"/>
<path d="M70.2222 127.025C69.3579 126.521 68.4277 126.157 67.4893 125.827C67.1765 125.711 66.839 125.645 66.4191 125.736C66.378 125.744 66.3533 125.786 66.3615 125.827C66.5179 126.232 66.7813 126.48 67.053 126.67C67.8597 127.256 68.6911 127.818 69.5966 128.24C70.3787 128.579 70.9467 127.471 70.2305 127.025H70.2222Z" fill="#0F0F14"/>
<path d="M126.08 170.822C129.455 170.822 131.719 168.252 131.818 168.137C132.065 167.847 132.032 167.418 131.752 167.17C131.464 166.922 131.036 166.955 130.789 167.236C130.789 167.236 128.55 169.756 125.496 169.417C122.211 169.054 110.045 162.385 104.933 151.684C104.768 151.345 104.365 151.196 104.019 151.362C103.681 151.527 103.533 151.932 103.698 152.279C108.966 163.319 121.413 170.343 125.34 170.781C125.595 170.806 125.842 170.822 126.08 170.822Z" fill="#0F0F14"/>
<path d="M74.7785 111.077C74.9514 111.077 75.1325 111.011 75.2642 110.87C75.363 110.771 84.8955 101.086 91.3246 98.2604C91.6703 98.1116 91.8267 97.7067 91.6785 97.3596C91.5304 97.0126 91.127 96.8556 90.7813 97.0043C84.1052 99.9378 74.688 109.507 74.2928 109.912C74.0294 110.185 74.0294 110.614 74.2928 110.879C74.4245 111.011 74.5974 111.077 74.7703 111.077H74.7785Z" fill="#0F0F14"/>
<path d="M71.9164 108.729C72.1139 108.729 72.3115 108.638 72.4515 108.473C72.5255 108.382 80.0165 99.0607 86.1081 96.2594C86.4539 96.1024 86.602 95.6975 86.4456 95.3504C86.2892 95.0034 85.8859 94.8546 85.5401 95.0116C79.1522 97.9534 71.7024 107.225 71.3895 107.613C71.1508 107.911 71.2002 108.341 71.4966 108.58C71.62 108.679 71.7765 108.729 71.9246 108.729H71.9164Z" fill="#0F0F14"/>
<path d="M93.7118 110.648C93.7118 110.648 95.9756 108.301 98.8238 108.797C101.672 109.293 102.182 113.053 102.182 113.053C102.182 113.053 105.92 114.11 108.521 118.126C111.122 122.143 111.674 126.836 119.074 129.282C119.074 129.282 117.403 137.025 113.123 137.389C113.123 137.389 107.657 134.976 105.64 129.952C103.631 124.927 101.787 121.2 99.8117 120.267C99.8117 120.267 94.9796 124.638 91.5222 120.597C91.5222 120.597 88.8386 120.895 86.0398 117.416C86.0398 117.416 85.266 119.54 88.2788 125.101C91.2917 130.654 95.21 134.083 95.21 134.083C95.21 134.083 90.2874 135.364 86.8794 135.562C86.8794 135.562 75.4206 123.77 84.1217 111.441C84.1217 111.441 83.0516 108.318 86.1468 106.293C89.2419 104.269 92.971 108.326 93.7201 110.64L93.7118 110.648Z" fill="#742DD2"/>
<path d="M113.112 138.075C113.112 138.075 113.153 138.075 113.17 138.075C117.903 137.67 119.665 129.771 119.731 129.432C119.805 129.085 119.607 128.746 119.278 128.638C113.853 126.837 112.322 123.846 110.7 120.664C110.206 119.706 109.704 118.706 109.087 117.755C106.864 114.318 103.868 112.938 102.773 112.533C102.526 111.434 101.645 108.591 98.9369 108.12C96.7719 107.748 94.9444 108.79 93.9731 109.525C93.1087 107.864 91.3636 106.013 89.462 105.344C88.1449 104.881 86.8607 105.013 85.7659 105.732C83.1976 107.41 83.0411 109.946 83.3704 111.326C78.9088 117.855 79.9295 124.193 81.5923 128.391C83.4033 132.952 86.2598 135.927 86.3833 136.051C86.5232 136.191 86.7126 136.266 86.9101 136.257C90.351 136.059 95.1749 134.811 95.3725 134.753C95.6194 134.687 95.8088 134.497 95.8664 134.249C95.924 134.001 95.8417 133.745 95.6524 133.572C95.6112 133.539 91.7916 130.151 88.8775 124.779C87.437 122.119 86.9019 120.301 86.7208 119.16C88.6882 120.978 90.4745 121.259 91.2236 121.292C92.2032 122.333 93.3639 122.904 94.681 122.986C96.953 123.135 99.0439 121.747 99.8835 121.094C101.678 122.325 103.473 126.358 105.012 130.209C107.103 135.431 112.618 137.91 112.849 138.018C112.939 138.059 113.03 138.075 113.12 138.075H113.112ZM118.249 129.729C117.78 131.432 116.207 136.257 113.227 136.687C112.338 136.249 107.959 133.927 106.263 129.696C104.148 124.416 102.295 120.689 100.089 119.648C99.8424 119.532 99.546 119.573 99.3402 119.755C99.3155 119.772 97.0682 121.771 94.7469 121.614C93.7014 121.548 92.8124 121.069 92.0303 120.152C91.8822 119.978 91.6599 119.896 91.4377 119.92C91.3471 119.92 89.0586 120.094 86.5562 116.987C86.3997 116.797 86.1528 116.698 85.9141 116.739C85.6753 116.78 85.4695 116.946 85.3872 117.177C85.2967 117.425 84.597 119.755 87.6675 125.424C89.8489 129.44 92.4584 132.34 93.8167 133.712C92.2361 134.084 89.3879 134.687 87.1406 134.861C86.4574 134.101 84.2677 131.465 82.8354 127.837C80.5881 122.127 81.2054 116.747 84.6628 111.847C84.7863 111.665 84.8192 111.434 84.7534 111.227C84.7205 111.12 83.9137 108.575 86.5068 106.881C87.2476 106.393 88.0873 106.311 89.0092 106.641C90.9602 107.327 92.6395 109.575 93.0676 110.864C93.1416 111.095 93.331 111.26 93.5615 111.318C93.792 111.368 94.0389 111.302 94.2036 111.128C94.2447 111.087 96.2698 109.054 98.7064 109.475C101.02 109.88 101.497 113.12 101.505 113.153C101.546 113.425 101.736 113.648 101.999 113.715C102.032 113.723 105.531 114.764 107.943 118.499C108.519 119.392 109.013 120.358 109.49 121.284C111.104 124.449 112.775 127.721 118.249 129.721V129.729Z" fill="#0F0F14"/>
<path d="M91.5102 121.284C91.5842 121.284 91.6501 121.275 91.7242 121.251C92.0864 121.135 92.2757 120.747 92.1605 120.383C90.5059 115.342 94.1773 111.136 94.2184 111.095C94.4736 110.814 94.4489 110.376 94.1608 110.128C93.8809 109.872 93.4446 109.897 93.1977 110.186C93.0248 110.384 88.9665 115.028 90.8598 120.813C90.9586 121.102 91.222 121.284 91.5102 121.284Z" fill="#0F0F14"/>
<path d="M86.0289 118.111C86.1441 118.111 86.2676 118.078 86.3746 118.02C86.7039 117.83 86.8109 117.409 86.6215 117.087C86.6215 117.087 85.1316 114.484 84.7858 111.385C84.7447 111.005 84.4072 110.74 84.0285 110.782C83.6499 110.823 83.3864 111.162 83.4276 111.542C83.8063 114.938 85.3703 117.665 85.4362 117.781C85.5596 117.996 85.7901 118.12 86.0289 118.12V118.111Z" fill="#0F0F14"/>
<path d="M99.8001 120.953C99.9648 120.953 100.121 120.895 100.253 120.78C103.356 118.011 102.879 113.186 102.854 112.979C102.813 112.599 102.475 112.326 102.105 112.367C101.726 112.409 101.463 112.748 101.496 113.119C101.496 113.161 101.916 117.458 99.3474 119.747C99.0675 119.995 99.0428 120.433 99.2897 120.714C99.4215 120.862 99.6108 120.945 99.8001 120.945V120.953Z" fill="#0F0F14"/>
<path d="M2.43726 78.4033C8.29011 77.7009 14.2006 77.6678 20.0534 78.4033C20.0946 78.4033 20.1111 78.3454 20.0699 78.3372C17.2299 77.3951 14.2088 77.2381 11.2454 77.139C8.26542 77.0811 5.28548 77.2133 2.33024 77.6017C1.8034 77.6844 1.90219 78.4776 2.43726 78.4198V78.4033Z" fill="white"/>
<path d="M8.16054 80.304C9.40355 80.1056 10.6713 79.9321 11.9225 79.8082C13.1984 79.6512 14.4497 79.7007 15.7339 79.4941C15.7668 79.4941 15.775 79.4363 15.7339 79.428C14.4826 78.9983 13.1655 79.0644 11.8731 79.081C10.5725 79.1306 9.2883 79.2462 8.00413 79.4941C7.78187 79.5355 7.6337 79.7503 7.67486 79.9734C7.71602 80.1965 7.93005 80.3453 8.15231 80.304H8.16054Z" fill="white"/>
<path d="M13.064 81.9001C14.1588 81.6026 15.3277 81.5778 16.4637 81.553C17.6574 81.5117 18.8592 81.6853 20.0528 81.52C20.0858 81.52 20.094 81.4621 20.0611 81.4539C18.9168 80.9829 17.6985 80.925 16.4802 80.8258C15.4101 80.7597 14.307 80.768 13.2533 80.9994C12.9323 81.0655 12.3478 81.1894 12.5125 81.677C12.5948 81.9001 12.85 81.9993 13.064 81.9084V81.9001Z" fill="white"/>
<path d="M33.9367 82.1378C38.0033 84.1624 41.8558 86.5753 45.272 89.5915C45.2967 89.6163 45.3461 89.5749 45.3214 89.5501C44.029 87.6082 42.1027 86.2282 40.2423 84.8895C38.3408 83.5756 36.3569 82.4105 34.2825 81.4023C33.7968 81.1792 33.451 81.9064 33.9285 82.1461L33.9367 82.1378Z" fill="white"/>
<path d="M34.9648 85.3948C35.0553 85.6179 35.3187 85.7501 35.5081 85.8906C36.3971 86.4856 37.352 87.1301 38.2081 87.7664C39.2371 88.5019 40.1014 89.3696 41.1304 90.1298C41.1551 90.1546 41.1963 90.1215 41.1798 90.0885C40.9082 89.4852 40.5048 88.9812 40.0603 88.5101C38.8337 87.2458 37.4343 86.1633 35.969 85.1965C35.895 85.1469 35.7303 85.0395 35.6562 84.9899C35.6809 85.0064 35.7385 85.0808 35.7468 85.1386C35.5739 84.6263 34.8084 84.8825 34.973 85.3948H34.9648Z" fill="white"/>
<path d="M52.4468 103.268C52.1175 104.722 51.2202 106.044 50.183 107.11C48.6601 108.722 46.6598 109.804 44.6183 110.672C43.6387 111.027 42.4286 111.465 41.4161 111.697C39.2511 112.3 36.9709 112.564 34.7647 112.978C34.7236 112.978 34.7236 113.052 34.7647 113.044C36.123 113.019 37.5142 113.002 38.8559 112.779C40.1813 112.614 41.6136 112.283 42.8896 111.961C43.3341 111.821 44.4371 111.465 44.857 111.325L45.4991 111.052C48.8659 109.713 52.4138 107.119 53.2452 103.375C53.3193 102.83 52.5044 102.714 52.4303 103.268H52.4468Z" fill="white"/>
<path d="M49.171 102.086C48.7018 102.673 48.2408 103.285 47.7798 103.888C47.3189 104.524 46.7838 105.02 46.4133 105.731C46.3969 105.755 46.4298 105.797 46.4545 105.78C46.8579 105.665 47.1871 105.425 47.4752 105.169C48.3478 104.392 49.1381 103.524 49.8296 102.574C49.9613 102.392 49.9201 102.136 49.7308 102.004C49.5497 101.872 49.3027 101.913 49.171 102.086Z" fill="white"/>
<path d="M42.8214 107.228C41.6772 107.558 40.5 107.856 39.3311 108.104C38.1375 108.385 36.9603 108.451 35.7585 108.748C35.7256 108.748 35.7256 108.806 35.7585 108.814C36.9768 109.153 38.2281 108.963 39.4546 108.814C40.6812 108.641 41.883 108.385 43.0684 108.004C43.5788 107.831 43.34 107.071 42.8214 107.219V107.228Z" fill="white"/>
<path d="M45.2086 100.797C42.4509 103.219 38.8124 104.557 35.1657 104.673C34.6307 104.722 34.0956 104.698 33.5605 104.756C33.5276 104.756 33.5194 104.813 33.5605 104.822C36.7545 105.615 40.2036 104.822 43.0766 103.301C44.0644 102.764 44.9617 102.161 45.7931 101.384C45.9577 101.227 45.9659 100.971 45.8095 100.806C45.6531 100.64 45.3815 100.64 45.2251 100.806L45.2086 100.797Z" fill="white"/>
<path d="M12.1367 106.622C10.9349 105.985 9.79062 105.233 8.67109 104.482C5.2631 102.126 2.01151 99.3581 0.0687933 95.6231C0.0523291 95.59 -0.0052948 95.6065 0.00293636 95.6478C0.719109 98.4409 2.84294 100.606 4.88444 102.515C6.86832 104.291 9.03329 105.845 11.3464 107.151C11.5028 107.233 11.7251 107.357 11.8898 107.415C12.252 107.572 12.5812 107.085 12.3013 106.804L12.1367 106.63V106.622Z" fill="white"/>
<path d="M12.6204 102.624C8.71852 100.376 4.9154 97.0707 3.72178 92.5423C3.54891 91.906 3.43367 91.2532 3.34312 90.5838C3.34312 90.5673 3.32665 90.5508 3.30196 90.5508C3.15379 91.1953 3.21964 91.9473 3.30196 92.6332C3.623 94.6825 4.66845 96.5501 5.93615 98.1615C7.22856 99.7646 8.78437 101.136 10.4719 102.285C11.0399 102.665 11.6079 103.029 12.2335 103.359C12.4311 103.467 12.678 103.384 12.7851 103.186C12.8921 102.979 12.8098 102.731 12.604 102.632L12.6204 102.624Z" fill="white"/>
<path d="M14.0044 98.1113C12.0287 97.2106 10.1025 95.8967 8.89238 94.0457C8.49725 93.4176 8.21737 92.7566 7.89633 92.0376C7.8881 92.0046 7.83048 92.0129 7.83048 92.0459C7.85517 95.2191 11.0244 97.7229 13.6998 98.8716C14.2019 99.0616 14.4983 98.3179 14.0044 98.103V98.1113Z" fill="white"/>
<path d="M13.6447 88.5017L15.2582 84.9732C16.0237 82.9321 22.3623 83.4527 29.417 86.1301C36.4717 88.8074 41.5672 92.6252 40.7934 94.6662C40.7276 94.8398 40.6206 94.9968 40.4724 95.129L38.2333 98.4013C37.9205 98.8641 37.3937 99.1285 36.8421 99.1285C25.1693 99.0624 16.8963 93.0053 14.1222 90.6419C13.5048 90.1213 13.3155 89.2454 13.653 88.5099L13.6447 88.5017ZM26.1572 91.7988C31.9524 94.3192 36.7104 93.9804 36.7104 93.9804C36.7104 93.9804 30.9399 89.6586 18.7732 87.1795C18.7732 87.1795 20.3619 89.2867 26.1572 91.7988Z" fill="#ADB1C9"/>
<g opacity="0.5">
<path d="M40.2188 93.3091C40.2188 93.3091 34.2753 89.0286 29.9125 87.3181C25.5578 85.6075 17.2189 84.0292 17.2189 84.0292C17.2189 84.0292 21.6394 83.4094 29.9125 86.3099C38.1772 89.2187 40.2188 93.3008 40.2188 93.3008V93.3091Z" fill="white"/>
</g>
<path d="M36.7078 94.3844C36.8313 94.3844 36.9548 94.3265 37.0371 94.2191C37.1688 94.0373 37.1359 93.7811 36.9548 93.6406C36.716 93.4588 30.9702 89.2362 18.8529 86.7654C18.6306 86.7158 18.4166 86.8646 18.3672 87.0877C18.3261 87.3108 18.466 87.5257 18.6883 87.5752C30.608 90.0047 36.4032 94.2604 36.4608 94.3017C36.5349 94.3596 36.6173 94.3844 36.7078 94.3844Z" fill="#0F0F14"/>
<g opacity="0.25">
<path d="M37.7109 96.0452L35.8258 99.0944C35.8258 99.0944 28.6559 98.7061 22.4408 95.8717C16.2258 93.0373 14.1184 90.6326 14.1184 90.6326L15.8883 87.0215C15.8883 87.0215 19.3868 90.9962 26.4168 93.4257C33.4468 95.8552 37.7109 96.0535 37.7109 96.0535V96.0452Z" fill="#0F0F14"/>
</g>
<path d="M36.8472 99.6652C37.5798 99.6652 38.2713 99.3098 38.6829 98.7066L41.243 94.9715C41.4159 94.7236 41.35 94.3765 41.1031 94.2113C40.8561 94.0377 40.5104 94.1038 40.3458 94.3517L37.7856 98.0868C37.5716 98.3926 37.2259 98.5744 36.8472 98.5744C25.4625 98.5083 17.4118 92.7073 14.473 90.22C14.0449 89.8564 13.9132 89.2449 14.1437 88.7326L15.7572 85.2041C15.8806 84.9314 15.7572 84.6008 15.4855 84.4769C15.2139 84.3529 14.8846 84.4769 14.7611 84.7496L13.1477 88.2781C12.7114 89.2366 12.9666 90.377 13.7651 91.0546C16.7944 93.6246 25.1003 99.5991 36.839 99.6652H36.8554H36.8472Z" fill="#0F0F14"/>
<path d="M35.4211 94.5175C36.7794 94.5175 37.7425 94.2117 38.0142 93.4845C38.7221 91.6087 34.0793 88.7248 29.132 86.849C26.5472 85.8656 24.0035 85.2045 21.9867 84.9814C19.7394 84.7335 18.4306 85.0558 18.093 85.9317C17.7638 86.8076 18.5376 87.9149 20.3815 89.2288C22.0443 90.4023 24.3822 91.5839 26.967 92.5673C30.0128 93.7242 33.2232 94.5175 35.4047 94.5175H35.4211ZM20.6779 85.7251C21.0318 85.7251 21.4434 85.7499 21.9044 85.7995C23.8553 86.0143 26.3167 86.6589 28.8439 87.6175C34.4498 89.7412 37.5696 92.3442 37.2486 93.1953C36.9275 94.0464 32.8857 93.9308 27.2716 91.7988C24.7444 90.8402 22.4724 89.6916 20.8672 88.5512C19.2949 87.4439 18.7351 86.5845 18.8668 86.2209C18.9738 85.9482 19.5665 85.7251 20.6779 85.7251Z" fill="#0F0F14"/>
<path d="M37.3427 96.4504C39.5406 96.4504 40.8989 95.905 41.3022 94.8473C41.7714 93.5912 40.7589 91.9798 38.3635 90.1867C36.1738 88.5422 33.0621 86.9226 29.6048 85.6087C23.1674 83.1627 15.7752 82.0471 14.7462 84.7741C13.7173 87.501 20.0064 91.5749 26.4437 94.0127C29.9011 95.3266 33.3009 96.1694 36.0256 96.3925C36.4948 96.4339 36.9311 96.4504 37.3427 96.4504ZM18.7058 84.2783C21.093 84.2783 24.7727 84.9476 29.2179 86.6334C32.5847 87.9059 35.5976 89.4843 37.7049 91.0626C39.9193 92.7236 40.4873 93.9052 40.2815 94.4589C40.0757 95.0125 38.8656 95.5249 36.1162 95.2935C33.4902 95.0786 30.1975 94.2606 26.8306 92.9797C19.2326 90.0958 15.2731 86.4764 15.767 85.1542C15.9728 84.6005 17.0182 84.27 18.7058 84.27V84.2783Z" fill="#0F0F14"/>
<g opacity="0.25">
<path d="M37.2625 92.3605C37.2625 92.3605 34.9823 89.8731 30.9157 88.0221C26.8492 86.1711 23.6223 85.6257 22.1817 85.4191C20.7412 85.2125 18.8231 85.0803 18.5597 85.9397C18.2963 86.7991 19.21 87.2701 19.21 87.2701C19.21 87.2701 23.293 88.1048 27.1291 89.303C30.9651 90.5012 36.1594 93.443 36.2335 93.5008C36.3076 93.5587 36.9168 93.9305 37.0403 93.8727C37.1637 93.8148 37.5918 93.5256 37.6329 93.3438C37.6741 93.162 37.707 92.7241 37.707 92.7241L37.2543 92.3605H37.2625Z" fill="#0F0F14"/>
</g>
<path d="M33.5547 97.6749L11.8802 107.616L15.4528 91.1055C15.4528 91.1055 23.874 93.0639 24.9442 93.3118C26.0143 93.5597 33.5547 97.6749 33.5547 97.6749Z" fill="#ADB1C9"/>
<g opacity="0.25">
<path d="M26.8197 94.1372C26.8197 94.1372 13.6487 107.227 14.1097 107.061C14.5707 106.896 33.043 97.393 33.043 97.393L26.8115 94.1289L26.8197 94.1372Z" fill="#0F0F14"/>
</g>
<path d="M22.9592 84.2209L33.9488 81.7666L36.8711 89.8152C36.8711 89.8152 31.9484 85.6835 22.9675 84.2209H22.9592Z" fill="#ADB1C9"/>
<path d="M19.582 83.7509L2.37743 77.9912L14.5606 89.7088C14.5606 89.7088 13.6222 85.6845 15.1368 84.5855C16.8573 83.3377 19.582 83.7509 19.582 83.7509Z" fill="#ADB1C9"/>
<path d="M36.3425 98.2538L52.6992 103.328L39.1743 91.4199C39.1743 91.4199 40.8536 92.9983 40.4667 95.122C40.0798 97.2457 36.3425 98.2456 36.3425 98.2456V98.2538Z" fill="#ADB1C9"/>
<g opacity="0.5">
<path d="M50.191 101.858C50.0593 101.544 44.8321 97.6266 44.8321 97.6266L41.3665 99.7421L40.4692 99.5355L43.5562 97.263L40.5186 94.6353C40.5186 94.6353 40.1893 92.7181 40.4692 92.7594C40.7491 92.8008 41.5311 93.3131 41.5311 93.3131L50.9648 102.039L50.191 101.858Z" fill="white"/>
</g>
<g opacity="0.5">
<path d="M35.818 89.1294L33.0603 83.0309C33.0603 83.0309 24.7791 83.8077 24.8284 83.7994C24.8778 83.7911 33.5048 81.8657 33.5542 81.8492C33.6036 81.8327 34.328 82.1715 34.328 82.1715L36.707 89.3773L35.818 89.1294Z" fill="white"/>
</g>
<g opacity="0.5">
<path d="M13.058 106.747L15.4535 100.087C15.7087 100.12 18.9685 99.9795 18.9685 99.9795L20.1292 98.9714L15.684 98.7896L16.1121 97.2774L21.5204 97.5088L22.7305 96.2362L16.3755 95.947L17.2316 91.2285H15.33C15.33 91.2285 11.9056 106.904 12.0208 107.004C12.1361 107.103 12.6053 107.004 12.6053 107.004L13.0663 106.739L13.058 106.747Z" fill="white"/>
</g>
<g opacity="0.5">
<path d="M15.2101 83.727L11.5716 82.4049V86.644L10.1887 85.264C10.1887 85.264 9.9335 81.7025 9.89234 81.6859C9.85118 81.6694 5.84226 79.9589 5.84226 79.9589C5.84226 79.9589 5.85873 79.1573 6.33618 79.3143C6.81363 79.4713 17.6303 83.0907 17.6303 83.0907L17.6797 83.7188L15.9839 83.9667L15.2019 83.7188L15.2101 83.727Z" fill="white"/>
</g>
<path d="M36.8633 90.3614C36.9703 90.3614 37.0855 90.3283 37.1761 90.2622C37.3819 90.1217 37.4642 89.8573 37.3736 89.6259L34.4513 81.5773C34.3608 81.3211 34.0891 81.1724 33.8175 81.2302L22.8279 83.6845C22.5728 83.7423 22.3916 83.9737 22.3999 84.2381C22.3999 84.5025 22.5974 84.7257 22.8609 84.767C31.5702 86.18 36.4599 90.1961 36.5093 90.2374C36.6081 90.32 36.7315 90.3614 36.8633 90.3614ZM33.5952 82.4119L35.752 88.3533C33.9574 87.1964 30.533 85.3454 25.6185 84.1968L33.5952 82.4201V82.4119Z" fill="#0F0F14"/>
<path d="M14.5652 90.2539C14.6557 90.2539 14.7545 90.2291 14.8368 90.1795C15.0509 90.0556 15.1496 89.816 15.1003 89.5763C14.771 88.155 14.5816 85.6677 15.4707 85.0231C16.9854 83.9241 19.4878 84.2877 19.5125 84.2877C19.7924 84.329 20.0558 84.1472 20.1217 83.8745C20.1875 83.6018 20.0311 83.3126 19.7677 83.2299L2.56312 77.4703C2.32439 77.3877 2.05274 77.4868 1.92104 77.7099C1.78933 77.9331 1.82225 78.214 2.01159 78.3875L14.1947 90.1052C14.3018 90.2043 14.4335 90.2539 14.5734 90.2539H14.5652ZM16.6396 83.3456C16.014 83.4944 15.3801 83.7423 14.8286 84.1389C13.7255 84.9405 13.6514 86.7998 13.7832 88.188L4.52231 79.2883L16.6396 83.3456Z" fill="#0F0F14"/>
<path d="M11.8794 108.161C11.9535 108.161 12.0358 108.145 12.1099 108.112L33.7844 98.1709C33.9738 98.0883 34.0972 97.8982 34.1055 97.6916C34.1055 97.485 33.9984 97.2867 33.8173 97.1875C33.0353 96.7661 26.1864 93.031 25.0669 92.7748C23.9967 92.5269 15.5755 90.5685 15.5755 90.5685C15.4356 90.5354 15.2874 90.5685 15.1557 90.6429C15.0322 90.7255 14.9417 90.8494 14.917 90.9899L11.3444 107.5C11.3032 107.707 11.3773 107.914 11.5337 108.046C11.6325 108.128 11.756 108.17 11.8794 108.17V108.161ZM32.3356 97.6338L12.6532 106.666L15.8801 91.7667C17.757 92.2047 23.9226 93.6425 24.8282 93.8491C25.4785 93.9978 29.438 96.072 32.3356 97.6338Z" fill="#0F0F14"/>
<path d="M52.7009 103.872C52.8985 103.872 53.0796 103.764 53.1784 103.591C53.3018 103.368 53.2524 103.078 53.0631 102.913L39.5382 91.0054C39.3159 90.8071 38.9702 90.8319 38.7726 91.0467C38.575 91.2698 38.5833 91.6086 38.8055 91.8152C38.822 91.8317 40.2543 93.22 39.9333 95.0214C39.6699 96.4841 37.1509 97.4674 36.2043 97.7153C35.9655 97.7815 35.8009 97.988 35.8009 98.2359C35.8009 98.4838 35.9491 98.6987 36.1878 98.7731L52.5445 103.847C52.5939 103.863 52.6515 103.872 52.7091 103.872H52.7009ZM41.0117 93.7654L50.4125 102.045L38.04 98.2029C39.2418 97.6492 40.74 96.6824 41.0034 95.2198C41.094 94.6992 41.0858 94.2116 41.0034 93.7654H41.0117Z" fill="#0F0F14"/>
<path d="M30.737 86.8014C30.8687 86.8014 30.9922 86.7436 31.0745 86.6279L34.285 82.0003C34.4167 81.8103 34.3673 81.5541 34.1862 81.4302C34.0051 81.298 33.7417 81.3475 33.6182 81.5293L30.4078 86.1569C30.276 86.3469 30.3254 86.6031 30.5065 86.7271C30.5806 86.7766 30.6629 86.8014 30.737 86.8014Z" fill="#0F0F14"/>
<path d="M15.5095 84.4951C15.6659 84.4951 15.8223 84.4042 15.8882 84.2472C15.9787 84.0406 15.8799 83.7927 15.6741 83.7101L3.46629 78.5123C3.26049 78.4215 3.01354 78.5206 2.93122 78.7272C2.84067 78.9338 2.93945 79.1817 3.14525 79.2643L15.3531 84.4621C15.4025 84.4869 15.4601 84.4951 15.5095 84.4951Z" fill="#0F0F14"/>
<path d="M11.8811 108.028C11.9882 108.028 12.0952 107.987 12.1775 107.904L25.2744 94.1619C25.4308 93.9966 25.4226 93.7405 25.2579 93.5835C25.0933 93.4265 24.8381 93.4347 24.6817 93.6L11.5848 107.342C11.4284 107.507 11.4366 107.764 11.6013 107.921C11.6836 107.995 11.7824 108.036 11.8811 108.036V108.028Z" fill="#0F0F14"/>
<path d="M52.0182 103.525C52.1499 103.525 52.2734 103.459 52.3557 103.343C52.4874 103.153 52.438 102.897 52.2487 102.773L40.7077 94.7822C40.5183 94.65 40.2631 94.6996 40.1397 94.8897C40.0079 95.0797 40.0573 95.3359 40.2467 95.4599L51.7877 103.451C51.8618 103.5 51.9441 103.525 52.0182 103.525Z" fill="#0F0F14"/>
<path d="M12.301 91.3766C11.3379 93.2441 10.7287 95.2521 10.1854 97.2684C10.0126 97.946 9.84792 98.6237 9.73267 99.3178C9.71621 99.3922 9.77383 99.4665 9.84792 99.4748C9.90554 99.483 9.97139 99.45 9.99608 99.4004C10.3089 98.7724 10.5723 98.1278 10.8275 97.475C11.5684 95.5166 12.2516 93.5416 12.5644 91.4592C12.5891 91.3105 12.3751 91.2361 12.301 91.3766Z" fill="#0F0F14"/>
<path d="M17.2871 81.7346C16.0194 80.6273 14.5294 79.834 13.023 79.1068C12.5209 78.8755 12.0105 78.6441 11.4754 78.4623C11.4013 78.4375 11.3272 78.4788 11.3026 78.5532C11.2861 78.611 11.3025 78.6689 11.3437 78.7019C11.78 79.0655 12.2327 79.3878 12.702 79.6935C13.6322 80.305 14.5871 80.867 15.5913 81.3545C16.0935 81.5859 16.6121 81.809 17.1554 81.9743C17.2953 82.0156 17.4024 81.8255 17.2871 81.7346Z" fill="#0F0F14"/>
<path d="M38.5654 89.0629C38.409 87.4846 37.8081 86.0137 37.1331 84.5924C37.0919 84.4767 36.9932 84.3858 36.8697 84.4023C36.5898 84.4437 36.3017 84.4767 36.0218 84.5511C35.9477 84.5676 35.8983 84.642 35.9148 84.7246C35.9312 84.7742 35.9724 84.8155 36.0218 84.832C36.3017 84.8981 36.5898 84.9395 36.8697 84.9808L36.6062 84.7907C36.8697 85.9393 37.2236 87.0632 37.7258 88.1292C37.8987 88.4845 38.0798 88.8316 38.3103 89.1621C38.3843 89.2778 38.5819 89.2117 38.5654 89.0712V89.0629Z" fill="#0F0F14"/>
<path d="M38.6594 102.177C39.0052 102.334 39.5814 102.524 39.9518 102.656C43.0553 103.689 46.241 104.491 49.4679 105.028C49.6243 105.053 49.6901 104.813 49.542 104.763C47.7886 104.094 45.994 103.557 44.1913 103.061C42.372 102.574 40.5363 102.111 38.6594 101.904C38.5195 101.888 38.4701 102.094 38.6018 102.152L38.6594 102.177Z" fill="#0F0F14"/>
<g opacity="0.3">
<path d="M107.821 62.4508C107.821 62.4508 110.085 68.665 114.052 71.3919C118.827 74.6725 128.079 75.9121 132.204 72.4001C136.328 68.8881 136.871 59.2942 136.871 59.2942C137.398 55.7244 135.307 49.0475 124.54 48.6508C113.772 48.2459 108.397 49.4937 106.973 52.2702C105.549 55.0467 107.821 62.4591 107.821 62.4591V62.4508Z" fill="#B8C1E0"/>
</g>
<path d="M123.311 74.919C126.876 75.2082 130.358 74.605 132.515 72.7622C136.746 69.1511 137.322 59.7224 137.347 59.3175C137.363 59.0531 137.157 58.8217 136.894 58.8134C136.631 58.7969 136.408 59.0035 136.392 59.2679C136.392 59.3588 135.816 68.6966 131.897 72.035C128.036 75.3239 119.006 74.2166 114.322 70.9938C110.527 68.3826 108.296 62.3419 108.272 62.2841C108.181 62.0362 107.91 61.904 107.654 61.9949C107.407 62.0858 107.276 62.3585 107.366 62.6064C107.457 62.8625 109.729 68.994 113.779 71.7788C116.248 73.4729 119.813 74.6297 123.303 74.9107L123.311 74.919Z" fill="black"/>
<g opacity="0.3">
<path d="M95.6122 61.4496C95.6122 61.4496 92.377 67.2093 88.0224 69.2586C82.7869 71.7211 73.452 71.4319 69.9452 67.2919C66.4467 63.1519 67.4592 53.5993 67.4592 53.5993C67.5168 49.9882 70.6614 43.7492 81.3463 45.1044C92.0313 46.4596 97.1433 48.5668 98.0982 51.5334C99.0531 54.5 95.6122 61.4413 95.6122 61.4413V61.4496Z" fill="#B8C1E0"/>
</g>
<path d="M64.9481 48.1779L65.8371 45.6658C65.9194 45.4345 66.1252 45.2692 66.364 45.2361C67.8704 45.0378 73.3199 44.3437 76.6291 43.9966C80.4981 43.5917 89.5614 44.3354 93.9325 46.6161C97.7932 48.6324 101.786 48.9712 102.675 49.0208C102.675 49.0208 102.708 49.0208 102.765 49.0208C102.823 49.0208 102.856 49.0208 102.856 49.0208C103.737 49.12 107.737 49.434 111.87 48.0705C116.554 46.5252 125.609 47.269 129.362 48.3019C132.523 49.1696 137.677 50.7148 139.224 51.1776C139.504 51.2602 139.71 51.4916 139.759 51.7808L140.196 54.2268C140.261 54.6152 140.039 54.9871 139.66 55.1027C137.718 55.7142 137.454 58.3751 137.446 59.7303C137.446 60.1104 137.15 60.4492 136.771 60.4657C136.376 60.4823 136.047 60.1765 136.03 59.7881C135.973 58.7304 135.742 56.4745 134.87 54.2929C133.676 51.3015 128.07 49.4009 120.917 48.8142C113.763 48.2275 109.186 51.4668 107.96 54.7392C107.021 57.2513 108.231 61.0855 108.849 62.7217C109.104 63.4076 108.47 64.1265 107.77 63.9034C107.746 63.8951 107.721 63.8868 107.696 63.8786C107.005 63.5811 105.325 57.6644 104.766 55.6895C104.206 53.7145 103.053 53.7806 102.263 53.7062C101.514 53.6401 100.576 53.417 99.703 55.2763C98.8304 57.1356 96.2209 62.6969 95.4883 62.8787C95.4636 62.8787 95.4389 62.887 95.406 62.8952C94.6816 63.0109 94.163 62.1928 94.5334 61.5565C95.406 60.036 97.2252 56.458 96.6984 53.8302C96.0151 50.4008 92.0227 46.4591 84.8692 45.8724C77.7157 45.2857 71.8793 46.2525 70.2165 49.0043C69.0064 51.0123 68.4137 53.2021 68.1832 54.2351C68.1091 54.5821 67.7881 54.8218 67.4341 54.797C67.0225 54.7639 66.7262 54.3838 66.792 53.9706C67.0143 52.6237 67.1954 49.872 65.2856 48.9878C64.981 48.8473 64.8246 48.492 64.9398 48.1697L64.9481 48.1779Z" fill="black"/>
<path d="M78.3163 71.2335C81.8066 71.5227 85.511 70.969 88.2193 69.6964C92.6645 67.6058 95.8914 61.9288 96.0231 61.6891C96.1548 61.4577 96.0725 61.1685 95.842 61.0363C95.6115 60.9041 95.3234 60.9867 95.1917 61.2181C95.1587 61.276 91.9812 66.8703 87.8159 68.8288C82.6792 71.2417 73.5912 70.8699 70.3067 66.986C66.9728 63.0443 67.9195 53.7479 67.936 53.657C67.9606 53.3926 67.7713 53.1529 67.5079 53.1281C67.5079 53.1281 67.5079 53.1281 67.4997 53.1281C67.2445 53.1034 67.014 53.2934 66.9893 53.5578C66.9481 53.9545 65.9932 63.3583 69.5823 67.614C71.418 69.7873 74.7602 70.9525 78.3163 71.2417V71.2335Z" fill="black"/>
<g opacity="0.39">
<path d="M129.746 51.8459C129.746 51.8459 117.291 48.5736 112.089 52.3087C106.886 56.0438 111.562 63.8114 111.562 63.8114C111.562 63.8114 111.381 56.8288 116.468 54.515C121.555 52.2012 129.746 51.8459 129.746 51.8459Z" fill="white"/>
</g>
<g opacity="0.39">
<path d="M89.793 47.8892C89.793 47.8892 78.3425 44.7656 72.399 49.0544C67.2047 52.806 70.4069 61.1852 70.4069 61.1852C70.4069 61.1852 72.0039 54.1695 76.7784 51.2607C82.1785 47.9636 89.793 47.8892 89.793 47.8892Z" fill="white"/>
</g>
<path d="M139.762 51.7951C139.762 51.7951 146.652 51.1175 163.808 53.1173C164.812 53.233 163.808 57.1664 163.808 57.1664L139.672 55.1253L139.762 51.8034V51.7951Z" fill="black"/>
</g>
<defs>
<clipPath id="clip0_1213_9847">
<rect width="192" height="173.211" fill="white" transform="matrix(-1 0 0 1 192 0)"/>
</clipPath>
</defs>
</svg>
