<svg width="432" height="361" viewBox="0 0 432 361" fill="none" xmlns="http://www.w3.org/2000/svg">
<mask id="mask0_1066_130" style="mask-type:alpha" maskUnits="userSpaceOnUse" x="0" y="58" width="432" height="303">
<rect y="58" width="432" height="303" fill="#D9D9D9"/>
</mask>
<g mask="url(#mask0_1066_130)">
<path d="M391.098 116.224C393.021 117.312 393.698 119.752 392.611 121.675L374.89 153.012C373.803 154.935 371.362 155.612 369.439 154.525C367.516 153.437 366.839 150.997 367.927 149.074L383.678 121.219L355.823 105.467C353.9 104.38 353.223 101.94 354.31 100.017C355.398 98.0937 357.838 97.4164 359.761 98.5038L391.098 116.224ZM51.9302 209.147L388.059 115.852L390.199 123.56L54.0698 216.855L51.9302 209.147Z" fill="#7E58FF"/>
<path d="M284.017 377H389V222.717C389 195.831 365.474 174 336.5 174C307.526 174 284 195.831 284 222.717V377H284.017Z" fill="#7E58FF"/>
<path d="M167.017 408H272V255.997C272 229.508 248.474 208 219.5 208C190.526 208 167 229.508 167 255.997L167 408H167.017Z" fill="#7E58FF"/>
<path d="M53.0175 433H159L159 284.798C159 258.971 135.25 238 106 238C76.7502 238 53 258.971 53 284.798L53 433H53.0175Z" fill="#7E58FF"/>
</g>
<g clip-path="url(#clip0_1066_130)">
<path d="M268.304 186.744C268.304 186.744 252.461 165.409 254.789 156.964C257.116 148.52 267.266 153.615 267.266 153.615C267.925 153.46 289.67 157.64 295.012 176.358L294.549 178.99C294.549 178.99 290.609 189.024 277.809 190.586C277.809 190.586 274.753 186.646 268.318 186.744H268.304Z" fill="#3E4049"/>
<path d="M294.534 178.99C294.534 178.99 297.787 186.196 298.838 190.53C299.904 194.851 301.404 201.128 300.843 201.874C300.282 202.62 297.913 202.507 296.848 199.551C296.848 199.551 297.997 203.971 296.819 205.04C295.628 206.11 294.759 205.955 294.759 205.955C294.759 205.955 293.721 206.954 292.698 206.997C291.66 207.025 288.422 203.014 288.422 203.014C288.422 203.014 289.697 207.841 288.604 208.404C287.51 208.967 280.977 198.876 280.977 198.876C280.977 198.876 276.981 201.451 275.355 199.566C273.729 197.68 277.794 190.601 277.794 190.601C290.595 189.038 294.534 179.004 294.534 179.004V178.99Z" fill="#F2C5A7"/>
<path d="M288.477 209.642C288.743 209.642 288.94 209.544 289.122 209.445C289.458 209.277 290.244 208.868 290.201 206.729C291.772 208.193 292.445 208.165 292.711 208.165C293.748 208.137 294.674 207.517 295.179 207.123C295.739 207.053 296.609 206.8 297.576 205.927C298.249 205.322 298.487 204.28 298.501 203.169C298.782 203.281 299.062 203.366 299.356 203.408C300.352 203.563 301.263 203.239 301.754 202.592C302.399 201.719 302.301 199.819 299.959 190.263C299.006 186.364 296.384 180.341 295.725 178.849L296.132 176.569C296.16 176.4 296.16 176.217 296.104 176.048C291.001 158.161 271.541 152.967 267.615 152.517C266.662 152.067 261.601 149.857 257.661 151.616C255.684 152.503 254.325 154.206 253.652 156.669C251.198 165.563 266.69 186.562 267.349 187.462C267.573 187.758 267.924 187.927 268.302 187.927C272.691 187.87 275.312 189.813 276.35 190.784C274.92 193.43 272.705 198.285 274.471 200.34C276.14 202.268 279.042 201.212 280.598 200.438C285.743 208.305 287.524 209.657 288.477 209.657V209.642ZM288.407 201.846C288.225 201.846 288.042 201.888 287.874 201.972C287.383 202.226 287.131 202.774 287.271 203.309C287.552 204.393 287.762 205.561 287.832 206.434C286.402 204.815 283.935 201.339 281.93 198.243C281.579 197.708 280.864 197.553 280.331 197.891C279.238 198.595 276.897 199.58 276.21 198.806C275.705 198.229 276.728 194.767 278.775 191.192C279.014 190.784 278.972 190.263 278.677 189.897C278.537 189.728 275.382 185.745 268.849 185.605C264.335 179.426 254.128 163.607 255.867 157.302C256.357 155.515 257.241 154.347 258.573 153.756C261.839 152.292 266.648 154.656 266.69 154.684C266.872 154.783 267.083 154.811 267.279 154.811C267.98 154.867 273.293 155.895 279.224 159.216C284.397 162.115 291.099 167.463 293.748 176.442L293.328 178.807C293.286 179.032 293.328 179.271 293.412 179.496C293.44 179.567 296.623 186.66 297.66 190.826C298.193 192.993 299.735 199.312 299.763 201.114C299.651 201.114 299.511 201.086 299.342 201.015C298.992 200.86 298.333 200.424 297.884 199.186C297.674 198.595 297.043 198.285 296.44 198.468C295.851 198.651 295.501 199.27 295.655 199.875C296.132 201.677 296.272 203.788 295.95 204.21C295.389 204.717 294.968 204.801 294.842 204.815C294.449 204.703 294.169 204.843 293.875 205.139C293.608 205.392 293.09 205.758 292.711 205.828C292.136 205.519 290.58 203.929 289.248 202.296C289.024 202.015 288.687 201.86 288.351 201.86L288.407 201.846Z" fill="#0F0F14"/>
<path d="M277.793 191.769C277.793 191.769 277.891 191.769 277.934 191.769C291.266 190.136 295.444 179.877 295.613 179.44C295.851 178.835 295.557 178.16 294.954 177.92C294.351 177.681 293.678 177.977 293.454 178.582C293.299 178.962 289.57 187.997 277.653 189.461C277.022 189.545 276.56 190.122 276.644 190.756C276.714 191.347 277.219 191.783 277.793 191.783V191.769Z" fill="#0F0F14"/>
<path d="M295.852 205.575C295.445 204.182 294.787 202.887 294.086 201.621C293.861 201.198 293.553 200.79 292.936 200.509C292.866 200.481 292.782 200.509 292.754 200.579C292.459 201.184 292.473 201.691 292.557 202.17C292.796 203.591 293.09 205.012 293.651 206.349C294.24 207.672 296.203 206.969 295.838 205.575H295.852Z" fill="#0F0F14"/>
<path d="M281.566 199.875C283.725 198.538 285.505 196.723 286.402 194.274L285.519 194.935C286.15 194.851 286.725 194.752 287.314 194.612C289.052 194.175 291.057 193.711 292.109 192.092C292.151 192.022 292.08 191.909 291.996 191.938C291.394 192.064 290.847 192.163 290.3 192.261C289.333 192.444 287.987 192.698 287.019 192.768C286.473 192.81 285.898 192.866 285.379 192.88C285.028 192.88 284.72 193.092 284.566 193.387C283.697 195.273 282.028 196.765 280.346 197.905C279.126 198.763 280.276 200.607 281.58 199.875H281.566Z" fill="#0F0F14"/>
<path d="M304.725 56.9985C304.725 56.9985 310.039 50.2431 320.89 48.5261C331.742 46.8091 342.481 43.0374 350.486 26.4725C351.734 22.2223 343.014 13.1588 339.607 13.4543C339.607 13.4543 333.2 28.0347 324.199 31.7361C315.212 35.4516 294.505 38.3789 290.369 47.5973" fill="#742DD2"/>
<path d="M304.725 58.4062C305.132 58.4062 305.539 58.2232 305.819 57.8713C305.903 57.7588 311.006 51.51 321.115 49.9197C332.148 48.1745 343.49 44.2057 351.748 27.092C351.776 27.0217 351.804 26.9513 351.832 26.8809C352.715 23.8692 350.136 20.1255 348.524 18.1552C346.575 15.7767 342.495 11.8079 339.495 12.0753C338.99 12.1176 338.541 12.4413 338.345 12.9057C338.289 13.0464 332.05 27.0076 323.68 30.4557C321.297 31.4408 317.974 32.3979 314.441 33.4112C304.613 36.24 292.388 39.7444 289.107 47.0486C288.785 47.7523 289.107 48.5827 289.808 48.9064C290.509 49.2301 291.336 48.9064 291.659 48.2027C294.407 42.0947 305.945 38.7733 315.212 36.1133C318.815 35.0719 322.222 34.1008 324.746 33.0593C332.863 29.7098 338.794 18.4367 340.448 15.0168C341.78 15.5093 344.191 17.2545 346.378 19.9285C348.383 22.3773 349.463 24.7417 349.182 25.9943C341.107 42.6295 330.242 45.6413 320.68 47.1471C309.408 48.9345 303.87 55.8307 303.632 56.1262C303.155 56.7314 303.253 57.618 303.856 58.0965C304.108 58.2936 304.417 58.3921 304.725 58.3921V58.4062Z" fill="#0F0F14"/>
<path d="M295.304 61.3477C295.304 61.3477 300.771 68.652 318.857 73.7045C336.943 78.7429 346.687 71.5934 348.425 69.3698C350.178 67.1461 350.121 58.0967 347.472 56.8441C344.822 55.5916 335.148 60.7426 326.862 60.3063C318.577 59.8841 301.038 47.4429 301.038 47.4429" fill="#742DD2"/>
<path d="M330.817 76.8427C341.514 76.8427 347.823 72.3672 349.505 70.228C351.075 68.2296 351.356 62.9378 350.557 59.532C350.066 57.4631 349.225 56.1261 348.047 55.5632C346.365 54.761 343.603 55.5632 339.803 56.6469C335.962 57.7446 331.167 59.1238 326.919 58.8987C319.138 58.5046 302.006 46.4152 301.838 46.2886C301.207 45.8382 300.337 45.993 299.889 46.6263C299.44 47.2597 299.594 48.1322 300.225 48.5826C300.954 49.1033 318.199 61.2631 326.779 61.6993C331.49 61.9386 336.523 60.5031 340.575 59.3349C343.042 58.6313 346.126 57.7446 346.869 58.0965C347.066 58.195 347.514 58.7439 347.851 60.1653C348.608 63.4163 348.075 67.5259 347.318 68.4829C345.72 70.5095 336.284 77.096 319.208 72.3391C301.922 67.5259 296.454 60.5594 296.398 60.489C295.935 59.8838 295.052 59.7572 294.449 60.2216C293.832 60.686 293.706 61.5586 294.169 62.1778C294.407 62.4875 300.127 69.9325 318.465 75.0413C323.078 76.322 327.2 76.8427 330.817 76.8427Z" fill="#0F0F14"/>
<path d="M169.307 151.363C169.307 151.363 217.55 162.932 259.792 155.177C302.034 147.423 313.418 129.535 302.861 106.06C302.861 106.06 311.147 56.5908 282.981 26.2478C254.815 -4.09526 178.953 -13.3136 147.731 37.4082C134.72 60.1374 135.548 100.599 135.548 100.599C135.548 100.599 112.905 135.516 169.293 151.392L169.307 151.363Z" fill="#3E4049"/>
<g opacity="0.5">
<path d="M305.455 113.294C305.371 113.097 305.287 112.9 305.189 112.689C305.189 112.689 305.189 112.604 305.231 112.463C305.315 112.745 305.385 113.012 305.455 113.294Z" fill="white"/>
</g>
<g opacity="0.5">
<path d="M133.922 128.466C130.249 121.302 130.711 114.251 132.071 109.016C130.795 114.434 130.417 121.555 133.922 128.466Z" fill="white"/>
</g>
<g opacity="0.5">
<path d="M137.342 72.8037C135.295 87.933 135.561 100.585 135.561 100.585C135.561 100.585 133.388 103.935 132.07 109.03C133.36 103.555 135.547 99.8253 135.547 99.8253C135.547 99.8253 134.958 87.5952 137.342 72.8037Z" fill="white"/>
</g>
<path d="M260.633 55.7741C268.512 57.5756 274.246 64.3873 274.779 72.4937C275.592 84.8505 275.705 108.72 265.596 116.446C251.717 127.044 215.699 119.767 189.819 118.107C163.938 116.446 146.329 116.854 143.441 97.1087C140.539 77.3633 148.208 54.9156 150.689 53.2549C153.171 51.5942 180.888 53.0438 208.956 54.0853C227.7 54.7749 247.581 52.7905 260.647 55.7741H260.633Z" fill="#F2C5A7"/>
<path d="M240.977 113.645V100.501C240.977 95.9547 237.78 92.1548 233.532 91.24C233.069 91.1415 217.802 97.0665 217.521 98.1783C217.339 98.9243 217.241 99.6983 217.241 100.501V112.857L240.977 113.645Z" fill="#0F0F14"/>
<path d="M225.035 104.497C222.341 104.497 220.156 102.494 220.156 100.022C220.156 97.5501 222.341 95.5464 225.035 95.5464C227.73 95.5464 229.914 97.5501 229.914 100.022C229.914 102.494 227.73 104.497 225.035 104.497Z" fill="white"/>
<g opacity="0.5">
<path d="M234.148 114.194C232.53 114.194 231.218 112.991 231.218 111.506C231.218 110.021 232.53 108.818 234.148 108.818C235.766 108.818 237.078 110.021 237.078 111.506C237.078 112.991 235.766 114.194 234.148 114.194Z" fill="white"/>
</g>
<path d="M227.882 159.23C238.439 159.23 249.444 158.499 260.043 156.556C284.101 152.137 299.285 144.186 305.159 132.941C309.155 125.299 308.86 116.193 304.304 105.863C304.654 103.527 306.183 92.0846 304.879 77.4057C303.533 62.4453 298.822 41.2502 284.017 25.2906C276.194 16.8604 264.403 9.76721 250.818 5.3199C236.84 0.731858 221.825 -0.928845 207.398 0.492604C180.901 3.11032 159.296 15.9456 146.552 36.6481C134.032 58.5187 134.102 95.589 134.159 100.191C132.827 102.415 126.714 113.73 131.397 126.213C135.841 138.049 148.459 146.958 168.928 152.714C168.942 152.714 168.956 152.714 168.984 152.714C169.348 152.799 196.589 159.216 227.882 159.216V159.23ZM217.268 2.81477C242.49 2.81477 268.091 12.2301 281.956 27.1764C296.215 42.545 300.771 63.0645 302.075 77.5605C303.505 93.3653 301.5 105.68 301.472 105.807C301.43 106.074 301.472 106.355 301.57 106.609C305.916 116.277 306.281 124.693 302.664 131.618C297.21 142.061 282.699 149.52 259.524 153.77C218.432 161.313 170.961 150.294 169.643 149.984C150.113 144.481 138.126 136.15 134.004 125.228C129.378 112.928 136.64 101.43 136.71 101.317C136.864 101.078 136.935 100.81 136.935 100.529C136.935 100.135 136.262 60.1935 148.921 38.0695C161.175 18.1692 182.036 5.79841 207.651 3.26513C210.819 2.95551 214.044 2.8007 217.254 2.8007L217.268 2.81477Z" fill="#0F0F14"/>
<path d="M240.149 123.497C251.112 123.497 260.534 122.062 266.436 117.558C276.951 109.522 277.049 85.8216 276.166 72.3953C275.605 63.7258 269.338 56.3231 260.94 54.409C252.332 52.4387 240.934 52.5935 228.863 52.7483C222.329 52.8328 215.586 52.9313 208.997 52.6779C204.258 52.5091 199.533 52.312 194.949 52.1291C164.68 50.9328 152.118 50.595 149.903 52.0728C146.664 54.2401 139.107 77.2789 142.052 97.3058C144.912 116.798 161.483 117.797 184.42 119.162C186.144 119.261 187.911 119.373 189.719 119.486C195.551 119.866 201.804 120.513 208.422 121.203C219.301 122.329 230.349 123.483 240.149 123.483V123.497ZM260.323 57.1393C267.53 58.786 272.899 65.1332 273.376 72.5782C274.049 82.9225 274.568 107.819 264.74 115.32C254.449 123.187 230.153 120.654 208.702 118.431C202.057 117.741 195.776 117.079 189.887 116.699C188.079 116.587 186.298 116.474 184.574 116.376C161.343 114.982 147.323 114.138 144.799 96.8977C141.981 77.7292 149.482 56.1964 151.431 54.4231C153.898 53.3113 175.643 54.1838 194.822 54.9438C199.421 55.1268 204.146 55.3097 208.884 55.4927C215.544 55.732 222.329 55.6475 228.891 55.5631C240.794 55.4083 252.038 55.2534 260.309 57.1534L260.323 57.1393Z" fill="#0F0F14"/>
<path d="M211.242 96.3628C211.312 98.502 212.433 101.514 215.083 101.218C215.616 101.148 216.177 100.979 216.681 100.824C220.313 99.6842 223.804 98.1783 227.238 96.6021C232.72 94.0547 238.104 91.3385 243.221 88.0874C243.74 87.7637 243.375 86.9052 242.758 87.1023C234.15 89.8607 225.864 93.5199 217.733 97.4043C216.766 97.8687 215.812 98.3472 214.845 98.7835C214.705 98.8398 214.606 98.8961 214.48 98.9102C214.284 98.9524 214.116 98.8398 213.863 98.6709C213.134 98.0235 212.672 97.0384 212.265 96.1236C212.041 95.5606 211.172 95.7858 211.214 96.3769L211.242 96.3628Z" fill="#0F0F14"/>
<path d="M216.498 112.97C225.093 114.363 233.743 114.279 242.421 114.659C242.94 114.673 243.08 113.913 242.589 113.744C238.412 112.294 233.995 111.703 229.607 111.394C226.326 111.182 223.032 111.182 219.751 111.534C218.657 111.661 217.564 111.802 216.47 112.041C215.98 112.139 215.994 112.899 216.484 112.97H216.498Z" fill="#0F0F14"/>
<path d="M153.718 108.452L154.741 95.8846C155.092 91.5358 158.414 88.1581 162.522 87.6092C162.971 87.5529 176.991 94.3928 177.159 95.4905C177.271 96.2083 177.313 96.9683 177.243 97.7283L176.276 109.55L153.704 108.452H153.718Z" fill="#0F0F14"/>
<path d="M161.802 98.5757C159.247 98.3662 157.332 96.2809 157.525 93.9181C157.717 91.5553 159.943 89.8097 162.498 90.0192C165.052 90.2286 166.967 92.3139 166.775 94.6767C166.583 97.0395 164.356 98.7851 161.802 98.5757Z" fill="white"/>
<g opacity="0.5">
<path d="M169.481 108.013C167.945 107.887 166.794 106.636 166.909 105.218C167.025 103.801 168.363 102.753 169.899 102.879C171.435 103.005 172.586 104.257 172.471 105.674C172.355 107.092 171.017 108.139 169.481 108.013Z" fill="white"/>
</g>
<path d="M182.248 93.9564C181.855 94.6601 180.649 96.8415 179.752 96.2785C176.387 94.3082 173.051 92.2816 169.602 90.4379C164.54 87.7076 159.437 85.0758 154.096 82.9085C153.535 82.6833 153.058 83.4573 153.563 83.8514C155.848 85.6388 158.246 87.2432 160.657 88.8054C165.522 91.9157 170.471 94.8149 175.714 97.2496C176.794 97.7281 177.915 98.2489 179.065 98.5726C179.275 98.6289 179.5 98.6429 179.71 98.657C182.037 98.6992 183.047 96.1378 183.299 94.2238C183.383 93.6045 182.5 93.3653 182.248 93.9282V93.9564Z" fill="#0F0F14"/>
<path d="M177.088 108.804C171.41 107.059 165.381 106.904 159.507 107.411C157.544 107.622 155.581 107.918 153.66 108.467C153.408 108.537 153.268 108.804 153.338 109.058C153.394 109.255 153.562 109.381 153.759 109.395C157.642 109.677 161.47 109.804 165.339 109.944C169.223 110.071 173.078 110.155 176.976 109.733C177.466 109.677 177.55 108.959 177.074 108.804H177.088Z" fill="#0F0F14"/>
<path d="M138.043 55.3945C138.043 55.3945 228.5 71.2275 301.025 61.9248C301.025 61.9248 306.324 61.3618 304.936 52.4953C303.562 43.6148 292.234 44.8674 292.234 44.8674C292.234 44.8674 230.981 48.048 208.942 47.0207C186.903 45.9792 147.156 40.3638 144.254 40.3638C141.352 40.3638 134.735 45.9088 138.043 55.3945Z" fill="#742DD2"/>
<g opacity="0.25">
<path d="M137.244 54.1979C137.244 54.1979 227.7 70.0308 300.225 60.7281C300.225 60.7281 303.842 60.3481 304.319 55.1971C304.599 55.8586 304.824 56.5904 304.95 57.4208C306.324 66.3013 301.038 66.8502 301.038 66.8502C228.513 76.1529 138.057 60.32 138.057 60.32C137.244 57.9837 137.034 55.8867 137.216 54.0571C137.23 54.0994 137.244 54.1416 137.258 54.1838L137.244 54.1979Z" fill="#0F0F14"/>
</g>
<path d="M250.427 66.2309C267.461 66.2309 284.818 65.4146 301.193 63.3176C301.389 63.3036 303.366 63.0362 304.894 61.0377C306.422 59.0392 306.899 56.0837 306.31 52.2697C305.063 44.2336 296.496 42.9951 292.122 43.4596C290.286 43.5581 230.491 46.6262 209.012 45.5988C193.997 44.8951 170.542 42.024 156.522 40.3211C148.909 39.3923 145.208 38.9419 144.254 38.9419C142.236 38.9419 139.726 40.5604 138.016 42.9811C136.571 45.0218 134.483 49.4128 136.726 55.8445C136.894 56.323 137.301 56.6748 137.805 56.7593C138.506 56.8859 192.679 66.2168 250.427 66.2168V66.2309ZM293.749 46.204C296.538 46.204 302.651 46.8795 303.548 52.7201C304.011 55.7037 303.717 57.9978 302.679 59.3488C301.88 60.4044 300.885 60.5451 300.871 60.5451C233.028 69.2427 148.376 55.7178 139.109 54.1697C137.693 49.3705 139.221 46.1617 140.301 44.6418C141.689 42.6714 143.455 41.7848 144.254 41.7848C145.054 41.7848 149.989 42.3759 156.185 43.1359C170.247 44.8529 193.773 47.7239 208.872 48.4276C230.729 49.455 291.688 46.3165 292.304 46.2743C292.332 46.2743 292.361 46.2743 292.389 46.2743C292.473 46.2743 292.991 46.218 293.749 46.218V46.204Z" fill="#0F0F14"/>
<path d="M245.996 266.909C249.866 273.298 249.122 282.334 249.122 282.334C249.01 283.474 248.856 284.557 248.618 285.585C248.618 285.585 244.482 290.356 238.594 289.694C232.691 289.033 211.591 277.563 202.647 258.845C203.362 257.029 204.259 255.495 204.259 255.495C204.259 255.495 219.092 269.766 228.934 270.99C238.776 272.215 245.982 266.909 245.982 266.909H245.996Z" fill="#F2C5A7"/>
<path d="M238.593 289.709C244.495 290.37 248.603 285.613 248.617 285.599C247.033 292.763 242.168 296.83 228.625 290.37C213.133 282.967 202.071 265.347 201.833 262.715C201.735 261.617 202.141 260.168 202.66 258.859C211.605 277.577 232.691 289.047 238.607 289.709H238.593Z" fill="#742DD2"/>
<path d="M152.343 151.532C152.203 151.532 141.618 157.922 138.856 158.682C136.094 159.428 135.477 158.443 135.295 156.937C135.112 155.431 138.435 151.293 138.435 151.293C135.813 150.027 121.247 149.464 120.251 147.958C119.27 146.452 121.233 144.847 121.233 144.847C121.233 144.847 119.494 144.284 119.452 142.821C119.382 140.78 121.331 140.147 121.331 140.147C121.05 137.726 123.938 137.022 125.929 136.825C127.163 136.699 128.369 136.389 129.476 135.84C138.982 131.238 150.674 131.576 150.674 131.576C151.81 144.679 153.17 154.277 153.17 154.277C152.833 153.024 152.427 151.518 152.343 151.518V151.532Z" fill="#F2C5A7"/>
<path d="M162.564 231.668C165.942 232.611 165.606 237.875 165.606 237.875C154.46 246.432 122.593 265.051 122.593 265.051C120.069 264.671 117.63 260.252 117.63 259.971C117.63 259.9 117.7 259.703 117.798 259.45C117.798 259.45 154.712 238.677 162.564 231.654V231.668Z" fill="#742DD2"/>
<path d="M117.799 259.464C118.066 258.788 118.57 257.719 118.57 257.719C114.266 256.396 114.168 253.398 117.351 244.546C119.804 237.72 120.701 233.652 120.982 232.147C120.982 232.147 137.932 222.126 144.059 217.369L157.63 223.041L160.111 225.462L162.551 231.668C154.7 238.691 117.785 259.464 117.785 259.464H117.799Z" fill="#F2C5A7"/>
<path d="M144.058 217.369C137.931 222.126 120.981 232.147 120.981 232.147C121.065 231.71 121.093 231.471 121.093 231.471C115.191 222.253 107.606 203.07 117.714 193.191C127.837 183.311 146.049 187.646 146.049 187.646C147.801 181.749 160.349 158.935 160.349 158.935C160.349 158.935 153.689 156.092 153.605 155.909C153.563 155.839 153.381 155.121 153.157 154.291C153.157 154.291 151.797 144.692 150.661 131.59C150.661 131.59 173.401 127.579 205.002 134.982C236.617 142.384 253.721 155.177 253.721 155.177C253.721 155.177 267.713 164.452 270.335 193.683C273.167 225.194 251.464 240.718 251.464 240.718C256.708 259.154 245.968 266.923 245.968 266.923C245.968 266.923 238.748 272.215 228.92 271.004C219.078 269.78 204.245 255.509 204.245 255.509C198.749 247.853 191.249 240.704 191.249 240.704C172.883 234.553 160.04 225.377 160.04 225.377L160.083 225.476L157.601 223.055L144.03 217.383L144.058 217.369Z" fill="#3E4049"/>
<g opacity="0.5">
<path d="M116.691 256.495C117.434 256.495 123.182 236.636 124.178 230.233L122.397 230.951L120.883 232.569C120.883 232.569 118.92 239.972 117.616 243.758C116.313 247.544 115.471 250.654 115.373 252.498C115.275 254.327 116.677 256.495 116.677 256.495H116.691Z" fill="white"/>
</g>
<path d="M149.539 240.704C149.539 240.704 130.836 232.639 118.513 241.182L119.733 237.255C119.733 237.255 137.706 227.699 154.895 237.255" fill="#742DD2"/>
<path d="M217.62 277.746C217.62 277.746 228.191 278.703 237.472 281.715C237.472 281.715 240.767 273.707 240.851 269.527L245.085 267.514H245.996C245.996 267.514 242.155 281.63 239.154 284.726C239.154 284.726 225.387 281.701 222.008 281.236" fill="#742DD2"/>
<path d="M261.488 229.754C261.488 229.754 232.397 175.387 145.866 188.912C145.866 188.912 145.249 194.879 146.441 202.367C146.441 202.367 173.752 200.255 203.586 209.291C233.42 218.326 251.478 240.703 251.478 240.703C251.478 240.703 258.067 235.595 261.474 229.754H261.488Z" fill="#742DD2"/>
<path d="M118.514 242.125C118.696 242.125 118.879 242.069 119.047 241.956C130.796 233.808 148.993 241.478 149.176 241.562C149.652 241.759 150.199 241.548 150.395 241.07C150.592 240.591 150.381 240.042 149.905 239.845C149.162 239.522 132.576 232.527 120.126 239.113L120.491 237.917C123 236.707 139.165 229.585 154.433 238.072C154.882 238.325 155.442 238.156 155.695 237.706C155.947 237.256 155.779 236.693 155.33 236.439C137.904 226.757 119.467 236.327 119.285 236.439C119.075 236.552 118.907 236.749 118.837 236.988L117.617 240.915C117.505 241.295 117.631 241.703 117.953 241.942C118.122 242.069 118.304 242.125 118.5 242.125H118.514Z" fill="#0F0F14"/>
<path d="M239.155 285.655C239.408 285.655 239.646 285.557 239.828 285.374C242.955 282.137 246.74 268.345 246.894 267.753C246.964 267.472 246.908 267.176 246.74 266.937C246.558 266.712 246.291 266.571 245.997 266.571H245.086C244.946 266.571 244.805 266.599 244.693 266.656L240.459 268.668C240.137 268.823 239.94 269.133 239.926 269.499C239.856 272.707 237.753 278.45 236.94 280.547C227.883 277.746 217.831 276.803 217.719 276.803C217.2 276.761 216.752 277.141 216.709 277.647C216.667 278.168 217.046 278.618 217.551 278.661C217.649 278.661 228.136 279.646 237.193 282.587C237.655 282.742 238.16 282.503 238.342 282.052C238.468 281.729 241.427 274.509 241.763 270.118L244.693 268.71C243.431 273.059 240.852 281.039 238.819 283.671C236.197 283.094 225.177 280.715 222.149 280.293C221.63 280.223 221.168 280.575 221.098 281.095C221.028 281.602 221.378 282.081 221.897 282.151C225.206 282.601 238.833 285.599 238.973 285.627C239.043 285.641 239.099 285.655 239.169 285.655H239.155Z" fill="#0F0F14"/>
<path d="M239.898 295C241.846 295 243.529 294.592 244.959 293.776C248.127 291.974 249.95 288.273 250.511 282.475C250.539 282.095 251.184 273.805 247.777 267.233C250.399 264.77 257.128 256.663 253.09 241.238C254.815 239.845 259.091 236.045 263.157 229.768C267.895 222.45 273.251 210.22 271.751 193.543C269.143 164.424 255.516 154.685 254.548 154.023C253.497 153.249 236.519 140.921 205.339 133.616C175.112 126.537 152.582 129.873 150.577 130.197C149.161 130.168 138.127 130.126 128.874 134.602C127.949 135.052 126.897 135.333 125.79 135.446C123.35 135.685 121.64 136.403 120.701 137.571C120.294 138.078 120.042 138.669 119.943 139.302C119.004 139.936 117.995 141.09 118.051 142.891C118.079 143.89 118.541 144.65 119.13 145.199C118.499 146.269 118.317 147.578 119.088 148.746C119.873 149.942 122.046 150.364 129.701 151.265C131.86 151.518 134.37 151.814 136.08 152.123C134.903 153.784 133.753 155.811 133.921 157.134C134.019 157.95 134.286 159.118 135.323 159.836C136.543 160.652 138.141 160.357 139.235 160.061C141.24 159.512 146.287 156.669 151.446 153.686C151.474 153.672 151.516 153.643 151.544 153.629C151.67 154.094 151.797 154.572 151.895 154.924C152.245 156.261 152.287 156.374 152.371 156.557C152.638 157.091 152.694 157.19 158.4 159.639C155.834 164.354 147.507 179.778 145.137 186.055C140.735 185.253 125.86 183.339 116.761 192.22C106.008 202.719 113.789 222.422 119.649 231.809C119.411 233.132 118.541 237.199 116.06 244.11C113.999 249.838 113.06 253.652 114.335 256.227C114.826 257.212 115.597 257.958 116.705 258.521C116.256 259.577 116.256 259.802 116.256 260.013C116.256 261.04 119.172 265.994 122.411 266.473C122.719 266.515 123.042 266.459 123.322 266.304C124.626 265.544 155.386 247.544 166.475 239.029C166.798 238.776 166.994 238.41 167.022 238.002C167.162 235.792 166.574 231.922 163.657 230.613L163.013 228.98C168.116 232.147 178.112 237.776 190.562 241.97C191.781 243.167 197.88 249.176 202.647 255.65C201.82 257.198 200.249 260.534 200.474 262.898C200.782 266.163 212.11 284.065 228.065 291.679C232.79 293.931 236.715 295.057 239.926 295.057L239.898 295ZM252.964 156.332C253.132 156.444 266.437 165.733 268.961 193.796C271.681 224.083 250.889 239.409 250.679 239.564C250.202 239.901 249.992 240.521 250.146 241.084C255.039 258.268 245.576 265.473 245.169 265.783C244.58 266.219 244.426 267.022 244.791 267.641C248.38 273.58 247.721 282.137 247.721 282.221C247.258 287.034 245.898 290.018 243.585 291.341C240.655 293.002 235.832 292.256 229.229 289.103C214.213 281.926 203.53 264.854 203.222 262.574C203.067 260.998 204.525 257.831 205.479 256.213C205.759 255.734 205.731 255.129 205.409 254.679C199.899 247.009 192.552 239.986 192.244 239.69C192.09 239.55 191.922 239.437 191.725 239.381C173.766 233.371 161.022 224.322 160.896 224.237C160.391 223.871 159.718 223.9 159.227 224.28C158.736 224.66 158.568 225.321 158.793 225.898L161.274 232.203C161.428 232.611 161.779 232.921 162.199 233.033C163.868 233.498 164.176 236.017 164.218 237.199C153.605 245.179 126.449 261.195 122.411 263.574C121.149 263.025 119.663 260.914 119.13 259.928C119.299 259.52 119.579 258.873 119.831 258.352C120 257.986 120.014 257.564 119.845 257.184C119.677 256.804 119.369 256.523 118.976 256.41C117.462 255.946 117.027 255.397 116.817 254.96C115.934 253.201 117.266 248.965 118.668 245.052C121.864 236.172 122.467 231.865 122.481 231.682C122.523 231.359 122.453 231.021 122.271 230.739C115.934 220.846 109.751 202.944 118.696 194.218C128.131 185 145.558 188.983 145.726 189.025C146.441 189.194 147.17 188.772 147.38 188.068C149.063 182.382 161.442 159.864 161.568 159.639C161.765 159.287 161.793 158.879 161.667 158.499C161.54 158.119 161.26 157.823 160.896 157.669C158.484 156.641 155.806 155.459 154.783 154.966C154.713 154.727 154.643 154.446 154.573 154.192C154.404 153.545 154.194 152.785 154.026 152.18C153.703 151.04 153.451 150.139 152.329 150.139C152.058 150.139 151.287 150.505 150.016 151.237C147.38 152.757 140.398 156.81 138.464 157.331C137.188 157.683 136.851 157.486 136.837 157.486C136.837 157.486 136.725 157.373 136.641 156.768C136.669 156.191 138.001 154.023 139.487 152.18C139.754 151.842 139.852 151.406 139.768 150.998C139.669 150.575 139.389 150.224 139.01 150.041C137.707 149.407 134.734 149.027 129.996 148.464C126.981 148.112 122.495 147.578 121.359 147.071C121.345 146.705 121.934 146.072 122.088 145.945C122.481 145.621 122.677 145.101 122.579 144.594C122.481 144.087 122.131 143.679 121.64 143.51C121.486 143.454 120.841 143.144 120.827 142.778C120.799 141.864 121.598 141.526 121.766 141.47C122.369 141.244 122.761 140.625 122.691 139.992C122.649 139.626 122.747 139.457 122.86 139.316C123.28 138.782 124.472 138.373 126.042 138.219C127.486 138.078 128.832 137.698 130.066 137.107C139.151 132.702 150.507 132.983 150.619 132.983C150.717 132.983 150.801 132.983 150.899 132.969C151.124 132.927 173.752 129.099 204.68 136.333C235.594 143.567 252.712 156.163 252.894 156.289C252.908 156.303 252.936 156.317 252.95 156.332H252.964Z" fill="#0F0F14"/>
<path d="M231.934 272.567C240.542 272.567 246.543 268.246 246.823 268.035C247.44 267.585 247.58 266.698 247.132 266.079C246.683 265.46 245.8 265.319 245.183 265.769C245.183 265.769 238.257 270.723 229.116 269.583C219.849 268.429 205.38 254.609 205.24 254.468C204.679 253.933 203.796 253.947 203.263 254.51C202.731 255.073 202.745 255.96 203.305 256.495C203.922 257.086 218.587 271.103 228.78 272.356C229.859 272.496 230.925 272.553 231.934 272.553V272.567Z" fill="#0F0F14"/>
<path d="M190.954 242.069C204.188 245.052 225.583 247.515 238.341 242.702C238.453 242.66 238.425 242.463 238.285 242.477C234.317 242.786 230.434 243.068 226.522 243.195C218.699 243.321 210.862 242.618 203.123 241.449C199.268 240.858 195.356 240.169 191.557 239.338C189.776 239.001 189.173 241.59 190.94 242.069H190.954Z" fill="#0F0F14"/>
<path d="M160.068 226.771C160.475 226.771 160.881 226.588 161.162 226.25C161.638 225.645 161.554 224.758 160.951 224.279C160.727 224.097 143.987 210.234 147.436 187.871C147.548 187.111 147.029 186.393 146.272 186.266C145.515 186.154 144.8 186.674 144.674 187.434C140.973 211.472 159.017 226.306 159.199 226.461C159.451 226.672 159.76 226.771 160.068 226.771Z" fill="#0F0F14"/>
<path d="M159.901 160.258C176.64 166.226 193.787 172.868 210.148 179.666C210.26 179.722 210.372 179.539 210.26 179.469C206.587 176.767 202.535 174.726 198.441 172.798C190.268 168.97 181.926 165.55 173.5 162.299C169.294 160.666 165.074 159.118 160.812 157.626C159.088 157.078 158.176 159.597 159.887 160.272L159.901 160.258Z" fill="#0F0F14"/>
<path d="M251.491 241.872C251.744 241.872 251.996 241.787 252.206 241.633C252.487 241.422 259.006 236.327 262.497 230.346C262.707 229.994 262.707 229.557 262.525 229.206C262.216 228.643 254.912 215.216 236.784 203.282C226.157 196.287 214.016 191.305 200.697 188.448C184.084 184.887 165.577 184.662 145.711 187.772C145.192 187.857 144.786 188.279 144.73 188.8C144.702 189.053 144.113 195.006 145.319 202.55C145.417 203.155 145.963 203.563 146.552 203.535C146.819 203.521 174.003 201.551 203.277 210.417C232.396 219.227 250.426 241.225 250.594 241.45C250.818 241.731 251.155 241.886 251.505 241.886L251.491 241.872ZM260.141 229.74C257.562 233.864 253.412 237.579 251.645 239.085C247.888 234.793 230.391 216.173 203.95 208.179C177.564 200.2 152.847 200.875 147.464 201.142C146.749 196.02 146.875 191.727 146.987 189.94C190.729 183.311 219.189 194.542 235.396 205.168C251.014 215.413 258.557 227.066 260.155 229.74H260.141Z" fill="#0F0F14"/>
<path d="M153.171 155.459C153.171 155.459 153.283 155.459 153.339 155.459C153.97 155.374 154.419 154.783 154.32 154.136C154.32 154.037 152.961 144.425 151.839 131.491C151.783 130.844 151.208 130.379 150.577 130.436C149.932 130.492 149.47 131.055 149.526 131.702C150.647 144.692 152.007 154.375 152.021 154.46C152.105 155.037 152.596 155.459 153.171 155.459Z" fill="#0F0F14"/>
<path d="M129.618 134.475C127.291 135.544 125.104 136.642 122.987 138.134C122.37 138.612 121.865 138.978 121.374 139.696C120.926 140.273 120.827 141.385 121.458 141.962C122.412 142.849 123.73 142.806 124.851 142.905C127.277 143.032 129.772 142.722 132.156 142.792C133.866 143.046 135.562 143.989 137.399 144.129C138.689 144.284 140.007 144.158 141.184 143.721C141.283 143.693 141.268 143.538 141.156 143.524C139.909 143.412 138.759 143.243 137.637 142.891C135.829 142.412 134.287 141.399 132.352 141.005C129.267 140.597 126.071 141.174 123.085 140.386C123.015 140.358 123.001 140.329 123.085 140.386C123.113 140.414 123.183 140.498 123.225 140.611C123.267 140.724 123.267 140.878 123.253 140.921C123.225 141.047 123.225 141.019 123.253 140.977C125.244 139.035 128.02 137.909 130.557 136.6C131.931 135.924 131.006 133.884 129.59 134.475H129.618Z" fill="#0F0F14"/>
<path d="M121.15 146.016C123.169 146.269 125.202 146.241 127.22 146.156C127.893 146.128 128.58 146.03 129.295 145.607C129.365 145.565 129.379 145.467 129.309 145.41C128.104 144.425 126.744 144.467 125.356 144.144C124.024 143.919 122.692 143.736 121.332 143.679C119.86 143.665 119.692 145.79 121.15 146.001V146.016Z" fill="#0F0F14"/>
<path d="M117.798 260.632C117.995 260.632 118.191 260.59 118.359 260.477C119.873 259.633 155.47 239.564 163.335 232.541C163.812 232.119 163.854 231.373 163.433 230.894C163.013 230.416 162.27 230.374 161.793 230.796C154.124 237.65 117.602 258.24 117.238 258.437C116.677 258.746 116.481 259.464 116.789 260.027C116.999 260.407 117.392 260.618 117.798 260.618V260.632Z" fill="#0F0F14"/>
<path d="M120.981 233.329C121.177 233.329 121.387 233.273 121.569 233.16C122.242 232.766 137.734 223.59 144.226 218.706L157.18 224.125C157.769 224.378 158.456 224.097 158.708 223.491C158.96 222.9 158.68 222.211 158.077 221.957L144.506 216.286C144.113 216.131 143.679 216.187 143.342 216.44C137.342 221.099 120.56 231.035 120.392 231.147C119.845 231.471 119.649 232.189 119.985 232.752C120.195 233.118 120.588 233.329 120.995 233.329H120.981Z" fill="#0F0F14"/>
<path d="M144.591 216.342C143.119 215.484 141.535 214.864 139.937 214.302C139.404 214.104 138.829 213.992 138.114 214.147C138.044 214.161 138.002 214.231 138.016 214.302C138.282 214.991 138.731 215.413 139.194 215.737C140.568 216.736 141.984 217.693 143.526 218.411C144.858 218.988 145.825 217.102 144.605 216.342H144.591Z" fill="#0F0F14"/>
<path d="M239.73 290.933C245.478 290.933 249.334 286.556 249.502 286.359C249.922 285.866 249.866 285.134 249.39 284.712C248.899 284.29 248.17 284.346 247.749 284.825C247.749 284.825 243.936 289.117 238.735 288.54C233.141 287.921 212.419 276.564 203.713 258.338C203.432 257.761 202.745 257.508 202.157 257.789C201.582 258.071 201.329 258.76 201.61 259.351C210.583 278.154 231.781 290.117 238.468 290.862C238.903 290.905 239.323 290.933 239.73 290.933Z" fill="#0F0F14"/>
<path d="M152.358 189.18C152.653 189.18 152.961 189.067 153.186 188.828C153.354 188.659 169.589 172.165 180.538 167.351C181.127 167.098 181.394 166.408 181.141 165.817C180.889 165.226 180.202 164.959 179.613 165.212C168.243 170.208 152.204 186.506 151.531 187.195C151.083 187.66 151.083 188.392 151.531 188.842C151.756 189.067 152.05 189.18 152.344 189.18H152.358Z" fill="#0F0F14"/>
<path d="M147.479 185.183C147.816 185.183 148.152 185.028 148.39 184.746C148.517 184.592 161.275 168.716 171.649 163.945C172.238 163.678 172.491 162.988 172.224 162.397C171.958 161.806 171.271 161.553 170.682 161.82C159.803 166.83 147.115 182.621 146.582 183.283C146.175 183.789 146.259 184.521 146.764 184.929C146.974 185.098 147.241 185.183 147.493 185.183H147.479Z" fill="#0F0F14"/>
<path d="M184.588 188.448C184.588 188.448 188.443 184.451 193.294 185.295C198.145 186.139 199.014 192.543 199.014 192.543C199.014 192.543 205.379 194.344 209.81 201.184C214.24 208.024 215.179 216.018 227.783 220.184C227.783 220.184 224.937 233.371 217.647 233.99C217.647 233.99 208.338 229.881 204.903 221.324C201.482 212.767 198.341 206.42 194.977 204.829C194.977 204.829 186.747 212.274 180.859 205.392C180.859 205.392 176.288 205.899 171.521 199.974C171.521 199.974 170.203 203.591 175.335 213.063C180.466 222.52 187.14 228.361 187.14 228.361C187.14 228.361 178.756 230.542 172.951 230.88C172.951 230.88 153.436 210.797 168.255 189.799C168.255 189.799 166.432 184.479 171.704 181.031C176.975 177.583 183.326 184.493 184.602 188.434L184.588 188.448Z" fill="#742DD2"/>
<path d="M217.633 235.158C217.633 235.158 217.703 235.158 217.731 235.158C225.793 234.469 228.793 221.014 228.905 220.437C229.031 219.846 228.695 219.269 228.134 219.086C218.895 216.018 216.287 210.923 213.525 205.505C212.684 203.872 211.829 202.169 210.777 200.551C206.992 194.696 201.889 192.346 200.024 191.656C199.604 189.785 198.103 184.943 193.491 184.141C189.804 183.508 186.691 185.281 185.037 186.534C183.565 183.705 180.593 180.552 177.354 179.412C175.111 178.624 172.924 178.849 171.059 180.074C166.685 182.931 166.419 187.251 166.979 189.602C159.381 200.72 161.119 211.514 163.951 218.664C167.035 226.433 171.9 231.499 172.111 231.71C172.349 231.95 172.671 232.076 173.008 232.062C178.868 231.724 187.084 229.599 187.42 229.501C187.841 229.388 188.163 229.064 188.262 228.642C188.36 228.22 188.219 227.784 187.897 227.488C187.827 227.432 181.322 221.662 176.359 212.514C173.905 207.982 172.994 204.886 172.685 202.944C176.036 206.04 179.078 206.518 180.354 206.575C182.023 208.348 183.999 209.319 186.243 209.46C190.112 209.713 193.673 207.349 195.103 206.237C198.16 208.334 201.216 215.202 203.838 221.76C207.399 230.655 216.792 234.877 217.185 235.06C217.339 235.13 217.493 235.158 217.647 235.158H217.633ZM226.382 220.944C225.582 223.843 222.905 232.062 217.829 232.794C216.315 232.048 208.857 228.093 205.969 220.888C202.366 211.894 199.211 205.547 195.454 203.774C195.033 203.577 194.528 203.647 194.178 203.957C194.136 203.985 190.308 207.391 186.355 207.123C184.574 207.011 183.06 206.195 181.728 204.632C181.476 204.337 181.097 204.196 180.719 204.238C180.565 204.238 176.667 204.534 172.405 199.242C172.139 198.918 171.718 198.75 171.311 198.82C170.905 198.89 170.554 199.172 170.414 199.566C170.26 199.988 169.068 203.957 174.298 213.611C178.013 220.451 182.457 225.391 184.771 227.727C182.079 228.361 177.228 229.388 173.4 229.684C172.237 228.389 168.508 223.899 166.068 217.721C162.241 207.996 163.292 198.834 169.18 190.488C169.391 190.179 169.447 189.785 169.335 189.433C169.279 189.25 167.905 184.915 172.321 182.03C173.583 181.2 175.013 181.059 176.583 181.622C179.906 182.79 182.766 186.618 183.495 188.814C183.621 189.208 183.943 189.489 184.336 189.588C184.729 189.672 185.149 189.559 185.43 189.264C185.5 189.193 188.949 185.731 193.098 186.449C197.038 187.139 197.851 192.656 197.865 192.712C197.935 193.176 198.258 193.556 198.706 193.669C198.762 193.683 204.721 195.456 208.829 201.818C209.81 203.338 210.651 204.984 211.464 206.561C214.212 211.951 217.058 217.524 226.382 220.93V220.944Z" fill="#0F0F14"/>
<path d="M180.845 206.56C180.972 206.56 181.084 206.546 181.21 206.504C181.827 206.307 182.149 205.646 181.953 205.026C179.135 196.441 185.388 189.278 185.458 189.207C185.893 188.729 185.85 187.983 185.36 187.561C184.883 187.125 184.14 187.167 183.719 187.659C183.425 187.997 176.513 195.907 179.738 205.758C179.906 206.251 180.355 206.56 180.845 206.56Z" fill="#0F0F14"/>
<path d="M171.507 201.156C171.704 201.156 171.914 201.1 172.096 201.001C172.657 200.678 172.839 199.96 172.517 199.411C172.517 199.411 169.979 194.978 169.39 189.7C169.32 189.053 168.746 188.602 168.101 188.673C167.456 188.743 167.007 189.32 167.077 189.968C167.722 195.752 170.386 200.396 170.498 200.593C170.708 200.959 171.101 201.17 171.507 201.17V201.156Z" fill="#0F0F14"/>
<path d="M194.962 205.997C195.243 205.997 195.509 205.899 195.733 205.702C201.019 200.987 200.206 192.768 200.164 192.416C200.094 191.769 199.519 191.304 198.888 191.375C198.243 191.445 197.794 192.022 197.85 192.655C197.85 192.726 198.565 200.044 194.191 203.943C193.714 204.365 193.672 205.111 194.093 205.589C194.317 205.843 194.64 205.983 194.962 205.983V205.997Z" fill="#0F0F14"/>
<path d="M29.1514 133.532C39.1196 132.336 49.1859 132.279 59.154 133.532C59.2241 133.532 59.2522 133.433 59.1821 133.419C54.3452 131.815 49.1999 131.547 44.1527 131.379C39.0775 131.28 34.0023 131.505 28.9692 132.167C28.0719 132.307 28.2401 133.659 29.1514 133.56V133.532Z" fill="white"/>
<path d="M38.8941 136.769C41.0111 136.431 43.1702 136.135 45.3012 135.924C47.4743 135.657 49.6053 135.741 51.7924 135.389C51.8485 135.389 51.8625 135.291 51.7924 135.277C49.6614 134.545 47.4182 134.658 45.217 134.686C43.0019 134.77 40.8148 134.967 38.6277 135.389C38.2492 135.46 37.9968 135.826 38.0669 136.206C38.137 136.586 38.5015 136.839 38.8801 136.769H38.8941Z" fill="white"/>
<path d="M47.2505 139.485C49.1152 138.978 51.106 138.936 53.0407 138.894C55.0736 138.823 57.1205 139.119 59.1534 138.837C59.2095 138.837 59.2235 138.739 59.1674 138.725C57.2187 137.923 55.1437 137.824 53.0688 137.655C51.2462 137.543 49.3675 137.557 47.573 137.951C47.0262 138.063 46.0308 138.274 46.3112 139.105C46.4514 139.485 46.886 139.654 47.2505 139.499V139.485Z" fill="white"/>
<path d="M82.7904 139.893C89.7163 143.341 96.2776 147.451 102.096 152.588C102.138 152.63 102.222 152.56 102.18 152.518C99.9788 149.21 96.6982 146.86 93.5297 144.58C90.2911 142.342 86.9123 140.358 83.3793 138.641C82.5521 138.261 81.9633 139.499 82.7764 139.907L82.7904 139.893Z" fill="white"/>
<path d="M84.5433 145.438C84.6975 145.818 85.1462 146.043 85.4686 146.283C86.9828 147.296 88.6091 148.394 90.0671 149.477C91.8196 150.73 93.2917 152.208 95.0442 153.503C95.0863 153.545 95.1564 153.488 95.1283 153.432C94.6657 152.405 93.9787 151.546 93.2216 150.744C91.1327 148.591 88.7493 146.747 86.2537 145.101C86.1276 145.016 85.8472 144.833 85.721 144.749C85.7631 144.777 85.8612 144.903 85.8752 145.002C85.5808 144.129 84.2769 144.566 84.5573 145.438H84.5433Z" fill="white"/>
<path d="M114.321 175.88C113.761 178.357 112.232 180.609 110.466 182.424C107.872 185.169 104.465 187.012 100.989 188.49C99.3201 189.095 97.2592 189.841 95.5348 190.235C91.8475 191.262 87.964 191.713 84.2067 192.417C84.1366 192.417 84.1366 192.543 84.2067 192.529C86.52 192.487 88.8893 192.459 91.1746 192.079C93.4318 191.797 95.8712 191.234 98.0443 190.685C98.8014 190.446 100.68 189.841 101.395 189.602L102.489 189.137C108.223 186.857 114.265 182.438 115.681 176.063C115.808 175.134 114.42 174.937 114.293 175.88H114.321Z" fill="white"/>
<path d="M108.742 173.867C107.943 174.867 107.158 175.908 106.373 176.935C105.587 178.019 104.676 178.864 104.045 180.074C104.017 180.116 104.073 180.186 104.115 180.158C104.802 179.961 105.363 179.553 105.854 179.117C107.34 177.794 108.686 176.316 109.864 174.698C110.088 174.388 110.018 173.952 109.695 173.727C109.387 173.501 108.966 173.572 108.742 173.867Z" fill="white"/>
<path d="M97.9331 182.621C95.9843 183.184 93.9795 183.691 91.9886 184.113C89.9557 184.591 87.9509 184.704 85.904 185.211C85.8479 185.211 85.8479 185.309 85.904 185.323C87.9789 185.9 90.11 185.576 92.1989 185.323C94.2879 185.028 96.3348 184.591 98.3537 183.944C99.2229 183.648 98.8163 182.354 97.9331 182.607V182.621Z" fill="white"/>
<path d="M101.998 171.672C97.3014 175.795 91.1046 178.075 84.8938 178.272C83.9825 178.357 83.0713 178.314 82.16 178.413C82.1039 178.413 82.0899 178.511 82.16 178.526C87.5997 179.877 93.474 178.526 98.367 175.936C100.049 175.021 101.578 173.994 102.994 172.671C103.274 172.403 103.288 171.967 103.022 171.686C102.755 171.404 102.293 171.404 102.026 171.686L101.998 171.672Z" fill="white"/>
<path d="M45.6659 181.594C43.619 180.51 41.6703 179.229 39.7636 177.949C33.9593 173.938 28.4215 169.223 25.1128 162.861C25.0847 162.805 24.9866 162.833 25.0006 162.904C26.2203 167.661 29.8375 171.348 33.3144 174.599C36.6932 177.625 40.3804 180.271 44.32 182.494C44.5864 182.635 44.9649 182.846 45.2453 182.945C45.8622 183.212 46.423 182.382 45.9463 181.903L45.6659 181.608V181.594Z" fill="white"/>
<path d="M46.4931 174.782C39.8477 170.954 33.3705 165.324 31.3376 157.612C31.0432 156.528 30.8469 155.416 30.6927 154.277C30.6927 154.248 30.6647 154.22 30.6226 154.22C30.3703 155.318 30.4824 156.599 30.6226 157.767C31.1694 161.257 32.9499 164.438 35.109 167.182C37.3101 169.912 39.9598 172.249 42.8339 174.205C43.8013 174.852 44.7687 175.472 45.8342 176.035C46.1707 176.217 46.5913 176.077 46.7735 175.739C46.9558 175.387 46.8156 174.965 46.4651 174.796L46.4931 174.782Z" fill="white"/>
<path d="M48.8477 167.098C45.4829 165.564 42.2022 163.326 40.1413 160.174C39.4683 159.104 38.9917 157.978 38.4449 156.754C38.4309 156.697 38.3327 156.711 38.3327 156.768C38.3748 162.172 43.7724 166.436 48.3289 168.393C49.1841 168.716 49.6889 167.45 48.8477 167.084V167.098Z" fill="white"/>
<path d="M48.2317 150.73L50.9796 144.721C52.2834 141.245 63.0788 142.131 75.0938 146.691C87.1088 151.251 95.7872 157.753 94.4693 161.229C94.3571 161.525 94.1749 161.792 93.9225 162.017L90.1091 167.591C89.5763 168.379 88.6791 168.829 87.7397 168.829C67.8595 168.717 53.7695 158.4 49.0448 154.375C47.9933 153.489 47.6709 151.997 48.2457 150.744L48.2317 150.73ZM69.5419 156.346C79.4119 160.638 87.5154 160.061 87.5154 160.061C87.5154 160.061 77.6875 152.701 56.9661 148.478C56.9661 148.478 59.6719 152.067 69.5419 156.346Z" fill="#ADB1C9"/>
<g opacity="0.5">
<path d="M93.4883 158.921C93.4883 158.921 83.3659 151.631 75.9354 148.717C68.5188 145.804 54.3167 143.116 54.3167 143.116C54.3167 143.116 61.8454 142.061 75.9354 147C90.0113 151.954 93.4883 158.907 93.4883 158.907V158.921Z" fill="white"/>
</g>
<path d="M87.5157 160.751C87.726 160.751 87.9363 160.652 88.0765 160.469C88.3008 160.159 88.2447 159.723 87.9362 159.484C87.5297 159.174 77.7438 151.983 57.1065 147.775C56.728 147.69 56.3635 147.943 56.2793 148.323C56.2092 148.703 56.4476 149.069 56.8261 149.154C77.1269 153.291 86.9969 160.539 87.0951 160.61C87.2212 160.708 87.3614 160.751 87.5157 160.751Z" fill="#0F0F14"/>
<g opacity="0.25">
<path d="M89.2266 163.579L86.016 168.773C86.016 168.773 73.8047 168.111 63.2197 163.284C52.6346 158.457 49.0455 154.361 49.0455 154.361L52.0598 148.211C52.0598 148.211 58.0183 154.98 69.9913 159.118C81.9643 163.256 89.2266 163.594 89.2266 163.594V163.579Z" fill="#0F0F14"/>
</g>
<path d="M87.7547 169.744C89.0025 169.744 90.1802 169.139 90.8812 168.111L95.2414 161.75C95.5358 161.328 95.4236 160.737 95.003 160.455C94.5824 160.16 93.9936 160.272 93.7132 160.695L89.353 167.056C88.9885 167.577 88.3997 167.886 87.7547 167.886C68.3652 167.774 54.6538 157.894 49.6487 153.658C48.9196 153.038 48.6953 151.997 49.0879 151.124L51.8358 145.115C52.0461 144.651 51.8358 144.088 51.3731 143.876C50.9105 143.665 50.3497 143.876 50.1394 144.341L47.3915 150.35C46.6484 151.983 47.083 153.925 48.4429 155.079C53.6023 159.456 67.7483 169.631 87.7407 169.744H87.7688H87.7547Z" fill="#0F0F14"/>
<path d="M85.3287 160.976C87.6419 160.976 89.2823 160.455 89.7449 159.217C90.9506 156.022 83.0434 151.11 74.6175 147.915C70.2152 146.241 65.8831 145.115 62.4482 144.735C58.6208 144.312 56.3916 144.861 55.8168 146.353C55.256 147.845 56.5739 149.731 59.7143 151.969C62.5463 153.967 66.528 155.98 70.9302 157.654C76.1176 159.625 81.5854 160.976 85.3006 160.976H85.3287ZM60.219 146.001C60.8219 146.001 61.5229 146.044 62.308 146.128C65.6307 146.494 69.8227 147.592 74.1268 149.224C83.6743 152.841 88.9878 157.274 88.4411 158.724C87.8943 160.174 81.0105 159.977 71.449 156.345C67.1449 154.713 63.2754 152.757 60.5415 150.815C57.8637 148.929 56.9103 147.465 57.1346 146.846C57.3169 146.381 58.3264 146.001 60.219 146.001Z" fill="#0F0F14"/>
<path d="M88.5953 164.269C92.3386 164.269 94.6519 163.34 95.3388 161.539C96.138 159.4 94.4135 156.655 90.3337 153.601C86.6044 150.801 81.3049 148.042 75.4166 145.804C64.453 141.639 51.8631 139.739 50.1107 144.383C48.3582 149.027 59.0694 155.966 70.0329 160.117C75.9213 162.355 81.7115 163.791 86.3521 164.171C87.1512 164.241 87.8943 164.269 88.5953 164.269ZM56.8542 143.538C60.92 143.538 67.1869 144.678 74.7576 147.549C80.4918 149.717 85.623 152.405 89.2121 155.093C92.9835 157.922 93.9509 159.934 93.6004 160.877C93.2499 161.82 91.189 162.693 86.5063 162.299C82.034 161.933 76.426 160.54 70.6919 158.358C57.7515 153.446 51.0079 147.282 51.8491 145.03C52.1996 144.087 53.9801 143.524 56.8542 143.524V143.538Z" fill="#0F0F14"/>
<g opacity="0.25">
<path d="M88.4558 157.303C88.4558 157.303 84.5723 153.066 77.6465 149.914C70.7207 146.761 65.2249 145.833 62.7714 145.481C60.3179 145.129 57.0513 144.904 56.6026 146.367C56.154 147.831 57.7102 148.633 57.7102 148.633C57.7102 148.633 64.6641 150.055 71.1973 152.095C77.7306 154.136 86.5772 159.146 86.7033 159.245C86.8295 159.343 87.867 159.977 88.0773 159.878C88.2876 159.78 89.0166 159.287 89.0867 158.977C89.1568 158.668 89.2129 157.922 89.2129 157.922L88.4418 157.303H88.4558Z" fill="#0F0F14"/>
</g>
<path d="M82.1445 166.352L45.2301 183.282L51.3148 155.163C51.3148 155.163 65.6571 158.499 67.4797 158.921C69.3023 159.343 82.1445 166.352 82.1445 166.352Z" fill="#ADB1C9"/>
<g opacity="0.25">
<path d="M70.6764 160.328C70.6764 160.328 48.2445 182.621 49.0296 182.339C49.8148 182.058 81.2754 165.873 81.2754 165.873L70.6623 160.314L70.6764 160.328Z" fill="#0F0F14"/>
</g>
<path d="M64.1013 143.44L82.8179 139.26L87.7949 152.968C87.7949 152.968 79.411 145.931 64.1153 143.44H64.1013Z" fill="#ADB1C9"/>
<path d="M58.3535 142.638L29.0519 132.828L49.8014 152.785C49.8014 152.785 48.2031 145.931 50.7828 144.059C53.7129 141.934 58.3535 142.638 58.3535 142.638Z" fill="#ADB1C9"/>
<path d="M86.8983 167.337L114.756 175.978L91.7212 155.698C91.7212 155.698 94.5812 158.386 93.9223 162.003C93.2634 165.62 86.8983 167.323 86.8983 167.323V167.337Z" fill="#ADB1C9"/>
<g opacity="0.5">
<path d="M110.479 173.473C110.255 172.938 101.352 166.267 101.352 166.267L95.4497 169.87L93.9215 169.518L99.179 165.648L94.0056 161.172C94.0056 161.172 93.4448 157.907 93.9215 157.978C94.3982 158.048 95.7301 158.921 95.7301 158.921L111.797 173.783L110.479 173.473Z" fill="white"/>
</g>
<g opacity="0.5">
<path d="M85.9995 151.799L81.3028 141.413C81.3028 141.413 67.1988 142.736 67.283 142.722C67.3671 142.708 82.0599 139.429 82.1441 139.4C82.2282 139.372 83.4619 139.949 83.4619 139.949L87.5137 152.222L85.9995 151.799Z" fill="white"/>
</g>
<g opacity="0.5">
<path d="M47.2356 181.805L51.3154 170.461C51.75 170.517 57.3019 170.278 57.3019 170.278L59.2787 168.561L51.708 168.252L52.437 165.676L61.6481 166.07L63.709 163.903L52.8856 163.41L54.3437 155.374H51.1051C51.1051 155.374 45.2728 182.072 45.4691 182.241C45.6654 182.41 46.4645 182.241 46.4645 182.241L47.2496 181.79L47.2356 181.805Z" fill="white"/>
</g>
<g opacity="0.5">
<path d="M50.9093 142.595L44.7125 140.343V147.563L42.3571 145.213C42.3571 145.213 41.9225 139.147 41.8524 139.119C41.7823 139.091 34.9546 136.177 34.9546 136.177C34.9546 136.177 34.9827 134.812 35.7958 135.08C36.609 135.347 55.0311 141.511 55.0311 141.511L55.1152 142.581L52.2271 143.003L50.8952 142.581L50.9093 142.595Z" fill="white"/>
</g>
<path d="M87.7815 153.896C87.9637 153.896 88.16 153.84 88.3142 153.728C88.6647 153.488 88.8049 153.038 88.6507 152.644L83.6736 138.936C83.5194 138.5 83.0568 138.246 82.5941 138.345L63.8776 142.525C63.4429 142.623 63.1345 143.017 63.1485 143.468C63.1485 143.918 63.485 144.298 63.9336 144.368C78.7667 146.775 87.0945 153.615 87.1786 153.685C87.3468 153.826 87.5571 153.896 87.7815 153.896ZM82.2156 140.357L85.8888 150.476C82.8324 148.506 77.0002 145.354 68.6303 143.397L82.2156 140.372V140.357Z" fill="#0F0F14"/>
<path d="M49.8 153.713C49.9543 153.713 50.1225 153.671 50.2627 153.587C50.6272 153.376 50.7955 152.967 50.7113 152.559C50.1505 150.139 49.8281 145.902 51.3422 144.805C53.9219 142.933 58.1839 143.552 58.226 143.552C58.7027 143.623 59.1513 143.313 59.2635 142.848C59.3756 142.384 59.1093 141.891 58.6606 141.751L29.359 131.941C28.9524 131.801 28.4898 131.969 28.2655 132.349C28.0412 132.729 28.0972 133.208 28.4197 133.503L49.1691 153.46C49.3514 153.629 49.5757 153.713 49.8141 153.713H49.8ZM53.3331 141.948C52.2675 142.201 51.188 142.623 50.2487 143.299C48.37 144.664 48.2438 147.831 48.4681 150.195L32.6958 135.038L53.3331 141.948Z" fill="#0F0F14"/>
<path d="M45.2303 184.211C45.3564 184.211 45.4966 184.183 45.6228 184.127L82.5372 167.196C82.8597 167.056 83.07 166.732 83.084 166.38C83.084 166.028 82.9017 165.69 82.5933 165.521C81.2614 164.804 69.5969 158.442 67.6901 158.006C65.8676 157.584 51.5252 154.248 51.5252 154.248C51.2868 154.192 51.0345 154.248 50.8102 154.375C50.5999 154.516 50.4457 154.727 50.4036 154.966L44.319 183.086C44.2489 183.437 44.3751 183.789 44.6414 184.014C44.8097 184.155 45.02 184.225 45.2303 184.225V184.211ZM80.0697 166.281L46.5481 181.664L52.0439 156.289C55.2405 157.035 65.7414 159.484 67.2836 159.836C68.3911 160.089 75.1347 163.622 80.0697 166.281Z" fill="#0F0F14"/>
<path d="M114.755 176.907C115.092 176.907 115.4 176.724 115.568 176.428C115.779 176.048 115.694 175.556 115.372 175.274L92.3373 154.994C91.9587 154.656 91.3699 154.699 91.0334 155.064C90.6969 155.444 90.711 156.021 91.0895 156.373C91.1175 156.401 93.557 158.766 93.0102 161.834C92.5616 164.325 88.2715 166 86.6592 166.422C86.2526 166.535 85.9722 166.886 85.9722 167.309C85.9722 167.731 86.2246 168.097 86.6312 168.223L114.489 176.865C114.573 176.893 114.671 176.907 114.769 176.907H114.755ZM94.8468 159.695L110.858 173.797L89.7857 167.252C91.8326 166.309 94.3842 164.663 94.8328 162.172C94.987 161.285 94.973 160.455 94.8328 159.695H94.8468Z" fill="#0F0F14"/>
<path d="M77.3502 147.83C77.5745 147.83 77.7848 147.732 77.925 147.535L83.3928 139.653C83.6171 139.33 83.533 138.894 83.2245 138.682C82.9161 138.457 82.4675 138.542 82.2572 138.851L76.7894 146.733C76.5651 147.056 76.6492 147.493 76.9577 147.704C77.0839 147.788 77.2241 147.83 77.3502 147.83Z" fill="#0F0F14"/>
<path d="M51.4129 143.904C51.6793 143.904 51.9457 143.749 52.0578 143.482C52.2121 143.13 52.0438 142.707 51.6933 142.567L30.9018 133.714C30.5513 133.56 30.1307 133.728 29.9905 134.08C29.8363 134.432 30.0045 134.854 30.355 134.995L51.1465 143.847C51.2307 143.89 51.3288 143.904 51.4129 143.904Z" fill="#0F0F14"/>
<path d="M45.2307 183.986C45.413 183.986 45.5952 183.915 45.7354 183.775L68.0411 160.37C68.3075 160.089 68.2935 159.652 68.0131 159.385C67.7327 159.118 67.298 159.132 67.0317 159.413L44.726 182.818C44.4596 183.099 44.4737 183.536 44.7541 183.803C44.8943 183.93 45.0625 184 45.2307 184V183.986Z" fill="#0F0F14"/>
<path d="M113.592 176.316C113.817 176.316 114.027 176.203 114.167 176.006C114.391 175.682 114.307 175.246 113.985 175.035L94.3289 161.426C94.0064 161.201 93.5718 161.285 93.3615 161.609C93.1372 161.932 93.2213 162.369 93.5437 162.58L113.2 176.189C113.326 176.274 113.466 176.316 113.592 176.316Z" fill="#0F0F14"/>
<path d="M45.9464 155.627C44.3061 158.808 43.2686 162.228 42.3433 165.662C42.0489 166.816 41.7685 167.97 41.5722 169.152C41.5442 169.279 41.6423 169.406 41.7685 169.42C41.8666 169.434 41.9788 169.377 42.0209 169.293C42.5536 168.223 43.0023 167.126 43.4369 166.014C44.6987 162.678 45.8623 159.315 46.3951 155.768C46.4371 155.515 46.0726 155.388 45.9464 155.627Z" fill="#0F0F14"/>
<path d="M54.4422 139.204C52.2832 137.318 49.7456 135.967 47.1799 134.728C46.3247 134.334 45.4555 133.94 44.5442 133.63C44.418 133.588 44.2918 133.659 44.2498 133.785C44.2217 133.884 44.2498 133.982 44.3199 134.039C45.0629 134.658 45.834 135.207 46.6332 135.727C48.2174 136.769 49.8437 137.726 51.5541 138.556C52.4093 138.95 53.2926 139.33 54.2179 139.612C54.4563 139.682 54.6385 139.358 54.4422 139.204Z" fill="#0F0F14"/>
<path d="M90.6839 151.687C90.4175 148.999 89.3941 146.494 88.2444 144.073C88.1743 143.876 88.0061 143.721 87.7958 143.749C87.3191 143.82 86.8284 143.876 86.3518 144.003C86.2256 144.031 86.1414 144.158 86.1695 144.298C86.1975 144.383 86.2676 144.453 86.3518 144.481C86.8284 144.594 87.3191 144.664 87.7958 144.735L87.3472 144.411C87.7958 146.367 88.3986 148.281 89.2539 150.097C89.5483 150.702 89.8567 151.293 90.2493 151.856C90.3755 152.053 90.7119 151.94 90.6839 151.701V151.687Z" fill="#0F0F14"/>
<path d="M90.838 174.022C91.4268 174.29 92.4082 174.613 93.0391 174.838C98.3246 176.598 103.75 177.963 109.246 178.878C109.512 178.92 109.625 178.512 109.372 178.427C106.386 177.287 103.33 176.373 100.259 175.528C97.1609 174.698 94.0345 173.91 90.838 173.558C90.5996 173.53 90.5155 173.881 90.7398 173.98L90.838 174.022Z" fill="#0F0F14"/>
<g opacity="0.3">
<path d="M208.634 106.355C208.634 106.355 212.489 116.939 219.247 121.583C227.378 127.17 243.137 129.282 250.161 123.3C257.185 117.319 258.11 100.979 258.11 100.979C259.007 94.8993 255.446 83.5277 237.108 82.8522C218.77 82.1626 209.615 84.2877 207.19 89.0165C204.764 93.7453 208.634 106.369 208.634 106.369V106.355Z" fill="#B8C1E0"/>
</g>
<path d="M235.018 127.593C241.089 128.086 247.019 127.058 250.693 123.92C257.899 117.769 258.88 101.711 258.922 101.022C258.95 100.571 258.6 100.177 258.151 100.163C257.703 100.135 257.324 100.487 257.296 100.937C257.296 101.092 256.315 116.995 249.641 122.681C243.066 128.283 227.686 126.397 219.709 120.908C213.245 116.461 209.446 106.173 209.404 106.074C209.25 105.652 208.787 105.427 208.353 105.582C207.932 105.736 207.708 106.201 207.862 106.623C208.016 107.059 211.886 117.502 218.783 122.245C222.989 125.13 229.06 127.1 235.004 127.579L235.018 127.593Z" fill="black"/>
<g opacity="0.3">
<path d="M187.842 104.653C187.842 104.653 182.332 114.462 174.916 117.952C165.999 122.146 150.101 121.654 144.128 114.603C138.17 107.552 139.894 91.2826 139.894 91.2826C139.992 85.1323 145.348 74.5066 163.546 76.8147C181.743 79.1228 190.45 82.7116 192.076 87.7641C193.702 92.8166 187.842 104.639 187.842 104.639V104.653Z" fill="#B8C1E0"/>
</g>
<path d="M135.618 82.0502L137.132 77.7718C137.272 77.3777 137.622 77.0962 138.029 77.0399C140.595 76.7022 149.876 75.52 155.512 74.9289C162.101 74.2392 177.537 75.5059 184.982 79.3902C191.557 82.8242 198.357 83.4013 199.871 83.4857C199.871 83.4857 199.927 83.4857 200.025 83.4857C200.123 83.4857 200.179 83.4857 200.179 83.4857C201.679 83.6546 208.493 84.1894 215.531 81.8672C223.508 79.2354 238.93 80.5021 245.323 82.2613C250.707 83.739 259.483 86.3708 262.119 87.1589C262.596 87.2997 262.946 87.6938 263.03 88.1863L263.773 92.3522C263.886 93.0136 263.507 93.6469 262.862 93.844C259.553 94.8854 259.105 99.4172 259.091 101.725C259.091 102.373 258.586 102.95 257.941 102.978C257.268 103.006 256.707 102.485 256.679 101.824C256.581 100.022 256.189 96.1802 254.703 92.4648C252.67 87.3701 243.122 84.1331 230.939 83.1339C218.756 82.1346 210.96 87.6515 208.872 93.2247C207.273 97.5032 209.334 104.033 210.386 106.82C210.82 107.988 209.741 109.213 208.549 108.833C208.507 108.818 208.465 108.804 208.423 108.79C207.245 108.284 204.385 98.2068 203.432 94.8432C202.478 91.4796 200.516 91.5922 199.17 91.4655C197.894 91.3529 196.296 90.9729 194.81 94.1395C193.323 97.3061 188.879 106.778 187.631 107.087C187.589 107.087 187.547 107.101 187.491 107.116C186.257 107.313 185.374 105.919 186.005 104.836C187.491 102.246 190.59 96.1521 189.692 91.6766C188.529 85.836 181.729 79.1228 169.546 78.1236C157.362 77.1244 147.422 78.771 144.59 83.4576C142.529 86.8775 141.52 90.607 141.127 92.3662C141.001 92.9573 140.454 93.3655 139.852 93.3232C139.151 93.267 138.646 92.6196 138.758 91.9159C139.137 89.6219 139.445 84.9353 136.192 83.4294C135.674 83.1901 135.407 82.585 135.604 82.0361L135.618 82.0502Z" fill="black"/>
<path d="M158.387 121.316C164.331 121.808 170.64 120.865 175.252 118.698C182.823 115.137 188.319 105.469 188.543 105.061C188.768 104.667 188.627 104.174 188.235 103.949C187.842 103.724 187.352 103.864 187.127 104.258C187.071 104.357 181.66 113.885 174.566 117.22C165.817 121.33 150.339 120.697 144.745 114.082C139.067 107.369 140.679 91.5358 140.707 91.381C140.75 90.9306 140.427 90.5225 139.978 90.4803C139.978 90.4803 139.978 90.4803 139.964 90.4803C139.53 90.438 139.137 90.7617 139.095 91.2121C139.025 91.8876 137.399 107.904 143.511 115.152C146.638 118.853 152.33 120.837 158.387 121.33V121.316Z" fill="black"/>
<g opacity="0.39">
<path d="M245.982 88.299C245.982 88.299 224.77 82.7258 215.91 89.0872C207.049 95.4485 215.012 108.678 215.012 108.678C215.012 108.678 214.704 96.7855 223.368 92.8449C232.033 88.9042 245.982 88.299 245.982 88.299Z" fill="white"/>
</g>
<g opacity="0.39">
<path d="M177.93 81.5574C177.93 81.5574 158.428 76.2375 148.306 83.5418C139.459 89.9313 144.913 104.202 144.913 104.202C144.913 104.202 147.633 92.2534 155.764 87.2995C164.961 81.684 177.93 81.5574 177.93 81.5574Z" fill="white"/>
</g>
<path d="M263.03 88.2142C263.03 88.2142 274.765 87.0601 303.982 90.466C305.692 90.663 303.982 97.3621 303.982 97.3621L262.876 93.8859L263.03 88.2283V88.2142Z" fill="black"/>
</g>
<defs>
<clipPath id="clip0_1066_130">
<rect width="327" height="295" fill="white" transform="matrix(-1 0 0 1 352 0)"/>
</clipPath>
</defs>
</svg>
