<svg width="1250" height="219" viewBox="0 0 1250 219" fill="none" xmlns="http://www.w3.org/2000/svg">
<rect x="0.5" y="0.5" width="292" height="290" rx="19.5" fill="url(#paint0_linear_405_135)" stroke="url(#paint1_linear_405_135)"/>
<path d="M288.925 115.254C286.423 107.21 282.745 99.546 278.03 92.5648C279.098 99.5612 274.55 106.982 267.805 109.229C268.248 117.454 263.425 125.741 256.039 129.474C253.888 123.373 251.751 117.272 249.6 111.186C247.814 111.915 246.029 112.643 244.243 113.387C243.862 108.667 243.495 103.962 243.114 99.2425C241.42 101.716 239.726 104.19 238.047 106.664C236.14 105.571 234.843 103.507 234.705 101.322C233.179 103.052 232.996 105.526 232.401 107.741C231.806 109.957 230.249 112.355 227.93 112.325C226.663 112.309 225.549 111.551 224.359 111.156C221.459 110.185 217.934 111.566 216.5 114.267C211.876 106.816 208.549 98.5595 206.718 90C205.68 99.5915 204.642 109.183 203.605 118.79C203.238 122.129 202.445 126.074 199.317 127.349C195.212 129.019 191.335 124.648 189.046 120.869C189.504 122.174 187.963 123.388 186.574 123.479C185.185 123.57 183.797 123.069 182.423 123.297C178.99 123.859 177.952 128.108 176.792 131.371C175.633 134.634 171.436 137.882 169.132 135.271C170.917 137.487 167.422 140.75 164.706 139.885C161.99 139.02 160.54 136.136 159.395 133.541C157.93 130.187 156.465 126.848 155 123.494C153.398 126.272 151.658 129.17 148.835 130.688C146.012 132.206 141.785 131.599 140.534 128.654C137.008 133.541 133.483 138.413 129.958 143.3C128.005 142.753 126.601 140.705 126.815 138.701C125.044 140.644 123.259 142.586 121.489 144.529C117.246 141.205 113.599 137.123 110.806 132.524C104.321 137.29 95.2866 138.383 87.8396 135.302C86.0236 143.239 82.8342 150.873 78.4392 157.748C76.8369 154.12 76.7453 149.962 75.1277 146.335C73.5101 142.708 69.2677 139.597 65.6815 141.342C63.2551 142.526 62.2632 145.364 61.0576 147.762C59.8521 150.159 57.5477 152.648 54.9077 152.041C53.9463 151.829 53.107 151.207 52.1303 151.04C48.9562 150.509 47.247 154.591 44.5764 156.382C42.3942 157.854 39.5252 157.717 36.8852 157.535C29.5144 156.989 21.0755 155.866 17.0162 149.719C18.1455 153.498 16.3142 157.945 12.8349 159.842C9.3555 161.739 4.59426 160.904 2 157.915V256H293V122.66C290.65 120.99 289.78 117.97 288.941 115.223L288.925 115.254Z" fill="url(#paint2_linear_405_135)"/>
<path d="M35.6152 39.8096H120.214" stroke="url(#paint3_linear_405_135)" stroke-width="10" stroke-linecap="round" stroke-linejoin="round"/>
<path d="M37 75H173" stroke="url(#paint4_linear_405_135)" stroke-width="10" stroke-linecap="round" stroke-linejoin="round"/>
<path d="M35.6152 56.2593H104.129" stroke="url(#paint5_linear_405_135)" stroke-width="10" stroke-linecap="round" stroke-linejoin="round"/>
<mask id="path-6-inside-1_405_135" fill="white">
<path d="M267.679 151.589H261.435V150.34H267.679V151.589ZM255.19 151.589H248.946V150.34H255.19V151.589ZM242.702 151.589H236.457V150.34H242.702V151.589ZM230.213 151.589H223.969V150.34H230.213V151.589ZM217.724 151.589H211.48V150.34H217.724V151.589ZM205.235 151.589H198.991V150.34H205.235V151.589ZM192.747 151.589H186.502V150.34H192.747V151.589ZM180.258 151.589H174.013V150.34H180.258V151.589ZM167.769 151.589H161.525V150.34H167.769V151.589ZM155.28 151.589H149.036V150.34H155.28V151.589ZM142.792 151.589H136.547V150.34H142.792V151.589ZM130.303 151.589H124.058V150.34H130.303V151.589ZM117.814 151.589H111.57V150.34H117.814V151.589ZM105.325 151.589H99.081V150.34H105.325V151.589ZM92.8366 151.589H86.5922V150.34H92.8366V151.589ZM80.3478 151.589H74.1035V150.34H80.3478V151.589ZM67.8591 151.589H61.6147V150.34H67.8591V151.589ZM55.3703 151.589H49.1259V150.34H55.3703V151.589ZM42.8816 151.589H36.6372V150.34H42.8816V151.589ZM30.3928 151.589H24.1484V150.34H30.3928V151.589Z"/>
</mask>
<path d="M267.679 151.589H261.435V150.34H267.679V151.589ZM255.19 151.589H248.946V150.34H255.19V151.589ZM242.702 151.589H236.457V150.34H242.702V151.589ZM230.213 151.589H223.969V150.34H230.213V151.589ZM217.724 151.589H211.48V150.34H217.724V151.589ZM205.235 151.589H198.991V150.34H205.235V151.589ZM192.747 151.589H186.502V150.34H192.747V151.589ZM180.258 151.589H174.013V150.34H180.258V151.589ZM167.769 151.589H161.525V150.34H167.769V151.589ZM155.28 151.589H149.036V150.34H155.28V151.589ZM142.792 151.589H136.547V150.34H142.792V151.589ZM130.303 151.589H124.058V150.34H130.303V151.589ZM117.814 151.589H111.57V150.34H117.814V151.589ZM105.325 151.589H99.081V150.34H105.325V151.589ZM92.8366 151.589H86.5922V150.34H92.8366V151.589ZM80.3478 151.589H74.1035V150.34H80.3478V151.589ZM67.8591 151.589H61.6147V150.34H67.8591V151.589ZM55.3703 151.589H49.1259V150.34H55.3703V151.589ZM42.8816 151.589H36.6372V150.34H42.8816V151.589ZM30.3928 151.589H24.1484V150.34H30.3928V151.589Z" fill="#231F20"/>
<path d="M267.679 151.589V152.921H269.011V151.589H267.679ZM261.435 151.589H260.103V152.921H261.435V151.589ZM261.435 150.34V149.008H260.103V150.34H261.435ZM267.679 150.34H269.011V149.008H267.679V150.34ZM255.19 151.589V152.921H256.522V151.589H255.19ZM248.946 151.589H247.614V152.921H248.946V151.589ZM248.946 150.34V149.008H247.614V150.34H248.946ZM255.19 150.34H256.522V149.008H255.19V150.34ZM242.702 151.589V152.921H244.034V151.589H242.702ZM236.457 151.589H235.125V152.921H236.457V151.589ZM236.457 150.34V149.008H235.125V150.34H236.457ZM242.702 150.34H244.034V149.008H242.702V150.34ZM230.213 151.589V152.921H231.545V151.589H230.213ZM223.969 151.589H222.637V152.921H223.969V151.589ZM223.969 150.34V149.008H222.637V150.34H223.969ZM230.213 150.34H231.545V149.008H230.213V150.34ZM217.724 151.589V152.921H219.056V151.589H217.724ZM211.48 151.589H210.148V152.921H211.48V151.589ZM211.48 150.34V149.008H210.148V150.34H211.48ZM217.724 150.34H219.056V149.008H217.724V150.34ZM205.235 151.589V152.921H206.567V151.589H205.235ZM198.991 151.589H197.659V152.921H198.991V151.589ZM198.991 150.34V149.008H197.659V150.34H198.991ZM205.235 150.34H206.567V149.008H205.235V150.34ZM192.747 151.589V152.921H194.079V151.589H192.747ZM186.502 151.589H185.17V152.921H186.502V151.589ZM186.502 150.34V149.008H185.17V150.34H186.502ZM192.747 150.34H194.079V149.008H192.747V150.34ZM180.258 151.589V152.921H181.59V151.589H180.258ZM174.013 151.589H172.682V152.921H174.013V151.589ZM174.013 150.34V149.008H172.682V150.34H174.013ZM180.258 150.34H181.59V149.008H180.258V150.34ZM167.769 151.589V152.921H169.101V151.589H167.769ZM161.525 151.589H160.193V152.921H161.525V151.589ZM161.525 150.34V149.008H160.193V150.34H161.525ZM167.769 150.34H169.101V149.008H167.769V150.34ZM155.28 151.589V152.921H156.612V151.589H155.28ZM149.036 151.589H147.704V152.921H149.036V151.589ZM149.036 150.34V149.008H147.704V150.34H149.036ZM155.28 150.34H156.612V149.008H155.28V150.34ZM142.792 151.589V152.921H144.124V151.589H142.792ZM136.547 151.589H135.215V152.921H136.547V151.589ZM136.547 150.34V149.008H135.215V150.34H136.547ZM142.792 150.34H144.124V149.008H142.792V150.34ZM130.303 151.589V152.921H131.635V151.589H130.303ZM124.058 151.589H122.727V152.921H124.058V151.589ZM124.058 150.34V149.008H122.727V150.34H124.058ZM130.303 150.34H131.635V149.008H130.303V150.34ZM117.814 151.589V152.921H119.146V151.589H117.814ZM111.57 151.589H110.238V152.921H111.57V151.589ZM111.57 150.34V149.008H110.238V150.34H111.57ZM117.814 150.34H119.146V149.008H117.814V150.34ZM105.325 151.589V152.921H106.657V151.589H105.325ZM99.081 151.589H97.749V152.921H99.081V151.589ZM99.081 150.34V149.008H97.749V150.34H99.081ZM105.325 150.34H106.657V149.008H105.325V150.34ZM92.8366 151.589V152.921H94.1685V151.589H92.8366ZM86.5922 151.589H85.2603V152.921H86.5922V151.589ZM86.5922 150.34V149.008H85.2603V150.34H86.5922ZM92.8366 150.34H94.1685V149.008H92.8366V150.34ZM80.3478 151.589V152.921H81.6798V151.589H80.3478ZM74.1035 151.589H72.7715V152.921H74.1035V151.589ZM74.1035 150.34V149.008H72.7715V150.34H74.1035ZM80.3478 150.34H81.6798V149.008H80.3478V150.34ZM67.8591 151.589V152.921H69.191V151.589H67.8591ZM61.6147 151.589H60.2828V152.921H61.6147V151.589ZM61.6147 150.34V149.008H60.2828V150.34H61.6147ZM67.8591 150.34H69.191V149.008H67.8591V150.34ZM55.3703 151.589V152.921H56.7023V151.589H55.3703ZM49.1259 151.589H47.794V152.921H49.1259V151.589ZM49.1259 150.34V149.008H47.794V150.34H49.1259ZM55.3703 150.34H56.7023V149.008H55.3703V150.34ZM42.8816 151.589V152.921H44.2135V151.589H42.8816ZM36.6372 151.589H35.3052V152.921H36.6372V151.589ZM36.6372 150.34V149.008H35.3052V150.34H36.6372ZM42.8816 150.34H44.2135V149.008H42.8816V150.34ZM30.3928 151.589V152.921H31.7248V151.589H30.3928ZM24.1484 151.589H22.8165V152.921H24.1484V151.589ZM24.1484 150.34V149.008H22.8165V150.34H24.1484ZM30.3928 150.34H31.7248V149.008H30.3928V150.34ZM267.679 150.257H261.435V152.921H267.679V150.257ZM262.767 151.589V150.34H260.103V151.589H262.767ZM261.435 151.672H267.679V149.008H261.435V151.672ZM266.347 150.34V151.589H269.011V150.34H266.347ZM255.19 150.257H248.946V152.921H255.19V150.257ZM250.278 151.589V150.34H247.614V151.589H250.278ZM248.946 151.672H255.19V149.008H248.946V151.672ZM253.858 150.34V151.589H256.522V150.34H253.858ZM242.702 150.257H236.457V152.921H242.702V150.257ZM237.789 151.589V150.34H235.125V151.589H237.789ZM236.457 151.672H242.702V149.008H236.457V151.672ZM241.37 150.34V151.589H244.034V150.34H241.37ZM230.213 150.257H223.969V152.921H230.213V150.257ZM225.3 151.589V150.34H222.637V151.589H225.3ZM223.969 151.672H230.213V149.008H223.969V151.672ZM228.881 150.34V151.589H231.545V150.34H228.881ZM217.724 150.257H211.48V152.921H217.724V150.257ZM212.812 151.589V150.34H210.148V151.589H212.812ZM211.48 151.672H217.724V149.008H211.48V151.672ZM216.392 150.34V151.589H219.056V150.34H216.392ZM205.235 150.257H198.991V152.921H205.235V150.257ZM200.323 151.589V150.34H197.659V151.589H200.323ZM198.991 151.672H205.235V149.008H198.991V151.672ZM203.903 150.34V151.589H206.567V150.34H203.903ZM192.747 150.257H186.502V152.921H192.747V150.257ZM187.834 151.589V150.34H185.17V151.589H187.834ZM186.502 151.672H192.747V149.008H186.502V151.672ZM191.415 150.34V151.589H194.079V150.34H191.415ZM180.258 150.257H174.013V152.921H180.258V150.257ZM175.345 151.589V150.34H172.682V151.589H175.345ZM174.013 151.672H180.258V149.008H174.013V151.672ZM178.926 150.34V151.589H181.59V150.34H178.926ZM167.769 150.257H161.525V152.921H167.769V150.257ZM162.857 151.589V150.34H160.193V151.589H162.857ZM161.525 151.672H167.769V149.008H161.525V151.672ZM166.437 150.34V151.589H169.101V150.34H166.437ZM155.28 150.257H149.036V152.921H155.28V150.257ZM150.368 151.589V150.34H147.704V151.589H150.368ZM149.036 151.672H155.28V149.008H149.036V151.672ZM153.948 150.34V151.589H156.612V150.34H153.948ZM142.792 150.257H136.547V152.921H142.792V150.257ZM137.879 151.589V150.34H135.215V151.589H137.879ZM136.547 151.672H142.792V149.008H136.547V151.672ZM141.46 150.34V151.589H144.124V150.34H141.46ZM130.303 150.257H124.058V152.921H130.303V150.257ZM125.39 151.589V150.34H122.727V151.589H125.39ZM124.058 151.672H130.303V149.008H124.058V151.672ZM128.971 150.34V151.589H131.635V150.34H128.971ZM117.814 150.257H111.57V152.921H117.814V150.257ZM112.902 151.589V150.34H110.238V151.589H112.902ZM111.57 151.672H117.814V149.008H111.57V151.672ZM116.482 150.34V151.589H119.146V150.34H116.482ZM105.325 150.257H99.081V152.921H105.325V150.257ZM100.413 151.589V150.34H97.749V151.589H100.413ZM99.081 151.672H105.325V149.008H99.081V151.672ZM103.993 150.34V151.589H106.657V150.34H103.993ZM92.8366 150.257H86.5922V152.921H92.8366V150.257ZM87.9242 151.589V150.34H85.2603V151.589H87.9242ZM86.5922 151.672H92.8366V149.008H86.5922V151.672ZM91.5046 150.34V151.589H94.1685V150.34H91.5046ZM80.3478 150.257H74.1035V152.921H80.3478V150.257ZM75.4354 151.589V150.34H72.7715V151.589H75.4354ZM74.1035 151.672H80.3478V149.008H74.1035V151.672ZM79.0159 150.34V151.589H81.6798V150.34H79.0159ZM67.8591 150.257H61.6147V152.921H67.8591V150.257ZM62.9467 151.589V150.34H60.2828V151.589H62.9467ZM61.6147 151.672H67.8591V149.008H61.6147V151.672ZM66.5271 150.34V151.589H69.191V150.34H66.5271ZM55.3703 150.257H49.1259V152.921H55.3703V150.257ZM50.4579 151.589V150.34H47.794V151.589H50.4579ZM49.1259 151.672H55.3703V149.008H49.1259V151.672ZM54.0384 150.34V151.589H56.7023V150.34H54.0384ZM42.8816 150.257H36.6372V152.921H42.8816V150.257ZM37.9691 151.589V150.34H35.3052V151.589H37.9691ZM36.6372 151.672H42.8816V149.008H36.6372V151.672ZM41.5496 150.34V151.589H44.2135V150.34H41.5496ZM30.3928 150.257H24.1484V152.921H30.3928V150.257ZM25.4804 151.589V150.34H22.8165V151.589H25.4804ZM24.1484 151.672H30.3928V149.008H24.1484V151.672ZM29.0609 150.34V151.589H31.7248V150.34H29.0609Z" fill="url(#paint6_linear_405_135)" mask="url(#path-6-inside-1_405_135)"/>
<g clip-path="url(#clip0_405_135)">
<path d="M1226.88 0H1001.12C988.349 0 978 10.3492 978 23.1157V298.179C978 310.945 988.349 321.294 1001.12 321.294H1226.88C1239.65 321.294 1250 310.945 1250 298.179V23.1157C1250 10.3492 1239.65 0 1226.88 0Z" fill="url(#paint7_linear_405_135)"/>
<g clip-path="url(#clip1_405_135)">
<path d="M1187.6 255.175C1167.86 275.858 1139.32 287.802 1108.6 285.328C1079.9 283.017 1055.08 268.579 1038.77 247.453L1116.48 187.443L1187.59 255.174L1187.6 255.175Z" fill="#9767FF"/>
<path d="M1202.36 139.864L1116.48 187.443L1145.45 93.6309C1170.04 101.181 1190.26 118.061 1202.37 139.865" fill="#9767FF"/>
<path d="M1214.37 195.325C1212.49 218.669 1202.58 239.449 1187.6 255.174L1116.48 187.443L1202.36 139.864C1211.46 156.2 1215.98 175.299 1214.37 195.325Z" fill="#9767FF"/>
<path d="M1116.48 187.443L1038.77 247.453C1029.1 234.931 1022.41 220.035 1019.68 203.922L1116.48 187.442L1116.48 187.443Z" fill="#9767FF"/>
<g clip-path="url(#clip2_405_135)">
<path d="M1124.83 101.868L1101.91 171.573L1033.28 179.909C1032.61 174.324 1032.61 168.577 1033.36 162.743C1038.23 124.89 1072.87 98.1424 1110.73 103.02C1115.84 103.677 1120.75 104.884 1125.42 106.571" stroke="#9767FF" stroke-width="8.5163" stroke-miterlimit="10"/>
</g>
</g>
<rect x="1036" y="32" width="156.281" height="7.81407" rx="3.90704" fill="#9767FF"/>
<rect x="1036" y="51" width="156.281" height="7.81407" rx="3.90704" fill="#9767FF"/>
</g>
<rect x="646" y="71" width="311" height="235" rx="20" fill="url(#paint8_linear_405_135)"/>
<path fill-rule="evenodd" clip-rule="evenodd" d="M685.852 133.792C687.468 133.792 689.069 133.474 690.562 132.855C692.055 132.237 693.412 131.33 694.555 130.187C695.697 129.045 696.604 127.688 697.222 126.195C697.841 124.701 698.159 123.101 698.159 121.485C698.159 119.869 697.841 118.268 697.222 116.775C696.604 115.282 695.697 113.925 694.555 112.782C693.412 111.64 692.055 110.733 690.562 110.115C689.069 109.496 687.468 109.178 685.852 109.178C682.588 109.178 679.458 110.474 677.15 112.782C674.842 115.09 673.545 118.221 673.545 121.485C673.545 124.749 674.842 127.879 677.15 130.187C679.458 132.495 682.588 133.792 685.852 133.792ZM685.535 126.462L692.372 118.258L690.272 116.507L684.392 123.562L681.349 120.518L679.415 122.452L683.518 126.554L684.576 127.612L685.535 126.462Z" fill="#9767FF"/>
<path fill-rule="evenodd" clip-rule="evenodd" d="M685.852 193.179C687.468 193.179 689.069 192.861 690.562 192.242C692.055 191.624 693.412 190.717 694.555 189.575C695.697 188.432 696.604 187.075 697.222 185.582C697.841 184.089 698.159 182.488 698.159 180.872C698.159 179.256 697.841 177.656 697.222 176.162C696.604 174.669 695.697 173.312 694.555 172.17C693.412 171.027 692.055 170.12 690.562 169.502C689.069 168.883 687.468 168.565 685.852 168.565C682.588 168.565 679.458 169.862 677.15 172.17C674.842 174.478 673.545 177.608 673.545 180.872C673.545 184.136 674.842 187.267 677.15 189.575C679.458 191.883 682.588 193.179 685.852 193.179ZM685.535 185.85L692.372 177.645L690.272 175.895L684.392 182.949L681.349 179.905L679.415 181.839L683.518 185.941L684.576 187L685.535 185.85Z" fill="#9767FF"/>
<rect x="710.075" y="108.201" width="225.045" height="26.5678" rx="8.5" fill="#914BFF"/>
<rect x="710.075" y="167.588" width="225.045" height="26.5678" rx="8.5" fill="#9458FF"/>
<rect x="710.075" y="137.895" width="185.975" height="7.81407" rx="3.90704" fill="#914BFF"/>
<rect x="710.075" y="197.281" width="185.975" height="7.81407" rx="3.90704" fill="#9458FF"/>
<rect x="321.5" y="40.5" width="296" height="232" rx="24.5" fill="url(#paint9_linear_405_135)" stroke="url(#paint10_linear_405_135)"/>
<path d="M351 177.007H462.674" stroke="#914BFF" stroke-width="3.99585" stroke-linecap="round" stroke-linejoin="round"/>
<path d="M351 191.358H462.674" stroke="#914BFF" stroke-width="3.99585" stroke-linecap="round" stroke-linejoin="round"/>
<path d="M351 162.656H424.259" stroke="#914BFF" stroke-width="3.99585" stroke-linecap="round" stroke-linejoin="round"/>
<path d="M530.089 162.656H589.148" stroke="#914BFF" stroke-width="3.99585" stroke-linecap="round" stroke-linejoin="round"/>
<path d="M516.801 176.183H589.148" stroke="#914BFF" stroke-width="3.99585" stroke-linecap="round" stroke-linejoin="round"/>
<path d="M516.801 189.71H589.148" stroke="#914BFF" stroke-width="3.99585" stroke-linecap="round" stroke-linejoin="round"/>
<path d="M419.301 147H351V155.206H419.301V147Z" fill="#9767FF"/>
<path d="M453.933 147H419.302V155.206H453.933V147Z" fill="#9767FF" fill-opacity="0.8"/>
<path d="M499.254 147H453.933V155.206H499.254V147Z" fill="#9767FF" fill-opacity="0.6"/>
<path d="M589.147 147H499.253V155.206H589.147V147Z" fill="#9767FF" fill-opacity="0.4"/>
<mask id="path-34-inside-2_405_135" fill="white">
<path d="M351.696 119.245C354.156 121.893 358.303 122.717 361.512 120.956C364.722 119.195 366.208 115.223 365.284 111.738L363.86 112.338C366.183 115.723 369.867 117.421 373.776 118.258C375.799 118.695 377.872 118.92 379.933 119.095C382.144 119.282 384.554 119.532 386.627 118.583C388.425 117.759 389.437 116.097 390.848 114.798C391.797 113.924 392.609 113.587 393.883 114.049C394.807 114.386 395.581 114.786 396.593 114.673C398.591 114.461 400.102 112.775 401.039 111.114C402.101 109.215 402.775 106.417 405.048 105.606C407.883 104.594 410.58 107.479 411.542 109.852C412.704 112.712 412.853 115.873 414.04 118.745C414.29 119.345 415.076 119.545 415.464 118.933C419.073 113.187 421.695 106.892 423.232 100.272L422.27 100.822C428.652 103.382 436.082 102.47 441.665 98.4611L440.591 98.1863C442.964 102.021 445.936 105.406 449.458 108.216C449.77 108.466 450.257 108.553 450.557 108.216L454.916 103.42L453.579 102.87C453.504 104.981 454.766 106.717 456.726 107.417C457.076 107.542 457.413 107.329 457.613 107.054C460.498 103.033 463.383 99.0231 466.268 95.0013H464.919C466.068 97.3744 468.928 98.1363 471.363 97.5118C474.635 96.675 476.546 93.4775 478.12 90.7546H476.771C478.032 93.6398 479.256 96.5501 480.555 99.4228C481.379 101.234 482.403 103.182 484.214 104.182C485.713 105.006 487.386 104.856 488.723 103.807C490.059 102.758 490.658 101.109 489.684 99.6477L488.46 100.597C489.859 101.971 491.695 101.746 493.231 100.697C495.167 99.3729 495.879 97.4369 496.628 95.326C497.015 94.2394 497.415 93.1152 498.127 92.191C499.201 90.8045 500.549 90.9294 502.16 91.0668C504.134 91.2417 506.469 90.3299 506.069 87.9693L504.646 88.5688C506.194 91.0918 508.467 94.1644 511.652 94.5516C514.837 94.9388 516.822 92.2159 517.522 89.4181C518.521 85.4462 518.583 81.1121 519.02 77.0527C519.532 72.294 520.044 67.5352 520.556 62.7764L519.02 62.9887C520.581 70.1207 523.304 76.9154 527.113 83.148C527.413 83.6476 528.162 83.6601 528.462 83.148C529.511 81.3744 531.572 80.3752 533.607 80.8373C535.356 81.2245 536.704 82.461 538.565 81.6367C542.212 80.0254 541.125 75.3166 543.236 72.6562L541.9 72.1066C542.137 74.2674 543.186 76.0036 545.022 77.1777C545.397 77.415 545.859 77.2401 546.096 76.9029C547.482 74.867 548.868 72.831 550.242 70.7951L548.794 70.3954C549.106 74.2799 549.405 78.1519 549.718 82.0364C549.755 82.486 550.192 82.9981 550.704 82.7858L555.088 80.9747L554.126 80.4251C555.887 85.4462 557.636 90.4673 559.396 95.4759C559.571 95.963 560.071 96.1879 560.545 95.938C566.865 92.6156 570.836 85.7335 570.561 78.6015L569.987 79.351C575.857 77.2526 579.753 71.1074 578.929 64.8747L577.48 65.2744C580.353 69.5836 582.788 74.1675 584.661 78.9887C585.485 81.1246 586.122 83.3104 586.872 85.4712C587.496 87.2823 588.308 89.0059 589.857 90.2175C590.643 90.8295 591.755 89.7304 590.956 89.1184C589.245 87.7819 588.583 85.7835 587.958 83.7725C587.246 81.4868 586.46 79.2261 585.535 77.0153C583.712 72.6312 581.464 68.4345 578.829 64.4875C578.442 63.913 577.268 64.0504 577.38 64.8872C578.105 70.3954 574.858 75.9661 569.587 77.8521C569.275 77.9645 569 78.2518 569.013 78.6015C569.263 85.2214 565.628 91.504 559.771 94.5891L560.92 95.0512C559.159 90.0301 557.411 85.0091 555.65 80.0005C555.525 79.6382 555.1 79.2885 554.688 79.4509L550.305 81.262L551.291 82.0114C550.979 78.1269 550.679 74.2549 550.367 70.3705C550.305 69.5961 549.356 69.3213 548.918 69.9708C547.532 72.0067 546.146 74.0426 544.772 76.0785L545.846 75.8037C544.51 74.9544 543.673 73.6679 543.498 72.0816C543.436 71.5071 542.637 70.9325 542.162 71.5321C540.938 73.0808 540.651 74.8295 540.189 76.703C539.951 77.6648 539.627 78.639 538.965 79.4009C537.891 80.6624 536.767 80.3752 535.356 79.8006C532.271 78.5516 528.886 79.3759 527.138 82.3486H528.487C524.753 76.2284 522.08 69.5711 520.556 62.564C520.357 61.6398 519.108 61.952 519.02 62.7764C518.221 70.1706 517.434 77.5524 516.635 84.9466C516.36 87.4696 516.26 91.6789 513.413 92.778C510.191 94.0145 507.431 90.0926 506.007 87.7694C505.52 86.9825 504.433 87.5196 504.583 88.3689C504.871 90.0676 501.811 89.3931 501.049 89.3557C500.287 89.3182 499.525 89.3806 498.801 89.6804C497.515 90.23 496.653 91.3916 496.053 92.6031C495.329 94.0645 495.029 95.7257 494.293 97.1746C493.556 98.6235 491.245 101.097 489.584 99.4728C488.972 98.8733 487.848 99.6601 488.36 100.422C489.335 101.896 487.224 103.32 485.875 103.12C484.252 102.87 483.19 101.159 482.503 99.835C480.855 96.6625 479.568 93.2401 478.145 89.9552C477.907 89.4056 477.058 89.4931 476.796 89.9552C475.547 92.116 474.161 94.6391 471.775 95.7132C469.865 96.5751 467.279 96.2253 466.293 94.2019C466.018 93.6273 465.256 93.7647 464.944 94.2019C462.059 98.2238 459.174 102.233 456.289 106.255L457.176 105.893C455.827 105.418 455.128 104.257 455.178 102.858C455.203 102.196 454.304 101.808 453.842 102.308L449.483 107.104H450.582C447.16 104.369 444.263 101.122 441.952 97.3869C441.752 97.0497 441.24 96.8498 440.878 97.1121C435.583 100.909 428.727 101.734 422.682 99.3229C422.295 99.173 421.808 99.4978 421.72 99.8725C420.209 106.367 417.662 112.513 414.102 118.158L415.526 118.346C413.728 114.011 414.09 108.541 410.081 105.393C408.632 104.257 406.759 103.545 404.911 104.019C403.062 104.494 401.826 106.08 400.964 107.716C399.953 109.652 398.841 113.162 396.156 113.125C395.069 113.112 394.17 112.325 393.084 112.25C392.234 112.188 391.46 112.438 390.748 112.9C389.15 113.924 388.263 115.735 386.689 116.784C384.529 118.233 381.482 117.709 379.046 117.484C374.038 117.022 368.256 116.022 365.196 111.576C364.709 110.864 363.535 111.289 363.773 112.175C364.509 114.986 363.323 118.208 360.713 119.632C358.103 121.056 354.768 120.307 352.795 118.171C352.108 117.434 351.009 118.533 351.696 119.27V119.245Z"/>
</mask>
<path d="M351.696 119.245C354.156 121.893 358.303 122.717 361.512 120.956C364.722 119.195 366.208 115.223 365.284 111.738L363.86 112.338C366.183 115.723 369.867 117.421 373.776 118.258C375.799 118.695 377.872 118.92 379.933 119.095C382.144 119.282 384.554 119.532 386.627 118.583C388.425 117.759 389.437 116.097 390.848 114.798C391.797 113.924 392.609 113.587 393.883 114.049C394.807 114.386 395.581 114.786 396.593 114.673C398.591 114.461 400.102 112.775 401.039 111.114C402.101 109.215 402.775 106.417 405.048 105.606C407.883 104.594 410.58 107.479 411.542 109.852C412.704 112.712 412.853 115.873 414.04 118.745C414.29 119.345 415.076 119.545 415.464 118.933C419.073 113.187 421.695 106.892 423.232 100.272L422.27 100.822C428.652 103.382 436.082 102.47 441.665 98.4611L440.591 98.1863C442.964 102.021 445.936 105.406 449.458 108.216C449.77 108.466 450.257 108.553 450.557 108.216L454.916 103.42L453.579 102.87C453.504 104.981 454.766 106.717 456.726 107.417C457.076 107.542 457.413 107.329 457.613 107.054C460.498 103.033 463.383 99.0231 466.268 95.0013H464.919C466.068 97.3744 468.928 98.1363 471.363 97.5118C474.635 96.675 476.546 93.4775 478.12 90.7546H476.771C478.032 93.6398 479.256 96.5501 480.555 99.4228C481.379 101.234 482.403 103.182 484.214 104.182C485.713 105.006 487.386 104.856 488.723 103.807C490.059 102.758 490.658 101.109 489.684 99.6477L488.46 100.597C489.859 101.971 491.695 101.746 493.231 100.697C495.167 99.3729 495.879 97.4369 496.628 95.326C497.015 94.2394 497.415 93.1152 498.127 92.191C499.201 90.8045 500.549 90.9294 502.16 91.0668C504.134 91.2417 506.469 90.3299 506.069 87.9693L504.646 88.5688C506.194 91.0918 508.467 94.1644 511.652 94.5516C514.837 94.9388 516.822 92.2159 517.522 89.4181C518.521 85.4462 518.583 81.1121 519.02 77.0527C519.532 72.294 520.044 67.5352 520.556 62.7764L519.02 62.9887C520.581 70.1207 523.304 76.9154 527.113 83.148C527.413 83.6476 528.162 83.6601 528.462 83.148C529.511 81.3744 531.572 80.3752 533.607 80.8373C535.356 81.2245 536.704 82.461 538.565 81.6367C542.212 80.0254 541.125 75.3166 543.236 72.6562L541.9 72.1066C542.137 74.2674 543.186 76.0036 545.022 77.1777C545.397 77.415 545.859 77.2401 546.096 76.9029C547.482 74.867 548.868 72.831 550.242 70.7951L548.794 70.3954C549.106 74.2799 549.405 78.1519 549.718 82.0364C549.755 82.486 550.192 82.9981 550.704 82.7858L555.088 80.9747L554.126 80.4251C555.887 85.4462 557.636 90.4673 559.396 95.4759C559.571 95.963 560.071 96.1879 560.545 95.938C566.865 92.6156 570.836 85.7335 570.561 78.6015L569.987 79.351C575.857 77.2526 579.753 71.1074 578.929 64.8747L577.48 65.2744C580.353 69.5836 582.788 74.1675 584.661 78.9887C585.485 81.1246 586.122 83.3104 586.872 85.4712C587.496 87.2823 588.308 89.0059 589.857 90.2175C590.643 90.8295 591.755 89.7304 590.956 89.1184C589.245 87.7819 588.583 85.7835 587.958 83.7725C587.246 81.4868 586.46 79.2261 585.535 77.0153C583.712 72.6312 581.464 68.4345 578.829 64.4875C578.442 63.913 577.268 64.0504 577.38 64.8872C578.105 70.3954 574.858 75.9661 569.587 77.8521C569.275 77.9645 569 78.2518 569.013 78.6015C569.263 85.2214 565.628 91.504 559.771 94.5891L560.92 95.0512C559.159 90.0301 557.411 85.0091 555.65 80.0005C555.525 79.6382 555.1 79.2885 554.688 79.4509L550.305 81.262L551.291 82.0114C550.979 78.1269 550.679 74.2549 550.367 70.3705C550.305 69.5961 549.356 69.3213 548.918 69.9708C547.532 72.0067 546.146 74.0426 544.772 76.0785L545.846 75.8037C544.51 74.9544 543.673 73.6679 543.498 72.0816C543.436 71.5071 542.637 70.9325 542.162 71.5321C540.938 73.0808 540.651 74.8295 540.189 76.703C539.951 77.6648 539.627 78.639 538.965 79.4009C537.891 80.6624 536.767 80.3752 535.356 79.8006C532.271 78.5516 528.886 79.3759 527.138 82.3486H528.487C524.753 76.2284 522.08 69.5711 520.556 62.564C520.357 61.6398 519.108 61.952 519.02 62.7764C518.221 70.1706 517.434 77.5524 516.635 84.9466C516.36 87.4696 516.26 91.6789 513.413 92.778C510.191 94.0145 507.431 90.0926 506.007 87.7694C505.52 86.9825 504.433 87.5196 504.583 88.3689C504.871 90.0676 501.811 89.3931 501.049 89.3557C500.287 89.3182 499.525 89.3806 498.801 89.6804C497.515 90.23 496.653 91.3916 496.053 92.6031C495.329 94.0645 495.029 95.7257 494.293 97.1746C493.556 98.6235 491.245 101.097 489.584 99.4728C488.972 98.8733 487.848 99.6601 488.36 100.422C489.335 101.896 487.224 103.32 485.875 103.12C484.252 102.87 483.19 101.159 482.503 99.835C480.855 96.6625 479.568 93.2401 478.145 89.9552C477.907 89.4056 477.058 89.4931 476.796 89.9552C475.547 92.116 474.161 94.6391 471.775 95.7132C469.865 96.5751 467.279 96.2253 466.293 94.2019C466.018 93.6273 465.256 93.7647 464.944 94.2019C462.059 98.2238 459.174 102.233 456.289 106.255L457.176 105.893C455.827 105.418 455.128 104.257 455.178 102.858C455.203 102.196 454.304 101.808 453.842 102.308L449.483 107.104H450.582C447.16 104.369 444.263 101.122 441.952 97.3869C441.752 97.0497 441.24 96.8498 440.878 97.1121C435.583 100.909 428.727 101.734 422.682 99.3229C422.295 99.173 421.808 99.4978 421.72 99.8725C420.209 106.367 417.662 112.513 414.102 118.158L415.526 118.346C413.728 114.011 414.09 108.541 410.081 105.393C408.632 104.257 406.759 103.545 404.911 104.019C403.062 104.494 401.826 106.08 400.964 107.716C399.953 109.652 398.841 113.162 396.156 113.125C395.069 113.112 394.17 112.325 393.084 112.25C392.234 112.188 391.46 112.438 390.748 112.9C389.15 113.924 388.263 115.735 386.689 116.784C384.529 118.233 381.482 117.709 379.046 117.484C374.038 117.022 368.256 116.022 365.196 111.576C364.709 110.864 363.535 111.289 363.773 112.175C364.509 114.986 363.323 118.208 360.713 119.632C358.103 121.056 354.768 120.307 352.795 118.171C352.108 117.434 351.009 118.533 351.696 119.27V119.245Z" fill="#DFDFDF" stroke="url(#paint11_linear_405_135)" stroke-width="2.6639" mask="url(#path-34-inside-2_405_135)"/>
<mask id="path-35-inside-3_405_135" fill="white">
<path d="M591.531 94.5889H585.286V93.3398H591.531V94.5889ZM579.042 94.5889H572.798V93.3398H579.042V94.5889ZM566.553 94.5889H560.309V93.3398H566.553V94.5889ZM554.064 94.5889H547.82V93.3398H554.064V94.5889ZM541.576 94.5889H535.331V93.3398H541.576V94.5889ZM529.087 94.5889H522.843V93.3398H529.087V94.5889ZM516.598 94.5889H510.354V93.3398H516.598V94.5889ZM504.109 94.5889H497.865V93.3398H504.109V94.5889ZM491.621 94.5889H485.376V93.3398H491.621V94.5889ZM479.132 94.5889H472.888V93.3398H479.132V94.5889ZM466.643 94.5889H460.399V93.3398H466.643V94.5889ZM454.154 94.5889H447.91V93.3398H454.154V94.5889ZM441.666 94.5889H435.421V93.3398H441.666V94.5889ZM429.177 94.5889H422.933V93.3398H429.177V94.5889ZM416.688 94.5889H410.444V93.3398H416.688V94.5889ZM404.199 94.5889H397.955V93.3398H404.199V94.5889ZM391.711 94.5889H385.466V93.3398H391.711V94.5889ZM379.222 94.5889H372.978V93.3398H379.222V94.5889ZM366.733 94.5889H360.489V93.3398H366.733V94.5889ZM354.244 94.5889H348V93.3398H354.244V94.5889Z"/>
</mask>
<path d="M591.531 94.5889H585.286V93.3398H591.531V94.5889ZM579.042 94.5889H572.798V93.3398H579.042V94.5889ZM566.553 94.5889H560.309V93.3398H566.553V94.5889ZM554.064 94.5889H547.82V93.3398H554.064V94.5889ZM541.576 94.5889H535.331V93.3398H541.576V94.5889ZM529.087 94.5889H522.843V93.3398H529.087V94.5889ZM516.598 94.5889H510.354V93.3398H516.598V94.5889ZM504.109 94.5889H497.865V93.3398H504.109V94.5889ZM491.621 94.5889H485.376V93.3398H491.621V94.5889ZM479.132 94.5889H472.888V93.3398H479.132V94.5889ZM466.643 94.5889H460.399V93.3398H466.643V94.5889ZM454.154 94.5889H447.91V93.3398H454.154V94.5889ZM441.666 94.5889H435.421V93.3398H441.666V94.5889ZM429.177 94.5889H422.933V93.3398H429.177V94.5889ZM416.688 94.5889H410.444V93.3398H416.688V94.5889ZM404.199 94.5889H397.955V93.3398H404.199V94.5889ZM391.711 94.5889H385.466V93.3398H391.711V94.5889ZM379.222 94.5889H372.978V93.3398H379.222V94.5889ZM366.733 94.5889H360.489V93.3398H366.733V94.5889ZM354.244 94.5889H348V93.3398H354.244V94.5889Z" fill="#231F20"/>
<path d="M591.531 94.5889V95.9208H592.863V94.5889H591.531ZM585.286 94.5889H583.954V95.9208H585.286V94.5889ZM585.286 93.3398V92.0079H583.954V93.3398H585.286ZM591.531 93.3398H592.863V92.0079H591.531V93.3398ZM579.042 94.5889V95.9208H580.374V94.5889H579.042ZM572.798 94.5889H571.466V95.9208H572.798V94.5889ZM572.798 93.3398V92.0079H571.466V93.3398H572.798ZM579.042 93.3398H580.374V92.0079H579.042V93.3398ZM566.553 94.5889V95.9208H567.885V94.5889H566.553ZM560.309 94.5889H558.977V95.9208H560.309V94.5889ZM560.309 93.3398V92.0079H558.977V93.3398H560.309ZM566.553 93.3398H567.885V92.0079H566.553V93.3398ZM554.064 94.5889V95.9208H555.396V94.5889H554.064ZM547.82 94.5889H546.488V95.9208H547.82V94.5889ZM547.82 93.3398V92.0079H546.488V93.3398H547.82ZM554.064 93.3398H555.396V92.0079H554.064V93.3398ZM541.576 94.5889V95.9208H542.908V94.5889H541.576ZM535.331 94.5889H533.999V95.9208H535.331V94.5889ZM535.331 93.3398V92.0079H533.999V93.3398H535.331ZM541.576 93.3398H542.908V92.0079H541.576V93.3398ZM529.087 94.5889V95.9208H530.419V94.5889H529.087ZM522.843 94.5889H521.511V95.9208H522.843V94.5889ZM522.843 93.3398V92.0079H521.511V93.3398H522.843ZM529.087 93.3398H530.419V92.0079H529.087V93.3398ZM516.598 94.5889V95.9208H517.93V94.5889H516.598ZM510.354 94.5889H509.022V95.9208H510.354V94.5889ZM510.354 93.3398V92.0079H509.022V93.3398H510.354ZM516.598 93.3398H517.93V92.0079H516.598V93.3398ZM504.109 94.5889V95.9208H505.441V94.5889H504.109ZM497.865 94.5889H496.533V95.9208H497.865V94.5889ZM497.865 93.3398V92.0079H496.533V93.3398H497.865ZM504.109 93.3398H505.441V92.0079H504.109V93.3398ZM491.621 94.5889V95.9208H492.953V94.5889H491.621ZM485.376 94.5889H484.044V95.9208H485.376V94.5889ZM485.376 93.3398V92.0079H484.044V93.3398H485.376ZM491.621 93.3398H492.953V92.0079H491.621V93.3398ZM479.132 94.5889V95.9208H480.464V94.5889H479.132ZM472.888 94.5889H471.556V95.9208H472.888V94.5889ZM472.888 93.3398V92.0079H471.556V93.3398H472.888ZM479.132 93.3398H480.464V92.0079H479.132V93.3398ZM466.643 94.5889V95.9208H467.975V94.5889H466.643ZM460.399 94.5889H459.067V95.9208H460.399V94.5889ZM460.399 93.3398V92.0079H459.067V93.3398H460.399ZM466.643 93.3398H467.975V92.0079H466.643V93.3398ZM454.154 94.5889V95.9208H455.486V94.5889H454.154ZM447.91 94.5889H446.578V95.9208H447.91V94.5889ZM447.91 93.3398V92.0079H446.578V93.3398H447.91ZM454.154 93.3398H455.486V92.0079H454.154V93.3398ZM441.666 94.5889V95.9208H442.998V94.5889H441.666ZM435.421 94.5889H434.089V95.9208H435.421V94.5889ZM435.421 93.3398V92.0079H434.089V93.3398H435.421ZM441.666 93.3398H442.998V92.0079H441.666V93.3398ZM429.177 94.5889V95.9208H430.509V94.5889H429.177ZM422.933 94.5889H421.601V95.9208H422.933V94.5889ZM422.933 93.3398V92.0079H421.601V93.3398H422.933ZM429.177 93.3398H430.509V92.0079H429.177V93.3398ZM416.688 94.5889V95.9208H418.02V94.5889H416.688ZM410.444 94.5889H409.112V95.9208H410.444V94.5889ZM410.444 93.3398V92.0079H409.112V93.3398H410.444ZM416.688 93.3398H418.02V92.0079H416.688V93.3398ZM404.199 94.5889V95.9208H405.531V94.5889H404.199ZM397.955 94.5889H396.623V95.9208H397.955V94.5889ZM397.955 93.3398V92.0079H396.623V93.3398H397.955ZM404.199 93.3398H405.531V92.0079H404.199V93.3398ZM391.711 94.5889V95.9208H393.043V94.5889H391.711ZM385.466 94.5889H384.134V95.9208H385.466V94.5889ZM385.466 93.3398V92.0079H384.134V93.3398H385.466ZM391.711 93.3398H393.043V92.0079H391.711V93.3398ZM379.222 94.5889V95.9208H380.554V94.5889H379.222ZM372.978 94.5889H371.646V95.9208H372.978V94.5889ZM372.978 93.3398V92.0079H371.646V93.3398H372.978ZM379.222 93.3398H380.554V92.0079H379.222V93.3398ZM366.733 94.5889V95.9208H368.065V94.5889H366.733ZM360.489 94.5889H359.157V95.9208H360.489V94.5889ZM360.489 93.3398V92.0079H359.157V93.3398H360.489ZM366.733 93.3398H368.065V92.0079H366.733V93.3398ZM354.244 94.5889V95.9208H355.576V94.5889H354.244ZM348 94.5889H346.668V95.9208H348V94.5889ZM348 93.3398V92.0079H346.668V93.3398H348ZM354.244 93.3398H355.576V92.0079H354.244V93.3398ZM591.531 93.2569H585.286V95.9208H591.531V93.2569ZM586.618 94.5889V93.3398H583.954V94.5889H586.618ZM585.286 94.6718H591.531V92.0079H585.286V94.6718ZM590.199 93.3398V94.5889H592.863V93.3398H590.199ZM579.042 93.2569H572.798V95.9208H579.042V93.2569ZM574.13 94.5889V93.3398H571.466V94.5889H574.13ZM572.798 94.6718H579.042V92.0079H572.798V94.6718ZM577.71 93.3398V94.5889H580.374V93.3398H577.71ZM566.553 93.2569H560.309V95.9208H566.553V93.2569ZM561.641 94.5889V93.3398H558.977V94.5889H561.641ZM560.309 94.6718H566.553V92.0079H560.309V94.6718ZM565.221 93.3398V94.5889H567.885V93.3398H565.221ZM554.064 93.2569H547.82V95.9208H554.064V93.2569ZM549.152 94.5889V93.3398H546.488V94.5889H549.152ZM547.82 94.6718H554.064V92.0079H547.82V94.6718ZM552.733 93.3398V94.5889H555.396V93.3398H552.733ZM541.576 93.2569H535.331V95.9208H541.576V93.2569ZM536.663 94.5889V93.3398H533.999V94.5889H536.663ZM535.331 94.6718H541.576V92.0079H535.331V94.6718ZM540.244 93.3398V94.5889H542.908V93.3398H540.244ZM529.087 93.2569H522.843V95.9208H529.087V93.2569ZM524.175 94.5889V93.3398H521.511V94.5889H524.175ZM522.843 94.6718H529.087V92.0079H522.843V94.6718ZM527.755 93.3398V94.5889H530.419V93.3398H527.755ZM516.598 93.2569H510.354V95.9208H516.598V93.2569ZM511.686 94.5889V93.3398H509.022V94.5889H511.686ZM510.354 94.6718H516.598V92.0079H510.354V94.6718ZM515.266 93.3398V94.5889H517.93V93.3398H515.266ZM504.109 93.2569H497.865V95.9208H504.109V93.2569ZM499.197 94.5889V93.3398H496.533V94.5889H499.197ZM497.865 94.6718H504.109V92.0079H497.865V94.6718ZM502.777 93.3398V94.5889H505.441V93.3398H502.777ZM491.621 93.2569H485.376V95.9208H491.621V93.2569ZM486.708 94.5889V93.3398H484.044V94.5889H486.708ZM485.376 94.6718H491.621V92.0079H485.376V94.6718ZM490.289 93.3398V94.5889H492.953V93.3398H490.289ZM479.132 93.2569H472.888V95.9208H479.132V93.2569ZM474.219 94.5889V93.3398H471.556V94.5889H474.219ZM472.888 94.6718H479.132V92.0079H472.888V94.6718ZM477.8 93.3398V94.5889H480.464V93.3398H477.8ZM466.643 93.2569H460.399V95.9208H466.643V93.2569ZM461.731 94.5889V93.3398H459.067V94.5889H461.731ZM460.399 94.6718H466.643V92.0079H460.399V94.6718ZM465.311 93.3398V94.5889H467.975V93.3398H465.311ZM454.154 93.2569H447.91V95.9208H454.154V93.2569ZM449.242 94.5889V93.3398H446.578V94.5889H449.242ZM447.91 94.6718H454.154V92.0079H447.91V94.6718ZM452.822 93.3398V94.5889H455.486V93.3398H452.822ZM441.666 93.2569H435.421V95.9208H441.666V93.2569ZM436.753 94.5889V93.3398H434.089V94.5889H436.753ZM435.421 94.6718H441.666V92.0079H435.421V94.6718ZM440.334 93.3398V94.5889H442.998V93.3398H440.334ZM429.177 93.2569H422.933V95.9208H429.177V93.2569ZM424.264 94.5889V93.3398H421.601V94.5889H424.264ZM422.933 94.6718H429.177V92.0079H422.933V94.6718ZM427.845 93.3398V94.5889H430.509V93.3398H427.845ZM416.688 93.2569H410.444V95.9208H416.688V93.2569ZM411.776 94.5889V93.3398H409.112V94.5889H411.776ZM410.444 94.6718H416.688V92.0079H410.444V94.6718ZM415.356 93.3398V94.5889H418.02V93.3398H415.356ZM404.199 93.2569H397.955V95.9208H404.199V93.2569ZM399.287 94.5889V93.3398H396.623V94.5889H399.287ZM397.955 94.6718H404.199V92.0079H397.955V94.6718ZM402.867 93.3398V94.5889H405.531V93.3398H402.867ZM391.711 93.2569H385.466V95.9208H391.711V93.2569ZM386.798 94.5889V93.3398H384.134V94.5889H386.798ZM385.466 94.6718H391.711V92.0079H385.466V94.6718ZM390.379 93.3398V94.5889H393.043V93.3398H390.379ZM379.222 93.2569H372.978V95.9208H379.222V93.2569ZM374.309 94.5889V93.3398H371.646V94.5889H374.309ZM372.978 94.6718H379.222V92.0079H372.978V94.6718ZM377.89 93.3398V94.5889H380.554V93.3398H377.89ZM366.733 93.2569H360.489V95.9208H366.733V93.2569ZM361.821 94.5889V93.3398H359.157V94.5889H361.821ZM360.489 94.6718H366.733V92.0079H360.489V94.6718ZM365.401 93.3398V94.5889H368.065V93.3398H365.401ZM354.244 93.2569H348V95.9208H354.244V93.2569ZM349.332 94.5889V93.3398H346.668V94.5889H349.332ZM348 94.6718H354.244V92.0079H348V94.6718ZM352.912 93.3398V94.5889H355.576V93.3398H352.912Z" fill="url(#paint12_linear_405_135)" mask="url(#path-35-inside-3_405_135)"/>
<defs>
<linearGradient id="paint0_linear_405_135" x1="146.5" y1="0" x2="146.5" y2="291" gradientUnits="userSpaceOnUse">
<stop offset="0.075" stop-color="#8000FF"/>
<stop offset="1" stop-color="#A091FF"/>
</linearGradient>
<linearGradient id="paint1_linear_405_135" x1="146.5" y1="0" x2="146.5" y2="291" gradientUnits="userSpaceOnUse">
<stop offset="0.075" stop-color="#8000FF"/>
<stop offset="1" stop-color="#A091FF"/>
</linearGradient>
<linearGradient id="paint2_linear_405_135" x1="147.5" y1="90" x2="147.5" y2="256" gradientUnits="userSpaceOnUse">
<stop offset="0.075" stop-color="#8000FF"/>
<stop offset="1" stop-color="#A091FF"/>
</linearGradient>
<linearGradient id="paint3_linear_405_135" x1="77.9146" y1="39.8096" x2="77.9146" y2="40.8096" gradientUnits="userSpaceOnUse">
<stop offset="0.075" stop-color="#8000FF"/>
<stop offset="1" stop-color="#A091FF"/>
</linearGradient>
<linearGradient id="paint4_linear_405_135" x1="105" y1="75" x2="105" y2="76" gradientUnits="userSpaceOnUse">
<stop offset="0.075" stop-color="#8000FF"/>
<stop offset="1" stop-color="#A091FF"/>
</linearGradient>
<linearGradient id="paint5_linear_405_135" x1="69.8719" y1="56.2593" x2="69.8719" y2="57.2593" gradientUnits="userSpaceOnUse">
<stop offset="0.075" stop-color="#8000FF"/>
<stop offset="1" stop-color="#A091FF"/>
</linearGradient>
<linearGradient id="paint6_linear_405_135" x1="145.914" y1="150.34" x2="145.914" y2="151.589" gradientUnits="userSpaceOnUse">
<stop offset="0.075" stop-color="#8000FF"/>
<stop offset="1" stop-color="#A091FF"/>
</linearGradient>
<linearGradient id="paint7_linear_405_135" x1="1114" y1="0" x2="1114" y2="321.294" gradientUnits="userSpaceOnUse">
<stop offset="0.075" stop-color="#8000FF"/>
<stop offset="1" stop-color="#A091FF"/>
</linearGradient>
<linearGradient id="paint8_linear_405_135" x1="801.5" y1="71" x2="801.5" y2="306" gradientUnits="userSpaceOnUse">
<stop offset="0.075" stop-color="#8000FF"/>
<stop offset="1" stop-color="#A091FF"/>
</linearGradient>
<linearGradient id="paint9_linear_405_135" x1="469.5" y1="40" x2="469.5" y2="273" gradientUnits="userSpaceOnUse">
<stop offset="0.075" stop-color="#8000FF"/>
<stop offset="1" stop-color="#A091FF"/>
</linearGradient>
<linearGradient id="paint10_linear_405_135" x1="469.5" y1="40" x2="469.5" y2="273" gradientUnits="userSpaceOnUse">
<stop offset="0.075" stop-color="#8000FF"/>
<stop offset="1" stop-color="#A091FF"/>
</linearGradient>
<linearGradient id="paint11_linear_405_135" x1="471.355" y1="62" x2="471.355" y2="121.888" gradientUnits="userSpaceOnUse">
<stop offset="0.075" stop-color="#8000FF"/>
<stop offset="1" stop-color="#A091FF"/>
</linearGradient>
<linearGradient id="paint12_linear_405_135" x1="469.765" y1="93.3398" x2="469.765" y2="94.5889" gradientUnits="userSpaceOnUse">
<stop offset="0.075" stop-color="#8000FF"/>
<stop offset="1" stop-color="#A091FF"/>
</linearGradient>
<clipPath id="clip0_405_135">
<rect width="272" height="321.294" fill="white" transform="translate(978)"/>
</clipPath>
<clipPath id="clip1_405_135">
<rect width="196.374" height="196.374" fill="white" transform="translate(1026.51 81.7075) rotate(4.60399)"/>
</clipPath>
<clipPath id="clip2_405_135">
<rect width="91.446" height="95.655" fill="white" transform="translate(1038.48 89.3877) rotate(7.34017)"/>
</clipPath>
</defs>
</svg>
