<svg width="42" height="42" viewBox="0 0 42 42" fill="none" xmlns="http://www.w3.org/2000/svg">
<path d="M21 0C9.57115 0 0 8.20615 0 18.5769C0 23.4715 2.19531 27.8622 5.65385 31.1462C5.23333 32.2452 4.63642 33.2682 3.88662 34.1751C2.89282 35.3805 1.79498 36.4961 0.605769 37.5092C0.344911 37.7185 0.155438 38.0036 0.0634991 38.3251C-0.0284398 38.6467 -0.0183124 38.9889 0.0924837 39.3044C0.20328 39.6199 0.409282 39.8933 0.682062 40.0868C0.954842 40.2803 1.28095 40.3844 1.61538 40.3846C5.19346 40.3846 7.76677 40.3442 10.0962 39.7288C12.18 39.1763 13.9715 38.0197 15.8001 36.3962C17.4639 36.7952 19.1811 37.1538 21 37.1538C32.4288 37.1538 42 28.9477 42 18.5769C42 8.20615 32.4288 0 21 0ZM21 3.23077C30.8942 3.23077 38.7692 10.2092 38.7692 18.5769C38.7692 26.9446 30.8942 33.9231 21 33.9231C19.2408 33.9231 17.4138 33.6194 15.75 33.1655C15.4839 33.0986 15.2052 33.1005 14.9401 33.1712C14.675 33.2419 14.4323 33.3789 14.2348 33.5693C12.4175 35.3123 11.0783 36.1248 9.28846 36.5982C8.46461 36.8162 6.87508 36.7645 5.754 36.8518C5.98015 36.5965 6.19177 36.4608 6.41146 36.1943C7.68115 34.6435 8.83939 33.0039 9.18831 31.1462C9.23637 30.8674 9.21034 30.5808 9.11281 30.3151C9.01529 30.0495 8.8497 29.8141 8.63262 29.6326C5.24838 26.838 3.23077 22.9207 3.23077 18.5769C3.23077 10.2092 11.1058 3.23077 21 3.23077ZM17.9211 9.54046C17.6367 9.60428 17.375 9.74382 17.1635 9.94431L14.7404 12.2172L16.9115 14.5885L18.8289 12.7712H22.7155L24.2308 14.49V16.863L20.0905 19.6382C19.8692 19.7889 19.6889 19.9923 19.5656 20.23C19.4424 20.4677 19.3802 20.7323 19.3846 21V24.2308H22.6154V21.9078L26.7556 19.1326C26.9771 18.9818 27.1577 18.7782 27.2809 18.5401C27.4041 18.3021 27.4662 18.0372 27.4615 17.7692V13.8826C27.4594 13.4922 27.3159 13.1157 27.0577 12.8229L24.6346 10.0962C24.4838 9.92267 24.2978 9.78335 24.0888 9.68752C23.8799 9.5917 23.6529 9.54156 23.4231 9.54046H18.2732C18.1562 9.52763 18.0381 9.52763 17.9211 9.54046ZM19.3846 25.8462V29.0769H22.6154V25.8462H19.3846Z" fill="#FF6F00"/>
</svg>
