<svg width="400" height="337" viewBox="0 0 400 337" fill="none" xmlns="http://www.w3.org/2000/svg">
<g clip-path="url(#clip0_2013_1189)">
<path d="M383.229 2.95312H97.6781C89.8176 2.95312 83.4453 9.32537 83.4453 17.1859V245.226C83.4453 253.086 89.8176 259.459 97.6781 259.459H383.229C391.09 259.459 397.462 253.086 397.462 245.226V17.1859C397.462 9.32537 391.09 2.95312 383.229 2.95312Z" fill="white" stroke="#BABABA" stroke-width="5.06505" stroke-miterlimit="10"/>
<path d="M264.925 72.9258H104.276C102.355 72.9258 100.797 75.5143 100.797 78.7074V123.641C100.797 126.834 102.355 129.423 104.276 129.423H264.925C266.846 129.423 268.404 126.834 268.404 123.641V78.7074C268.404 75.5143 266.846 72.9258 264.925 72.9258Z" fill="#D9D5D8"/>
<path d="M369.861 134.629H285.961C282.816 134.629 280.266 137.179 280.266 140.324V187.925C280.266 191.07 282.816 193.62 285.961 193.62H369.861C373.006 193.62 375.556 191.07 375.556 187.925V140.324C375.556 137.179 373.006 134.629 369.861 134.629Z" fill="#D1D3D4"/>
<path d="M111.061 27.3271C112.864 27.3271 114.325 25.8657 114.325 24.063C114.325 22.2602 112.864 20.7988 111.061 20.7988C109.258 20.7988 107.797 22.2602 107.797 24.063C107.797 25.8657 109.258 27.3271 111.061 27.3271Z" fill="#A0A0A0"/>
<path d="M119.389 27.3271C121.192 27.3271 122.653 25.8657 122.653 24.063C122.653 22.2602 121.192 20.7988 119.389 20.7988C117.586 20.7988 116.125 22.2602 116.125 24.063C116.125 25.8657 117.586 27.3271 119.389 27.3271Z" fill="#A0A0A0"/>
<path d="M128.334 27.3271C130.137 27.3271 131.599 25.8657 131.599 24.063C131.599 22.2602 130.137 20.7988 128.334 20.7988C126.532 20.7988 125.07 22.2602 125.07 24.063C125.07 25.8657 126.532 27.3271 128.334 27.3271Z" fill="#A0A0A0"/>
<path d="M290.561 147.836H186.22C185.089 147.836 184.172 148.753 184.172 149.884V150.582C184.172 151.714 185.089 152.631 186.22 152.631H290.561C291.692 152.631 292.609 151.714 292.609 150.582V149.884C292.609 148.753 291.692 147.836 290.561 147.836Z" fill="#D9D5D8"/>
<path d="M180.031 171.727H107.392C106.261 171.727 105.344 172.644 105.344 173.775V174.473C105.344 175.604 106.261 176.521 107.392 176.521H180.031C181.162 176.521 182.079 175.604 182.079 174.473V173.775C182.079 172.644 181.162 171.727 180.031 171.727Z" fill="#D1D3D4"/>
<path d="M180.031 182.115H107.392C106.261 182.115 105.344 183.032 105.344 184.164V184.862C105.344 185.993 106.261 186.91 107.392 186.91H180.031C181.162 186.91 182.079 185.993 182.079 184.862V184.164C182.079 183.032 181.162 182.115 180.031 182.115Z" fill="#D1D3D4"/>
<path d="M180.031 192.504H107.392C106.261 192.504 105.344 193.421 105.344 194.552V195.25C105.344 196.382 106.261 197.299 107.392 197.299H180.031C181.162 197.299 182.079 196.382 182.079 195.25V194.552C182.079 193.421 181.162 192.504 180.031 192.504Z" fill="#D1D3D4"/>
<path d="M266.406 171.727H193.767C192.636 171.727 191.719 172.644 191.719 173.775V174.473C191.719 175.604 192.636 176.521 193.767 176.521H266.406C267.537 176.521 268.454 175.604 268.454 174.473V173.775C268.454 172.644 267.537 171.727 266.406 171.727Z" fill="#D1D3D4"/>
<path d="M266.406 182.115H193.767C192.636 182.115 191.719 183.032 191.719 184.164V184.862C191.719 185.993 192.636 186.91 193.767 186.91H266.406C267.537 186.91 268.454 185.993 268.454 184.862V184.164C268.454 183.032 267.537 182.115 266.406 182.115Z" fill="#D1D3D4"/>
<path d="M266.406 192.504H193.767C192.636 192.504 191.719 193.421 191.719 194.552V195.25C191.719 196.382 192.636 197.299 193.767 197.299H266.406C267.537 197.299 268.454 196.382 268.454 195.25V194.552C268.454 193.421 267.537 192.504 266.406 192.504Z" fill="#D1D3D4"/>
<path d="M180.031 202.893H107.392C106.261 202.893 105.344 203.81 105.344 204.941V205.639C105.344 206.77 106.261 207.688 107.392 207.688H180.031C181.162 207.688 182.079 206.77 182.079 205.639V204.941C182.079 203.81 181.162 202.893 180.031 202.893Z" fill="#D1D3D4"/>
<path d="M180.031 213.281H107.392C106.261 213.281 105.344 214.198 105.344 215.33V216.028C105.344 217.159 106.261 218.076 107.392 218.076H180.031C181.162 218.076 182.079 217.159 182.079 216.028V215.33C182.079 214.198 181.162 213.281 180.031 213.281Z" fill="#D1D3D4"/>
<path d="M180.031 223.672H107.392C106.261 223.672 105.344 224.589 105.344 225.72V226.418C105.344 227.55 106.261 228.467 107.392 228.467H180.031C181.162 228.467 182.079 227.55 182.079 226.418V225.72C182.079 224.589 181.162 223.672 180.031 223.672Z" fill="#D1D3D4"/>
<path d="M266.406 202.893H193.767C192.636 202.893 191.719 203.81 191.719 204.941V205.639C191.719 206.77 192.636 207.688 193.767 207.688H266.406C267.537 207.688 268.454 206.77 268.454 205.639V204.941C268.454 203.81 267.537 202.893 266.406 202.893Z" fill="#D1D3D4"/>
<path d="M374.164 213.281H301.525C300.394 213.281 299.477 214.198 299.477 215.33V216.028C299.477 217.159 300.394 218.076 301.525 218.076H374.164C375.295 218.076 376.212 217.159 376.212 216.028V215.33C376.212 214.198 375.295 213.281 374.164 213.281Z" fill="#D1D3D4"/>
<path d="M289.414 213.281H216.775C215.644 213.281 214.727 214.198 214.727 215.33V216.028C214.727 217.159 215.644 218.076 216.775 218.076H289.414C290.545 218.076 291.462 217.159 291.462 216.028V215.33C291.462 214.198 290.545 213.281 289.414 213.281Z" fill="#D1D3D4"/>
<path d="M374.164 223.672H301.525C300.394 223.672 299.477 224.589 299.477 225.72V226.418C299.477 227.55 300.394 228.467 301.525 228.467H374.164C375.295 228.467 376.212 227.55 376.212 226.418V225.72C376.212 224.589 375.295 223.672 374.164 223.672Z" fill="#D1D3D4"/>
<path d="M289.414 223.672H216.775C215.644 223.672 214.727 224.589 214.727 225.72V226.418C214.727 227.55 215.644 228.467 216.775 228.467H289.414C290.545 228.467 291.462 227.55 291.462 226.418V225.72C291.462 224.589 290.545 223.672 289.414 223.672Z" fill="#D1D3D4"/>
<path d="M179.414 28.0977L175.08 43.0508H172.891L169.419 31.0185L165.817 43.0508L163.65 43.0733L159.469 28.1033H161.551L164.81 40.7828L168.411 28.1033H170.601L174.034 40.7378L177.315 28.1033H179.414V28.0977Z" fill="#4D4D4D"/>
<path d="M192.223 37.8961H182.83C182.904 39.0554 183.298 39.9615 184.023 40.6087C184.744 41.2615 185.622 41.5823 186.652 41.5823C187.496 41.5823 188.199 41.3853 188.762 40.9914C189.325 40.5974 189.724 40.0741 189.955 39.4156H192.06C191.745 40.5468 191.115 41.4641 190.175 42.1732C189.229 42.8824 188.059 43.2369 186.657 43.2369C185.543 43.2369 184.547 42.9893 183.663 42.4884C182.785 41.9875 182.093 41.2784 181.592 40.3554C181.091 39.4325 180.844 38.3632 180.844 37.1476C180.844 35.932 181.086 34.8683 181.575 33.951C182.059 33.0336 182.746 32.3302 183.624 31.8405C184.502 31.3453 185.515 31.0977 186.657 31.0977C187.8 31.0977 188.762 31.3397 189.618 31.8293C190.473 32.3133 191.137 32.983 191.604 33.8328C192.071 34.6826 192.302 35.6449 192.302 36.7199C192.302 37.0913 192.28 37.4853 192.235 37.9017L192.223 37.8961ZM189.775 34.3899C189.449 33.8553 188.998 33.4445 188.436 33.1687C187.873 32.8873 187.243 32.7522 186.562 32.7522C185.577 32.7522 184.733 33.0674 184.04 33.6977C183.348 34.328 182.949 35.2004 182.847 36.3147H190.27C190.27 35.5718 190.107 34.9302 189.775 34.3956V34.3899Z" fill="#4D4D4D"/>
<path d="M198.574 31.7603C199.345 31.3157 200.223 31.0962 201.213 31.0962C202.271 31.0962 203.222 31.3495 204.067 31.8447C204.911 32.3456 205.575 33.0491 206.059 33.9551C206.543 34.8612 206.79 35.9193 206.79 37.118C206.79 38.3167 206.548 39.3635 206.059 40.2921C205.575 41.2207 204.905 41.9467 204.055 42.4588C203.205 42.9766 202.254 43.2298 201.213 43.2298C200.172 43.2298 199.305 43.0103 198.54 42.5657C197.775 42.1211 197.201 41.5583 196.812 40.8718V43.0385H194.859V27.168H196.812V33.4768C197.212 32.7789 197.797 32.2049 198.568 31.7603H198.574ZM204.258 34.8106C203.898 34.1521 203.419 33.6512 202.811 33.3079C202.204 32.9646 201.534 32.7902 200.808 32.7902C200.082 32.7902 199.429 32.9646 198.821 33.3136C198.214 33.6625 197.73 34.1746 197.364 34.8387C196.998 35.5028 196.818 36.2738 196.818 37.1461C196.818 38.0184 196.998 38.8063 197.364 39.4761C197.73 40.1401 198.214 40.6466 198.821 41.0012C199.429 41.3557 200.088 41.5246 200.808 41.5246C201.528 41.5246 202.204 41.3501 202.811 41.0012C203.419 40.6523 203.903 40.1458 204.258 39.4761C204.612 38.812 204.793 38.0297 204.793 37.1292C204.793 36.2288 204.612 35.469 204.258 34.8106Z" fill="#4D4D4D"/>
<path d="M217.178 42.6678C216.395 42.3189 215.787 41.8293 215.343 41.2102C214.898 40.5855 214.668 39.8708 214.656 39.0548H216.739C216.812 39.7582 217.099 40.3435 217.605 40.8219C218.112 41.3003 218.855 41.5423 219.828 41.5423C220.802 41.5423 221.488 41.3115 222.029 40.8444C222.563 40.3773 222.833 39.7808 222.833 39.0548C222.833 38.4807 222.676 38.0192 222.361 37.6591C222.046 37.3045 221.652 37.0287 221.179 36.843C220.706 36.6573 220.07 36.4547 219.271 36.2408C218.286 35.982 217.493 35.7231 216.902 35.4698C216.311 35.2166 215.799 34.8114 215.377 34.2598C214.955 33.7083 214.746 32.9711 214.746 32.0368C214.746 31.2208 214.955 30.5005 215.371 29.8701C215.787 29.2398 216.367 28.7558 217.121 28.4125C217.87 28.0692 218.736 27.9004 219.704 27.9004C221.106 27.9004 222.254 28.2493 223.149 28.9528C224.043 29.6563 224.544 30.5849 224.663 31.7442H222.518C222.445 31.1702 222.147 30.6693 221.618 30.2303C221.089 29.797 220.385 29.5775 219.513 29.5775C218.697 29.5775 218.033 29.7913 217.521 30.2078C217.009 30.6299 216.75 31.2208 216.75 31.9749C216.75 32.5208 216.902 32.9598 217.211 33.3031C217.521 33.6464 217.898 33.9053 218.348 34.0854C218.798 34.2655 219.429 34.4681 220.245 34.6988C221.23 34.969 222.023 35.2391 222.625 35.5036C223.227 35.7681 223.74 36.1789 224.167 36.7248C224.595 37.2764 224.809 38.0249 224.809 38.9647C224.809 39.6963 224.618 40.3773 224.229 41.0245C223.841 41.6661 223.272 42.1895 222.513 42.589C221.753 42.9886 220.864 43.1912 219.834 43.1912C218.804 43.1912 217.965 43.0168 217.183 42.6678H217.178Z" fill="#4D4D4D"/>
<path d="M227.74 28.998C227.481 28.7391 227.352 28.424 227.352 28.0525C227.352 27.6811 227.481 27.366 227.74 27.1071C227.999 26.8482 228.314 26.7188 228.685 26.7188C229.057 26.7188 229.344 26.8482 229.597 27.1071C229.845 27.366 229.974 27.6811 229.974 28.0525C229.974 28.424 229.85 28.7391 229.597 28.998C229.349 29.2569 229.046 29.3863 228.685 29.3863C228.325 29.3863 227.999 29.2569 227.74 28.998ZM229.631 31.2886V43.0451H227.678V31.2886H229.631Z" fill="#4D4D4D"/>
<path d="M235.332 32.8979V39.8258C235.332 40.3998 235.456 40.7994 235.698 41.0358C235.94 41.2721 236.362 41.3903 236.964 41.3903H238.399V43.0393H236.643C235.557 43.0393 234.741 42.7917 234.201 42.2908C233.655 41.7899 233.385 40.9682 233.385 39.8258V32.8979H231.859V31.2884H233.385V28.3281H235.337V31.2884H238.405V32.8979H235.337H235.332Z" fill="#4D4D4D"/>
<path d="M251.419 37.8961H242.026C242.099 39.0554 242.493 39.9615 243.219 40.6087C243.939 41.2615 244.817 41.5823 245.847 41.5823C246.691 41.5823 247.395 41.3853 247.957 40.9914C248.52 40.5974 248.92 40.0741 249.151 39.4156H251.255C250.94 40.5468 250.31 41.4641 249.37 42.1732C248.425 42.8824 247.254 43.2369 245.853 43.2369C244.738 43.2369 243.742 42.9893 242.859 42.4884C241.981 41.9875 241.288 41.2784 240.788 40.3554C240.287 39.4325 240.039 38.3632 240.039 37.1476C240.039 35.932 240.281 34.8683 240.771 33.951C241.255 33.0336 241.941 32.3302 242.819 31.8405C243.697 31.3453 244.71 31.0977 245.853 31.0977C246.995 31.0977 247.957 31.3397 248.813 31.8293C249.668 32.3133 250.332 32.983 250.799 33.8328C251.267 34.6826 251.497 35.6449 251.497 36.7199C251.497 37.0913 251.475 37.4853 251.43 37.9017L251.419 37.8961ZM248.97 34.3899C248.644 33.8553 248.194 33.4445 247.631 33.1687C247.068 32.8873 246.438 32.7522 245.757 32.7522C244.772 32.7522 243.928 33.0674 243.236 33.6977C242.543 34.328 242.144 35.2004 242.043 36.3147H249.466C249.466 35.5718 249.302 34.9302 248.97 34.3956V34.3899Z" fill="#4D4D4D"/>
<path d="M270.642 31.6439C271.357 32.021 271.92 32.5894 272.336 33.3491C272.753 34.1089 272.955 35.0318 272.955 36.118V43.0459H271.025V36.3938C271.025 35.2232 270.738 34.3227 270.158 33.7037C269.578 33.0846 268.796 32.7695 267.811 32.7695C266.826 32.7695 265.988 33.0959 265.386 33.7431C264.784 34.3959 264.485 35.3358 264.485 36.5626V43.0403H262.555V36.3882C262.555 35.2176 262.268 34.3171 261.688 33.6981C261.109 33.079 260.326 32.7638 259.341 32.7638C258.357 32.7638 257.518 33.0902 256.916 33.7374C256.314 34.3846 256.015 35.3301 256.015 36.557V43.0346H254.062V31.2781H256.015V32.9721C256.404 32.3586 256.921 31.8859 257.569 31.5538C258.216 31.2218 258.936 31.0586 259.724 31.0586C260.709 31.0586 261.581 31.2781 262.341 31.7227C263.101 32.1673 263.664 32.8145 264.035 33.6755C264.361 32.8482 264.907 32.201 265.667 31.7452C266.427 31.2893 267.265 31.0586 268.2 31.0586C269.134 31.0586 269.927 31.2499 270.642 31.627V31.6439Z" fill="#4D4D4D"/>
<path d="M370.244 71.9844H286.344C283.198 71.9844 280.648 74.5343 280.648 77.6797V125.28C280.648 128.425 283.198 130.975 286.344 130.975H370.244C373.389 130.975 375.939 128.425 375.939 125.28V77.6797C375.939 74.5343 373.389 71.9844 370.244 71.9844Z" fill="#D1D3D4"/>
<path d="M342.792 97.8788C342.793 98.3338 342.677 98.7813 342.456 99.1778C342.235 99.5743 341.917 99.9064 341.531 100.142L317.635 114.904C317.232 115.153 316.771 115.289 316.298 115.298C315.826 115.307 315.36 115.188 314.948 114.955C314.54 114.724 314.201 114.388 313.964 113.982C313.727 113.575 313.602 113.112 313.602 112.64V83.1179C313.602 82.6461 313.727 82.1829 313.964 81.7761C314.201 81.3693 314.54 81.0334 314.948 80.8032C315.36 80.5693 315.826 80.4506 316.298 80.4594C316.771 80.4683 317.232 80.6043 317.635 80.8534L341.531 95.616C341.917 95.8513 342.235 96.1834 342.456 96.5799C342.677 96.9764 342.793 97.4239 342.792 97.8788Z" fill="#9F9F9F"/>
<path d="M342.792 162.379C342.793 162.821 342.677 163.257 342.456 163.643C342.235 164.028 341.917 164.351 341.531 164.58L317.635 178.944C317.232 179.186 316.771 179.319 316.298 179.327C315.826 179.336 315.36 179.22 314.948 178.993C314.54 178.769 314.201 178.442 313.964 178.046C313.727 177.65 313.602 177.2 313.602 176.741V148.017C313.602 147.558 313.727 147.107 313.964 146.711C314.201 146.315 314.54 145.989 314.948 145.765C315.36 145.537 315.826 145.422 316.298 145.43C316.771 145.439 317.232 145.571 317.635 145.813L341.531 160.177C341.917 160.406 342.235 160.729 342.456 161.115C342.677 161.501 342.793 161.936 342.792 162.379Z" fill="#9F9F9F"/>
<g opacity="0.25">
<path d="M116.058 336.584C163.392 336.584 201.764 334.077 201.764 330.984C201.764 327.892 163.392 325.385 116.058 325.385C68.7236 325.385 30.3516 327.892 30.3516 330.984C30.3516 334.077 68.7236 336.584 116.058 336.584Z" fill="#0F0F14"/>
</g>
<path d="M251.958 213.662C251.958 213.662 254.001 209.728 252.904 205.479C251.801 201.23 252.274 199.345 251.328 197.454C250.383 195.563 247.394 195.878 243.933 199.654C240.472 203.43 235.238 204.061 235.238 204.061L235.12 202.018C235.75 197.296 233.702 195.884 231.974 196.277C230.241 196.677 227.41 201.23 226.937 202.885C226.464 204.539 220.73 207.606 220.73 207.606C220.73 207.606 218.754 225.784 229.453 234.907C229.453 234.907 241.885 229.712 248.334 222.948C254.784 216.183 251.953 213.662 251.953 213.662H251.958Z" fill="#EDBC9A"/>
<path d="M131.585 305.086C130.955 310.438 131.585 321.452 131.585 321.452C146.06 324.44 184.143 323.027 184.143 323.027C184.143 323.027 184.931 321.137 184.143 318.148C183.355 315.16 168.093 306.082 168.093 306.082C168.093 306.082 147.951 307.028 131.585 305.086Z" fill="#EDBC9A"/>
<path d="M25.4172 192.26C25.4172 192.26 12.1974 198.028 12.7264 208.102C13.2498 218.17 22.2712 224.783 22.2712 224.783C22.2712 224.783 22.1643 228.874 26.0475 229.505C29.9307 230.135 33.3918 226.567 33.3918 226.567C33.3918 226.567 38.8452 226.674 40.5279 225.205C42.205 223.736 45.7731 216.707 45.7731 216.707C41.631 198.664 25.4228 192.265 25.4228 192.265L25.4172 192.26Z" fill="#EDBC9A"/>
<path d="M52.6291 252.776C52.1169 252.838 51.8018 252.838 51.8018 252.838C47.5527 250.637 37.7997 250.007 36.6967 250.48C35.5936 250.952 27.6471 299.656 27.9622 300.832C28.2774 302.014 31.0294 303.111 34.0966 300.99C37.085 298.918 48.0199 287.73 48.5658 287.168C48.5432 287.156 48.5151 287.151 48.4926 287.139C48.4926 287.139 48.6445 267.633 52.6234 252.77L52.6291 252.776Z" fill="#EDBC9A"/>
<path d="M220.736 207.601C220.736 207.601 219.385 207.471 218.862 207.601C218.338 207.73 216.082 210.825 204.438 209.728C192.794 208.625 189.333 202.884 189.333 202.884C189.333 202.884 174.7 205.164 141.879 204.224C109.063 203.278 85.167 186.913 85.167 186.913C85.167 186.913 77.7664 176.996 56.9265 179.219C36.0866 181.442 25.4219 192.259 25.4219 192.259C25.4219 192.259 41.63 198.658 45.7721 216.701C58.0464 209.255 67.2761 214.286 67.2761 214.286C55.3169 234.006 59.5153 248.121 59.5153 248.121C57.8945 251.717 54.2702 252.573 52.6325 252.775C48.6536 267.638 48.5973 287.144 48.5973 287.144C48.5973 287.144 48.5861 287.156 48.5692 287.172C72.4537 296.548 90.3559 278.646 90.3559 278.646C100.115 284.314 120.099 286.672 120.099 286.672C129.227 290.133 131.585 305.08 131.585 305.08C147.951 307.022 168.093 306.076 168.093 306.076C175.015 290.549 168.093 277.751 168.093 277.751C185.297 257.187 176.906 235.368 176.906 235.368C176.906 235.368 188.708 244.969 206.959 243.394C225.21 241.818 229.459 234.896 229.459 234.896C218.761 225.767 220.736 207.595 220.736 207.595V207.601Z" fill="#3E4049"/>
<path d="M52.6308 252.775C48.652 267.639 48.5 287.145 48.5 287.145C48.5225 287.156 48.5507 287.161 48.5732 287.173C48.59 287.156 48.6013 287.145 48.6013 287.145C48.6013 287.145 48.6576 267.639 52.6365 252.775H52.6308Z" fill="#3E4049"/>
<path d="M119.695 203.493L129.971 218.93L131.305 220.877L132.385 221.333C132.385 221.333 140.67 217.422 145.83 213.285C150.997 209.154 153.929 206.115 153.929 206.115L154.362 205.575L153.923 204.444C153.923 204.444 143.067 204.534 134.254 203.746C125.441 202.958 119.436 201.18 119.436 201.18L118.727 201.984L119.7 203.487L119.695 203.493Z" fill="#EDBC9A"/>
<path d="M62.9243 222.746C62.9243 222.746 83.9555 247.126 119.208 256.564C154.455 266.007 177.783 258.719 177.783 258.719C177.783 258.719 176.055 266.671 172.284 271.962C172.284 271.962 142.603 279.525 109.084 269.964C75.5644 260.402 59.3281 235.037 59.3281 235.037C59.3281 235.037 61.2754 226.325 62.9243 222.752V222.746Z" fill="#742DD2"/>
<g opacity="0.4">
<path d="M184.489 319.735C184.489 319.735 164.206 306.96 164.313 306.313C164.42 305.666 168.472 306.313 168.472 306.313C168.472 306.313 180.78 314.8 182.62 316.162C184.461 317.524 184.489 319.741 184.489 319.741V319.735Z" fill="white"/>
</g>
<g opacity="0.25">
<path d="M86.7031 187.891C86.7031 187.891 105.933 210.661 135.513 213.025C165.099 215.388 186.969 203.485 186.969 203.485C186.969 203.485 159.359 205.264 137.995 204.037C116.632 202.804 93.2708 192.883 86.7031 187.896V187.891Z" fill="#0F0F14"/>
</g>
<g opacity="0.25">
<path d="M177.872 227.281C177.872 227.281 186.55 234.221 201.239 235.903C215.927 237.58 225.365 230.236 225.365 230.236L224.212 228.452C224.212 228.452 231.033 229.082 238.163 225.936C245.299 222.79 252.373 215.559 252.373 215.559C252.373 215.559 252.019 219.92 246.971 224.045C241.922 228.171 234.015 232.493 230.554 234.271C230.554 234.271 228.978 235.003 228.663 235.425C228.348 235.847 220.34 242.961 205.122 243.518C189.904 244.08 179.465 237.119 179.465 237.119L177.472 235.808L176.898 234.637C176.898 234.637 177 228.778 177.866 227.276L177.872 227.281Z" fill="#0F0F14"/>
</g>
<path d="M164.14 324.733C152.575 324.733 138.877 324.35 131.307 322.785C130.699 322.662 130.255 322.144 130.221 321.525C130.193 321.075 129.608 310.59 130.204 305.125C129.912 303.504 127.418 291.061 119.759 288.011C117.694 287.758 100.281 285.495 90.5561 280.323C88.9466 281.759 84.872 285.068 78.9459 287.685C72.0462 290.735 61.2801 293.346 48.8482 288.743C46.3945 291.264 37.6263 300.212 34.8743 302.114C32.8764 303.499 30.5915 303.921 28.7625 303.246C27.6538 302.84 26.8828 302.086 26.6408 301.186C26.4101 300.313 27.6876 291.557 30.4508 275.163C31.25 270.43 32.4206 263.626 33.4786 258.122C35.1051 249.674 35.3696 249.562 36.1575 249.224C37.8177 248.509 47.627 249.359 52.0899 251.458C53.1029 251.385 56.4627 250.924 58.061 247.969C57.4138 245.2 55.2415 232.352 65.304 214.934C62.5126 213.954 55.5679 212.491 46.8053 217.669C45.9049 219.425 43.0741 224.777 41.4195 226.223C39.6917 227.731 35.6003 227.917 33.9232 227.928C32.7695 228.953 29.5222 231.446 25.8248 230.843C22.3017 230.269 21.1311 227.394 20.9342 225.463C18.9081 223.814 11.8396 217.432 11.3612 208.163C10.8266 197.926 22.7294 191.989 24.6373 191.105C26.2131 189.591 36.9454 179.962 56.7835 177.852C76.7567 175.724 84.8664 184.391 86.1045 185.883C88.2543 187.295 111.306 201.967 141.921 202.845C174.191 203.774 188.981 201.545 189.128 201.522C189.668 201.438 190.214 201.691 190.501 202.158C190.557 202.248 193.906 207.347 204.57 208.36C210.896 208.957 215.325 208.394 217.74 206.683C217.982 206.509 218.212 206.346 218.539 206.267C219.062 206.137 219.878 206.16 220.447 206.199C222.973 204.809 225.354 203.104 225.641 202.468C226.114 200.802 229.153 195.518 231.674 194.938C232.878 194.662 234.088 194.972 234.989 195.799C235.929 196.654 236.947 198.438 236.497 202.063L236.514 202.395C238.169 201.95 240.915 200.926 242.93 198.725C245.406 196.024 247.905 194.702 249.976 194.989C251.124 195.152 252.041 195.805 252.553 196.834C253.15 198.033 253.285 199.204 253.431 200.566C253.561 201.731 253.718 203.183 254.225 205.13C255.159 208.726 254.101 212.069 253.51 213.527C253.718 213.949 253.904 214.528 253.938 215.271C254.039 217.674 252.486 220.573 249.329 223.887C243.296 230.213 232.479 235.087 230.34 236.01C229.102 237.591 223.531 243.343 207.075 244.761C193.861 245.898 184.006 241.418 179.234 238.587C179.785 241.047 180.343 244.598 180.314 248.864C180.264 256.253 178.367 267.227 169.7 277.948C171.107 281.044 175.283 292.153 169.813 305.525C174.957 308.626 184.676 314.828 185.458 317.799C186.336 321.137 185.498 323.314 185.396 323.551C185.194 324.04 184.721 324.373 184.186 324.389C183.444 324.418 174.675 324.733 164.134 324.733H164.14ZM132.894 320.309C146.345 322.718 177.062 321.879 183.067 321.694C183.162 321.007 183.196 319.904 182.825 318.491C182.301 316.904 174.405 311.423 167.399 307.253C166.802 306.898 166.566 306.155 166.847 305.525C173.42 290.786 166.96 278.528 166.892 278.404C166.628 277.915 166.69 277.307 167.044 276.879C183.5 257.21 175.711 236.072 175.627 235.864C175.407 235.284 175.598 234.631 176.099 234.271C176.6 233.911 177.281 233.928 177.759 234.316C177.872 234.406 189.387 243.546 206.838 242.043C223.981 240.563 228.264 234.243 228.303 234.181C228.455 233.95 228.68 233.753 228.933 233.646C229.057 233.595 241.18 228.48 247.353 222.002C251.569 217.579 251.45 215.243 251.023 214.658C250.482 214.264 250.437 213.628 250.747 213.031C250.764 212.998 252.531 209.486 251.58 205.822C251.023 203.684 250.854 202.125 250.713 200.875C250.578 199.643 250.488 198.827 250.105 198.067C249.993 197.842 249.846 197.741 249.593 197.701C248.766 197.589 247.055 198.27 244.939 200.577C241.18 204.68 235.636 205.389 235.4 205.417C235.028 205.462 234.651 205.349 234.359 205.107C234.072 204.865 233.891 204.516 233.869 204.139L233.751 202.091C233.751 202.006 233.751 201.916 233.762 201.832C234.145 198.979 233.379 198.039 233.137 197.819C232.895 197.6 232.608 197.527 232.271 197.605C231.297 197.876 228.691 201.691 228.241 203.256C227.695 205.175 223.699 207.555 221.37 208.805C221.133 208.929 220.863 208.985 220.593 208.962C220.137 208.917 219.597 208.901 219.31 208.917C219.31 208.917 219.304 208.917 219.299 208.923C218.195 209.705 214.836 212.086 204.295 211.09C194.525 210.167 190.146 206.07 188.711 204.348C185.199 204.809 170.505 206.413 141.826 205.586C108.987 204.64 84.6244 188.201 84.3824 188.038C84.2586 187.954 84.1517 187.847 84.0616 187.729C83.9941 187.644 76.7623 178.476 57.0593 180.576C37.0016 182.714 26.4832 193.114 26.3819 193.221C26.2581 193.345 26.1174 193.447 25.9598 193.514C25.836 193.57 13.6124 199.035 14.0851 208.034C14.5691 217.314 22.994 223.623 23.0784 223.685C23.4386 223.949 23.6468 224.377 23.6355 224.822C23.6355 225.109 23.6749 227.737 26.2637 228.159C29.3815 228.671 32.3812 225.649 32.4093 225.615C32.6738 225.345 33.0284 225.193 33.4111 225.204C35.786 225.249 38.8307 224.867 39.6186 224.18C40.6935 223.24 43.2148 218.721 44.5429 216.093C44.6555 215.868 44.8356 215.676 45.0494 215.541C57.8471 207.775 67.5101 212.874 67.9153 213.099C68.2418 213.279 68.4838 213.583 68.5794 213.943C68.6751 214.303 68.6245 214.686 68.4275 215.007C56.9692 233.905 60.768 247.609 60.8074 247.744C60.8974 248.053 60.8749 248.391 60.7455 248.689C58.2861 254.154 52.0561 254.216 51.7916 254.216C51.5721 254.216 51.3583 254.165 51.1613 254.064C47.6439 252.241 39.8831 251.599 37.6376 251.717C36.0168 257.17 29.6123 296.554 29.3196 300.494C29.4322 300.584 29.6686 300.719 30.0625 300.792C30.6309 300.899 31.8071 300.921 33.3098 299.88C35.651 298.259 43.6143 290.228 47.5032 286.205C47.8859 285.805 48.4712 285.681 48.9889 285.884C71.7592 294.871 89.2055 277.864 89.3799 277.69C89.8189 277.256 90.4942 277.166 91.0289 277.476C100.433 282.935 120.046 285.304 120.243 285.327C120.356 285.338 120.462 285.366 120.569 285.405C130.322 289.103 132.821 304.236 132.922 304.878C132.939 305.001 132.945 305.125 132.928 305.249C132.433 309.459 132.742 317.445 132.883 320.315L132.894 320.309Z" fill="#0F0F14"/>
<path d="M45.7724 217.843C45.2546 217.843 44.7875 217.489 44.6637 216.96C40.7073 199.738 25.1576 193.385 25.0001 193.323C24.4148 193.092 24.1277 192.428 24.3641 191.848C24.5949 191.263 25.2533 190.976 25.8386 191.207C26.5252 191.477 42.6546 198.039 46.8811 216.453C47.0218 217.067 46.6391 217.674 46.0257 217.815C45.9412 217.838 45.8568 217.843 45.7724 217.843Z" fill="#0F0F14"/>
<path d="M32.4517 225.575C33.3971 224.545 34.5565 223.746 35.7496 223.015C36.1491 222.761 36.6106 222.581 37.331 222.666C37.4154 222.677 37.4829 222.744 37.4886 222.829C37.5392 223.555 37.331 224.005 37.0609 224.388C36.273 225.541 35.4119 226.656 34.337 227.551C33.0144 228.575 31.3655 226.825 32.4573 225.57L32.4517 225.575Z" fill="#0F0F14"/>
<path d="M66.1312 213.543C67.8645 210.724 69.8849 208.112 72.0179 205.591C72.727 204.747 73.5261 203.953 74.6292 203.419C74.7192 203.374 74.8318 203.458 74.8093 203.554C74.4885 205.625 72.8677 207.747 71.911 209.514C70.8023 211.388 69.6598 213.256 68.4104 215.04C67.3749 216.442 65.2589 215.057 66.1255 213.543H66.1312Z" fill="#0F0F14"/>
<path d="M229.46 236.043C229.201 236.043 228.937 235.953 228.723 235.773C217.692 226.363 219.527 208.247 219.606 207.482C219.673 206.857 220.236 206.401 220.861 206.475C221.486 206.542 221.936 207.105 221.868 207.73C221.851 207.904 220.09 225.423 230.197 234.045C230.676 234.45 230.732 235.171 230.327 235.649C230.102 235.914 229.781 236.049 229.46 236.049V236.043Z" fill="#0F0F14"/>
<path d="M251.588 214.737C250.935 214.574 250.057 214.484 249.467 214.833C249.371 214.894 249.016 215.159 248.735 215.362C247.57 216.223 246.394 217.067 245.212 217.905C244.919 218.114 244.548 218.136 244.238 217.995C242.781 217.348 241.216 216.757 239.674 216.313C238.076 215.885 236.573 215.48 234.902 215.328C234.812 215.328 234.778 215.187 234.857 215.142C237.839 213.617 242.027 215.125 245.037 216.082L244.03 216.2C245.505 215.024 246.715 213.983 248.273 212.857C249.534 212.12 250.986 212.148 252.325 212.581C253.744 213.105 253.023 215.193 251.583 214.731L251.588 214.737Z" fill="#0F0F14"/>
<path d="M252.152 207.528C252.101 207.409 251.944 207.19 251.831 207.162C251.15 207.145 250.66 207.719 250.058 208.158C247.914 209.801 246.31 211.979 243.851 213.251C243.772 213.29 243.676 213.212 243.71 213.127C244.065 212.007 244.678 211.096 245.353 210.251C246.378 208.968 247.424 207.696 248.623 206.543C249.259 205.929 250.109 205.147 251.094 204.928C252.444 204.522 253.925 205.457 254.313 206.79C254.774 208.237 252.686 208.946 252.157 207.528H252.152Z" fill="#0F0F14"/>
<path d="M251.611 203.852C251.116 203.441 250.306 203.148 249.844 203.154C248.82 203.604 247.79 204.538 246.845 205.242C244.88 206.66 243.13 208.658 240.682 209.232C240.592 209.249 240.525 209.136 240.586 209.069C242.038 207.054 243.777 205.467 245.528 203.728C246.687 202.687 247.734 201.488 249.293 200.931C250.711 200.661 252.101 201.252 253.148 202.175C254.24 203.222 252.754 204.831 251.611 203.852Z" fill="#0F0F14"/>
<path d="M175.534 235.424C175.466 230.128 176.901 224.939 179.062 220.156C179.76 218.574 180.677 217.077 181.938 215.811C181.983 215.766 182.062 215.766 182.107 215.811C182.135 215.839 182.146 215.879 182.141 215.918C181.899 217.651 181.347 219.216 180.835 220.848C180.3 222.424 179.906 224.039 179.518 225.649C178.815 228.834 178.331 232.154 178.263 235.396C178.201 237.152 175.635 237.186 175.534 235.43V235.424Z" fill="#0F0F14"/>
<path d="M135.333 289.249C130.741 289.249 125.608 288.884 119.89 288.023C119.142 287.91 118.63 287.212 118.742 286.469C118.855 285.726 119.552 285.209 120.295 285.321C154.501 290.476 166.939 276.986 167.063 276.851C167.564 276.288 168.425 276.232 168.987 276.733C169.55 277.228 169.606 278.089 169.111 278.652C168.667 279.159 159.51 289.244 135.327 289.244L135.333 289.249Z" fill="#0F0F14"/>
<path d="M156.31 307.443C149.129 307.443 139.775 307.202 131.457 306.217C130.832 306.143 130.388 305.575 130.461 304.95C130.534 304.326 131.108 303.875 131.727 303.954C147.806 305.862 167.847 304.956 168.049 304.945C168.674 304.922 169.209 305.401 169.237 306.031C169.265 306.661 168.781 307.19 168.151 307.218C168.049 307.218 163.17 307.443 156.31 307.443Z" fill="#0F0F14"/>
<path d="M48.494 288.287H48.4828C47.8524 288.287 47.3516 287.769 47.3516 287.139C47.3516 286.942 47.5542 267.329 51.5612 252.477C51.7244 251.869 52.3491 251.509 52.9569 251.672C53.5647 251.835 53.9249 252.46 53.7617 253.068C49.8334 267.633 49.6365 286.959 49.6308 287.156C49.6308 287.78 49.1187 288.287 48.494 288.287Z" fill="#0F0F14"/>
<path d="M144.727 276.131C134.271 276.131 121.743 274.995 108.703 271.269C75.0771 261.674 58.3399 236.022 58.1767 235.763C57.9797 235.459 57.9122 235.082 57.9966 234.727C58.0754 234.367 59.9945 225.83 61.6828 222.166C61.8798 221.744 62.2738 221.451 62.7296 221.39C63.1911 221.328 63.6526 221.496 63.9509 221.851C64.1591 222.093 85.1453 246.028 119.554 255.241C153.957 264.454 177.138 257.481 177.369 257.408C177.83 257.261 178.337 257.38 178.697 257.706C179.057 258.032 179.215 258.528 179.108 259C179.034 259.338 177.279 267.29 173.39 272.744C173.204 273.008 172.928 273.194 172.613 273.273C172.427 273.318 161.121 276.12 144.722 276.12L144.727 276.131ZM60.788 234.761C63.1911 238.222 79.3317 260.053 109.452 268.652C139.927 277.347 167.486 271.663 171.454 270.757C173.671 267.465 175.123 263.193 175.866 260.638C169.096 262.219 148.155 265.742 118.85 257.892C88.8991 249.866 68.8696 230.929 63.3993 225.267C62.2794 228.497 61.1651 233.152 60.788 234.761Z" fill="#0F0F14"/>
<path d="M163.044 262.231C162.768 262.231 162.487 262.13 162.267 261.927C145.766 246.597 118.179 203.268 117.014 201.434C116.676 200.905 116.834 200.201 117.363 199.863C117.892 199.526 118.595 199.683 118.933 200.212C119.214 200.657 147.528 245.128 163.815 260.261C164.276 260.689 164.305 261.409 163.871 261.871C163.646 262.113 163.342 262.237 163.038 262.237L163.044 262.231Z" fill="#0F0F14"/>
<path d="M150.153 262.461C149.9 262.461 149.646 262.377 149.438 262.208C125.289 242.691 103.053 197.229 102.834 196.773C102.558 196.211 102.795 195.53 103.363 195.254C103.926 194.978 104.607 195.214 104.882 195.783C105.102 196.233 127.118 241.245 150.868 260.441C151.357 260.835 151.43 261.555 151.036 262.039C150.811 262.315 150.485 262.461 150.153 262.461Z" fill="#0F0F14"/>
<path d="M131.823 222.745C131.401 222.745 130.996 222.509 130.799 222.098C130.529 221.53 130.765 220.854 131.334 220.579C131.508 220.494 148.667 212.165 154.25 203.808C154.599 203.284 155.308 203.143 155.826 203.492C156.349 203.841 156.49 204.55 156.141 205.068C150.215 213.949 133.045 222.278 132.319 222.627C132.161 222.706 131.992 222.74 131.823 222.74V222.745Z" fill="#0F0F14"/>
<path d="M138.001 231.546C137.573 231.546 137.162 231.299 136.965 230.888C136.701 230.319 136.948 229.644 137.522 229.38C137.742 229.278 159.781 218.934 167.069 203.818C167.339 203.25 168.02 203.013 168.588 203.289C169.157 203.559 169.393 204.24 169.117 204.809C161.475 220.662 139.413 231.017 138.479 231.445C138.327 231.518 138.164 231.552 138.001 231.552V231.546Z" fill="#0F0F14"/>
<path d="M60.7736 247.58C61.2575 248.486 61.6684 249.499 62.0736 250.456C62.4506 251.514 63.1429 252.431 62.9909 253.709C62.9853 253.799 62.9065 253.866 62.8165 253.855C62.0286 253.793 61.5221 253.422 61.1168 253C59.9125 251.728 58.8995 250.309 58.2635 248.661C58.0047 247.951 58.3648 247.164 59.0739 246.905C59.738 246.657 60.464 246.961 60.7736 247.58Z" fill="#0F0F14"/>
<path d="M66.1539 110.278C66.1539 110.278 60.5036 116.942 42.8884 120.729C25.2733 124.517 16.3476 117.139 14.7943 114.91C13.241 112.681 13.8094 104.054 16.4207 103.007C19.032 101.96 28.0084 107.425 35.9718 107.487C43.9296 107.554 61.4434 96.6758 61.4434 96.6758" fill="#742DD2"/>
<g opacity="0.25">
<path d="M42.6321 114.572C25.0169 118.36 16.0912 110.982 14.5379 108.753C14.3803 108.522 14.2452 108.224 14.1271 107.875C13.7331 110.616 13.9526 113.7 14.7911 114.91C16.3444 117.138 25.2702 124.517 42.8853 120.729C60.5004 116.941 66.1508 110.278 66.1508 110.278L62.2282 109.637C61.2208 109.141 60.7481 107.999 60.7481 107.999C57.1294 110.126 51.3439 112.704 42.6264 114.572H42.6321Z" fill="#0F0F14"/>
</g>
<path d="M33.5063 123.148C21.8229 123.148 15.2777 117.993 13.6794 115.691C12.2837 113.688 12.3118 108.606 13.2686 105.404C13.8539 103.445 14.743 102.213 15.9193 101.746C17.5907 101.076 20.1908 101.988 23.7814 103.248C27.4001 104.52 31.9079 106.096 35.9881 106.13H36.0557C43.5632 106.13 60.5593 95.6282 60.7281 95.5213C61.3697 95.1217 62.2082 95.3187 62.6078 95.9603C63.0074 96.6018 62.8104 97.4404 62.1688 97.84C61.4428 98.2902 44.3342 108.859 36.0444 108.859C36.0163 108.859 35.9938 108.859 35.9656 108.859C31.4296 108.82 26.6853 107.16 22.8753 105.82C20.6692 105.049 17.6526 103.991 16.9323 104.278C16.7466 104.351 16.2851 104.847 15.8855 106.186C14.9738 109.236 15.2552 113.176 15.9193 114.133C17.3262 116.153 25.9875 122.968 42.6065 119.4C59.5688 115.753 65.0615 109.461 65.1178 109.4C65.6074 108.826 66.4685 108.752 67.0425 109.242C67.6166 109.732 67.6897 110.593 67.2001 111.167C66.9581 111.454 61.0433 118.23 43.1805 122.068C39.635 122.828 36.4102 123.148 33.5063 123.148Z" fill="#0F0F14"/>
<path d="M58.9464 102.214C58.9464 102.214 54.6242 92.2917 42.8226 86.8778C31.021 81.4582 25.5283 61.6144 26.53 58.6992C27.5318 55.7783 35.6809 49.0981 42.4343 50.3193C42.4343 50.3193 42.9689 68.4973 52.238 74.0069C61.507 79.5166 69.4423 82.8876 71.896 94.2502C71.896 94.2502 69.9432 101.78 58.9408 102.219L58.9464 102.214Z" fill="#742DD2"/>
<g opacity="0.25">
<path d="M62.7336 99.6349C62.7336 99.6349 61.1241 92.724 54.6689 87.5407C48.2138 82.3575 42.0963 83.0216 37.3633 76.6677C32.6247 70.3139 29.8389 56.4863 29.8389 56.4863C29.8389 56.4863 26.7774 57.1504 26.4453 59.1652C26.1133 61.1856 28.432 70.3027 33.0806 77.7202C37.7348 85.1433 45.3436 88.1542 45.3436 88.1542C45.3436 88.1542 50.7238 91.0525 54.4044 95.4985C58.085 99.9445 58.9517 102.213 58.9517 102.213C58.9517 102.213 62.8518 101.312 62.7336 99.6349Z" fill="#0F0F14"/>
</g>
<path d="M58.9463 103.581C58.4061 103.581 57.9108 103.26 57.697 102.759C57.6294 102.607 53.3692 93.22 42.2542 88.1156C29.8504 82.4202 24.0369 61.7548 25.2412 58.2487C26.4062 54.8551 35.0731 47.6008 42.6819 48.9684C43.3178 49.0809 43.7849 49.6268 43.8018 50.274C43.8018 50.4485 44.4265 67.771 52.9358 72.8304C53.9432 73.4326 54.9393 74.0066 55.9129 74.5694C63.9664 79.2292 70.9224 83.2475 73.2354 93.9573C73.2804 94.1655 73.2748 94.3794 73.2242 94.5876C73.1341 94.9365 70.8774 103.103 59.0026 103.581C58.9857 103.581 58.9632 103.581 58.9463 103.581ZM40.7121 51.529C34.938 51.529 28.556 56.9993 27.8244 59.1435C27.0534 61.6085 32.2423 80.518 43.391 85.6393C53.5999 90.3273 58.3948 98.1725 59.768 100.801C67.7652 100.159 70.0275 95.4149 70.4834 94.1824C68.3505 84.919 62.2443 81.3903 54.5397 76.9331C53.5605 76.3647 52.5531 75.785 51.5345 75.1772C43.0533 70.1346 41.4269 55.8005 41.1286 51.5403C40.9879 51.5346 40.8472 51.529 40.7065 51.529H40.7121Z" fill="#0F0F14"/>
<path d="M186.049 203.17C186.049 203.17 139.388 212.658 99.1099 203.868C58.8371 195.077 48.4875 177.62 59.383 155.519C59.383 155.519 53.0405 107.969 81.0446 79.8809C109.043 51.7924 182.126 45.4554 210.445 94.9466C222.185 117.092 220.08 155.733 220.08 155.733C220.08 155.733 240.667 189.843 186.054 203.176L186.049 203.17Z" fill="#3E4049"/>
<g opacity="0.4">
<path d="M56.6562 162.358C56.7463 162.172 56.8363 161.981 56.9264 161.795C56.9264 161.795 56.9151 161.717 56.8982 161.57C56.8138 161.835 56.735 162.094 56.6562 162.358Z" fill="white"/>
</g>
<g opacity="0.4">
<path d="M220.742 182.431C224.502 175.7 224.288 168.947 223.151 163.91C224.198 169.127 224.333 175.942 220.742 182.431Z" fill="white"/>
</g>
<g opacity="0.4">
<path d="M219.258 129.125C220.727 143.65 220.074 155.728 220.074 155.728C220.074 155.728 222.044 159.003 223.147 163.911C222.089 158.637 220.108 155.002 220.108 155.002C220.108 155.002 221.07 143.33 219.263 129.125H219.258Z" fill="white"/>
</g>
<g opacity="0.25">
<path d="M108.902 194.578C68.6296 185.787 58.28 168.329 69.1755 146.229C69.1755 146.229 63.4069 102.968 87.1733 74.6035C84.9503 76.2637 82.8961 78.0196 81.0446 79.8824C53.0461 107.971 59.383 155.521 59.383 155.521C48.4875 177.627 58.8371 195.079 99.1099 203.869C139.383 212.66 186.049 203.171 186.049 203.171C204.756 198.607 214.638 191.601 219.546 184.363C213.935 188.038 206.258 191.336 195.841 193.88C195.841 193.88 149.181 203.368 108.902 194.578Z" fill="#0F0F14"/>
</g>
<path d="M101.524 108.843C93.9038 110.312 88.1859 116.638 87.4149 124.359C86.2387 136.144 85.3495 158.948 94.8042 166.664C107.771 177.244 142.573 171.464 167.46 170.722C192.346 169.973 209.218 170.947 212.64 152.167C216.062 133.386 209.438 111.686 207.108 110.014C204.778 108.343 178.141 108.832 151.173 108.911C133.169 108.962 114.153 106.412 101.524 108.843Z" fill="#EDBC9A"/>
<path d="M137.462 208.94C125.03 208.94 111.58 207.989 98.816 205.203C75.8713 200.195 61.5597 192.102 56.2808 181.156C52.6959 173.721 53.2699 165.015 57.9748 155.285C57.7103 153.017 56.6128 142.048 58.3518 128.063C60.1246 113.802 65.3304 93.6991 80.0697 78.9148C87.8473 71.1146 99.3957 64.7157 112.582 60.9001C126.134 56.9831 140.591 55.88 154.397 57.7147C179.744 61.0802 200.066 74.0636 211.62 94.2619C222.915 115.558 221.66 150.974 221.452 155.397C222.662 157.581 228.155 168.589 223.253 180.368C218.605 191.539 206.195 199.654 186.363 204.494C186.346 204.494 186.329 204.5 186.312 204.506C185.991 204.573 164.076 208.935 137.457 208.935L137.462 208.94ZM141.503 59.6113C118.39 59.6113 95.1635 67.6535 82.0113 80.8451C67.8404 95.061 62.8035 114.516 61.0757 128.327C59.196 143.387 60.7212 155.217 60.738 155.335C60.7718 155.605 60.7268 155.875 60.6086 156.117C56.1288 165.206 55.5041 173.232 58.7458 179.963C63.6364 190.115 77.3176 197.707 99.4013 202.53C138.554 211.079 184.449 202.091 185.749 201.832C204.653 197.212 216.421 189.648 220.726 179.344C225.566 167.756 218.97 156.54 218.903 156.427C218.762 156.196 218.695 155.92 218.711 155.65C218.734 155.268 220.659 117.122 209.234 95.5788C198.13 76.174 178.523 63.6746 154.042 60.4217C149.905 59.8702 145.707 59.6057 141.503 59.6057V59.6113Z" fill="#0F0F14"/>
<path d="M123.716 174.334C111.172 174.334 100.27 172.882 93.9392 167.716C84.1073 159.691 84.7771 137.016 86.0546 124.219C86.8819 115.94 93.1344 109.063 101.267 107.498C109.596 105.894 120.531 106.412 132.107 106.958C138.371 107.256 144.837 107.56 151.169 107.543C155.716 107.532 160.258 107.504 164.67 107.481C193.76 107.324 205.809 107.403 207.903 108.905C210.936 111.078 217.453 133.364 213.981 152.414C210.599 170.969 194.655 171.38 172.594 171.948C170.934 171.993 169.24 172.033 167.501 172.089C161.895 172.258 155.874 172.674 149.497 173.119C140.752 173.727 131.888 174.34 123.716 174.34V174.334ZM101.784 110.183C94.834 111.522 89.4819 117.403 88.7728 124.494C87.7879 134.36 86.4879 158.115 95.6669 165.606C105.279 173.451 128.669 171.824 149.306 170.389C155.71 169.945 161.755 169.523 167.416 169.354C169.155 169.303 170.86 169.258 172.521 169.213C194.841 168.639 208.308 168.29 211.291 151.919C214.673 133.364 208.19 112.963 206.31 111.128C203.947 109.997 183.09 110.11 164.681 110.211C160.263 110.233 155.722 110.261 151.174 110.273C144.781 110.284 138.27 109.986 131.978 109.687C120.57 109.147 109.793 108.641 101.784 110.183Z" fill="#0F0F14"/>
<g opacity="0.25">
<path d="M219.962 111.353C219.962 111.353 132.669 123.543 63.3903 112.293C63.3903 112.293 59.9404 111.803 59.6478 106.879C59.3551 107.498 59.1244 108.196 58.9724 108.984C57.3629 117.42 62.4223 118.129 62.4223 118.129C131.701 129.379 218.994 117.189 218.994 117.189C219.85 114.983 220.12 112.991 220.007 111.229C219.99 111.269 219.979 111.308 219.962 111.353Z" fill="#0F0F14"/>
</g>
<path d="M219.152 112.473C219.152 112.473 131.859 124.663 62.5803 113.413C62.5803 113.413 57.5152 112.704 59.1304 104.268C60.74 95.832 71.5623 97.3909 71.5623 97.3909C71.5623 97.3909 130.227 102.428 151.399 102.152C172.576 101.876 210.896 97.8073 213.682 97.903C216.462 97.9987 222.642 103.508 219.152 112.473Z" fill="#742DD2"/>
<g opacity="0.25">
<path d="M220.119 106.642C220.119 106.642 132.825 118.832 63.5465 107.582C63.5465 107.582 60.0967 107.092 59.804 102.168C59.5114 102.787 59.2806 103.485 59.1287 104.273C57.5191 112.709 62.5785 113.418 62.5785 113.418C131.857 124.668 219.151 112.478 219.151 112.478C220.006 110.272 220.276 108.28 220.164 106.518C220.147 106.558 220.135 106.597 220.119 106.642Z" fill="#0F0F14"/>
</g>
<path d="M130.059 119.513C107.846 119.513 84.1701 118.303 62.3622 114.763C62.1821 114.735 60.2743 114.42 58.8673 112.456C57.4548 110.486 57.0946 107.644 57.7868 104.014C59.25 96.3492 67.5117 95.4431 71.7157 96.034C73.4885 96.186 130.735 101.077 151.383 100.79C165.802 100.604 188.403 98.6284 201.904 97.4522C209.238 96.8106 212.8 96.5011 213.729 96.5405C215.676 96.608 218.034 98.2457 219.598 100.615C220.921 102.624 222.789 106.896 220.426 112.974C220.246 113.435 219.829 113.762 219.339 113.829C218.743 113.914 177.812 119.519 130.054 119.519L130.059 119.513ZM69.504 98.6284C66.6506 98.6284 61.4618 99.3544 60.4769 104.521C59.9423 107.307 60.1449 109.479 61.0566 110.807C61.7882 111.871 62.7562 112.056 62.8012 112.062C127.538 122.581 209.131 112.411 218.158 111.229C219.66 106.704 218.304 103.603 217.325 102.118C216.07 100.215 214.387 99.2925 213.639 99.27C212.834 99.2306 208.123 99.6527 202.146 100.176C188.606 101.358 165.943 103.333 151.423 103.525C130.414 103.812 72.0365 98.8085 71.4512 98.7579C71.423 98.7579 71.4005 98.7579 71.3724 98.7466C71.2711 98.7297 70.5395 98.6341 69.504 98.6341V98.6284Z" fill="#0F0F14"/>
<path d="M174.745 154.315C179.518 147.066 189.895 144.782 197.634 148.288C200.217 149.424 202.507 151.051 204.32 153.083C204.635 153.437 204.607 153.977 204.252 154.298C203.999 154.523 203.655 154.574 203.363 154.456C198.782 152.689 194.274 151.338 189.479 151.659C184.746 151.951 180.322 153.589 175.905 155.531C175.139 155.953 174.289 155.069 174.745 154.326V154.315Z" fill="#0F0F14"/>
<path d="M111.378 156.292C117.011 147.76 129.162 145.075 138.307 149.195C141.34 150.54 144.053 152.437 146.174 154.834C146.546 155.251 146.507 155.892 146.09 156.264C145.797 156.522 145.392 156.584 145.049 156.449C140.856 154.873 137.024 153.557 132.724 153.213C128.655 152.847 124.727 153.461 120.77 154.654C118.125 155.436 115.446 156.539 112.745 157.716C111.845 158.216 110.832 157.175 111.383 156.297L111.378 156.292Z" fill="#0F0F14"/>
<path d="M113.392 270.225C113.392 270.225 107.432 274.075 99.6434 272.977C91.8545 271.88 87.9994 271.644 83.5928 273.608C83.5928 273.608 82.5685 269.595 81.0771 267.783C79.5801 265.971 76.8281 263.14 76.8281 263.14C76.8281 263.14 80.8408 260.36 86.8175 261.08C92.7999 261.8 100.876 264.547 104.506 261.311C104.506 261.311 113.218 264.71 113.392 270.22V270.225Z" fill="#742DD2"/>
<path d="M83.5926 274.974C83.39 274.974 83.1874 274.929 82.9961 274.839C82.6359 274.665 82.3658 274.338 82.2701 273.95C82.0056 272.915 81.0826 269.949 80.0246 268.66C78.5838 266.915 75.8769 264.13 75.8487 264.101C75.5673 263.814 75.4323 263.415 75.466 263.015C75.5054 262.616 75.7193 262.256 76.0457 262.025C76.2258 261.901 80.5592 258.963 86.9806 259.734C88.4663 259.914 90.0196 260.201 91.6629 260.511C96.199 261.355 101.337 262.317 103.594 260.303C103.977 259.959 104.523 259.864 105.001 260.049C105.389 260.201 114.551 263.848 114.76 270.185C114.776 270.664 114.54 271.114 114.135 271.378C113.876 271.547 107.657 275.492 99.4519 274.338C91.9894 273.286 88.2862 273.016 84.1498 274.862C83.9753 274.941 83.784 274.98 83.5926 274.98V274.974ZM90.8525 270.776C93.3457 270.776 96.199 271.114 99.8346 271.626C105.491 272.425 110.179 270.393 111.923 269.487C111.203 266.426 107.021 263.938 104.703 262.886C101.382 265.098 96.1934 264.13 91.1621 263.19C89.5638 262.891 88.0499 262.61 86.6542 262.441C83.3056 262.036 80.6211 262.846 79.0678 263.511C80.0021 264.501 81.2627 265.863 82.1294 266.915C83.2043 268.215 84.0147 270.343 84.4818 271.783C86.5191 271.069 88.5282 270.776 90.8525 270.776Z" fill="#0F0F14"/>
<path d="M124.837 260.45C124.837 260.45 126.103 268.745 115.934 274.936C105.764 281.121 96.9062 284.042 96.9062 284.042C96.9062 284.042 99.0223 291.549 102.815 295.083C102.815 295.083 117.994 291.043 129.812 278.132C141.625 265.228 127.004 259.324 127.004 259.324" fill="#742DD2"/>
<path d="M102.819 296.44C102.475 296.44 102.143 296.311 101.89 296.075C97.8604 292.327 95.688 284.729 95.598 284.408C95.401 283.705 95.7893 282.967 96.4872 282.742C96.5716 282.714 105.329 279.793 115.234 273.771C124.435 268.172 123.54 260.957 123.495 260.653C123.388 259.91 123.906 259.218 124.649 259.105C125.392 258.993 126.084 259.505 126.197 260.248C126.197 260.276 126.213 260.36 126.225 260.49C126.512 259.905 127.181 259.595 127.829 259.781C128.087 259.854 134.171 261.683 135.595 266.765C136.602 270.361 134.998 274.497 130.828 279.05C118.88 292.101 103.815 296.227 103.179 296.395C103.061 296.424 102.942 296.44 102.83 296.44H102.819ZM98.6145 284.881C99.3124 286.913 100.911 291.021 103.212 293.531C106.364 292.529 118.88 288.044 128.808 277.204C132.291 273.394 133.693 270.136 132.961 267.508C131.954 263.889 127.108 262.415 127.058 262.398C126.703 262.291 126.422 262.054 126.253 261.756C126.163 264.638 124.947 271.048 116.646 276.096C108.598 280.992 101.445 283.84 98.6145 284.881Z" fill="#0F0F14"/>
<path d="M121.084 257.693C121.084 257.693 126.188 253.258 133.189 258.83C140.19 264.402 132.3 274.717 126.346 275.792C120.391 276.867 117.212 271.172 117.212 271.172C117.212 271.172 109.546 270.575 105.613 263.794C101.684 257.012 105.832 247.394 111.629 248.936C117.431 250.473 119.75 254.874 121.084 257.693Z" fill="#742DD2"/>
<path d="M124.828 277.294C120.218 277.294 117.382 273.873 116.397 272.443C114.287 272.111 107.995 270.637 104.427 264.48C101.545 259.51 102.581 253.584 105.085 250.298C106.903 247.917 109.413 246.938 111.974 247.613C117.568 249.093 120.269 253.112 121.642 255.74C123.888 254.614 128.508 253.359 134.035 257.755C136.832 259.978 137.879 263.157 136.989 266.692C135.763 271.554 131.001 276.332 126.584 277.126C125.97 277.238 125.385 277.283 124.828 277.283V277.294ZM110.392 250.134C108.974 250.134 107.927 251.08 107.258 251.952C105.344 254.457 104.534 259.212 106.79 263.107C110.297 269.157 117.247 269.798 117.315 269.804C117.765 269.843 118.176 270.102 118.395 270.496C118.508 270.687 121.198 275.325 126.094 274.436C129.122 273.89 133.286 270.175 134.333 266.022C134.963 263.512 134.288 261.452 132.33 259.888C126.358 255.132 122.138 258.571 121.963 258.723C121.637 258.993 121.203 259.105 120.787 259.015C120.37 258.925 120.022 258.649 119.841 258.267C118.232 254.856 116.082 251.519 111.276 250.247C110.966 250.163 110.674 250.129 110.392 250.129V250.134Z" fill="#0F0F14"/>
<path d="M117.206 272.538C116.53 272.538 115.945 272.037 115.855 271.345C115.759 270.597 116.288 269.91 117.031 269.814C118.089 269.679 118.871 269.212 119.429 268.385C121.235 265.695 120.284 260.005 119.761 258.041C119.569 257.315 120.003 256.566 120.729 256.369C121.46 256.178 122.203 256.611 122.4 257.337C122.49 257.675 124.556 265.65 121.697 269.904C120.695 271.401 119.243 272.279 117.386 272.521C117.324 272.527 117.268 272.533 117.211 272.533L117.206 272.538Z" fill="#0F0F14"/>
<path d="M129.668 324.335L129.582 327.289C129.541 328.712 130.661 329.899 132.084 329.94L184.727 331.466C186.15 331.507 187.337 330.387 187.379 328.964L187.464 326.01C187.505 324.587 186.385 323.4 184.962 323.359L132.319 321.834C130.896 321.792 129.709 322.912 129.668 324.335Z" fill="#742DD2"/>
<path d="M184.151 332.841C184.106 332.841 184.061 332.841 184.016 332.841L132.735 331.35C130.186 331.276 128.171 329.144 128.244 326.594L128.289 325.007C128.323 323.775 128.841 322.626 129.741 321.777C130.642 320.927 131.807 320.477 133.05 320.516L184.331 322.007C186.881 322.081 188.895 324.214 188.822 326.763L188.777 328.35C188.704 330.854 186.644 332.841 184.157 332.841H184.151ZM184.095 330.112C184.601 330.128 185.08 329.943 185.451 329.594C185.817 329.245 186.031 328.778 186.042 328.271L186.087 326.684C186.115 325.643 185.293 324.765 184.247 324.737L132.966 323.246C131.919 323.217 131.047 324.039 131.019 325.086L130.974 326.673C130.945 327.714 131.767 328.592 132.814 328.62L184.095 330.112Z" fill="#0F0F14"/>
<path d="M27.3232 248.15L18.7851 300.119C18.5543 301.523 19.5059 302.849 20.9106 303.08L23.8262 303.559C25.2309 303.79 26.5567 302.838 26.7875 301.433L35.3256 249.465C35.5564 248.06 34.6047 246.734 33.2 246.503L30.2845 246.024C28.8798 245.794 27.554 246.745 27.3232 248.15Z" fill="#742DD2"/>
<path d="M23.6853 304.871C23.432 304.871 23.1788 304.849 22.9255 304.81L21.361 304.551C18.8453 304.134 17.1345 301.754 17.5453 299.238L25.8632 248.616C26.0658 247.394 26.7243 246.331 27.7317 245.61C28.7391 244.89 29.9603 244.603 31.1815 244.806L32.7461 245.064C35.2617 245.481 36.9726 247.861 36.5617 250.377L28.2438 301C28.0412 302.221 27.3827 303.284 26.3754 304.005C25.5818 304.573 24.6476 304.871 23.6909 304.871H23.6853ZM30.4218 247.473C30.0278 247.473 29.6451 247.597 29.3244 247.828C28.9135 248.12 28.6434 248.559 28.559 249.06L20.241 299.683C20.0722 300.713 20.77 301.692 21.8056 301.861L23.3701 302.119C23.871 302.204 24.3719 302.086 24.7827 301.787C25.1935 301.495 25.4637 301.056 25.5481 300.555L33.866 249.933C34.0349 248.903 33.337 247.923 32.3015 247.755L30.7369 247.496C30.6356 247.479 30.5287 247.468 30.4274 247.468L30.4218 247.473Z" fill="#0F0F14"/>
<path d="M33.1976 267.295C33.1976 267.295 44.4082 275.579 41.8138 293.915C41.8138 293.915 41.5268 295.873 39.5852 296.098C39.5852 296.098 40.8402 280.109 32.3984 271.91L33.1976 267.301V267.295Z" fill="#742DD2"/>
<path d="M39.577 297.229C39.2844 297.229 39.003 297.116 38.7891 296.908C38.5471 296.672 38.4177 296.339 38.4458 296.002C38.4571 295.844 39.5545 280.441 31.6024 272.714C31.3322 272.449 31.2084 272.072 31.2759 271.701L32.0751 267.092C32.1426 266.703 32.4071 266.377 32.773 266.231C33.1388 266.084 33.5552 266.135 33.8704 266.371C34.3487 266.726 45.5932 275.274 42.9368 294.06C42.7905 295.045 41.9294 296.959 39.7121 297.212C39.6671 297.212 39.6277 297.217 39.5826 297.217L39.577 297.229ZM33.6115 271.515C39.6896 277.83 40.6969 287.858 40.7814 292.974C42.3628 280.008 36.7237 272.41 33.9548 269.54L33.6115 271.515Z" fill="#0F0F14"/>
<path d="M155.5 322.537C155.5 322.537 165.309 311.748 177.685 312.688C177.685 312.688 176.863 310.932 175.282 310.628C175.282 310.628 161.01 309.07 150.188 322.379L155.5 322.531V322.537Z" fill="#742DD2"/>
<path d="M155.499 323.674C155.499 323.674 155.476 323.674 155.465 323.674L150.152 323.522C149.719 323.511 149.331 323.252 149.151 322.858C148.971 322.464 149.027 322.002 149.303 321.665C160.384 308.028 174.791 309.435 175.405 309.503C175.433 309.503 175.467 309.509 175.495 309.514C177.588 309.914 178.607 311.974 178.714 312.204C178.888 312.57 178.849 313.003 178.618 313.335C178.387 313.668 177.999 313.859 177.594 313.825C165.933 312.936 156.428 323.201 156.337 323.302C156.124 323.539 155.814 323.674 155.493 323.674H155.499ZM152.629 321.316L155.026 321.383C156.681 319.689 163.581 313.15 172.714 311.754C168.589 311.974 159.99 313.454 152.634 321.31L152.629 321.316Z" fill="#0F0F14"/>
<path d="M233.413 125.033C247.584 123.097 259.143 139.474 261.09 145.839C266.11 141.466 284.581 133.683 295.583 142.817C306.586 151.957 310.795 170.225 292.55 193.389C274.304 216.558 240.504 217.791 240.504 217.791C240.504 217.791 212.471 198.865 209.241 169.555C206.011 140.245 219.247 126.969 233.418 125.027L233.413 125.033Z" fill="#FF5299"/>
<g style="mix-blend-mode:overlay" opacity="0.6">
<path d="M225.207 127.566C219.163 134.714 215.606 146.245 217.458 163.044C220.688 192.354 248.72 211.28 248.72 211.28C248.72 211.28 269.797 210.509 287.648 198.775C268.862 216.751 240.504 217.792 240.504 217.792C240.504 217.792 212.471 198.865 209.241 169.556C206.652 146.065 214.638 132.873 225.207 127.566Z" fill="#0F0F14"/>
</g>
<path d="M240.498 219.159C240.228 219.159 239.958 219.08 239.733 218.928C238.568 218.14 211.138 199.31 207.874 169.707C206.343 155.818 208.285 144.573 213.648 136.289C218.195 129.26 225.146 124.786 233.222 123.683C247.004 121.803 258.372 136.064 261.71 143.65C268.553 138.979 285.746 132.884 296.445 141.771C302.714 146.976 306.243 154.456 306.389 162.824C306.558 172.69 302.258 183.259 293.614 194.239C275.188 217.634 241.95 219.108 240.543 219.159C240.527 219.159 240.51 219.159 240.493 219.159H240.498ZM235.726 126.243C235.023 126.243 234.313 126.288 233.593 126.39C220.379 128.196 207.395 140.448 210.592 169.409C213.519 195.933 237.617 214.054 240.898 216.407C244.922 216.148 274.963 213.514 291.475 192.551C309.507 169.656 304.965 152.396 294.711 143.87C284.232 135.163 266.263 143.144 261.991 146.869C261.642 147.173 261.164 147.28 260.719 147.151C260.275 147.021 259.926 146.678 259.791 146.239C258.22 141.106 248.254 126.243 235.737 126.243H235.726Z" fill="#0F0F14"/>
<g opacity="0.5">
<path d="M289.43 183.535C292.286 183.535 294.602 181.22 294.602 178.363C294.602 175.507 292.286 173.191 289.43 173.191C286.573 173.191 284.258 175.507 284.258 178.363C284.258 181.22 286.573 183.535 289.43 183.535Z" fill="white"/>
</g>
<g opacity="0.5">
<path d="M292.536 167.186C293.819 168.176 295.705 167.535 296.301 166.026C296.335 165.942 296.369 165.858 296.397 165.773C296.571 165.267 296.695 164.754 296.774 164.242C296.836 163.73 296.858 163.218 296.847 162.712C296.853 160.663 296.571 158.598 296.031 156.56C295.789 155.536 295.395 154.546 295.018 153.549C294.568 152.587 294.134 151.602 293.549 150.696C292.485 148.873 291.078 147.252 289.508 145.862C287.679 144.241 284.832 144.303 283.16 146.087C281.596 147.764 281.562 150.291 282.946 152.002L283.222 152.339C284.156 153.493 285.197 154.517 286.064 155.711C286.548 156.273 286.936 156.904 287.387 157.511C287.6 157.821 287.786 158.147 287.994 158.468C288.096 158.631 288.208 158.783 288.304 158.952L288.585 159.453C289.368 160.787 290.06 162.228 290.656 163.747C290.926 164.512 291.259 165.278 291.737 166.071C291.9 166.55 292.187 166.916 292.53 167.18L292.536 167.186Z" fill="white"/>
</g>
</g>
<defs>
<clipPath id="clip0_2013_1189">
<rect width="399.25" height="336.156" fill="white" transform="translate(0.75 0.421875)"/>
</clipPath>
</defs>
</svg>
