<svg width="424" height="346" viewBox="0 0 424 346" fill="none" xmlns="http://www.w3.org/2000/svg">
<g clip-path="url(#clip0_2013_1324)">
<path d="M324.72 43.6055H25.3289C17.0873 43.6055 10.4062 50.2866 10.4062 58.5281V297.621C10.4062 305.862 17.0873 312.543 25.3289 312.543H324.72C332.961 312.543 339.642 305.862 339.642 297.621V58.5281C339.642 50.2866 332.961 43.6055 324.72 43.6055Z" fill="white" stroke="#BABABA" stroke-width="5.31054" stroke-miterlimit="10"/>
<path d="M310.71 117.375H35.0105C31.7126 117.375 29.0391 120.048 29.0391 123.346V169.755C29.0391 173.053 31.7126 175.726 35.0105 175.726H310.71C314.008 175.726 316.682 173.053 316.682 169.755V123.346C316.682 120.048 314.008 117.375 310.71 117.375Z" fill="#D1D3D4"/>
<path d="M310.703 218.199H222.737C219.439 218.199 216.766 220.873 216.766 224.171V274.078C216.766 277.376 219.439 280.049 222.737 280.049H310.703C314.001 280.049 316.675 277.376 316.675 274.078V224.171C316.675 220.873 314.001 218.199 310.703 218.199Z" fill="#D1D3D4"/>
<path d="M39.3599 69.167C41.25 69.167 42.7822 67.6347 42.7822 65.7446C42.7822 63.8545 41.25 62.3223 39.3599 62.3223C37.4697 62.3223 35.9375 63.8545 35.9375 65.7446C35.9375 67.6347 37.4697 69.167 39.3599 69.167Z" fill="#A0A0A0"/>
<path d="M48.0942 69.167C49.9843 69.167 51.5166 67.6347 51.5166 65.7446C51.5166 63.8545 49.9843 62.3223 48.0942 62.3223C46.2041 62.3223 44.6719 63.8545 44.6719 65.7446C44.6719 67.6347 46.2041 69.167 48.0942 69.167Z" fill="#A0A0A0"/>
<path d="M57.477 69.167C59.3672 69.167 60.8994 67.6347 60.8994 65.7446C60.8994 63.8545 59.3672 62.3223 57.477 62.3223C55.5869 62.3223 54.0547 63.8545 54.0547 65.7446C54.0547 67.6347 55.5869 69.167 57.477 69.167Z" fill="#A0A0A0"/>
<path d="M267.018 186.082H78.6947C77.5085 186.082 76.5469 187.044 76.5469 188.23V188.962C76.5469 190.148 77.5085 191.109 78.6947 191.109H267.018C268.205 191.109 269.166 190.148 269.166 188.962V188.23C269.166 187.044 268.205 186.082 267.018 186.082Z" fill="#4D4D4D"/>
<path d="M227.553 195.512H118.156C116.969 195.512 116.008 196.473 116.008 197.66V198.391C116.008 199.577 116.969 200.539 118.156 200.539H227.553C228.739 200.539 229.701 199.577 229.701 198.391V197.66C229.701 196.473 228.739 195.512 227.553 195.512Z" fill="#4D4D4D"/>
<path d="M111.674 220.559H35.515C34.3288 220.559 33.3672 221.52 33.3672 222.706V223.438C33.3672 224.624 34.3288 225.586 35.515 225.586H111.674C112.86 225.586 113.822 224.624 113.822 223.438V222.706C113.822 221.52 112.86 220.559 111.674 220.559Z" fill="#D1D3D4"/>
<path d="M111.674 231.451H35.515C34.3288 231.451 33.3672 232.413 33.3672 233.599V234.331C33.3672 235.517 34.3288 236.478 35.515 236.478H111.674C112.86 236.478 113.822 235.517 113.822 234.331V233.599C113.822 232.413 112.86 231.451 111.674 231.451Z" fill="#D1D3D4"/>
<path d="M111.674 242.344H35.515C34.3288 242.344 33.3672 243.305 33.3672 244.492V245.223C33.3672 246.409 34.3288 247.371 35.515 247.371H111.674C112.86 247.371 113.822 246.409 113.822 245.223V244.492C113.822 243.305 112.86 242.344 111.674 242.344Z" fill="#D1D3D4"/>
<path d="M202.237 220.559H126.078C124.891 220.559 123.93 221.52 123.93 222.706V223.438C123.93 224.624 124.891 225.586 126.078 225.586H202.237C203.423 225.586 204.384 224.624 204.384 223.438V222.706C204.384 221.52 203.423 220.559 202.237 220.559Z" fill="#D1D3D4"/>
<path d="M202.237 231.451H126.078C124.891 231.451 123.93 232.413 123.93 233.599V234.331C123.93 235.517 124.891 236.478 126.078 236.478H202.237C203.423 236.478 204.384 235.517 204.384 234.331V233.599C204.384 232.413 203.423 231.451 202.237 231.451Z" fill="#D1D3D4"/>
<path d="M202.237 242.344H126.078C124.891 242.344 123.93 243.305 123.93 244.492V245.223C123.93 246.409 124.891 247.371 126.078 247.371H202.237C203.423 247.371 204.384 246.409 204.384 245.223V244.492C204.384 243.305 203.423 242.344 202.237 242.344Z" fill="#D1D3D4"/>
<path d="M111.674 253.236H35.515C34.3288 253.236 33.3672 254.198 33.3672 255.384V256.116C33.3672 257.302 34.3288 258.264 35.515 258.264H111.674C112.86 258.264 113.822 257.302 113.822 256.116V255.384C113.822 254.198 112.86 253.236 111.674 253.236Z" fill="#D1D3D4"/>
<path d="M111.674 264.129H35.515C34.3288 264.129 33.3672 265.091 33.3672 266.277V267.008C33.3672 268.195 34.3288 269.156 35.515 269.156H111.674C112.86 269.156 113.822 268.195 113.822 267.008V266.277C113.822 265.091 112.86 264.129 111.674 264.129Z" fill="#D1D3D4"/>
<path d="M111.674 275.021H35.515C34.3288 275.021 33.3672 275.983 33.3672 277.169V277.901C33.3672 279.087 34.3288 280.049 35.515 280.049H111.674C112.86 280.049 113.822 279.087 113.822 277.901V277.169C113.822 275.983 112.86 275.021 111.674 275.021Z" fill="#D1D3D4"/>
<path d="M202.237 253.236H126.078C124.891 253.236 123.93 254.198 123.93 255.384V256.116C123.93 257.302 124.891 258.264 126.078 258.264H202.237C203.423 258.264 204.384 257.302 204.384 256.116V255.384C204.384 254.198 203.423 253.236 202.237 253.236Z" fill="#D1D3D4"/>
<path d="M202.237 264.129H126.078C124.891 264.129 123.93 265.091 123.93 266.277V267.008C123.93 268.195 124.891 269.156 126.078 269.156H202.237C203.423 269.156 204.384 268.195 204.384 267.008V266.277C204.384 265.091 203.423 264.129 202.237 264.129Z" fill="#D1D3D4"/>
<path d="M202.237 275.021H126.078C124.891 275.021 123.93 275.983 123.93 277.169V277.901C123.93 279.087 124.891 280.049 126.078 280.049H202.237C203.423 280.049 204.384 279.087 204.384 277.901V277.169C204.384 275.983 203.423 275.021 202.237 275.021Z" fill="#D1D3D4"/>
<path d="M95.6008 81.292C97.2076 81.6344 98.4982 82.4378 99.4728 83.7021C100.447 84.9401 100.935 86.3624 100.935 87.9692C100.935 90.2871 100.118 92.1309 98.4851 93.5006C96.8783 94.844 94.6262 95.5156 91.7288 95.5156H78.809V67.7795H91.2942C94.1126 67.7795 96.312 68.4248 97.8924 69.7155C99.4992 71.0062 100.303 72.7578 100.303 74.9703C100.303 76.6034 99.8679 77.9599 98.9987 79.0399C98.1558 80.1198 97.0232 80.8705 95.6008 81.292ZM85.5652 79.0004H89.9904C91.0967 79.0004 91.9395 78.7633 92.519 78.2892C93.1248 77.7887 93.4278 77.0644 93.4278 76.1161C93.4278 75.1679 93.1248 74.4435 92.519 73.9431C91.9395 73.4426 91.0967 73.1924 89.9904 73.1924H85.5652V79.0004ZM90.5435 90.0632C91.6761 90.0632 92.5454 89.813 93.1512 89.3125C93.7834 88.7857 94.0994 88.035 94.0994 87.0605C94.0994 86.0859 93.7702 85.322 93.1117 84.7689C92.4795 84.2157 91.5971 83.9392 90.4645 83.9392H85.5652V90.0632H90.5435ZM111.61 90.3003H120.46V95.5156H104.853V67.7795H111.61V90.3003ZM136.8 95.7922C134.192 95.7922 131.795 95.1864 129.609 93.9747C127.449 92.7631 125.724 91.0773 124.433 88.9174C123.169 86.7312 122.537 84.2816 122.537 81.5685C122.537 78.8555 123.169 76.4191 124.433 74.2592C125.724 72.0993 127.449 70.4135 129.609 69.2019C131.795 67.9902 134.192 67.3844 136.8 67.3844C139.407 67.3844 141.791 67.9902 143.951 69.2019C146.137 70.4135 147.849 72.0993 149.087 74.2592C150.352 76.4191 150.984 78.8555 150.984 81.5685C150.984 84.2816 150.352 86.7312 149.087 88.9174C147.823 91.0773 146.111 92.7631 143.951 93.9747C141.791 95.1864 139.407 95.7922 136.8 95.7922ZM136.8 89.6286C139.012 89.6286 140.777 88.8911 142.094 87.416C143.437 85.941 144.109 83.9918 144.109 81.5685C144.109 79.1189 143.437 77.1697 142.094 75.721C140.777 74.246 139.012 73.5085 136.8 73.5085C134.561 73.5085 132.77 74.2328 131.426 75.6815C130.109 77.1302 129.451 79.0926 129.451 81.5685C129.451 84.0182 130.109 85.9805 131.426 87.4556C132.77 88.9043 134.561 89.6286 136.8 89.6286ZM173.154 76.5508C172.654 75.6288 171.929 74.9308 170.981 74.4567C170.059 73.9563 168.966 73.706 167.702 73.706C165.516 73.706 163.764 74.4304 162.447 75.8791C161.13 77.3014 160.472 79.2111 160.472 81.6081C160.472 84.163 161.156 86.1649 162.526 87.6136C163.922 89.036 165.832 89.7471 168.255 89.7471C169.914 89.7471 171.31 89.3257 172.443 88.4828C173.602 87.6399 174.445 86.4283 174.972 84.8479H166.398V79.8696H181.096V86.1517C180.595 87.8375 179.739 89.4047 178.528 90.8534C177.342 92.3021 175.828 93.4743 173.984 94.3698C172.14 95.2654 170.059 95.7132 167.741 95.7132C165.002 95.7132 162.552 95.1205 160.393 93.9352C158.259 92.7236 156.586 91.051 155.375 88.9174C154.189 86.7839 153.597 84.3474 153.597 81.6081C153.597 78.8687 154.189 76.4322 155.375 74.2987C156.586 72.1388 158.259 70.4662 160.393 69.2809C162.526 68.0692 164.963 67.4634 167.702 67.4634C171.021 67.4634 173.813 68.2668 176.078 69.8735C178.37 71.4803 179.884 73.706 180.622 76.5508H173.154Z" fill="#4D4D4D"/>
<g opacity="0.25">
<path d="M259.387 337.498C314.856 337.498 359.821 323.985 359.821 307.316C359.821 290.648 314.856 277.135 259.387 277.135C203.919 277.135 158.953 290.648 158.953 307.316C158.953 323.985 203.919 337.498 259.387 337.498Z" fill="#0F0F14"/>
</g>
<path d="M119.466 319.824C110.474 318.137 112.722 310.967 115.672 306.613C118.622 302.258 116.799 300.989 90.3761 300.571C63.9532 300.152 20.4953 300.677 15.645 310.371C12.4056 316.856 16.6481 321.86 19.8108 324.462C21.1916 325.577 22.3422 326.22 22.4897 326.297C37.9021 329.625 51.4322 324.037 65.2868 324.598C80.888 325.229 87.001 339.774 97.5395 343.149C104.101 345.25 118.835 343.674 131.232 339.29C155.283 322.58 128.323 321.482 119.46 319.824H119.466Z" fill="#5AD4FF"/>
<path d="M15.6381 310.379C12.3456 316.958 16.6826 321.944 19.804 324.47C16.6353 321.867 12.3928 316.864 15.6381 310.379Z" fill="#BC885E"/>
<path d="M132.536 313.01C115.885 313.01 123.892 303.315 129.374 299.521C134.855 295.727 124.034 293.196 107.943 290.664C107.943 290.664 58.7554 283.708 19.121 294.671C-4.69972 300.996 -1.32458 318.073 16.5897 324.605C18.59 325.336 20.7319 326.033 22.6673 326.452C22.5139 326.369 21.2806 325.679 19.8114 324.469C16.6841 321.944 12.353 316.958 15.6456 310.378C20.4959 300.684 63.9538 300.153 90.3767 300.577C116.8 300.996 118.623 302.265 115.673 306.62C112.722 310.974 110.474 318.144 119.467 319.831C128.329 321.495 155.289 322.593 131.238 339.297C138.768 336.636 145.435 332.942 148.893 328.399C158.045 316.385 149.194 313.01 132.536 313.01Z" fill="#D3976A"/>
<g opacity="0.25">
<path d="M6.8585 300.477C6.8585 300.477 6.61067 306.159 8.72309 306.602C10.8296 307.038 15.7507 298.188 58.8959 296.783C102.041 295.379 117.855 297.202 117.43 303.598C117.43 303.598 117.217 301.185 86.8648 300.53C56.5062 299.875 29.4165 302.288 22.023 305.864C14.6296 309.434 12.9066 312.933 15.438 318.273C17.9693 323.613 20.4535 324.687 20.3414 324.888C20.2293 325.088 19.179 325.56 19.179 325.56C19.179 325.56 8.847 322.87 4.31534 315.866C-0.216322 308.856 3.24143 303.233 6.8644 300.483L6.8585 300.477Z" fill="#0F0F14"/>
</g>
<g opacity="0.25">
<path d="M61.5087 301.415C61.5087 301.415 36.6849 303.593 26.4237 310.373C16.1626 317.152 32.466 327.366 32.466 327.366L24.1284 326.629C24.1284 326.629 20.234 325.49 17.5315 322.268C14.8291 319.046 11.802 313.352 17.5315 307.735C23.261 302.112 58.5761 299.934 61.5028 301.409L61.5087 301.415Z" fill="#0F0F14"/>
</g>
<g opacity="0.25">
<path d="M114.463 308.66C114.463 308.66 114.616 315.434 120.251 316.75C125.892 318.066 138.59 317.44 144.231 320.048C149.872 322.656 150.067 325.931 148.674 328.669C147.288 331.407 140.537 334.67 138.803 335.673C137.062 336.676 133.71 337.496 133.71 337.496C133.71 337.496 141.877 331.525 140.974 326.905C140.071 322.285 127.892 321.028 127.633 321.022C127.367 321.022 117.59 320.479 115.023 317.983C112.456 315.487 112.84 310.743 114.468 308.666L114.463 308.66Z" fill="#0F0F14"/>
</g>
<path d="M216.126 213.573C216.126 213.573 203.15 221.097 199.988 238.81C196.825 256.518 190.5 292.565 246.154 305.216C301.808 317.867 330.055 296.996 324.366 262.844C318.672 228.691 308.553 208.646 308.553 208.646C308.553 208.646 254.592 221.899 216.126 213.573Z" fill="#3E4049"/>
<path d="M199.992 238.803C199.992 238.803 223.813 264.311 260.284 271.268C296.756 278.225 325.008 273.811 325.008 273.811C325.008 273.811 324.53 283.948 320.488 289.459C320.488 289.459 290.637 294.245 253.959 285.181C217.281 276.118 198.062 254.404 198.062 254.404C198.062 254.404 199.302 241.971 199.992 238.803Z" fill="#742DD2"/>
<path d="M338.406 104.217C338.406 104.217 345.251 112.425 365.856 116.384C386.461 120.349 396.498 110.525 398.203 107.622C399.908 104.713 398.876 93.7613 395.801 92.5576C392.727 91.3539 382.543 98.7356 373.308 99.2076C364.074 99.6737 343.286 86.6865 343.286 86.6865" fill="#742DD2"/>
<path d="M375.062 118.951C372.153 118.951 368.979 118.662 365.533 118.001C344.591 113.971 337.428 105.621 337.133 105.267C336.549 104.571 336.643 103.532 337.345 102.948C338.042 102.37 339.074 102.458 339.658 103.155C339.735 103.249 346.539 110.997 366.158 114.767C388.468 119.057 396.7 106.913 396.776 106.789C397.638 105.314 397.591 99.6616 396.363 96.1153C395.85 94.6402 395.337 94.1504 395.195 94.0973C394.369 93.8141 390.976 95.2774 388.504 96.3454C384.125 98.2336 378.679 100.588 373.386 100.859C363.727 101.355 343.27 88.6333 342.402 88.0905C341.629 87.6066 341.399 86.5917 341.877 85.8247C342.361 85.0517 343.376 84.8216 344.149 85.2995C349.813 88.834 366.087 97.9445 373.215 97.5728C377.918 97.3367 383.063 95.1122 387.194 93.3243C391.501 91.4656 394.345 90.2383 396.387 91.0349C397.685 91.5423 398.718 92.8877 399.467 95.0414C400.842 99.0125 401.208 105.739 399.609 108.459C397.774 111.593 389.802 118.957 375.056 118.957L375.062 118.951Z" fill="#0F0F14"/>
<path d="M350.161 98.1398C350.161 98.1398 355.094 86.9405 368.464 80.8688C381.835 74.7971 388.143 52.3807 387.022 49.0763C385.901 45.772 376.719 38.1779 369.072 39.5233C369.072 39.5233 368.376 60.081 357.873 66.2648C347.37 72.4486 338.371 76.225 335.539 89.0647C335.539 89.0647 337.71 97.5852 350.155 98.1398H350.161Z" fill="#742DD2"/>
<path d="M350.16 99.7857C350.16 99.7857 350.113 99.7857 350.089 99.7857C336.583 99.1838 334.057 89.8668 333.951 89.4714C333.886 89.2236 333.88 88.964 333.939 88.7103C336.618 76.5668 344.519 72.0411 353.671 66.8013C354.774 66.17 355.901 65.5268 357.04 64.8541C366.64 59.2014 367.419 39.6704 367.431 39.4756C367.461 38.6968 368.027 38.0477 368.794 37.912C377.45 36.3837 387.275 44.6918 388.585 48.5626C389.936 52.5514 383.245 75.9827 369.148 82.3848C356.55 88.1025 351.712 98.7118 351.665 98.818C351.399 99.414 350.809 99.7975 350.16 99.7975V99.7857ZM337.249 88.9876C337.769 90.386 340.288 95.6494 349.175 96.4224C350.791 93.3894 356.267 84.5975 367.785 79.3696C380.218 73.7227 386.272 52.398 385.463 49.6011C384.649 47.1995 377.48 41.0039 370.983 41.0039C370.865 41.0039 370.753 41.0039 370.635 41.0098C370.257 45.9545 368.31 62.0277 358.71 67.6805C357.553 68.3591 356.415 69.0141 355.305 69.6513C346.602 74.6373 339.704 78.5848 337.249 88.9876Z" fill="#0F0F14"/>
<path d="M229.974 215.916C229.974 215.916 280.955 219.386 322.549 204.315C364.142 189.245 372.668 169.207 357.946 147.239C357.946 147.239 357.946 95.7561 324.165 69.8583C290.39 43.9547 211.747 47.5894 188.658 104.253C179.312 129.472 187.041 170.287 187.041 170.287C187.041 170.287 169.983 209.496 229.974 215.922V215.916Z" fill="#3E4049"/>
<g opacity="0.4">
<path d="M361.819 154.131C361.695 153.942 361.577 153.759 361.453 153.57C361.453 153.57 361.453 153.482 361.453 153.328C361.583 153.594 361.701 153.865 361.825 154.131H361.819Z" fill="white"/>
</g>
<g opacity="0.4">
<path d="M190.127 198.786C185.17 192.159 184.445 184.943 184.934 179.426C184.563 185.126 185.383 192.395 190.127 198.786Z" fill="white"/>
</g>
<g opacity="0.4">
<path d="M184.125 141.863C184.621 157.523 187.034 170.281 187.034 170.281C187.034 170.281 185.4 174.039 184.927 179.421C185.305 173.662 186.898 169.508 186.898 169.508C186.898 169.508 184.219 157.228 184.125 141.863Z" fill="white"/>
</g>
<path d="M306.486 103.574C314.8 104.052 321.78 109.971 323.698 118.072C326.624 130.446 330.808 154.573 321.845 164.12C309.554 177.22 271.713 176.01 245.137 178.748C218.561 181.486 200.747 184.914 194.445 165.424C188.137 145.935 192.103 121.908 194.345 119.801C196.587 117.694 224.993 114.431 253.687 110.685C272.846 108.183 292.714 102.772 306.492 103.563L306.486 103.574Z" fill="#F2C5A7"/>
<path d="M242.921 217.886C234.955 217.886 230.017 217.568 229.863 217.562C229.84 217.562 229.822 217.562 229.798 217.562C207.954 215.225 193.551 208.322 186.995 197.045C180.115 185.221 184.316 172.741 185.337 170.115C184.452 165.218 178.162 127.861 187.119 103.686C196.584 80.4555 216.404 63.7273 242.945 56.5285C257.39 52.6105 272.955 51.7314 287.949 53.9736C302.759 56.1922 315.628 61.2372 325.176 68.554C342.99 82.2198 351.404 102.901 355.322 117.848C359.134 132.387 359.547 144.164 359.594 146.737C365.99 156.455 367.825 165.666 365.058 174.128C360.981 186.578 346.872 197.258 323.116 205.861C294.392 216.27 260.924 217.886 242.927 217.886H242.921ZM230.117 214.275C231.592 214.37 281.617 217.397 321.989 202.763C344.742 194.52 358.178 184.542 361.919 173.101C364.397 165.53 362.597 157.14 356.573 148.153C356.39 147.882 356.295 147.563 356.295 147.238C356.295 146.731 355.882 96.2573 323.158 71.162C304.453 56.8177 271.817 52.1031 243.795 59.7031C218.269 66.6245 199.227 82.6682 190.176 104.878C181.118 129.324 188.577 169.578 188.653 169.979C188.718 170.304 188.677 170.64 188.547 170.941C188.494 171.065 183.107 183.858 189.857 195.417C195.864 205.713 209.412 212.057 230.111 214.281L230.117 214.275Z" fill="#0F0F14"/>
<path d="M219.399 182.518C206.441 182.518 197.159 179.155 192.882 165.944C186.468 146.118 190.279 121.376 193.218 118.615C195.277 116.68 207.438 114.968 239.107 110.915C243.804 110.313 248.636 109.699 253.475 109.068C260.202 108.189 267.04 106.944 273.661 105.746C285.91 103.515 297.476 101.415 306.586 101.94C315.537 102.453 323.232 108.938 325.303 117.706C328.489 131.177 332.431 155.264 323.049 165.259C313.095 175.869 288.442 177.432 264.597 178.943C257.753 179.373 251.292 179.787 245.308 180.4C243.45 180.589 241.638 180.784 239.868 180.978C232.333 181.787 225.459 182.524 219.393 182.524L219.399 182.518ZM195.454 121.028C193.796 123.223 189.884 145.982 196.015 164.923C201.467 181.775 215.794 180.241 239.52 177.692C241.296 177.503 243.113 177.308 244.972 177.114C251.02 176.488 257.517 176.081 264.391 175.644C286.512 174.24 311.59 172.653 320.647 162.993C329.286 153.788 324.542 128.776 322.099 118.45C320.358 111.092 313.903 105.645 306.397 105.215C297.676 104.713 286.3 106.784 274.251 108.973C267.595 110.183 260.715 111.434 253.906 112.325C249.067 112.956 244.234 113.576 239.532 114.178C220.03 116.674 197.938 119.494 195.46 121.028H195.454Z" fill="#0F0F14"/>
<path d="M181.879 124.138C181.879 124.138 276.472 124.71 348.565 102.907C348.565 102.907 353.852 101.438 350.937 92.6874C348.022 83.9427 336.734 87.1349 336.734 87.1349C336.734 87.1349 275.05 100.824 252.486 103.539C229.922 106.253 188.576 107.362 185.632 107.858C182.687 108.353 176.899 115.092 181.879 124.138Z" fill="#742DD2"/>
<path d="M182.317 125.784C182.051 125.784 181.898 125.784 181.868 125.784C181.272 125.784 180.724 125.453 180.435 124.934C177.018 118.732 178.417 113.858 179.555 111.504C180.907 108.707 183.237 106.595 185.356 106.235C186.341 106.07 190.182 105.887 198.083 105.527C212.61 104.86 236.927 103.751 252.286 101.904C274.26 99.2603 334.375 85.9722 336.334 85.5356C340.777 84.2964 349.811 84.0899 352.496 92.1619C353.765 95.9796 353.776 99.101 352.531 101.438C351.281 103.792 349.233 104.423 349.003 104.482C280.072 125.329 189.516 125.778 182.317 125.778V125.784ZM341.309 88.1967C339.131 88.1967 337.349 88.6806 337.178 88.7278C337.149 88.7337 337.119 88.7455 337.09 88.7514C336.47 88.8871 275.062 102.488 252.676 105.185C237.192 107.043 212.805 108.158 198.231 108.825C192.059 109.108 186.73 109.35 185.898 109.492C185.149 109.616 183.55 110.802 182.517 112.944C181.709 114.62 180.735 118.018 182.877 122.497C193.192 122.473 280.993 121.63 348.082 101.337C348.124 101.326 349.074 101.007 349.664 99.8327C350.419 98.3399 350.319 96.0504 349.375 93.2122C348.006 89.0936 344.288 88.1967 341.314 88.1967H341.309Z" fill="#0F0F14"/>
<path d="M268.085 151.505C274.422 147.492 281.71 142.984 288.082 139.043L291.516 137.001C292.714 136.405 293.623 135.355 295.393 135.656C296.089 135.774 296.555 136.429 296.432 137.125C296.03 138.907 294.596 139.355 293.523 140.181C292.419 140.931 291.304 141.668 290.189 142.4C286.324 144.943 280.571 148.389 276.541 150.802C274.127 152.195 271.743 153.759 269.088 154.661C267.365 155.228 266.179 152.897 267.625 151.835L268.073 151.505H268.085Z" fill="#0F0F14"/>
<path d="M294.348 159.771C295.157 157.777 295.387 155.535 294.873 153.287L291.799 139.822C291.675 139.279 291.51 138.748 291.315 138.246C290.82 136.983 270.516 150.903 270.516 150.903L272.156 158.107C272.545 159.813 273.313 161.335 274.363 162.621C275.779 164.362 293.705 161.359 294.342 159.783L294.348 159.771Z" fill="#0F0F14"/>
<path d="M278.461 158.458C280.206 158.064 281.24 156.059 280.771 153.98C280.302 151.901 278.507 150.535 276.762 150.929C275.016 151.323 273.982 153.328 274.451 155.407C274.921 157.486 276.716 158.852 278.461 158.458Z" fill="white"/>
<g opacity="0.4">
<path d="M288.095 157.671C289.158 157.671 290.019 156.559 290.019 155.187C290.019 153.815 289.158 152.703 288.095 152.703C287.033 152.703 286.172 153.815 286.172 155.187C286.172 156.559 287.033 157.671 288.095 157.671Z" fill="white"/>
</g>
<path d="M231.087 157.499C230.656 157.534 230.167 157.552 229.73 157.51C224.921 157.015 220.259 155.604 215.568 154.542C211.869 153.622 208.193 152.636 204.546 151.527C203.354 151.073 202.027 151.126 201.112 149.633C200.723 149.002 200.953 148.158 201.608 147.81C203.142 146.978 204.257 147.692 205.52 147.892L209.214 148.766C215.291 150.264 221.451 151.981 227.553 153.398C228.544 153.634 229.518 153.881 230.503 154.118C230.745 154.182 231.353 154.483 231.583 154.572C233.034 155.191 232.651 157.398 231.087 157.499Z" fill="#0F0F14"/>
<path d="M208.022 168.781C207.432 167.713 207.007 166.527 206.794 165.264L204.523 151.64C204.428 151.091 204.381 150.542 204.375 150C204.357 148.654 228.538 154.513 228.538 154.513L229.753 161.801C230.084 163.766 229.86 165.695 229.193 167.436C228.833 168.374 208.57 169.778 208.022 168.781Z" fill="#0F0F14"/>
<path d="M212.14 164.255C213.915 164.032 215.114 161.933 214.817 159.566C214.521 157.199 212.841 155.461 211.066 155.683C209.291 155.906 208.092 158.005 208.388 160.372C208.685 162.739 210.364 164.477 212.14 164.255Z" fill="white"/>
<g opacity="0.4">
<path d="M222.388 165.325C223.413 165.048 223.927 163.645 223.534 162.191C223.142 160.738 221.992 159.784 220.966 160.061C219.941 160.338 219.428 161.741 219.82 163.194C220.212 164.648 221.362 165.602 222.388 165.325Z" fill="white"/>
</g>
<path d="M298.534 159.082C291.73 161.601 284.514 162.527 277.309 162.858C274.902 162.935 272.471 162.935 270.034 162.563C269.432 162.48 269.408 161.577 270.01 161.465C272.353 161.005 274.689 160.568 277.032 160.161C284.089 158.981 291.158 157.772 298.357 157.996C298.947 158.013 299.1 158.869 298.539 159.076L298.534 159.082Z" fill="#0F0F14"/>
<path d="M233.017 167.377C226.561 169.307 219.835 169.667 213.149 169.602C210.919 169.549 208.683 169.431 206.44 169.053C205.844 168.959 205.827 168.068 206.423 167.956C208.618 167.507 210.807 167.183 213.002 166.894C217.392 166.333 221.8 165.944 226.231 165.902C228.45 165.902 230.674 165.961 232.922 166.286C233.5 166.351 233.571 167.224 233.017 167.377Z" fill="#0F0F14"/>
<path d="M276.309 310.574C267.086 310.574 256.849 309.329 245.791 306.815C221.232 301.233 205.649 290.358 199.483 274.503C194.314 261.215 196.757 247.555 198.368 238.516C201.625 220.265 214.742 212.47 215.296 212.146C215.651 211.939 216.069 211.874 216.471 211.963C254.128 220.112 307.623 207.178 308.154 207.048C308.898 206.865 309.671 207.219 310.019 207.903C310.119 208.104 320.321 228.561 325.986 262.567C328.417 277.153 324.9 289.391 315.819 297.952C306.956 306.308 293.367 310.568 276.303 310.568L276.309 310.574ZM216.447 215.326C214.087 216.92 204.245 224.366 201.613 239.1C200.067 247.774 197.724 260.891 202.557 273.312C208.304 288.093 223.097 298.283 246.528 303.605C276.934 310.515 300.743 307.659 313.571 295.563C321.814 287.786 324.989 276.563 322.746 263.109C317.926 234.185 309.818 215.279 307.635 210.547C299.156 212.476 251.449 222.631 216.447 215.32V215.326Z" fill="#0F0F14"/>
<path d="M300.006 292.345C287.886 292.345 271.477 291.212 253.563 286.781C216.808 277.7 197.625 256.399 196.828 255.496C196.521 255.154 196.38 254.699 196.421 254.239C196.474 253.726 197.678 241.671 198.38 238.449C198.51 237.853 198.964 237.375 199.554 237.216C200.144 237.056 200.776 237.233 201.195 237.676C201.431 237.93 225.104 262.878 260.59 269.646C296.33 276.461 324.476 272.224 324.753 272.183C325.243 272.106 325.739 272.254 326.105 272.584C326.47 272.914 326.671 273.392 326.647 273.888C326.63 274.325 326.099 284.586 321.815 290.433C321.561 290.781 321.178 291.017 320.747 291.088C320.593 291.112 312.628 292.345 300 292.345H300.006ZM199.779 253.826C202.953 257.136 221.764 275.528 254.353 283.583C287.267 291.72 314.899 288.557 319.543 287.931C321.927 284.255 322.853 278.656 323.184 275.705C315.967 276.549 290.707 278.75 259.971 272.885C229.854 267.138 208.016 248.687 201.106 242.202C200.581 246.055 199.979 251.796 199.773 253.82L199.779 253.826Z" fill="#0F0F14"/>
<path d="M319.731 275.104C319.324 275.104 318.917 274.921 318.645 274.573C311.972 265.958 273.641 216.015 273.252 215.508C272.792 214.906 272.904 214.044 273.506 213.584C274.108 213.124 274.969 213.236 275.429 213.838C275.813 214.339 314.149 264.282 320.811 272.891C321.277 273.493 321.165 274.354 320.569 274.815C320.321 275.009 320.02 275.104 319.731 275.104Z" fill="#0F0F14"/>
<path d="M325.015 270.744C324.537 270.744 324.071 270.496 323.823 270.047C318.654 260.943 285.393 214.44 285.062 213.974C284.62 213.36 284.761 212.499 285.381 212.062C286 211.62 286.856 211.761 287.293 212.381C288.667 214.299 320.973 259.468 326.213 268.696C326.585 269.357 326.355 270.195 325.7 270.567C325.487 270.691 325.251 270.744 325.021 270.744H325.015Z" fill="#0F0F14"/>
<path d="M171.953 246.924C171.953 246.924 156.67 249.455 152.345 251.668C148.026 253.881 148.97 260.1 148.97 260.1C148.97 260.1 158.246 280.233 174.16 294.04C190.074 307.848 199.562 303.735 203.25 298.89C205.439 296.011 210.608 286.44 214.443 279.141C205.079 250.323 171.947 246.93 171.947 246.93L171.953 246.924Z" fill="#F2C5A7"/>
<path d="M206.098 237.967C184.171 229.641 171.945 246.924 171.945 246.924C171.945 246.924 205.077 250.322 214.441 279.135C217.061 274.143 217.409 274.149 217.409 274.149L226.892 276.751C226.892 276.751 228.019 246.292 206.098 237.961V237.967Z" fill="#3E4049"/>
<g opacity="0.4">
<path d="M148.883 255.74C148.883 255.74 151.709 254.265 157.262 253.35C162.814 252.435 178.976 248.854 178.976 248.854L173.848 247.237C173.848 247.237 172.391 247.302 170.343 247.196C168.296 247.095 154.382 250.394 152.346 251.662C150.311 252.931 148.883 255.74 148.883 255.74Z" fill="white"/>
</g>
<g opacity="0.25">
<path d="M149.466 255.061C149.466 255.061 151.402 258.879 154.753 257.415L155.202 256.406C155.202 256.406 157.863 261.139 162.554 258.796L162.961 257.752C162.961 257.752 164.914 262.773 171.352 261.086L172.083 259.959C172.083 259.959 175.246 266.213 180.804 264.178L181.371 263.21C181.371 263.21 182.634 264.809 191.909 272.332C201.185 279.85 208.986 269.588 208.986 269.588L209.434 268.709C209.434 268.709 200.347 253.533 177.789 247.738C177.789 247.738 180.386 244.788 183.23 243.242C183.23 243.242 199.079 253.291 210.673 256.383C222.268 259.475 222.829 254.624 222.829 254.624C222.829 254.624 225.82 264.591 226.534 270.497C227.254 276.404 226.723 276.935 226.723 276.935C226.723 276.935 227.36 276.982 226.8 276.734C226.239 276.486 217.412 274.161 217.412 274.161L216.22 275.849L205.546 295.362C205.546 295.362 200.743 305.494 189.85 303.039C178.958 300.584 168.313 288.724 163.097 282.717C157.881 276.71 150.133 262.478 149.602 261.481C149.077 260.478 148.446 259.451 148.392 258.802C148.339 258.159 149.466 255.073 149.466 255.073V255.061Z" fill="#0F0F14"/>
</g>
<path d="M226.083 277.494C224.945 267.328 223.257 256.518 216.973 248.174C210.942 239.966 200.02 236.214 190.119 237.777C183.575 238.893 177.451 242.71 173.373 247.92C173.096 248.31 172.683 248.552 172.246 248.629C169.827 249.042 167.384 249.496 164.965 249.992C162.546 250.487 160.138 251.018 157.79 251.644C155.766 252.299 153.429 252.594 151.96 254.146C150.739 255.568 150.473 257.969 150.685 259.84L150.55 259.379C152.438 263.315 154.686 267.233 157.064 270.986C164.322 282.28 176.961 298.123 190.402 301.445C194.315 302.359 198.592 301.604 201.36 298.63C202.764 297.049 203.803 295.119 204.912 293.302C208.901 286.623 214.058 276.527 217.817 269.576C218.182 268.874 219.05 268.608 219.746 268.98C220.425 269.34 220.69 270.183 220.354 270.868C216.324 278.981 212.187 287 207.679 294.919C206.464 296.943 205.337 299.067 203.744 300.855C198.292 306.838 189.405 305.687 182.962 302.194C170.7 295.444 161.726 284.327 154.19 272.827C151.712 268.803 149.163 264.784 147.293 260.365C146.826 256.695 147.741 252.364 151.205 250.34C153.058 249.319 154.963 248.847 156.905 248.292C161.814 247.012 166.706 246.079 171.692 245.224L170.565 245.932C171.202 245.07 171.792 244.41 172.453 243.707C179.593 236.054 190.538 232.361 200.799 234.674C217.002 237.748 225.281 251.26 227.523 266.649C228.013 270.278 228.178 273.901 227.718 277.559C227.659 278.002 227.252 278.314 226.803 278.261C226.408 278.208 226.119 277.884 226.095 277.506L226.083 277.494Z" fill="#0F0F14"/>
<path d="M214.444 280.78C213.748 280.78 213.105 280.338 212.881 279.642C203.971 252.21 172.102 248.593 171.783 248.557C170.88 248.463 170.219 247.654 170.314 246.752C170.408 245.849 171.211 245.188 172.119 245.282C172.467 245.318 180.793 246.215 190.388 250.729C203.18 256.753 212.037 266.395 216.014 278.621C216.297 279.488 215.819 280.415 214.958 280.698C214.787 280.751 214.615 280.78 214.45 280.78H214.444Z" fill="#0F0F14"/>
<path d="M180.706 271.411C178.487 268.425 178.694 263.569 181.898 261.286C183.048 260.501 184.423 260.3 185.586 260.536C185.898 260.601 186.105 260.908 186.04 261.221C186.005 261.398 185.893 261.539 185.739 261.622C184.034 262.631 183.184 263.628 182.736 265.44C182.287 267.251 182.234 269.181 181.768 271.128C181.703 271.635 181.007 271.824 180.706 271.411Z" fill="#0F0F14"/>
<path d="M169.857 267.675C167.698 264.53 169.232 258.641 173.421 258.287C173.746 258.287 174.012 258.547 174.017 258.871C174.017 259.036 173.947 259.172 173.852 259.296C172.943 260.588 172.696 261.627 172.353 263.084C172.129 263.881 171.221 269.233 169.863 267.681L169.857 267.675Z" fill="#0F0F14"/>
<path d="M161.643 264.241C159.401 261.314 160.835 254.942 165.148 255.207C165.473 255.26 165.691 255.567 165.632 255.892C165.608 256.051 165.514 256.169 165.408 256.275C164.399 257.408 164.316 258.323 164.009 259.715C163.832 260.459 163.077 265.722 161.643 264.241Z" fill="#0F0F14"/>
<path d="M155.322 263.485C152.283 261.739 152.012 256.647 155.133 254.835C155.682 254.54 156.939 253.926 157.163 254.853C157.192 255.006 157.145 255.154 157.08 255.284C156.425 256.599 156.183 257.443 156.195 258.777C156.242 260.152 156.431 261.497 156.26 263.013C156.219 263.45 155.705 263.704 155.334 263.485H155.322Z" fill="#0F0F14"/>
<path d="M142.162 271.971C142.162 271.971 142.233 264.454 145.885 262.206C145.885 262.206 161.693 260.801 174.834 267.616C187.974 274.432 200.2 291.614 203.995 301.203L198.725 307.947C198.725 307.947 190.187 314.585 176.905 307.947C163.623 301.309 147.248 282.155 142.156 271.971H142.162Z" fill="#742DD2"/>
<path d="M188.493 312.567C185.036 312.567 180.882 311.776 176.179 309.422C162.236 302.453 145.85 283.022 140.693 272.708C140.575 272.472 140.516 272.218 140.516 271.959C140.522 271.097 140.716 263.456 145.024 260.807C145.242 260.671 145.484 260.594 145.744 260.57C146.41 260.511 162.189 259.202 175.601 266.158C188.989 273.103 201.587 290.622 205.534 300.6C205.747 301.143 205.658 301.757 205.298 302.217L200.029 308.961C199.946 309.068 199.846 309.162 199.74 309.245C199.486 309.439 195.356 312.561 188.493 312.561V312.567ZM143.82 271.605C148.871 281.388 164.673 299.992 177.648 306.483C188.983 312.154 196.412 307.569 197.574 306.76L202.112 300.954C197.999 291.342 186.381 275.464 174.078 269.085C162.702 263.184 149.012 263.668 146.452 263.822C144.504 265.385 143.908 269.693 143.82 271.605Z" fill="#0F0F14"/>
<path d="M199.437 308.695C198.8 308.695 198.192 308.323 197.921 307.698C194.557 299.827 184.084 284.426 170.3 276.625C156.286 268.695 142.827 272.796 142.691 272.843C141.824 273.115 140.903 272.637 140.626 271.769C140.348 270.902 140.826 269.981 141.694 269.704C142.296 269.509 156.616 265.096 171.928 273.758C188.238 282.986 198.41 300.452 200.953 306.4C201.313 307.238 200.924 308.205 200.086 308.559C199.874 308.648 199.655 308.695 199.437 308.695Z" fill="#0F0F14"/>
<path d="M202.507 297.91C202.507 297.91 208.212 284.687 201.149 274.815C194.086 264.943 182.108 263.026 182.108 263.026C182.108 263.026 176.031 253.278 167.18 248.15C167.18 248.15 168.407 244.887 171.959 246.321C175.505 247.755 184.887 259.013 184.887 259.013C184.887 259.013 198.164 263.356 203.722 270.071C210.467 278.226 208.714 289.466 208.714 289.466C208.714 289.466 206.017 297.072 202.518 297.904L202.507 297.91Z" fill="#742DD2"/>
<path d="M202.506 299.285C202.104 299.285 201.721 299.108 201.455 298.795C201.119 298.4 201.042 297.845 201.243 297.373C201.296 297.249 206.548 284.728 200.033 275.624C193.401 266.36 182.001 264.407 181.889 264.389C181.5 264.324 181.151 264.094 180.945 263.763C180.886 263.669 174.932 254.24 166.488 249.348C165.91 249.012 165.656 248.304 165.892 247.678C165.963 247.484 166.66 245.755 168.453 244.97C169.657 244.445 171.008 244.474 172.466 245.064C176.006 246.492 183.948 255.786 185.689 257.851C187.967 258.636 199.496 262.831 204.772 269.21C211.829 277.742 210.135 289.207 210.058 289.691C210.047 289.773 210.023 289.856 209.994 289.938C209.693 290.788 206.925 298.276 202.818 299.255C202.712 299.279 202.606 299.291 202.5 299.291L202.506 299.285ZM182.939 261.793C185.571 262.341 195.797 264.979 202.264 274.019C206.967 280.592 206.412 288.41 205.314 293.402C206.152 292.033 206.884 290.452 207.362 289.142C207.515 287.956 208.554 278.084 202.653 270.95C197.408 264.613 184.58 260.365 184.45 260.323C184.208 260.241 183.99 260.093 183.824 259.898C180.284 255.65 173.787 248.552 171.433 247.602C170.684 247.301 170.052 247.259 169.551 247.478C169.392 247.549 169.25 247.643 169.126 247.743C176.437 252.44 181.6 259.78 182.933 261.793H182.939Z" fill="#0F0F14"/>
<path d="M321.865 222.342C321.865 222.342 309.644 229.145 307.137 237.63C307.137 237.63 303.59 239.111 301.472 242.545C299.354 245.974 299.796 247.354 300.434 248.653C301.077 249.951 301.637 250.299 301.319 251.461C301 252.618 300.817 253.178 300.817 253.178C300.817 253.178 299.076 254.17 300.251 257.208C301.425 260.247 303.112 262.932 305.29 262.973C307.467 263.021 310.671 261.191 310.671 261.191L311.32 261.05C311.32 261.05 323.877 265.735 334.486 260.814C345.095 255.887 344.871 247.537 342.346 241.873C339.826 236.208 329.335 227.558 329.335 227.558L321.859 222.342H321.865Z" fill="#3E4049"/>
<path d="M299.982 247.354C299.982 247.354 299.256 245.141 301.492 242.267C303.729 239.394 305.522 238.273 307.446 238.237C309.37 238.202 310.479 239.24 310.479 239.24L311.323 239.807L312.113 239.677C312.113 239.677 314.013 239.069 316.12 240.285C318.226 241.494 321.861 244.22 321.743 247.56C321.625 250.9 316.049 256.405 313.199 258.984C310.355 261.562 307.464 263.338 304.69 262.878C301.917 262.424 299.551 256.482 299.781 255.113C300.017 253.744 300.926 252.829 300.926 252.829L301.433 252.198L301.451 250.21L300.283 248.351L299.976 247.36L299.982 247.354Z" fill="#F2C5A7"/>
<g opacity="0.4">
<path d="M300.031 246.043C300.031 246.043 305.04 241.405 306.574 240.915C308.109 240.426 309.619 240.915 309.619 240.915L310.764 240.142L310.032 238.962C310.032 238.962 308.079 237.452 305.843 238.709C303.606 239.96 301.223 242.674 300.414 243.659C299.606 244.645 300.037 246.049 300.037 246.049L300.031 246.043Z" fill="white"/>
</g>
<g opacity="0.4">
<path d="M302.406 251.873C302.406 251.873 303.704 250.15 304.583 249.554C305.462 248.958 306.436 248.693 306.436 248.693L306.058 248.138C306.058 248.138 307.008 246.197 308.2 245.17C309.392 244.144 310.448 243.654 310.448 243.654C310.448 243.654 312.626 241.931 313.611 241.86C314.596 241.789 319.341 244.197 319.341 244.197C319.341 244.197 318.025 240.29 315.387 239.925C312.744 239.553 310.543 240.615 310.543 240.615L308.218 242.539C308.218 242.539 307.008 243.129 306.058 244.197C305.108 245.265 304.689 246.74 304.689 246.74C304.689 246.74 303.108 247.477 302.406 248.74C301.704 250.003 302.406 251.867 302.406 251.867V251.873Z" fill="white"/>
</g>
<g opacity="0.25">
<path d="M300.369 254.512C300.369 254.512 302.723 257.922 305.585 258.483C308.447 259.044 313.581 254.258 316.985 250.588C320.396 246.924 319.9 244.705 319.9 244.705C319.9 244.705 321.718 246.652 321.67 248.122C321.623 249.591 318.395 253.574 318.395 253.574C318.395 253.574 323.759 257.94 333.147 255.385C342.535 252.83 343.125 245.065 343.125 245.065C343.125 245.065 345.875 253.349 337.295 259.114C328.722 264.873 318.49 263.18 314.295 261.935C312.1 261.185 311.504 261.103 311.504 261.103L310.241 261.392C310.241 261.392 307.125 263.41 304.482 262.82C301.838 262.23 300.192 257.067 300.051 256.4C299.909 255.733 300.369 254.5 300.369 254.5V254.512Z" fill="#0F0F14"/>
</g>
<path d="M323.535 264.554C319.664 264.554 315.51 263.864 311.238 262.465C310.005 263.285 307.214 264.849 304.653 264.247C301.172 263.421 298.398 257.42 298.398 255.326C298.398 253.703 299.396 252.576 300.08 251.992L300.198 250.723C299.372 249.797 298.003 247.749 298.723 244.94C299.638 241.365 304.659 236.514 307.94 236.892C309.739 237.099 311.032 237.901 311.793 238.521C313.014 238.102 314.749 237.966 316.336 239.063C317.204 239.541 323.96 243.448 322.874 248.628C322.107 252.293 316.702 257.656 313.74 260.371C323.795 263.232 332.87 261.828 338.322 256.47C341.862 252.995 343.172 248.428 341.821 244.256C338.44 233.794 320.614 223.197 320.437 223.091C319.782 222.707 319.57 221.863 319.953 221.214C320.337 220.559 321.181 220.341 321.83 220.73C322.603 221.185 340.735 231.977 344.435 243.418C346.111 248.605 344.547 254.216 340.246 258.435C336.121 262.489 330.256 264.566 323.535 264.566V264.554ZM302.104 253.892C302.104 253.892 301.148 254.523 301.148 255.32C301.148 256.535 303.449 261.138 305.29 261.574C306.925 261.964 309.385 260.459 310.158 259.875C312.743 257.674 319.505 251.331 320.189 248.056C320.779 245.23 316.507 242.25 314.967 241.43C314.914 241.4 314.861 241.365 314.808 241.329C313.646 240.491 312.271 241.282 312.212 241.318C311.616 241.66 310.849 241.524 310.43 240.987C310.4 240.952 309.45 239.813 307.627 239.606C306.063 239.423 302.039 243.052 301.384 245.607C300.847 247.714 302.44 249.089 302.505 249.148C302.847 249.437 303.036 249.885 302.995 250.334L302.753 252.847C302.712 253.278 302.47 253.662 302.098 253.892H302.104Z" fill="#0F0F14"/>
<path d="M301.636 251.579C301.594 251.579 301.547 251.579 301.506 251.573C300.751 251.502 300.196 250.83 300.273 250.074C300.485 247.838 302.379 246.522 303.961 245.903C304.321 243.212 306.769 241.731 307.843 241.2C308.728 239.837 310.599 239.028 311.012 238.863C311.72 238.58 312.516 238.922 312.794 239.624C313.077 240.327 312.735 241.123 312.033 241.406C311.177 241.754 310.245 242.404 310.109 242.746C309.967 243.112 309.678 243.395 309.318 243.536C309.295 243.548 306.492 244.669 306.669 246.8C306.722 247.484 306.268 248.098 305.601 248.251C305.583 248.251 303.146 248.865 303.005 250.328C302.94 251.036 302.338 251.567 301.642 251.567L301.636 251.579Z" fill="#0F0F14"/>
<path d="M309.845 241.348C311.172 242.693 312.258 244.251 313.285 245.833C313.633 246.358 313.91 246.954 313.91 247.792C313.91 247.88 313.828 247.957 313.739 247.945C312.901 247.851 312.346 247.508 311.863 247.101C310.405 245.903 308.983 244.647 307.797 243.171C306.753 241.82 308.629 240.162 309.845 241.342V241.348Z" fill="#0F0F14"/>
<path d="M306.474 246.226C307.395 247.548 308.15 249.059 309.012 250.422C309.318 250.87 309.519 251.348 309.672 252.109C309.69 252.192 309.637 252.275 309.554 252.292C308.032 252.517 307.2 251.354 306.256 250.499C305.406 249.619 304.686 248.705 304.108 247.619C303.335 246.085 305.513 244.816 306.474 246.226Z" fill="#0F0F14"/>
<path d="M302.856 250.309C303.346 251.1 304.054 252.416 304.532 253.254C305.128 254.416 305.901 255.048 306.131 256.493C306.149 256.582 306.084 256.67 305.996 256.676C305.17 256.747 304.538 256.422 304.031 256.021C303.016 255.219 302.119 254.275 301.381 253.224C300.691 252.239 299.493 250.534 301.086 249.731C301.741 249.436 302.508 249.696 302.851 250.309H302.856Z" fill="#0F0F14"/>
<path d="M250.725 281.057C250.725 281.057 249.008 286.657 254.944 294.18C260.874 301.703 266.627 304.583 266.627 304.583C266.627 304.583 261.458 311.752 257.611 313.351C257.611 313.351 247.297 306.04 242.015 292.994C236.729 279.948 248.66 272.076 248.66 272.076" fill="#742DD2"/>
<path d="M281.648 281.801C281.648 281.801 293.827 299.202 281.996 313.73L271.664 311.245C271.664 311.245 276.744 304.129 275.104 297.102C273.464 290.074 270.508 280.775 274.125 276.963" fill="#742DD2"/>
<path d="M257.609 314.992C257.273 314.992 256.942 314.891 256.659 314.691C256.222 314.378 245.89 306.949 240.491 293.608C234.768 279.47 247.619 270.784 247.755 270.702C248.516 270.2 249.537 270.413 250.038 271.168C250.54 271.929 250.328 272.95 249.572 273.452C249.136 273.741 238.845 280.768 243.548 292.375C247.767 302.789 255.355 309.463 257.798 311.41C259.94 310.1 262.577 307.114 264.212 305.055C261.987 303.615 257.869 300.529 253.667 295.201C247.271 287.1 249.088 280.839 249.165 280.579C249.431 279.712 250.351 279.222 251.224 279.488C252.086 279.753 252.576 280.662 252.322 281.529C252.257 281.765 251.024 286.533 256.252 293.165C261.851 300.264 267.327 303.084 267.386 303.114C267.817 303.332 268.13 303.728 268.242 304.194C268.354 304.66 268.26 305.155 267.982 305.545C267.428 306.318 262.424 313.145 258.258 314.874C258.057 314.956 257.839 314.998 257.627 314.998L257.609 314.992Z" fill="#0F0F14"/>
<path d="M281.994 315.376C281.864 315.376 281.734 315.358 281.61 315.329L271.278 312.844C270.747 312.715 270.311 312.331 270.122 311.818C269.927 311.304 270.004 310.732 270.322 310.284C270.37 310.219 274.948 303.669 273.503 297.468C273.296 296.588 273.072 295.668 272.836 294.73C271.107 287.732 269.148 279.801 272.925 275.818C273.55 275.157 274.594 275.128 275.249 275.753C275.91 276.379 275.94 277.423 275.314 278.078C272.777 280.757 274.583 288.062 276.028 293.933C276.264 294.883 276.494 295.815 276.701 296.712C277.952 302.082 275.745 307.363 274.234 310.16L281.345 311.871C291.169 298.671 280.749 283.389 280.294 282.734C279.775 281.99 279.958 280.964 280.702 280.444C281.445 279.925 282.472 280.102 282.991 280.851C283.121 281.034 295.736 299.444 283.268 314.762C282.95 315.152 282.478 315.37 281.994 315.37V315.376Z" fill="#0F0F14"/>
<path d="M264.852 273.569C264.852 273.569 268.475 266.919 277.338 270.129C286.2 273.339 281.757 287.276 276.163 290.693C270.57 294.109 265.483 289.306 265.483 289.306C265.483 289.306 257.618 291.613 251.416 285.949C245.215 280.284 246.153 268.524 252.467 267.928C258.78 267.332 262.58 271.097 264.852 273.569Z" fill="#742DD2"/>
<path d="M271.972 293.555C269.116 293.555 266.602 292.292 265.062 291.1C262.655 291.572 255.922 292.292 250.317 287.17C245.708 282.957 244.776 276.047 246.239 271.681C247.296 268.524 249.514 266.559 252.323 266.294C258.341 265.727 262.383 268.76 264.708 271.032C266.986 268.601 271.447 266.247 277.908 268.583C281.413 269.852 283.561 272.72 283.956 276.655C284.522 282.278 281.289 289.495 277.029 292.097C275.306 293.147 273.583 293.555 271.966 293.555H271.972ZM265.487 287.66C265.9 287.66 266.313 287.813 266.62 288.108C266.785 288.262 270.886 291.991 275.312 289.288C278.191 287.53 281.159 281.777 280.675 276.986C280.404 274.301 279.094 272.513 276.781 271.675C269.417 269.008 266.419 274.142 266.295 274.36C266.036 274.82 265.57 275.133 265.045 275.192C264.519 275.251 264 275.062 263.64 274.679C260.938 271.734 257.734 269.079 252.624 269.563C250.736 269.74 249.803 271.374 249.355 272.72C248.204 276.148 249.083 281.582 252.529 284.733C257.934 289.678 264.738 287.807 265.027 287.725C265.174 287.683 265.328 287.66 265.481 287.66H265.487Z" fill="#0F0F14"/>
<path d="M265.492 290.953C264.908 290.953 264.342 290.64 264.047 290.092C263.61 289.295 263.911 288.292 264.708 287.861C265.681 287.33 266.295 286.557 266.572 285.501C267.499 281.972 264.643 276.326 263.463 274.443C262.979 273.67 263.215 272.655 263.982 272.172C264.755 271.688 265.77 271.924 266.254 272.691C266.46 273.015 271.228 280.716 269.753 286.333C269.239 288.292 268.071 289.779 266.277 290.753C266.029 290.888 265.758 290.953 265.492 290.953Z" fill="#0F0F14"/>
<path d="M353.317 316.876C351.352 312.522 336.872 297.339 336.872 297.339C336.872 297.339 319.654 293.652 287.124 295.375C285.295 299.729 283.047 316.876 283.047 316.876C301.598 322.075 352.473 324.889 352.473 324.889C352.473 324.889 355.282 321.237 353.317 316.876Z" fill="#F2C5A7"/>
<path d="M336.877 297.345C339.969 273.453 328.02 261.504 305.586 268.113C283.152 274.716 287.123 295.38 287.123 295.38C319.659 293.657 336.871 297.345 336.871 297.345H336.877Z" fill="#3E4049"/>
<g opacity="0.4">
<path d="M353.752 320.108L331.047 297.344L333.578 296.777L337.791 297.975L352.277 315.122C352.277 315.122 353.717 318.256 353.752 320.114V320.108Z" fill="white"/>
</g>
<g opacity="0.25">
<path d="M353.459 320.446C353.459 320.446 351.984 322.924 349.399 321.29C349.399 321.29 345.711 322.027 343.864 320.18L343.127 319.39C343.127 319.39 339.28 321.337 336.642 319.39L335.958 318.811C335.958 318.811 333.798 320.027 332.057 319.655C330.317 319.283 329.29 317.602 329.29 317.602C329.29 317.602 327.596 318.569 319.094 317.301C310.591 316.038 303.286 316.109 300.123 311.678C296.96 307.252 299.633 294.601 299.633 294.601C299.633 294.601 313.405 294.601 320.852 295.303C328.299 296.006 333.078 296.43 333.078 296.43C333.078 296.43 333.497 292.147 333.291 290.034C333.291 290.034 319.094 290.807 308.626 286.098C298.158 281.39 301.073 269.771 301.073 269.771C301.073 269.771 294.642 272.326 291.06 278.015C287.478 283.709 287.266 289.397 287.124 289.822C286.983 290.247 287.053 294.914 287.053 294.914L286.634 296.802C286.634 296.802 283.684 310.975 283.047 316.876C283.047 316.876 296.542 319.685 310.384 321.372C324.227 323.06 351.635 324.883 351.635 324.883L352.857 324.293C352.857 324.293 354.373 320.983 353.465 320.434L353.459 320.446Z" fill="#0F0F14"/>
</g>
<path d="M352.475 326.535C352.446 326.535 352.416 326.535 352.387 326.535C350.304 326.416 301.117 323.655 282.606 318.462C281.816 318.244 281.314 317.477 281.42 316.663C281.509 315.978 283.586 300.253 285.439 295.185C285.002 291.851 283.527 272.892 305.129 266.531C316.163 263.286 325.179 264.283 331.204 269.428C337.523 274.822 340.084 284.268 338.615 296.772C341.53 299.852 352.959 312.06 354.83 316.197C357.178 321.395 353.927 325.708 353.791 325.891C353.479 326.298 352.995 326.535 352.487 326.535H352.475ZM284.878 315.66C302.562 320.138 344.651 322.776 351.596 323.189C352.145 322.127 352.912 319.973 351.821 317.554C350.304 314.19 339.659 302.643 335.688 298.477C335.346 298.117 335.181 297.622 335.246 297.132C336.762 285.395 334.626 276.68 329.062 271.93C323.922 267.546 315.968 266.773 306.055 269.688C285.368 275.778 288.596 294.282 288.743 295.067C288.802 295.385 288.767 295.716 288.643 296.011C287.339 299.114 285.633 310.16 284.872 315.66H284.878Z" fill="#0F0F14"/>
<path d="M324.169 321.501C326.34 319.719 328.24 317.17 328.034 314.226C328.004 313.105 327.797 312.102 327.904 310.88C327.916 310.768 328.051 310.703 328.14 310.768C330.441 312.22 330.901 315.311 330.4 317.802C329.839 320.445 328.216 322.711 326.004 324.233C324.169 325.402 322.404 322.77 324.163 321.501H324.169Z" fill="#0F0F14"/>
<path d="M333.113 322.723C333.803 321.478 334.482 320.068 334.883 318.687C335.397 317.023 335.06 315.885 335.42 314.014C335.438 313.908 335.556 313.849 335.656 313.89C337.656 314.817 337.828 317.242 337.751 319.148C337.58 321.124 336.972 322.942 335.827 324.582C334.541 326.281 332.004 324.535 333.107 322.723H333.113Z" fill="#0F0F14"/>
<path d="M340.493 322.928C340.652 322.492 340.965 321.607 341.112 321.164C341.514 319.931 341.832 318.68 341.915 317.382C341.95 316.721 341.998 316.101 342.369 315.175C342.405 315.075 342.511 315.022 342.611 315.063C343.508 315.494 343.986 316.29 344.187 317.093C344.83 319.518 344.576 322.126 343.449 324.374C342.416 326.215 339.679 324.864 340.493 322.928Z" fill="#0F0F14"/>
<path d="M346.38 323.88C346.752 322.906 347.277 321.555 347.572 320.576C348.009 319.219 347.838 318.392 348.487 316.906C348.522 316.805 348.634 316.752 348.735 316.793C349.632 317.153 350.056 317.938 350.233 318.693C350.818 320.57 350.234 327.426 347.1 325.998C346.333 325.585 346.032 324.653 346.374 323.88H346.38Z" fill="#0F0F14"/>
<path d="M336.883 298.991C336.771 298.991 336.653 298.979 336.541 298.956C336.369 298.92 319.11 295.333 287.223 297.02C286.303 297.079 285.542 296.371 285.494 295.463C285.447 294.554 286.144 293.781 287.052 293.734C319.435 292.023 336.523 295.581 337.237 295.734C338.128 295.923 338.694 296.802 338.5 297.687C338.334 298.46 337.65 298.991 336.889 298.991H336.883Z" fill="#0F0F14"/>
<path d="M288.064 318.072C288.064 318.072 292.82 309.498 302.096 306.264C311.372 303.031 325.633 307.185 328.094 308.937C330.555 310.69 340.674 300.924 340.674 300.924C340.674 300.924 338.922 298.464 337.305 298.251C335.682 298.039 328.867 304.223 328.867 304.223C328.867 304.223 320.435 299.797 308.138 300.287C295.841 300.777 285.863 311.811 283.474 316.307L283.055 317.57L288.064 318.066V318.072Z" fill="#742DD2"/>
<path d="M279.48 321.745L279.129 325.078C278.894 327.314 280.516 329.318 282.752 329.553L353.599 337.012C355.835 337.247 357.838 335.625 358.074 333.389L358.425 330.056C358.66 327.82 357.038 325.816 354.802 325.581L283.956 318.122C281.719 317.887 279.716 319.509 279.48 321.745Z" fill="#742DD2"/>
<path d="M354.143 338.672C353.949 338.672 353.748 338.66 353.547 338.642L282.416 331.16C279.359 330.836 277.129 328.086 277.453 325.03L277.831 321.413C278.155 318.356 280.905 316.132 283.962 316.45L355.093 323.932C356.574 324.086 357.908 324.811 358.846 325.968C359.784 327.124 360.215 328.582 360.056 330.063L359.678 333.68C359.525 335.161 358.799 336.495 357.642 337.433C356.639 338.247 355.418 338.678 354.143 338.678V338.672ZM283.377 319.707C282.227 319.707 281.23 320.581 281.106 321.755L280.728 325.372C280.598 326.623 281.507 327.75 282.764 327.88L353.896 335.362C354.509 335.427 355.099 335.25 355.571 334.866C356.043 334.483 356.344 333.934 356.403 333.332L356.781 329.715C356.846 329.107 356.669 328.511 356.285 328.039C355.902 327.567 355.359 327.266 354.751 327.207L283.619 319.725C283.537 319.719 283.46 319.713 283.377 319.713V319.707Z" fill="#0F0F14"/>
<path d="M288.06 319.447C288.012 319.447 287.971 319.447 287.924 319.441L282.914 318.945C282.501 318.904 282.124 318.674 281.899 318.326C281.675 317.978 281.616 317.541 281.752 317.146L282.177 315.883C282.2 315.812 282.23 315.741 282.265 315.676C284.543 311.387 294.893 299.456 308.086 298.93C318.46 298.511 326.124 301.474 328.632 302.607C333.087 298.635 336.079 296.724 337.483 296.907C339.59 297.184 341.442 299.65 341.791 300.14C342.186 300.695 342.115 301.45 341.625 301.922C336.633 306.737 330.096 312.059 327.299 310.071C325.198 308.578 311.284 304.524 302.546 307.575C293.901 310.59 289.305 318.674 289.263 318.756C289.021 319.193 288.561 319.465 288.066 319.465L288.06 319.447ZM285.003 316.39L287.334 316.62C288.791 314.343 293.553 307.781 301.637 304.967C311.054 301.686 325.7 305.634 328.827 307.781C330.042 307.941 334.515 304.79 338.793 300.813C338.262 300.252 337.648 299.745 337.212 299.633C336.167 299.91 332.574 302.719 329.789 305.244C329.364 305.634 328.738 305.71 328.231 305.445C328.148 305.403 319.952 301.196 308.193 301.662C296.734 302.123 287.611 312.089 285.009 316.39H285.003Z" fill="#0F0F14"/>
<path d="M343.43 194.449C343.43 194.449 343.46 194.473 343.514 194.515C343.466 194.473 343.43 194.449 343.43 194.449Z" fill="#E5AD88"/>
<path d="M352.651 199.01C376.082 167.56 433.265 83.9957 419.375 39.3635C405.319 -5.80558 333.226 -11.4229 298.442 27.9282C298.442 27.9282 297.492 30.2117 298.967 30.4241C300.442 30.6365 323.201 10.7161 350.09 7.12855C376.979 3.54688 422.189 22.0984 412.276 67.6333C402.794 111.215 373.934 152.549 343.505 194.52C343.676 194.656 344.118 195.004 344.756 195.464C346.532 196.727 349.789 198.757 352.645 199.016L352.651 199.01Z" fill="#E5AD88"/>
<path d="M343.508 194.514C343.679 194.649 344.121 195.003 344.759 195.458C344.121 195.003 343.673 194.649 343.508 194.514Z" fill="#E5AD88"/>
<path d="M343.503 194.514C342.14 196.396 340.777 198.272 339.408 200.155C307.503 244.073 289.164 262.943 289.164 262.943C289.164 262.943 290.893 267.894 297.035 269.369C297.035 269.369 328.934 230.673 351.805 200.131C352.076 199.765 352.596 199.553 352.879 199.169C349.993 198.91 346.589 196.762 344.754 195.452C344.116 194.998 343.668 194.649 343.503 194.508V194.514Z" fill="#C1C9D3"/>
<g opacity="0.4">
<path d="M305.254 25.5379C305.254 25.5379 329.706 3.61129 367.511 5.02153C392.807 7.05724 418.245 28.4941 420.216 47.1813L421.52 47.8835C421.52 47.8835 419.236 22.1569 392.182 8.80972C365.128 -4.53745 337.861 4.03023 327.6 7.6886C317.339 11.347 305.785 20.7466 302.711 23.4963C299.637 26.246 299.07 27.8628 299.07 27.8628C299.07 27.8628 299.489 28.6357 299.702 28.7066C299.914 28.7774 305.254 25.5438 305.254 25.5438V25.5379Z" fill="white"/>
</g>
<g opacity="0.25">
<path d="M294.343 257.284C294.343 257.284 298.231 258.057 299.919 257.284C301.606 256.511 348.103 197.541 348.103 197.541L344.35 195.458C344.35 195.458 343.418 194.638 344.138 193.652C344.852 192.667 347.672 188.531 347.672 188.531C347.672 188.531 351.938 189.321 354.157 187.952C356.37 186.583 386.569 144.742 404.277 107.35C421.985 69.952 420.887 45.9307 420.887 45.9307C420.887 45.9307 423.064 71.8874 412.685 95.7199C402.306 119.552 389.791 144.801 376.833 164.12C363.881 183.444 345.377 208.646 345.377 208.646L297.051 269.375C297.051 269.375 294.555 269.109 292.236 267.162C289.917 265.215 289.18 262.949 289.18 262.949L294.355 257.29L294.343 257.284Z" fill="#0F0F14"/>
</g>
<path d="M375.404 148.559C375.404 148.559 370.589 146.683 370.542 145.892C370.489 145.102 371.173 143.68 371.173 143.68L376.602 146.123" fill="#C1C9D3"/>
<path d="M413.06 63.3435C412.381 63.4143 405.531 61.6205 405.212 60.9891C404.893 60.3578 405.212 58.3516 405.212 58.3516L413.06 59.3016" fill="#C1C9D3"/>
<path d="M361.345 6.86244L360.844 12.3972C360.844 12.3972 359.209 12.7689 358.472 12.3972C357.734 12.0255 357.941 6.70312 357.941 6.70312" fill="#C1C9D3"/>
<path d="M300.88 29.3682C300.88 29.3682 302.657 32.584 302.71 32.9557C302.763 33.3275 301.919 34.6964 301.128 34.3247C300.338 33.9529 298.703 30.7961 298.703 30.7961" fill="#C1C9D3"/>
<path d="M297.037 271.021C296.907 271.021 296.783 271.003 296.653 270.974C289.714 269.31 287.69 263.722 287.608 263.486C287.401 262.896 287.549 262.241 287.98 261.798C288.162 261.61 306.625 242.48 338.07 199.193C368.877 156.785 400.728 112.932 410.665 67.285C414.152 51.2708 410.795 37.1625 400.958 26.4883C387.771 12.1793 365.502 6.73895 350.302 8.76286C329.797 11.4948 311.623 23.9923 303.864 29.3265C300.412 31.6985 299.686 32.1882 298.73 32.0525C297.91 31.9345 297.244 31.492 296.854 30.8134C296.105 29.4976 296.712 27.7923 296.913 27.2966C296.984 27.1314 297.078 26.9721 297.202 26.8364C306.791 15.9852 319.66 7.94858 334.417 3.58803C348.142 -0.465683 363.136 -1.10885 376.63 1.78245C398.946 6.56193 415.096 20.0861 420.944 38.8736C427.128 58.7528 420.389 88.0611 400.899 125.984C384.749 157.417 364.032 186.548 353.122 201.117C330.487 231.339 298.624 270.03 298.306 270.419C297.987 270.803 297.521 271.021 297.037 271.021ZM291.136 263.256C291.809 264.418 293.367 266.46 296.453 267.492C301.215 261.692 329.744 226.849 350.491 199.146C369.862 173.283 431.96 85.3586 417.805 39.8531C412.323 22.228 397.064 9.52994 375.946 5.00417C349.293 -0.707608 319.89 8.02528 301.728 26.801C301.822 26.7361 301.911 26.6712 302.005 26.6122C309.959 21.1423 328.588 8.33211 349.877 5.49983C365.419 3.42871 388.791 8.41472 403.389 24.2578C413.981 35.7581 417.616 50.8755 413.893 67.9872C403.814 114.313 371.75 158.449 340.749 201.134C312.792 239.624 295.007 259.143 291.148 263.268L291.136 263.256Z" fill="#0F0F14"/>
<path d="M375.394 149.657C375.258 149.657 375.129 149.633 374.993 149.58C369.529 147.45 369.47 146.518 369.434 145.963C369.37 144.96 369.983 143.597 370.172 143.202C370.432 142.665 371.069 142.429 371.612 142.677L377.04 145.119C377.595 145.367 377.837 146.016 377.589 146.571C377.341 147.126 376.692 147.374 376.138 147.12L371.759 145.149C371.712 145.297 371.677 145.438 371.653 145.556C372.296 146.028 374.196 146.913 375.795 147.539C376.362 147.757 376.639 148.394 376.421 148.961C376.25 149.392 375.837 149.657 375.4 149.657H375.394Z" fill="#0F0F14"/>
<path d="M413.151 64.4353C412.532 64.4353 404.95 62.907 404.236 61.4791C403.822 60.653 403.994 59.0598 404.135 58.1806C404.23 57.5965 404.761 57.1834 405.351 57.2601L413.199 58.2101C413.8 58.281 414.231 58.8297 414.154 59.4316C414.078 60.0334 413.529 60.4583 412.933 60.3875L406.189 59.5732C406.171 59.8741 406.171 60.1455 406.189 60.3344C407.422 60.9303 412.184 62.1989 413.016 62.2462C413.576 62.2167 414.101 62.6474 414.16 63.2316C414.219 63.8334 413.783 64.3704 413.181 64.4353C413.175 64.4353 413.169 64.4353 413.157 64.4353H413.151ZM412.992 62.2521C412.992 62.2521 412.963 62.2521 412.951 62.2521C412.963 62.2521 412.98 62.2521 412.992 62.2521Z" fill="#0F0F14"/>
<path d="M359.441 13.66C358.934 13.66 358.397 13.5892 357.972 13.3768C357.458 13.1231 356.597 12.6923 356.839 6.6619C356.862 6.05414 357.393 5.59389 357.978 5.60569C358.585 5.62929 359.057 6.14265 359.034 6.74451C358.963 8.50289 359.022 10.6389 359.199 11.4591C359.364 11.4709 359.583 11.4591 359.819 11.4414L360.243 6.76221C360.297 6.16035 360.828 5.7119 361.435 5.77091C362.037 5.82401 362.486 6.36097 362.427 6.96283L361.925 12.4976C361.884 12.9696 361.536 13.365 361.075 13.4712C360.804 13.5302 360.143 13.66 359.441 13.66Z" fill="#0F0F14"/>
<path d="M301.401 35.4803C301.148 35.4803 300.9 35.4272 300.664 35.3151C299.732 34.8784 298.551 32.8899 297.731 31.2909C297.454 30.7539 297.666 30.0931 298.203 29.8098C298.74 29.5325 299.401 29.7449 299.684 30.2819C300.286 31.4502 301.03 32.6421 301.449 33.1437C301.484 33.0965 301.525 33.0434 301.555 32.9902C301.283 32.4061 300.558 31.0371 299.926 29.8865C299.631 29.3555 299.826 28.6887 300.357 28.3937C300.888 28.0986 301.555 28.2934 301.85 28.8244C303.72 32.2173 303.773 32.5831 303.803 32.7837C303.915 33.5567 303.272 34.5598 302.611 35.0437C302.233 35.3269 301.814 35.4685 301.407 35.4685L301.401 35.4803Z" fill="#0F0F14"/>
<path d="M352.653 200.379C352.612 200.379 352.571 200.379 352.529 200.379C347.962 199.966 342.882 195.682 342.663 195.499C342.085 195.01 342.014 194.142 342.51 193.564C343 192.986 343.867 192.915 344.445 193.41C344.493 193.452 349.083 197.317 352.777 197.647C353.532 197.718 354.087 198.379 354.022 199.134C353.957 199.848 353.361 200.385 352.659 200.385L352.653 200.379Z" fill="#0F0F14"/>
<path d="M323.493 203.966C295.353 206.303 279.121 198.679 244.968 201.771C226.511 203.441 214.786 213.572 207.906 222.524L276.17 243.648C307.508 241.541 327.01 228.678 327.01 228.678L323.499 204.857V203.96L323.493 203.966Z" fill="#3E4049"/>
<path d="M350.582 205.572C348.617 203.955 337.37 203.253 337.37 203.253L339.406 200.161C334.066 199.742 323.492 204.87 323.492 204.87L327.003 228.69C329.847 230.797 335.47 230.449 335.47 230.449C347.278 229.747 347.626 218.996 347.626 218.996C347.626 218.996 349.455 217.45 350.015 215.621C350.576 213.791 349.803 211.124 349.803 211.124C349.803 211.124 352.541 207.189 350.576 205.572H350.582Z" fill="#F2C5A7"/>
<g opacity="0.25">
<path d="M349.379 205.572C349.379 205.572 346.676 208.805 346.676 210.068C346.676 211.331 346.924 212.741 346.358 214.216C345.797 215.691 344.216 216.712 344.074 217.273C343.933 217.833 343.301 222.017 339.018 223.84C334.734 225.669 326.437 223.457 326.437 223.457L325.806 220.612C325.806 220.612 316.843 226.301 302.646 231.08C288.449 235.86 273.415 241.619 273.415 241.619C273.415 241.619 272.807 244.05 277.71 243.542C299.483 241.276 318.283 233.535 318.283 233.535L326.538 229.316L327.629 229.21C327.629 229.21 336.168 232.302 341.927 228.472C347.691 224.643 347.408 219.409 347.408 219.409C347.408 219.409 349.963 217.426 350.164 214.889C350.364 212.352 349.762 211.437 349.762 211.437C349.762 211.437 351.834 207.749 350.99 206.516C350.146 205.289 349.373 205.566 349.373 205.566L349.379 205.572Z" fill="#0F0F14"/>
</g>
<path d="M206.192 221.031C215.645 208.303 231.187 200.768 246.876 199.983C262.259 198.567 277.772 199.877 293.049 201.565C303.145 202.627 313.241 203.099 323.348 202.255C324.298 202.184 325.124 202.892 325.201 203.842C325.201 203.884 325.201 203.931 325.201 203.972V204.869L322.729 203.317C325.349 202.078 327.939 201.01 330.677 200.084C333.586 199.163 336.318 198.278 339.534 198.431C340.82 198.485 341.587 200.048 340.861 201.099C340.873 201.099 338.802 204.196 338.808 204.202L337.474 201.523C339.15 201.641 340.779 201.789 342.437 201.978C344.089 202.167 345.741 202.391 347.423 202.721C348.886 203.075 350.214 203.229 351.612 204.214C354.132 206.303 352.704 209.861 351.199 212.091L351.435 210.652C352.533 214.487 351.801 217.644 348.715 220.276L349.311 219.048C348.656 227.616 341.74 232.673 333.409 232.083C330.824 231.912 328.323 231.593 326.039 230L327.904 230.053C320.097 234.803 311.618 238.06 302.891 240.597C294.229 243.052 285.248 244.739 276.22 244.468C275.282 244.415 275.129 243.034 276.114 242.851C280.498 242.102 284.847 241.4 289.172 240.562C302.029 238.137 314.875 234.118 326.11 227.333C326.694 226.949 327.443 226.996 327.974 227.386C329.444 228.418 331.686 228.713 333.556 228.808C337.474 229.044 341.817 227.816 344.048 224.406C345.009 222.996 345.635 221.302 345.883 219.603C345.965 218.883 345.959 218.187 346.538 217.726C347.281 217.066 348.208 215.95 348.432 215.024C348.662 214.074 348.449 212.587 348.178 211.596C348.042 211.088 348.143 210.575 348.408 210.168C348.756 209.654 349.116 208.958 349.335 208.368C349.565 207.695 349.689 207.129 349.488 206.893C348.674 206.468 347.735 206.297 346.75 206.085C343.67 205.5 340.401 205.199 337.256 204.981C335.952 204.934 335.191 203.358 335.922 202.302L337.952 199.204L339.262 201.889C336.872 201.771 334.14 202.597 331.78 203.364C329.237 204.22 326.659 205.276 324.233 206.421C323.124 206.993 321.732 206.108 321.761 204.869V203.972L323.626 205.689C308.201 207.088 292.789 204.828 277.489 203.423C267.399 202.574 257.232 202.432 247.136 203.27C242.097 203.559 237.217 204.426 232.491 205.978C223.062 209.058 214.582 214.971 208.434 222.771C207.95 223.385 207.053 223.491 206.44 223.007C205.832 222.53 205.72 221.65 206.186 221.031H206.192Z" fill="#0F0F14"/>
<path d="M327 230.059C326.334 230.059 325.744 229.569 325.643 228.885L322.132 205.064C322.02 204.314 322.54 203.618 323.289 203.506C324.038 203.4 324.735 203.913 324.847 204.663L328.358 228.483C328.47 229.233 327.95 229.929 327.201 230.041C327.13 230.053 327.065 230.059 327 230.059Z" fill="#0F0F14"/>
<path d="M299.95 247.354C299.95 247.354 299.225 245.141 301.461 242.267C303.703 239.388 305.491 238.273 307.415 238.237C309.338 238.202 310.448 239.24 310.448 239.24L311.291 239.807L312.082 239.677C312.082 239.677 313.982 239.069 316.089 240.285C318.195 241.494 321.83 244.22 321.712 247.56C321.594 250.9 316.018 256.405 313.168 258.984C310.324 261.562 307.432 263.338 304.659 262.878C301.886 262.424 299.52 256.482 299.75 255.113C299.98 253.744 300.895 252.829 300.895 252.829L301.402 252.198L301.42 250.21L300.251 248.351L299.945 247.36L299.95 247.354Z" fill="#F2C5A7"/>
<g opacity="0.4">
<path d="M299.992 246.043C299.992 246.043 305.001 241.405 306.535 240.915C308.069 240.426 309.58 240.915 309.58 240.915L310.725 240.142L309.993 238.962C309.993 238.962 308.04 237.452 305.804 238.709C303.567 239.96 301.183 242.674 300.375 243.659C299.567 244.645 299.997 246.049 299.997 246.049L299.992 246.043Z" fill="white"/>
</g>
<g opacity="0.4">
<path d="M302.375 251.873C302.375 251.873 303.673 250.15 304.552 249.554C305.431 248.958 306.405 248.693 306.405 248.693L306.027 248.138C306.027 248.138 306.977 246.197 308.169 245.17C309.361 244.144 310.417 243.654 310.417 243.654C310.417 243.654 312.594 241.931 313.58 241.86C314.565 241.789 319.309 244.197 319.309 244.197C319.309 244.197 317.993 240.29 315.356 239.925C312.712 239.553 310.512 240.615 310.512 240.615L308.187 242.539C308.187 242.539 306.977 243.129 306.027 244.197C305.077 245.265 304.658 246.74 304.658 246.74C304.658 246.74 303.077 247.477 302.375 248.74C301.672 250.003 302.375 251.867 302.375 251.867V251.873Z" fill="white"/>
</g>
<g opacity="0.25">
<path d="M300.338 254.512C300.338 254.512 302.692 257.922 305.554 258.483C308.416 259.044 313.549 254.258 316.954 250.588C320.365 246.924 319.869 244.705 319.869 244.705C319.869 244.705 321.686 246.652 321.639 248.122C321.592 249.591 318.364 253.574 318.364 253.574L314.004 258.341L310.21 261.398C310.21 261.398 307.094 263.416 304.451 262.826C301.807 262.236 300.161 257.073 300.019 256.406C299.878 255.739 300.338 254.506 300.338 254.506V254.512Z" fill="#0F0F14"/>
</g>
<path d="M305.826 264.377C305.424 264.377 305.017 264.336 304.622 264.241C301.14 263.415 298.367 257.414 298.367 255.32C298.367 253.697 299.364 252.57 300.049 251.986L300.173 250.717C299.347 249.791 297.978 247.743 298.698 244.929C299.612 241.359 304.616 236.502 307.914 236.88C309.714 237.087 311.006 237.889 311.767 238.509C312.989 238.09 314.724 237.954 316.311 239.052C317.178 239.529 323.94 243.436 322.849 248.616C321.846 253.408 312.894 261.12 311.88 261.987C311.862 261.999 311.844 262.017 311.826 262.028C311.478 262.3 308.681 264.383 305.837 264.383L305.826 264.377ZM302.067 253.892C302.067 253.892 301.111 254.523 301.111 255.32C301.111 256.535 303.412 261.137 305.253 261.574C306.888 261.964 309.348 260.459 310.121 259.875C312.706 257.674 319.468 251.331 320.152 248.056C320.742 245.229 316.582 242.315 314.924 241.429C314.871 241.4 314.818 241.37 314.771 241.335C313.597 240.491 312.198 241.306 312.186 241.311C311.59 241.671 310.817 241.536 310.393 240.987C310.363 240.952 309.413 239.813 307.596 239.606C306.044 239.423 302.008 243.052 301.353 245.607C300.816 247.714 302.403 249.088 302.474 249.147C302.816 249.437 303.005 249.885 302.964 250.333L302.722 252.847C302.681 253.278 302.439 253.661 302.067 253.892Z" fill="#0F0F14"/>
<path d="M301.597 251.579C301.555 251.579 301.508 251.579 301.467 251.573C300.712 251.502 300.157 250.83 300.234 250.074C300.446 247.838 302.34 246.522 303.922 245.903C304.281 243.212 306.73 241.731 307.804 241.2C308.689 239.837 310.56 239.028 310.967 238.863C311.675 238.58 312.471 238.922 312.749 239.624C313.032 240.327 312.69 241.123 311.988 241.406C311.132 241.754 310.2 242.404 310.07 242.746C309.928 243.112 309.639 243.395 309.279 243.536C309.256 243.548 306.453 244.669 306.63 246.8C306.683 247.484 306.229 248.098 305.562 248.251C305.544 248.251 303.107 248.865 302.966 250.328C302.901 251.036 302.299 251.567 301.603 251.567L301.597 251.579Z" fill="#0F0F14"/>
<path d="M309.806 241.346C311.133 242.691 312.219 244.249 313.246 245.831C313.594 246.356 313.871 246.952 313.871 247.79C313.871 247.878 313.788 247.955 313.7 247.943C312.862 247.849 312.307 247.506 311.824 247.099C310.366 245.901 308.944 244.645 307.758 243.169C306.714 241.818 308.59 240.16 309.806 241.34V241.346Z" fill="#0F0F14"/>
<path d="M306.443 246.226C307.364 247.548 308.119 249.059 308.98 250.422C309.287 250.87 309.488 251.348 309.641 252.109C309.659 252.192 309.606 252.275 309.523 252.292C308.001 252.517 307.169 251.354 306.225 250.499C305.375 249.619 304.655 248.705 304.077 247.619C303.304 246.085 305.481 244.816 306.443 246.226Z" fill="#0F0F14"/>
<path d="M302.819 250.309C303.657 251.678 304.501 253.36 305.386 254.717C305.711 255.189 305.97 255.691 306.1 256.499C306.112 256.588 306.053 256.67 305.964 256.676C305.138 256.747 304.507 256.422 303.999 256.021C302.985 255.219 302.088 254.275 301.35 253.224C300.66 252.239 299.462 250.534 301.055 249.731C301.71 249.436 302.477 249.696 302.819 250.309Z" fill="#0F0F14"/>
<path d="M105.074 345.398C101.834 345.398 99.0844 345.091 97.1195 344.46C92.5878 343.008 88.9649 339.745 85.1236 336.293C79.6773 331.396 74.0481 326.333 65.2326 325.973C59.7687 325.749 54.4109 326.504 48.7346 327.295C38.5147 328.723 27.9467 330.204 16.1219 325.89C6.53344 322.391 0.532527 315.712 0.839358 308.873C1.15209 301.946 7.68406 296.287 18.7654 293.343C58.205 282.432 107.634 289.236 108.13 289.307C108.136 289.307 108.142 289.307 108.154 289.307C125.372 292.015 131.42 293.962 132.122 297.019C132.417 298.317 131.756 299.538 130.157 300.648C126.664 303.067 123.365 307.056 124.014 309.139C124.51 310.726 127.62 311.64 132.535 311.64C144.879 311.64 151.287 313.458 153.311 317.541C154.792 320.527 153.7 324.35 149.983 329.236C142.023 339.686 119.028 345.404 105.074 345.404V345.398ZM63.2972 323.194C63.9817 323.194 64.6603 323.206 65.3447 323.235C75.1515 323.63 81.4239 329.277 86.9645 334.257C90.5816 337.509 93.9981 340.583 97.9633 341.851C107.558 344.92 138.778 339.42 147.806 327.572C150.785 323.66 151.812 320.692 150.856 318.762C149.417 315.859 143.256 314.39 132.541 314.39C125.973 314.39 122.327 312.944 121.4 309.965C120.061 305.687 125.525 300.53 128.599 298.399C129.219 297.975 129.396 297.697 129.437 297.609C128.971 296.535 124.782 294.712 107.746 292.033C106.814 291.903 58.205 285.294 19.4912 296.004C9.63126 298.624 3.84276 303.362 3.58904 309.009C3.33531 314.626 8.62815 320.249 17.066 323.324C28.2477 327.401 38.4734 325.973 48.3569 324.586C53.2426 323.902 58.2699 323.2 63.3031 323.2L63.2972 323.194Z" fill="#0F0F14"/>
<path d="M130.28 340.995C129.838 340.995 129.407 340.783 129.141 340.388C128.716 339.756 128.888 338.907 129.519 338.482C139.113 332.044 140.004 328.764 139.686 327.383C138.877 323.907 129.289 322.603 123.559 321.824C121.943 321.606 120.408 321.394 119.216 321.169C115.593 320.491 113.245 318.915 112.23 316.478C110.543 312.437 113.28 307.692 114.537 305.84C115.393 304.571 115.352 304.229 115.346 304.193C114.461 302.323 97.573 302.051 90.3566 301.939C30.8372 300.995 18.7646 307.197 16.8764 310.985C12.6869 319.358 22.7357 324.869 23.1664 325.099C23.8332 325.459 24.0869 326.285 23.727 326.958C23.3729 327.625 22.5409 327.878 21.8742 327.524C17.4133 325.146 10.1143 318.378 14.4217 309.758C16.8115 304.978 26.7481 301.886 44.8039 300.311C56.611 299.278 71.9526 298.906 90.3979 299.201C112.171 299.55 116.502 300.482 117.777 302.937C118.662 304.642 117.411 306.495 116.809 307.386C116.024 308.542 113.558 312.543 114.761 315.428C115.399 316.951 117.069 317.977 119.724 318.479C120.851 318.691 122.35 318.892 123.931 319.11C131.596 320.155 141.131 321.447 142.364 326.763C143.244 330.546 139.65 334.995 131.053 340.765C130.817 340.925 130.551 340.995 130.292 340.995H130.28Z" fill="#0F0F14"/>
<path d="M39.9812 306.548C37.2492 310.088 34.594 313.393 37.1017 317.73C37.2964 318.066 36.848 318.449 36.5471 318.208C31.7558 314.655 34.6707 307.746 39.5682 305.952C39.9222 305.81 40.2408 306.277 39.9871 306.554L39.9812 306.548Z" fill="white"/>
<path d="M51.2969 307.675C49.3379 312.708 50.2466 314.785 54.4478 317.623C54.7841 317.829 54.5717 318.384 54.1823 318.307C51.7453 317.93 49.214 316.484 48.4174 314.024C47.9631 312.72 48.087 311.286 48.5472 310.123C49.0252 308.961 49.7155 307.952 50.7245 307.208C50.8957 307.085 51.1317 307.126 51.2497 307.297C51.3323 307.409 51.3382 307.551 51.2851 307.675H51.2969Z" fill="white"/>
<path d="M62.0492 317.895C66.7283 316.609 72.3398 315.411 72.505 309.522C72.5168 309.121 73.1246 309.05 73.2308 309.428C75.3786 316.025 67.6429 319.96 62.0433 318.621C61.6597 318.544 61.6656 317.96 62.0433 317.889L62.0492 317.895Z" fill="white"/>
<path d="M72.1658 319.802C73.0863 318.457 74.3314 317.99 75.6236 317.082C75.8242 316.928 76.1251 316.964 76.255 317.188C76.6857 318.769 75.2578 320.309 73.8121 320.634C73.3224 320.77 71.6053 320.74 72.1658 319.802Z" fill="white"/>
<path d="M73.8728 304.277C76.0796 303.993 77.8321 306.023 78.1921 308.018C78.3101 308.531 78.4576 310.897 77.4486 310.136C76.2921 308.271 75.1415 306.649 73.6899 304.985C73.4421 304.76 73.5247 304.33 73.8728 304.277Z" fill="white"/>
<path d="M82.9647 306.282C86.8473 307.87 86.6171 313.357 84.9709 316.514C84.8116 316.833 84.2982 316.744 84.2569 316.39C84.1035 315.092 84.1035 313.818 84.0091 312.531C83.8202 310.584 83.5547 308.649 82.5988 306.92C82.3628 306.631 82.5752 306.188 82.9647 306.282Z" fill="white"/>
<path d="M56.9026 304.277C59.5992 302.536 63.4995 302.412 66.1547 304.288C66.32 304.424 66.3436 304.666 66.2078 304.831C66.1252 304.932 66.0131 304.979 65.8892 304.973C64.5793 304.973 62.8504 305.067 61.5523 305.138C60.9917 305.15 55.7048 305.545 56.9026 304.271V304.277Z" fill="white"/>
<path d="M43.7128 312.773C44.5507 314.519 44.4917 316.189 45.1998 317.983C45.3414 318.284 45.0582 318.638 44.7336 318.55C42.9458 318.077 42.0135 315.959 42.279 314.242C42.3262 313.735 43.0225 311.758 43.7069 312.779L43.7128 312.773Z" fill="white"/>
<path d="M60.2273 312.001C59.9736 312.001 59.7258 311.913 59.5193 311.741C59.059 311.346 59 310.656 59.3954 310.195L298.134 29.7103C298.264 29.5569 298.429 29.4448 298.618 29.3799L359.948 8.59209C360.35 8.45637 360.798 8.56258 361.093 8.87531L407.596 57.5966C407.897 57.9093 407.979 58.3696 407.82 58.7649L372.824 145.173C372.806 145.221 372.782 145.268 372.753 145.315L341.19 199.559C340.884 200.084 340.217 200.261 339.692 199.955C339.167 199.648 338.99 198.975 339.296 198.456L370.817 144.282L405.519 58.5997L359.99 10.8992L299.609 31.3684L61.0652 311.612C60.8469 311.865 60.5401 311.995 60.2273 311.995V312.001Z" fill="#0F0F14"/>
<g opacity="0.4">
<path d="M77.8418 305.593C76.9449 305.292 77.1278 303.982 78.0719 303.946C85.3414 303.681 107.534 303.079 108.501 305.634C109.658 308.69 106.289 310.166 103.651 313.435C101.013 316.704 115.564 319.76 112.083 323.082C108.607 326.398 89.2122 320.391 92.9001 315.754C96.588 311.116 105.97 308.726 101.438 307.445C97.6914 306.383 83.2821 307.41 77.8418 305.593Z" fill="white"/>
</g>
<g opacity="0.4">
<path d="M91.3917 331.697C90.4122 330.015 92.4125 328.145 94.047 329.195C95.7109 330.263 98.0122 331.319 100.071 331.072C103.582 330.653 105.695 339.362 96.6963 335.568C93.6516 334.282 92.0998 332.924 91.3858 331.697H91.3917Z" fill="white"/>
</g>
</g>
<defs>
<clipPath id="clip0_2013_1324">
<rect width="422.342" height="345.398" fill="white" transform="translate(0.828125)"/>
</clipPath>
</defs>
</svg>
