<svg width="440" height="360" viewBox="0 0 440 360" fill="none" xmlns="http://www.w3.org/2000/svg">
<g clip-path="url(#clip0_1687_15197)">
<g opacity="0.25">
<path d="M269.383 351.608C327.171 351.608 374.017 337.531 374.017 320.166C374.017 302.802 327.171 288.725 269.383 288.725C211.596 288.725 164.75 302.802 164.75 320.166C164.75 337.531 211.596 351.608 269.383 351.608Z" fill="#0F0F14"/>
</g>
<path d="M123.593 333.198C114.224 331.441 116.564 323.976 119.641 319.433C122.718 314.89 120.815 313.579 93.2844 313.133C65.7616 312.696 20.4814 313.247 15.4287 323.344C12.0521 330.097 16.4733 335.312 19.7689 338.024C21.2102 339.19 22.4086 339.854 22.5543 339.935C38.6113 343.401 52.7006 337.579 67.1463 338.17C83.3976 338.826 89.7702 353.984 100.75 357.499C107.584 359.685 122.937 358.041 135.852 353.474C160.905 336.065 132.815 334.923 123.585 333.19L123.593 333.198Z" fill="#5AD4FF"/>
<path d="M15.4357 323.354C12.0105 330.212 16.5207 335.402 19.7758 338.034C16.4802 335.321 12.0591 330.107 15.4357 323.354Z" fill="#BC885E"/>
<path d="M137.213 326.1C119.86 326.1 128.208 315.995 133.917 312.043C139.626 308.092 128.354 305.452 111.584 302.82C111.584 302.82 60.3366 295.573 19.0484 306.99C-5.7699 313.582 -2.25566 331.371 16.4167 338.173C18.4978 338.934 20.7326 339.663 22.7488 340.092C22.5869 340.003 21.2994 339.283 19.769 338.027C16.5139 335.396 11.9956 330.205 15.4289 323.347C20.4816 313.242 65.7618 312.699 93.2846 313.136C120.807 313.574 122.71 314.893 119.641 319.436C116.564 323.979 114.224 331.444 123.593 333.201C132.824 334.934 160.913 336.076 135.86 353.485C143.707 350.716 150.654 346.862 154.249 342.133C163.788 329.614 154.557 326.1 137.213 326.1Z" fill="#D3976A"/>
<g opacity="0.25">
<path d="M6.28006 313.04C6.28006 313.04 6.02095 318.959 8.22342 319.42C10.4178 319.882 15.5434 310.651 60.4916 309.193C105.44 307.728 121.91 309.631 121.472 316.295C121.472 316.295 121.254 313.776 89.6257 313.096C57.9976 312.416 29.7785 314.934 22.0698 318.651C14.3612 322.368 12.5717 326.011 15.2033 331.574C17.8349 337.137 20.4261 338.255 20.3127 338.465C20.1993 338.676 19.0981 339.17 19.0981 339.17C19.0981 339.17 8.33678 336.368 3.61605 329.064C-1.10469 321.76 2.49862 315.898 6.27196 313.04H6.28006Z" fill="#0F0F14"/>
</g>
<g opacity="0.25">
<path d="M63.2091 314.022C63.2091 314.022 37.3463 316.289 26.6578 323.358C15.9694 330.419 32.9575 341.067 32.9575 341.067L24.2691 340.298C24.2691 340.298 20.2124 339.116 17.3945 335.755C14.5766 332.395 11.4268 326.468 17.3945 320.613C23.3622 314.759 60.1564 312.484 63.2091 314.022Z" fill="#0F0F14"/>
</g>
<g opacity="0.25">
<path d="M118.388 321.567C118.388 321.567 118.542 328.619 124.421 329.996C130.299 331.373 143.53 330.717 149.401 333.429C155.28 336.142 155.482 339.559 154.033 342.409C152.583 345.259 145.555 348.66 143.749 349.705C141.935 350.749 138.445 351.6 138.445 351.6C138.445 351.6 146.956 345.381 146.008 340.563C145.069 335.753 132.38 334.441 132.105 334.433C131.83 334.433 121.643 333.867 118.963 331.267C116.283 328.668 116.688 323.729 118.38 321.559L118.388 321.567Z" fill="#0F0F14"/>
</g>
<path d="M224.303 222.511C224.303 222.511 210.788 230.349 207.493 248.803C204.197 267.248 197.606 304.804 255.591 317.986C313.575 331.16 343.001 309.419 337.074 273.84C331.147 238.26 320.596 217.377 320.596 217.377C320.596 217.377 264.376 231.183 224.303 222.511Z" fill="#3E4049"/>
<path d="M207.485 248.787C207.485 248.787 232.303 275.362 270.296 282.61C308.288 289.857 337.73 285.257 337.73 285.257C337.73 285.257 337.236 295.816 333.025 301.557C333.025 301.557 301.924 306.545 263.712 297.104C225.501 287.662 205.477 265.038 205.477 265.038C205.477 265.038 206.764 252.083 207.485 248.787Z" fill="#742DD2"/>
<path d="M351.688 108.576C351.688 108.576 358.821 117.127 380.287 121.257C401.753 125.386 412.215 115.151 413.988 112.123C415.762 109.094 414.685 97.6852 411.486 96.4302C408.288 95.1751 397.672 102.868 388.053 103.353C378.433 103.839 356.773 90.3086 356.773 90.3086" fill="#742DD2"/>
<path d="M389.882 123.928C386.846 123.928 383.542 123.629 379.955 122.941C358.141 118.746 350.675 110.042 350.367 109.677C349.76 108.948 349.857 107.872 350.586 107.264C351.307 106.657 352.392 106.754 352.999 107.475C353.08 107.572 360.165 115.645 380.611 119.572C403.858 124.042 412.433 111.386 412.506 111.256C413.405 109.718 413.356 103.831 412.077 100.13C411.543 98.592 411.008 98.0819 410.862 98.0252C409.996 97.7256 406.466 99.256 403.891 100.365C399.332 102.333 393.656 104.786 388.141 105.07C378.076 105.588 356.764 92.3328 355.866 91.766C355.064 91.2639 354.821 90.2032 355.323 89.4015C355.825 88.5999 356.886 88.357 357.687 88.859C363.59 92.5433 380.546 102.033 387.971 101.645C392.87 101.394 398.231 99.0778 402.538 97.2235C407.024 95.2883 409.988 94.0089 412.118 94.8348C413.47 95.3612 414.547 96.7701 415.324 99.0131C416.757 103.151 417.138 110.155 415.478 112.997C413.567 116.26 405.259 123.937 389.899 123.937L389.882 123.928Z" fill="#0F0F14"/>
<path d="M363.926 102.247C363.926 102.247 369.068 90.5793 382.995 84.2553C396.923 77.9313 403.498 54.5786 402.332 51.1372C401.166 47.6959 391.595 39.7767 383.635 41.1856C383.635 41.1856 382.914 62.603 371.967 69.0485C361.019 75.494 351.651 79.4212 348.703 92.7979C348.703 92.7979 350.97 101.673 363.926 102.256V102.247Z" fill="#742DD2"/>
<path d="M363.929 103.962C363.929 103.962 363.881 103.962 363.856 103.962C349.791 103.338 347.152 93.6294 347.046 93.2164C346.982 92.9573 346.973 92.682 347.03 92.4229C349.824 79.7668 358.051 75.0541 367.589 69.5965C368.739 68.9407 369.913 68.2686 371.103 67.5641C381.104 61.6774 381.921 41.3288 381.93 41.1183C381.954 40.3085 382.545 39.6284 383.347 39.4907C392.367 37.8955 402.602 46.5516 403.97 50.584C405.379 54.738 398.408 79.1514 383.719 85.8155C370.593 91.7751 365.557 102.828 365.508 102.941C365.233 103.565 364.617 103.962 363.937 103.962H363.929ZM350.48 92.7144C351.022 94.1719 353.646 99.6538 362.901 100.464C364.585 97.3055 370.294 88.1475 382.294 82.698C395.242 76.8193 401.557 54.6003 400.707 51.6853C399.857 49.1832 392.391 42.7296 385.622 42.7296C385.5 42.7296 385.379 42.7296 385.258 42.7296C384.869 47.8795 382.836 64.6329 372.836 70.5196C371.63 71.2322 370.448 71.9043 369.29 72.5683C360.221 77.7586 353.038 81.8802 350.48 92.7144Z" fill="#0F0F14"/>
<path d="M238.715 224.945C238.715 224.945 291.833 228.557 335.162 212.856C378.499 197.155 387.382 176.28 372.037 153.397C372.037 153.397 372.037 99.7608 336.846 72.7805C301.663 45.7922 219.727 49.5817 195.67 108.619C185.937 134.895 193.985 177.414 193.985 177.414C193.985 177.414 176.212 218.265 238.715 224.953V224.945Z" fill="#3E4049"/>
<g opacity="0.4">
<path d="M376.076 160.582C375.946 160.388 375.825 160.193 375.695 159.999C375.695 159.999 375.695 159.91 375.695 159.748C375.825 160.023 375.954 160.307 376.084 160.582H376.076Z" fill="white"/>
</g>
<g opacity="0.4">
<path d="M197.193 207.1C192.027 200.201 191.274 192.679 191.784 186.93C191.395 192.865 192.253 200.444 197.193 207.1Z" fill="white"/>
</g>
<g opacity="0.4">
<path d="M190.961 147.803C191.479 164.119 193.997 177.407 193.997 177.407C193.997 177.407 192.297 181.326 191.803 186.929C192.192 180.929 193.852 176.605 193.852 176.605C193.852 176.605 191.058 163.811 190.961 147.803Z" fill="white"/>
</g>
<path d="M318.44 107.906C327.096 108.408 334.376 114.57 336.376 123.016C339.42 135.907 343.785 161.041 334.449 170.992C321.647 184.636 282.221 183.381 254.528 186.231C226.835 189.082 208.284 192.653 201.717 172.353C195.151 152.053 199.28 127.016 201.612 124.821C203.944 122.627 233.54 119.226 263.435 115.323C283.395 112.716 304.092 107.08 318.448 107.906H318.44Z" fill="#F2C5A7"/>
<path d="M252.197 227.001C243.897 227.001 238.755 226.669 238.593 226.66C238.569 226.66 238.545 226.66 238.529 226.66C215.775 224.223 200.771 217.033 193.937 205.284C186.771 192.968 191.143 179.963 192.204 177.226C191.281 172.125 184.73 133.201 194.058 108.019C203.921 83.8157 224.569 66.3822 252.221 58.8922C267.274 54.8112 283.485 53.8881 299.105 56.2363C314.53 58.5521 327.947 63.7992 337.883 71.4269C356.442 85.6619 365.203 107.209 369.292 122.78C373.26 137.93 373.697 150.198 373.746 152.878C380.41 162.999 382.321 172.603 379.438 181.413C375.195 194.385 360.49 205.51 335.745 214.474C305.817 225.316 270.95 227.001 252.197 227.001ZM238.852 223.235C240.391 223.332 292.513 226.482 334.571 211.243C358.272 202.652 372.272 192.255 376.175 180.344C378.758 172.457 376.879 163.712 370.612 154.351C370.426 154.068 370.32 153.736 370.32 153.396C370.32 152.87 369.891 100.278 335.802 74.1395C316.311 59.1918 282.311 54.2848 253.12 62.1959C226.528 69.4025 206.69 86.1235 197.257 109.258C187.823 134.724 195.589 176.66 195.669 177.081C195.734 177.421 195.694 177.769 195.556 178.085C195.499 178.214 189.888 191.542 196.916 203.583C203.176 214.304 217.289 220.919 238.852 223.235Z" fill="#0F0F14"/>
<path d="M227.694 190.15C214.196 190.15 204.528 186.644 200.075 172.879C193.394 152.222 197.362 126.449 200.423 123.566C202.568 121.55 215.241 119.768 248.229 115.55C253.12 114.926 258.157 114.278 263.193 113.622C270.197 112.707 277.331 111.412 284.222 110.157C296.983 107.833 309.032 105.647 318.522 106.189C327.842 106.724 335.866 113.485 338.02 122.61C341.34 136.643 345.446 161.737 335.672 172.158C325.299 183.211 299.615 184.838 274.772 186.409C267.647 186.863 260.91 187.284 254.675 187.931C252.739 188.134 250.853 188.336 249.007 188.531C241.152 189.373 233.994 190.142 227.67 190.142L227.694 190.15ZM202.755 126.092C201.03 128.384 196.949 152.085 203.338 171.826C209.022 189.389 223.945 187.786 248.667 185.13C250.513 184.935 252.407 184.725 254.343 184.531C260.642 183.883 267.412 183.454 274.578 183C297.623 181.543 323.745 179.883 333.186 169.826C342.182 160.239 337.243 134.173 334.7 123.42C332.887 115.752 326.158 110.084 318.336 109.63C309.251 109.104 297.396 111.266 284.845 113.55C277.914 114.813 270.74 116.116 263.647 117.04C258.602 117.695 253.565 118.343 248.675 118.967C228.358 121.566 205.346 124.505 202.763 126.109L202.755 126.092Z" fill="#0F0F14"/>
<path d="M188.618 129.334C188.618 129.334 287.162 129.933 362.273 107.212C362.273 107.212 367.779 105.682 364.743 96.5641C361.706 87.4546 349.949 90.7826 349.949 90.7826C349.949 90.7826 285.68 105.042 262.174 107.868C238.667 110.694 195.59 111.852 192.521 112.37C189.452 112.888 183.419 119.909 188.61 129.326L188.618 129.334Z" fill="#742DD2"/>
<path d="M189.065 131.043C188.789 131.043 188.627 131.043 188.595 131.043C187.971 131.043 187.405 130.703 187.105 130.153C183.542 123.691 185 118.614 186.19 116.16C187.599 113.245 190.028 111.043 192.231 110.67C193.259 110.5 197.259 110.306 205.494 109.934C220.628 109.245 245.964 108.079 261.965 106.16C284.856 103.407 347.489 89.5607 349.529 89.1073C354.161 87.8117 363.57 87.6012 366.371 96.0143C367.691 99.9901 367.707 103.237 366.412 105.682C365.108 108.136 362.971 108.792 362.736 108.857C290.921 130.582 196.579 131.043 189.081 131.043H189.065ZM354.711 91.8765C352.444 91.8765 350.582 92.3786 350.412 92.4272C350.379 92.4353 350.347 92.4434 350.323 92.4515C349.683 92.5972 285.706 106.768 262.378 109.569C246.248 111.504 220.838 112.67 205.656 113.367C199.227 113.658 193.68 113.917 192.805 114.063C192.02 114.193 190.36 115.432 189.283 117.658C188.441 119.407 187.429 122.946 189.656 127.61C200.401 127.586 291.876 126.703 361.772 105.561C361.821 105.545 362.801 105.213 363.416 103.998C364.201 102.444 364.096 100.055 363.116 97.0993C361.691 92.8077 357.813 91.8765 354.719 91.8765H354.711Z" fill="#0F0F14"/>
<path d="M278.412 157.84C285.011 153.662 292.606 148.966 299.246 144.852L302.825 142.723C304.072 142.099 305.019 141.006 306.866 141.322C307.586 141.443 308.072 142.131 307.951 142.852C307.53 144.706 306.04 145.176 304.922 146.034C303.772 146.82 302.615 147.581 301.449 148.342C297.424 150.99 291.424 154.577 287.23 157.095C284.719 158.545 282.234 160.18 279.464 161.12C277.667 161.711 276.436 159.282 277.942 158.172L278.412 157.824V157.84Z" fill="#0F0F14"/>
<path d="M305.787 166.449C306.629 164.368 306.872 162.036 306.338 159.688L303.139 145.655C303.01 145.089 302.84 144.538 302.629 144.012C302.111 142.7 280.961 157.194 280.961 157.194L282.669 164.7C283.074 166.474 283.876 168.061 284.969 169.405C286.443 171.219 305.115 168.093 305.787 166.449Z" fill="#0F0F14"/>
<path d="M289.242 165.082C291.061 164.672 292.14 162.585 291.651 160.421C291.163 158.257 289.292 156.836 287.473 157.247C285.654 157.657 284.576 159.744 285.064 161.908C285.552 164.072 287.423 165.493 289.242 165.082Z" fill="white"/>
<g opacity="0.4">
<path d="M299.274 164.268C300.383 164.268 301.282 163.111 301.282 161.685C301.282 160.258 300.383 159.102 299.274 159.102C298.165 159.102 297.266 160.258 297.266 161.685C297.266 163.111 298.165 164.268 299.274 164.268Z" fill="white"/>
</g>
<path d="M239.875 164.085C239.43 164.126 238.919 164.134 238.466 164.101C233.462 163.591 228.603 162.109 223.713 161.008C219.858 160.053 216.028 159.024 212.231 157.866C210.992 157.389 209.607 157.453 208.652 155.891C208.247 155.235 208.482 154.352 209.17 153.996C210.765 153.129 211.931 153.874 213.243 154.077L217.089 154.992C223.421 156.555 229.834 158.344 236.191 159.818C237.227 160.061 238.239 160.32 239.268 160.563C239.519 160.636 240.158 160.943 240.393 161.032C241.907 161.68 241.502 163.98 239.875 164.077V164.085Z" fill="#0F0F14"/>
<path d="M215.837 175.837C215.221 174.719 214.776 173.488 214.557 172.177L212.193 157.982C212.096 157.407 212.047 156.84 212.039 156.274C212.023 154.873 237.214 160.97 237.214 160.97L238.477 168.565C238.817 170.614 238.582 172.622 237.894 174.436C237.521 175.416 216.412 176.873 215.837 175.837Z" fill="#0F0F14"/>
<path d="M220.134 171.13C221.984 170.898 223.233 168.71 222.924 166.243C222.615 163.776 220.865 161.964 219.014 162.196C217.164 162.427 215.915 164.615 216.224 167.082C216.533 169.55 218.283 171.362 220.134 171.13Z" fill="white"/>
<g opacity="0.4">
<path d="M230.819 172.246C231.89 171.956 232.426 170.494 232.017 168.978C231.608 167.463 230.408 166.469 229.337 166.758C228.266 167.047 227.73 168.51 228.139 170.025C228.548 171.541 229.748 172.535 230.819 172.246Z" fill="white"/>
</g>
<path d="M310.145 165.734C303.051 168.358 295.537 169.321 288.031 169.669C285.521 169.75 282.994 169.75 280.452 169.362C279.828 169.273 279.796 168.333 280.428 168.22C282.873 167.742 285.302 167.289 287.739 166.86C295.092 165.629 302.46 164.374 309.95 164.609C310.566 164.625 310.72 165.524 310.137 165.734H310.145Z" fill="#0F0F14"/>
<path d="M241.887 174.376C235.166 176.385 228.154 176.765 221.19 176.692C218.866 176.636 216.534 176.514 214.202 176.117C213.579 176.02 213.563 175.089 214.186 174.976C216.47 174.506 218.753 174.166 221.037 173.874C225.611 173.291 230.203 172.886 234.818 172.838C237.126 172.838 239.45 172.903 241.79 173.235C242.389 173.299 242.47 174.206 241.887 174.376Z" fill="#0F0F14"/>
<path d="M286.999 323.559C277.388 323.559 266.723 322.264 255.209 319.648C229.622 313.834 213.386 302.506 206.965 285.979C201.581 272.141 204.123 257.906 205.807 248.489C209.2 229.476 222.868 221.355 223.443 221.015C223.816 220.804 224.245 220.731 224.666 220.82C263.897 229.306 319.631 215.832 320.19 215.695C320.959 215.509 321.769 215.873 322.133 216.585C322.239 216.796 332.862 238.108 338.773 273.534C341.308 288.733 337.64 301.478 328.182 310.401C318.951 319.106 304.789 323.543 287.015 323.543L286.999 323.559ZM224.634 224.326C222.18 225.986 211.921 233.744 209.176 249.096C207.564 258.133 205.119 271.793 210.156 284.741C216.139 300.134 231.557 310.757 255.962 316.304C287.639 323.502 312.449 320.531 325.81 307.923C334.401 299.818 337.704 288.125 335.372 274.117C330.352 243.987 321.898 224.286 319.631 219.355C310.797 221.363 261.096 231.946 224.625 224.326H224.634Z" fill="#0F0F14"/>
<path d="M311.687 304.574C299.064 304.574 281.97 303.392 263.306 298.776C225.014 289.311 205.03 267.124 204.195 266.185C203.88 265.828 203.726 265.351 203.774 264.881C203.831 264.347 205.078 251.788 205.815 248.435C205.953 247.812 206.422 247.318 207.038 247.148C207.653 246.978 208.309 247.164 208.746 247.634C208.989 247.893 233.654 273.893 270.626 280.946C307.857 288.047 337.178 283.634 337.469 283.586C337.979 283.505 338.498 283.659 338.878 284.007C339.259 284.355 339.469 284.849 339.445 285.367C339.421 285.821 338.87 296.509 334.408 302.606C334.141 302.971 333.744 303.214 333.299 303.287C333.137 303.311 324.837 304.598 311.687 304.598V304.574ZM207.264 264.444C210.576 267.893 230.172 287.059 264.124 295.448C298.416 303.926 327.202 300.631 332.044 299.983C334.53 296.153 335.493 290.323 335.842 287.246C328.319 288.128 302.011 290.412 269.986 284.306C238.609 278.322 215.856 259.091 208.657 252.338C208.107 256.354 207.483 262.33 207.272 264.444H207.264Z" fill="#0F0F14"/>
<path d="M332.232 286.606C331.803 286.606 331.382 286.411 331.099 286.055C324.151 277.075 284.215 225.05 283.81 224.523C283.332 223.9 283.446 223.001 284.077 222.515C284.701 222.038 285.6 222.151 286.086 222.783C286.49 223.309 326.418 275.334 333.366 284.306C333.852 284.929 333.738 285.828 333.115 286.314C332.856 286.516 332.548 286.614 332.24 286.614L332.232 286.606Z" fill="#0F0F14"/>
<path d="M337.726 282.068C337.224 282.068 336.746 281.809 336.479 281.347C331.094 271.857 296.445 223.419 296.097 222.925C295.636 222.285 295.781 221.386 296.429 220.933C297.069 220.471 297.968 220.625 298.421 221.265C299.854 223.265 333.507 270.318 338.964 279.938C339.353 280.626 339.11 281.501 338.43 281.889C338.211 282.019 337.969 282.076 337.726 282.076V282.068Z" fill="#0F0F14"/>
<path d="M178.27 257.256C178.27 257.256 162.35 259.887 157.848 262.195C153.346 264.503 154.334 270.981 154.334 270.981C154.334 270.981 163.994 291.953 180.577 306.342C197.161 320.731 207.04 316.447 210.886 311.394C213.169 308.39 218.554 298.423 222.546 290.819C212.789 260.794 178.27 257.256 178.27 257.256Z" fill="#F2C5A7"/>
<path d="M213.845 247.92C191.003 239.247 178.266 257.256 178.266 257.256C178.266 257.256 212.784 260.794 222.542 290.819C225.271 285.621 225.635 285.629 225.635 285.629L235.514 288.341C235.514 288.341 236.688 256.608 213.845 247.928V247.92Z" fill="#3E4049"/>
<g opacity="0.4">
<path d="M154.242 266.438C154.242 266.438 157.19 264.9 162.971 263.953C168.753 262.997 185.595 259.264 185.595 259.264L180.251 257.58C180.251 257.58 178.737 257.645 176.599 257.539C174.461 257.434 159.967 260.876 157.845 262.195C155.724 263.515 154.242 266.438 154.242 266.438Z" fill="white"/>
</g>
<g opacity="0.25">
<path d="M154.839 265.733C154.839 265.733 156.855 269.708 160.345 268.186L160.815 267.133C160.815 267.133 163.584 272.065 168.475 269.619L168.896 268.534C168.896 268.534 170.928 273.765 177.633 272.008L178.394 270.834C178.394 270.834 181.689 277.352 187.479 275.223L188.07 274.21C188.07 274.21 189.39 275.879 199.05 283.709C208.71 291.539 216.84 280.85 216.84 280.85L217.301 279.935C217.301 279.935 207.836 264.129 184.329 258.089C184.329 258.089 187.034 255.012 189.997 253.4C189.997 253.4 206.508 263.87 218.589 267.093C230.67 270.316 231.253 265.263 231.253 265.263C231.253 265.263 234.371 275.644 235.116 281.806C235.86 287.96 235.318 288.51 235.318 288.51C235.318 288.51 235.982 288.559 235.399 288.3C234.816 288.041 225.617 285.62 225.617 285.62L224.37 287.377L213.245 307.709C213.245 307.709 208.241 318.26 196.896 315.701C185.552 313.142 174.459 300.794 169.025 294.535C163.592 288.276 155.519 273.449 154.968 272.405C154.418 271.36 153.762 270.291 153.705 269.619C153.648 268.947 154.823 265.733 154.823 265.733H154.839Z" fill="#0F0F14"/>
</g>
<path d="M234.662 289.102C233.48 278.511 231.715 267.248 225.164 258.551C218.88 250 207.504 246.089 197.188 247.725C190.37 248.891 183.989 252.859 179.738 258.292C179.455 258.697 179.017 258.948 178.564 259.029C176.046 259.458 173.495 259.936 170.977 260.446C168.458 260.964 165.948 261.515 163.503 262.171C161.398 262.851 158.96 263.159 157.43 264.778C156.159 266.26 155.883 268.762 156.102 270.713L155.956 270.236C157.924 274.341 160.264 278.422 162.742 282.333C170.305 294.098 183.471 310.601 197.471 314.066C201.544 315.022 206.006 314.236 208.888 311.135C210.346 309.483 211.431 307.475 212.589 305.58C216.743 298.625 222.119 288.098 226.038 280.859C226.419 280.13 227.318 279.847 228.047 280.236C228.759 280.616 229.034 281.491 228.678 282.203C224.476 290.657 220.168 299.013 215.48 307.265C214.216 309.37 213.042 311.589 211.382 313.451C205.706 319.686 196.443 318.487 189.73 314.844C176.961 307.807 167.608 296.228 159.754 284.244C157.171 280.05 154.515 275.863 152.563 271.256C152.078 267.434 153.025 262.924 156.636 260.81C158.564 259.741 160.547 259.256 162.572 258.681C167.689 257.345 172.782 256.373 177.981 255.482L176.807 256.219C177.471 255.32 178.086 254.632 178.774 253.903C186.216 245.936 197.617 242.081 208.305 244.494C225.188 247.693 233.812 261.774 236.144 277.807C236.654 281.588 236.824 285.361 236.346 289.175C236.282 289.637 235.861 289.969 235.399 289.904C234.986 289.847 234.686 289.507 234.662 289.11V289.102Z" fill="#0F0F14"/>
<path d="M222.533 292.526C221.812 292.526 221.14 292.065 220.905 291.344C211.617 262.769 178.418 258.995 178.086 258.963C177.147 258.866 176.459 258.024 176.556 257.084C176.653 256.145 177.495 255.457 178.435 255.554C178.799 255.595 187.471 256.526 197.471 261.23C210.8 267.506 220.03 277.554 224.168 290.292C224.46 291.19 223.966 292.162 223.067 292.454C222.889 292.51 222.711 292.534 222.541 292.534L222.533 292.526Z" fill="#0F0F14"/>
<path d="M187.387 282.772C185.071 279.662 185.29 274.601 188.626 272.221C189.824 271.403 191.258 271.192 192.472 271.443C192.804 271.508 193.015 271.832 192.942 272.156C192.901 272.342 192.788 272.488 192.634 272.569C190.861 273.622 189.97 274.658 189.5 276.545C189.031 278.431 188.982 280.439 188.488 282.472C188.423 282.998 187.695 283.201 187.387 282.763V282.772Z" fill="#0F0F14"/>
<path d="M176.101 278.875C173.85 275.596 175.453 269.466 179.81 269.094C180.15 269.094 180.425 269.361 180.433 269.701C180.433 269.871 180.36 270.017 180.263 270.138C179.316 271.482 179.057 272.568 178.7 274.082C178.466 274.916 177.526 280.487 176.101 278.867V278.875Z" fill="#0F0F14"/>
<path d="M167.537 275.296C165.205 272.252 166.695 265.612 171.189 265.887C171.529 265.944 171.748 266.268 171.691 266.6C171.667 266.762 171.569 266.891 171.456 266.997C170.403 268.179 170.314 269.134 169.999 270.584C169.812 271.361 169.027 276.843 167.529 275.296H167.537Z" fill="#0F0F14"/>
<path d="M160.947 274.509C157.781 272.687 157.498 267.383 160.745 265.496C161.311 265.189 162.623 264.549 162.858 265.513C162.89 265.675 162.834 265.82 162.769 265.958C162.089 267.326 161.838 268.209 161.846 269.602C161.894 271.035 162.097 272.436 161.911 274.015C161.87 274.468 161.336 274.735 160.947 274.501V274.509Z" fill="#0F0F14"/>
<path d="M147.242 283.346C147.242 283.346 147.315 275.516 151.121 273.168C151.121 273.168 167.591 271.702 181.283 278.804C194.976 285.905 207.713 303.808 211.664 313.8L206.174 320.829C206.174 320.829 197.284 327.744 183.445 320.829C169.607 313.914 152.554 293.962 147.242 283.346Z" fill="#742DD2"/>
<path d="M195.509 325.641C191.905 325.641 187.581 324.815 182.674 322.37C168.148 315.107 151.079 294.863 145.71 284.118C145.589 283.875 145.524 283.608 145.532 283.333C145.54 282.434 145.742 274.474 150.228 271.713C150.455 271.576 150.714 271.486 150.973 271.462C151.67 271.397 168.107 270.037 182.075 277.284C196.027 284.523 209.153 302.774 213.258 313.171C213.485 313.738 213.387 314.378 213.015 314.856L207.525 321.884C207.436 321.997 207.339 322.095 207.225 322.184C206.958 322.386 202.658 325.641 195.509 325.641ZM148.973 282.96C154.237 293.155 170.698 312.54 184.213 319.293C196.027 325.196 203.76 320.427 204.974 319.584L209.703 313.536C205.42 303.519 193.314 286.985 180.496 280.337C168.642 274.191 154.382 274.693 151.718 274.855C149.694 276.482 149.07 280.968 148.973 282.968V282.96Z" fill="#0F0F14"/>
<path d="M206.907 321.605C206.243 321.605 205.603 321.216 205.328 320.56C201.822 312.358 190.907 296.317 176.55 288.187C161.951 279.92 147.926 284.203 147.788 284.244C146.89 284.527 145.926 284.025 145.635 283.127C145.351 282.228 145.845 281.264 146.744 280.973C147.367 280.77 162.291 276.171 178.242 285.199C195.239 294.819 205.83 313.006 208.478 319.208C208.85 320.083 208.445 321.087 207.571 321.459C207.352 321.556 207.126 321.597 206.899 321.597L206.907 321.605Z" fill="#0F0F14"/>
<path d="M210.115 310.369C210.115 310.369 216.058 296.596 208.706 286.312C201.345 276.028 188.867 274.028 188.867 274.028C188.867 274.028 182.535 263.874 173.312 258.53C173.312 258.53 174.592 255.129 178.292 256.627C181.993 258.117 191.766 269.85 191.766 269.85C191.766 269.85 205.596 274.368 211.386 281.373C218.415 289.867 216.585 301.584 216.585 301.584C216.585 301.584 213.775 309.503 210.131 310.377L210.115 310.369Z" fill="#742DD2"/>
<path d="M210.112 311.797C209.699 311.797 209.294 311.611 209.019 311.287C208.671 310.874 208.59 310.299 208.8 309.805C208.857 309.675 214.331 296.631 207.537 287.141C200.63 277.489 188.751 275.456 188.63 275.44C188.225 275.375 187.861 275.132 187.642 274.784C187.577 274.687 181.375 264.865 172.581 259.764C171.974 259.415 171.715 258.679 171.958 258.023C172.031 257.82 172.759 256.023 174.63 255.197C175.885 254.646 177.286 254.678 178.808 255.294C182.492 256.784 190.768 266.46 192.582 268.614C194.954 269.432 206.97 273.804 212.469 280.452C219.821 289.343 218.056 301.287 217.975 301.789C217.959 301.878 217.942 301.967 217.91 302.048C217.594 302.93 214.711 310.728 210.436 311.756C210.323 311.781 210.217 311.797 210.104 311.797H210.112ZM189.723 272.744C192.46 273.31 203.116 276.063 209.861 285.481C214.76 292.331 214.185 300.469 213.035 305.675C213.91 304.25 214.671 302.606 215.173 301.238C215.327 299.999 216.42 289.716 210.266 282.282C204.8 275.683 191.44 271.254 191.302 271.213C191.051 271.132 190.824 270.978 190.646 270.768C186.954 266.339 180.185 258.946 177.739 257.958C176.962 257.642 176.298 257.602 175.78 257.828C175.61 257.901 175.464 257.998 175.334 258.104C182.946 262.994 188.33 270.646 189.723 272.744Z" fill="#0F0F14"/>
<path d="M334.457 231.631C334.457 231.631 321.728 238.725 319.113 247.559C319.113 247.559 315.421 249.105 313.21 252.676C311.008 256.247 311.461 257.689 312.133 259.033C312.805 260.377 313.388 260.749 313.056 261.956C312.724 263.162 312.538 263.745 312.538 263.745C312.538 263.745 310.724 264.782 311.947 267.94C313.17 271.106 314.927 273.899 317.194 273.948C319.461 273.997 322.805 272.094 322.805 272.094L323.486 271.948C323.486 271.948 336.563 276.831 347.616 271.697C358.668 266.563 358.434 257.867 355.802 251.964C353.17 246.061 342.247 237.049 342.247 237.049L334.457 231.615V231.631Z" fill="#3E4049"/>
<path d="M311.649 257.692C311.649 257.692 310.888 255.385 313.228 252.389C315.568 249.392 317.43 248.226 319.43 248.194C321.43 248.162 322.588 249.239 322.588 249.239L323.463 249.83L324.289 249.692C324.289 249.692 326.264 249.06 328.459 250.324C330.653 251.587 334.443 254.421 334.321 257.903C334.2 261.377 328.386 267.118 325.422 269.806C322.459 272.494 319.446 274.34 316.556 273.863C313.665 273.385 311.203 267.198 311.446 265.773C311.689 264.348 312.645 263.393 312.645 263.393L313.171 262.737L313.195 260.664L311.973 258.729L311.649 257.692Z" fill="#F2C5A7"/>
<g opacity="0.4">
<path d="M311.696 256.329C311.696 256.329 316.919 251.495 318.514 250.985C320.109 250.475 321.68 250.985 321.68 250.985L322.878 250.183L322.117 248.953C322.117 248.953 320.085 247.382 317.753 248.685C315.421 249.989 312.935 252.815 312.093 253.843C311.25 254.872 311.696 256.329 311.696 256.329Z" fill="white"/>
</g>
<g opacity="0.4">
<path d="M314.175 262.405C314.175 262.405 315.528 260.608 316.443 259.992C317.358 259.369 318.37 259.093 318.37 259.093L317.981 258.518C317.981 258.518 318.969 256.494 320.216 255.425C321.463 254.356 322.556 253.846 322.556 253.846C322.556 253.846 324.823 252.049 325.852 251.976C326.88 251.903 331.82 254.413 331.82 254.413C331.82 254.413 330.451 250.348 327.698 249.96C324.945 249.571 322.653 250.68 322.653 250.68L320.232 252.688C320.232 252.688 318.969 253.304 317.981 254.413C316.993 255.53 316.556 257.069 316.556 257.069C316.556 257.069 314.912 257.838 314.175 259.158C313.447 260.478 314.175 262.413 314.175 262.413V262.405Z" fill="white"/>
</g>
<g opacity="0.25">
<path d="M312.062 265.144C312.062 265.144 314.516 268.691 317.496 269.282C320.484 269.865 325.828 264.877 329.375 261.063C332.921 257.241 332.411 254.934 332.411 254.934C332.411 254.934 334.306 256.966 334.257 258.496C334.209 260.027 330.848 264.173 330.848 264.173C330.848 264.173 336.435 268.723 346.217 266.059C355.999 263.395 356.614 255.306 356.614 255.306C356.614 255.306 359.48 263.938 350.541 269.938C341.61 275.938 330.945 274.173 326.581 272.877C324.298 272.1 323.674 272.011 323.674 272.011L322.354 272.31C322.354 272.31 319.107 274.416 316.354 273.8C313.601 273.185 311.884 267.808 311.739 267.112C311.593 266.416 312.071 265.136 312.071 265.136L312.062 265.144Z" fill="#0F0F14"/>
</g>
<path d="M336.195 275.61C332.162 275.61 327.838 274.889 323.385 273.432C322.097 274.29 319.19 275.918 316.526 275.286C312.899 274.428 310.008 268.177 310.008 265.99C310.008 264.298 311.052 263.124 311.757 262.517L311.886 261.189C311.028 260.225 309.603 258.087 310.348 255.164C311.303 251.44 316.534 246.387 319.951 246.775C321.83 246.994 323.174 247.82 323.959 248.476C325.231 248.039 327.045 247.893 328.696 249.043C329.603 249.545 336.64 253.61 335.506 259.011C334.705 262.824 329.077 268.412 325.992 271.246C336.47 274.225 345.919 272.768 351.604 267.181C355.296 263.561 356.656 258.8 355.248 254.452C351.725 243.553 333.15 232.508 332.964 232.403C332.284 232.006 332.057 231.123 332.454 230.443C332.85 229.763 333.733 229.536 334.413 229.941C335.215 230.411 354.106 241.658 357.96 253.577C359.709 258.978 358.073 264.824 353.596 269.221C349.296 273.44 343.191 275.61 336.186 275.61H336.195ZM313.862 264.501C313.862 264.501 312.866 265.156 312.866 265.99C312.866 267.262 315.263 272.055 317.182 272.509C318.882 272.914 321.449 271.343 322.251 270.735C324.947 268.444 331.992 261.837 332.705 258.428C333.32 255.48 328.866 252.379 327.263 251.529C327.207 251.496 327.15 251.464 327.101 251.423C325.887 250.549 324.453 251.375 324.397 251.407C323.781 251.763 322.98 251.626 322.534 251.059C322.502 251.018 321.514 249.836 319.619 249.618C317.992 249.431 313.797 253.205 313.117 255.869C312.558 258.063 314.218 259.496 314.283 259.553C314.639 259.853 314.834 260.322 314.793 260.792L314.542 263.407C314.502 263.853 314.251 264.258 313.862 264.492V264.501Z" fill="#0F0F14"/>
<path d="M313.369 262.099C313.32 262.099 313.28 262.099 313.231 262.099C312.446 262.026 311.871 261.329 311.944 260.544C312.162 258.212 314.138 256.844 315.782 256.196C316.162 253.386 318.705 251.847 319.831 251.297C320.754 249.88 322.705 249.038 323.126 248.86C323.863 248.568 324.689 248.924 324.988 249.653C325.28 250.382 324.924 251.216 324.195 251.507C323.304 251.872 322.333 252.552 322.195 252.908C322.049 253.289 321.75 253.588 321.369 253.734C321.345 253.742 318.422 254.908 318.608 257.135C318.664 257.848 318.195 258.487 317.498 258.649C317.482 258.649 314.94 259.289 314.794 260.811C314.721 261.548 314.098 262.107 313.369 262.107V262.099Z" fill="#0F0F14"/>
<path d="M321.931 251.44C323.315 252.841 324.449 254.46 325.518 256.112C325.882 256.663 326.174 257.278 326.166 258.153C326.166 258.25 326.085 258.323 325.988 258.315C325.113 258.217 324.538 257.861 324.028 257.44C322.506 256.193 321.024 254.881 319.793 253.351C318.708 251.942 320.66 250.217 321.923 251.448L321.931 251.44Z" fill="#0F0F14"/>
<path d="M318.411 256.517C319.375 257.894 320.152 259.465 321.059 260.89C321.383 261.36 321.585 261.854 321.747 262.647C321.763 262.736 321.707 262.817 321.626 262.833C320.039 263.068 319.172 261.854 318.184 260.963C317.302 260.048 316.549 259.092 315.95 257.967C315.148 256.372 317.415 255.044 318.411 256.517Z" fill="#0F0F14"/>
<path d="M314.653 260.766C315.163 261.592 315.9 262.961 316.402 263.835C317.026 265.042 317.827 265.706 318.07 267.212C318.087 267.301 318.022 267.398 317.925 267.406C317.066 267.479 316.41 267.147 315.876 266.726C314.823 265.892 313.884 264.912 313.115 263.811C312.394 262.782 311.147 261.009 312.807 260.175C313.487 259.867 314.289 260.143 314.645 260.774L314.653 260.766Z" fill="#0F0F14"/>
<path d="M260.336 292.808C260.336 292.808 258.546 298.646 264.733 306.476C270.911 314.314 276.903 317.31 276.903 317.31C276.903 317.31 271.518 324.784 267.51 326.444C267.51 326.444 256.765 318.824 251.259 305.237C245.753 291.642 258.182 283.447 258.182 283.447" fill="#742DD2"/>
<path d="M292.569 293.592C292.569 293.592 305.257 311.721 292.933 326.855L282.172 324.264C282.172 324.264 287.468 316.847 285.759 309.527C284.05 302.207 280.973 292.515 284.739 288.547" fill="#742DD2"/>
<path d="M267.51 328.17C267.162 328.17 266.814 328.065 266.522 327.854C266.069 327.53 255.307 319.789 249.672 305.886C243.704 291.157 257.097 282.113 257.235 282.024C258.028 281.505 259.089 281.716 259.607 282.509C260.125 283.303 259.907 284.364 259.121 284.882C258.668 285.182 247.947 292.501 252.846 304.599C257.243 315.449 265.146 322.397 267.688 324.429C269.923 323.069 272.668 319.951 274.369 317.806C272.053 316.308 267.761 313.093 263.38 307.538C256.716 299.093 258.611 292.574 258.692 292.299C258.967 291.392 259.923 290.882 260.838 291.157C261.737 291.433 262.247 292.38 261.98 293.287C261.915 293.53 260.627 298.502 266.077 305.409C271.915 312.81 277.616 315.741 277.672 315.773C278.118 316 278.45 316.413 278.563 316.899C278.684 317.385 278.579 317.903 278.288 318.308C277.705 319.109 272.498 326.227 268.158 328.024C267.947 328.113 267.721 328.154 267.502 328.154L267.51 328.17Z" fill="#0F0F14"/>
<path d="M292.92 328.569C292.791 328.569 292.653 328.553 292.515 328.521L281.754 325.93C281.203 325.8 280.75 325.395 280.547 324.861C280.345 324.326 280.426 323.727 280.758 323.266C280.807 323.201 285.576 316.375 284.07 309.913C283.859 308.998 283.616 308.035 283.382 307.063C281.584 299.775 279.543 291.508 283.479 287.362C284.135 286.674 285.22 286.65 285.9 287.297C286.588 287.953 286.612 289.038 285.965 289.718C283.325 292.504 285.203 300.123 286.71 306.237C286.952 307.233 287.195 308.196 287.414 309.136C288.718 314.731 286.418 320.229 284.839 323.144L292.248 324.926C302.483 311.176 291.625 295.249 291.155 294.569C290.612 293.791 290.807 292.723 291.576 292.18C292.353 291.637 293.422 291.824 293.965 292.601C294.102 292.795 307.244 311.978 294.256 327.93C293.924 328.335 293.438 328.561 292.928 328.561L292.92 328.569Z" fill="#0F0F14"/>
<path d="M275.073 285.013C275.073 285.013 278.846 278.09 288.085 281.434C297.324 284.778 292.693 299.297 286.862 302.859C281.032 306.422 275.737 301.418 275.737 301.418C275.737 301.418 267.542 303.823 261.081 297.92C254.627 292.017 255.599 279.766 262.174 279.142C268.757 278.519 272.708 282.438 275.073 285.021V285.013Z" fill="#742DD2"/>
<path d="M282.473 305.831C279.501 305.831 276.878 304.511 275.275 303.272C272.764 303.766 265.752 304.511 259.914 299.175C255.112 294.786 254.141 287.588 255.663 283.037C256.764 279.75 259.072 277.701 262.003 277.426C268.27 276.835 272.481 280.001 274.902 282.365C277.275 279.831 281.923 277.377 288.659 279.814C292.311 281.134 294.546 284.122 294.959 288.227C295.55 294.09 292.182 301.604 287.744 304.317C285.955 305.41 284.157 305.831 282.473 305.831ZM275.72 299.693C276.149 299.693 276.578 299.855 276.902 300.163C277.08 300.325 281.348 304.204 285.963 301.386C288.959 299.556 292.052 293.556 291.55 288.568C291.267 285.774 289.906 283.912 287.493 283.037C279.825 280.26 276.7 285.604 276.57 285.839C276.303 286.317 275.817 286.64 275.267 286.705C274.724 286.77 274.173 286.576 273.801 286.171C270.983 283.102 267.647 280.341 262.327 280.843C260.359 281.029 259.388 282.729 258.918 284.13C257.72 287.701 258.635 293.361 262.23 296.649C267.866 301.799 274.951 299.847 275.25 299.766C275.404 299.718 275.566 299.701 275.728 299.701L275.72 299.693Z" fill="#0F0F14"/>
<path d="M275.719 303.127C275.111 303.127 274.52 302.803 274.212 302.228C273.759 301.394 274.067 300.358 274.901 299.904C275.921 299.354 276.553 298.544 276.844 297.443C277.808 293.767 274.836 287.88 273.605 285.929C273.103 285.127 273.346 284.066 274.148 283.564C274.949 283.062 276.01 283.305 276.512 284.107C276.723 284.447 281.694 292.471 280.156 298.317C279.621 300.358 278.399 301.905 276.536 302.925C276.277 303.062 275.994 303.135 275.719 303.135V303.127Z" fill="#0F0F14"/>
<path d="M367.216 330.122C365.167 325.579 350.082 309.773 350.082 309.773C350.082 309.773 332.146 305.927 298.251 307.725C296.348 312.267 294.008 330.13 294.008 330.13C313.336 335.547 366.341 338.478 366.341 338.478C366.341 338.478 369.272 334.672 367.216 330.13V330.122Z" fill="#F2C5A7"/>
<path d="M350.075 309.772C353.298 284.881 340.852 272.436 317.475 279.318C294.106 286.201 298.244 307.724 298.244 307.724C332.139 305.926 350.075 309.772 350.075 309.772Z" fill="#3E4049"/>
<g opacity="0.4">
<path d="M367.66 333.49L344 309.773L346.64 309.182L351.028 310.429L366.122 328.291C366.122 328.291 367.62 331.555 367.66 333.49Z" fill="white"/>
</g>
<g opacity="0.25">
<path d="M367.361 333.839C367.361 333.839 365.823 336.422 363.134 334.713C363.134 334.713 359.288 335.483 357.369 333.564L356.6 332.738C356.6 332.738 352.592 334.762 349.847 332.738L349.134 332.13C349.134 332.13 346.883 333.393 345.069 333.013C343.255 332.632 342.187 330.875 342.187 330.875C342.187 330.875 340.421 331.879 331.563 330.568C322.704 329.248 315.093 329.321 311.797 324.713C308.502 320.098 311.287 306.923 311.287 306.923C311.287 306.923 325.636 306.923 333.393 307.652C341.15 308.381 346.13 308.826 346.13 308.826C346.13 308.826 346.567 304.357 346.349 302.162C346.349 302.162 331.563 302.964 320.656 298.065C309.749 293.158 312.785 281.061 312.785 281.061C312.785 281.061 306.089 283.716 302.356 289.652C298.623 295.579 298.404 301.514 298.259 301.952C298.113 302.389 298.186 307.255 298.186 307.255L297.748 309.223C297.748 309.223 294.672 323.984 294.016 330.138C294.016 330.138 308.073 333.07 322.494 334.827C336.915 336.584 365.466 338.487 365.466 338.487L366.738 337.871C366.738 337.871 368.317 334.422 367.369 333.855L367.361 333.839Z" fill="#0F0F14"/>
</g>
<path d="M366.338 340.19C366.338 340.19 366.273 340.19 366.241 340.19C364.071 340.069 312.831 337.186 293.543 331.785C292.725 331.558 292.191 330.757 292.304 329.907C292.401 329.194 294.563 312.805 296.49 307.526C296.037 304.052 294.499 284.303 317.001 277.671C328.491 274.286 337.884 275.331 344.167 280.691C350.751 286.311 353.415 296.157 351.884 309.177C354.921 312.384 366.824 325.105 368.775 329.421C371.221 334.838 367.836 339.332 367.69 339.518C367.366 339.939 366.864 340.19 366.33 340.19H366.338ZM295.907 328.854C314.329 333.518 358.176 336.271 365.415 336.7C365.99 335.591 366.791 333.348 365.65 330.83C364.071 327.324 352.977 315.299 348.84 310.959C348.483 310.586 348.313 310.068 348.378 309.558C349.957 297.331 347.73 288.254 341.933 283.307C336.58 278.74 328.297 277.93 317.965 280.975C296.418 287.323 299.778 306.594 299.932 307.412C299.997 307.744 299.956 308.084 299.827 308.392C298.466 311.623 296.693 323.137 295.899 328.862L295.907 328.854Z" fill="#0F0F14"/>
<path d="M336.848 334.942C339.107 333.088 341.091 330.432 340.873 327.363C340.84 326.189 340.622 325.153 340.735 323.881C340.743 323.768 340.889 323.703 340.978 323.768C343.375 325.274 343.853 328.497 343.334 331.096C342.751 333.849 341.059 336.214 338.759 337.792C336.848 339.007 335.01 336.27 336.84 334.95L336.848 334.942Z" fill="#0F0F14"/>
<path d="M346.165 336.215C346.886 334.919 347.59 333.446 348.012 332.012C348.546 330.28 348.198 329.089 348.57 327.146C348.586 327.033 348.716 326.968 348.813 327.016C350.894 327.98 351.08 330.506 350.999 332.49C350.821 334.547 350.182 336.442 348.991 338.15C347.655 339.923 345.007 338.102 346.157 336.215H346.165Z" fill="#0F0F14"/>
<path d="M353.849 336.433C354.019 335.98 354.343 335.057 354.497 334.595C354.909 333.308 355.241 332.004 355.331 330.652C355.371 329.964 355.42 329.316 355.808 328.352C355.841 328.247 355.954 328.198 356.059 328.239C356.999 328.692 357.493 329.518 357.703 330.352C358.375 332.879 358.108 335.591 356.934 337.939C355.857 339.858 353.007 338.45 353.849 336.433Z" fill="#0F0F14"/>
<path d="M359.982 337.419C360.371 336.407 360.922 334.998 361.229 333.978C361.683 332.561 361.505 331.703 362.185 330.156C362.225 330.051 362.339 329.994 362.444 330.035C363.375 330.407 363.821 331.233 364.007 332.018C364.614 333.97 364.007 341.12 360.744 339.63C359.942 339.201 359.634 338.229 359.991 337.419H359.982Z" fill="#0F0F14"/>
<path d="M350.081 311.484C349.96 311.484 349.846 311.468 349.725 311.444C349.547 311.403 331.563 307.671 298.339 309.428C297.384 309.484 296.59 308.747 296.534 307.808C296.485 306.861 297.206 306.051 298.153 306.002C331.886 304.221 349.692 307.93 350.437 308.092C351.36 308.294 351.952 309.201 351.757 310.124C351.587 310.926 350.875 311.484 350.081 311.484Z" fill="#0F0F14"/>
<path d="M299.246 331.378C299.246 331.378 304.202 322.447 313.862 319.078C323.522 315.71 338.389 320.042 340.947 321.864C343.506 323.686 354.049 313.516 354.049 313.516C354.049 313.516 352.227 310.957 350.535 310.73C348.85 310.511 341.749 316.949 341.749 316.949C341.749 316.949 332.963 312.333 320.153 312.852C307.344 313.362 296.947 324.86 294.461 329.54L294.023 330.86L299.246 331.378Z" fill="#742DD2"/>
<path d="M290.302 335.202L289.936 338.673C289.691 341.003 291.381 343.091 293.712 343.337L367.524 351.108C369.854 351.353 371.942 349.663 372.188 347.332L372.553 343.862C372.799 341.531 371.108 339.443 368.778 339.198L294.966 331.427C292.635 331.181 290.547 332.872 290.302 335.202Z" fill="#742DD2"/>
<path d="M368.076 352.83C367.874 352.83 367.663 352.822 367.461 352.798L293.354 345C290.172 344.668 287.848 341.802 288.18 338.611L288.577 334.846C288.909 331.664 291.775 329.348 294.966 329.68L369.072 337.478C370.619 337.64 372.003 338.393 372.983 339.599C373.963 340.806 374.408 342.32 374.246 343.867L373.85 347.632C373.688 349.178 372.935 350.563 371.728 351.543C370.684 352.385 369.412 352.838 368.084 352.838L368.076 352.83ZM294.358 333.081C293.16 333.081 292.123 333.988 291.994 335.211L291.597 338.976C291.459 340.28 292.407 341.454 293.719 341.591L367.825 349.389C368.465 349.462 369.08 349.276 369.574 348.871C370.068 348.474 370.376 347.899 370.441 347.267L370.837 343.502C370.902 342.871 370.724 342.247 370.319 341.753C369.922 341.259 369.347 340.952 368.716 340.887L294.609 333.089C294.528 333.081 294.439 333.073 294.358 333.073V333.081Z" fill="#0F0F14"/>
<path d="M299.243 332.807C299.194 332.807 299.145 332.807 299.105 332.807L293.882 332.289C293.453 332.249 293.056 332.006 292.821 331.641C292.587 331.277 292.53 330.823 292.668 330.41L293.105 329.091C293.129 329.018 293.162 328.945 293.202 328.872C295.575 324.402 306.36 311.973 320.101 311.422C330.911 310.985 338.895 314.078 341.511 315.252C346.15 311.115 349.268 309.123 350.733 309.309C352.928 309.592 354.863 312.167 355.227 312.677C355.64 313.252 355.568 314.046 355.057 314.532C349.859 319.552 343.041 325.091 340.134 323.018C337.948 321.463 323.454 317.244 314.344 320.418C305.332 323.56 300.554 331.981 300.506 332.062C300.255 332.516 299.769 332.799 299.259 332.799L299.243 332.807ZM296.06 329.625L298.49 329.868C300.004 327.495 304.967 320.661 313.389 317.73C323.194 314.313 338.458 318.426 341.713 320.661C342.976 320.831 347.64 317.544 352.094 313.398C351.535 312.815 350.895 312.281 350.442 312.167C349.349 312.451 345.608 315.382 342.709 318.013C342.264 318.418 341.616 318.499 341.081 318.224C341 318.183 332.45 313.795 320.207 314.289C308.271 314.766 298.765 325.155 296.052 329.633L296.06 329.625Z" fill="#0F0F14"/>
<path d="M366.525 207.332C390.939 174.563 450.511 87.5084 436.041 41.0136C421.401 -6.0399 346.29 -11.9024 310.047 29.0944C310.047 29.0944 309.059 31.475 310.597 31.6936C312.136 31.9122 335.845 11.1588 363.853 7.42594C391.87 3.69307 438.964 23.0214 428.64 70.4554C418.761 115.865 388.696 158.919 356.987 202.644C357.165 202.79 357.626 203.154 358.29 203.624C360.145 204.944 363.537 207.057 366.509 207.324L366.525 207.332Z" fill="#E5AD88"/>
<path d="M356.984 202.652C357.163 202.798 357.624 203.162 358.288 203.632C357.624 203.154 357.163 202.79 356.984 202.652Z" fill="#E5AD88"/>
<path d="M356.991 202.652C355.574 204.612 354.149 206.571 352.724 208.531C319.484 254.289 300.383 273.941 300.383 273.941C300.383 273.941 302.18 279.099 308.585 280.638C308.585 280.638 341.817 240.321 365.647 208.499C365.931 208.118 366.473 207.891 366.765 207.503C363.76 207.235 360.214 204.992 358.303 203.632C357.639 203.162 357.177 202.79 356.999 202.652H356.991Z" fill="#C1C9D3"/>
<g opacity="0.4">
<path d="M317.164 26.6131C317.164 26.6131 342.638 3.77053 382.023 5.23615C408.38 7.35764 434.883 29.69 436.931 49.1641L438.292 49.8928C438.292 49.8928 435.911 23.0907 407.724 9.18764C379.538 -4.71545 351.132 4.20779 340.444 8.02162C329.755 11.8274 317.715 21.6251 314.516 24.4916C311.31 27.358 310.727 29.0342 310.727 29.0342C310.727 29.0342 311.164 29.8358 311.382 29.9087C311.601 29.9815 317.164 26.6131 317.164 26.6131Z" fill="white"/>
</g>
<g opacity="0.25">
<path d="M305.776 268.052C305.776 268.052 309.824 268.854 311.581 268.052C313.339 267.25 361.777 205.808 361.777 205.808L357.866 203.638C357.866 203.638 356.894 202.788 357.639 201.759C358.384 200.731 361.323 196.423 361.323 196.423C361.323 196.423 365.769 197.249 368.076 195.816C370.384 194.391 401.842 150.803 420.296 111.839C438.742 72.8823 437.6 47.8535 437.6 47.8535C437.6 47.8535 439.875 74.8985 429.057 99.7249C418.239 124.559 405.203 150.859 391.704 170.989C378.206 191.119 358.934 217.379 358.934 217.379L308.585 280.651C308.585 280.651 305.986 280.376 303.565 278.344C301.144 276.311 300.383 273.955 300.383 273.955L305.776 268.06V268.052Z" fill="#0F0F14"/>
</g>
<path d="M390.236 154.775C390.236 154.775 385.224 152.815 385.167 151.997C385.111 151.179 385.823 149.689 385.823 149.689L391.475 152.232" fill="#C1C9D3"/>
<path d="M429.474 65.9973C428.77 66.0702 421.628 64.1997 421.304 63.5438C420.972 62.8879 421.304 60.7988 421.304 60.7988L429.474 61.7867" fill="#C1C9D3"/>
<path d="M375.583 7.15413L375.057 12.9194C375.057 12.9194 373.356 13.3 372.587 12.9194C371.818 12.5388 372.037 6.99219 372.037 6.99219" fill="#C1C9D3"/>
<path d="M312.595 30.5938C312.595 30.5938 314.442 33.946 314.498 34.3266C314.555 34.7072 313.672 36.1404 312.854 35.7517C312.029 35.3712 310.328 32.0756 310.328 32.0756" fill="#C1C9D3"/>
<path d="M308.588 282.356C308.459 282.356 308.321 282.339 308.192 282.307C300.961 280.574 298.856 274.752 298.766 274.509C298.556 273.894 298.702 273.214 299.155 272.752C299.349 272.558 318.581 252.622 351.342 207.528C383.44 163.349 416.623 117.656 426.971 70.1006C430.599 53.4202 427.101 38.7154 416.858 27.5978C403.125 12.6907 379.918 7.02254 364.088 9.13594C342.727 11.9862 323.787 24.9986 315.706 30.5614C312.111 33.0311 311.358 33.5412 310.362 33.4036C309.503 33.2821 308.815 32.8206 308.41 32.108C307.625 30.7315 308.265 28.9582 308.475 28.448C308.548 28.2699 308.645 28.108 308.775 27.9703C318.767 16.6664 332.176 8.29382 347.545 3.75123C361.845 -0.475569 377.464 -1.13955 391.521 1.87265C414.769 6.8525 431.595 20.9418 437.692 40.513C444.138 61.226 437.109 91.7609 416.809 131.268C399.983 164.013 378.404 194.37 367.035 209.544C343.456 241.035 310.257 281.343 309.925 281.74C309.593 282.137 309.107 282.364 308.605 282.364L308.588 282.356ZM302.443 274.266C303.139 275.473 304.767 277.602 307.981 278.679C312.945 272.639 342.662 236.33 364.282 207.472C384.46 180.524 449.158 88.9269 434.405 41.5171C428.688 23.1605 412.793 9.92138 390.792 5.20875C363.027 -0.74278 332.395 8.3586 313.471 27.9217C313.568 27.8569 313.666 27.7922 313.763 27.7193C322.046 22.0188 341.456 8.6744 363.634 5.71888C379.829 3.55689 404.177 8.75537 419.384 25.2577C430.421 37.2336 434.202 52.991 430.324 70.8132C419.821 119.073 386.42 165.058 354.12 209.528C324.994 249.626 306.467 269.959 302.443 274.258V274.266Z" fill="#0F0F14"/>
<path d="M390.232 155.915C390.094 155.915 389.956 155.891 389.819 155.834C384.126 153.615 384.062 152.644 384.029 152.069C383.956 151.024 384.604 149.599 384.798 149.194C385.066 148.636 385.73 148.393 386.296 148.644L391.948 151.186C392.523 151.445 392.782 152.126 392.523 152.7C392.264 153.275 391.592 153.535 391.009 153.275L386.442 151.227C386.394 151.381 386.353 151.526 386.329 151.648C386.993 152.142 388.977 153.057 390.645 153.713C391.236 153.939 391.527 154.603 391.292 155.194C391.114 155.648 390.685 155.923 390.224 155.923L390.232 155.915Z" fill="#0F0F14"/>
<path d="M429.564 67.1399C428.917 67.1399 421.022 65.5447 420.277 64.0548C419.848 63.1965 420.026 61.5365 420.172 60.6215C420.269 60.0142 420.827 59.5851 421.435 59.6661L429.605 60.6539C430.228 60.7268 430.682 61.3017 430.601 61.9252C430.52 62.5487 429.953 62.9941 429.33 62.9212L422.309 62.071C422.293 62.3868 422.285 62.6702 422.309 62.8645C423.589 63.488 428.552 64.8079 429.419 64.8564C430.002 64.824 430.544 65.2775 430.609 65.8848C430.674 66.5164 430.212 67.0751 429.589 67.1399C429.589 67.1399 429.573 67.1399 429.564 67.1399ZM429.403 64.8564C429.403 64.8564 429.37 64.8564 429.362 64.8564C429.378 64.8564 429.394 64.8564 429.403 64.8564Z" fill="#0F0F14"/>
<path d="M373.607 14.2366C373.073 14.2366 372.522 14.1637 372.077 13.9451C371.543 13.6779 370.644 13.2325 370.895 6.94899C370.919 6.3174 371.47 5.83966 372.085 5.84776C372.717 5.87205 373.211 6.40647 373.186 7.03806C373.114 8.86806 373.17 11.0948 373.356 11.945C373.527 11.9531 373.753 11.945 374.004 11.9288L374.45 7.05426C374.506 6.42267 375.057 5.96112 375.689 6.0178C376.32 6.07448 376.782 6.6332 376.725 7.25669L376.199 13.022C376.15 13.5159 375.794 13.9208 375.308 14.0341C375.025 14.0989 374.336 14.2366 373.599 14.2366H373.607Z" fill="#0F0F14"/>
<path d="M313.131 36.9673C312.872 36.9673 312.605 36.9107 312.362 36.7973C311.39 36.3438 310.159 34.2709 309.301 32.611C309.009 32.0523 309.228 31.364 309.795 31.0725C310.354 30.781 311.042 30.9996 311.333 31.5664C311.965 32.781 312.734 34.028 313.171 34.5462C313.212 34.4977 313.252 34.441 313.285 34.3924C313.001 33.7851 312.248 32.36 311.584 31.1616C311.277 30.6109 311.479 29.9146 312.03 29.6069C312.58 29.2992 313.277 29.5016 313.584 30.0522C315.536 33.5827 315.592 33.9713 315.617 34.1819C315.73 34.9835 315.066 36.0281 314.378 36.5382C313.981 36.8297 313.552 36.9835 313.123 36.9835L313.131 36.9673Z" fill="#0F0F14"/>
<path d="M366.524 208.767C366.483 208.767 366.435 208.767 366.394 208.767C361.633 208.338 356.337 203.868 356.119 203.682C355.52 203.172 355.447 202.265 355.957 201.666C356.467 201.066 357.374 200.994 357.973 201.504C358.022 201.544 362.799 205.577 366.653 205.917C367.439 205.99 368.022 206.686 367.949 207.471C367.884 208.216 367.261 208.775 366.524 208.775V208.767Z" fill="#0F0F14"/>
<path d="M336.157 212.497C306.837 214.926 289.93 206.991 254.35 210.214C235.119 211.955 222.908 222.506 215.742 231.834L286.861 253.842C319.509 251.648 339.825 238.247 339.825 238.247L336.165 213.428V212.489L336.157 212.497Z" fill="#3E4049"/>
<path d="M364.383 214.163C362.335 212.479 350.618 211.75 350.618 211.75L352.74 208.527C347.177 208.09 336.156 213.434 336.156 213.434L339.816 238.253C342.78 240.447 348.634 240.083 348.634 240.083C360.934 239.354 361.298 228.147 361.298 228.147C361.298 228.147 363.201 226.536 363.784 224.633C364.367 222.73 363.566 219.945 363.566 219.945C363.566 219.945 366.424 215.847 364.367 214.163H364.383Z" fill="#F2C5A7"/>
<g opacity="0.25">
<path d="M363.129 214.164C363.129 214.164 360.311 217.532 360.311 218.852C360.311 220.172 360.57 221.637 359.979 223.168C359.396 224.706 357.744 225.767 357.598 226.35C357.452 226.933 356.797 231.289 352.327 233.192C347.857 235.095 339.225 232.787 339.225 232.787L338.57 229.824C338.57 229.824 329.233 235.751 314.448 240.731C299.662 245.711 283.994 251.711 283.994 251.711C283.994 251.711 283.362 254.245 288.463 253.711C311.152 251.355 330.731 243.29 330.731 243.29L339.331 238.901L340.464 238.788C340.464 238.788 349.355 242.01 355.363 238.018C361.363 234.026 361.072 228.577 361.072 228.577C361.072 228.577 363.736 226.512 363.938 223.864C364.141 221.216 363.525 220.269 363.525 220.269C363.525 220.269 365.687 216.423 364.805 215.143C363.922 213.864 363.121 214.156 363.121 214.156L363.129 214.164Z" fill="#0F0F14"/>
</g>
<path d="M213.957 230.268C223.803 217.013 239.998 209.158 256.346 208.34C272.371 206.867 288.533 208.227 304.452 209.992C314.971 211.102 325.489 211.587 336.024 210.713C337.012 210.64 337.878 211.377 337.951 212.365C337.951 212.405 337.951 212.454 337.951 212.502V213.442L335.376 211.83C338.105 210.543 340.809 209.426 343.66 208.462C346.688 207.506 349.538 206.575 352.89 206.737C354.235 206.794 355.028 208.421 354.267 209.515C354.275 209.515 352.121 212.745 352.129 212.754L350.737 209.96C352.477 210.081 354.178 210.235 355.903 210.43C357.627 210.632 359.344 210.859 361.093 211.207C362.615 211.571 364 211.733 365.457 212.762C368.081 214.94 366.591 218.64 365.028 220.964L365.271 219.466C366.413 223.466 365.652 226.746 362.437 229.491L363.053 228.211C362.372 237.143 355.166 242.406 346.485 241.79C343.789 241.612 341.19 241.28 338.809 239.62L340.753 239.677C332.623 244.625 323.781 248.017 314.695 250.665C305.675 253.224 296.315 254.981 286.914 254.698C285.934 254.641 285.78 253.208 286.8 253.013C291.367 252.228 295.902 251.499 300.404 250.633C313.797 248.106 327.181 243.92 338.89 236.851C339.497 236.454 340.275 236.495 340.834 236.908C342.364 237.985 344.696 238.292 346.647 238.39C350.728 238.641 355.255 237.361 357.579 233.798C358.583 232.333 359.231 230.568 359.49 228.794C359.579 228.049 359.571 227.321 360.17 226.843C360.947 226.155 361.911 224.997 362.146 224.025C362.389 223.037 362.162 221.482 361.887 220.454C361.741 219.928 361.846 219.393 362.13 218.964C362.486 218.43 362.866 217.709 363.101 217.086C363.344 216.389 363.474 215.798 363.263 215.547C362.413 215.102 361.433 214.924 360.413 214.705C357.206 214.098 353.797 213.782 350.518 213.555C349.166 213.507 348.364 211.863 349.125 210.762L351.239 207.539L352.607 210.34C350.121 210.219 347.271 211.077 344.809 211.871C342.153 212.762 339.473 213.863 336.947 215.053C335.789 215.652 334.34 214.721 334.372 213.442V212.502L336.315 214.292C320.25 215.75 304.185 213.393 288.25 211.936C277.731 211.053 267.14 210.907 256.63 211.774C251.383 212.073 246.297 212.98 241.374 214.592C231.552 217.806 222.718 223.96 216.313 232.09C215.803 232.73 214.872 232.843 214.232 232.333C213.6 231.831 213.487 230.916 213.973 230.276L213.957 230.268Z" fill="#0F0F14"/>
<path d="M339.81 239.678C339.114 239.678 338.507 239.167 338.402 238.455L334.742 213.637C334.628 212.859 335.171 212.13 335.948 212.017C336.725 211.904 337.454 212.438 337.568 213.224L341.227 238.042C341.341 238.819 340.798 239.548 340.021 239.661C339.948 239.669 339.883 239.678 339.81 239.678Z" fill="#0F0F14"/>
<path d="M311.617 257.692C311.617 257.692 310.856 255.385 313.196 252.389C315.528 249.392 317.399 248.226 319.399 248.194C321.399 248.162 322.557 249.239 322.557 249.239L323.431 249.83L324.257 249.692C324.257 249.692 326.233 249.06 328.427 250.324C330.622 251.587 334.411 254.421 334.29 257.903C334.168 261.377 328.355 267.118 325.391 269.806C322.427 272.494 319.415 274.34 316.524 273.863C313.634 273.385 311.172 267.198 311.415 265.773C311.658 264.348 312.613 263.393 312.613 263.393L313.14 262.737L313.164 260.664L311.941 258.729L311.617 257.692Z" fill="#F2C5A7"/>
<g opacity="0.4">
<path d="M311.665 256.329C311.665 256.329 316.887 251.495 318.482 250.985C320.078 250.475 321.649 250.985 321.649 250.985L322.847 250.183L322.086 248.953C322.086 248.953 320.053 247.382 317.721 248.685C315.389 249.989 312.903 252.815 312.061 253.843C311.219 254.872 311.665 256.329 311.665 256.329Z" fill="white"/>
</g>
<g opacity="0.4">
<path d="M314.144 262.405C314.144 262.405 315.496 260.608 316.411 259.992C317.326 259.369 318.339 259.093 318.339 259.093L317.95 258.518C317.95 258.518 318.938 256.494 320.185 255.425C321.432 254.356 322.525 253.846 322.525 253.846C322.525 253.846 324.792 252.049 325.821 251.976C326.849 251.903 331.788 254.413 331.788 254.413C331.788 254.413 330.42 250.348 327.667 249.96C324.914 249.571 322.622 250.68 322.622 250.68L320.201 252.688C320.201 252.688 318.938 253.304 317.95 254.413C316.962 255.53 316.525 257.069 316.525 257.069C316.525 257.069 314.881 257.838 314.144 259.158C313.415 260.478 314.144 262.413 314.144 262.413V262.405Z" fill="white"/>
</g>
<g opacity="0.25">
<path d="M312.031 265.148C312.031 265.148 314.485 268.695 317.465 269.286C320.452 269.869 325.797 264.881 329.343 261.067C332.89 257.245 332.38 254.938 332.38 254.938C332.38 254.938 334.275 256.97 334.226 258.5C334.177 260.031 330.817 264.177 330.817 264.177L326.274 269.14L322.323 272.322C322.323 272.322 319.076 274.428 316.323 273.812C313.57 273.197 311.853 267.82 311.707 267.124C311.562 266.428 312.039 265.148 312.039 265.148H312.031Z" fill="#0F0F14"/>
</g>
<path d="M317.75 275.433C317.329 275.433 316.908 275.392 316.495 275.295C312.867 274.437 309.977 268.186 309.977 265.999C309.977 264.307 311.021 263.133 311.726 262.526L311.855 261.206C310.997 260.242 309.564 258.105 310.317 255.181C311.272 251.457 316.487 246.404 319.92 246.793C321.799 247.011 323.143 247.837 323.928 248.493C325.199 248.056 327.013 247.91 328.665 249.06C329.572 249.562 336.609 253.627 335.475 259.028C334.43 264.024 325.102 272.056 324.05 272.955C324.034 272.971 324.017 272.987 323.993 272.996C323.629 273.279 320.722 275.449 317.75 275.449V275.433ZM313.831 264.501C313.831 264.501 312.835 265.157 312.835 265.991C312.835 267.263 315.232 272.056 317.151 272.51C318.859 272.915 321.418 271.344 322.22 270.736C324.916 268.445 331.961 261.837 332.673 258.428C333.289 255.481 328.957 252.445 327.232 251.53C327.175 251.497 327.119 251.465 327.07 251.424C325.847 250.55 324.39 251.392 324.374 251.4C323.75 251.781 322.948 251.635 322.503 251.06C322.471 251.019 321.483 249.837 319.588 249.619C317.969 249.432 313.766 253.206 313.086 255.87C312.527 258.064 314.179 259.497 314.252 259.554C314.608 259.854 314.803 260.323 314.762 260.793L314.511 263.408C314.471 263.854 314.22 264.259 313.831 264.493V264.501Z" fill="#0F0F14"/>
<path d="M313.338 262.095C313.289 262.095 313.249 262.095 313.2 262.095C312.415 262.022 311.84 261.326 311.912 260.54C312.131 258.208 314.107 256.84 315.751 256.192C316.131 253.39 318.674 251.844 319.799 251.293C320.722 249.876 322.674 249.034 323.095 248.856C323.832 248.564 324.658 248.92 324.957 249.649C325.249 250.378 324.892 251.212 324.164 251.503C323.273 251.868 322.301 252.548 322.164 252.904C322.018 253.285 321.718 253.584 321.338 253.73C321.313 253.738 318.39 254.904 318.577 257.131C318.633 257.844 318.164 258.483 317.467 258.645C317.451 258.645 314.909 259.285 314.763 260.807C314.69 261.544 314.066 262.103 313.338 262.103V262.095Z" fill="#0F0F14"/>
<path d="M321.9 251.444C323.284 252.845 324.418 254.464 325.487 256.116C325.851 256.667 326.143 257.282 326.134 258.157C326.134 258.254 326.053 258.327 325.956 258.318C325.082 258.221 324.507 257.865 323.997 257.444C322.474 256.197 320.993 254.885 319.762 253.355C318.677 251.946 320.628 250.221 321.891 251.452L321.9 251.444Z" fill="#0F0F14"/>
<path d="M318.38 256.517C319.344 257.894 320.121 259.465 321.028 260.89C321.352 261.36 321.554 261.854 321.716 262.647C321.732 262.736 321.676 262.817 321.595 262.833C320.008 263.068 319.141 261.854 318.153 260.963C317.271 260.048 316.518 259.092 315.918 257.967C315.117 256.372 317.384 255.044 318.38 256.517Z" fill="#0F0F14"/>
<path d="M314.622 260.77C315.488 262.196 316.379 263.953 317.294 265.362C317.634 265.856 317.901 266.374 318.039 267.216C318.055 267.305 317.991 267.394 317.893 267.402C317.035 267.475 316.379 267.143 315.845 266.722C314.792 265.888 313.853 264.908 313.084 263.807C312.363 262.779 311.116 261.005 312.776 260.171C313.456 259.864 314.258 260.139 314.614 260.77H314.622Z" fill="#0F0F14"/>
<path d="M108.597 359.844C105.22 359.844 102.362 359.52 100.313 358.873C95.5924 357.366 91.8191 353.966 87.8109 350.362C82.1347 345.261 76.2722 339.982 67.0818 339.609C61.3894 339.374 55.8022 340.16 49.8912 340.986C39.2432 342.475 28.2309 344.014 15.9149 339.52C5.93086 335.876 -0.312164 328.921 0.00363084 321.795C0.327523 314.58 7.13736 308.677 18.6841 305.617C59.7699 294.248 111.269 301.333 111.787 301.406C111.787 301.406 111.803 301.406 111.811 301.406C129.747 304.224 136.055 306.256 136.775 309.438C137.083 310.791 136.395 312.062 134.727 313.22C131.091 315.738 127.65 319.892 128.33 322.062C128.848 323.714 132.087 324.669 137.213 324.669C150.071 324.669 156.751 326.564 158.857 330.815C160.395 333.925 159.262 337.909 155.391 342.994C147.099 353.877 123.148 359.836 108.605 359.836L108.597 359.844ZM65.0737 336.71C65.7862 336.71 66.4907 336.726 67.2032 336.751C77.4221 337.164 83.9566 343.042 89.7219 348.233C93.4871 351.617 97.0499 354.824 101.18 356.144C111.172 359.342 143.699 353.609 153.108 341.269C156.217 337.188 157.286 334.103 156.29 332.087C154.792 329.066 148.371 327.528 137.205 327.528C130.362 327.528 126.565 326.022 125.593 322.912C124.2 318.451 129.893 313.082 133.091 310.864C133.731 310.418 133.917 310.127 133.966 310.038C133.48 308.92 129.115 307.017 111.366 304.232C110.394 304.094 59.7537 297.211 19.421 308.37C9.15359 311.098 3.1211 316.03 2.85389 321.916C2.58667 327.771 8.10095 333.625 16.8946 336.832C28.5467 341.083 39.1946 339.593 49.4944 338.152C54.5795 337.439 59.8266 336.71 65.0656 336.71H65.0737Z" fill="#0F0F14"/>
<path d="M134.863 355.262C134.402 355.262 133.948 355.044 133.673 354.631C133.235 353.975 133.406 353.084 134.061 352.647C144.054 345.942 144.985 342.525 144.653 341.084C143.811 337.465 133.818 336.104 127.851 335.294C126.167 335.068 124.571 334.849 123.324 334.614C119.551 333.91 117.106 332.266 116.045 329.732C114.288 325.521 117.138 320.582 118.45 318.646C119.34 317.326 119.3 316.97 119.292 316.93C118.369 314.978 100.773 314.703 93.2591 314.582C31.2498 313.594 18.6747 320.063 16.699 324.007C12.3345 332.728 22.8043 338.477 23.2497 338.711C23.946 339.084 24.2052 339.95 23.8327 340.647C23.4602 341.343 22.5938 341.61 21.8974 341.238C17.2496 338.76 9.64619 331.707 14.1321 322.727C16.6261 317.748 26.9744 314.525 45.7845 312.881C58.0843 311.804 74.0684 311.415 93.2915 311.723C115.98 312.088 120.49 313.059 121.818 315.618C122.741 317.399 121.438 319.327 120.806 320.25C119.988 321.456 117.421 325.626 118.677 328.63C119.341 330.217 121.073 331.286 123.843 331.804C125.017 332.023 126.579 332.234 128.231 332.46C136.215 333.545 146.151 334.898 147.43 340.436C148.345 344.38 144.596 349.011 135.648 355.019C135.406 355.181 135.13 355.262 134.855 355.262H134.863Z" fill="#0F0F14"/>
<path d="M40.7918 319.367C37.9416 323.052 35.1804 326.501 37.7877 331.011C37.9902 331.367 37.5205 331.764 37.2128 331.505C32.2168 327.805 35.2614 320.606 40.3627 318.736C40.7351 318.59 41.0671 319.076 40.7999 319.359L40.7918 319.367Z" fill="white"/>
<path d="M52.5897 320.542C50.5492 325.789 51.4966 327.951 55.8772 330.906C56.2335 331.125 56.0068 331.7 55.6019 331.619C53.0593 331.23 50.4277 329.716 49.5937 327.157C49.116 325.797 49.2536 324.307 49.7313 323.093C50.2253 321.886 50.9459 320.833 51.9986 320.056C52.1767 319.927 52.4197 319.975 52.5492 320.145C52.6383 320.267 52.6383 320.412 52.5897 320.534V320.542Z" fill="white"/>
<path d="M63.787 331.186C68.6616 329.842 74.5079 328.603 74.6779 322.465C74.686 322.052 75.3176 321.971 75.431 322.368C77.6739 329.243 69.609 333.34 63.7789 331.947C63.3822 331.866 63.3903 331.259 63.7789 331.186H63.787Z" fill="white"/>
<path d="M74.3104 333.181C75.2659 331.78 76.5615 331.294 77.9138 330.347C78.1243 330.185 78.432 330.217 78.5777 330.452C79.0312 332.096 77.5332 333.699 76.0352 334.039C75.525 334.177 73.7355 334.152 74.3185 333.173L74.3104 333.181Z" fill="white"/>
<path d="M76.1032 317C78.4029 316.708 80.2248 318.822 80.6053 320.895C80.7268 321.429 80.8806 323.891 79.828 323.097C78.6215 321.154 77.4231 319.461 75.917 317.737C75.6579 317.502 75.7388 317.056 76.1032 317Z" fill="white"/>
<path d="M85.5759 319.092C89.6246 320.743 89.3817 326.46 87.665 329.748C87.5031 330.08 86.9606 329.991 86.9201 329.618C86.7581 328.266 86.7581 326.938 86.661 325.594C86.4666 323.561 86.1913 321.553 85.1954 319.747C84.9524 319.448 85.1711 318.986 85.5759 319.084V319.092Z" fill="white"/>
<path d="M58.4176 317.003C61.2273 315.189 65.2922 315.06 68.0534 317.019C68.2234 317.157 68.2477 317.416 68.1101 317.586C68.0291 317.691 67.9076 317.74 67.7781 317.732C66.4096 317.732 64.612 317.829 63.2598 317.91C62.6768 317.926 57.1706 318.331 58.4176 317.011V317.003Z" fill="white"/>
<path d="M44.6844 325.85C45.5589 327.672 45.4942 329.413 46.2391 331.275C46.3849 331.591 46.0934 331.956 45.7533 331.867C43.8909 331.373 42.9192 329.17 43.1945 327.381C43.2431 326.846 43.9719 324.79 44.6844 325.85Z" fill="white"/>
<path d="M61.874 325.052C61.6149 325.052 61.3477 324.963 61.1371 324.777C60.6594 324.364 60.5946 323.643 61.0076 323.165L309.733 30.9575C309.87 30.8037 310.04 30.6822 310.235 30.6175L374.131 8.95715C374.552 8.81139 375.021 8.92476 375.321 9.24865L423.767 60.0107C424.075 60.3346 424.172 60.8123 424.002 61.2334L387.548 151.259C387.524 151.308 387.507 151.357 387.475 151.405L354.592 207.916C354.276 208.459 353.572 208.645 353.029 208.329C352.487 208.013 352.3 207.309 352.616 206.766L385.459 150.328L421.605 61.0634L374.171 11.3701L311.271 32.6904L62.7485 324.647C62.5218 324.914 62.1979 325.052 61.874 325.052Z" fill="#0F0F14"/>
<g opacity="0.4">
<path d="M80.225 318.369C79.2938 318.062 79.4801 316.693 80.4599 316.653C88.0308 316.378 111.157 315.746 112.161 318.41C113.367 321.592 109.853 323.131 107.108 326.54C104.363 329.941 119.513 333.131 115.894 336.588C112.266 340.046 92.0633 333.787 95.9095 328.953C99.7558 324.119 109.529 321.633 104.8 320.297C100.897 319.195 85.8851 320.256 80.2169 318.369H80.225Z" fill="white"/>
</g>
<g opacity="0.4">
<path d="M94.348 345.569C93.3277 343.812 95.4087 341.869 97.1172 342.962C98.8501 344.071 101.247 345.172 103.393 344.913C107.053 344.476 109.247 353.553 99.8784 349.602C96.7043 348.266 95.0929 346.849 94.348 345.569Z" fill="white"/>
</g>
<path d="M169.224 128.376L153.491 110.967C153.491 110.967 160.568 100.165 160.471 94.1165C160.382 88.0678 145.385 74.6587 136.171 73.355C126.956 72.0513 115.037 89.2743 112.891 102.214C111.053 113.307 123.11 123.307 131.515 127.874C133.879 129.154 136.754 129.056 139.029 127.623C140.13 126.927 141.272 126.125 142.122 125.307C142.122 125.307 159.442 125.583 169.216 128.376H169.224Z" fill="#FCD21D"/>
<path d="M142.861 112.495C142.075 112.495 141.363 111.953 141.185 111.151C137.921 96.5032 144.302 91.1347 144.569 90.9161C145.306 90.3169 146.383 90.4302 146.982 91.1671C147.573 91.8958 147.468 92.9647 146.748 93.5639C146.513 93.7663 141.784 98.0498 144.537 110.398C144.739 111.321 144.164 112.236 143.233 112.447C143.104 112.471 142.982 112.487 142.861 112.487V112.495Z" fill="#0F0F14"/>
<path d="M126.194 98.7118C125.271 98.7118 124.51 97.9831 124.485 97.06C124.453 96.1126 125.19 95.319 126.137 95.2867C135.627 94.9547 138.915 87.1246 138.947 87.0436C139.303 86.1691 140.299 85.7399 141.182 86.0962C142.057 86.4525 142.486 87.4565 142.121 88.3311C141.959 88.7359 137.935 98.307 126.251 98.7118C126.226 98.7118 126.21 98.7118 126.186 98.7118H126.194Z" fill="#0F0F14"/>
<path d="M136.821 114.079C136.068 114.079 135.38 113.577 135.17 112.816C135.089 112.517 133.016 105.431 125.38 105.043C124.432 104.994 123.704 104.184 123.752 103.245C123.801 102.298 124.594 101.569 125.558 101.618C133.68 102.039 137.566 108.533 138.481 111.909C138.732 112.824 138.19 113.764 137.275 114.015C137.121 114.055 136.975 114.071 136.821 114.071V114.079Z" fill="#0F0F14"/>
<path d="M135.049 130.487C133.551 130.487 132.053 130.122 130.692 129.385C120.514 123.863 109.307 113.353 111.194 101.935C113.356 88.8744 125.502 70.1129 136.401 71.6514C146.166 73.0361 162.069 86.8744 162.175 94.0891C162.256 99.4495 157.47 107.765 155.624 110.786L170.491 127.231C171.001 127.798 171.082 128.64 170.677 129.288C170.272 129.936 169.486 130.244 168.75 130.033C160.377 127.644 146.029 127.126 142.773 127.045C142.012 127.701 141.065 128.381 139.947 129.086C138.458 130.025 136.757 130.495 135.057 130.495L135.049 130.487ZM135.13 74.9956C127.259 74.9956 116.546 90.5991 114.579 102.494C112.87 112.802 124.935 122.349 132.328 126.365C134.142 127.345 136.352 127.272 138.109 126.171C139.324 125.409 140.271 124.705 140.935 124.065C141.259 123.75 141.688 123.563 142.15 123.588C142.749 123.596 154.66 123.814 164.328 125.523L152.207 112.114C151.68 111.539 151.616 110.68 152.045 110.025C153.932 107.142 158.814 98.6641 158.749 94.1377C158.668 89.0768 144.328 76.2345 135.923 75.0442C135.664 75.0037 135.397 74.9875 135.13 74.9875V74.9956Z" fill="#0F0F14"/>
</g>
<defs>
<clipPath id="clip0_1687_15197">
<rect width="440" height="359.845" fill="white"/>
</clipPath>
</defs>
</svg>
