<svg width="497" height="460" viewBox="0 0 497 460" fill="none" xmlns="http://www.w3.org/2000/svg">
<g filter="url(#filter0_d_378_1804)">
<path d="M24 89.5842C24 76.9252 34.2621 66.6631 46.9212 66.6631H456.446C469.105 66.6631 479.367 76.9252 479.367 89.5842V412.772C479.367 425.431 469.105 435.694 456.446 435.694H46.9211C34.2621 435.694 24 425.431 24 412.772V89.5842Z" fill="white"/>
<path d="M24 39.9214C24 27.2624 34.2621 17.0002 46.9212 17.0002H277.661C290.32 17.0002 300.582 27.2624 300.582 39.9214V100.89H24V39.9214Z" fill="white"/>
<path d="M313.256 66.8266C299.65 66.8266 301.104 47.1585 301.104 47.1585L269.256 44.7L279.034 92.641H317.365C316.713 84.8557 320.46 66.8266 313.256 66.8266Z" fill="white"/>
</g>
<defs>
<filter id="filter0_d_378_1804" x="0.696831" y="0.573421" width="495.861" height="459.187" filterUnits="userSpaceOnUse" color-interpolation-filters="sRGB">
<feFlood flood-opacity="0" result="BackgroundImageFix"/>
<feColorMatrix in="SourceAlpha" type="matrix" values="0 0 0 0 0 0 0 0 0 0 0 0 0 0 0 0 0 0 127 0" result="hardAlpha"/>
<feOffset dx="-3.05615" dy="3.82019"/>
<feGaussianBlur stdDeviation="10.1235"/>
<feComposite in2="hardAlpha" operator="out"/>
<feColorMatrix type="matrix" values="0 0 0 0 0 0 0 0 0 0 0 0 0 0 0 0 0 0 0.15 0"/>
<feBlend mode="normal" in2="BackgroundImageFix" result="effect1_dropShadow_378_1804"/>
<feBlend mode="normal" in="SourceGraphic" in2="effect1_dropShadow_378_1804" result="shape"/>
</filter>
</defs>
</svg>
