<svg width="178" height="186" viewBox="0 0 178 186" fill="none" xmlns="http://www.w3.org/2000/svg">
<g clip-path="url(#clip0_1213_9163)">
<g opacity="0.25">
<path d="M108.805 185.992C80.5584 185.992 57.6602 184.121 57.6602 181.813C57.6602 179.506 80.5584 177.635 108.805 177.635C137.051 177.635 159.949 179.506 159.949 181.813C159.949 184.121 137.051 185.992 108.805 185.992Z" fill="#0F0F14"/>
</g>
<path d="M76.3602 167.033L70.6582 142.614C70.6582 142.614 75.3519 145.988 82.2582 148.86C89.1645 151.733 101.207 153.728 101.207 153.728L97.101 167.106L96.6875 167.396C96.6875 167.396 85.4864 166.532 76.3602 167.04V167.033Z" fill="#3E4049"/>
<path d="M67.0218 173.495C68.0955 172.349 76.3584 167.031 76.3584 167.031C85.4774 166.531 96.6856 167.387 96.6856 167.387C97.6215 170.114 96.6856 176.868 96.6856 176.868C85.1219 178.522 66.4125 176.868 66.4125 176.868C66.4125 176.868 65.9482 174.641 67.0218 173.495Z" fill="#EDBC9A"/>
<path d="M83.7278 178.438C88.2473 178.438 92.9338 178.256 96.8004 177.698C97.1704 177.647 97.4606 177.357 97.5114 176.987C97.5477 176.718 98.3457 170.857 97.642 167.737C97.758 167.636 97.8451 167.498 97.8959 167.353L102.002 153.975C102.074 153.743 102.038 153.497 101.915 153.294C101.792 153.09 101.581 152.945 101.342 152.909C101.226 152.887 89.3138 150.9 82.5743 148.092C75.8493 145.292 71.1847 141.969 71.1411 141.94C70.8582 141.737 70.481 141.73 70.1908 141.926C69.9006 142.122 69.7628 142.47 69.8426 142.811L75.4068 166.656C73.4916 167.897 67.4051 171.872 66.4112 172.932C65.0763 174.353 65.5334 176.776 65.5914 177.052C65.664 177.415 65.9687 177.683 66.3386 177.712C66.462 177.727 74.7829 178.445 83.7278 178.445V178.438ZM71.9464 144.472C73.9341 145.727 77.4598 147.773 81.9359 149.63C87.8048 152.075 97.1341 153.852 100.13 154.389L96.3869 166.584L96.2128 166.707C95.9081 166.918 95.7775 167.309 95.9009 167.665C96.5465 169.544 96.1983 173.947 95.9444 176.131C85.8171 177.444 70.5245 176.363 67.1656 176.095C67.1294 175.449 67.1874 174.557 67.6445 174.071C68.3772 173.287 73.6657 169.769 76.8214 167.737C77.1189 167.549 77.264 167.186 77.1842 166.845" fill="#0F0F14"/>
<path d="M96.6843 168.091C97.0471 168.091 97.3517 167.816 97.3808 167.446C97.4098 167.061 97.1269 166.727 96.7424 166.698C96.6263 166.691 85.389 165.842 76.3281 166.336C75.9436 166.357 75.6534 166.684 75.6752 167.068C75.697 167.453 76.0234 167.743 76.4079 167.721C85.3818 167.228 96.532 168.07 96.6408 168.077C96.6553 168.077 96.6771 168.077 96.6916 168.077L96.6843 168.091Z" fill="#0F0F14"/>
<path d="M71.8208 99.5488C71.8208 99.5488 65.5094 112.099 66.5178 129.191C67.5261 146.283 80.7366 154.901 105.301 153.61C129.864 152.318 138.766 145.419 139.056 132.354C139.346 119.288 133.564 112.041 131.642 97.5684C131.642 97.5684 116.364 101.442 98.9818 102.393C81.5999 103.343 71.8208 99.5488 71.8208 99.5488Z" fill="#3E4049"/>
<path d="M100.58 111.36C100.58 111.36 104.069 109.83 107.072 106.942C110.076 104.055 112.332 101.538 112.332 101.538L112.027 101.153C112.027 101.153 106.775 101.792 102.248 102.22C97.7214 102.648 92.9842 102.582 92.9842 102.582L92.6142 103.09C92.6142 103.09 95.0009 106.631 96.2632 108.154C97.5255 109.677 99.0853 111.484 99.0853 111.484L100.072 111.571L100.58 111.353V111.36Z" fill="#EDBC9A"/>
<path d="M138.421 124.202C138.421 124.202 106.371 145.233 66.4053 125.653C66.4053 125.653 66.3835 131.841 67.3774 134.881C67.3774 134.881 77.8602 142.266 104.288 142.266C128.417 142.266 138.965 131.29 138.965 131.29C138.965 131.29 139.103 127.438 138.421 124.202Z" fill="#742DD2"/>
<g opacity="0.25">
<path d="M130.023 97.9463C130.023 97.9463 117.916 106.079 100.563 107.072C82.9705 108.081 72.8432 99.8905 72.8432 99.8905C72.8432 99.8905 82.2596 103.38 98.9885 102.386C115.717 101.392 130.023 97.9463 130.023 97.9463Z" fill="#0F0F14"/>
</g>
<path d="M100.622 154.568C102.146 154.568 103.72 154.524 105.338 154.437C129.241 153.182 139.572 146.58 139.884 132.361C140.051 124.867 138.244 119.223 136.336 113.238C134.842 108.552 133.297 103.706 132.462 97.4453C132.433 97.2059 132.303 96.9955 132.1 96.8649C131.904 96.7343 131.657 96.6908 131.425 96.7489C131.273 96.7851 116.024 100.616 98.9247 101.551C81.9563 102.48 72.2062 98.8019 72.1119 98.7656C71.7129 98.6133 71.2559 98.7874 71.0673 99.1719C70.8061 99.6942 64.6688 112.121 65.6772 129.242C66.1995 138.071 69.8775 144.716 76.617 149.003C82.4424 152.703 90.5022 154.575 100.615 154.575L100.622 154.568ZM130.939 98.5915C131.817 104.555 133.304 109.227 134.748 113.753C136.612 119.601 138.375 125.121 138.215 132.332C138.07 138.898 135.72 143.461 130.816 146.696C125.578 150.157 117.213 152.144 105.251 152.768C81.4413 154.023 68.3323 145.848 67.3457 129.133C66.4969 114.66 71.0165 103.365 72.257 100.572C74.8614 101.428 84.14 104.025 99.019 103.213C113.891 102.4 127.384 99.4185 130.932 98.5843L130.939 98.5915Z" fill="#0F0F14"/>
<path d="M104.291 143.098C128.499 143.098 139.127 132.325 139.569 131.868C139.715 131.723 139.794 131.527 139.802 131.316C139.802 131.157 139.939 127.327 139.236 124.026C139.178 123.757 138.989 123.532 138.735 123.424C138.481 123.322 138.191 123.344 137.959 123.496C137.879 123.547 129.877 128.727 117.146 131.462C105.422 133.986 87.1627 134.893 66.7629 124.896C66.5017 124.773 66.1971 124.787 65.9577 124.94C65.711 125.092 65.5659 125.361 65.5659 125.643C65.5659 125.905 65.5587 131.998 66.5743 135.132C66.6323 135.306 66.7411 135.452 66.8862 135.553C67.3215 135.858 77.8914 143.091 104.283 143.091L104.291 143.098ZM138.14 130.925C136.501 132.441 125.858 141.429 104.291 141.429C80.5756 141.429 69.7518 135.372 68.0832 134.342C67.4884 132.26 67.3142 128.857 67.2635 126.993C87.627 136.591 105.814 135.633 117.581 133.087C128.027 130.83 135.217 127.058 137.821 125.549C138.155 127.791 138.162 130.083 138.148 130.925H138.14Z" fill="#0F0F14"/>
<path d="M112.025 133.929C112.235 133.929 112.445 133.835 112.583 133.653C112.815 133.349 112.75 132.913 112.445 132.681C112.235 132.522 90.9718 116.482 82.8685 101.516C82.6872 101.175 82.2664 101.051 81.9254 101.233C81.5845 101.414 81.4611 101.835 81.6425 102.176C89.8909 117.41 111.393 133.624 111.604 133.791C111.727 133.886 111.872 133.929 112.017 133.929H112.025Z" fill="#0F0F14"/>
<path d="M121.331 132.004C121.548 132.004 121.759 131.903 121.896 131.714C122.121 131.402 122.049 130.967 121.737 130.742C121.534 130.597 101.272 115.964 92.8421 102.144C92.6389 101.818 92.2109 101.709 91.8845 101.912C91.558 102.115 91.4565 102.543 91.6523 102.87C100.234 116.936 120.721 131.728 120.924 131.874C121.048 131.961 121.186 132.004 121.331 132.004Z" fill="#0F0F14"/>
<path d="M99.3965 112.536C99.4763 112.536 99.5489 112.521 99.6287 112.5C106.404 110.12 112.992 101.85 113.267 101.494C113.507 101.19 113.456 100.754 113.151 100.515C112.846 100.276 112.411 100.326 112.172 100.631C112.106 100.711 105.556 108.938 99.1644 111.186C98.8016 111.317 98.613 111.709 98.7364 112.072C98.8379 112.354 99.1063 112.536 99.3893 112.536H99.3965Z" fill="#0F0F14"/>
<path d="M104.656 117.96C104.751 117.96 104.845 117.938 104.932 117.902C115.574 113.266 123.562 100.426 123.895 99.8817C124.098 99.5552 123.997 99.1272 123.67 98.9241C123.344 98.7209 122.916 98.8225 122.713 99.149C122.633 99.2795 114.609 112.171 104.373 116.625C104.018 116.777 103.858 117.191 104.011 117.539C104.127 117.8 104.381 117.96 104.649 117.96H104.656Z" fill="#0F0F14"/>
<path d="M144.169 30.1723C141.963 21.3653 147.1 15.3005 152.185 11.2235C157.278 7.13915 158.642 0.834961 158.642 0.834961C163.995 1.00907 167.238 7.2117 167.238 7.2117C167.267 12.8702 157.488 21.0461 154.978 24.064C152.468 27.0819 152.033 36.3387 152.033 36.3387L151.474 36.6796" fill="#742DD2"/>
<path d="M151.472 37.5138C151.624 37.5138 151.769 37.4702 151.907 37.3904L152.466 37.0495C152.698 36.9044 152.85 36.6505 152.865 36.3748C152.981 33.8792 153.699 26.8931 155.614 24.6007C156.158 23.9478 157.101 22.9974 158.197 21.8947C162.136 17.9265 168.092 11.927 168.07 7.2043C168.07 7.07372 168.034 6.93588 167.976 6.81981C167.831 6.55139 164.436 0.189165 158.661 0.000546726C158.248 -0.0139623 157.899 0.26171 157.82 0.66071C157.805 0.718746 156.448 6.73276 151.668 10.5704C144.232 16.5336 141.511 23.0119 143.361 30.3753C143.47 30.8251 143.927 31.0935 144.377 30.9847C144.827 30.8759 145.095 30.4188 144.986 29.969C143.311 23.3021 145.842 17.3824 152.72 11.869C157.014 8.43032 158.748 3.54802 159.278 1.72713C163.224 2.27847 165.872 6.50061 166.409 7.42194C166.235 11.4482 160.482 17.2373 157.022 20.7195C155.904 21.844 154.94 22.8161 154.345 23.5343C151.98 26.3708 151.356 33.9228 151.232 35.8597L151.044 35.9758C150.652 36.2152 150.529 36.7303 150.768 37.122C150.928 37.3759 151.196 37.521 151.479 37.521L151.472 37.5138Z" fill="#0F0F14"/>
<path d="M141.819 38.9998C141.819 38.9998 146.374 42.7722 158.555 43.2147C170.742 43.6572 175.821 37.6795 176.59 36.0109C177.359 34.3424 175.958 28.6621 174.101 28.2704C172.237 27.8859 166.897 32.5868 161.602 33.5662C156.306 34.5528 143.349 29.373 143.349 29.373" fill="#742DD2"/>
<path d="M159.8 44.0728C171.175 44.0728 176.391 38.4215 177.349 36.3685C178.031 34.8886 177.414 31.5442 176.406 29.542C175.796 28.3305 175.078 27.634 174.273 27.4672C173.112 27.2278 171.502 28.1346 169.275 29.3896C167.004 30.6664 164.182 32.2552 161.454 32.763C156.456 33.6916 143.789 28.6642 143.666 28.6134C143.238 28.4393 142.752 28.6497 142.578 29.0777C142.404 29.5057 142.614 29.9918 143.042 30.1659C143.528 30.3617 154.062 34.5403 160.09 34.5403C160.7 34.5403 161.258 34.4968 161.759 34.4025C164.762 33.8439 167.722 32.1754 170.094 30.8405C171.56 30.0135 173.388 28.9834 173.932 29.0994C174.092 29.1357 174.476 29.4186 174.919 30.2964C175.833 32.1101 176.21 34.8668 175.84 35.6721C175.804 35.7446 171.908 42.8686 158.596 42.3898C146.829 41.9617 142.404 38.407 142.36 38.3707C142.005 38.0806 141.475 38.1241 141.185 38.4796C140.888 38.835 140.938 39.3574 141.294 39.6548C141.49 39.8144 146.205 43.6158 158.538 44.0583C158.973 44.0728 159.394 44.0801 159.815 44.0801L159.8 44.0728Z" fill="#0F0F14"/>
<path d="M78.0038 104.221C78.0038 104.221 108.32 105.752 132.87 96.3717C157.419 86.9915 162.272 74.9998 153.299 62.1085C153.299 62.1085 152.762 31.5306 132.435 16.4992C112.107 1.4678 65.4389 4.44216 52.3082 38.3354C47.0197 53.4103 52.0325 77.5679 52.0325 77.5679C52.0325 77.5679 42.3115 101.029 78.0038 104.228V104.221Z" fill="#3E4049"/>
<g opacity="0.4">
<path d="M155.68 66.1571C155.607 66.0483 155.535 65.9395 155.455 65.8306C155.455 65.8306 155.455 65.7799 155.455 65.6855C155.535 65.8451 155.607 65.9975 155.68 66.1571Z" fill="white"/>
</g>
<g opacity="0.4">
<path d="M54.168 94.4525C51.1573 90.5714 50.6495 86.2912 50.8817 83.0049C50.7221 86.3928 51.2807 90.7019 54.168 94.4525Z" fill="white"/>
</g>
<g opacity="0.4">
<path d="M50.0151 60.7129C50.4721 70.006 52.0391 77.5579 52.0391 77.5579C52.0391 77.5579 51.1105 79.8068 50.8783 83.0061C51.0379 79.5819 51.9448 77.1009 51.9448 77.1009C51.9448 77.1009 50.2254 69.8391 50.0078 60.7129H50.0151Z" fill="white"/>
</g>
<path d="M122.275 36.703C127.215 36.8989 131.423 40.3448 132.649 45.14C134.514 52.4598 137.248 66.744 132.025 72.5114C124.865 80.4188 102.376 80.0924 86.6191 81.993C70.8622 83.8937 60.3214 86.1136 56.3749 74.6079C52.4285 63.095 54.5323 48.789 55.8381 47.5122C57.1439 46.2354 73.9817 44.0083 90.9863 41.4837C102.34 39.8007 114.085 36.3765 122.275 36.7102V36.703Z" fill="#EDBC9A"/>
<path d="M82.7315 105.139C92.3002 105.139 114.492 104.283 133.158 97.1521C147.13 91.8128 155.371 85.3563 157.649 77.9639C159.194 72.9437 158.005 67.5173 154.116 61.837C154.065 60.4079 153.717 53.3783 151.28 44.7163C148.806 35.9021 143.612 23.7362 132.918 15.8288C127.274 11.6574 119.396 8.72659 110.727 7.58037C101.818 6.40514 92.6049 7.08706 84.0808 9.56086C68.4401 14.0949 56.8763 24.2078 51.5152 38.0349C46.4225 52.544 50.6084 74.7719 51.1525 77.4996C50.6084 78.965 48.1781 86.4299 52.393 93.387C56.383 99.9741 64.9651 103.899 77.9145 105.06C77.9217 105.06 77.9362 105.06 77.9435 105.06C78.016 105.06 79.7644 105.147 82.7242 105.147L82.7315 105.139ZM102.137 8.71933C113.513 8.71933 124.496 11.6647 131.932 17.1636C142.233 24.7809 147.261 36.5695 149.669 45.1153C152.295 54.4302 152.455 62.0402 152.462 62.1127C152.462 62.2796 152.52 62.4392 152.614 62.577C156.314 67.8873 157.475 72.893 156.068 77.4633C153.949 84.3406 146.042 90.4344 132.57 95.5852C108.695 104.711 78.8866 103.42 78.0596 103.384C65.6906 102.274 57.5437 98.6248 53.8439 92.531C49.6798 85.6755 52.7703 77.9566 52.8065 77.8841C52.8718 77.7317 52.8863 77.5576 52.8501 77.398C52.7993 77.1586 47.946 53.2912 53.0967 38.608C58.2474 25.3032 69.4267 15.5531 84.5596 11.1641C90.2327 9.51733 96.2467 8.72659 102.145 8.72659L102.137 8.71933Z" fill="#0F0F14"/>
<path d="M70.6575 84.3502C74.4226 84.3502 78.7318 83.8134 83.4981 83.2185C84.55 83.0879 85.6236 82.9501 86.7191 82.8195C90.2665 82.3915 94.1042 82.0796 98.1667 81.7531C112.284 80.6141 126.88 79.4317 132.648 73.0694C138.067 67.0844 135.484 52.8728 133.46 44.9363C132.154 39.8146 127.569 36.0858 122.31 35.8754C116.912 35.6578 110.071 37.0289 102.831 38.4725C98.914 39.256 94.8587 40.0685 90.8687 40.6562C88.0031 41.0842 85.1376 41.4977 82.3591 41.9039C64.0124 44.5736 56.4241 45.7779 55.2634 46.9096C53.5586 48.5636 51.5926 63.2105 55.5899 74.8758C58.1507 82.348 63.3957 84.3502 70.6648 84.3502H70.6575ZM122.245 37.5367C126.771 37.7181 130.718 40.9318 131.842 45.3426C133.402 51.4727 136.492 66.3372 131.407 71.945C126.089 77.8139 111.181 79.0254 98.0289 80.0846C93.9519 80.411 90.0997 80.723 86.516 81.1582C85.4133 81.2888 84.3323 81.4266 83.2877 81.5572C76.4757 82.406 70.5922 83.146 66.167 82.3407C61.5531 81.4992 58.7746 79.0326 57.1641 74.3317C53.3192 63.1162 55.4448 49.3761 56.4241 48.1066C57.7662 47.1635 70.955 45.2483 82.5985 43.5507C85.3842 43.1445 88.2498 42.7309 91.1153 42.3029C95.1488 41.7081 99.2186 40.8883 103.158 40.1048C110.296 38.6757 117.043 37.3263 122.245 37.5367Z" fill="#0F0F14"/>
<g opacity="0.25">
<path d="M47.8696 49.579C47.8696 49.579 104.056 48.9406 146.647 35.244C146.647 35.244 148.78 34.6056 148.49 31.4717C148.737 31.8344 148.947 32.2552 149.114 32.734C150.935 37.8992 147.808 38.8278 147.808 38.8278C105.217 52.5243 49.0304 53.1627 49.0304 53.1627C48.2831 51.8569 47.9204 50.6237 47.8261 49.5065C47.8406 49.5282 47.8551 49.5572 47.8624 49.579H47.8696Z" fill="#0F0F14"/>
</g>
<path d="M48.4874 50.2091C48.4874 50.2091 104.674 49.5707 147.265 35.8742C147.265 35.8742 150.392 34.9456 148.571 29.7804C146.75 24.6151 140.076 26.6319 140.076 26.6319C140.076 26.6319 103.578 35.4026 90.2082 37.2453C76.8381 39.0879 52.2888 40.1761 50.5477 40.5026C48.8066 40.829 45.4332 44.8916 48.4874 50.2091Z" fill="#742DD2"/>
<path d="M48.486 51.0428C48.486 51.0428 48.486 51.0428 48.4932 51.0428C49.0591 51.0428 105.296 50.2448 147.518 36.6644C147.626 36.6281 148.787 36.2581 149.476 34.8942C150.173 33.5304 150.129 31.7095 149.353 29.4969C147.706 24.8322 142.439 25.0498 139.857 25.8188C138.769 26.08 103.134 34.6113 90.0908 36.4104C80.9791 37.6655 66.5425 38.5796 57.9241 39.1236C53.245 39.4211 50.967 39.5662 50.3939 39.675C49.1824 39.8999 47.8621 41.1477 47.1076 42.7872C46.4692 44.1728 45.7002 47.0311 47.7605 50.6221C47.9129 50.8832 48.1885 51.0428 48.486 51.0428ZM142.955 27.0593C144.739 27.0593 146.916 27.6107 147.779 30.0482C148.381 31.7675 148.461 33.1604 148.011 34.0963C147.641 34.8507 147.039 35.0611 147.01 35.0684C107.146 47.8871 54.6668 49.251 48.972 49.3598C47.5719 46.6248 48.1378 44.521 48.6166 43.4836C49.2405 42.1415 50.2053 41.4088 50.6914 41.3145C51.1919 41.2202 54.2098 41.0316 58.0257 40.7922C66.6731 40.2481 81.1459 39.3268 90.3156 38.0645C103.577 36.2363 139.9 27.5236 140.263 27.4366C140.278 27.4366 140.292 27.4293 140.307 27.4221C140.415 27.3931 141.562 27.0593 142.947 27.0593H142.955Z" fill="#0F0F14"/>
<path d="M117.523 61.9416C113.765 61.1871 109.499 62.4349 107.12 65.5616C106.315 66.6135 105.741 67.8178 105.364 69.0583C105.212 69.5661 105.502 70.1029 106.01 70.2625C106.365 70.3714 106.735 70.2625 106.975 70.0159C109.898 67.1939 114.157 66.3596 118.103 66.4104L119.895 66.4902H119.917C120.098 66.4974 120.251 66.3596 120.258 66.1782C120.258 66.0186 120.156 65.8881 120.011 65.8518C119.416 65.7067 118.807 65.5543 118.198 65.4383C113.896 64.6911 109.071 65.4746 105.771 68.4997C105.705 68.565 105.647 68.6158 105.56 68.7101L107.2 69.6314C107.707 68.0572 108.52 66.6425 109.702 65.5108C111.777 63.5811 114.65 62.7686 117.436 62.6018C117.82 62.6018 117.893 62.0359 117.508 61.9561L117.523 61.9416Z" fill="#0F0F14"/>
<path d="M80.1143 56.5413C76.0952 52.4715 68.9495 53.0083 65.2207 57.1942C64.974 57.4554 65.2932 57.8761 65.6124 57.7093C70.4585 55.1557 74.6661 55.1629 79.7298 57.0636C80.049 57.216 80.3609 56.7952 80.1143 56.5413Z" fill="#0F0F14"/>
<path d="M75.0066 79.4559C78.837 79.0424 81.601 75.6038 81.1948 71.7807L80.7377 67.5295C80.3242 63.6991 76.8856 60.9351 73.0624 61.3414C69.232 61.7549 66.468 65.1935 66.8743 69.0167L67.3313 73.2678C67.7448 77.0982 71.1835 79.8622 75.0066 79.4559Z" fill="#0F0F14"/>
<path d="M73.1892 69.0256C72.9903 67.1772 73.982 65.5548 75.4041 65.4018C76.8263 65.2488 78.1403 66.6232 78.3392 68.4716C78.538 70.3199 77.5463 71.9424 76.1242 72.0954C74.7021 72.2484 73.388 70.874 73.1892 69.0256Z" fill="white"/>
<g opacity="0.4">
<path d="M69.7494 74.2735C69.6354 73.2138 70.2761 72.276 71.1803 72.1787C72.0846 72.0814 72.9101 72.8616 73.0241 73.9212C73.1381 74.9808 72.4974 75.9187 71.5931 76.016C70.6889 76.1133 69.8634 75.3331 69.7494 74.2735Z" fill="white"/>
</g>
<path d="M77.4381 76.8021C75.9582 77.5711 74.0285 77.8322 72.2946 78.0789C70.8655 78.2748 69.4073 78.311 67.9637 78.4851C67.4776 78.5504 66.9843 78.6375 66.491 78.8043C66.4547 78.8188 66.433 78.8551 66.4475 78.8986C67.3761 79.3557 68.4425 79.4427 69.4291 79.508C70.423 79.5588 71.4168 79.5806 72.4107 79.5443C74.442 79.421 76.6256 79.2759 78.403 78.1587C79.4258 77.4913 78.403 76.0331 77.4381 76.7948V76.8021Z" fill="#0F0F14"/>
<path d="M126.053 149.656C134.098 146.282 138.35 137.686 138.35 137.686C141.81 151.215 141.455 166.747 141.455 166.747C141.455 166.747 129.426 166.443 121.671 167.132L121.026 166.871C119.234 163.41 112.502 153.007 112.502 153.007C112.502 153.007 118.008 153.022 126.053 149.648V149.656Z" fill="#3E4049"/>
<path d="M141.459 166.755C141.459 166.755 145.377 170.527 146.878 172.464C148.387 174.401 147.742 176.737 147.742 176.737H122.532C121.814 174.437 121.669 167.139 121.669 167.139C129.424 166.45 141.452 166.755 141.452 166.755H141.459Z" fill="#EDBC9A"/>
<path d="M122.529 177.571H147.738C148.116 177.571 148.442 177.317 148.544 176.961C148.573 176.852 149.284 174.197 147.535 171.956C146.222 170.265 143.204 167.298 142.298 166.413C142.319 163.968 142.319 149.829 139.156 137.497C139.069 137.156 138.779 136.909 138.438 136.873C138.09 136.836 137.756 137.018 137.604 137.33C137.56 137.41 133.382 145.687 125.728 148.901C117.944 152.165 112.525 152.202 112.503 152.194C112.198 152.194 111.916 152.361 111.77 152.63C111.625 152.898 111.633 153.224 111.799 153.486C111.865 153.587 118.524 163.896 120.28 167.277C120.374 167.458 120.527 167.596 120.708 167.668L120.846 167.719C120.897 169.496 121.1 174.966 121.731 176.99C121.84 177.339 122.166 177.578 122.529 177.578V177.571ZM147.027 175.902H123.182C122.732 173.697 122.543 168.938 122.507 167.124C122.507 166.79 122.297 166.493 121.985 166.362L121.622 166.217C120.041 163.257 115.753 156.525 113.976 153.761C116.167 153.551 120.621 152.84 126.374 150.424C132.359 147.914 136.269 142.713 138.025 139.92C140.897 152.673 140.622 166.58 140.622 166.725C140.622 166.957 140.709 167.182 140.876 167.349C140.912 167.385 144.764 171.1 146.215 172.971C147.02 174.009 147.086 175.198 147.027 175.895V175.902Z" fill="#0F0F14"/>
<path d="M121.669 167.835C121.669 167.835 121.712 167.835 121.734 167.835C129.366 167.16 141.321 167.443 141.437 167.45C141.822 167.465 142.141 167.153 142.148 166.776C142.156 166.391 141.851 166.072 141.474 166.065C141.35 166.065 129.315 165.767 121.611 166.457C121.226 166.493 120.943 166.827 120.98 167.211C121.009 167.574 121.313 167.842 121.669 167.842V167.835Z" fill="#0F0F14"/>
<path d="M139.288 176.967C139.745 175.821 139.789 173.26 138.396 172.752C138.353 172.738 138.302 172.774 138.302 172.818C138.2 173.587 138.396 174.036 138.316 174.74C138.258 175.328 138.128 175.93 137.983 176.503C137.736 177.359 138.955 177.787 139.296 176.967H139.288Z" fill="#0F0F14"/>
<path d="M142.473 176.984C142.966 175.852 142.886 173.378 141.436 173.001C141.392 172.994 141.348 173.03 141.348 173.073C141.29 173.821 141.523 174.205 141.465 174.873C141.436 175.409 141.312 175.961 141.174 176.483C140.906 177.339 142.11 177.796 142.473 176.984Z" fill="#0F0F14"/>
<path d="M144.249 176.998C144.662 176.098 144.902 173.907 143.784 173.443C143.741 173.428 143.697 173.443 143.683 173.494C143.414 174.125 143.516 174.48 143.364 175.061C143.262 175.496 143.081 176.083 142.95 176.511C142.718 177.346 143.886 177.774 144.249 176.998Z" fill="#0F0F14"/>
<path d="M146.387 176.86C146.583 175.968 146.562 173.849 145.56 173.443C145.517 173.428 145.473 173.443 145.452 173.486C145.161 174.11 145.292 174.502 145.198 175.104C145.147 175.547 145.045 176.214 145.016 176.649C144.966 177.505 146.184 177.687 146.387 176.86Z" fill="#0F0F14"/>
<path d="M67.0799 177.047L96.1044 177.28C97.2462 177.289 98.1644 178.223 98.1553 179.364L98.1536 179.567C98.1445 180.709 97.2114 181.628 96.0696 181.618L67.0451 181.385C65.9033 181.376 64.9851 180.443 64.9942 179.301L64.9959 179.098C65.005 177.956 65.9381 177.038 67.0799 177.047Z" fill="#742DD2"/>
<path d="M96.6598 182.467C97.9439 182.467 98.9885 181.43 98.9958 180.145V178.818C99.0175 177.527 97.9729 176.467 96.6888 176.46L66.539 176.221C65.2477 176.213 64.1885 177.251 64.1812 178.542V179.87C64.1667 180.494 64.4061 181.081 64.8414 181.531C65.2767 181.974 65.8643 182.227 66.4882 182.227L96.638 182.467C96.638 182.467 96.6525 182.467 96.6598 182.467ZM66.5172 177.889L96.6671 178.129C96.8484 178.129 97.0153 178.201 97.1386 178.332C97.2619 178.462 97.3345 178.629 97.3345 178.811V180.138C97.32 180.508 97.0225 180.806 96.6525 180.806L66.5027 180.566C66.3213 180.566 66.1545 180.494 66.0311 180.363C65.9078 180.232 65.8353 180.066 65.8353 179.884V178.557C65.8498 178.187 66.1472 177.889 66.5172 177.889Z" fill="#0F0F14"/>
<path d="M149.525 179.134L149.526 179.337C149.536 180.479 148.617 181.412 147.475 181.421L123.754 181.611C122.612 181.621 121.679 180.702 121.67 179.56L121.668 179.357C121.659 178.216 122.577 177.282 123.719 177.273L147.441 177.083C148.583 177.074 149.516 177.992 149.525 179.134Z" fill="#742DD2"/>
<path d="M123.181 182.431C123.181 182.431 123.196 182.431 123.203 182.431L148.05 182.235C149.341 182.228 150.378 181.169 150.371 179.878V178.55C150.349 177.266 149.305 176.229 148.021 176.229C148.021 176.229 148.006 176.229 147.999 176.229L123.152 176.424C122.528 176.424 121.941 176.678 121.505 177.121C121.07 177.563 120.831 178.158 120.831 178.782V180.11C120.852 181.394 121.897 182.431 123.181 182.431ZM148.035 180.567L123.188 180.763C122.818 180.763 122.521 180.465 122.521 180.095V178.768C122.506 178.586 122.579 178.419 122.702 178.289C122.826 178.158 122.992 178.093 123.174 178.086L148.021 177.89C148.391 177.89 148.688 178.187 148.688 178.557V179.885C148.703 180.255 148.405 180.559 148.035 180.559V180.567Z" fill="#0F0F14"/>
<path d="M83.755 177.296C83.755 177.296 79.6417 171.1 70.6533 170.81C70.6533 170.81 70.5735 169.337 72.3654 169.192C72.3654 169.192 82.7756 169.831 86.5117 177.216L83.7477 177.296H83.755Z" fill="#742DD2"/>
<path d="M125.957 176.772C125.957 176.772 128.003 172.695 131.427 171.882C134.844 171.077 138.442 172.448 138.921 172.31C139.4 172.173 141.844 170.047 143.984 169.539C143.984 169.539 143.948 168.596 143.324 168.437C143.324 168.437 140.466 168.923 138.623 170.729C138.623 170.729 133.603 169.111 129.671 170.461C125.739 171.81 123.824 176.895 123.824 176.895L125.95 176.772H125.957Z" fill="#742DD2"/>
<path d="M83.7548 177.854C83.7548 177.854 83.7621 177.854 83.7693 177.854L86.5333 177.774C86.7219 177.774 86.896 177.665 86.9976 177.506C87.0919 177.339 87.0992 177.143 87.0194 176.969C83.1817 169.388 72.844 168.67 72.4087 168.641C72.3797 168.641 72.3579 168.641 72.3289 168.641C70.479 168.786 70.0655 170.142 70.1018 170.846C70.1163 171.136 70.3484 171.361 70.6386 171.368C79.2135 171.644 83.2543 177.542 83.2978 177.607C83.3993 177.76 83.5735 177.854 83.7621 177.854H83.7548ZM85.583 176.686L84.0377 176.729C83.1527 175.547 79.1264 170.788 71.3423 170.287C71.4801 170.048 71.7776 169.809 72.3797 169.751C73.0399 169.801 81.8541 170.607 85.5902 176.686H85.583Z" fill="#0F0F14"/>
<path d="M123.836 177.454C123.836 177.454 123.857 177.454 123.865 177.454L125.99 177.331C126.186 177.316 126.367 177.2 126.454 177.026C126.476 176.99 128.428 173.167 131.554 172.434C133.89 171.883 136.386 172.419 137.735 172.702C138.475 172.862 138.809 172.934 139.077 172.855C139.302 172.789 139.578 172.601 140.187 172.187C141.145 171.527 142.748 170.417 144.126 170.091C144.388 170.025 144.562 169.793 144.554 169.525C144.533 169.024 144.286 168.117 143.481 167.907C143.401 167.885 143.321 167.885 143.249 167.9C143.133 167.922 140.434 168.393 138.497 170.112C137.307 169.771 133.042 168.734 129.509 169.938C125.373 171.353 123.407 176.489 123.32 176.707C123.255 176.881 123.284 177.084 123.393 177.229C123.502 177.374 123.661 177.454 123.843 177.454H123.836ZM125.62 176.235L124.713 176.286C125.417 174.85 127.136 171.919 129.857 170.983C133.564 169.713 138.41 171.237 138.461 171.259C138.657 171.324 138.874 171.273 139.019 171.128C140.47 169.706 142.639 169.155 143.256 169.024C143.285 169.053 143.314 169.104 143.336 169.155C141.921 169.626 140.514 170.598 139.549 171.273C139.259 171.476 138.932 171.701 138.794 171.774C138.642 171.759 138.287 171.687 137.967 171.614C136.538 171.309 133.876 170.736 131.3 171.346C128.181 172.086 126.179 175.249 125.62 176.235Z" fill="#0F0F14"/>
<path d="M76.5308 105.369C76.5308 105.369 76.6759 104.027 76.9225 103.229C77.1764 102.438 78.2864 101.938 78.2864 101.938C78.2864 101.938 78.1413 99.8557 78.0687 97.5561C77.9962 95.2564 78.2864 93.6386 80.9778 93.4282C83.6692 93.2106 84.5325 99.6744 84.5325 99.6744C84.5325 99.6744 86.8685 99.4568 88.5878 99.9646C90.3144 100.465 90.0242 104.455 90.0242 104.455C91.5694 106.037 90.9601 109.41 90.9601 109.41C92.8607 110.81 91.8233 114.292 91.8233 114.292C91.8233 114.292 92.6866 117.165 91.8233 118.747C91.2502 119.798 87.6012 121.525 82.9946 123.005C76.2333 117.803 76.5235 105.369 76.5235 105.369H76.5308Z" fill="#EDBC9A"/>
<path d="M66.2967 102.372C70.352 104.707 74.6684 105.817 74.6684 105.817L76.5329 105.368C76.5329 105.368 76.2427 117.802 83.0039 123.003C80.7115 123.743 78.1796 124.418 75.6696 124.919C68.1321 126.428 59.0784 125.274 59.151 115.509C59.2235 105.745 66.2967 102.364 66.2967 102.364V102.372Z" fill="#3E4049"/>
<path d="M70.3906 126.315C72.4581 126.315 74.3951 126.032 75.8315 125.749C82.7886 124.356 91.4215 121.244 92.5605 119.155C93.4383 117.551 92.9014 115.099 92.691 114.294C92.8942 113.453 93.4165 110.681 91.8568 109.085C91.9801 108.055 92.0889 105.698 90.8847 104.167C90.9282 102.934 90.8411 99.7561 88.8316 99.1684C87.6056 98.813 86.1329 98.784 85.2479 98.8057C84.8852 96.789 83.768 92.3637 80.9169 92.6031C77.0938 92.9078 77.1881 95.9547 77.2389 97.5942C77.2897 99.1975 77.3767 100.706 77.4202 101.475C76.9632 101.766 76.3538 102.273 76.1289 102.984C75.9621 103.499 75.846 104.203 75.7735 104.696L74.678 104.965C73.8002 104.718 70.1367 103.63 66.7126 101.657C66.4732 101.519 66.183 101.512 65.9363 101.628C65.6316 101.773 58.3916 105.342 58.319 115.52C58.29 119.097 59.4217 121.853 61.6706 123.711C64.1154 125.735 67.3945 126.322 70.3906 126.322V126.315ZM85.7412 100.474C86.5029 100.474 87.5258 100.532 88.3601 100.772C89.0275 100.968 89.2959 103.013 89.1944 104.399C89.1798 104.638 89.2596 104.871 89.4338 105.045C90.4494 106.082 90.2898 108.447 90.1447 109.267C90.0867 109.579 90.2172 109.898 90.4712 110.087C91.864 111.109 91.037 114.033 91.0298 114.062C90.9862 114.222 90.9862 114.381 91.0298 114.541C91.2401 115.252 91.6609 117.312 91.095 118.357C90.5292 119.394 83.7172 122.47 75.5051 124.117C70.0206 125.212 65.3632 124.596 62.7298 122.426C60.8872 120.903 59.9586 118.582 59.9803 115.535C60.0384 107.656 64.8989 104.174 66.2845 103.34C70.26 105.545 74.279 106.597 74.4531 106.641C74.5837 106.677 74.7216 106.677 74.8594 106.641L76.7238 106.191C77.0648 106.111 77.3187 105.821 77.355 105.465C77.3912 105.117 77.5291 104.073 77.7177 103.492C77.8047 103.216 78.3053 102.861 78.6318 102.709C78.951 102.564 79.1468 102.237 79.1178 101.889C79.1178 101.867 78.9727 99.7923 78.9074 97.5362C78.8349 95.2147 79.1323 94.4167 81.0475 94.2644C82.3388 94.1628 83.398 97.4999 83.7099 99.7923C83.768 100.235 84.1742 100.554 84.6167 100.511C84.624 100.511 85.0955 100.467 85.7485 100.467L85.7412 100.474Z" fill="#0F0F14"/>
<path d="M74.4032 105.03C73.4747 105.291 72.5751 105.639 71.6828 106.024C70.7615 106.473 69.8184 106.677 69.1437 107.554C69.1074 107.598 69.1292 107.67 69.1872 107.685C70.2536 107.997 71.1387 107.598 72.1471 107.424C73.0902 107.206 74.026 106.959 74.9256 106.618C75.9049 106.219 75.4261 104.776 74.4105 105.03H74.4032Z" fill="#0F0F14"/>
<path d="M82.9947 123.84C83.2414 123.84 83.4953 123.731 83.6549 123.513C83.9378 123.151 83.8653 122.621 83.5025 122.345C77.1621 117.463 77.3507 105.508 77.3579 105.384C77.3652 104.92 77.0025 104.543 76.5454 104.528C76.0956 104.506 75.7039 104.884 75.6894 105.341C75.6749 105.863 75.4718 118.261 82.4869 123.658C82.6392 123.775 82.8206 123.833 82.9947 123.833V123.84Z" fill="#0F0F14"/>
<path d="M78.2872 102.782C78.4541 102.782 78.621 102.731 78.766 102.629C80.8408 101.164 84.635 100.518 84.6712 100.511C85.1283 100.438 85.433 100.003 85.3604 99.5534C85.2879 99.0963 84.8526 98.7916 84.4028 98.8642C84.236 98.8932 80.2024 99.5824 77.8084 101.265C77.4312 101.534 77.3442 102.049 77.6053 102.426C77.7649 102.658 78.0261 102.782 78.2872 102.782Z" fill="#0F0F14"/>
<path d="M89.8811 103.637C88.6696 103.811 87.4944 104.101 86.3264 104.456C85.1439 104.87 83.9179 105.066 82.9748 106.009C82.9313 106.052 82.953 106.132 83.0183 106.139C83.693 106.299 84.2879 106.248 84.8827 106.154C86.5948 105.893 88.4955 105.639 90.1785 105.276C91.2087 105.029 90.9403 103.513 89.8884 103.629L89.8811 103.637Z" fill="#0F0F14"/>
<path d="M90.8366 108.587C89.6251 108.739 88.4499 109.015 87.2819 109.356C86.1066 109.762 84.8589 109.973 83.9666 110.959C83.923 111.003 83.9521 111.082 84.0101 111.09C85.2941 111.307 86.3678 110.923 87.5938 110.792C88.7546 110.625 89.937 110.459 91.0833 110.234C92.1207 110.009 91.8813 108.485 90.8221 108.587H90.8366Z" fill="#0F0F14"/>
<path d="M91.7562 113.464C90.5954 113.53 89.471 113.733 88.3465 114.016C87.2221 114.371 85.9525 114.531 85.2053 115.597C85.169 115.648 85.2053 115.72 85.2706 115.72C86.4821 115.844 87.447 115.546 88.6077 115.467C89.5725 115.365 90.9654 115.256 91.9085 115.126C92.9532 114.966 92.8153 113.435 91.7562 113.464Z" fill="#0F0F14"/>
<path d="M137.464 107.715C137.464 107.715 137.318 106.373 137.072 105.575C136.818 104.784 135.708 104.283 135.708 104.283C135.708 104.283 135.853 102.201 135.926 99.9018C135.998 97.6021 135.708 95.9843 133.017 95.7739C130.325 95.5563 129.462 102.02 129.462 102.02C129.462 102.02 127.126 101.802 125.407 102.31C123.68 102.811 123.97 106.801 123.97 106.801C122.425 108.382 123.034 111.756 123.034 111.756C121.134 113.156 122.171 116.638 122.171 116.638C122.171 116.638 121.308 119.511 122.171 121.092C122.744 122.144 126.393 123.871 131 125.351C137.761 120.149 137.471 107.715 137.471 107.715H137.464Z" fill="#EDBC9A"/>
<path d="M147.392 103.995C147.392 103.995 136.648 97.3932 135.821 97.8357L135.698 104.292L136.895 105.119L137.432 107.521L139.318 108.166L137.454 107.716C137.454 107.716 137.744 120.151 130.983 125.352C133.275 126.092 135.807 126.767 138.317 127.267C145.854 128.776 154.908 127.623 154.836 117.858C154.763 108.094 147.392 103.995 147.392 103.995Z" fill="#3E4049"/>
<path d="M143.596 128.652C146.592 128.652 149.871 128.065 152.316 126.041C154.565 124.183 155.696 121.427 155.667 117.85C155.595 107.723 146.94 102.637 146.57 102.427C146.302 102.275 140.077 98.6475 136.363 96.9427C135.913 95.9343 134.985 95.0928 133.07 94.9404C130.219 94.7083 129.101 99.1336 128.739 101.15C127.854 101.129 126.381 101.15 125.155 101.513C123.145 102.101 123.058 105.278 123.102 106.511C121.898 108.042 122.006 110.4 122.13 111.43C120.563 113.026 121.085 115.797 121.295 116.639C121.085 117.444 120.548 119.889 121.426 121.499C122.565 123.589 131.198 126.701 138.155 128.094C139.591 128.384 141.528 128.66 143.596 128.66V128.652ZM136.755 98.9812C140.447 100.795 145.678 103.842 145.736 103.871C145.823 103.922 153.934 108.71 153.999 117.858C154.021 120.904 153.099 123.226 151.249 124.749C148.616 126.926 143.959 127.542 138.474 126.44C130.262 124.8 123.45 121.724 122.884 120.68C122.318 119.642 122.739 117.575 122.949 116.864C122.993 116.711 122.993 116.544 122.949 116.385C122.942 116.356 122.122 113.432 123.508 112.409C123.762 112.221 123.893 111.902 123.835 111.59C123.689 110.77 123.53 108.405 124.545 107.367C124.712 107.193 124.799 106.961 124.785 106.722C124.691 105.365 124.93 103.298 125.619 103.095C127.164 102.645 129.348 102.833 129.37 102.841C129.812 102.877 130.211 102.565 130.277 102.122C130.581 99.83 131.648 96.4929 132.939 96.5945C134.034 96.6815 134.6 96.979 134.869 97.6536C134.883 97.7552 134.912 97.8568 134.963 97.9438C135.086 98.4226 135.101 99.0465 135.079 99.8663C135.007 102.122 134.869 104.197 134.869 104.219C134.847 104.567 135.043 104.894 135.362 105.039C135.688 105.184 136.182 105.539 136.269 105.822C136.45 106.403 136.595 107.447 136.632 107.795C136.668 108.144 136.922 108.434 137.263 108.521L139.127 108.971C139.577 109.08 140.027 108.804 140.135 108.354C140.244 107.904 139.969 107.455 139.519 107.346L138.213 107.026C138.14 106.533 138.024 105.829 137.858 105.314C137.633 104.603 137.023 104.096 136.566 103.805C136.617 103.036 136.697 101.528 136.748 99.9243C136.755 99.6414 136.769 99.3222 136.755 98.974V98.9812Z" fill="#0F0F14"/>
<path d="M139.063 108.956C140.427 109.464 141.842 109.783 143.264 110.059C143.742 110.153 144.236 110.197 144.794 110.023C144.852 110.008 144.874 109.936 144.838 109.892C144.163 109.007 143.213 108.811 142.299 108.362C141.414 107.984 140.507 107.629 139.578 107.368C138.555 107.114 138.091 108.557 139.063 108.956Z" fill="#0F0F14"/>
<path d="M130.992 126.187C131.174 126.187 131.348 126.129 131.5 126.012C138.515 120.615 138.312 108.217 138.297 107.695C138.29 107.23 137.906 106.868 137.441 106.882C136.977 106.89 136.614 107.274 136.629 107.738C136.629 107.862 136.825 119.817 130.484 124.699C130.122 124.982 130.049 125.505 130.332 125.867C130.499 126.078 130.745 126.194 130.992 126.194V126.187Z" fill="#0F0F14"/>
<path d="M135.696 105.117C135.957 105.117 136.218 104.994 136.378 104.762C136.646 104.385 136.552 103.862 136.175 103.601C133.781 101.911 129.755 101.229 129.58 101.2C129.123 101.12 128.695 101.432 128.623 101.889C128.55 102.346 128.855 102.774 129.312 102.847C129.348 102.847 133.142 103.5 135.217 104.965C135.362 105.067 135.529 105.117 135.696 105.117Z" fill="#0F0F14"/>
<path d="M123.813 107.62C124.967 107.867 126.156 108.055 127.332 108.229C128.442 108.353 129.82 108.759 130.966 108.476C131.024 108.462 131.046 108.389 131.01 108.346C130.531 107.845 129.972 107.577 129.392 107.366C127.673 106.75 125.917 106.234 124.096 105.973C123.639 105.908 123.218 106.227 123.153 106.684C123.095 107.12 123.385 107.526 123.813 107.613V107.62Z" fill="#0F0F14"/>
<path d="M122.893 112.583C124.039 112.808 125.214 112.975 126.375 113.142C127.601 113.272 128.675 113.657 129.959 113.439C130.017 113.432 130.046 113.352 130.002 113.309C129.11 112.322 127.862 112.112 126.687 111.705C125.519 111.357 124.351 111.082 123.132 110.936C122.073 110.835 121.841 112.373 122.886 112.59L122.893 112.583Z" fill="#0F0F14"/>
<path d="M122.086 117.474C123.022 117.604 124.415 117.72 125.373 117.815C126.533 117.895 127.505 118.192 128.71 118.069C128.768 118.069 128.804 117.996 128.775 117.945C128.405 117.372 127.846 117.089 127.302 116.886C126.207 116.48 125.09 116.197 123.943 116.008C123.378 115.914 122.812 115.841 122.224 115.812C121.76 115.791 121.368 116.146 121.346 116.603C121.325 117.046 121.651 117.423 122.079 117.474H122.086Z" fill="#0F0F14"/>
<path d="M94.1941 142.907C94.1941 142.907 90.8715 158.309 90.9876 158.584C91.1037 158.853 97.4587 159.39 97.4587 159.39L101.492 144.373" fill="#742DD2"/>
<path d="M108.111 143.853C108.111 143.853 112.384 159.443 112.275 159.66C112.166 159.878 104.897 159.66 104.897 159.66L101.089 144.208" fill="#742DD2"/>
<path d="M97.4579 160.225C97.8351 160.225 98.1616 159.971 98.2632 159.608L102.297 144.591C102.413 144.149 102.152 143.684 101.709 143.568C101.267 143.452 100.802 143.713 100.686 144.156L96.834 158.498C94.8898 158.324 92.8948 158.114 91.9154 157.961C92.3289 155.669 93.9467 148.001 95.0131 143.082C95.1074 142.633 94.8245 142.19 94.3747 142.088C93.9249 141.994 93.4824 142.277 93.3808 142.727C90.0002 158.397 90.0873 158.585 90.2251 158.912C90.4573 159.441 90.5443 159.637 97.3926 160.218C97.4144 160.218 97.4434 160.218 97.4652 160.218L97.4579 160.225Z" fill="#0F0F14"/>
<path d="M110.194 160.604C112.741 160.604 112.828 160.423 113.024 160.031C113.22 159.647 113.234 159.611 111.043 151.456C109.999 147.575 108.932 143.665 108.918 143.629C108.794 143.186 108.337 142.925 107.895 143.041C107.452 143.165 107.191 143.622 107.307 144.064C108.635 148.917 110.659 156.404 111.268 158.907C110.078 158.929 107.779 158.9 105.552 158.834L101.895 143.999C101.786 143.549 101.329 143.281 100.887 143.389C100.437 143.498 100.169 143.955 100.277 144.398L104.086 159.85C104.173 160.213 104.5 160.474 104.87 160.488C107.329 160.561 109.019 160.597 110.194 160.597V160.604Z" fill="#0F0F14"/>
<path d="M101.558 133.486C101.558 133.486 103.43 131.491 107.485 132.136C110.271 132.579 111.577 137.359 110.235 141.4C108.885 145.441 101.616 145.869 99.4109 142.909C99.4109 142.909 95.1525 144.425 92.2506 141.705C89.3488 138.984 91.0682 132.267 94.2456 131.316C97.4231 130.366 99.9042 131.766 101.573 133.486H101.558Z" fill="#742DD2"/>
<path d="M104.209 145.666C104.731 145.666 105.239 145.622 105.725 145.55C108.373 145.122 110.354 143.671 111.021 141.668C111.964 138.846 111.725 135.524 110.433 133.391C109.715 132.208 108.743 131.49 107.611 131.309C104.528 130.816 102.555 131.737 101.612 132.375C99.9216 130.852 97.3535 129.503 93.9947 130.511C92.2391 131.04 90.7737 132.948 90.1788 135.502C89.5331 138.237 90.1062 140.849 91.6732 142.314C94.2921 144.766 97.7743 144.207 99.1236 143.867C100.371 145.143 102.352 145.666 104.209 145.666ZM105.907 132.84C106.349 132.84 106.828 132.876 107.358 132.956C108.156 133.086 108.7 133.732 109.019 134.254C110.056 135.959 110.23 138.788 109.447 141.132C108.983 142.532 107.495 143.562 105.471 143.888C103.222 144.251 101.003 143.642 100.081 142.401C99.8636 142.104 99.4791 141.988 99.1309 142.111C99.0946 142.125 95.3077 143.417 92.8194 141.081C91.4701 139.818 91.4121 137.562 91.8111 135.872C92.2608 133.957 93.3345 132.441 94.4807 132.1C96.8457 131.389 99.0221 132.049 100.966 134.051C101.126 134.218 101.358 134.305 101.576 134.305C101.801 134.305 102.018 134.211 102.171 134.044C102.236 133.979 103.411 132.825 105.914 132.825L105.907 132.84Z" fill="#0F0F14"/>
<path d="M99.4094 143.745C99.5037 143.745 99.6053 143.73 99.6996 143.694C100.135 143.534 100.352 143.048 100.193 142.62C99.2063 139.972 101.368 135.438 102.282 133.915C102.522 133.523 102.391 133.008 101.999 132.769C101.608 132.529 101.092 132.66 100.853 133.052C100.701 133.305 97.1605 139.261 98.6332 143.201C98.7565 143.534 99.0757 143.745 99.4166 143.745H99.4094Z" fill="#0F0F14"/>
<path d="M37.9086 72.3161C40.0415 68.8194 41.0934 64.6263 40.6436 60.2373C39.5482 49.5877 30.0302 41.8398 19.3806 42.9353C8.73089 44.0307 0.983055 53.5486 2.07849 64.1983C3.17392 74.848 12.6919 82.5958 23.3415 81.5004C26.3014 81.1957 29.0436 80.2381 31.4231 78.7872L40.3969 80.7967L37.9086 72.3089V72.3161Z" fill="white"/>
<g opacity="0.5">
<path d="M19.7743 46.649C29.7203 45.6261 38.6797 52.3221 40.7109 61.8908C40.7109 61.2089 40.6819 60.5197 40.6094 59.8233C39.5139 49.1736 29.996 41.4258 19.3463 42.5212C8.69667 43.6166 0.948833 53.1346 2.04427 63.7842C2.11681 64.4807 2.22563 65.1699 2.37072 65.8373C2.40699 56.0509 9.82112 47.6719 19.7743 46.649Z" fill="white"/>
</g>
<path d="M21.3305 83.1968C22.056 83.1968 22.7814 83.1605 23.5141 83.0879C26.4232 82.7905 29.1799 81.9127 31.6972 80.4836L40.0545 82.3552C40.6058 82.4786 41.1789 82.3045 41.5634 81.8909C41.9479 81.4774 42.0857 80.8971 41.9261 80.353L39.6337 72.5253C41.781 68.7312 42.6806 64.4365 42.2308 60.0766C41.6577 54.5051 38.9518 49.4849 34.6063 45.952C30.2608 42.4118 24.7982 40.7795 19.2267 41.3526C13.6552 41.9257 8.63507 44.6316 5.10211 48.9771C1.56189 53.3226 -0.0703735 58.7852 0.502735 64.3567C1.07584 69.9282 3.78179 74.9484 8.12726 78.4813C11.9069 81.5572 16.5208 83.1895 21.3305 83.1895V83.1968ZM31.4361 77.1973C31.1459 77.1973 30.863 77.2771 30.6091 77.4294C28.3456 78.8078 25.8428 79.6493 23.1877 79.9177C18.4577 80.4038 13.8221 79.0181 10.1368 76.022C6.45145 73.0186 4.15177 68.7675 3.66571 64.0375C3.17966 59.3076 4.56528 54.6792 7.56866 50.9866C10.572 47.3013 14.8232 45.0016 19.5532 44.5156C24.2831 44.0295 28.9115 45.4151 32.6041 48.4113C36.2894 51.4146 38.589 55.6658 39.0751 60.3958C39.4741 64.2987 38.6036 68.1363 36.565 71.4807C36.3329 71.8652 36.2676 72.3295 36.3982 72.7575L38.1248 78.6482L31.7916 77.2263C31.6755 77.1973 31.5594 77.19 31.4433 77.19L31.4361 77.1973Z" fill="#0F0F14"/>
<g opacity="0.25">
<path d="M38.0268 72.124C32.7164 76.6146 25.4039 78.5805 18.1421 76.7742C10.0895 74.7719 4.14808 68.6346 2.01524 61.1914C1.96446 62.178 1.98623 63.1791 2.08779 64.1948C3.18323 74.8444 12.7012 82.5923 23.3508 81.4969C26.3107 81.1922 29.0529 80.2346 31.4324 78.7837L40.4062 80.7932L37.9179 72.3054C37.9542 72.2473 37.9905 72.182 38.0268 72.1167V72.124Z" fill="#0F0F14"/>
</g>
<path d="M27.564 56.7762C25.8882 55.1004 23.1678 55.3978 21.492 57.0736L21.2308 57.3348L20.9696 57.0736C19.2938 55.3978 16.5734 55.0931 14.8976 56.7762C13.2218 58.452 13.2218 61.1724 14.8976 62.8482L15.1588 63.1094L20.4328 68.3834C20.8753 68.826 21.5935 68.826 22.0361 68.3834L27.3101 63.1094L27.5713 62.8482C29.2471 61.1724 29.2471 58.452 27.5713 56.7762H27.564Z" fill="#FF0068"/>
</g>
<defs>
<clipPath id="clip0_1213_9163">
<rect width="177.236" height="185.999" fill="white" transform="matrix(-1 0 0 1 177.629 0)"/>
</clipPath>
</defs>
</svg>
