<svg width="296" height="286" viewBox="0 0 296 286" fill="none" xmlns="http://www.w3.org/2000/svg">
<path d="M174.217 206.431L189.538 209.626L194.862 184.092L169.328 178.768L164.778 187.81C161.133 195.71 165.919 204.701 174.217 206.431ZM45.1069 199.492C45.1069 199.492 129.75 170.515 169.328 178.768L187.964 89.3981C150.939 81.6777 82.3778 20.7535 82.3778 20.7535L45.1069 199.492Z" fill="#F1F1F2" fill-opacity="0.3"/>
<path d="M235.825 179.312C218.197 175.636 206.887 158.366 210.563 140.738C214.239 123.111 231.508 111.801 249.136 115.476C266.764 119.152 278.074 136.422 274.398 154.049C270.722 171.677 253.453 182.987 235.825 179.312Z" fill="#EAECEE"/>
<path d="M48.5849 86.9792L67.7355 90.9725L59.7488 129.274L40.5982 125.28C29.7462 123.018 23.1781 112.988 25.441 102.136C27.7039 91.2845 37.7329 84.7163 48.5849 86.9792ZM155.642 257.179C160.588 262.207 170.003 268.167 183.143 272.239C186.84 273.676 191.202 271.921 193.411 267.719L239.734 186.122C239.734 186.122 191.812 134.83 182.095 181.43C174.774 216.539 161.338 233.055 155.406 239.145C151.282 242.948 150.084 248.693 152.344 253.827C153.355 255.37 154.498 256.275 155.642 257.179Z" fill="#EAECEE"/>
<path d="M233.163 192.079L169.328 178.768L187.963 89.3983L251.798 102.709C258.82 104.174 263.367 111.117 261.903 118.139L248.592 181.974C247.128 188.996 240.185 193.543 233.163 192.079Z" fill="#F1F1F2"/>
<path d="M36.0604 210.928C43.0823 212.393 50.0255 207.845 51.4897 200.823L88.7606 22.0847C90.2249 15.0628 85.6777 8.11963 78.6558 6.65542C71.6339 5.1912 64.6907 9.73838 63.2265 16.7603L25.9556 195.499C24.4914 202.521 29.0386 209.464 36.0604 210.928Z" fill="#EAECEE"/>
</svg>
