<svg width="313" height="304" viewBox="0 0 313 304" fill="none" xmlns="http://www.w3.org/2000/svg">
<path d="M84.5892 39.9988H279.388C293.521 39.9988 304.979 50.2956 304.979 62.9974V272.952C304.979 285.653 293.521 295.95 279.388 295.95H84.5892C70.4562 295.95 58.9992 285.653 58.9992 272.952V62.9974C58.9992 50.2956 70.4562 39.9988 84.5892 39.9988Z" stroke="#D1D3D4" stroke-opacity="0.3" stroke-width="16" stroke-miterlimit="10"/>
<path d="M278.095 170.26C277.232 163.363 273.783 156.465 268.611 152.154L179.803 81.453C168.595 72.8305 153.075 74.5554 144.453 85.7642C135.831 96.973 137.555 112.492 148.764 121.115L213.429 172.847L148.764 224.578C137.555 233.201 135.831 248.721 144.453 259.929C153.075 271.138 168.595 272.863 179.803 264.241L268.611 191.815C274.646 186.642 278.095 179.744 278.095 171.984V170.26Z" fill="#D1D3D4" fill-opacity="0.3"/>
<path d="M0.000206605 99.4332C0.862618 106.331 4.31144 113.228 9.48418 117.54L98.2914 188.24C109.5 196.863 125.019 195.138 133.642 183.929C142.264 172.72 140.539 157.201 129.331 148.579L64.6658 96.8468L129.331 45.1149C140.539 36.4924 142.264 20.9724 133.642 9.76448C125.019 -1.44434 109.5 -3.16919 98.2914 5.45236L9.48419 77.878C3.44901 83.0516 0.000207434 89.9492 0.000206755 97.7092L0.000206605 99.4332Z" fill="#D1D3D4" fill-opacity="0.3"/>
</svg>
