<svg width="717" height="664" viewBox="0 0 717 664" fill="none" xmlns="http://www.w3.org/2000/svg">
<path d="M-5.00237e-08 93C-2.23964e-08 76.4315 13.4315 63 30 63L687 63C703.569 63 717 76.4315 717 93L717 634C717 650.569 703.569 664 687 664L30 664C13.4315 664 -9.79744e-07 650.569 -9.52117e-07 634L-5.00237e-08 93Z" fill="white"/>
<path d="M-5.00236e-08 30C-2.23963e-08 13.4314 13.4315 -2.19773e-08 30 -4.90877e-08L477.499 -7.8131e-07C494.067 -8.0842e-07 507.499 13.4315 507.499 30L507.499 106L-1.7675e-07 106L-5.00236e-08 30Z" fill="white"/>
</svg>
